G04 #@! TF.GenerationSoftware,KiCad,Pcbnew,9.0.3*
G04 #@! TF.CreationDate,2025-08-03T15:24:15-04:00*
G04 #@! TF.ProjectId,CH32V003A4M6,43483332-5630-4303-9341-344d362e6b69,rev?*
G04 #@! TF.SameCoordinates,Original*
G04 #@! TF.FileFunction,Soldermask,Top*
G04 #@! TF.FilePolarity,Negative*
%FSLAX46Y46*%
G04 Gerber Fmt 4.6, Leading zero omitted, Abs format (unit mm)*
G04 Created by KiCad (PCBNEW 9.0.3) date 2025-08-03 15:24:15*
%MOMM*%
%LPD*%
G01*
G04 APERTURE LIST*
G04 APERTURE END LIST*
G36*
X129920000Y-129300000D02*
G01*
X128220000Y-129300000D01*
X128220000Y-127600000D01*
X129920000Y-127600000D01*
X129920000Y-129300000D01*
G37*
G36*
X131856742Y-127636601D02*
G01*
X132010687Y-127700367D01*
X132149234Y-127792941D01*
X132267059Y-127910766D01*
X132359633Y-128049313D01*
X132423399Y-128203258D01*
X132455907Y-128366685D01*
X132455907Y-128533315D01*
X132423399Y-128696742D01*
X132359633Y-128850687D01*
X132267059Y-128989234D01*
X132149234Y-129107059D01*
X132010687Y-129199633D01*
X131856742Y-129263399D01*
X131693315Y-129295907D01*
X131526685Y-129295907D01*
X131363258Y-129263399D01*
X131209313Y-129199633D01*
X131070766Y-129107059D01*
X130952941Y-128989234D01*
X130860367Y-128850687D01*
X130796601Y-128696742D01*
X130764093Y-128533315D01*
X130764093Y-128366685D01*
X130796601Y-128203258D01*
X130860367Y-128049313D01*
X130952941Y-127910766D01*
X131070766Y-127792941D01*
X131209313Y-127700367D01*
X131363258Y-127636601D01*
X131526685Y-127604093D01*
X131693315Y-127604093D01*
X131856742Y-127636601D01*
G37*
G36*
X134396742Y-127636601D02*
G01*
X134550687Y-127700367D01*
X134689234Y-127792941D01*
X134807059Y-127910766D01*
X134899633Y-128049313D01*
X134963399Y-128203258D01*
X134995907Y-128366685D01*
X134995907Y-128533315D01*
X134963399Y-128696742D01*
X134899633Y-128850687D01*
X134807059Y-128989234D01*
X134689234Y-129107059D01*
X134550687Y-129199633D01*
X134396742Y-129263399D01*
X134233315Y-129295907D01*
X134066685Y-129295907D01*
X133903258Y-129263399D01*
X133749313Y-129199633D01*
X133610766Y-129107059D01*
X133492941Y-128989234D01*
X133400367Y-128850687D01*
X133336601Y-128696742D01*
X133304093Y-128533315D01*
X133304093Y-128366685D01*
X133336601Y-128203258D01*
X133400367Y-128049313D01*
X133492941Y-127910766D01*
X133610766Y-127792941D01*
X133749313Y-127700367D01*
X133903258Y-127636601D01*
X134066685Y-127604093D01*
X134233315Y-127604093D01*
X134396742Y-127636601D01*
G37*
G36*
X136936742Y-127636601D02*
G01*
X137090687Y-127700367D01*
X137229234Y-127792941D01*
X137347059Y-127910766D01*
X137439633Y-128049313D01*
X137503399Y-128203258D01*
X137535907Y-128366685D01*
X137535907Y-128533315D01*
X137503399Y-128696742D01*
X137439633Y-128850687D01*
X137347059Y-128989234D01*
X137229234Y-129107059D01*
X137090687Y-129199633D01*
X136936742Y-129263399D01*
X136773315Y-129295907D01*
X136606685Y-129295907D01*
X136443258Y-129263399D01*
X136289313Y-129199633D01*
X136150766Y-129107059D01*
X136032941Y-128989234D01*
X135940367Y-128850687D01*
X135876601Y-128696742D01*
X135844093Y-128533315D01*
X135844093Y-128366685D01*
X135876601Y-128203258D01*
X135940367Y-128049313D01*
X136032941Y-127910766D01*
X136150766Y-127792941D01*
X136289313Y-127700367D01*
X136443258Y-127636601D01*
X136606685Y-127604093D01*
X136773315Y-127604093D01*
X136936742Y-127636601D01*
G37*
G36*
X139476742Y-127636601D02*
G01*
X139630687Y-127700367D01*
X139769234Y-127792941D01*
X139887059Y-127910766D01*
X139979633Y-128049313D01*
X140043399Y-128203258D01*
X140075907Y-128366685D01*
X140075907Y-128533315D01*
X140043399Y-128696742D01*
X139979633Y-128850687D01*
X139887059Y-128989234D01*
X139769234Y-129107059D01*
X139630687Y-129199633D01*
X139476742Y-129263399D01*
X139313315Y-129295907D01*
X139146685Y-129295907D01*
X138983258Y-129263399D01*
X138829313Y-129199633D01*
X138690766Y-129107059D01*
X138572941Y-128989234D01*
X138480367Y-128850687D01*
X138416601Y-128696742D01*
X138384093Y-128533315D01*
X138384093Y-128366685D01*
X138416601Y-128203258D01*
X138480367Y-128049313D01*
X138572941Y-127910766D01*
X138690766Y-127792941D01*
X138829313Y-127700367D01*
X138983258Y-127636601D01*
X139146685Y-127604093D01*
X139313315Y-127604093D01*
X139476742Y-127636601D01*
G37*
G36*
X142016742Y-127636601D02*
G01*
X142170687Y-127700367D01*
X142309234Y-127792941D01*
X142427059Y-127910766D01*
X142519633Y-128049313D01*
X142583399Y-128203258D01*
X142615907Y-128366685D01*
X142615907Y-128533315D01*
X142583399Y-128696742D01*
X142519633Y-128850687D01*
X142427059Y-128989234D01*
X142309234Y-129107059D01*
X142170687Y-129199633D01*
X142016742Y-129263399D01*
X141853315Y-129295907D01*
X141686685Y-129295907D01*
X141523258Y-129263399D01*
X141369313Y-129199633D01*
X141230766Y-129107059D01*
X141112941Y-128989234D01*
X141020367Y-128850687D01*
X140956601Y-128696742D01*
X140924093Y-128533315D01*
X140924093Y-128366685D01*
X140956601Y-128203258D01*
X141020367Y-128049313D01*
X141112941Y-127910766D01*
X141230766Y-127792941D01*
X141369313Y-127700367D01*
X141523258Y-127636601D01*
X141686685Y-127604093D01*
X141853315Y-127604093D01*
X142016742Y-127636601D01*
G37*
G36*
X144556742Y-127636601D02*
G01*
X144710687Y-127700367D01*
X144849234Y-127792941D01*
X144967059Y-127910766D01*
X145059633Y-128049313D01*
X145123399Y-128203258D01*
X145155907Y-128366685D01*
X145155907Y-128533315D01*
X145123399Y-128696742D01*
X145059633Y-128850687D01*
X144967059Y-128989234D01*
X144849234Y-129107059D01*
X144710687Y-129199633D01*
X144556742Y-129263399D01*
X144393315Y-129295907D01*
X144226685Y-129295907D01*
X144063258Y-129263399D01*
X143909313Y-129199633D01*
X143770766Y-129107059D01*
X143652941Y-128989234D01*
X143560367Y-128850687D01*
X143496601Y-128696742D01*
X143464093Y-128533315D01*
X143464093Y-128366685D01*
X143496601Y-128203258D01*
X143560367Y-128049313D01*
X143652941Y-127910766D01*
X143770766Y-127792941D01*
X143909313Y-127700367D01*
X144063258Y-127636601D01*
X144226685Y-127604093D01*
X144393315Y-127604093D01*
X144556742Y-127636601D01*
G37*
G36*
X147096742Y-127636601D02*
G01*
X147250687Y-127700367D01*
X147389234Y-127792941D01*
X147507059Y-127910766D01*
X147599633Y-128049313D01*
X147663399Y-128203258D01*
X147695907Y-128366685D01*
X147695907Y-128533315D01*
X147663399Y-128696742D01*
X147599633Y-128850687D01*
X147507059Y-128989234D01*
X147389234Y-129107059D01*
X147250687Y-129199633D01*
X147096742Y-129263399D01*
X146933315Y-129295907D01*
X146766685Y-129295907D01*
X146603258Y-129263399D01*
X146449313Y-129199633D01*
X146310766Y-129107059D01*
X146192941Y-128989234D01*
X146100367Y-128850687D01*
X146036601Y-128696742D01*
X146004093Y-128533315D01*
X146004093Y-128366685D01*
X146036601Y-128203258D01*
X146100367Y-128049313D01*
X146192941Y-127910766D01*
X146310766Y-127792941D01*
X146449313Y-127700367D01*
X146603258Y-127636601D01*
X146766685Y-127604093D01*
X146933315Y-127604093D01*
X147096742Y-127636601D01*
G37*
G36*
X149636742Y-127636601D02*
G01*
X149790687Y-127700367D01*
X149929234Y-127792941D01*
X150047059Y-127910766D01*
X150139633Y-128049313D01*
X150203399Y-128203258D01*
X150235907Y-128366685D01*
X150235907Y-128533315D01*
X150203399Y-128696742D01*
X150139633Y-128850687D01*
X150047059Y-128989234D01*
X149929234Y-129107059D01*
X149790687Y-129199633D01*
X149636742Y-129263399D01*
X149473315Y-129295907D01*
X149306685Y-129295907D01*
X149143258Y-129263399D01*
X148989313Y-129199633D01*
X148850766Y-129107059D01*
X148732941Y-128989234D01*
X148640367Y-128850687D01*
X148576601Y-128696742D01*
X148544093Y-128533315D01*
X148544093Y-128366685D01*
X148576601Y-128203258D01*
X148640367Y-128049313D01*
X148732941Y-127910766D01*
X148850766Y-127792941D01*
X148989313Y-127700367D01*
X149143258Y-127636601D01*
X149306685Y-127604093D01*
X149473315Y-127604093D01*
X149636742Y-127636601D01*
G37*
G36*
X152176742Y-127636601D02*
G01*
X152330687Y-127700367D01*
X152469234Y-127792941D01*
X152587059Y-127910766D01*
X152679633Y-128049313D01*
X152743399Y-128203258D01*
X152775907Y-128366685D01*
X152775907Y-128533315D01*
X152743399Y-128696742D01*
X152679633Y-128850687D01*
X152587059Y-128989234D01*
X152469234Y-129107059D01*
X152330687Y-129199633D01*
X152176742Y-129263399D01*
X152013315Y-129295907D01*
X151846685Y-129295907D01*
X151683258Y-129263399D01*
X151529313Y-129199633D01*
X151390766Y-129107059D01*
X151272941Y-128989234D01*
X151180367Y-128850687D01*
X151116601Y-128696742D01*
X151084093Y-128533315D01*
X151084093Y-128366685D01*
X151116601Y-128203258D01*
X151180367Y-128049313D01*
X151272941Y-127910766D01*
X151390766Y-127792941D01*
X151529313Y-127700367D01*
X151683258Y-127636601D01*
X151846685Y-127604093D01*
X152013315Y-127604093D01*
X152176742Y-127636601D01*
G37*
G36*
X154716742Y-127636601D02*
G01*
X154870687Y-127700367D01*
X155009234Y-127792941D01*
X155127059Y-127910766D01*
X155219633Y-128049313D01*
X155283399Y-128203258D01*
X155315907Y-128366685D01*
X155315907Y-128533315D01*
X155283399Y-128696742D01*
X155219633Y-128850687D01*
X155127059Y-128989234D01*
X155009234Y-129107059D01*
X154870687Y-129199633D01*
X154716742Y-129263399D01*
X154553315Y-129295907D01*
X154386685Y-129295907D01*
X154223258Y-129263399D01*
X154069313Y-129199633D01*
X153930766Y-129107059D01*
X153812941Y-128989234D01*
X153720367Y-128850687D01*
X153656601Y-128696742D01*
X153624093Y-128533315D01*
X153624093Y-128366685D01*
X153656601Y-128203258D01*
X153720367Y-128049313D01*
X153812941Y-127910766D01*
X153930766Y-127792941D01*
X154069313Y-127700367D01*
X154223258Y-127636601D01*
X154386685Y-127604093D01*
X154553315Y-127604093D01*
X154716742Y-127636601D01*
G37*
G36*
X157256742Y-127636601D02*
G01*
X157410687Y-127700367D01*
X157549234Y-127792941D01*
X157667059Y-127910766D01*
X157759633Y-128049313D01*
X157823399Y-128203258D01*
X157855907Y-128366685D01*
X157855907Y-128533315D01*
X157823399Y-128696742D01*
X157759633Y-128850687D01*
X157667059Y-128989234D01*
X157549234Y-129107059D01*
X157410687Y-129199633D01*
X157256742Y-129263399D01*
X157093315Y-129295907D01*
X156926685Y-129295907D01*
X156763258Y-129263399D01*
X156609313Y-129199633D01*
X156470766Y-129107059D01*
X156352941Y-128989234D01*
X156260367Y-128850687D01*
X156196601Y-128696742D01*
X156164093Y-128533315D01*
X156164093Y-128366685D01*
X156196601Y-128203258D01*
X156260367Y-128049313D01*
X156352941Y-127910766D01*
X156470766Y-127792941D01*
X156609313Y-127700367D01*
X156763258Y-127636601D01*
X156926685Y-127604093D01*
X157093315Y-127604093D01*
X157256742Y-127636601D01*
G37*
G36*
X159796742Y-127636601D02*
G01*
X159950687Y-127700367D01*
X160089234Y-127792941D01*
X160207059Y-127910766D01*
X160299633Y-128049313D01*
X160363399Y-128203258D01*
X160395907Y-128366685D01*
X160395907Y-128533315D01*
X160363399Y-128696742D01*
X160299633Y-128850687D01*
X160207059Y-128989234D01*
X160089234Y-129107059D01*
X159950687Y-129199633D01*
X159796742Y-129263399D01*
X159633315Y-129295907D01*
X159466685Y-129295907D01*
X159303258Y-129263399D01*
X159149313Y-129199633D01*
X159010766Y-129107059D01*
X158892941Y-128989234D01*
X158800367Y-128850687D01*
X158736601Y-128696742D01*
X158704093Y-128533315D01*
X158704093Y-128366685D01*
X158736601Y-128203258D01*
X158800367Y-128049313D01*
X158892941Y-127910766D01*
X159010766Y-127792941D01*
X159149313Y-127700367D01*
X159303258Y-127636601D01*
X159466685Y-127604093D01*
X159633315Y-127604093D01*
X159796742Y-127636601D01*
G37*
G36*
X162336742Y-127636601D02*
G01*
X162490687Y-127700367D01*
X162629234Y-127792941D01*
X162747059Y-127910766D01*
X162839633Y-128049313D01*
X162903399Y-128203258D01*
X162935907Y-128366685D01*
X162935907Y-128533315D01*
X162903399Y-128696742D01*
X162839633Y-128850687D01*
X162747059Y-128989234D01*
X162629234Y-129107059D01*
X162490687Y-129199633D01*
X162336742Y-129263399D01*
X162173315Y-129295907D01*
X162006685Y-129295907D01*
X161843258Y-129263399D01*
X161689313Y-129199633D01*
X161550766Y-129107059D01*
X161432941Y-128989234D01*
X161340367Y-128850687D01*
X161276601Y-128696742D01*
X161244093Y-128533315D01*
X161244093Y-128366685D01*
X161276601Y-128203258D01*
X161340367Y-128049313D01*
X161432941Y-127910766D01*
X161550766Y-127792941D01*
X161689313Y-127700367D01*
X161843258Y-127636601D01*
X162006685Y-127604093D01*
X162173315Y-127604093D01*
X162336742Y-127636601D01*
G37*
G36*
X164876742Y-127636601D02*
G01*
X165030687Y-127700367D01*
X165169234Y-127792941D01*
X165287059Y-127910766D01*
X165379633Y-128049313D01*
X165443399Y-128203258D01*
X165475907Y-128366685D01*
X165475907Y-128533315D01*
X165443399Y-128696742D01*
X165379633Y-128850687D01*
X165287059Y-128989234D01*
X165169234Y-129107059D01*
X165030687Y-129199633D01*
X164876742Y-129263399D01*
X164713315Y-129295907D01*
X164546685Y-129295907D01*
X164383258Y-129263399D01*
X164229313Y-129199633D01*
X164090766Y-129107059D01*
X163972941Y-128989234D01*
X163880367Y-128850687D01*
X163816601Y-128696742D01*
X163784093Y-128533315D01*
X163784093Y-128366685D01*
X163816601Y-128203258D01*
X163880367Y-128049313D01*
X163972941Y-127910766D01*
X164090766Y-127792941D01*
X164229313Y-127700367D01*
X164383258Y-127636601D01*
X164546685Y-127604093D01*
X164713315Y-127604093D01*
X164876742Y-127636601D01*
G37*
G36*
X167416742Y-127636601D02*
G01*
X167570687Y-127700367D01*
X167709234Y-127792941D01*
X167827059Y-127910766D01*
X167919633Y-128049313D01*
X167983399Y-128203258D01*
X168015907Y-128366685D01*
X168015907Y-128533315D01*
X167983399Y-128696742D01*
X167919633Y-128850687D01*
X167827059Y-128989234D01*
X167709234Y-129107059D01*
X167570687Y-129199633D01*
X167416742Y-129263399D01*
X167253315Y-129295907D01*
X167086685Y-129295907D01*
X166923258Y-129263399D01*
X166769313Y-129199633D01*
X166630766Y-129107059D01*
X166512941Y-128989234D01*
X166420367Y-128850687D01*
X166356601Y-128696742D01*
X166324093Y-128533315D01*
X166324093Y-128366685D01*
X166356601Y-128203258D01*
X166420367Y-128049313D01*
X166512941Y-127910766D01*
X166630766Y-127792941D01*
X166769313Y-127700367D01*
X166923258Y-127636601D01*
X167086685Y-127604093D01*
X167253315Y-127604093D01*
X167416742Y-127636601D01*
G37*
G36*
X147407403Y-125606418D02*
G01*
X147456066Y-125638934D01*
X147488582Y-125687597D01*
X147500000Y-125745000D01*
X147500000Y-126045000D01*
X147488582Y-126102403D01*
X147456066Y-126151066D01*
X147407403Y-126183582D01*
X147350000Y-126195000D01*
X145650000Y-126195000D01*
X145592597Y-126183582D01*
X145543934Y-126151066D01*
X145511418Y-126102403D01*
X145500000Y-126045000D01*
X145500000Y-125745000D01*
X145511418Y-125687597D01*
X145543934Y-125638934D01*
X145592597Y-125606418D01*
X145650000Y-125595000D01*
X147350000Y-125595000D01*
X147407403Y-125606418D01*
G37*
G36*
X152407403Y-125606418D02*
G01*
X152456066Y-125638934D01*
X152488582Y-125687597D01*
X152500000Y-125745000D01*
X152500000Y-126045000D01*
X152488582Y-126102403D01*
X152456066Y-126151066D01*
X152407403Y-126183582D01*
X152350000Y-126195000D01*
X150650000Y-126195000D01*
X150592597Y-126183582D01*
X150543934Y-126151066D01*
X150511418Y-126102403D01*
X150500000Y-126045000D01*
X150500000Y-125745000D01*
X150511418Y-125687597D01*
X150543934Y-125638934D01*
X150592597Y-125606418D01*
X150650000Y-125595000D01*
X152350000Y-125595000D01*
X152407403Y-125606418D01*
G37*
G36*
X167950000Y-125075000D02*
G01*
X166250000Y-125075000D01*
X166250000Y-123375000D01*
X167950000Y-123375000D01*
X167950000Y-125075000D01*
G37*
G36*
X147407403Y-124336418D02*
G01*
X147456066Y-124368934D01*
X147488582Y-124417597D01*
X147500000Y-124475000D01*
X147500000Y-124775000D01*
X147488582Y-124832403D01*
X147456066Y-124881066D01*
X147407403Y-124913582D01*
X147350000Y-124925000D01*
X145650000Y-124925000D01*
X145592597Y-124913582D01*
X145543934Y-124881066D01*
X145511418Y-124832403D01*
X145500000Y-124775000D01*
X145500000Y-124475000D01*
X145511418Y-124417597D01*
X145543934Y-124368934D01*
X145592597Y-124336418D01*
X145650000Y-124325000D01*
X147350000Y-124325000D01*
X147407403Y-124336418D01*
G37*
G36*
X152407403Y-124336418D02*
G01*
X152456066Y-124368934D01*
X152488582Y-124417597D01*
X152500000Y-124475000D01*
X152500000Y-124775000D01*
X152488582Y-124832403D01*
X152456066Y-124881066D01*
X152407403Y-124913582D01*
X152350000Y-124925000D01*
X150650000Y-124925000D01*
X150592597Y-124913582D01*
X150543934Y-124881066D01*
X150511418Y-124832403D01*
X150500000Y-124775000D01*
X150500000Y-124475000D01*
X150511418Y-124417597D01*
X150543934Y-124368934D01*
X150592597Y-124336418D01*
X150650000Y-124325000D01*
X152350000Y-124325000D01*
X152407403Y-124336418D01*
G37*
G36*
X130565263Y-123674278D02*
G01*
X130691342Y-123708060D01*
X130804381Y-123773323D01*
X130896677Y-123865619D01*
X130961940Y-123978658D01*
X130995722Y-124104737D01*
X130995722Y-124235263D01*
X130961940Y-124361342D01*
X130896677Y-124474381D01*
X130804381Y-124566677D01*
X130691342Y-124631940D01*
X130565263Y-124665722D01*
X130500000Y-124670000D01*
X130498029Y-124670000D01*
X129901971Y-124670000D01*
X129900000Y-124670000D01*
X129834737Y-124665722D01*
X129708658Y-124631940D01*
X129595619Y-124566677D01*
X129503323Y-124474381D01*
X129438060Y-124361342D01*
X129404278Y-124235263D01*
X129404278Y-124104737D01*
X129438060Y-123978658D01*
X129503323Y-123865619D01*
X129595619Y-123773323D01*
X129708658Y-123708060D01*
X129834737Y-123674278D01*
X129900000Y-123670000D01*
X130500000Y-123670000D01*
X130565263Y-123674278D01*
G37*
G36*
X134995263Y-123674278D02*
G01*
X135121342Y-123708060D01*
X135234381Y-123773323D01*
X135326677Y-123865619D01*
X135391940Y-123978658D01*
X135425722Y-124104737D01*
X135425722Y-124235263D01*
X135391940Y-124361342D01*
X135326677Y-124474381D01*
X135234381Y-124566677D01*
X135121342Y-124631940D01*
X134995263Y-124665722D01*
X134930000Y-124670000D01*
X134928029Y-124670000D01*
X133831971Y-124670000D01*
X133830000Y-124670000D01*
X133764737Y-124665722D01*
X133638658Y-124631940D01*
X133525619Y-124566677D01*
X133433323Y-124474381D01*
X133368060Y-124361342D01*
X133334278Y-124235263D01*
X133334278Y-124104737D01*
X133368060Y-123978658D01*
X133433323Y-123865619D01*
X133525619Y-123773323D01*
X133638658Y-123708060D01*
X133764737Y-123674278D01*
X133830000Y-123670000D01*
X134930000Y-123670000D01*
X134995263Y-123674278D01*
G37*
G36*
X147407403Y-123066418D02*
G01*
X147456066Y-123098934D01*
X147488582Y-123147597D01*
X147500000Y-123205000D01*
X147500000Y-123505000D01*
X147488582Y-123562403D01*
X147456066Y-123611066D01*
X147407403Y-123643582D01*
X147350000Y-123655000D01*
X145650000Y-123655000D01*
X145592597Y-123643582D01*
X145543934Y-123611066D01*
X145511418Y-123562403D01*
X145500000Y-123505000D01*
X145500000Y-123205000D01*
X145511418Y-123147597D01*
X145543934Y-123098934D01*
X145592597Y-123066418D01*
X145650000Y-123055000D01*
X147350000Y-123055000D01*
X147407403Y-123066418D01*
G37*
G36*
X152407403Y-123066418D02*
G01*
X152456066Y-123098934D01*
X152488582Y-123147597D01*
X152500000Y-123205000D01*
X152500000Y-123505000D01*
X152488582Y-123562403D01*
X152456066Y-123611066D01*
X152407403Y-123643582D01*
X152350000Y-123655000D01*
X150650000Y-123655000D01*
X150592597Y-123643582D01*
X150543934Y-123611066D01*
X150511418Y-123562403D01*
X150500000Y-123505000D01*
X150500000Y-123205000D01*
X150511418Y-123147597D01*
X150543934Y-123098934D01*
X150592597Y-123066418D01*
X150650000Y-123055000D01*
X152350000Y-123055000D01*
X152407403Y-123066418D01*
G37*
G36*
X136020000Y-123400000D02*
G01*
X134570000Y-123400000D01*
X134570000Y-122800000D01*
X136020000Y-122800000D01*
X136020000Y-123400000D01*
G37*
G36*
X158654850Y-121350964D02*
G01*
X158705040Y-121356787D01*
X158722189Y-121364359D01*
X158745671Y-121369030D01*
X158770810Y-121385827D01*
X158790696Y-121394608D01*
X158804277Y-121408189D01*
X158826777Y-121423223D01*
X158841810Y-121445722D01*
X158855391Y-121459303D01*
X158864170Y-121479186D01*
X158880970Y-121504329D01*
X158885641Y-121527812D01*
X158893212Y-121544959D01*
X158899033Y-121595139D01*
X158900000Y-121600000D01*
X158900000Y-122900000D01*
X158899032Y-122904863D01*
X158893212Y-122955040D01*
X158885641Y-122972185D01*
X158880970Y-122995671D01*
X158864169Y-123020815D01*
X158855391Y-123040696D01*
X158841812Y-123054274D01*
X158826777Y-123076777D01*
X158804274Y-123091812D01*
X158790696Y-123105391D01*
X158770815Y-123114169D01*
X158745671Y-123130970D01*
X158722185Y-123135641D01*
X158705040Y-123143212D01*
X158654861Y-123149032D01*
X158650000Y-123150000D01*
X157825000Y-123150000D01*
X157820138Y-123149032D01*
X157769959Y-123143212D01*
X157752812Y-123135641D01*
X157729329Y-123130970D01*
X157704186Y-123114170D01*
X157684303Y-123105391D01*
X157670722Y-123091810D01*
X157648223Y-123076777D01*
X157633189Y-123054277D01*
X157619608Y-123040696D01*
X157610827Y-123020810D01*
X157594030Y-122995671D01*
X157589359Y-122972189D01*
X157581787Y-122955040D01*
X157575964Y-122904849D01*
X157575000Y-122900000D01*
X157575000Y-121600000D01*
X157575964Y-121595150D01*
X157581787Y-121544959D01*
X157589359Y-121527808D01*
X157594030Y-121504329D01*
X157610826Y-121479191D01*
X157619608Y-121459303D01*
X157633191Y-121445719D01*
X157648223Y-121423223D01*
X157670719Y-121408191D01*
X157684303Y-121394608D01*
X157704191Y-121385826D01*
X157729329Y-121369030D01*
X157752808Y-121364359D01*
X157769959Y-121356787D01*
X157820151Y-121350964D01*
X157825000Y-121350000D01*
X158650000Y-121350000D01*
X158654850Y-121350964D01*
G37*
G36*
X161779850Y-121350964D02*
G01*
X161830040Y-121356787D01*
X161847189Y-121364359D01*
X161870671Y-121369030D01*
X161895810Y-121385827D01*
X161915696Y-121394608D01*
X161929277Y-121408189D01*
X161951777Y-121423223D01*
X161966810Y-121445722D01*
X161980391Y-121459303D01*
X161989170Y-121479186D01*
X162005970Y-121504329D01*
X162010641Y-121527812D01*
X162018212Y-121544959D01*
X162024033Y-121595139D01*
X162025000Y-121600000D01*
X162025000Y-122900000D01*
X162024032Y-122904863D01*
X162018212Y-122955040D01*
X162010641Y-122972185D01*
X162005970Y-122995671D01*
X161989169Y-123020815D01*
X161980391Y-123040696D01*
X161966812Y-123054274D01*
X161951777Y-123076777D01*
X161929274Y-123091812D01*
X161915696Y-123105391D01*
X161895815Y-123114169D01*
X161870671Y-123130970D01*
X161847185Y-123135641D01*
X161830040Y-123143212D01*
X161779861Y-123149032D01*
X161775000Y-123150000D01*
X160950000Y-123150000D01*
X160945138Y-123149032D01*
X160894959Y-123143212D01*
X160877812Y-123135641D01*
X160854329Y-123130970D01*
X160829186Y-123114170D01*
X160809303Y-123105391D01*
X160795722Y-123091810D01*
X160773223Y-123076777D01*
X160758189Y-123054277D01*
X160744608Y-123040696D01*
X160735827Y-123020810D01*
X160719030Y-122995671D01*
X160714359Y-122972189D01*
X160706787Y-122955040D01*
X160700964Y-122904849D01*
X160700000Y-122900000D01*
X160700000Y-121600000D01*
X160700964Y-121595150D01*
X160706787Y-121544959D01*
X160714359Y-121527808D01*
X160719030Y-121504329D01*
X160735826Y-121479191D01*
X160744608Y-121459303D01*
X160758191Y-121445719D01*
X160773223Y-121423223D01*
X160795719Y-121408191D01*
X160809303Y-121394608D01*
X160829191Y-121385826D01*
X160854329Y-121369030D01*
X160877808Y-121364359D01*
X160894959Y-121356787D01*
X160945151Y-121350964D01*
X160950000Y-121350000D01*
X161775000Y-121350000D01*
X161779850Y-121350964D01*
G37*
G36*
X133974372Y-122439739D02*
G01*
X134047847Y-122482160D01*
X134107840Y-122542153D01*
X134150261Y-122615628D01*
X134172220Y-122697579D01*
X134172220Y-122782421D01*
X134150261Y-122864372D01*
X134107840Y-122937847D01*
X134047847Y-122997840D01*
X133974372Y-123040261D01*
X133892421Y-123062220D01*
X133807579Y-123062220D01*
X133725628Y-123040261D01*
X133652153Y-122997840D01*
X133592160Y-122937847D01*
X133549739Y-122864372D01*
X133527780Y-122782421D01*
X133527780Y-122697579D01*
X133549739Y-122615628D01*
X133592160Y-122542153D01*
X133652153Y-122482160D01*
X133725628Y-122439739D01*
X133807579Y-122417780D01*
X133892421Y-122417780D01*
X133974372Y-122439739D01*
G37*
G36*
X136020000Y-122600000D02*
G01*
X134570000Y-122600000D01*
X134570000Y-122000000D01*
X136020000Y-122000000D01*
X136020000Y-122600000D01*
G37*
G36*
X167346742Y-120871601D02*
G01*
X167500687Y-120935367D01*
X167639234Y-121027941D01*
X167757059Y-121145766D01*
X167849633Y-121284313D01*
X167913399Y-121438258D01*
X167945907Y-121601685D01*
X167945907Y-121768315D01*
X167913399Y-121931742D01*
X167849633Y-122085687D01*
X167757059Y-122224234D01*
X167639234Y-122342059D01*
X167500687Y-122434633D01*
X167346742Y-122498399D01*
X167183315Y-122530907D01*
X167016685Y-122530907D01*
X166853258Y-122498399D01*
X166699313Y-122434633D01*
X166560766Y-122342059D01*
X166442941Y-122224234D01*
X166350367Y-122085687D01*
X166286601Y-121931742D01*
X166254093Y-121768315D01*
X166254093Y-121601685D01*
X166286601Y-121438258D01*
X166350367Y-121284313D01*
X166442941Y-121145766D01*
X166560766Y-121027941D01*
X166699313Y-120935367D01*
X166853258Y-120871601D01*
X167016685Y-120839093D01*
X167183315Y-120839093D01*
X167346742Y-120871601D01*
G37*
G36*
X147407403Y-121796418D02*
G01*
X147456066Y-121828934D01*
X147488582Y-121877597D01*
X147500000Y-121935000D01*
X147500000Y-122235000D01*
X147488582Y-122292403D01*
X147456066Y-122341066D01*
X147407403Y-122373582D01*
X147350000Y-122385000D01*
X145650000Y-122385000D01*
X145592597Y-122373582D01*
X145543934Y-122341066D01*
X145511418Y-122292403D01*
X145500000Y-122235000D01*
X145500000Y-121935000D01*
X145511418Y-121877597D01*
X145543934Y-121828934D01*
X145592597Y-121796418D01*
X145650000Y-121785000D01*
X147350000Y-121785000D01*
X147407403Y-121796418D01*
G37*
G36*
X152407403Y-121796418D02*
G01*
X152456066Y-121828934D01*
X152488582Y-121877597D01*
X152500000Y-121935000D01*
X152500000Y-122235000D01*
X152488582Y-122292403D01*
X152456066Y-122341066D01*
X152407403Y-122373582D01*
X152350000Y-122385000D01*
X150650000Y-122385000D01*
X150592597Y-122373582D01*
X150543934Y-122341066D01*
X150511418Y-122292403D01*
X150500000Y-122235000D01*
X150500000Y-121935000D01*
X150511418Y-121877597D01*
X150543934Y-121828934D01*
X150592597Y-121796418D01*
X150650000Y-121785000D01*
X152350000Y-121785000D01*
X152407403Y-121796418D01*
G37*
G36*
X136020000Y-121750000D02*
G01*
X134570000Y-121750000D01*
X134570000Y-121450000D01*
X136020000Y-121450000D01*
X136020000Y-121750000D01*
G37*
G36*
X136020000Y-121250000D02*
G01*
X134570000Y-121250000D01*
X134570000Y-120950000D01*
X136020000Y-120950000D01*
X136020000Y-121250000D01*
G37*
G36*
X147407403Y-120526418D02*
G01*
X147456066Y-120558934D01*
X147488582Y-120607597D01*
X147500000Y-120665000D01*
X147500000Y-120965000D01*
X147488582Y-121022403D01*
X147456066Y-121071066D01*
X147407403Y-121103582D01*
X147350000Y-121115000D01*
X145650000Y-121115000D01*
X145592597Y-121103582D01*
X145543934Y-121071066D01*
X145511418Y-121022403D01*
X145500000Y-120965000D01*
X145500000Y-120665000D01*
X145511418Y-120607597D01*
X145543934Y-120558934D01*
X145592597Y-120526418D01*
X145650000Y-120515000D01*
X147350000Y-120515000D01*
X147407403Y-120526418D01*
G37*
G36*
X152407403Y-120526418D02*
G01*
X152456066Y-120558934D01*
X152488582Y-120607597D01*
X152500000Y-120665000D01*
X152500000Y-120965000D01*
X152488582Y-121022403D01*
X152456066Y-121071066D01*
X152407403Y-121103582D01*
X152350000Y-121115000D01*
X150650000Y-121115000D01*
X150592597Y-121103582D01*
X150543934Y-121071066D01*
X150511418Y-121022403D01*
X150500000Y-120965000D01*
X150500000Y-120665000D01*
X150511418Y-120607597D01*
X150543934Y-120558934D01*
X150592597Y-120526418D01*
X150650000Y-120515000D01*
X152350000Y-120515000D01*
X152407403Y-120526418D01*
G37*
G36*
X136020000Y-120750000D02*
G01*
X134570000Y-120750000D01*
X134570000Y-120450000D01*
X136020000Y-120450000D01*
X136020000Y-120750000D01*
G37*
G36*
X158330071Y-119050738D02*
G01*
X158392973Y-119056637D01*
X158408968Y-119062234D01*
X158432001Y-119065590D01*
X158465852Y-119082139D01*
X158499909Y-119094056D01*
X158518902Y-119108073D01*
X158542904Y-119119807D01*
X158565730Y-119142633D01*
X158589686Y-119160313D01*
X158607365Y-119184268D01*
X158630193Y-119207096D01*
X158641927Y-119231099D01*
X158655943Y-119250090D01*
X158667858Y-119284142D01*
X158684410Y-119317999D01*
X158687766Y-119341034D01*
X158693362Y-119357026D01*
X158699258Y-119419912D01*
X158700000Y-119425000D01*
X158700000Y-120175000D01*
X158699258Y-120180091D01*
X158693362Y-120242973D01*
X158687766Y-120258963D01*
X158684410Y-120282001D01*
X158667857Y-120315859D01*
X158655943Y-120349909D01*
X158641928Y-120368898D01*
X158630193Y-120392904D01*
X158607362Y-120415734D01*
X158589686Y-120439686D01*
X158565734Y-120457362D01*
X158542904Y-120480193D01*
X158518898Y-120491928D01*
X158499909Y-120505943D01*
X158465859Y-120517857D01*
X158432001Y-120534410D01*
X158408963Y-120537766D01*
X158392973Y-120543362D01*
X158330089Y-120549258D01*
X158325000Y-120550000D01*
X157075000Y-120550000D01*
X157069910Y-120549258D01*
X157007026Y-120543362D01*
X156991034Y-120537766D01*
X156967999Y-120534410D01*
X156934142Y-120517858D01*
X156900090Y-120505943D01*
X156881099Y-120491927D01*
X156857096Y-120480193D01*
X156834268Y-120457365D01*
X156810313Y-120439686D01*
X156792633Y-120415730D01*
X156769807Y-120392904D01*
X156758073Y-120368902D01*
X156744056Y-120349909D01*
X156732139Y-120315852D01*
X156715590Y-120282001D01*
X156712234Y-120258968D01*
X156706637Y-120242973D01*
X156700738Y-120180070D01*
X156700000Y-120175000D01*
X156700000Y-119425000D01*
X156700738Y-119419930D01*
X156706637Y-119357026D01*
X156712234Y-119341029D01*
X156715590Y-119317999D01*
X156732137Y-119284149D01*
X156744056Y-119250090D01*
X156758074Y-119231095D01*
X156769807Y-119207096D01*
X156792630Y-119184272D01*
X156810313Y-119160313D01*
X156834272Y-119142630D01*
X156857096Y-119119807D01*
X156881095Y-119108074D01*
X156900090Y-119094056D01*
X156934149Y-119082137D01*
X156967999Y-119065590D01*
X156991029Y-119062234D01*
X157007026Y-119056637D01*
X157069931Y-119050738D01*
X157075000Y-119050000D01*
X158325000Y-119050000D01*
X158330071Y-119050738D01*
G37*
G36*
X136020000Y-120250000D02*
G01*
X134570000Y-120250000D01*
X134570000Y-119950000D01*
X136020000Y-119950000D01*
X136020000Y-120250000D01*
G37*
G36*
X167346742Y-118331601D02*
G01*
X167500687Y-118395367D01*
X167639234Y-118487941D01*
X167757059Y-118605766D01*
X167849633Y-118744313D01*
X167913399Y-118898258D01*
X167945907Y-119061685D01*
X167945907Y-119228315D01*
X167913399Y-119391742D01*
X167849633Y-119545687D01*
X167757059Y-119684234D01*
X167639234Y-119802059D01*
X167500687Y-119894633D01*
X167346742Y-119958399D01*
X167183315Y-119990907D01*
X167016685Y-119990907D01*
X166853258Y-119958399D01*
X166699313Y-119894633D01*
X166560766Y-119802059D01*
X166442941Y-119684234D01*
X166350367Y-119545687D01*
X166286601Y-119391742D01*
X166254093Y-119228315D01*
X166254093Y-119061685D01*
X166286601Y-118898258D01*
X166350367Y-118744313D01*
X166442941Y-118605766D01*
X166560766Y-118487941D01*
X166699313Y-118395367D01*
X166853258Y-118331601D01*
X167016685Y-118299093D01*
X167183315Y-118299093D01*
X167346742Y-118331601D01*
G37*
G36*
X141226537Y-118938256D02*
G01*
X141291421Y-118981611D01*
X141334776Y-119046495D01*
X141350000Y-119123032D01*
X141350000Y-119673032D01*
X141334776Y-119749569D01*
X141291421Y-119814453D01*
X141226537Y-119857808D01*
X141150000Y-119873032D01*
X140750000Y-119873032D01*
X140673463Y-119857808D01*
X140608579Y-119814453D01*
X140565224Y-119749569D01*
X140550000Y-119673032D01*
X140550000Y-119123032D01*
X140565224Y-119046495D01*
X140608579Y-118981611D01*
X140673463Y-118938256D01*
X140750000Y-118923032D01*
X141150000Y-118923032D01*
X141226537Y-118938256D01*
G37*
G36*
X142876537Y-118938256D02*
G01*
X142941421Y-118981611D01*
X142984776Y-119046495D01*
X143000000Y-119123032D01*
X143000000Y-119673032D01*
X142984776Y-119749569D01*
X142941421Y-119814453D01*
X142876537Y-119857808D01*
X142800000Y-119873032D01*
X142400000Y-119873032D01*
X142323463Y-119857808D01*
X142258579Y-119814453D01*
X142215224Y-119749569D01*
X142200000Y-119673032D01*
X142200000Y-119123032D01*
X142215224Y-119046495D01*
X142258579Y-118981611D01*
X142323463Y-118938256D01*
X142400000Y-118923032D01*
X142800000Y-118923032D01*
X142876537Y-118938256D01*
G37*
G36*
X138245470Y-118938255D02*
G01*
X138310354Y-118981610D01*
X138353709Y-119046494D01*
X138368933Y-119123031D01*
X138368933Y-119673031D01*
X138353709Y-119749568D01*
X138310354Y-119814452D01*
X138245470Y-119857807D01*
X138168933Y-119873031D01*
X137768933Y-119873031D01*
X137692396Y-119857807D01*
X137627512Y-119814452D01*
X137584157Y-119749568D01*
X137568933Y-119673031D01*
X137568933Y-119123031D01*
X137584157Y-119046494D01*
X137627512Y-118981610D01*
X137692396Y-118938255D01*
X137768933Y-118923031D01*
X138168933Y-118923031D01*
X138245470Y-118938255D01*
G37*
G36*
X139895470Y-118938255D02*
G01*
X139960354Y-118981610D01*
X140003709Y-119046494D01*
X140018933Y-119123031D01*
X140018933Y-119673031D01*
X140003709Y-119749568D01*
X139960354Y-119814452D01*
X139895470Y-119857807D01*
X139818933Y-119873031D01*
X139418933Y-119873031D01*
X139342396Y-119857807D01*
X139277512Y-119814452D01*
X139234157Y-119749568D01*
X139218933Y-119673031D01*
X139218933Y-119123031D01*
X139234157Y-119046494D01*
X139277512Y-118981610D01*
X139342396Y-118938255D01*
X139418933Y-118923031D01*
X139818933Y-118923031D01*
X139895470Y-118938255D01*
G37*
G36*
X147407403Y-119256418D02*
G01*
X147456066Y-119288934D01*
X147488582Y-119337597D01*
X147500000Y-119395000D01*
X147500000Y-119695000D01*
X147488582Y-119752403D01*
X147456066Y-119801066D01*
X147407403Y-119833582D01*
X147350000Y-119845000D01*
X145650000Y-119845000D01*
X145592597Y-119833582D01*
X145543934Y-119801066D01*
X145511418Y-119752403D01*
X145500000Y-119695000D01*
X145500000Y-119395000D01*
X145511418Y-119337597D01*
X145543934Y-119288934D01*
X145592597Y-119256418D01*
X145650000Y-119245000D01*
X147350000Y-119245000D01*
X147407403Y-119256418D01*
G37*
G36*
X152407403Y-119256418D02*
G01*
X152456066Y-119288934D01*
X152488582Y-119337597D01*
X152500000Y-119395000D01*
X152500000Y-119695000D01*
X152488582Y-119752403D01*
X152456066Y-119801066D01*
X152407403Y-119833582D01*
X152350000Y-119845000D01*
X150650000Y-119845000D01*
X150592597Y-119833582D01*
X150543934Y-119801066D01*
X150511418Y-119752403D01*
X150500000Y-119695000D01*
X150500000Y-119395000D01*
X150511418Y-119337597D01*
X150543934Y-119288934D01*
X150592597Y-119256418D01*
X150650000Y-119245000D01*
X152350000Y-119245000D01*
X152407403Y-119256418D01*
G37*
G36*
X136020000Y-119750000D02*
G01*
X134570000Y-119750000D01*
X134570000Y-119450000D01*
X136020000Y-119450000D01*
X136020000Y-119750000D01*
G37*
G36*
X164606283Y-115611427D02*
G01*
X164613268Y-115614032D01*
X164617762Y-115614572D01*
X164670931Y-115635539D01*
X164739624Y-115661161D01*
X164743768Y-115664263D01*
X164744776Y-115664661D01*
X164781416Y-115692446D01*
X164853553Y-115746447D01*
X164907572Y-115818608D01*
X164935338Y-115855223D01*
X164935734Y-115856229D01*
X164938839Y-115860376D01*
X164964470Y-115929096D01*
X164985427Y-115982237D01*
X164985966Y-115986728D01*
X164988573Y-115993717D01*
X165000000Y-116100000D01*
X165000000Y-118900000D01*
X164988573Y-119006283D01*
X164985966Y-119013272D01*
X164985427Y-119017762D01*
X164964477Y-119070884D01*
X164938839Y-119139624D01*
X164935734Y-119143771D01*
X164935338Y-119144776D01*
X164907630Y-119181313D01*
X164853553Y-119253553D01*
X164781313Y-119307630D01*
X164744776Y-119335338D01*
X164743771Y-119335734D01*
X164739624Y-119338839D01*
X164670884Y-119364477D01*
X164617762Y-119385427D01*
X164613272Y-119385966D01*
X164606283Y-119388573D01*
X164500000Y-119400000D01*
X163500000Y-119400000D01*
X163393717Y-119388573D01*
X163386728Y-119385966D01*
X163382237Y-119385427D01*
X163329096Y-119364470D01*
X163260376Y-119338839D01*
X163256229Y-119335734D01*
X163255223Y-119335338D01*
X163218608Y-119307572D01*
X163146447Y-119253553D01*
X163092446Y-119181416D01*
X163064661Y-119144776D01*
X163064263Y-119143768D01*
X163061161Y-119139624D01*
X163035539Y-119070931D01*
X163014572Y-119017762D01*
X163014032Y-119013268D01*
X163011427Y-119006283D01*
X163000000Y-118900000D01*
X163000000Y-116100000D01*
X163011427Y-115993717D01*
X163014032Y-115986732D01*
X163014572Y-115982237D01*
X163035546Y-115929049D01*
X163061161Y-115860376D01*
X163064263Y-115856232D01*
X163064661Y-115855223D01*
X163092504Y-115818506D01*
X163146447Y-115746447D01*
X163218506Y-115692504D01*
X163255223Y-115664661D01*
X163256232Y-115664263D01*
X163260376Y-115661161D01*
X163329049Y-115635546D01*
X163382237Y-115614572D01*
X163386732Y-115614032D01*
X163393717Y-115611427D01*
X163500000Y-115600000D01*
X164500000Y-115600000D01*
X164606283Y-115611427D01*
G37*
G36*
X136020000Y-119250000D02*
G01*
X134570000Y-119250000D01*
X134570000Y-118950000D01*
X136020000Y-118950000D01*
X136020000Y-119250000D01*
G37*
G36*
X155904850Y-117650964D02*
G01*
X155955040Y-117656787D01*
X155972189Y-117664359D01*
X155995671Y-117669030D01*
X156020810Y-117685827D01*
X156040696Y-117694608D01*
X156054277Y-117708189D01*
X156076777Y-117723223D01*
X156091810Y-117745722D01*
X156105391Y-117759303D01*
X156114170Y-117779186D01*
X156130970Y-117804329D01*
X156135641Y-117827812D01*
X156143212Y-117844959D01*
X156149033Y-117895139D01*
X156150000Y-117900000D01*
X156150000Y-118725000D01*
X156149032Y-118729863D01*
X156143212Y-118780040D01*
X156135641Y-118797185D01*
X156130970Y-118820671D01*
X156114169Y-118845815D01*
X156105391Y-118865696D01*
X156091812Y-118879274D01*
X156076777Y-118901777D01*
X156054274Y-118916812D01*
X156040696Y-118930391D01*
X156020815Y-118939169D01*
X155995671Y-118955970D01*
X155972185Y-118960641D01*
X155955040Y-118968212D01*
X155904861Y-118974032D01*
X155900000Y-118975000D01*
X154600000Y-118975000D01*
X154595138Y-118974032D01*
X154544959Y-118968212D01*
X154527812Y-118960641D01*
X154504329Y-118955970D01*
X154479186Y-118939170D01*
X154459303Y-118930391D01*
X154445722Y-118916810D01*
X154423223Y-118901777D01*
X154408189Y-118879277D01*
X154394608Y-118865696D01*
X154385827Y-118845810D01*
X154369030Y-118820671D01*
X154364359Y-118797189D01*
X154356787Y-118780040D01*
X154350964Y-118729849D01*
X154350000Y-118725000D01*
X154350000Y-117900000D01*
X154350964Y-117895150D01*
X154356787Y-117844959D01*
X154364359Y-117827808D01*
X154369030Y-117804329D01*
X154385826Y-117779191D01*
X154394608Y-117759303D01*
X154408191Y-117745719D01*
X154423223Y-117723223D01*
X154445719Y-117708191D01*
X154459303Y-117694608D01*
X154479191Y-117685826D01*
X154504329Y-117669030D01*
X154527808Y-117664359D01*
X154544959Y-117656787D01*
X154595151Y-117650964D01*
X154600000Y-117650000D01*
X155900000Y-117650000D01*
X155904850Y-117650964D01*
G37*
G36*
X136020000Y-118750000D02*
G01*
X134570000Y-118750000D01*
X134570000Y-118450000D01*
X136020000Y-118450000D01*
X136020000Y-118750000D01*
G37*
G36*
X147407403Y-117986418D02*
G01*
X147456066Y-118018934D01*
X147488582Y-118067597D01*
X147500000Y-118125000D01*
X147500000Y-118425000D01*
X147488582Y-118482403D01*
X147456066Y-118531066D01*
X147407403Y-118563582D01*
X147350000Y-118575000D01*
X145650000Y-118575000D01*
X145592597Y-118563582D01*
X145543934Y-118531066D01*
X145511418Y-118482403D01*
X145500000Y-118425000D01*
X145500000Y-118125000D01*
X145511418Y-118067597D01*
X145543934Y-118018934D01*
X145592597Y-117986418D01*
X145650000Y-117975000D01*
X147350000Y-117975000D01*
X147407403Y-117986418D01*
G37*
G36*
X152407403Y-117986418D02*
G01*
X152456066Y-118018934D01*
X152488582Y-118067597D01*
X152500000Y-118125000D01*
X152500000Y-118425000D01*
X152488582Y-118482403D01*
X152456066Y-118531066D01*
X152407403Y-118563582D01*
X152350000Y-118575000D01*
X150650000Y-118575000D01*
X150592597Y-118563582D01*
X150543934Y-118531066D01*
X150511418Y-118482403D01*
X150500000Y-118425000D01*
X150500000Y-118125000D01*
X150511418Y-118067597D01*
X150543934Y-118018934D01*
X150592597Y-117986418D01*
X150650000Y-117975000D01*
X152350000Y-117975000D01*
X152407403Y-117986418D01*
G37*
G36*
X141226537Y-117440224D02*
G01*
X141291421Y-117483579D01*
X141334776Y-117548463D01*
X141350000Y-117625000D01*
X141350000Y-118175000D01*
X141334776Y-118251537D01*
X141291421Y-118316421D01*
X141226537Y-118359776D01*
X141150000Y-118375000D01*
X140750000Y-118375000D01*
X140673463Y-118359776D01*
X140608579Y-118316421D01*
X140565224Y-118251537D01*
X140550000Y-118175000D01*
X140550000Y-117625000D01*
X140565224Y-117548463D01*
X140608579Y-117483579D01*
X140673463Y-117440224D01*
X140750000Y-117425000D01*
X141150000Y-117425000D01*
X141226537Y-117440224D01*
G37*
G36*
X142876537Y-117440224D02*
G01*
X142941421Y-117483579D01*
X142984776Y-117548463D01*
X143000000Y-117625000D01*
X143000000Y-118175000D01*
X142984776Y-118251537D01*
X142941421Y-118316421D01*
X142876537Y-118359776D01*
X142800000Y-118375000D01*
X142400000Y-118375000D01*
X142323463Y-118359776D01*
X142258579Y-118316421D01*
X142215224Y-118251537D01*
X142200000Y-118175000D01*
X142200000Y-117625000D01*
X142215224Y-117548463D01*
X142258579Y-117483579D01*
X142323463Y-117440224D01*
X142400000Y-117425000D01*
X142800000Y-117425000D01*
X142876537Y-117440224D01*
G37*
G36*
X138245470Y-117435444D02*
G01*
X138310354Y-117478799D01*
X138353709Y-117543683D01*
X138368933Y-117620220D01*
X138368933Y-118170220D01*
X138353709Y-118246757D01*
X138310354Y-118311641D01*
X138245470Y-118354996D01*
X138168933Y-118370220D01*
X137768933Y-118370220D01*
X137692396Y-118354996D01*
X137627512Y-118311641D01*
X137584157Y-118246757D01*
X137568933Y-118170220D01*
X137568933Y-117620220D01*
X137584157Y-117543683D01*
X137627512Y-117478799D01*
X137692396Y-117435444D01*
X137768933Y-117420220D01*
X138168933Y-117420220D01*
X138245470Y-117435444D01*
G37*
G36*
X139895470Y-117435444D02*
G01*
X139960354Y-117478799D01*
X140003709Y-117543683D01*
X140018933Y-117620220D01*
X140018933Y-118170220D01*
X140003709Y-118246757D01*
X139960354Y-118311641D01*
X139895470Y-118354996D01*
X139818933Y-118370220D01*
X139418933Y-118370220D01*
X139342396Y-118354996D01*
X139277512Y-118311641D01*
X139234157Y-118246757D01*
X139218933Y-118170220D01*
X139218933Y-117620220D01*
X139234157Y-117543683D01*
X139277512Y-117478799D01*
X139342396Y-117435444D01*
X139418933Y-117420220D01*
X139818933Y-117420220D01*
X139895470Y-117435444D01*
G37*
G36*
X136020000Y-118250000D02*
G01*
X134570000Y-118250000D01*
X134570000Y-117950000D01*
X136020000Y-117950000D01*
X136020000Y-118250000D01*
G37*
G36*
X158330071Y-116750738D02*
G01*
X158392973Y-116756637D01*
X158408968Y-116762234D01*
X158432001Y-116765590D01*
X158465852Y-116782139D01*
X158499909Y-116794056D01*
X158518902Y-116808073D01*
X158542904Y-116819807D01*
X158565730Y-116842633D01*
X158589686Y-116860313D01*
X158607365Y-116884268D01*
X158630193Y-116907096D01*
X158641927Y-116931099D01*
X158655943Y-116950090D01*
X158667858Y-116984142D01*
X158684410Y-117017999D01*
X158687766Y-117041034D01*
X158693362Y-117057026D01*
X158699258Y-117119912D01*
X158700000Y-117125000D01*
X158700000Y-117875000D01*
X158699258Y-117880091D01*
X158693362Y-117942973D01*
X158687766Y-117958963D01*
X158684410Y-117982001D01*
X158667857Y-118015859D01*
X158655943Y-118049909D01*
X158641928Y-118068898D01*
X158630193Y-118092904D01*
X158607362Y-118115734D01*
X158589686Y-118139686D01*
X158565734Y-118157362D01*
X158542904Y-118180193D01*
X158518898Y-118191928D01*
X158499909Y-118205943D01*
X158465859Y-118217857D01*
X158432001Y-118234410D01*
X158408963Y-118237766D01*
X158392973Y-118243362D01*
X158330089Y-118249258D01*
X158325000Y-118250000D01*
X157075000Y-118250000D01*
X157069910Y-118249258D01*
X157007026Y-118243362D01*
X156991034Y-118237766D01*
X156967999Y-118234410D01*
X156934142Y-118217858D01*
X156900090Y-118205943D01*
X156881099Y-118191927D01*
X156857096Y-118180193D01*
X156834268Y-118157365D01*
X156810313Y-118139686D01*
X156792633Y-118115730D01*
X156769807Y-118092904D01*
X156758073Y-118068902D01*
X156744056Y-118049909D01*
X156732139Y-118015852D01*
X156715590Y-117982001D01*
X156712234Y-117958968D01*
X156706637Y-117942973D01*
X156700738Y-117880070D01*
X156700000Y-117875000D01*
X156700000Y-117125000D01*
X156700738Y-117119930D01*
X156706637Y-117057026D01*
X156712234Y-117041029D01*
X156715590Y-117017999D01*
X156732137Y-116984149D01*
X156744056Y-116950090D01*
X156758074Y-116931095D01*
X156769807Y-116907096D01*
X156792630Y-116884272D01*
X156810313Y-116860313D01*
X156834272Y-116842630D01*
X156857096Y-116819807D01*
X156881095Y-116808074D01*
X156900090Y-116794056D01*
X156934149Y-116782137D01*
X156967999Y-116765590D01*
X156991029Y-116762234D01*
X157007026Y-116756637D01*
X157069931Y-116750738D01*
X157075000Y-116750000D01*
X158325000Y-116750000D01*
X158330071Y-116750738D01*
G37*
G36*
X136020000Y-117700000D02*
G01*
X134570000Y-117700000D01*
X134570000Y-117100000D01*
X136020000Y-117100000D01*
X136020000Y-117700000D01*
G37*
G36*
X147407403Y-116716418D02*
G01*
X147456066Y-116748934D01*
X147488582Y-116797597D01*
X147500000Y-116855000D01*
X147500000Y-117155000D01*
X147488582Y-117212403D01*
X147456066Y-117261066D01*
X147407403Y-117293582D01*
X147350000Y-117305000D01*
X145650000Y-117305000D01*
X145592597Y-117293582D01*
X145543934Y-117261066D01*
X145511418Y-117212403D01*
X145500000Y-117155000D01*
X145500000Y-116855000D01*
X145511418Y-116797597D01*
X145543934Y-116748934D01*
X145592597Y-116716418D01*
X145650000Y-116705000D01*
X147350000Y-116705000D01*
X147407403Y-116716418D01*
G37*
G36*
X152407403Y-116716418D02*
G01*
X152456066Y-116748934D01*
X152488582Y-116797597D01*
X152500000Y-116855000D01*
X152500000Y-117155000D01*
X152488582Y-117212403D01*
X152456066Y-117261066D01*
X152407403Y-117293582D01*
X152350000Y-117305000D01*
X150650000Y-117305000D01*
X150592597Y-117293582D01*
X150543934Y-117261066D01*
X150511418Y-117212403D01*
X150500000Y-117155000D01*
X150500000Y-116855000D01*
X150511418Y-116797597D01*
X150543934Y-116748934D01*
X150592597Y-116716418D01*
X150650000Y-116705000D01*
X152350000Y-116705000D01*
X152407403Y-116716418D01*
G37*
G36*
X133974372Y-116659739D02*
G01*
X134047847Y-116702160D01*
X134107840Y-116762153D01*
X134150261Y-116835628D01*
X134172220Y-116917579D01*
X134172220Y-117002421D01*
X134150261Y-117084372D01*
X134107840Y-117157847D01*
X134047847Y-117217840D01*
X133974372Y-117260261D01*
X133892421Y-117282220D01*
X133807579Y-117282220D01*
X133725628Y-117260261D01*
X133652153Y-117217840D01*
X133592160Y-117157847D01*
X133549739Y-117084372D01*
X133527780Y-117002421D01*
X133527780Y-116917579D01*
X133549739Y-116835628D01*
X133592160Y-116762153D01*
X133652153Y-116702160D01*
X133725628Y-116659739D01*
X133807579Y-116637780D01*
X133892421Y-116637780D01*
X133974372Y-116659739D01*
G37*
G36*
X136020000Y-116900000D02*
G01*
X134570000Y-116900000D01*
X134570000Y-116300000D01*
X136020000Y-116300000D01*
X136020000Y-116900000D01*
G37*
G36*
X141226537Y-115942192D02*
G01*
X141291421Y-115985547D01*
X141334776Y-116050431D01*
X141350000Y-116126968D01*
X141350000Y-116676968D01*
X141334776Y-116753505D01*
X141291421Y-116818389D01*
X141226537Y-116861744D01*
X141150000Y-116876968D01*
X140750000Y-116876968D01*
X140673463Y-116861744D01*
X140608579Y-116818389D01*
X140565224Y-116753505D01*
X140550000Y-116676968D01*
X140550000Y-116126968D01*
X140565224Y-116050431D01*
X140608579Y-115985547D01*
X140673463Y-115942192D01*
X140750000Y-115926968D01*
X141150000Y-115926968D01*
X141226537Y-115942192D01*
G37*
G36*
X142876537Y-115942192D02*
G01*
X142941421Y-115985547D01*
X142984776Y-116050431D01*
X143000000Y-116126968D01*
X143000000Y-116676968D01*
X142984776Y-116753505D01*
X142941421Y-116818389D01*
X142876537Y-116861744D01*
X142800000Y-116876968D01*
X142400000Y-116876968D01*
X142323463Y-116861744D01*
X142258579Y-116818389D01*
X142215224Y-116753505D01*
X142200000Y-116676968D01*
X142200000Y-116126968D01*
X142215224Y-116050431D01*
X142258579Y-115985547D01*
X142323463Y-115942192D01*
X142400000Y-115926968D01*
X142800000Y-115926968D01*
X142876537Y-115942192D01*
G37*
G36*
X138245470Y-115932633D02*
G01*
X138310354Y-115975988D01*
X138353709Y-116040872D01*
X138368933Y-116117409D01*
X138368933Y-116667409D01*
X138353709Y-116743946D01*
X138310354Y-116808830D01*
X138245470Y-116852185D01*
X138168933Y-116867409D01*
X137768933Y-116867409D01*
X137692396Y-116852185D01*
X137627512Y-116808830D01*
X137584157Y-116743946D01*
X137568933Y-116667409D01*
X137568933Y-116117409D01*
X137584157Y-116040872D01*
X137627512Y-115975988D01*
X137692396Y-115932633D01*
X137768933Y-115917409D01*
X138168933Y-115917409D01*
X138245470Y-115932633D01*
G37*
G36*
X139895470Y-115932633D02*
G01*
X139960354Y-115975988D01*
X140003709Y-116040872D01*
X140018933Y-116117409D01*
X140018933Y-116667409D01*
X140003709Y-116743946D01*
X139960354Y-116808830D01*
X139895470Y-116852185D01*
X139818933Y-116867409D01*
X139418933Y-116867409D01*
X139342396Y-116852185D01*
X139277512Y-116808830D01*
X139234157Y-116743946D01*
X139218933Y-116667409D01*
X139218933Y-116117409D01*
X139234157Y-116040872D01*
X139277512Y-115975988D01*
X139342396Y-115932633D01*
X139418933Y-115917409D01*
X139818933Y-115917409D01*
X139895470Y-115932633D01*
G37*
G36*
X130565263Y-115034278D02*
G01*
X130691342Y-115068060D01*
X130804381Y-115133323D01*
X130896677Y-115225619D01*
X130961940Y-115338658D01*
X130995722Y-115464737D01*
X130995722Y-115595263D01*
X130961940Y-115721342D01*
X130896677Y-115834381D01*
X130804381Y-115926677D01*
X130691342Y-115991940D01*
X130565263Y-116025722D01*
X130500000Y-116030000D01*
X130498029Y-116030000D01*
X129901971Y-116030000D01*
X129900000Y-116030000D01*
X129834737Y-116025722D01*
X129708658Y-115991940D01*
X129595619Y-115926677D01*
X129503323Y-115834381D01*
X129438060Y-115721342D01*
X129404278Y-115595263D01*
X129404278Y-115464737D01*
X129438060Y-115338658D01*
X129503323Y-115225619D01*
X129595619Y-115133323D01*
X129708658Y-115068060D01*
X129834737Y-115034278D01*
X129900000Y-115030000D01*
X130500000Y-115030000D01*
X130565263Y-115034278D01*
G37*
G36*
X134995263Y-115034278D02*
G01*
X135121342Y-115068060D01*
X135234381Y-115133323D01*
X135326677Y-115225619D01*
X135391940Y-115338658D01*
X135425722Y-115464737D01*
X135425722Y-115595263D01*
X135391940Y-115721342D01*
X135326677Y-115834381D01*
X135234381Y-115926677D01*
X135121342Y-115991940D01*
X134995263Y-116025722D01*
X134930000Y-116030000D01*
X134928029Y-116030000D01*
X133831971Y-116030000D01*
X133830000Y-116030000D01*
X133764737Y-116025722D01*
X133638658Y-115991940D01*
X133525619Y-115926677D01*
X133433323Y-115834381D01*
X133368060Y-115721342D01*
X133334278Y-115595263D01*
X133334278Y-115464737D01*
X133368060Y-115338658D01*
X133433323Y-115225619D01*
X133525619Y-115133323D01*
X133638658Y-115068060D01*
X133764737Y-115034278D01*
X133830000Y-115030000D01*
X134930000Y-115030000D01*
X134995263Y-115034278D01*
G37*
G36*
X158330071Y-114450738D02*
G01*
X158392973Y-114456637D01*
X158408968Y-114462234D01*
X158432001Y-114465590D01*
X158465852Y-114482139D01*
X158499909Y-114494056D01*
X158518902Y-114508073D01*
X158542904Y-114519807D01*
X158565730Y-114542633D01*
X158589686Y-114560313D01*
X158607365Y-114584268D01*
X158630193Y-114607096D01*
X158641927Y-114631099D01*
X158655943Y-114650090D01*
X158667858Y-114684142D01*
X158684410Y-114717999D01*
X158687766Y-114741034D01*
X158693362Y-114757026D01*
X158699258Y-114819912D01*
X158700000Y-114825000D01*
X158700000Y-115575000D01*
X158699258Y-115580091D01*
X158693362Y-115642973D01*
X158687766Y-115658963D01*
X158684410Y-115682001D01*
X158667857Y-115715859D01*
X158655943Y-115749909D01*
X158641928Y-115768898D01*
X158630193Y-115792904D01*
X158607362Y-115815734D01*
X158589686Y-115839686D01*
X158565734Y-115857362D01*
X158542904Y-115880193D01*
X158518898Y-115891928D01*
X158499909Y-115905943D01*
X158465859Y-115917857D01*
X158432001Y-115934410D01*
X158408963Y-115937766D01*
X158392973Y-115943362D01*
X158330089Y-115949258D01*
X158325000Y-115950000D01*
X157075000Y-115950000D01*
X157069910Y-115949258D01*
X157007026Y-115943362D01*
X156991034Y-115937766D01*
X156967999Y-115934410D01*
X156934142Y-115917858D01*
X156900090Y-115905943D01*
X156881099Y-115891927D01*
X156857096Y-115880193D01*
X156834268Y-115857365D01*
X156810313Y-115839686D01*
X156792633Y-115815730D01*
X156769807Y-115792904D01*
X156758073Y-115768902D01*
X156744056Y-115749909D01*
X156732139Y-115715852D01*
X156715590Y-115682001D01*
X156712234Y-115658968D01*
X156706637Y-115642973D01*
X156700738Y-115580070D01*
X156700000Y-115575000D01*
X156700000Y-114825000D01*
X156700738Y-114819930D01*
X156706637Y-114757026D01*
X156712234Y-114741029D01*
X156715590Y-114717999D01*
X156732137Y-114684149D01*
X156744056Y-114650090D01*
X156758074Y-114631095D01*
X156769807Y-114607096D01*
X156792630Y-114584272D01*
X156810313Y-114560313D01*
X156834272Y-114542630D01*
X156857096Y-114519807D01*
X156881095Y-114508074D01*
X156900090Y-114494056D01*
X156934149Y-114482137D01*
X156967999Y-114465590D01*
X156991029Y-114462234D01*
X157007026Y-114456637D01*
X157069931Y-114450738D01*
X157075000Y-114450000D01*
X158325000Y-114450000D01*
X158330071Y-114450738D01*
G37*
G36*
X155904850Y-114525964D02*
G01*
X155955040Y-114531787D01*
X155972189Y-114539359D01*
X155995671Y-114544030D01*
X156020810Y-114560827D01*
X156040696Y-114569608D01*
X156054277Y-114583189D01*
X156076777Y-114598223D01*
X156091810Y-114620722D01*
X156105391Y-114634303D01*
X156114170Y-114654186D01*
X156130970Y-114679329D01*
X156135641Y-114702812D01*
X156143212Y-114719959D01*
X156149033Y-114770139D01*
X156150000Y-114775000D01*
X156150000Y-115600000D01*
X156149032Y-115604863D01*
X156143212Y-115655040D01*
X156135641Y-115672185D01*
X156130970Y-115695671D01*
X156114169Y-115720815D01*
X156105391Y-115740696D01*
X156091812Y-115754274D01*
X156076777Y-115776777D01*
X156054274Y-115791812D01*
X156040696Y-115805391D01*
X156020815Y-115814169D01*
X155995671Y-115830970D01*
X155972185Y-115835641D01*
X155955040Y-115843212D01*
X155904861Y-115849032D01*
X155900000Y-115850000D01*
X154600000Y-115850000D01*
X154595138Y-115849032D01*
X154544959Y-115843212D01*
X154527812Y-115835641D01*
X154504329Y-115830970D01*
X154479186Y-115814170D01*
X154459303Y-115805391D01*
X154445722Y-115791810D01*
X154423223Y-115776777D01*
X154408189Y-115754277D01*
X154394608Y-115740696D01*
X154385827Y-115720810D01*
X154369030Y-115695671D01*
X154364359Y-115672189D01*
X154356787Y-115655040D01*
X154350964Y-115604849D01*
X154350000Y-115600000D01*
X154350000Y-114775000D01*
X154350964Y-114770150D01*
X154356787Y-114719959D01*
X154364359Y-114702808D01*
X154369030Y-114679329D01*
X154385826Y-114654191D01*
X154394608Y-114634303D01*
X154408191Y-114620719D01*
X154423223Y-114598223D01*
X154445719Y-114583191D01*
X154459303Y-114569608D01*
X154479191Y-114560826D01*
X154504329Y-114544030D01*
X154527808Y-114539359D01*
X154544959Y-114531787D01*
X154595151Y-114525964D01*
X154600000Y-114525000D01*
X155900000Y-114525000D01*
X155904850Y-114525964D01*
G37*
G36*
X141226537Y-114444160D02*
G01*
X141291421Y-114487515D01*
X141334776Y-114552399D01*
X141350000Y-114628936D01*
X141350000Y-115178936D01*
X141334776Y-115255473D01*
X141291421Y-115320357D01*
X141226537Y-115363712D01*
X141150000Y-115378936D01*
X140750000Y-115378936D01*
X140673463Y-115363712D01*
X140608579Y-115320357D01*
X140565224Y-115255473D01*
X140550000Y-115178936D01*
X140550000Y-114628936D01*
X140565224Y-114552399D01*
X140608579Y-114487515D01*
X140673463Y-114444160D01*
X140750000Y-114428936D01*
X141150000Y-114428936D01*
X141226537Y-114444160D01*
G37*
G36*
X142876537Y-114444160D02*
G01*
X142941421Y-114487515D01*
X142984776Y-114552399D01*
X143000000Y-114628936D01*
X143000000Y-115178936D01*
X142984776Y-115255473D01*
X142941421Y-115320357D01*
X142876537Y-115363712D01*
X142800000Y-115378936D01*
X142400000Y-115378936D01*
X142323463Y-115363712D01*
X142258579Y-115320357D01*
X142215224Y-115255473D01*
X142200000Y-115178936D01*
X142200000Y-114628936D01*
X142215224Y-114552399D01*
X142258579Y-114487515D01*
X142323463Y-114444160D01*
X142400000Y-114428936D01*
X142800000Y-114428936D01*
X142876537Y-114444160D01*
G37*
G36*
X138245470Y-114429822D02*
G01*
X138310354Y-114473177D01*
X138353709Y-114538061D01*
X138368933Y-114614598D01*
X138368933Y-115164598D01*
X138353709Y-115241135D01*
X138310354Y-115306019D01*
X138245470Y-115349374D01*
X138168933Y-115364598D01*
X137768933Y-115364598D01*
X137692396Y-115349374D01*
X137627512Y-115306019D01*
X137584157Y-115241135D01*
X137568933Y-115164598D01*
X137568933Y-114614598D01*
X137584157Y-114538061D01*
X137627512Y-114473177D01*
X137692396Y-114429822D01*
X137768933Y-114414598D01*
X138168933Y-114414598D01*
X138245470Y-114429822D01*
G37*
G36*
X139895470Y-114429822D02*
G01*
X139960354Y-114473177D01*
X140003709Y-114538061D01*
X140018933Y-114614598D01*
X140018933Y-115164598D01*
X140003709Y-115241135D01*
X139960354Y-115306019D01*
X139895470Y-115349374D01*
X139818933Y-115364598D01*
X139418933Y-115364598D01*
X139342396Y-115349374D01*
X139277512Y-115306019D01*
X139234157Y-115241135D01*
X139218933Y-115164598D01*
X139218933Y-114614598D01*
X139234157Y-114538061D01*
X139277512Y-114473177D01*
X139342396Y-114429822D01*
X139418933Y-114414598D01*
X139818933Y-114414598D01*
X139895470Y-114429822D01*
G37*
M02*
