M48
; DRILL file {KiCad 9.0.3} date 2025-08-03T15:24:19-0400
; FORMAT={-:-/ absolute / metric / decimal}
; #@! TF.CreationDate,2025-08-03T15:24:19-04:00
; #@! TF.GenerationSoftware,Kicad,Pcbnew,9.0.3
; #@! TF.FileFunction,Plated,1,2,PTH
FMAT,2
METRIC
; #@! TA.AperFunction,Plated,PTH,ViaDrill
T1C0.300
; #@! TA.AperFunction,Plated,PTH,ComponentDrill
T2C0.600
; #@! TA.AperFunction,Plated,PTH,ComponentDrill
T3C1.000
%
G90
G05
T1
X130.55Y-129.6
X132.91Y-129.485
X135.447Y-129.485
X136.445Y-117.25
X136.445Y-117.85
X136.7Y-122.5
X136.722Y-121.85
X137.984Y-129.485
X138.3Y-121.6
X138.7Y-120.6
X138.782Y-116.484
X138.792Y-117.9
X139.55Y-121.55
X140.3Y-120.65
X140.521Y-129.485
X142.95Y-126.8
X143.058Y-129.485
X143.211Y-117.148
X143.35Y-117.9
X144.65Y-114.35
X145.45Y-127.15
X145.595Y-129.485
X146.15Y-114.3
X147.5Y-114.35
X148.0Y-125.05
X148.132Y-129.485
X148.25Y-126.35
X148.4Y-119.5
X148.45Y-120.5
X148.9Y-114.35
X149.3Y-118.15
X149.35Y-126.35
X149.75Y-120.5
X149.8Y-119.55
X149.9Y-117.8
X149.9Y-118.5
X149.9Y-122.1
X150.05Y-116.95
X150.346Y-121.444
X150.45Y-114.3
X150.669Y-129.485
X151.95Y-114.35
X153.05Y-115.1
X153.206Y-129.485
X154.1Y-116.6
X154.35Y-119.8
X155.05Y-120.85
X155.7Y-116.8
X155.743Y-129.485
X155.75Y-119.8
X156.05Y-121.65
X156.95Y-124.3
X158.28Y-129.485
X158.45Y-124.35
X159.25Y-121.85
X159.3Y-122.95
X159.85Y-116.05
X159.9Y-118.15
X159.9Y-120.4
X160.05Y-122.1
X160.25Y-124.35
X160.75Y-119.25
X160.8Y-114.35
X160.816Y-129.485
X160.9Y-117.05
X161.75Y-120.45
X161.8Y-118.15
X161.95Y-116.0
X162.95Y-114.35
X163.353Y-129.485
X163.45Y-121.65
X163.5Y-124.8
X163.5Y-125.75
X163.55Y-123.85
X164.0Y-120.5
X164.9Y-114.4
X165.822Y-120.422
X165.89Y-129.485
X166.05Y-115.6
X166.05Y-117.55
X167.1Y-114.45
X167.2Y-116.6
X168.2Y-117.45
X168.3Y-115.6
T3
X129.07Y-128.45
X131.61Y-128.45
X134.15Y-128.45
X136.69Y-128.45
X139.23Y-128.45
X141.77Y-128.45
X144.31Y-128.45
X146.85Y-128.45
X149.39Y-128.45
X151.93Y-128.45
X154.47Y-128.45
X157.01Y-128.45
X159.55Y-128.45
X162.09Y-128.45
X164.63Y-128.45
X167.1Y-119.145
X167.1Y-121.685
X167.1Y-124.225
X167.17Y-128.45
T2
X130.5Y-115.53G85X129.9Y-115.53
G05
X130.5Y-124.17G85X129.9Y-124.17
G05
X134.93Y-115.53G85X133.83Y-115.53
G05
X134.93Y-124.17G85X133.83Y-124.17
G05
M30
