G04 #@! TF.GenerationSoftware,KiCad,Pcbnew,9.0.3*
G04 #@! TF.CreationDate,2025-08-03T15:24:15-04:00*
G04 #@! TF.ProjectId,CH32V003A4M6,43483332-5630-4303-9341-344d362e6b69,rev?*
G04 #@! TF.SameCoordinates,Original*
G04 #@! TF.FileFunction,Copper,L2,Bot*
G04 #@! TF.FilePolarity,Positive*
%FSLAX46Y46*%
G04 Gerber Fmt 4.6, Leading zero omitted, Abs format (unit mm)*
G04 Created by KiCad (PCBNEW 9.0.3) date 2025-08-03 15:24:15*
%MOMM*%
%LPD*%
G01*
G04 APERTURE LIST*
G04 #@! TA.AperFunction,ComponentPad*
%ADD10R,1.700000X1.700000*%
G04 #@! TD*
G04 #@! TA.AperFunction,ComponentPad*
%ADD11O,1.700000X1.700000*%
G04 #@! TD*
G04 #@! TA.AperFunction,ComponentPad*
%ADD12O,2.100000X1.000000*%
G04 #@! TD*
G04 #@! TA.AperFunction,ComponentPad*
%ADD13O,1.600000X1.000000*%
G04 #@! TD*
G04 #@! TA.AperFunction,ComponentPad*
%ADD14C,1.700000*%
G04 #@! TD*
G04 #@! TA.AperFunction,ViaPad*
%ADD15C,0.600000*%
G04 #@! TD*
G04 #@! TA.AperFunction,Conductor*
%ADD16C,1.000000*%
G04 #@! TD*
G04 #@! TA.AperFunction,Conductor*
%ADD17C,1.200000*%
G04 #@! TD*
G04 #@! TA.AperFunction,Conductor*
%ADD18C,0.200000*%
G04 #@! TD*
G04 APERTURE END LIST*
D10*
X167100000Y-124225000D03*
D11*
X167100000Y-121685000D03*
X167100000Y-119145000D03*
D12*
X134380000Y-115530000D03*
D13*
X130200000Y-115530000D03*
D12*
X134380000Y-124170000D03*
D13*
X130200000Y-124170000D03*
D10*
X129070000Y-128450000D03*
D14*
X131610000Y-128450000D03*
X134150000Y-128450000D03*
X136690000Y-128450000D03*
X139230000Y-128450000D03*
X141770000Y-128450000D03*
X144310000Y-128450000D03*
X146850000Y-128450000D03*
X149390000Y-128450000D03*
X151930000Y-128450000D03*
X154470000Y-128450000D03*
X157010000Y-128450000D03*
X159550000Y-128450000D03*
X162090000Y-128450000D03*
X164630000Y-128450000D03*
X167170000Y-128450000D03*
D15*
X143057792Y-129484503D03*
X140520835Y-129484503D03*
X132909964Y-129484503D03*
X155750000Y-119800000D03*
X153050000Y-115100000D03*
X155700000Y-116800000D03*
X145594749Y-129484503D03*
X158450000Y-124350000D03*
X142950000Y-126800000D03*
X155742577Y-129484503D03*
X146150000Y-114300000D03*
X154100000Y-116600000D03*
X148250000Y-126350000D03*
X150668663Y-129484503D03*
X163550000Y-123850000D03*
X145450000Y-127150000D03*
X156050000Y-121650000D03*
X154350000Y-119800000D03*
X149750000Y-120500000D03*
X139550000Y-121550000D03*
X148400000Y-119500000D03*
X160816491Y-129484503D03*
X163500000Y-125750000D03*
X163353448Y-129484503D03*
X137983878Y-129484503D03*
X144650000Y-114350000D03*
X153205620Y-129484503D03*
X148131706Y-129484503D03*
X130550000Y-129600000D03*
X138300000Y-121600000D03*
X148450000Y-120500000D03*
X149800000Y-119550000D03*
X140300000Y-120650000D03*
X155050000Y-120850000D03*
X147500000Y-114350000D03*
X150450000Y-114300000D03*
X165890405Y-129484503D03*
X163500000Y-124800000D03*
X151950000Y-114350000D03*
X149350000Y-126350000D03*
X156950000Y-124300000D03*
X158279534Y-129484503D03*
X135446921Y-129484503D03*
X138700000Y-120600000D03*
X148900000Y-114350000D03*
X160250000Y-124350000D03*
X159300000Y-122950000D03*
X159250000Y-121850000D03*
X136700000Y-122500000D03*
X136722000Y-121850000D03*
X160050000Y-122100000D03*
X136445000Y-117250000D03*
X136445000Y-117850000D03*
X162950000Y-114350000D03*
X149900000Y-117800000D03*
X149300000Y-118150000D03*
X164000000Y-120500000D03*
X159850000Y-116050000D03*
X160800000Y-114350000D03*
X159900000Y-120400000D03*
X161800000Y-118150000D03*
X161750000Y-120450000D03*
X165822500Y-120422500D03*
X161950000Y-116000000D03*
X164900000Y-114400000D03*
X166050000Y-115600000D03*
X166050000Y-117550000D03*
X168300000Y-115600000D03*
X159900000Y-118150000D03*
X168200000Y-117450000D03*
X149900000Y-118500000D03*
X143350000Y-117900000D03*
X160750000Y-119250000D03*
X160900000Y-117050000D03*
X167200000Y-116600000D03*
X167100000Y-114450000D03*
X148000000Y-125050000D03*
X163450000Y-121650000D03*
X149900000Y-122100000D03*
X138782007Y-116484043D03*
X150346478Y-121443854D03*
X138791933Y-117900000D03*
X150050000Y-116950000D03*
X143211494Y-117147823D03*
D16*
X136445000Y-117850000D02*
X136445000Y-117250000D01*
X136722000Y-118172000D02*
X136445000Y-117895000D01*
D17*
X136846998Y-123150000D02*
X158850000Y-123150000D01*
D16*
X159250000Y-121850000D02*
X159300000Y-121900000D01*
X159300000Y-122950000D02*
X159300000Y-122850000D01*
X159300000Y-121900000D02*
X159300000Y-122850000D01*
D17*
X159050000Y-122950000D02*
X159300000Y-122950000D01*
D16*
X159300000Y-122850000D02*
X160050000Y-122100000D01*
D17*
X136622000Y-122925002D02*
X136846998Y-123150000D01*
D16*
X136445000Y-117895000D02*
X136445000Y-117850000D01*
D17*
X158850000Y-123150000D02*
X159050000Y-122950000D01*
X136445000Y-117250000D02*
X136622000Y-117427000D01*
X136622000Y-117427000D02*
X136622000Y-122925002D01*
D16*
X136700000Y-122500000D02*
X136700000Y-122189207D01*
X164650000Y-121595000D02*
X165822500Y-120422500D01*
X164630000Y-128450000D02*
X164650000Y-128430000D01*
D18*
X143350000Y-117900000D02*
X149050000Y-117900000D01*
D16*
X150050000Y-118250000D02*
X157900000Y-118250000D01*
X164650000Y-128430000D02*
X164650000Y-121595000D01*
X165822500Y-120422500D02*
X167100000Y-119145000D01*
D18*
X149050000Y-117900000D02*
X149300000Y-118150000D01*
X161000000Y-125000000D02*
X148050000Y-125000000D01*
X163450000Y-121650000D02*
X163450000Y-122550000D01*
X148050000Y-125000000D02*
X148000000Y-125050000D01*
X163450000Y-122550000D02*
X161000000Y-125000000D01*
X149900000Y-121850000D02*
X149428000Y-121378000D01*
X139064850Y-116484043D02*
X138782007Y-116484043D01*
X139500000Y-116950000D02*
X139500000Y-116919193D01*
X143880807Y-121300000D02*
X143850000Y-121300000D01*
X149428000Y-121378000D02*
X143958807Y-121378000D01*
X139500000Y-116919193D02*
X139064850Y-116484043D01*
X149900000Y-122100000D02*
X149900000Y-121850000D01*
X143850000Y-121300000D02*
X139500000Y-116950000D01*
X143958807Y-121378000D02*
X143880807Y-121300000D01*
X144094669Y-121050000D02*
X139000712Y-115956043D01*
X138254007Y-116704007D02*
X138791933Y-117241933D01*
X149957716Y-121443854D02*
X149563862Y-121050000D01*
X138254007Y-116265338D02*
X138254007Y-116704007D01*
X138563302Y-115956043D02*
X138254007Y-116265338D01*
X149563862Y-121050000D02*
X144094669Y-121050000D01*
X150346478Y-121443854D02*
X149957716Y-121443854D01*
X138791933Y-117241933D02*
X138791933Y-117900000D01*
X139000712Y-115956043D02*
X138563302Y-115956043D01*
X149681295Y-117272000D02*
X149778000Y-117272000D01*
X143746705Y-117550000D02*
X149403295Y-117550000D01*
X149403295Y-117550000D02*
X149681295Y-117272000D01*
X143435671Y-117372000D02*
X143568705Y-117372000D01*
X143211494Y-117147823D02*
X143435671Y-117372000D01*
X149778000Y-117272000D02*
X150050000Y-117000000D01*
X150050000Y-117000000D02*
X150050000Y-116950000D01*
X143568705Y-117372000D02*
X143746705Y-117550000D01*
G04 #@! TA.AperFunction,Conductor*
G36*
X168693039Y-113822185D02*
G01*
X168738794Y-113874989D01*
X168750000Y-113926500D01*
X168750000Y-120976000D01*
X168730315Y-121043039D01*
X168677511Y-121088794D01*
X168626000Y-121100000D01*
X168098447Y-121100000D01*
X168031408Y-121080315D01*
X167998129Y-121048886D01*
X167945174Y-120976000D01*
X167939414Y-120968072D01*
X167816928Y-120845586D01*
X167676788Y-120743768D01*
X167522445Y-120665127D01*
X167357701Y-120611598D01*
X167357699Y-120611597D01*
X167357698Y-120611597D01*
X167226271Y-120590781D01*
X167186611Y-120584500D01*
X167013389Y-120584500D01*
X166973728Y-120590781D01*
X166842302Y-120611597D01*
X166677552Y-120665128D01*
X166523211Y-120743768D01*
X166443256Y-120801859D01*
X166383072Y-120845586D01*
X166383070Y-120845588D01*
X166383069Y-120845588D01*
X166260587Y-120968070D01*
X166201871Y-121048886D01*
X166146540Y-121091551D01*
X166101553Y-121100000D01*
X163524341Y-121100000D01*
X163522475Y-121099500D01*
X163377525Y-121099500D01*
X163375659Y-121100000D01*
X159335085Y-121100000D01*
X159324907Y-121099500D01*
X159323917Y-121099500D01*
X159176083Y-121099500D01*
X159175093Y-121099500D01*
X159164915Y-121100000D01*
X157124000Y-121100000D01*
X157056961Y-121080315D01*
X157011206Y-121027511D01*
X157000000Y-120976000D01*
X157000000Y-113926500D01*
X157019685Y-113859461D01*
X157072489Y-113813706D01*
X157124000Y-113802500D01*
X168626000Y-113802500D01*
X168693039Y-113822185D01*
G37*
G04 #@! TD.AperFunction*
G04 #@! TA.AperFunction,Conductor*
G36*
X156687539Y-113822185D02*
G01*
X156733294Y-113874989D01*
X156744500Y-113926500D01*
X156744500Y-117375500D01*
X156724815Y-117442539D01*
X156672011Y-117488294D01*
X156620500Y-117499500D01*
X150578386Y-117499500D01*
X150511347Y-117479815D01*
X150465592Y-117427011D01*
X150455648Y-117357853D01*
X150484673Y-117294297D01*
X150490442Y-117288101D01*
X150490504Y-117288019D01*
X150490509Y-117288015D01*
X150562984Y-117162485D01*
X150600500Y-117022475D01*
X150600500Y-116877525D01*
X150562984Y-116737515D01*
X150545547Y-116707314D01*
X150490511Y-116611988D01*
X150490506Y-116611982D01*
X150388017Y-116509493D01*
X150388011Y-116509488D01*
X150262488Y-116437017D01*
X150262489Y-116437017D01*
X150212860Y-116423719D01*
X150122475Y-116399500D01*
X149977525Y-116399500D01*
X149887140Y-116423719D01*
X149837511Y-116437017D01*
X149711988Y-116509488D01*
X149711982Y-116509493D01*
X149609493Y-116611982D01*
X149609488Y-116611988D01*
X149537017Y-116737511D01*
X149537016Y-116737515D01*
X149499500Y-116877525D01*
X149499500Y-116877527D01*
X149499500Y-116906751D01*
X149490855Y-116936191D01*
X149484332Y-116966178D01*
X149480577Y-116971193D01*
X149479815Y-116973790D01*
X149463181Y-116994432D01*
X149294432Y-117163181D01*
X149233109Y-117196666D01*
X149206751Y-117199500D01*
X143943249Y-117199500D01*
X143876210Y-117179815D01*
X143855572Y-117163185D01*
X143783917Y-117091530D01*
X143783916Y-117091529D01*
X143783385Y-117090998D01*
X143751293Y-117035413D01*
X143724478Y-116935338D01*
X143715172Y-116919220D01*
X143652005Y-116809811D01*
X143652000Y-116809805D01*
X143549511Y-116707316D01*
X143549505Y-116707311D01*
X143423982Y-116634840D01*
X143423983Y-116634840D01*
X143412500Y-116631763D01*
X143283969Y-116597323D01*
X143139019Y-116597323D01*
X143010487Y-116631763D01*
X142999005Y-116634840D01*
X142873482Y-116707311D01*
X142873476Y-116707316D01*
X142770987Y-116809805D01*
X142770982Y-116809811D01*
X142698511Y-116935334D01*
X142698510Y-116935338D01*
X142660994Y-117075348D01*
X142660994Y-117220298D01*
X142693935Y-117343233D01*
X142698511Y-117360311D01*
X142770982Y-117485834D01*
X142770987Y-117485840D01*
X142819385Y-117534238D01*
X142852870Y-117595561D01*
X142847886Y-117665253D01*
X142839096Y-117683911D01*
X142837018Y-117687510D01*
X142837016Y-117687513D01*
X142818258Y-117757520D01*
X142799500Y-117827525D01*
X142799500Y-117972475D01*
X142837016Y-118112485D01*
X142837017Y-118112488D01*
X142909488Y-118238011D01*
X142909490Y-118238013D01*
X142909491Y-118238015D01*
X143011985Y-118340509D01*
X143011986Y-118340510D01*
X143011988Y-118340511D01*
X143137511Y-118412982D01*
X143137512Y-118412982D01*
X143137515Y-118412984D01*
X143277525Y-118450500D01*
X143277528Y-118450500D01*
X143422472Y-118450500D01*
X143422475Y-118450500D01*
X143562485Y-118412984D01*
X143688015Y-118340509D01*
X143741705Y-118286819D01*
X143803028Y-118253334D01*
X143829386Y-118250500D01*
X148661861Y-118250500D01*
X148728900Y-118270185D01*
X148774655Y-118322989D01*
X148781636Y-118342406D01*
X148787016Y-118362487D01*
X148787017Y-118362488D01*
X148859488Y-118488011D01*
X148859490Y-118488013D01*
X148859491Y-118488015D01*
X148961985Y-118590509D01*
X148961986Y-118590510D01*
X148961988Y-118590511D01*
X149087511Y-118662982D01*
X149087512Y-118662982D01*
X149087515Y-118662984D01*
X149227525Y-118700500D01*
X149227528Y-118700500D01*
X149308506Y-118700500D01*
X149375545Y-118720185D01*
X149415892Y-118762500D01*
X149459491Y-118838015D01*
X149561985Y-118940509D01*
X149561986Y-118940510D01*
X149561988Y-118940511D01*
X149687511Y-119012982D01*
X149687512Y-119012982D01*
X149687515Y-119012984D01*
X149827525Y-119050500D01*
X149827528Y-119050500D01*
X149972472Y-119050500D01*
X149972475Y-119050500D01*
X150112485Y-119012984D01*
X150112488Y-119012981D01*
X150119838Y-119009938D01*
X150167289Y-119000500D01*
X156620500Y-119000500D01*
X156687539Y-119020185D01*
X156733294Y-119072989D01*
X156744500Y-119124500D01*
X156744500Y-120976002D01*
X156750338Y-121030312D01*
X156761543Y-121081818D01*
X156761546Y-121081827D01*
X156768779Y-121108192D01*
X156768783Y-121108203D01*
X156818105Y-121194818D01*
X156818110Y-121194825D01*
X156818112Y-121194828D01*
X156839653Y-121219688D01*
X156863863Y-121247628D01*
X156863866Y-121247631D01*
X156863867Y-121247632D01*
X156896641Y-121279257D01*
X156984976Y-121325465D01*
X156984977Y-121325465D01*
X156984977Y-121325466D01*
X157029218Y-121338456D01*
X157052015Y-121345150D01*
X157052019Y-121345150D01*
X157052021Y-121345151D01*
X157063652Y-121346823D01*
X157124000Y-121355500D01*
X158456915Y-121355500D01*
X158523954Y-121375185D01*
X158569709Y-121427989D01*
X158579653Y-121497147D01*
X158571476Y-121526952D01*
X158528343Y-121631083D01*
X158528340Y-121631093D01*
X158499500Y-121776080D01*
X158499500Y-121776083D01*
X158499500Y-121923917D01*
X158499500Y-121923919D01*
X158499499Y-121923919D01*
X158528340Y-122068906D01*
X158528343Y-122068916D01*
X158540061Y-122097205D01*
X158541687Y-122105381D01*
X158544477Y-122109722D01*
X158549500Y-122144657D01*
X158549500Y-122175500D01*
X158529815Y-122242539D01*
X158477011Y-122288294D01*
X158425500Y-122299500D01*
X150574500Y-122299500D01*
X150507461Y-122279815D01*
X150461706Y-122227011D01*
X150450500Y-122175500D01*
X150450500Y-122081048D01*
X150470185Y-122014009D01*
X150522989Y-121968254D01*
X150542395Y-121961277D01*
X150558963Y-121956838D01*
X150558966Y-121956836D01*
X150558967Y-121956836D01*
X150674400Y-121890190D01*
X150684493Y-121884363D01*
X150786987Y-121781869D01*
X150859462Y-121656339D01*
X150896978Y-121516329D01*
X150896978Y-121371379D01*
X150859462Y-121231369D01*
X150838359Y-121194818D01*
X150786989Y-121105842D01*
X150786984Y-121105836D01*
X150684495Y-121003347D01*
X150684489Y-121003342D01*
X150558966Y-120930871D01*
X150558967Y-120930871D01*
X150547484Y-120927794D01*
X150418953Y-120893354D01*
X150274003Y-120893354D01*
X150189997Y-120915863D01*
X150133991Y-120930870D01*
X150133988Y-120930872D01*
X150093667Y-120954151D01*
X150025767Y-120970622D01*
X149959740Y-120947769D01*
X149943988Y-120934444D01*
X149779075Y-120769531D01*
X149779070Y-120769527D01*
X149699152Y-120723387D01*
X149699151Y-120723386D01*
X149699150Y-120723386D01*
X149610006Y-120699500D01*
X149610005Y-120699500D01*
X144291213Y-120699500D01*
X144224174Y-120679815D01*
X144203532Y-120663181D01*
X139215925Y-115675574D01*
X139215920Y-115675570D01*
X139136000Y-115629429D01*
X139135993Y-115629427D01*
X139126164Y-115626793D01*
X139126163Y-115626793D01*
X139086509Y-115616168D01*
X139046856Y-115605543D01*
X138517158Y-115605543D01*
X138437851Y-115626793D01*
X138437850Y-115626793D01*
X138428016Y-115629427D01*
X138428015Y-115629428D01*
X138348093Y-115675570D01*
X138348088Y-115675574D01*
X137973538Y-116050124D01*
X137973534Y-116050129D01*
X137927394Y-116130047D01*
X137927393Y-116130050D01*
X137903507Y-116219194D01*
X137903507Y-116750150D01*
X137926118Y-116834536D01*
X137926118Y-116834538D01*
X137927392Y-116839295D01*
X137973534Y-116919215D01*
X137973538Y-116919220D01*
X138396182Y-117341864D01*
X138429667Y-117403187D01*
X138424683Y-117472879D01*
X138396183Y-117517225D01*
X138351427Y-117561981D01*
X138351421Y-117561988D01*
X138278950Y-117687511D01*
X138278949Y-117687515D01*
X138241433Y-117827525D01*
X138241433Y-117972475D01*
X138278949Y-118112485D01*
X138278950Y-118112488D01*
X138351421Y-118238011D01*
X138351423Y-118238013D01*
X138351424Y-118238015D01*
X138453918Y-118340509D01*
X138453919Y-118340510D01*
X138453921Y-118340511D01*
X138579444Y-118412982D01*
X138579445Y-118412982D01*
X138579448Y-118412984D01*
X138719458Y-118450500D01*
X138719461Y-118450500D01*
X138864405Y-118450500D01*
X138864408Y-118450500D01*
X139004418Y-118412984D01*
X139129948Y-118340509D01*
X139232442Y-118238015D01*
X139304917Y-118112485D01*
X139342433Y-117972475D01*
X139342433Y-117827525D01*
X139304917Y-117687515D01*
X139302836Y-117683911D01*
X139232444Y-117561988D01*
X139232439Y-117561982D01*
X139178752Y-117508295D01*
X139164048Y-117481367D01*
X139147456Y-117455549D01*
X139146564Y-117449348D01*
X139145267Y-117446972D01*
X139142433Y-117420614D01*
X139142433Y-117387477D01*
X139162118Y-117320438D01*
X139214922Y-117274683D01*
X139284080Y-117264739D01*
X139347636Y-117293764D01*
X139354114Y-117299796D01*
X143634788Y-121580470D01*
X143634789Y-121580471D01*
X143634791Y-121580472D01*
X143687808Y-121611081D01*
X143693538Y-121614389D01*
X143719222Y-121634097D01*
X143743595Y-121658470D01*
X143743596Y-121658471D01*
X143743598Y-121658472D01*
X143814662Y-121699501D01*
X143814661Y-121699501D01*
X143821067Y-121703198D01*
X143823519Y-121704614D01*
X143912663Y-121728500D01*
X143912664Y-121728500D01*
X144004951Y-121728500D01*
X149231456Y-121728500D01*
X149260896Y-121737144D01*
X149290883Y-121743668D01*
X149295898Y-121747422D01*
X149298495Y-121748185D01*
X149319137Y-121764819D01*
X149347977Y-121793659D01*
X149381462Y-121854982D01*
X149380071Y-121913433D01*
X149349500Y-122027525D01*
X149349500Y-122175500D01*
X149329815Y-122242539D01*
X149277011Y-122288294D01*
X149225500Y-122299500D01*
X137596500Y-122299500D01*
X137529461Y-122279815D01*
X137483706Y-122227011D01*
X137472500Y-122175500D01*
X137472500Y-117343232D01*
X137472499Y-117343228D01*
X137461534Y-117288101D01*
X137439816Y-117178918D01*
X137421037Y-117133584D01*
X137375704Y-117024137D01*
X137282627Y-116884838D01*
X137282624Y-116884834D01*
X136987165Y-116589375D01*
X136987161Y-116589372D01*
X136847866Y-116496297D01*
X136847863Y-116496296D01*
X136693082Y-116432184D01*
X136693073Y-116432181D01*
X136528771Y-116399500D01*
X136528767Y-116399500D01*
X136361233Y-116399500D01*
X136361228Y-116399500D01*
X136196926Y-116432181D01*
X136196917Y-116432184D01*
X136042136Y-116496296D01*
X136042133Y-116496297D01*
X135902838Y-116589372D01*
X135902834Y-116589375D01*
X135784375Y-116707834D01*
X135784372Y-116707838D01*
X135691297Y-116847133D01*
X135691296Y-116847136D01*
X135627184Y-117001917D01*
X135627181Y-117001926D01*
X135594500Y-117166228D01*
X135594500Y-117333771D01*
X135627181Y-117498073D01*
X135627184Y-117498082D01*
X135685061Y-117637811D01*
X135694500Y-117685263D01*
X135694500Y-117776082D01*
X135694500Y-117968918D01*
X135694500Y-117968920D01*
X135694499Y-117968920D01*
X135723340Y-118113907D01*
X135723342Y-118113913D01*
X135762061Y-118207388D01*
X135771500Y-118254841D01*
X135771500Y-123008773D01*
X135804182Y-123173076D01*
X135804185Y-123173088D01*
X135817608Y-123205493D01*
X135817609Y-123205495D01*
X135868296Y-123327865D01*
X135868297Y-123327868D01*
X135961372Y-123467163D01*
X135961375Y-123467167D01*
X136304828Y-123810619D01*
X136304829Y-123810620D01*
X136304832Y-123810622D01*
X136304836Y-123810626D01*
X136444135Y-123903704D01*
X136444138Y-123903705D01*
X136444141Y-123903707D01*
X136553572Y-123949034D01*
X136598916Y-123967816D01*
X136598918Y-123967816D01*
X136598923Y-123967818D01*
X136763226Y-124000499D01*
X136763230Y-124000500D01*
X136763231Y-124000500D01*
X158933768Y-124000500D01*
X158933769Y-124000499D01*
X159007695Y-123985795D01*
X159098074Y-123967818D01*
X159098078Y-123967816D01*
X159098082Y-123967816D01*
X159143415Y-123949037D01*
X159252863Y-123903704D01*
X159392162Y-123810627D01*
X159392163Y-123810625D01*
X159396793Y-123807532D01*
X159441490Y-123789017D01*
X159548082Y-123767816D01*
X159702863Y-123703703D01*
X159842162Y-123610626D01*
X159960626Y-123492162D01*
X160053703Y-123352863D01*
X160117816Y-123198082D01*
X160136432Y-123104486D01*
X160168815Y-123042577D01*
X160170254Y-123041111D01*
X160632951Y-122578416D01*
X160715084Y-122455495D01*
X160771658Y-122318913D01*
X160783021Y-122261788D01*
X160800500Y-122173920D01*
X160800500Y-122026080D01*
X160771659Y-121881093D01*
X160771658Y-121881092D01*
X160771658Y-121881088D01*
X160763954Y-121862488D01*
X160715085Y-121744507D01*
X160715083Y-121744504D01*
X160632952Y-121621585D01*
X160632946Y-121621578D01*
X160578549Y-121567181D01*
X160545064Y-121505858D01*
X160550048Y-121436166D01*
X160591920Y-121380233D01*
X160657384Y-121355816D01*
X160666230Y-121355500D01*
X162797392Y-121355500D01*
X162864431Y-121375185D01*
X162910186Y-121427989D01*
X162920130Y-121497147D01*
X162917169Y-121511583D01*
X162899500Y-121577525D01*
X162899500Y-121722475D01*
X162918574Y-121793659D01*
X162937017Y-121862488D01*
X163009488Y-121988011D01*
X163009493Y-121988017D01*
X163063181Y-122041705D01*
X163077884Y-122068632D01*
X163094477Y-122094451D01*
X163095368Y-122100651D01*
X163096666Y-122103028D01*
X163099500Y-122129386D01*
X163099500Y-122353456D01*
X163079815Y-122420495D01*
X163063181Y-122441137D01*
X160891137Y-124613181D01*
X160829814Y-124646666D01*
X160803456Y-124649500D01*
X148429386Y-124649500D01*
X148362347Y-124629815D01*
X148341705Y-124613181D01*
X148338017Y-124609493D01*
X148338011Y-124609488D01*
X148212488Y-124537017D01*
X148212489Y-124537017D01*
X148193791Y-124532007D01*
X148072475Y-124499500D01*
X147927525Y-124499500D01*
X147806209Y-124532007D01*
X147787511Y-124537017D01*
X147661988Y-124609488D01*
X147661982Y-124609493D01*
X147559493Y-124711982D01*
X147559488Y-124711988D01*
X147487017Y-124837511D01*
X147487016Y-124837515D01*
X147449500Y-124977525D01*
X147449500Y-125122475D01*
X147487016Y-125262485D01*
X147487017Y-125262488D01*
X147559488Y-125388011D01*
X147559490Y-125388013D01*
X147559491Y-125388015D01*
X147661985Y-125490509D01*
X147661986Y-125490510D01*
X147661988Y-125490511D01*
X147787511Y-125562982D01*
X147787512Y-125562982D01*
X147787515Y-125562984D01*
X147927525Y-125600500D01*
X147927528Y-125600500D01*
X148072472Y-125600500D01*
X148072475Y-125600500D01*
X148212485Y-125562984D01*
X148338015Y-125490509D01*
X148440509Y-125388015D01*
X148440509Y-125388014D01*
X148441705Y-125386819D01*
X148503028Y-125353334D01*
X148529386Y-125350500D01*
X161046142Y-125350500D01*
X161046144Y-125350500D01*
X161135288Y-125326614D01*
X161215212Y-125280470D01*
X163687819Y-122807863D01*
X163749142Y-122774378D01*
X163818834Y-122779362D01*
X163874767Y-122821234D01*
X163899184Y-122886698D01*
X163899500Y-122895544D01*
X163899500Y-127572796D01*
X163879815Y-127639835D01*
X163863181Y-127660477D01*
X163790588Y-127733069D01*
X163790588Y-127733070D01*
X163790586Y-127733072D01*
X163746859Y-127793256D01*
X163688768Y-127873211D01*
X163610128Y-128027552D01*
X163556597Y-128192302D01*
X163529500Y-128363389D01*
X163529500Y-128536610D01*
X163556579Y-128707585D01*
X163556598Y-128707701D01*
X163610127Y-128872445D01*
X163688768Y-129026788D01*
X163790586Y-129166928D01*
X163913072Y-129289414D01*
X164053212Y-129391232D01*
X164207555Y-129469873D01*
X164372299Y-129523402D01*
X164543389Y-129550500D01*
X164543390Y-129550500D01*
X164716610Y-129550500D01*
X164716611Y-129550500D01*
X164887701Y-129523402D01*
X165052445Y-129469873D01*
X165206788Y-129391232D01*
X165346928Y-129289414D01*
X165469414Y-129166928D01*
X165571232Y-129026788D01*
X165649873Y-128872445D01*
X165703402Y-128707701D01*
X165730500Y-128536611D01*
X165730500Y-128363389D01*
X166069500Y-128363389D01*
X166069500Y-128536610D01*
X166096579Y-128707585D01*
X166096598Y-128707701D01*
X166150127Y-128872445D01*
X166228768Y-129026788D01*
X166330586Y-129166928D01*
X166453072Y-129289414D01*
X166593212Y-129391232D01*
X166747555Y-129469873D01*
X166912299Y-129523402D01*
X167083389Y-129550500D01*
X167083390Y-129550500D01*
X167256610Y-129550500D01*
X167256611Y-129550500D01*
X167427701Y-129523402D01*
X167592445Y-129469873D01*
X167746788Y-129391232D01*
X167886928Y-129289414D01*
X168009414Y-129166928D01*
X168111232Y-129026788D01*
X168189873Y-128872445D01*
X168243402Y-128707701D01*
X168270500Y-128536611D01*
X168270500Y-128363389D01*
X168243402Y-128192299D01*
X168189873Y-128027555D01*
X168111232Y-127873212D01*
X168009414Y-127733072D01*
X167886928Y-127610586D01*
X167746788Y-127508768D01*
X167592445Y-127430127D01*
X167427701Y-127376598D01*
X167427699Y-127376597D01*
X167427698Y-127376597D01*
X167296271Y-127355781D01*
X167256611Y-127349500D01*
X167083389Y-127349500D01*
X167043728Y-127355781D01*
X166912302Y-127376597D01*
X166747552Y-127430128D01*
X166593211Y-127508768D01*
X166513256Y-127566859D01*
X166453072Y-127610586D01*
X166453070Y-127610588D01*
X166453069Y-127610588D01*
X166330588Y-127733069D01*
X166330588Y-127733070D01*
X166330586Y-127733072D01*
X166286859Y-127793256D01*
X166228768Y-127873211D01*
X166150128Y-128027552D01*
X166096597Y-128192302D01*
X166069500Y-128363389D01*
X165730500Y-128363389D01*
X165703402Y-128192299D01*
X165649873Y-128027555D01*
X165571232Y-127873212D01*
X165469414Y-127733072D01*
X165436819Y-127700477D01*
X165403334Y-127639154D01*
X165400500Y-127612796D01*
X165400500Y-125099628D01*
X166000000Y-125099628D01*
X166014503Y-125172540D01*
X166014505Y-125172544D01*
X166069760Y-125255239D01*
X166152455Y-125310494D01*
X166152459Y-125310496D01*
X166225371Y-125324999D01*
X166225374Y-125325000D01*
X166725000Y-125325000D01*
X167475000Y-125325000D01*
X167974626Y-125325000D01*
X167974628Y-125324999D01*
X168047540Y-125310496D01*
X168047544Y-125310494D01*
X168130239Y-125255239D01*
X168185494Y-125172544D01*
X168185496Y-125172540D01*
X168199999Y-125099628D01*
X168200000Y-125099626D01*
X168200000Y-124600000D01*
X167475000Y-124600000D01*
X167475000Y-125325000D01*
X166725000Y-125325000D01*
X166725000Y-124600000D01*
X166000000Y-124600000D01*
X166000000Y-125099628D01*
X165400500Y-125099628D01*
X165400500Y-124159174D01*
X166600000Y-124159174D01*
X166600000Y-124290826D01*
X166634075Y-124417993D01*
X166699901Y-124532007D01*
X166792993Y-124625099D01*
X166907007Y-124690925D01*
X167034174Y-124725000D01*
X167165826Y-124725000D01*
X167292993Y-124690925D01*
X167407007Y-124625099D01*
X167500099Y-124532007D01*
X167565925Y-124417993D01*
X167600000Y-124290826D01*
X167600000Y-124159174D01*
X167565925Y-124032007D01*
X167500099Y-123917993D01*
X167432106Y-123850000D01*
X167475000Y-123850000D01*
X168200000Y-123850000D01*
X168200000Y-123350373D01*
X168199999Y-123350371D01*
X168185496Y-123277459D01*
X168185494Y-123277455D01*
X168130239Y-123194760D01*
X168047544Y-123139505D01*
X168047540Y-123139503D01*
X167974627Y-123125000D01*
X167475000Y-123125000D01*
X167475000Y-123850000D01*
X167432106Y-123850000D01*
X167407007Y-123824901D01*
X167292993Y-123759075D01*
X167165826Y-123725000D01*
X167034174Y-123725000D01*
X166907007Y-123759075D01*
X166792993Y-123824901D01*
X166699901Y-123917993D01*
X166634075Y-124032007D01*
X166600000Y-124159174D01*
X165400500Y-124159174D01*
X165400500Y-123350371D01*
X166000000Y-123350371D01*
X166000000Y-123850000D01*
X166725000Y-123850000D01*
X166725000Y-123125000D01*
X166225373Y-123125000D01*
X166152459Y-123139503D01*
X166152455Y-123139505D01*
X166069760Y-123194760D01*
X166014505Y-123277455D01*
X166014503Y-123277459D01*
X166000000Y-123350371D01*
X165400500Y-123350371D01*
X165400500Y-121957229D01*
X165420185Y-121890190D01*
X165436819Y-121869548D01*
X165787819Y-121518548D01*
X165849142Y-121485063D01*
X165918834Y-121490047D01*
X165974767Y-121531919D01*
X165999184Y-121597383D01*
X165999500Y-121606229D01*
X165999500Y-121771610D01*
X166016838Y-121881083D01*
X166026598Y-121942701D01*
X166080127Y-122107445D01*
X166158768Y-122261788D01*
X166260586Y-122401928D01*
X166383072Y-122524414D01*
X166523212Y-122626232D01*
X166677555Y-122704873D01*
X166842299Y-122758402D01*
X167013389Y-122785500D01*
X167013390Y-122785500D01*
X167186610Y-122785500D01*
X167186611Y-122785500D01*
X167357701Y-122758402D01*
X167522445Y-122704873D01*
X167676788Y-122626232D01*
X167816928Y-122524414D01*
X167939414Y-122401928D01*
X168041232Y-122261788D01*
X168119873Y-122107445D01*
X168173402Y-121942701D01*
X168200500Y-121771611D01*
X168200500Y-121598389D01*
X168184742Y-121498897D01*
X168193697Y-121429604D01*
X168238693Y-121376153D01*
X168305444Y-121355513D01*
X168307215Y-121355500D01*
X168626000Y-121355500D01*
X168680313Y-121349661D01*
X168731824Y-121338455D01*
X168756692Y-121331632D01*
X168826550Y-121332878D01*
X168884646Y-121371694D01*
X168912533Y-121435757D01*
X168913500Y-121451213D01*
X168913500Y-129913500D01*
X168893815Y-129980539D01*
X168841011Y-130026294D01*
X168789500Y-130037500D01*
X127134500Y-130037500D01*
X127067461Y-130017815D01*
X127021706Y-129965011D01*
X127010500Y-129913500D01*
X127010500Y-127575321D01*
X127969500Y-127575321D01*
X127969500Y-129324678D01*
X127984032Y-129397735D01*
X127984033Y-129397739D01*
X127984034Y-129397740D01*
X128039399Y-129480601D01*
X128122260Y-129535966D01*
X128122264Y-129535967D01*
X128195321Y-129550499D01*
X128195324Y-129550500D01*
X128195326Y-129550500D01*
X129944676Y-129550500D01*
X129944677Y-129550499D01*
X130017740Y-129535966D01*
X130100601Y-129480601D01*
X130155966Y-129397740D01*
X130170500Y-129324674D01*
X130170500Y-128363389D01*
X130509500Y-128363389D01*
X130509500Y-128536610D01*
X130536579Y-128707585D01*
X130536598Y-128707701D01*
X130590127Y-128872445D01*
X130668768Y-129026788D01*
X130770586Y-129166928D01*
X130893072Y-129289414D01*
X131033212Y-129391232D01*
X131187555Y-129469873D01*
X131352299Y-129523402D01*
X131523389Y-129550500D01*
X131523390Y-129550500D01*
X131696610Y-129550500D01*
X131696611Y-129550500D01*
X131867701Y-129523402D01*
X132032445Y-129469873D01*
X132186788Y-129391232D01*
X132326928Y-129289414D01*
X132449414Y-129166928D01*
X132551232Y-129026788D01*
X132629873Y-128872445D01*
X132683402Y-128707701D01*
X132710500Y-128536611D01*
X132710500Y-128363389D01*
X133049500Y-128363389D01*
X133049500Y-128536610D01*
X133076579Y-128707585D01*
X133076598Y-128707701D01*
X133130127Y-128872445D01*
X133208768Y-129026788D01*
X133310586Y-129166928D01*
X133433072Y-129289414D01*
X133573212Y-129391232D01*
X133727555Y-129469873D01*
X133892299Y-129523402D01*
X134063389Y-129550500D01*
X134063390Y-129550500D01*
X134236610Y-129550500D01*
X134236611Y-129550500D01*
X134407701Y-129523402D01*
X134572445Y-129469873D01*
X134726788Y-129391232D01*
X134866928Y-129289414D01*
X134989414Y-129166928D01*
X135091232Y-129026788D01*
X135169873Y-128872445D01*
X135223402Y-128707701D01*
X135250500Y-128536611D01*
X135250500Y-128363389D01*
X135589500Y-128363389D01*
X135589500Y-128536610D01*
X135616579Y-128707585D01*
X135616598Y-128707701D01*
X135670127Y-128872445D01*
X135748768Y-129026788D01*
X135850586Y-129166928D01*
X135973072Y-129289414D01*
X136113212Y-129391232D01*
X136267555Y-129469873D01*
X136432299Y-129523402D01*
X136603389Y-129550500D01*
X136603390Y-129550500D01*
X136776610Y-129550500D01*
X136776611Y-129550500D01*
X136947701Y-129523402D01*
X137112445Y-129469873D01*
X137266788Y-129391232D01*
X137406928Y-129289414D01*
X137529414Y-129166928D01*
X137631232Y-129026788D01*
X137709873Y-128872445D01*
X137763402Y-128707701D01*
X137790500Y-128536611D01*
X137790500Y-128363389D01*
X138129500Y-128363389D01*
X138129500Y-128536610D01*
X138156579Y-128707585D01*
X138156598Y-128707701D01*
X138210127Y-128872445D01*
X138288768Y-129026788D01*
X138390586Y-129166928D01*
X138513072Y-129289414D01*
X138653212Y-129391232D01*
X138807555Y-129469873D01*
X138972299Y-129523402D01*
X139143389Y-129550500D01*
X139143390Y-129550500D01*
X139316610Y-129550500D01*
X139316611Y-129550500D01*
X139487701Y-129523402D01*
X139652445Y-129469873D01*
X139806788Y-129391232D01*
X139946928Y-129289414D01*
X140069414Y-129166928D01*
X140171232Y-129026788D01*
X140249873Y-128872445D01*
X140303402Y-128707701D01*
X140330500Y-128536611D01*
X140330500Y-128363389D01*
X140669500Y-128363389D01*
X140669500Y-128536610D01*
X140696579Y-128707585D01*
X140696598Y-128707701D01*
X140750127Y-128872445D01*
X140828768Y-129026788D01*
X140930586Y-129166928D01*
X141053072Y-129289414D01*
X141193212Y-129391232D01*
X141347555Y-129469873D01*
X141512299Y-129523402D01*
X141683389Y-129550500D01*
X141683390Y-129550500D01*
X141856610Y-129550500D01*
X141856611Y-129550500D01*
X142027701Y-129523402D01*
X142192445Y-129469873D01*
X142346788Y-129391232D01*
X142486928Y-129289414D01*
X142609414Y-129166928D01*
X142711232Y-129026788D01*
X142789873Y-128872445D01*
X142843402Y-128707701D01*
X142870500Y-128536611D01*
X142870500Y-128363389D01*
X143209500Y-128363389D01*
X143209500Y-128536610D01*
X143236579Y-128707585D01*
X143236598Y-128707701D01*
X143290127Y-128872445D01*
X143368768Y-129026788D01*
X143470586Y-129166928D01*
X143593072Y-129289414D01*
X143733212Y-129391232D01*
X143887555Y-129469873D01*
X144052299Y-129523402D01*
X144223389Y-129550500D01*
X144223390Y-129550500D01*
X144396610Y-129550500D01*
X144396611Y-129550500D01*
X144567701Y-129523402D01*
X144732445Y-129469873D01*
X144886788Y-129391232D01*
X145026928Y-129289414D01*
X145149414Y-129166928D01*
X145251232Y-129026788D01*
X145329873Y-128872445D01*
X145383402Y-128707701D01*
X145410500Y-128536611D01*
X145410500Y-128363389D01*
X145749500Y-128363389D01*
X145749500Y-128536610D01*
X145776579Y-128707585D01*
X145776598Y-128707701D01*
X145830127Y-128872445D01*
X145908768Y-129026788D01*
X146010586Y-129166928D01*
X146133072Y-129289414D01*
X146273212Y-129391232D01*
X146427555Y-129469873D01*
X146592299Y-129523402D01*
X146763389Y-129550500D01*
X146763390Y-129550500D01*
X146936610Y-129550500D01*
X146936611Y-129550500D01*
X147107701Y-129523402D01*
X147272445Y-129469873D01*
X147426788Y-129391232D01*
X147566928Y-129289414D01*
X147689414Y-129166928D01*
X147791232Y-129026788D01*
X147869873Y-128872445D01*
X147923402Y-128707701D01*
X147950500Y-128536611D01*
X147950500Y-128363389D01*
X148289500Y-128363389D01*
X148289500Y-128536610D01*
X148316579Y-128707585D01*
X148316598Y-128707701D01*
X148370127Y-128872445D01*
X148448768Y-129026788D01*
X148550586Y-129166928D01*
X148673072Y-129289414D01*
X148813212Y-129391232D01*
X148967555Y-129469873D01*
X149132299Y-129523402D01*
X149303389Y-129550500D01*
X149303390Y-129550500D01*
X149476610Y-129550500D01*
X149476611Y-129550500D01*
X149647701Y-129523402D01*
X149812445Y-129469873D01*
X149966788Y-129391232D01*
X150106928Y-129289414D01*
X150229414Y-129166928D01*
X150331232Y-129026788D01*
X150409873Y-128872445D01*
X150463402Y-128707701D01*
X150490500Y-128536611D01*
X150490500Y-128363389D01*
X150829500Y-128363389D01*
X150829500Y-128536610D01*
X150856579Y-128707585D01*
X150856598Y-128707701D01*
X150910127Y-128872445D01*
X150988768Y-129026788D01*
X151090586Y-129166928D01*
X151213072Y-129289414D01*
X151353212Y-129391232D01*
X151507555Y-129469873D01*
X151672299Y-129523402D01*
X151843389Y-129550500D01*
X151843390Y-129550500D01*
X152016610Y-129550500D01*
X152016611Y-129550500D01*
X152187701Y-129523402D01*
X152352445Y-129469873D01*
X152506788Y-129391232D01*
X152646928Y-129289414D01*
X152769414Y-129166928D01*
X152871232Y-129026788D01*
X152949873Y-128872445D01*
X153003402Y-128707701D01*
X153030500Y-128536611D01*
X153030500Y-128363389D01*
X153369500Y-128363389D01*
X153369500Y-128536610D01*
X153396579Y-128707585D01*
X153396598Y-128707701D01*
X153450127Y-128872445D01*
X153528768Y-129026788D01*
X153630586Y-129166928D01*
X153753072Y-129289414D01*
X153893212Y-129391232D01*
X154047555Y-129469873D01*
X154212299Y-129523402D01*
X154383389Y-129550500D01*
X154383390Y-129550500D01*
X154556610Y-129550500D01*
X154556611Y-129550500D01*
X154727701Y-129523402D01*
X154892445Y-129469873D01*
X155046788Y-129391232D01*
X155186928Y-129289414D01*
X155309414Y-129166928D01*
X155411232Y-129026788D01*
X155489873Y-128872445D01*
X155543402Y-128707701D01*
X155570500Y-128536611D01*
X155570500Y-128363389D01*
X155909500Y-128363389D01*
X155909500Y-128536610D01*
X155936579Y-128707585D01*
X155936598Y-128707701D01*
X155990127Y-128872445D01*
X156068768Y-129026788D01*
X156170586Y-129166928D01*
X156293072Y-129289414D01*
X156433212Y-129391232D01*
X156587555Y-129469873D01*
X156752299Y-129523402D01*
X156923389Y-129550500D01*
X156923390Y-129550500D01*
X157096610Y-129550500D01*
X157096611Y-129550500D01*
X157267701Y-129523402D01*
X157432445Y-129469873D01*
X157586788Y-129391232D01*
X157726928Y-129289414D01*
X157849414Y-129166928D01*
X157951232Y-129026788D01*
X158029873Y-128872445D01*
X158083402Y-128707701D01*
X158110500Y-128536611D01*
X158110500Y-128363389D01*
X158449500Y-128363389D01*
X158449500Y-128536610D01*
X158476579Y-128707585D01*
X158476598Y-128707701D01*
X158530127Y-128872445D01*
X158608768Y-129026788D01*
X158710586Y-129166928D01*
X158833072Y-129289414D01*
X158973212Y-129391232D01*
X159127555Y-129469873D01*
X159292299Y-129523402D01*
X159463389Y-129550500D01*
X159463390Y-129550500D01*
X159636610Y-129550500D01*
X159636611Y-129550500D01*
X159807701Y-129523402D01*
X159972445Y-129469873D01*
X160017627Y-129446852D01*
X161623476Y-129446852D01*
X161667746Y-129469410D01*
X161667749Y-129469411D01*
X161832413Y-129522913D01*
X162003429Y-129550000D01*
X162176571Y-129550000D01*
X162347584Y-129522914D01*
X162512251Y-129469409D01*
X162556523Y-129446852D01*
X162090001Y-128980330D01*
X162090000Y-128980330D01*
X161623476Y-129446852D01*
X160017627Y-129446852D01*
X160126788Y-129391232D01*
X160266928Y-129289414D01*
X160389414Y-129166928D01*
X160491232Y-129026788D01*
X160569873Y-128872445D01*
X160623402Y-128707701D01*
X160650500Y-128536611D01*
X160650500Y-128363428D01*
X160990000Y-128363428D01*
X160990000Y-128536571D01*
X161017086Y-128707585D01*
X161017086Y-128707588D01*
X161070589Y-128872251D01*
X161070589Y-128872252D01*
X161093146Y-128916523D01*
X161559670Y-128450000D01*
X161559670Y-128449999D01*
X161493845Y-128384174D01*
X161590000Y-128384174D01*
X161590000Y-128515826D01*
X161624075Y-128642993D01*
X161689901Y-128757007D01*
X161782993Y-128850099D01*
X161897007Y-128915925D01*
X162024174Y-128950000D01*
X162155826Y-128950000D01*
X162282993Y-128915925D01*
X162397007Y-128850099D01*
X162490099Y-128757007D01*
X162555925Y-128642993D01*
X162590000Y-128515826D01*
X162590000Y-128449999D01*
X162620330Y-128449999D01*
X162620330Y-128450001D01*
X163086852Y-128916523D01*
X163109409Y-128872251D01*
X163162914Y-128707584D01*
X163190000Y-128536571D01*
X163190000Y-128363428D01*
X163162913Y-128192414D01*
X163162913Y-128192411D01*
X163109411Y-128027749D01*
X163109410Y-128027746D01*
X163086852Y-127983476D01*
X162620330Y-128449999D01*
X162590000Y-128449999D01*
X162590000Y-128384174D01*
X162555925Y-128257007D01*
X162490099Y-128142993D01*
X162397007Y-128049901D01*
X162282993Y-127984075D01*
X162155826Y-127950000D01*
X162024174Y-127950000D01*
X161897007Y-127984075D01*
X161782993Y-128049901D01*
X161689901Y-128142993D01*
X161624075Y-128257007D01*
X161590000Y-128384174D01*
X161493845Y-128384174D01*
X161093146Y-127983475D01*
X161070589Y-128027748D01*
X161070588Y-128027751D01*
X161017086Y-128192411D01*
X161017086Y-128192414D01*
X160990000Y-128363428D01*
X160650500Y-128363428D01*
X160650500Y-128363389D01*
X160623402Y-128192299D01*
X160569873Y-128027555D01*
X160491232Y-127873212D01*
X160389414Y-127733072D01*
X160266928Y-127610586D01*
X160126788Y-127508768D01*
X160017623Y-127453146D01*
X161623475Y-127453146D01*
X162090000Y-127919670D01*
X162090001Y-127919670D01*
X162556523Y-127453146D01*
X162556523Y-127453145D01*
X162512252Y-127430589D01*
X162347586Y-127377086D01*
X162176571Y-127350000D01*
X162003429Y-127350000D01*
X161832414Y-127377086D01*
X161832411Y-127377086D01*
X161667751Y-127430588D01*
X161667748Y-127430589D01*
X161623475Y-127453146D01*
X160017623Y-127453146D01*
X159972445Y-127430127D01*
X159807701Y-127376598D01*
X159807699Y-127376597D01*
X159807698Y-127376597D01*
X159676271Y-127355781D01*
X159636611Y-127349500D01*
X159463389Y-127349500D01*
X159423728Y-127355781D01*
X159292302Y-127376597D01*
X159127552Y-127430128D01*
X158973211Y-127508768D01*
X158893256Y-127566859D01*
X158833072Y-127610586D01*
X158833070Y-127610588D01*
X158833069Y-127610588D01*
X158710588Y-127733069D01*
X158710588Y-127733070D01*
X158710586Y-127733072D01*
X158666859Y-127793256D01*
X158608768Y-127873211D01*
X158530128Y-128027552D01*
X158476597Y-128192302D01*
X158449500Y-128363389D01*
X158110500Y-128363389D01*
X158083402Y-128192299D01*
X158029873Y-128027555D01*
X157951232Y-127873212D01*
X157849414Y-127733072D01*
X157726928Y-127610586D01*
X157586788Y-127508768D01*
X157432445Y-127430127D01*
X157267701Y-127376598D01*
X157267699Y-127376597D01*
X157267698Y-127376597D01*
X157136271Y-127355781D01*
X157096611Y-127349500D01*
X156923389Y-127349500D01*
X156883728Y-127355781D01*
X156752302Y-127376597D01*
X156587552Y-127430128D01*
X156433211Y-127508768D01*
X156353256Y-127566859D01*
X156293072Y-127610586D01*
X156293070Y-127610588D01*
X156293069Y-127610588D01*
X156170588Y-127733069D01*
X156170588Y-127733070D01*
X156170586Y-127733072D01*
X156126859Y-127793256D01*
X156068768Y-127873211D01*
X155990128Y-128027552D01*
X155936597Y-128192302D01*
X155909500Y-128363389D01*
X155570500Y-128363389D01*
X155543402Y-128192299D01*
X155489873Y-128027555D01*
X155411232Y-127873212D01*
X155309414Y-127733072D01*
X155186928Y-127610586D01*
X155046788Y-127508768D01*
X154892445Y-127430127D01*
X154727701Y-127376598D01*
X154727699Y-127376597D01*
X154727698Y-127376597D01*
X154596271Y-127355781D01*
X154556611Y-127349500D01*
X154383389Y-127349500D01*
X154343728Y-127355781D01*
X154212302Y-127376597D01*
X154047552Y-127430128D01*
X153893211Y-127508768D01*
X153813256Y-127566859D01*
X153753072Y-127610586D01*
X153753070Y-127610588D01*
X153753069Y-127610588D01*
X153630588Y-127733069D01*
X153630588Y-127733070D01*
X153630586Y-127733072D01*
X153586859Y-127793256D01*
X153528768Y-127873211D01*
X153450128Y-128027552D01*
X153396597Y-128192302D01*
X153369500Y-128363389D01*
X153030500Y-128363389D01*
X153003402Y-128192299D01*
X152949873Y-128027555D01*
X152871232Y-127873212D01*
X152769414Y-127733072D01*
X152646928Y-127610586D01*
X152506788Y-127508768D01*
X152352445Y-127430127D01*
X152187701Y-127376598D01*
X152187699Y-127376597D01*
X152187698Y-127376597D01*
X152056271Y-127355781D01*
X152016611Y-127349500D01*
X151843389Y-127349500D01*
X151803728Y-127355781D01*
X151672302Y-127376597D01*
X151507552Y-127430128D01*
X151353211Y-127508768D01*
X151273256Y-127566859D01*
X151213072Y-127610586D01*
X151213070Y-127610588D01*
X151213069Y-127610588D01*
X151090588Y-127733069D01*
X151090588Y-127733070D01*
X151090586Y-127733072D01*
X151046859Y-127793256D01*
X150988768Y-127873211D01*
X150910128Y-128027552D01*
X150856597Y-128192302D01*
X150829500Y-128363389D01*
X150490500Y-128363389D01*
X150463402Y-128192299D01*
X150409873Y-128027555D01*
X150331232Y-127873212D01*
X150229414Y-127733072D01*
X150106928Y-127610586D01*
X149966788Y-127508768D01*
X149812445Y-127430127D01*
X149647701Y-127376598D01*
X149647699Y-127376597D01*
X149647698Y-127376597D01*
X149516271Y-127355781D01*
X149476611Y-127349500D01*
X149303389Y-127349500D01*
X149263728Y-127355781D01*
X149132302Y-127376597D01*
X148967552Y-127430128D01*
X148813211Y-127508768D01*
X148733256Y-127566859D01*
X148673072Y-127610586D01*
X148673070Y-127610588D01*
X148673069Y-127610588D01*
X148550588Y-127733069D01*
X148550588Y-127733070D01*
X148550586Y-127733072D01*
X148506859Y-127793256D01*
X148448768Y-127873211D01*
X148370128Y-128027552D01*
X148316597Y-128192302D01*
X148289500Y-128363389D01*
X147950500Y-128363389D01*
X147923402Y-128192299D01*
X147869873Y-128027555D01*
X147791232Y-127873212D01*
X147689414Y-127733072D01*
X147566928Y-127610586D01*
X147426788Y-127508768D01*
X147272445Y-127430127D01*
X147107701Y-127376598D01*
X147107699Y-127376597D01*
X147107698Y-127376597D01*
X146976271Y-127355781D01*
X146936611Y-127349500D01*
X146763389Y-127349500D01*
X146723728Y-127355781D01*
X146592302Y-127376597D01*
X146427552Y-127430128D01*
X146273211Y-127508768D01*
X146193256Y-127566859D01*
X146133072Y-127610586D01*
X146133070Y-127610588D01*
X146133069Y-127610588D01*
X146010588Y-127733069D01*
X146010588Y-127733070D01*
X146010586Y-127733072D01*
X145966859Y-127793256D01*
X145908768Y-127873211D01*
X145830128Y-128027552D01*
X145776597Y-128192302D01*
X145749500Y-128363389D01*
X145410500Y-128363389D01*
X145383402Y-128192299D01*
X145329873Y-128027555D01*
X145251232Y-127873212D01*
X145149414Y-127733072D01*
X145026928Y-127610586D01*
X144886788Y-127508768D01*
X144732445Y-127430127D01*
X144567701Y-127376598D01*
X144567699Y-127376597D01*
X144567698Y-127376597D01*
X144436271Y-127355781D01*
X144396611Y-127349500D01*
X144223389Y-127349500D01*
X144183728Y-127355781D01*
X144052302Y-127376597D01*
X143887552Y-127430128D01*
X143733211Y-127508768D01*
X143653256Y-127566859D01*
X143593072Y-127610586D01*
X143593070Y-127610588D01*
X143593069Y-127610588D01*
X143470588Y-127733069D01*
X143470588Y-127733070D01*
X143470586Y-127733072D01*
X143426859Y-127793256D01*
X143368768Y-127873211D01*
X143290128Y-128027552D01*
X143236597Y-128192302D01*
X143209500Y-128363389D01*
X142870500Y-128363389D01*
X142843402Y-128192299D01*
X142789873Y-128027555D01*
X142711232Y-127873212D01*
X142609414Y-127733072D01*
X142486928Y-127610586D01*
X142346788Y-127508768D01*
X142192445Y-127430127D01*
X142027701Y-127376598D01*
X142027699Y-127376597D01*
X142027698Y-127376597D01*
X141896271Y-127355781D01*
X141856611Y-127349500D01*
X141683389Y-127349500D01*
X141643728Y-127355781D01*
X141512302Y-127376597D01*
X141347552Y-127430128D01*
X141193211Y-127508768D01*
X141113256Y-127566859D01*
X141053072Y-127610586D01*
X141053070Y-127610588D01*
X141053069Y-127610588D01*
X140930588Y-127733069D01*
X140930588Y-127733070D01*
X140930586Y-127733072D01*
X140886859Y-127793256D01*
X140828768Y-127873211D01*
X140750128Y-128027552D01*
X140696597Y-128192302D01*
X140669500Y-128363389D01*
X140330500Y-128363389D01*
X140303402Y-128192299D01*
X140249873Y-128027555D01*
X140171232Y-127873212D01*
X140069414Y-127733072D01*
X139946928Y-127610586D01*
X139806788Y-127508768D01*
X139652445Y-127430127D01*
X139487701Y-127376598D01*
X139487699Y-127376597D01*
X139487698Y-127376597D01*
X139356271Y-127355781D01*
X139316611Y-127349500D01*
X139143389Y-127349500D01*
X139103728Y-127355781D01*
X138972302Y-127376597D01*
X138807552Y-127430128D01*
X138653211Y-127508768D01*
X138573256Y-127566859D01*
X138513072Y-127610586D01*
X138513070Y-127610588D01*
X138513069Y-127610588D01*
X138390588Y-127733069D01*
X138390588Y-127733070D01*
X138390586Y-127733072D01*
X138346859Y-127793256D01*
X138288768Y-127873211D01*
X138210128Y-128027552D01*
X138156597Y-128192302D01*
X138129500Y-128363389D01*
X137790500Y-128363389D01*
X137763402Y-128192299D01*
X137709873Y-128027555D01*
X137631232Y-127873212D01*
X137529414Y-127733072D01*
X137406928Y-127610586D01*
X137266788Y-127508768D01*
X137112445Y-127430127D01*
X136947701Y-127376598D01*
X136947699Y-127376597D01*
X136947698Y-127376597D01*
X136816271Y-127355781D01*
X136776611Y-127349500D01*
X136603389Y-127349500D01*
X136563728Y-127355781D01*
X136432302Y-127376597D01*
X136267552Y-127430128D01*
X136113211Y-127508768D01*
X136033256Y-127566859D01*
X135973072Y-127610586D01*
X135973070Y-127610588D01*
X135973069Y-127610588D01*
X135850588Y-127733069D01*
X135850588Y-127733070D01*
X135850586Y-127733072D01*
X135806859Y-127793256D01*
X135748768Y-127873211D01*
X135670128Y-128027552D01*
X135616597Y-128192302D01*
X135589500Y-128363389D01*
X135250500Y-128363389D01*
X135223402Y-128192299D01*
X135169873Y-128027555D01*
X135091232Y-127873212D01*
X134989414Y-127733072D01*
X134866928Y-127610586D01*
X134726788Y-127508768D01*
X134572445Y-127430127D01*
X134407701Y-127376598D01*
X134407699Y-127376597D01*
X134407698Y-127376597D01*
X134276271Y-127355781D01*
X134236611Y-127349500D01*
X134063389Y-127349500D01*
X134023728Y-127355781D01*
X133892302Y-127376597D01*
X133727552Y-127430128D01*
X133573211Y-127508768D01*
X133493256Y-127566859D01*
X133433072Y-127610586D01*
X133433070Y-127610588D01*
X133433069Y-127610588D01*
X133310588Y-127733069D01*
X133310588Y-127733070D01*
X133310586Y-127733072D01*
X133266859Y-127793256D01*
X133208768Y-127873211D01*
X133130128Y-128027552D01*
X133076597Y-128192302D01*
X133049500Y-128363389D01*
X132710500Y-128363389D01*
X132683402Y-128192299D01*
X132629873Y-128027555D01*
X132551232Y-127873212D01*
X132449414Y-127733072D01*
X132326928Y-127610586D01*
X132186788Y-127508768D01*
X132032445Y-127430127D01*
X131867701Y-127376598D01*
X131867699Y-127376597D01*
X131867698Y-127376597D01*
X131736271Y-127355781D01*
X131696611Y-127349500D01*
X131523389Y-127349500D01*
X131483728Y-127355781D01*
X131352302Y-127376597D01*
X131187552Y-127430128D01*
X131033211Y-127508768D01*
X130953256Y-127566859D01*
X130893072Y-127610586D01*
X130893070Y-127610588D01*
X130893069Y-127610588D01*
X130770588Y-127733069D01*
X130770588Y-127733070D01*
X130770586Y-127733072D01*
X130726859Y-127793256D01*
X130668768Y-127873211D01*
X130590128Y-128027552D01*
X130536597Y-128192302D01*
X130509500Y-128363389D01*
X130170500Y-128363389D01*
X130170500Y-127575326D01*
X130170500Y-127575323D01*
X130170499Y-127575321D01*
X130155967Y-127502264D01*
X130155966Y-127502260D01*
X130100601Y-127419399D01*
X130017740Y-127364034D01*
X130017739Y-127364033D01*
X130017735Y-127364032D01*
X129944677Y-127349500D01*
X129944674Y-127349500D01*
X128195326Y-127349500D01*
X128195323Y-127349500D01*
X128122264Y-127364032D01*
X128122260Y-127364033D01*
X128039399Y-127419399D01*
X127984033Y-127502260D01*
X127984032Y-127502264D01*
X127969500Y-127575321D01*
X127010500Y-127575321D01*
X127010500Y-124545000D01*
X129248549Y-124545000D01*
X129317433Y-124648092D01*
X129317439Y-124648100D01*
X129421899Y-124752560D01*
X129421903Y-124752563D01*
X129544735Y-124834637D01*
X129544745Y-124834642D01*
X129681232Y-124891177D01*
X129681240Y-124891179D01*
X129825000Y-124919775D01*
X129825000Y-124919774D01*
X130575000Y-124919774D01*
X130718759Y-124891179D01*
X130718767Y-124891177D01*
X130855254Y-124834642D01*
X130855264Y-124834637D01*
X130978096Y-124752563D01*
X130978100Y-124752560D01*
X131082560Y-124648100D01*
X131082566Y-124648092D01*
X131151451Y-124545000D01*
X133178549Y-124545000D01*
X133247433Y-124648092D01*
X133247439Y-124648100D01*
X133351899Y-124752560D01*
X133351903Y-124752563D01*
X133474735Y-124834637D01*
X133474745Y-124834642D01*
X133611232Y-124891177D01*
X133611240Y-124891179D01*
X133756126Y-124919999D01*
X133756129Y-124920000D01*
X134005000Y-124920000D01*
X134755000Y-124920000D01*
X135003871Y-124920000D01*
X135003873Y-124919999D01*
X135148759Y-124891179D01*
X135148767Y-124891177D01*
X135285254Y-124834642D01*
X135285264Y-124834637D01*
X135408096Y-124752563D01*
X135408100Y-124752560D01*
X135512560Y-124648100D01*
X135512566Y-124648092D01*
X135581451Y-124545000D01*
X134755000Y-124545000D01*
X134755000Y-124920000D01*
X134005000Y-124920000D01*
X134005000Y-124545000D01*
X133178549Y-124545000D01*
X131151451Y-124545000D01*
X130575000Y-124545000D01*
X130575000Y-124919774D01*
X129825000Y-124919774D01*
X129825000Y-124545000D01*
X129248549Y-124545000D01*
X127010500Y-124545000D01*
X127010500Y-124130504D01*
X129600000Y-124130504D01*
X129600000Y-124209496D01*
X129620444Y-124285796D01*
X129659940Y-124354205D01*
X129715795Y-124410060D01*
X129784204Y-124449556D01*
X129860504Y-124470000D01*
X130539496Y-124470000D01*
X130615796Y-124449556D01*
X130684205Y-124410060D01*
X130740060Y-124354205D01*
X130779556Y-124285796D01*
X130800000Y-124209496D01*
X130800000Y-124130504D01*
X133530000Y-124130504D01*
X133530000Y-124209496D01*
X133550444Y-124285796D01*
X133589940Y-124354205D01*
X133645795Y-124410060D01*
X133714204Y-124449556D01*
X133790504Y-124470000D01*
X134969496Y-124470000D01*
X135045796Y-124449556D01*
X135114205Y-124410060D01*
X135170060Y-124354205D01*
X135209556Y-124285796D01*
X135230000Y-124209496D01*
X135230000Y-124130504D01*
X135209556Y-124054204D01*
X135170060Y-123985795D01*
X135114205Y-123929940D01*
X135045796Y-123890444D01*
X134969496Y-123870000D01*
X133790504Y-123870000D01*
X133714204Y-123890444D01*
X133645795Y-123929940D01*
X133589940Y-123985795D01*
X133550444Y-124054204D01*
X133530000Y-124130504D01*
X130800000Y-124130504D01*
X130779556Y-124054204D01*
X130740060Y-123985795D01*
X130684205Y-123929940D01*
X130615796Y-123890444D01*
X130539496Y-123870000D01*
X129860504Y-123870000D01*
X129784204Y-123890444D01*
X129715795Y-123929940D01*
X129659940Y-123985795D01*
X129620444Y-124054204D01*
X129600000Y-124130504D01*
X127010500Y-124130504D01*
X127010500Y-123794999D01*
X129248549Y-123794999D01*
X129248549Y-123795000D01*
X129825000Y-123795000D01*
X130575000Y-123795000D01*
X131151451Y-123795000D01*
X131151450Y-123794999D01*
X133178549Y-123794999D01*
X133178549Y-123795000D01*
X134005000Y-123795000D01*
X134755000Y-123795000D01*
X135581451Y-123795000D01*
X135581450Y-123794999D01*
X135512566Y-123691907D01*
X135512560Y-123691899D01*
X135408100Y-123587439D01*
X135408096Y-123587436D01*
X135285264Y-123505362D01*
X135285254Y-123505357D01*
X135148767Y-123448822D01*
X135148759Y-123448820D01*
X135003872Y-123420000D01*
X134755000Y-123420000D01*
X134755000Y-123795000D01*
X134005000Y-123795000D01*
X134005000Y-123386633D01*
X134008382Y-123375115D01*
X134007241Y-123363166D01*
X134018043Y-123342212D01*
X134024685Y-123319594D01*
X134034556Y-123310181D01*
X134039257Y-123301064D01*
X134067000Y-123279246D01*
X134098168Y-123261251D01*
X134113526Y-123252383D01*
X134203365Y-123200515D01*
X134310515Y-123093365D01*
X134386281Y-122962135D01*
X134425500Y-122815766D01*
X134425500Y-122664234D01*
X134386281Y-122517865D01*
X134310515Y-122386635D01*
X134203365Y-122279485D01*
X134112478Y-122227011D01*
X134072136Y-122203719D01*
X133960922Y-122173920D01*
X133925766Y-122164500D01*
X133774234Y-122164500D01*
X133627863Y-122203719D01*
X133496635Y-122279485D01*
X133496632Y-122279487D01*
X133389487Y-122386632D01*
X133389485Y-122386635D01*
X133313719Y-122517863D01*
X133274500Y-122664234D01*
X133274500Y-122815765D01*
X133313719Y-122962136D01*
X133351602Y-123027750D01*
X133389485Y-123093365D01*
X133496635Y-123200515D01*
X133559445Y-123236778D01*
X133577166Y-123247010D01*
X133625382Y-123297577D01*
X133638604Y-123366184D01*
X133612636Y-123431049D01*
X133562620Y-123468958D01*
X133474742Y-123505359D01*
X133474735Y-123505362D01*
X133351903Y-123587436D01*
X133351899Y-123587439D01*
X133247439Y-123691899D01*
X133247433Y-123691907D01*
X133178549Y-123794999D01*
X131151450Y-123794999D01*
X131082566Y-123691907D01*
X131082560Y-123691899D01*
X130978100Y-123587439D01*
X130978096Y-123587436D01*
X130855264Y-123505362D01*
X130855254Y-123505357D01*
X130718765Y-123448821D01*
X130718761Y-123448820D01*
X130575000Y-123420223D01*
X130575000Y-123795000D01*
X129825000Y-123795000D01*
X129825000Y-123420224D01*
X129824999Y-123420223D01*
X129681238Y-123448820D01*
X129681234Y-123448821D01*
X129544745Y-123505357D01*
X129544735Y-123505362D01*
X129421903Y-123587436D01*
X129421899Y-123587439D01*
X129317439Y-123691899D01*
X129317433Y-123691907D01*
X129248549Y-123794999D01*
X127010500Y-123794999D01*
X127010500Y-115905000D01*
X129248549Y-115905000D01*
X129317433Y-116008092D01*
X129317439Y-116008100D01*
X129421899Y-116112560D01*
X129421903Y-116112563D01*
X129544735Y-116194637D01*
X129544745Y-116194642D01*
X129681232Y-116251177D01*
X129681240Y-116251179D01*
X129825000Y-116279775D01*
X129825000Y-116279774D01*
X130575000Y-116279774D01*
X130718759Y-116251179D01*
X130718767Y-116251177D01*
X130855254Y-116194642D01*
X130855264Y-116194637D01*
X130978096Y-116112563D01*
X130978100Y-116112560D01*
X131082560Y-116008100D01*
X131082566Y-116008092D01*
X131151451Y-115905000D01*
X133178549Y-115905000D01*
X133247433Y-116008092D01*
X133247439Y-116008100D01*
X133351899Y-116112560D01*
X133351903Y-116112563D01*
X133474735Y-116194637D01*
X133474744Y-116194642D01*
X133562619Y-116231041D01*
X133617022Y-116274882D01*
X133639087Y-116341176D01*
X133621808Y-116408875D01*
X133577167Y-116452988D01*
X133496641Y-116499480D01*
X133496632Y-116499487D01*
X133389487Y-116606632D01*
X133389485Y-116606635D01*
X133313719Y-116737863D01*
X133286541Y-116839295D01*
X133274500Y-116884234D01*
X133274500Y-117035766D01*
X133286050Y-117078872D01*
X133313719Y-117182136D01*
X133351602Y-117247750D01*
X133389485Y-117313365D01*
X133496635Y-117420515D01*
X133627865Y-117496281D01*
X133774234Y-117535500D01*
X133774236Y-117535500D01*
X133925764Y-117535500D01*
X133925766Y-117535500D01*
X134072135Y-117496281D01*
X134203365Y-117420515D01*
X134310515Y-117313365D01*
X134386281Y-117182135D01*
X134425500Y-117035766D01*
X134425500Y-116884234D01*
X134386281Y-116737865D01*
X134310515Y-116606635D01*
X134203365Y-116499485D01*
X134142506Y-116464347D01*
X134066999Y-116420753D01*
X134018784Y-116370185D01*
X134005000Y-116313366D01*
X134005000Y-116280000D01*
X134755000Y-116280000D01*
X135003871Y-116280000D01*
X135003873Y-116279999D01*
X135148759Y-116251179D01*
X135148767Y-116251177D01*
X135285254Y-116194642D01*
X135285264Y-116194637D01*
X135408096Y-116112563D01*
X135408100Y-116112560D01*
X135512560Y-116008100D01*
X135512566Y-116008092D01*
X135581451Y-115905000D01*
X134755000Y-115905000D01*
X134755000Y-116280000D01*
X134005000Y-116280000D01*
X134005000Y-115905000D01*
X133178549Y-115905000D01*
X131151451Y-115905000D01*
X130575000Y-115905000D01*
X130575000Y-116279774D01*
X129825000Y-116279774D01*
X129825000Y-115905000D01*
X129248549Y-115905000D01*
X127010500Y-115905000D01*
X127010500Y-115490504D01*
X129600000Y-115490504D01*
X129600000Y-115569496D01*
X129620444Y-115645796D01*
X129659940Y-115714205D01*
X129715795Y-115770060D01*
X129784204Y-115809556D01*
X129860504Y-115830000D01*
X130539496Y-115830000D01*
X130615796Y-115809556D01*
X130684205Y-115770060D01*
X130740060Y-115714205D01*
X130779556Y-115645796D01*
X130800000Y-115569496D01*
X130800000Y-115490504D01*
X133530000Y-115490504D01*
X133530000Y-115569496D01*
X133550444Y-115645796D01*
X133589940Y-115714205D01*
X133645795Y-115770060D01*
X133714204Y-115809556D01*
X133790504Y-115830000D01*
X134969496Y-115830000D01*
X135045796Y-115809556D01*
X135114205Y-115770060D01*
X135170060Y-115714205D01*
X135209556Y-115645796D01*
X135230000Y-115569496D01*
X135230000Y-115490504D01*
X135209556Y-115414204D01*
X135170060Y-115345795D01*
X135114205Y-115289940D01*
X135045796Y-115250444D01*
X134969496Y-115230000D01*
X133790504Y-115230000D01*
X133714204Y-115250444D01*
X133645795Y-115289940D01*
X133589940Y-115345795D01*
X133550444Y-115414204D01*
X133530000Y-115490504D01*
X130800000Y-115490504D01*
X130779556Y-115414204D01*
X130740060Y-115345795D01*
X130684205Y-115289940D01*
X130615796Y-115250444D01*
X130539496Y-115230000D01*
X129860504Y-115230000D01*
X129784204Y-115250444D01*
X129715795Y-115289940D01*
X129659940Y-115345795D01*
X129620444Y-115414204D01*
X129600000Y-115490504D01*
X127010500Y-115490504D01*
X127010500Y-115154999D01*
X129248549Y-115154999D01*
X129248549Y-115155000D01*
X129825000Y-115155000D01*
X130575000Y-115155000D01*
X131151451Y-115155000D01*
X131151450Y-115154999D01*
X133178549Y-115154999D01*
X133178549Y-115155000D01*
X134005000Y-115155000D01*
X134755000Y-115155000D01*
X135581451Y-115155000D01*
X135581450Y-115154999D01*
X135512566Y-115051907D01*
X135512560Y-115051899D01*
X135408100Y-114947439D01*
X135408096Y-114947436D01*
X135285264Y-114865362D01*
X135285254Y-114865357D01*
X135148767Y-114808822D01*
X135148759Y-114808820D01*
X135003872Y-114780000D01*
X134755000Y-114780000D01*
X134755000Y-115155000D01*
X134005000Y-115155000D01*
X134005000Y-114780000D01*
X133756128Y-114780000D01*
X133611240Y-114808820D01*
X133611232Y-114808822D01*
X133474745Y-114865357D01*
X133474735Y-114865362D01*
X133351903Y-114947436D01*
X133351899Y-114947439D01*
X133247439Y-115051899D01*
X133247433Y-115051907D01*
X133178549Y-115154999D01*
X131151450Y-115154999D01*
X131082566Y-115051907D01*
X131082560Y-115051899D01*
X130978100Y-114947439D01*
X130978096Y-114947436D01*
X130855264Y-114865362D01*
X130855254Y-114865357D01*
X130718765Y-114808821D01*
X130718761Y-114808820D01*
X130575000Y-114780223D01*
X130575000Y-115155000D01*
X129825000Y-115155000D01*
X129825000Y-114780224D01*
X129824999Y-114780223D01*
X129681238Y-114808820D01*
X129681234Y-114808821D01*
X129544745Y-114865357D01*
X129544735Y-114865362D01*
X129421903Y-114947436D01*
X129421899Y-114947439D01*
X129317439Y-115051899D01*
X129317433Y-115051907D01*
X129248549Y-115154999D01*
X127010500Y-115154999D01*
X127010500Y-113926500D01*
X127030185Y-113859461D01*
X127082989Y-113813706D01*
X127134500Y-113802500D01*
X156620500Y-113802500D01*
X156687539Y-113822185D01*
G37*
G04 #@! TD.AperFunction*
M02*
