%TF.GenerationSoftware,KiCad,Pcbnew,9.0.3*%
%TF.CreationDate,2025-08-03T15:24:19-04:00*%
%TF.ProjectId,CH32V003A4M6,43483332-5630-4303-9341-344d362e6b69,rev?*%
%TF.SameCoordinates,Original*%
%TF.FileFunction,Drillmap*%
%TF.FilePolarity,Positive*%
%FSLAX45Y45*%
G04 Gerber Fmt 4.5, Leading zero omitted, Abs format (unit mm)*
G04 Created by KiCad (PCBNEW 9.0.3) date 2025-08-03 15:24:19*
%MOMM*%
%LPD*%
G01*
G04 APERTURE LIST*
%ADD10C,0.100000*%
%ADD11C,0.200000*%
G04 APERTURE END LIST*
D10*
X12700000Y-11379200D02*
X16892400Y-11379200D01*
X16892400Y-13004800D01*
X12700000Y-13004800D01*
X12700000Y-11379200D01*
D11*
D10*
X13040000Y-12945000D02*
X13070000Y-12975000D01*
X13070000Y-12945000D02*
X13040000Y-12975000D01*
X13275996Y-12933450D02*
X13305996Y-12963450D01*
X13305996Y-12933450D02*
X13275996Y-12963450D01*
X13529692Y-12933450D02*
X13559692Y-12963450D01*
X13559692Y-12933450D02*
X13529692Y-12963450D01*
X13629500Y-11710000D02*
X13659500Y-11740000D01*
X13659500Y-11710000D02*
X13629500Y-11740000D01*
X13629500Y-11770000D02*
X13659500Y-11800000D01*
X13659500Y-11770000D02*
X13629500Y-11800000D01*
X13655000Y-12235000D02*
X13685000Y-12265000D01*
X13685000Y-12235000D02*
X13655000Y-12265000D01*
X13657200Y-12170000D02*
X13687200Y-12200000D01*
X13687200Y-12170000D02*
X13657200Y-12200000D01*
X13783388Y-12933450D02*
X13813388Y-12963450D01*
X13813388Y-12933450D02*
X13783388Y-12963450D01*
X13815000Y-12145000D02*
X13845000Y-12175000D01*
X13845000Y-12145000D02*
X13815000Y-12175000D01*
X13855000Y-12045000D02*
X13885000Y-12075000D01*
X13885000Y-12045000D02*
X13855000Y-12075000D01*
X13863201Y-11633404D02*
X13893201Y-11663404D01*
X13893201Y-11633404D02*
X13863201Y-11663404D01*
X13864193Y-11775000D02*
X13894193Y-11805000D01*
X13894193Y-11775000D02*
X13864193Y-11805000D01*
X13940000Y-12140000D02*
X13970000Y-12170000D01*
X13970000Y-12140000D02*
X13940000Y-12170000D01*
X14015000Y-12050000D02*
X14045000Y-12080000D01*
X14045000Y-12050000D02*
X14015000Y-12080000D01*
X14037083Y-12933450D02*
X14067083Y-12963450D01*
X14067083Y-12933450D02*
X14037083Y-12963450D01*
X14280000Y-12665000D02*
X14310000Y-12695000D01*
X14310000Y-12665000D02*
X14280000Y-12695000D01*
X14290779Y-12933450D02*
X14320779Y-12963450D01*
X14320779Y-12933450D02*
X14290779Y-12963450D01*
X14306149Y-11699782D02*
X14336149Y-11729782D01*
X14336149Y-11699782D02*
X14306149Y-11729782D01*
X14320000Y-11775000D02*
X14350000Y-11805000D01*
X14350000Y-11775000D02*
X14320000Y-11805000D01*
X14450000Y-11420000D02*
X14480000Y-11450000D01*
X14480000Y-11420000D02*
X14450000Y-11450000D01*
X14530000Y-12700000D02*
X14560000Y-12730000D01*
X14560000Y-12700000D02*
X14530000Y-12730000D01*
X14544475Y-12933450D02*
X14574475Y-12963450D01*
X14574475Y-12933450D02*
X14544475Y-12963450D01*
X14600000Y-11415000D02*
X14630000Y-11445000D01*
X14630000Y-11415000D02*
X14600000Y-11445000D01*
X14735000Y-11420000D02*
X14765000Y-11450000D01*
X14765000Y-11420000D02*
X14735000Y-11450000D01*
X14785000Y-12490000D02*
X14815000Y-12520000D01*
X14815000Y-12490000D02*
X14785000Y-12520000D01*
X14798171Y-12933450D02*
X14828171Y-12963450D01*
X14828171Y-12933450D02*
X14798171Y-12963450D01*
X14810000Y-12620000D02*
X14840000Y-12650000D01*
X14840000Y-12620000D02*
X14810000Y-12650000D01*
X14825000Y-11935000D02*
X14855000Y-11965000D01*
X14855000Y-11935000D02*
X14825000Y-11965000D01*
X14830000Y-12035000D02*
X14860000Y-12065000D01*
X14860000Y-12035000D02*
X14830000Y-12065000D01*
X14875000Y-11420000D02*
X14905000Y-11450000D01*
X14905000Y-11420000D02*
X14875000Y-11450000D01*
X14915000Y-11800000D02*
X14945000Y-11830000D01*
X14945000Y-11800000D02*
X14915000Y-11830000D01*
X14920000Y-12620000D02*
X14950000Y-12650000D01*
X14950000Y-12620000D02*
X14920000Y-12650000D01*
X14960000Y-12035000D02*
X14990000Y-12065000D01*
X14990000Y-12035000D02*
X14960000Y-12065000D01*
X14965000Y-11940000D02*
X14995000Y-11970000D01*
X14995000Y-11940000D02*
X14965000Y-11970000D01*
X14975000Y-11765000D02*
X15005000Y-11795000D01*
X15005000Y-11765000D02*
X14975000Y-11795000D01*
X14975000Y-11835000D02*
X15005000Y-11865000D01*
X15005000Y-11835000D02*
X14975000Y-11865000D01*
X14975000Y-12195000D02*
X15005000Y-12225000D01*
X15005000Y-12195000D02*
X14975000Y-12225000D01*
X14990000Y-11680000D02*
X15020000Y-11710000D01*
X15020000Y-11680000D02*
X14990000Y-11710000D01*
X15019648Y-12129385D02*
X15049648Y-12159385D01*
X15049648Y-12129385D02*
X15019648Y-12159385D01*
X15030000Y-11415000D02*
X15060000Y-11445000D01*
X15060000Y-11415000D02*
X15030000Y-11445000D01*
X15051866Y-12933450D02*
X15081866Y-12963450D01*
X15081866Y-12933450D02*
X15051866Y-12963450D01*
X15180000Y-11420000D02*
X15210000Y-11450000D01*
X15210000Y-11420000D02*
X15180000Y-11450000D01*
X15290000Y-11495000D02*
X15320000Y-11525000D01*
X15320000Y-11495000D02*
X15290000Y-11525000D01*
X15305562Y-12933450D02*
X15335562Y-12963450D01*
X15335562Y-12933450D02*
X15305562Y-12963450D01*
X15395000Y-11645000D02*
X15425000Y-11675000D01*
X15425000Y-11645000D02*
X15395000Y-11675000D01*
X15420000Y-11965000D02*
X15450000Y-11995000D01*
X15450000Y-11965000D02*
X15420000Y-11995000D01*
X15490000Y-12070000D02*
X15520000Y-12100000D01*
X15520000Y-12070000D02*
X15490000Y-12100000D01*
X15555000Y-11665000D02*
X15585000Y-11695000D01*
X15585000Y-11665000D02*
X15555000Y-11695000D01*
X15559258Y-12933450D02*
X15589258Y-12963450D01*
X15589258Y-12933450D02*
X15559258Y-12963450D01*
X15560000Y-11965000D02*
X15590000Y-11995000D01*
X15590000Y-11965000D02*
X15560000Y-11995000D01*
X15590000Y-12150000D02*
X15620000Y-12180000D01*
X15620000Y-12150000D02*
X15590000Y-12180000D01*
X15680000Y-12415000D02*
X15710000Y-12445000D01*
X15710000Y-12415000D02*
X15680000Y-12445000D01*
X15812953Y-12933450D02*
X15842953Y-12963450D01*
X15842953Y-12933450D02*
X15812953Y-12963450D01*
X15830000Y-12420000D02*
X15860000Y-12450000D01*
X15860000Y-12420000D02*
X15830000Y-12450000D01*
X15910000Y-12170000D02*
X15940000Y-12200000D01*
X15940000Y-12170000D02*
X15910000Y-12200000D01*
X15915000Y-12280000D02*
X15945000Y-12310000D01*
X15945000Y-12280000D02*
X15915000Y-12310000D01*
X15970000Y-11590000D02*
X16000000Y-11620000D01*
X16000000Y-11590000D02*
X15970000Y-11620000D01*
X15975000Y-11800000D02*
X16005000Y-11830000D01*
X16005000Y-11800000D02*
X15975000Y-11830000D01*
X15975000Y-12025000D02*
X16005000Y-12055000D01*
X16005000Y-12025000D02*
X15975000Y-12055000D01*
X15990000Y-12195000D02*
X16020000Y-12225000D01*
X16020000Y-12195000D02*
X15990000Y-12225000D01*
X16010000Y-12420000D02*
X16040000Y-12450000D01*
X16040000Y-12420000D02*
X16010000Y-12450000D01*
X16060000Y-11910000D02*
X16090000Y-11940000D01*
X16090000Y-11910000D02*
X16060000Y-11940000D01*
X16065000Y-11420000D02*
X16095000Y-11450000D01*
X16095000Y-11420000D02*
X16065000Y-11450000D01*
X16066649Y-12933450D02*
X16096649Y-12963450D01*
X16096649Y-12933450D02*
X16066649Y-12963450D01*
X16075000Y-11690000D02*
X16105000Y-11720000D01*
X16105000Y-11690000D02*
X16075000Y-11720000D01*
X16160000Y-12030000D02*
X16190000Y-12060000D01*
X16190000Y-12030000D02*
X16160000Y-12060000D01*
X16165000Y-11800000D02*
X16195000Y-11830000D01*
X16195000Y-11800000D02*
X16165000Y-11830000D01*
X16180000Y-11585000D02*
X16210000Y-11615000D01*
X16210000Y-11585000D02*
X16180000Y-11615000D01*
X16280000Y-11420000D02*
X16310000Y-11450000D01*
X16310000Y-11420000D02*
X16280000Y-11450000D01*
X16320345Y-12933450D02*
X16350345Y-12963450D01*
X16350345Y-12933450D02*
X16320345Y-12963450D01*
X16330000Y-12150000D02*
X16360000Y-12180000D01*
X16360000Y-12150000D02*
X16330000Y-12180000D01*
X16335000Y-12465000D02*
X16365000Y-12495000D01*
X16365000Y-12465000D02*
X16335000Y-12495000D01*
X16335000Y-12560000D02*
X16365000Y-12590000D01*
X16365000Y-12560000D02*
X16335000Y-12590000D01*
X16340000Y-12370000D02*
X16370000Y-12400000D01*
X16370000Y-12370000D02*
X16340000Y-12400000D01*
X16385000Y-12035000D02*
X16415000Y-12065000D01*
X16415000Y-12035000D02*
X16385000Y-12065000D01*
X16475000Y-11425000D02*
X16505000Y-11455000D01*
X16505000Y-11425000D02*
X16475000Y-11455000D01*
X16567250Y-12027250D02*
X16597250Y-12057250D01*
X16597250Y-12027250D02*
X16567250Y-12057250D01*
X16574040Y-12933450D02*
X16604040Y-12963450D01*
X16604040Y-12933450D02*
X16574040Y-12963450D01*
X16590000Y-11545000D02*
X16620000Y-11575000D01*
X16620000Y-11545000D02*
X16590000Y-11575000D01*
X16590000Y-11740000D02*
X16620000Y-11770000D01*
X16620000Y-11740000D02*
X16590000Y-11770000D01*
X16695000Y-11430000D02*
X16725000Y-11460000D01*
X16725000Y-11430000D02*
X16695000Y-11460000D01*
X16705000Y-11645000D02*
X16735000Y-11675000D01*
X16735000Y-11645000D02*
X16705000Y-11675000D01*
X16805000Y-11730000D02*
X16835000Y-11760000D01*
X16835000Y-11730000D02*
X16805000Y-11760000D01*
X16815000Y-11545000D02*
X16845000Y-11575000D01*
X16845000Y-11545000D02*
X16815000Y-11575000D01*
X13050000Y-11553000D02*
G75*
G02*
X12990000Y-11553000I-30000J0D01*
G01*
X12990000Y-11553000D02*
G75*
G02*
X13050000Y-11553000I30000J0D01*
G01*
X13050000Y-11523000D02*
X12990000Y-11523000D01*
X12990000Y-11583000D02*
G75*
G02*
X12990000Y-11523000I0J30000D01*
G01*
X12990000Y-11583000D02*
X13050000Y-11583000D01*
X13050000Y-11583000D02*
G75*
G03*
X13050000Y-11523000I0J30000D01*
G01*
X13050000Y-12417000D02*
G75*
G02*
X12990000Y-12417000I-30000J0D01*
G01*
X12990000Y-12417000D02*
G75*
G02*
X13050000Y-12417000I30000J0D01*
G01*
X13050000Y-12387000D02*
X12990000Y-12387000D01*
X12990000Y-12447000D02*
G75*
G02*
X12990000Y-12387000I0J30000D01*
G01*
X12990000Y-12447000D02*
X13050000Y-12447000D01*
X13050000Y-12447000D02*
G75*
G03*
X13050000Y-12387000I0J30000D01*
G01*
X13468000Y-11553000D02*
G75*
G02*
X13408000Y-11553000I-30000J0D01*
G01*
X13408000Y-11553000D02*
G75*
G02*
X13468000Y-11553000I30000J0D01*
G01*
X13493000Y-11523000D02*
X13383000Y-11523000D01*
X13383000Y-11583000D02*
G75*
G02*
X13383000Y-11523000I0J30000D01*
G01*
X13383000Y-11583000D02*
X13493000Y-11583000D01*
X13493000Y-11583000D02*
G75*
G03*
X13493000Y-11523000I0J30000D01*
G01*
X13468000Y-12417000D02*
G75*
G02*
X13408000Y-12417000I-30000J0D01*
G01*
X13408000Y-12417000D02*
G75*
G02*
X13468000Y-12417000I30000J0D01*
G01*
X13493000Y-12387000D02*
X13383000Y-12387000D01*
X13383000Y-12447000D02*
G75*
G02*
X13383000Y-12387000I0J30000D01*
G01*
X13383000Y-12447000D02*
X13493000Y-12447000D01*
X13493000Y-12447000D02*
G75*
G03*
X13493000Y-12387000I0J30000D01*
G01*
X12907000Y-12795000D02*
X12907000Y-12895000D01*
X12857000Y-12845000D02*
X12957000Y-12845000D01*
X13161000Y-12795000D02*
X13161000Y-12895000D01*
X13111000Y-12845000D02*
X13211000Y-12845000D01*
X13415000Y-12795000D02*
X13415000Y-12895000D01*
X13365000Y-12845000D02*
X13465000Y-12845000D01*
X13669000Y-12795000D02*
X13669000Y-12895000D01*
X13619000Y-12845000D02*
X13719000Y-12845000D01*
X13923000Y-12795000D02*
X13923000Y-12895000D01*
X13873000Y-12845000D02*
X13973000Y-12845000D01*
X14177000Y-12795000D02*
X14177000Y-12895000D01*
X14127000Y-12845000D02*
X14227000Y-12845000D01*
X14431000Y-12795000D02*
X14431000Y-12895000D01*
X14381000Y-12845000D02*
X14481000Y-12845000D01*
X14685000Y-12795000D02*
X14685000Y-12895000D01*
X14635000Y-12845000D02*
X14735000Y-12845000D01*
X14939000Y-12795000D02*
X14939000Y-12895000D01*
X14889000Y-12845000D02*
X14989000Y-12845000D01*
X15193000Y-12795000D02*
X15193000Y-12895000D01*
X15143000Y-12845000D02*
X15243000Y-12845000D01*
X15447000Y-12795000D02*
X15447000Y-12895000D01*
X15397000Y-12845000D02*
X15497000Y-12845000D01*
X15701000Y-12795000D02*
X15701000Y-12895000D01*
X15651000Y-12845000D02*
X15751000Y-12845000D01*
X15955000Y-12795000D02*
X15955000Y-12895000D01*
X15905000Y-12845000D02*
X16005000Y-12845000D01*
X16209000Y-12795000D02*
X16209000Y-12895000D01*
X16159000Y-12845000D02*
X16259000Y-12845000D01*
X16463000Y-12795000D02*
X16463000Y-12895000D01*
X16413000Y-12845000D02*
X16513000Y-12845000D01*
X16710000Y-11864500D02*
X16710000Y-11964500D01*
X16660000Y-11914500D02*
X16760000Y-11914500D01*
X16710000Y-12118500D02*
X16710000Y-12218500D01*
X16660000Y-12168500D02*
X16760000Y-12168500D01*
X16710000Y-12372500D02*
X16710000Y-12472500D01*
X16660000Y-12422500D02*
X16760000Y-12422500D01*
X16717000Y-12795000D02*
X16717000Y-12895000D01*
X16667000Y-12845000D02*
X16767000Y-12845000D01*
D11*
X12955777Y-13321284D02*
X12955777Y-13121284D01*
X12955777Y-13121284D02*
X13003396Y-13121284D01*
X13003396Y-13121284D02*
X13031967Y-13130808D01*
X13031967Y-13130808D02*
X13051015Y-13149855D01*
X13051015Y-13149855D02*
X13060539Y-13168903D01*
X13060539Y-13168903D02*
X13070062Y-13206998D01*
X13070062Y-13206998D02*
X13070062Y-13235569D01*
X13070062Y-13235569D02*
X13060539Y-13273665D01*
X13060539Y-13273665D02*
X13051015Y-13292712D01*
X13051015Y-13292712D02*
X13031967Y-13311760D01*
X13031967Y-13311760D02*
X13003396Y-13321284D01*
X13003396Y-13321284D02*
X12955777Y-13321284D01*
X13155777Y-13321284D02*
X13155777Y-13187950D01*
X13155777Y-13226046D02*
X13165301Y-13206998D01*
X13165301Y-13206998D02*
X13174824Y-13197474D01*
X13174824Y-13197474D02*
X13193872Y-13187950D01*
X13193872Y-13187950D02*
X13212920Y-13187950D01*
X13279586Y-13321284D02*
X13279586Y-13187950D01*
X13279586Y-13121284D02*
X13270062Y-13130808D01*
X13270062Y-13130808D02*
X13279586Y-13140331D01*
X13279586Y-13140331D02*
X13289110Y-13130808D01*
X13289110Y-13130808D02*
X13279586Y-13121284D01*
X13279586Y-13121284D02*
X13279586Y-13140331D01*
X13403396Y-13321284D02*
X13384348Y-13311760D01*
X13384348Y-13311760D02*
X13374824Y-13292712D01*
X13374824Y-13292712D02*
X13374824Y-13121284D01*
X13508158Y-13321284D02*
X13489110Y-13311760D01*
X13489110Y-13311760D02*
X13479586Y-13292712D01*
X13479586Y-13292712D02*
X13479586Y-13121284D01*
X13736729Y-13321284D02*
X13736729Y-13121284D01*
X13736729Y-13121284D02*
X13803396Y-13264141D01*
X13803396Y-13264141D02*
X13870062Y-13121284D01*
X13870062Y-13121284D02*
X13870062Y-13321284D01*
X14051015Y-13321284D02*
X14051015Y-13216522D01*
X14051015Y-13216522D02*
X14041491Y-13197474D01*
X14041491Y-13197474D02*
X14022443Y-13187950D01*
X14022443Y-13187950D02*
X13984348Y-13187950D01*
X13984348Y-13187950D02*
X13965301Y-13197474D01*
X14051015Y-13311760D02*
X14031967Y-13321284D01*
X14031967Y-13321284D02*
X13984348Y-13321284D01*
X13984348Y-13321284D02*
X13965301Y-13311760D01*
X13965301Y-13311760D02*
X13955777Y-13292712D01*
X13955777Y-13292712D02*
X13955777Y-13273665D01*
X13955777Y-13273665D02*
X13965301Y-13254617D01*
X13965301Y-13254617D02*
X13984348Y-13245093D01*
X13984348Y-13245093D02*
X14031967Y-13245093D01*
X14031967Y-13245093D02*
X14051015Y-13235569D01*
X14146253Y-13187950D02*
X14146253Y-13387950D01*
X14146253Y-13197474D02*
X14165301Y-13187950D01*
X14165301Y-13187950D02*
X14203396Y-13187950D01*
X14203396Y-13187950D02*
X14222443Y-13197474D01*
X14222443Y-13197474D02*
X14231967Y-13206998D01*
X14231967Y-13206998D02*
X14241491Y-13226046D01*
X14241491Y-13226046D02*
X14241491Y-13283188D01*
X14241491Y-13283188D02*
X14231967Y-13302236D01*
X14231967Y-13302236D02*
X14222443Y-13311760D01*
X14222443Y-13311760D02*
X14203396Y-13321284D01*
X14203396Y-13321284D02*
X14165301Y-13321284D01*
X14165301Y-13321284D02*
X14146253Y-13311760D01*
X14327205Y-13302236D02*
X14336729Y-13311760D01*
X14336729Y-13311760D02*
X14327205Y-13321284D01*
X14327205Y-13321284D02*
X14317682Y-13311760D01*
X14317682Y-13311760D02*
X14327205Y-13302236D01*
X14327205Y-13302236D02*
X14327205Y-13321284D01*
X14327205Y-13197474D02*
X14336729Y-13206998D01*
X14336729Y-13206998D02*
X14327205Y-13216522D01*
X14327205Y-13216522D02*
X14317682Y-13206998D01*
X14317682Y-13206998D02*
X14327205Y-13197474D01*
X14327205Y-13197474D02*
X14327205Y-13216522D01*
D10*
X12665000Y-13634800D02*
X12695000Y-13664800D01*
X12695000Y-13634800D02*
X12665000Y-13664800D01*
D11*
X12993872Y-13541284D02*
X13012920Y-13541284D01*
X13012920Y-13541284D02*
X13031967Y-13550808D01*
X13031967Y-13550808D02*
X13041491Y-13560331D01*
X13041491Y-13560331D02*
X13051015Y-13579379D01*
X13051015Y-13579379D02*
X13060539Y-13617474D01*
X13060539Y-13617474D02*
X13060539Y-13665093D01*
X13060539Y-13665093D02*
X13051015Y-13703188D01*
X13051015Y-13703188D02*
X13041491Y-13722236D01*
X13041491Y-13722236D02*
X13031967Y-13731760D01*
X13031967Y-13731760D02*
X13012920Y-13741284D01*
X13012920Y-13741284D02*
X12993872Y-13741284D01*
X12993872Y-13741284D02*
X12974824Y-13731760D01*
X12974824Y-13731760D02*
X12965301Y-13722236D01*
X12965301Y-13722236D02*
X12955777Y-13703188D01*
X12955777Y-13703188D02*
X12946253Y-13665093D01*
X12946253Y-13665093D02*
X12946253Y-13617474D01*
X12946253Y-13617474D02*
X12955777Y-13579379D01*
X12955777Y-13579379D02*
X12965301Y-13560331D01*
X12965301Y-13560331D02*
X12974824Y-13550808D01*
X12974824Y-13550808D02*
X12993872Y-13541284D01*
X13146253Y-13722236D02*
X13155777Y-13731760D01*
X13155777Y-13731760D02*
X13146253Y-13741284D01*
X13146253Y-13741284D02*
X13136729Y-13731760D01*
X13136729Y-13731760D02*
X13146253Y-13722236D01*
X13146253Y-13722236D02*
X13146253Y-13741284D01*
X13222443Y-13541284D02*
X13346253Y-13541284D01*
X13346253Y-13541284D02*
X13279586Y-13617474D01*
X13279586Y-13617474D02*
X13308158Y-13617474D01*
X13308158Y-13617474D02*
X13327205Y-13626998D01*
X13327205Y-13626998D02*
X13336729Y-13636522D01*
X13336729Y-13636522D02*
X13346253Y-13655569D01*
X13346253Y-13655569D02*
X13346253Y-13703188D01*
X13346253Y-13703188D02*
X13336729Y-13722236D01*
X13336729Y-13722236D02*
X13327205Y-13731760D01*
X13327205Y-13731760D02*
X13308158Y-13741284D01*
X13308158Y-13741284D02*
X13251015Y-13741284D01*
X13251015Y-13741284D02*
X13231967Y-13731760D01*
X13231967Y-13731760D02*
X13222443Y-13722236D01*
X13470062Y-13541284D02*
X13489110Y-13541284D01*
X13489110Y-13541284D02*
X13508158Y-13550808D01*
X13508158Y-13550808D02*
X13517682Y-13560331D01*
X13517682Y-13560331D02*
X13527205Y-13579379D01*
X13527205Y-13579379D02*
X13536729Y-13617474D01*
X13536729Y-13617474D02*
X13536729Y-13665093D01*
X13536729Y-13665093D02*
X13527205Y-13703188D01*
X13527205Y-13703188D02*
X13517682Y-13722236D01*
X13517682Y-13722236D02*
X13508158Y-13731760D01*
X13508158Y-13731760D02*
X13489110Y-13741284D01*
X13489110Y-13741284D02*
X13470062Y-13741284D01*
X13470062Y-13741284D02*
X13451015Y-13731760D01*
X13451015Y-13731760D02*
X13441491Y-13722236D01*
X13441491Y-13722236D02*
X13431967Y-13703188D01*
X13431967Y-13703188D02*
X13422443Y-13665093D01*
X13422443Y-13665093D02*
X13422443Y-13617474D01*
X13422443Y-13617474D02*
X13431967Y-13579379D01*
X13431967Y-13579379D02*
X13441491Y-13560331D01*
X13441491Y-13560331D02*
X13451015Y-13550808D01*
X13451015Y-13550808D02*
X13470062Y-13541284D01*
X13660539Y-13541284D02*
X13679586Y-13541284D01*
X13679586Y-13541284D02*
X13698634Y-13550808D01*
X13698634Y-13550808D02*
X13708158Y-13560331D01*
X13708158Y-13560331D02*
X13717682Y-13579379D01*
X13717682Y-13579379D02*
X13727205Y-13617474D01*
X13727205Y-13617474D02*
X13727205Y-13665093D01*
X13727205Y-13665093D02*
X13717682Y-13703188D01*
X13717682Y-13703188D02*
X13708158Y-13722236D01*
X13708158Y-13722236D02*
X13698634Y-13731760D01*
X13698634Y-13731760D02*
X13679586Y-13741284D01*
X13679586Y-13741284D02*
X13660539Y-13741284D01*
X13660539Y-13741284D02*
X13641491Y-13731760D01*
X13641491Y-13731760D02*
X13631967Y-13722236D01*
X13631967Y-13722236D02*
X13622443Y-13703188D01*
X13622443Y-13703188D02*
X13612920Y-13665093D01*
X13612920Y-13665093D02*
X13612920Y-13617474D01*
X13612920Y-13617474D02*
X13622443Y-13579379D01*
X13622443Y-13579379D02*
X13631967Y-13560331D01*
X13631967Y-13560331D02*
X13641491Y-13550808D01*
X13641491Y-13550808D02*
X13660539Y-13541284D01*
X13812920Y-13741284D02*
X13812920Y-13607950D01*
X13812920Y-13626998D02*
X13822443Y-13617474D01*
X13822443Y-13617474D02*
X13841491Y-13607950D01*
X13841491Y-13607950D02*
X13870063Y-13607950D01*
X13870063Y-13607950D02*
X13889110Y-13617474D01*
X13889110Y-13617474D02*
X13898634Y-13636522D01*
X13898634Y-13636522D02*
X13898634Y-13741284D01*
X13898634Y-13636522D02*
X13908158Y-13617474D01*
X13908158Y-13617474D02*
X13927205Y-13607950D01*
X13927205Y-13607950D02*
X13955777Y-13607950D01*
X13955777Y-13607950D02*
X13974824Y-13617474D01*
X13974824Y-13617474D02*
X13984348Y-13636522D01*
X13984348Y-13636522D02*
X13984348Y-13741284D01*
X14079586Y-13741284D02*
X14079586Y-13607950D01*
X14079586Y-13626998D02*
X14089110Y-13617474D01*
X14089110Y-13617474D02*
X14108158Y-13607950D01*
X14108158Y-13607950D02*
X14136729Y-13607950D01*
X14136729Y-13607950D02*
X14155777Y-13617474D01*
X14155777Y-13617474D02*
X14165301Y-13636522D01*
X14165301Y-13636522D02*
X14165301Y-13741284D01*
X14165301Y-13636522D02*
X14174824Y-13617474D01*
X14174824Y-13617474D02*
X14193872Y-13607950D01*
X14193872Y-13607950D02*
X14222443Y-13607950D01*
X14222443Y-13607950D02*
X14241491Y-13617474D01*
X14241491Y-13617474D02*
X14251015Y-13636522D01*
X14251015Y-13636522D02*
X14251015Y-13741284D01*
X14641491Y-13531760D02*
X14470063Y-13788903D01*
X14898634Y-13541284D02*
X14917682Y-13541284D01*
X14917682Y-13541284D02*
X14936729Y-13550808D01*
X14936729Y-13550808D02*
X14946253Y-13560331D01*
X14946253Y-13560331D02*
X14955777Y-13579379D01*
X14955777Y-13579379D02*
X14965301Y-13617474D01*
X14965301Y-13617474D02*
X14965301Y-13665093D01*
X14965301Y-13665093D02*
X14955777Y-13703188D01*
X14955777Y-13703188D02*
X14946253Y-13722236D01*
X14946253Y-13722236D02*
X14936729Y-13731760D01*
X14936729Y-13731760D02*
X14917682Y-13741284D01*
X14917682Y-13741284D02*
X14898634Y-13741284D01*
X14898634Y-13741284D02*
X14879586Y-13731760D01*
X14879586Y-13731760D02*
X14870063Y-13722236D01*
X14870063Y-13722236D02*
X14860539Y-13703188D01*
X14860539Y-13703188D02*
X14851015Y-13665093D01*
X14851015Y-13665093D02*
X14851015Y-13617474D01*
X14851015Y-13617474D02*
X14860539Y-13579379D01*
X14860539Y-13579379D02*
X14870063Y-13560331D01*
X14870063Y-13560331D02*
X14879586Y-13550808D01*
X14879586Y-13550808D02*
X14898634Y-13541284D01*
X15051015Y-13722236D02*
X15060539Y-13731760D01*
X15060539Y-13731760D02*
X15051015Y-13741284D01*
X15051015Y-13741284D02*
X15041491Y-13731760D01*
X15041491Y-13731760D02*
X15051015Y-13722236D01*
X15051015Y-13722236D02*
X15051015Y-13741284D01*
X15184348Y-13541284D02*
X15203396Y-13541284D01*
X15203396Y-13541284D02*
X15222444Y-13550808D01*
X15222444Y-13550808D02*
X15231967Y-13560331D01*
X15231967Y-13560331D02*
X15241491Y-13579379D01*
X15241491Y-13579379D02*
X15251015Y-13617474D01*
X15251015Y-13617474D02*
X15251015Y-13665093D01*
X15251015Y-13665093D02*
X15241491Y-13703188D01*
X15241491Y-13703188D02*
X15231967Y-13722236D01*
X15231967Y-13722236D02*
X15222444Y-13731760D01*
X15222444Y-13731760D02*
X15203396Y-13741284D01*
X15203396Y-13741284D02*
X15184348Y-13741284D01*
X15184348Y-13741284D02*
X15165301Y-13731760D01*
X15165301Y-13731760D02*
X15155777Y-13722236D01*
X15155777Y-13722236D02*
X15146253Y-13703188D01*
X15146253Y-13703188D02*
X15136729Y-13665093D01*
X15136729Y-13665093D02*
X15136729Y-13617474D01*
X15136729Y-13617474D02*
X15146253Y-13579379D01*
X15146253Y-13579379D02*
X15155777Y-13560331D01*
X15155777Y-13560331D02*
X15165301Y-13550808D01*
X15165301Y-13550808D02*
X15184348Y-13541284D01*
X15441491Y-13741284D02*
X15327206Y-13741284D01*
X15384348Y-13741284D02*
X15384348Y-13541284D01*
X15384348Y-13541284D02*
X15365301Y-13569855D01*
X15365301Y-13569855D02*
X15346253Y-13588903D01*
X15346253Y-13588903D02*
X15327206Y-13598427D01*
X15631967Y-13741284D02*
X15517682Y-13741284D01*
X15574825Y-13741284D02*
X15574825Y-13541284D01*
X15574825Y-13541284D02*
X15555777Y-13569855D01*
X15555777Y-13569855D02*
X15536729Y-13588903D01*
X15536729Y-13588903D02*
X15517682Y-13598427D01*
X15746253Y-13626998D02*
X15727206Y-13617474D01*
X15727206Y-13617474D02*
X15717682Y-13607950D01*
X15717682Y-13607950D02*
X15708158Y-13588903D01*
X15708158Y-13588903D02*
X15708158Y-13579379D01*
X15708158Y-13579379D02*
X15717682Y-13560331D01*
X15717682Y-13560331D02*
X15727206Y-13550808D01*
X15727206Y-13550808D02*
X15746253Y-13541284D01*
X15746253Y-13541284D02*
X15784348Y-13541284D01*
X15784348Y-13541284D02*
X15803396Y-13550808D01*
X15803396Y-13550808D02*
X15812920Y-13560331D01*
X15812920Y-13560331D02*
X15822444Y-13579379D01*
X15822444Y-13579379D02*
X15822444Y-13588903D01*
X15822444Y-13588903D02*
X15812920Y-13607950D01*
X15812920Y-13607950D02*
X15803396Y-13617474D01*
X15803396Y-13617474D02*
X15784348Y-13626998D01*
X15784348Y-13626998D02*
X15746253Y-13626998D01*
X15746253Y-13626998D02*
X15727206Y-13636522D01*
X15727206Y-13636522D02*
X15717682Y-13646046D01*
X15717682Y-13646046D02*
X15708158Y-13665093D01*
X15708158Y-13665093D02*
X15708158Y-13703188D01*
X15708158Y-13703188D02*
X15717682Y-13722236D01*
X15717682Y-13722236D02*
X15727206Y-13731760D01*
X15727206Y-13731760D02*
X15746253Y-13741284D01*
X15746253Y-13741284D02*
X15784348Y-13741284D01*
X15784348Y-13741284D02*
X15803396Y-13731760D01*
X15803396Y-13731760D02*
X15812920Y-13722236D01*
X15812920Y-13722236D02*
X15822444Y-13703188D01*
X15822444Y-13703188D02*
X15822444Y-13665093D01*
X15822444Y-13665093D02*
X15812920Y-13646046D01*
X15812920Y-13646046D02*
X15803396Y-13636522D01*
X15803396Y-13636522D02*
X15784348Y-13626998D01*
X15898634Y-13541284D02*
X15898634Y-13579379D01*
X15974825Y-13541284D02*
X15974825Y-13579379D01*
X16270063Y-13817474D02*
X16260539Y-13807950D01*
X16260539Y-13807950D02*
X16241491Y-13779379D01*
X16241491Y-13779379D02*
X16231968Y-13760331D01*
X16231968Y-13760331D02*
X16222444Y-13731760D01*
X16222444Y-13731760D02*
X16212920Y-13684141D01*
X16212920Y-13684141D02*
X16212920Y-13646046D01*
X16212920Y-13646046D02*
X16222444Y-13598427D01*
X16222444Y-13598427D02*
X16231968Y-13569855D01*
X16231968Y-13569855D02*
X16241491Y-13550808D01*
X16241491Y-13550808D02*
X16260539Y-13522236D01*
X16260539Y-13522236D02*
X16270063Y-13512712D01*
X16374825Y-13626998D02*
X16355777Y-13617474D01*
X16355777Y-13617474D02*
X16346253Y-13607950D01*
X16346253Y-13607950D02*
X16336729Y-13588903D01*
X16336729Y-13588903D02*
X16336729Y-13579379D01*
X16336729Y-13579379D02*
X16346253Y-13560331D01*
X16346253Y-13560331D02*
X16355777Y-13550808D01*
X16355777Y-13550808D02*
X16374825Y-13541284D01*
X16374825Y-13541284D02*
X16412920Y-13541284D01*
X16412920Y-13541284D02*
X16431968Y-13550808D01*
X16431968Y-13550808D02*
X16441491Y-13560331D01*
X16441491Y-13560331D02*
X16451015Y-13579379D01*
X16451015Y-13579379D02*
X16451015Y-13588903D01*
X16451015Y-13588903D02*
X16441491Y-13607950D01*
X16441491Y-13607950D02*
X16431968Y-13617474D01*
X16431968Y-13617474D02*
X16412920Y-13626998D01*
X16412920Y-13626998D02*
X16374825Y-13626998D01*
X16374825Y-13626998D02*
X16355777Y-13636522D01*
X16355777Y-13636522D02*
X16346253Y-13646046D01*
X16346253Y-13646046D02*
X16336729Y-13665093D01*
X16336729Y-13665093D02*
X16336729Y-13703188D01*
X16336729Y-13703188D02*
X16346253Y-13722236D01*
X16346253Y-13722236D02*
X16355777Y-13731760D01*
X16355777Y-13731760D02*
X16374825Y-13741284D01*
X16374825Y-13741284D02*
X16412920Y-13741284D01*
X16412920Y-13741284D02*
X16431968Y-13731760D01*
X16431968Y-13731760D02*
X16441491Y-13722236D01*
X16441491Y-13722236D02*
X16451015Y-13703188D01*
X16451015Y-13703188D02*
X16451015Y-13665093D01*
X16451015Y-13665093D02*
X16441491Y-13646046D01*
X16441491Y-13646046D02*
X16431968Y-13636522D01*
X16431968Y-13636522D02*
X16412920Y-13626998D01*
X16622444Y-13607950D02*
X16622444Y-13741284D01*
X16574825Y-13531760D02*
X16527206Y-13674617D01*
X16527206Y-13674617D02*
X16651015Y-13674617D01*
X16879587Y-13741284D02*
X16879587Y-13541284D01*
X16965301Y-13741284D02*
X16965301Y-13636522D01*
X16965301Y-13636522D02*
X16955777Y-13617474D01*
X16955777Y-13617474D02*
X16936730Y-13607950D01*
X16936730Y-13607950D02*
X16908158Y-13607950D01*
X16908158Y-13607950D02*
X16889111Y-13617474D01*
X16889111Y-13617474D02*
X16879587Y-13626998D01*
X17089111Y-13741284D02*
X17070063Y-13731760D01*
X17070063Y-13731760D02*
X17060539Y-13722236D01*
X17060539Y-13722236D02*
X17051015Y-13703188D01*
X17051015Y-13703188D02*
X17051015Y-13646046D01*
X17051015Y-13646046D02*
X17060539Y-13626998D01*
X17060539Y-13626998D02*
X17070063Y-13617474D01*
X17070063Y-13617474D02*
X17089111Y-13607950D01*
X17089111Y-13607950D02*
X17117682Y-13607950D01*
X17117682Y-13607950D02*
X17136730Y-13617474D01*
X17136730Y-13617474D02*
X17146253Y-13626998D01*
X17146253Y-13626998D02*
X17155777Y-13646046D01*
X17155777Y-13646046D02*
X17155777Y-13703188D01*
X17155777Y-13703188D02*
X17146253Y-13722236D01*
X17146253Y-13722236D02*
X17136730Y-13731760D01*
X17136730Y-13731760D02*
X17117682Y-13741284D01*
X17117682Y-13741284D02*
X17089111Y-13741284D01*
X17270063Y-13741284D02*
X17251015Y-13731760D01*
X17251015Y-13731760D02*
X17241492Y-13712712D01*
X17241492Y-13712712D02*
X17241492Y-13541284D01*
X17422444Y-13731760D02*
X17403396Y-13741284D01*
X17403396Y-13741284D02*
X17365301Y-13741284D01*
X17365301Y-13741284D02*
X17346253Y-13731760D01*
X17346253Y-13731760D02*
X17336730Y-13712712D01*
X17336730Y-13712712D02*
X17336730Y-13636522D01*
X17336730Y-13636522D02*
X17346253Y-13617474D01*
X17346253Y-13617474D02*
X17365301Y-13607950D01*
X17365301Y-13607950D02*
X17403396Y-13607950D01*
X17403396Y-13607950D02*
X17422444Y-13617474D01*
X17422444Y-13617474D02*
X17431968Y-13636522D01*
X17431968Y-13636522D02*
X17431968Y-13655569D01*
X17431968Y-13655569D02*
X17336730Y-13674617D01*
X17508158Y-13731760D02*
X17527206Y-13741284D01*
X17527206Y-13741284D02*
X17565301Y-13741284D01*
X17565301Y-13741284D02*
X17584349Y-13731760D01*
X17584349Y-13731760D02*
X17593873Y-13712712D01*
X17593873Y-13712712D02*
X17593873Y-13703188D01*
X17593873Y-13703188D02*
X17584349Y-13684141D01*
X17584349Y-13684141D02*
X17565301Y-13674617D01*
X17565301Y-13674617D02*
X17536730Y-13674617D01*
X17536730Y-13674617D02*
X17517682Y-13665093D01*
X17517682Y-13665093D02*
X17508158Y-13646046D01*
X17508158Y-13646046D02*
X17508158Y-13636522D01*
X17508158Y-13636522D02*
X17517682Y-13617474D01*
X17517682Y-13617474D02*
X17536730Y-13607950D01*
X17536730Y-13607950D02*
X17565301Y-13607950D01*
X17565301Y-13607950D02*
X17584349Y-13617474D01*
X17660539Y-13817474D02*
X17670063Y-13807950D01*
X17670063Y-13807950D02*
X17689111Y-13779379D01*
X17689111Y-13779379D02*
X17698634Y-13760331D01*
X17698634Y-13760331D02*
X17708158Y-13731760D01*
X17708158Y-13731760D02*
X17717682Y-13684141D01*
X17717682Y-13684141D02*
X17717682Y-13646046D01*
X17717682Y-13646046D02*
X17708158Y-13598427D01*
X17708158Y-13598427D02*
X17698634Y-13569855D01*
X17698634Y-13569855D02*
X17689111Y-13550808D01*
X17689111Y-13550808D02*
X17670063Y-13522236D01*
X17670063Y-13522236D02*
X17660539Y-13512712D01*
D10*
X12695000Y-13913800D02*
G75*
G02*
X12635000Y-13913800I-30000J0D01*
G01*
X12635000Y-13913800D02*
G75*
G02*
X12695000Y-13913800I30000J0D01*
G01*
D11*
X12993872Y-13805284D02*
X13012920Y-13805284D01*
X13012920Y-13805284D02*
X13031967Y-13814808D01*
X13031967Y-13814808D02*
X13041491Y-13824331D01*
X13041491Y-13824331D02*
X13051015Y-13843379D01*
X13051015Y-13843379D02*
X13060539Y-13881474D01*
X13060539Y-13881474D02*
X13060539Y-13929093D01*
X13060539Y-13929093D02*
X13051015Y-13967188D01*
X13051015Y-13967188D02*
X13041491Y-13986236D01*
X13041491Y-13986236D02*
X13031967Y-13995760D01*
X13031967Y-13995760D02*
X13012920Y-14005284D01*
X13012920Y-14005284D02*
X12993872Y-14005284D01*
X12993872Y-14005284D02*
X12974824Y-13995760D01*
X12974824Y-13995760D02*
X12965301Y-13986236D01*
X12965301Y-13986236D02*
X12955777Y-13967188D01*
X12955777Y-13967188D02*
X12946253Y-13929093D01*
X12946253Y-13929093D02*
X12946253Y-13881474D01*
X12946253Y-13881474D02*
X12955777Y-13843379D01*
X12955777Y-13843379D02*
X12965301Y-13824331D01*
X12965301Y-13824331D02*
X12974824Y-13814808D01*
X12974824Y-13814808D02*
X12993872Y-13805284D01*
X13146253Y-13986236D02*
X13155777Y-13995760D01*
X13155777Y-13995760D02*
X13146253Y-14005284D01*
X13146253Y-14005284D02*
X13136729Y-13995760D01*
X13136729Y-13995760D02*
X13146253Y-13986236D01*
X13146253Y-13986236D02*
X13146253Y-14005284D01*
X13327205Y-13805284D02*
X13289110Y-13805284D01*
X13289110Y-13805284D02*
X13270062Y-13814808D01*
X13270062Y-13814808D02*
X13260539Y-13824331D01*
X13260539Y-13824331D02*
X13241491Y-13852903D01*
X13241491Y-13852903D02*
X13231967Y-13890998D01*
X13231967Y-13890998D02*
X13231967Y-13967188D01*
X13231967Y-13967188D02*
X13241491Y-13986236D01*
X13241491Y-13986236D02*
X13251015Y-13995760D01*
X13251015Y-13995760D02*
X13270062Y-14005284D01*
X13270062Y-14005284D02*
X13308158Y-14005284D01*
X13308158Y-14005284D02*
X13327205Y-13995760D01*
X13327205Y-13995760D02*
X13336729Y-13986236D01*
X13336729Y-13986236D02*
X13346253Y-13967188D01*
X13346253Y-13967188D02*
X13346253Y-13919569D01*
X13346253Y-13919569D02*
X13336729Y-13900522D01*
X13336729Y-13900522D02*
X13327205Y-13890998D01*
X13327205Y-13890998D02*
X13308158Y-13881474D01*
X13308158Y-13881474D02*
X13270062Y-13881474D01*
X13270062Y-13881474D02*
X13251015Y-13890998D01*
X13251015Y-13890998D02*
X13241491Y-13900522D01*
X13241491Y-13900522D02*
X13231967Y-13919569D01*
X13470062Y-13805284D02*
X13489110Y-13805284D01*
X13489110Y-13805284D02*
X13508158Y-13814808D01*
X13508158Y-13814808D02*
X13517682Y-13824331D01*
X13517682Y-13824331D02*
X13527205Y-13843379D01*
X13527205Y-13843379D02*
X13536729Y-13881474D01*
X13536729Y-13881474D02*
X13536729Y-13929093D01*
X13536729Y-13929093D02*
X13527205Y-13967188D01*
X13527205Y-13967188D02*
X13517682Y-13986236D01*
X13517682Y-13986236D02*
X13508158Y-13995760D01*
X13508158Y-13995760D02*
X13489110Y-14005284D01*
X13489110Y-14005284D02*
X13470062Y-14005284D01*
X13470062Y-14005284D02*
X13451015Y-13995760D01*
X13451015Y-13995760D02*
X13441491Y-13986236D01*
X13441491Y-13986236D02*
X13431967Y-13967188D01*
X13431967Y-13967188D02*
X13422443Y-13929093D01*
X13422443Y-13929093D02*
X13422443Y-13881474D01*
X13422443Y-13881474D02*
X13431967Y-13843379D01*
X13431967Y-13843379D02*
X13441491Y-13824331D01*
X13441491Y-13824331D02*
X13451015Y-13814808D01*
X13451015Y-13814808D02*
X13470062Y-13805284D01*
X13660539Y-13805284D02*
X13679586Y-13805284D01*
X13679586Y-13805284D02*
X13698634Y-13814808D01*
X13698634Y-13814808D02*
X13708158Y-13824331D01*
X13708158Y-13824331D02*
X13717682Y-13843379D01*
X13717682Y-13843379D02*
X13727205Y-13881474D01*
X13727205Y-13881474D02*
X13727205Y-13929093D01*
X13727205Y-13929093D02*
X13717682Y-13967188D01*
X13717682Y-13967188D02*
X13708158Y-13986236D01*
X13708158Y-13986236D02*
X13698634Y-13995760D01*
X13698634Y-13995760D02*
X13679586Y-14005284D01*
X13679586Y-14005284D02*
X13660539Y-14005284D01*
X13660539Y-14005284D02*
X13641491Y-13995760D01*
X13641491Y-13995760D02*
X13631967Y-13986236D01*
X13631967Y-13986236D02*
X13622443Y-13967188D01*
X13622443Y-13967188D02*
X13612920Y-13929093D01*
X13612920Y-13929093D02*
X13612920Y-13881474D01*
X13612920Y-13881474D02*
X13622443Y-13843379D01*
X13622443Y-13843379D02*
X13631967Y-13824331D01*
X13631967Y-13824331D02*
X13641491Y-13814808D01*
X13641491Y-13814808D02*
X13660539Y-13805284D01*
X13812920Y-14005284D02*
X13812920Y-13871950D01*
X13812920Y-13890998D02*
X13822443Y-13881474D01*
X13822443Y-13881474D02*
X13841491Y-13871950D01*
X13841491Y-13871950D02*
X13870063Y-13871950D01*
X13870063Y-13871950D02*
X13889110Y-13881474D01*
X13889110Y-13881474D02*
X13898634Y-13900522D01*
X13898634Y-13900522D02*
X13898634Y-14005284D01*
X13898634Y-13900522D02*
X13908158Y-13881474D01*
X13908158Y-13881474D02*
X13927205Y-13871950D01*
X13927205Y-13871950D02*
X13955777Y-13871950D01*
X13955777Y-13871950D02*
X13974824Y-13881474D01*
X13974824Y-13881474D02*
X13984348Y-13900522D01*
X13984348Y-13900522D02*
X13984348Y-14005284D01*
X14079586Y-14005284D02*
X14079586Y-13871950D01*
X14079586Y-13890998D02*
X14089110Y-13881474D01*
X14089110Y-13881474D02*
X14108158Y-13871950D01*
X14108158Y-13871950D02*
X14136729Y-13871950D01*
X14136729Y-13871950D02*
X14155777Y-13881474D01*
X14155777Y-13881474D02*
X14165301Y-13900522D01*
X14165301Y-13900522D02*
X14165301Y-14005284D01*
X14165301Y-13900522D02*
X14174824Y-13881474D01*
X14174824Y-13881474D02*
X14193872Y-13871950D01*
X14193872Y-13871950D02*
X14222443Y-13871950D01*
X14222443Y-13871950D02*
X14241491Y-13881474D01*
X14241491Y-13881474D02*
X14251015Y-13900522D01*
X14251015Y-13900522D02*
X14251015Y-14005284D01*
X14641491Y-13795760D02*
X14470063Y-14052903D01*
X14898634Y-13805284D02*
X14917682Y-13805284D01*
X14917682Y-13805284D02*
X14936729Y-13814808D01*
X14936729Y-13814808D02*
X14946253Y-13824331D01*
X14946253Y-13824331D02*
X14955777Y-13843379D01*
X14955777Y-13843379D02*
X14965301Y-13881474D01*
X14965301Y-13881474D02*
X14965301Y-13929093D01*
X14965301Y-13929093D02*
X14955777Y-13967188D01*
X14955777Y-13967188D02*
X14946253Y-13986236D01*
X14946253Y-13986236D02*
X14936729Y-13995760D01*
X14936729Y-13995760D02*
X14917682Y-14005284D01*
X14917682Y-14005284D02*
X14898634Y-14005284D01*
X14898634Y-14005284D02*
X14879586Y-13995760D01*
X14879586Y-13995760D02*
X14870063Y-13986236D01*
X14870063Y-13986236D02*
X14860539Y-13967188D01*
X14860539Y-13967188D02*
X14851015Y-13929093D01*
X14851015Y-13929093D02*
X14851015Y-13881474D01*
X14851015Y-13881474D02*
X14860539Y-13843379D01*
X14860539Y-13843379D02*
X14870063Y-13824331D01*
X14870063Y-13824331D02*
X14879586Y-13814808D01*
X14879586Y-13814808D02*
X14898634Y-13805284D01*
X15051015Y-13986236D02*
X15060539Y-13995760D01*
X15060539Y-13995760D02*
X15051015Y-14005284D01*
X15051015Y-14005284D02*
X15041491Y-13995760D01*
X15041491Y-13995760D02*
X15051015Y-13986236D01*
X15051015Y-13986236D02*
X15051015Y-14005284D01*
X15184348Y-13805284D02*
X15203396Y-13805284D01*
X15203396Y-13805284D02*
X15222444Y-13814808D01*
X15222444Y-13814808D02*
X15231967Y-13824331D01*
X15231967Y-13824331D02*
X15241491Y-13843379D01*
X15241491Y-13843379D02*
X15251015Y-13881474D01*
X15251015Y-13881474D02*
X15251015Y-13929093D01*
X15251015Y-13929093D02*
X15241491Y-13967188D01*
X15241491Y-13967188D02*
X15231967Y-13986236D01*
X15231967Y-13986236D02*
X15222444Y-13995760D01*
X15222444Y-13995760D02*
X15203396Y-14005284D01*
X15203396Y-14005284D02*
X15184348Y-14005284D01*
X15184348Y-14005284D02*
X15165301Y-13995760D01*
X15165301Y-13995760D02*
X15155777Y-13986236D01*
X15155777Y-13986236D02*
X15146253Y-13967188D01*
X15146253Y-13967188D02*
X15136729Y-13929093D01*
X15136729Y-13929093D02*
X15136729Y-13881474D01*
X15136729Y-13881474D02*
X15146253Y-13843379D01*
X15146253Y-13843379D02*
X15155777Y-13824331D01*
X15155777Y-13824331D02*
X15165301Y-13814808D01*
X15165301Y-13814808D02*
X15184348Y-13805284D01*
X15327206Y-13824331D02*
X15336729Y-13814808D01*
X15336729Y-13814808D02*
X15355777Y-13805284D01*
X15355777Y-13805284D02*
X15403396Y-13805284D01*
X15403396Y-13805284D02*
X15422444Y-13814808D01*
X15422444Y-13814808D02*
X15431967Y-13824331D01*
X15431967Y-13824331D02*
X15441491Y-13843379D01*
X15441491Y-13843379D02*
X15441491Y-13862427D01*
X15441491Y-13862427D02*
X15431967Y-13890998D01*
X15431967Y-13890998D02*
X15317682Y-14005284D01*
X15317682Y-14005284D02*
X15441491Y-14005284D01*
X15508158Y-13805284D02*
X15631967Y-13805284D01*
X15631967Y-13805284D02*
X15565301Y-13881474D01*
X15565301Y-13881474D02*
X15593872Y-13881474D01*
X15593872Y-13881474D02*
X15612920Y-13890998D01*
X15612920Y-13890998D02*
X15622444Y-13900522D01*
X15622444Y-13900522D02*
X15631967Y-13919569D01*
X15631967Y-13919569D02*
X15631967Y-13967188D01*
X15631967Y-13967188D02*
X15622444Y-13986236D01*
X15622444Y-13986236D02*
X15612920Y-13995760D01*
X15612920Y-13995760D02*
X15593872Y-14005284D01*
X15593872Y-14005284D02*
X15536729Y-14005284D01*
X15536729Y-14005284D02*
X15517682Y-13995760D01*
X15517682Y-13995760D02*
X15508158Y-13986236D01*
X15803396Y-13805284D02*
X15765301Y-13805284D01*
X15765301Y-13805284D02*
X15746253Y-13814808D01*
X15746253Y-13814808D02*
X15736729Y-13824331D01*
X15736729Y-13824331D02*
X15717682Y-13852903D01*
X15717682Y-13852903D02*
X15708158Y-13890998D01*
X15708158Y-13890998D02*
X15708158Y-13967188D01*
X15708158Y-13967188D02*
X15717682Y-13986236D01*
X15717682Y-13986236D02*
X15727206Y-13995760D01*
X15727206Y-13995760D02*
X15746253Y-14005284D01*
X15746253Y-14005284D02*
X15784348Y-14005284D01*
X15784348Y-14005284D02*
X15803396Y-13995760D01*
X15803396Y-13995760D02*
X15812920Y-13986236D01*
X15812920Y-13986236D02*
X15822444Y-13967188D01*
X15822444Y-13967188D02*
X15822444Y-13919569D01*
X15822444Y-13919569D02*
X15812920Y-13900522D01*
X15812920Y-13900522D02*
X15803396Y-13890998D01*
X15803396Y-13890998D02*
X15784348Y-13881474D01*
X15784348Y-13881474D02*
X15746253Y-13881474D01*
X15746253Y-13881474D02*
X15727206Y-13890998D01*
X15727206Y-13890998D02*
X15717682Y-13900522D01*
X15717682Y-13900522D02*
X15708158Y-13919569D01*
X15898634Y-13805284D02*
X15898634Y-13843379D01*
X15974825Y-13805284D02*
X15974825Y-13843379D01*
X16270063Y-14081474D02*
X16260539Y-14071950D01*
X16260539Y-14071950D02*
X16241491Y-14043379D01*
X16241491Y-14043379D02*
X16231968Y-14024331D01*
X16231968Y-14024331D02*
X16222444Y-13995760D01*
X16222444Y-13995760D02*
X16212920Y-13948141D01*
X16212920Y-13948141D02*
X16212920Y-13910046D01*
X16212920Y-13910046D02*
X16222444Y-13862427D01*
X16222444Y-13862427D02*
X16231968Y-13833855D01*
X16231968Y-13833855D02*
X16241491Y-13814808D01*
X16241491Y-13814808D02*
X16260539Y-13786236D01*
X16260539Y-13786236D02*
X16270063Y-13776712D01*
X16384348Y-13805284D02*
X16403396Y-13805284D01*
X16403396Y-13805284D02*
X16422444Y-13814808D01*
X16422444Y-13814808D02*
X16431968Y-13824331D01*
X16431968Y-13824331D02*
X16441491Y-13843379D01*
X16441491Y-13843379D02*
X16451015Y-13881474D01*
X16451015Y-13881474D02*
X16451015Y-13929093D01*
X16451015Y-13929093D02*
X16441491Y-13967188D01*
X16441491Y-13967188D02*
X16431968Y-13986236D01*
X16431968Y-13986236D02*
X16422444Y-13995760D01*
X16422444Y-13995760D02*
X16403396Y-14005284D01*
X16403396Y-14005284D02*
X16384348Y-14005284D01*
X16384348Y-14005284D02*
X16365301Y-13995760D01*
X16365301Y-13995760D02*
X16355777Y-13986236D01*
X16355777Y-13986236D02*
X16346253Y-13967188D01*
X16346253Y-13967188D02*
X16336729Y-13929093D01*
X16336729Y-13929093D02*
X16336729Y-13881474D01*
X16336729Y-13881474D02*
X16346253Y-13843379D01*
X16346253Y-13843379D02*
X16355777Y-13824331D01*
X16355777Y-13824331D02*
X16365301Y-13814808D01*
X16365301Y-13814808D02*
X16384348Y-13805284D01*
X16689110Y-14005284D02*
X16689110Y-13805284D01*
X16774825Y-14005284D02*
X16774825Y-13900522D01*
X16774825Y-13900522D02*
X16765301Y-13881474D01*
X16765301Y-13881474D02*
X16746253Y-13871950D01*
X16746253Y-13871950D02*
X16717682Y-13871950D01*
X16717682Y-13871950D02*
X16698634Y-13881474D01*
X16698634Y-13881474D02*
X16689110Y-13890998D01*
X16898634Y-14005284D02*
X16879587Y-13995760D01*
X16879587Y-13995760D02*
X16870063Y-13986236D01*
X16870063Y-13986236D02*
X16860539Y-13967188D01*
X16860539Y-13967188D02*
X16860539Y-13910046D01*
X16860539Y-13910046D02*
X16870063Y-13890998D01*
X16870063Y-13890998D02*
X16879587Y-13881474D01*
X16879587Y-13881474D02*
X16898634Y-13871950D01*
X16898634Y-13871950D02*
X16927206Y-13871950D01*
X16927206Y-13871950D02*
X16946253Y-13881474D01*
X16946253Y-13881474D02*
X16955777Y-13890998D01*
X16955777Y-13890998D02*
X16965301Y-13910046D01*
X16965301Y-13910046D02*
X16965301Y-13967188D01*
X16965301Y-13967188D02*
X16955777Y-13986236D01*
X16955777Y-13986236D02*
X16946253Y-13995760D01*
X16946253Y-13995760D02*
X16927206Y-14005284D01*
X16927206Y-14005284D02*
X16898634Y-14005284D01*
X17079587Y-14005284D02*
X17060539Y-13995760D01*
X17060539Y-13995760D02*
X17051015Y-13976712D01*
X17051015Y-13976712D02*
X17051015Y-13805284D01*
X17231968Y-13995760D02*
X17212920Y-14005284D01*
X17212920Y-14005284D02*
X17174825Y-14005284D01*
X17174825Y-14005284D02*
X17155777Y-13995760D01*
X17155777Y-13995760D02*
X17146253Y-13976712D01*
X17146253Y-13976712D02*
X17146253Y-13900522D01*
X17146253Y-13900522D02*
X17155777Y-13881474D01*
X17155777Y-13881474D02*
X17174825Y-13871950D01*
X17174825Y-13871950D02*
X17212920Y-13871950D01*
X17212920Y-13871950D02*
X17231968Y-13881474D01*
X17231968Y-13881474D02*
X17241492Y-13900522D01*
X17241492Y-13900522D02*
X17241492Y-13919569D01*
X17241492Y-13919569D02*
X17146253Y-13938617D01*
X17317682Y-13995760D02*
X17336730Y-14005284D01*
X17336730Y-14005284D02*
X17374825Y-14005284D01*
X17374825Y-14005284D02*
X17393873Y-13995760D01*
X17393873Y-13995760D02*
X17403396Y-13976712D01*
X17403396Y-13976712D02*
X17403396Y-13967188D01*
X17403396Y-13967188D02*
X17393873Y-13948141D01*
X17393873Y-13948141D02*
X17374825Y-13938617D01*
X17374825Y-13938617D02*
X17346253Y-13938617D01*
X17346253Y-13938617D02*
X17327206Y-13929093D01*
X17327206Y-13929093D02*
X17317682Y-13910046D01*
X17317682Y-13910046D02*
X17317682Y-13900522D01*
X17317682Y-13900522D02*
X17327206Y-13881474D01*
X17327206Y-13881474D02*
X17346253Y-13871950D01*
X17346253Y-13871950D02*
X17374825Y-13871950D01*
X17374825Y-13871950D02*
X17393873Y-13881474D01*
X17641492Y-13929093D02*
X17793873Y-13929093D01*
X17717682Y-14005284D02*
X17717682Y-13852903D01*
X18127206Y-13871950D02*
X18127206Y-14005284D01*
X18079587Y-13795760D02*
X18031968Y-13938617D01*
X18031968Y-13938617D02*
X18155777Y-13938617D01*
X18374825Y-13995760D02*
X18393873Y-14005284D01*
X18393873Y-14005284D02*
X18431968Y-14005284D01*
X18431968Y-14005284D02*
X18451016Y-13995760D01*
X18451016Y-13995760D02*
X18460539Y-13976712D01*
X18460539Y-13976712D02*
X18460539Y-13967188D01*
X18460539Y-13967188D02*
X18451016Y-13948141D01*
X18451016Y-13948141D02*
X18431968Y-13938617D01*
X18431968Y-13938617D02*
X18403396Y-13938617D01*
X18403396Y-13938617D02*
X18384349Y-13929093D01*
X18384349Y-13929093D02*
X18374825Y-13910046D01*
X18374825Y-13910046D02*
X18374825Y-13900522D01*
X18374825Y-13900522D02*
X18384349Y-13881474D01*
X18384349Y-13881474D02*
X18403396Y-13871950D01*
X18403396Y-13871950D02*
X18431968Y-13871950D01*
X18431968Y-13871950D02*
X18451016Y-13881474D01*
X18574825Y-14005284D02*
X18555777Y-13995760D01*
X18555777Y-13995760D02*
X18546254Y-13976712D01*
X18546254Y-13976712D02*
X18546254Y-13805284D01*
X18679587Y-14005284D02*
X18660539Y-13995760D01*
X18660539Y-13995760D02*
X18651016Y-13986236D01*
X18651016Y-13986236D02*
X18641492Y-13967188D01*
X18641492Y-13967188D02*
X18641492Y-13910046D01*
X18641492Y-13910046D02*
X18651016Y-13890998D01*
X18651016Y-13890998D02*
X18660539Y-13881474D01*
X18660539Y-13881474D02*
X18679587Y-13871950D01*
X18679587Y-13871950D02*
X18708158Y-13871950D01*
X18708158Y-13871950D02*
X18727206Y-13881474D01*
X18727206Y-13881474D02*
X18736730Y-13890998D01*
X18736730Y-13890998D02*
X18746254Y-13910046D01*
X18746254Y-13910046D02*
X18746254Y-13967188D01*
X18746254Y-13967188D02*
X18736730Y-13986236D01*
X18736730Y-13986236D02*
X18727206Y-13995760D01*
X18727206Y-13995760D02*
X18708158Y-14005284D01*
X18708158Y-14005284D02*
X18679587Y-14005284D01*
X18803397Y-13871950D02*
X18879587Y-13871950D01*
X18831968Y-13805284D02*
X18831968Y-13976712D01*
X18831968Y-13976712D02*
X18841492Y-13995760D01*
X18841492Y-13995760D02*
X18860539Y-14005284D01*
X18860539Y-14005284D02*
X18879587Y-14005284D01*
X18936730Y-13995760D02*
X18955777Y-14005284D01*
X18955777Y-14005284D02*
X18993873Y-14005284D01*
X18993873Y-14005284D02*
X19012920Y-13995760D01*
X19012920Y-13995760D02*
X19022444Y-13976712D01*
X19022444Y-13976712D02*
X19022444Y-13967188D01*
X19022444Y-13967188D02*
X19012920Y-13948141D01*
X19012920Y-13948141D02*
X18993873Y-13938617D01*
X18993873Y-13938617D02*
X18965301Y-13938617D01*
X18965301Y-13938617D02*
X18946254Y-13929093D01*
X18946254Y-13929093D02*
X18936730Y-13910046D01*
X18936730Y-13910046D02*
X18936730Y-13900522D01*
X18936730Y-13900522D02*
X18946254Y-13881474D01*
X18946254Y-13881474D02*
X18965301Y-13871950D01*
X18965301Y-13871950D02*
X18993873Y-13871950D01*
X18993873Y-13871950D02*
X19012920Y-13881474D01*
X19089111Y-14081474D02*
X19098635Y-14071950D01*
X19098635Y-14071950D02*
X19117682Y-14043379D01*
X19117682Y-14043379D02*
X19127206Y-14024331D01*
X19127206Y-14024331D02*
X19136730Y-13995760D01*
X19136730Y-13995760D02*
X19146254Y-13948141D01*
X19146254Y-13948141D02*
X19146254Y-13910046D01*
X19146254Y-13910046D02*
X19136730Y-13862427D01*
X19136730Y-13862427D02*
X19127206Y-13833855D01*
X19127206Y-13833855D02*
X19117682Y-13814808D01*
X19117682Y-13814808D02*
X19098635Y-13786236D01*
X19098635Y-13786236D02*
X19089111Y-13776712D01*
D10*
X12645000Y-14127800D02*
X12645000Y-14227800D01*
X12595000Y-14177800D02*
X12695000Y-14177800D01*
D11*
X13060539Y-14269284D02*
X12946253Y-14269284D01*
X13003396Y-14269284D02*
X13003396Y-14069284D01*
X13003396Y-14069284D02*
X12984348Y-14097855D01*
X12984348Y-14097855D02*
X12965301Y-14116903D01*
X12965301Y-14116903D02*
X12946253Y-14126427D01*
X13146253Y-14250236D02*
X13155777Y-14259760D01*
X13155777Y-14259760D02*
X13146253Y-14269284D01*
X13146253Y-14269284D02*
X13136729Y-14259760D01*
X13136729Y-14259760D02*
X13146253Y-14250236D01*
X13146253Y-14250236D02*
X13146253Y-14269284D01*
X13279586Y-14069284D02*
X13298634Y-14069284D01*
X13298634Y-14069284D02*
X13317682Y-14078808D01*
X13317682Y-14078808D02*
X13327205Y-14088331D01*
X13327205Y-14088331D02*
X13336729Y-14107379D01*
X13336729Y-14107379D02*
X13346253Y-14145474D01*
X13346253Y-14145474D02*
X13346253Y-14193093D01*
X13346253Y-14193093D02*
X13336729Y-14231188D01*
X13336729Y-14231188D02*
X13327205Y-14250236D01*
X13327205Y-14250236D02*
X13317682Y-14259760D01*
X13317682Y-14259760D02*
X13298634Y-14269284D01*
X13298634Y-14269284D02*
X13279586Y-14269284D01*
X13279586Y-14269284D02*
X13260539Y-14259760D01*
X13260539Y-14259760D02*
X13251015Y-14250236D01*
X13251015Y-14250236D02*
X13241491Y-14231188D01*
X13241491Y-14231188D02*
X13231967Y-14193093D01*
X13231967Y-14193093D02*
X13231967Y-14145474D01*
X13231967Y-14145474D02*
X13241491Y-14107379D01*
X13241491Y-14107379D02*
X13251015Y-14088331D01*
X13251015Y-14088331D02*
X13260539Y-14078808D01*
X13260539Y-14078808D02*
X13279586Y-14069284D01*
X13470062Y-14069284D02*
X13489110Y-14069284D01*
X13489110Y-14069284D02*
X13508158Y-14078808D01*
X13508158Y-14078808D02*
X13517682Y-14088331D01*
X13517682Y-14088331D02*
X13527205Y-14107379D01*
X13527205Y-14107379D02*
X13536729Y-14145474D01*
X13536729Y-14145474D02*
X13536729Y-14193093D01*
X13536729Y-14193093D02*
X13527205Y-14231188D01*
X13527205Y-14231188D02*
X13517682Y-14250236D01*
X13517682Y-14250236D02*
X13508158Y-14259760D01*
X13508158Y-14259760D02*
X13489110Y-14269284D01*
X13489110Y-14269284D02*
X13470062Y-14269284D01*
X13470062Y-14269284D02*
X13451015Y-14259760D01*
X13451015Y-14259760D02*
X13441491Y-14250236D01*
X13441491Y-14250236D02*
X13431967Y-14231188D01*
X13431967Y-14231188D02*
X13422443Y-14193093D01*
X13422443Y-14193093D02*
X13422443Y-14145474D01*
X13422443Y-14145474D02*
X13431967Y-14107379D01*
X13431967Y-14107379D02*
X13441491Y-14088331D01*
X13441491Y-14088331D02*
X13451015Y-14078808D01*
X13451015Y-14078808D02*
X13470062Y-14069284D01*
X13660539Y-14069284D02*
X13679586Y-14069284D01*
X13679586Y-14069284D02*
X13698634Y-14078808D01*
X13698634Y-14078808D02*
X13708158Y-14088331D01*
X13708158Y-14088331D02*
X13717682Y-14107379D01*
X13717682Y-14107379D02*
X13727205Y-14145474D01*
X13727205Y-14145474D02*
X13727205Y-14193093D01*
X13727205Y-14193093D02*
X13717682Y-14231188D01*
X13717682Y-14231188D02*
X13708158Y-14250236D01*
X13708158Y-14250236D02*
X13698634Y-14259760D01*
X13698634Y-14259760D02*
X13679586Y-14269284D01*
X13679586Y-14269284D02*
X13660539Y-14269284D01*
X13660539Y-14269284D02*
X13641491Y-14259760D01*
X13641491Y-14259760D02*
X13631967Y-14250236D01*
X13631967Y-14250236D02*
X13622443Y-14231188D01*
X13622443Y-14231188D02*
X13612920Y-14193093D01*
X13612920Y-14193093D02*
X13612920Y-14145474D01*
X13612920Y-14145474D02*
X13622443Y-14107379D01*
X13622443Y-14107379D02*
X13631967Y-14088331D01*
X13631967Y-14088331D02*
X13641491Y-14078808D01*
X13641491Y-14078808D02*
X13660539Y-14069284D01*
X13812920Y-14269284D02*
X13812920Y-14135950D01*
X13812920Y-14154998D02*
X13822443Y-14145474D01*
X13822443Y-14145474D02*
X13841491Y-14135950D01*
X13841491Y-14135950D02*
X13870063Y-14135950D01*
X13870063Y-14135950D02*
X13889110Y-14145474D01*
X13889110Y-14145474D02*
X13898634Y-14164522D01*
X13898634Y-14164522D02*
X13898634Y-14269284D01*
X13898634Y-14164522D02*
X13908158Y-14145474D01*
X13908158Y-14145474D02*
X13927205Y-14135950D01*
X13927205Y-14135950D02*
X13955777Y-14135950D01*
X13955777Y-14135950D02*
X13974824Y-14145474D01*
X13974824Y-14145474D02*
X13984348Y-14164522D01*
X13984348Y-14164522D02*
X13984348Y-14269284D01*
X14079586Y-14269284D02*
X14079586Y-14135950D01*
X14079586Y-14154998D02*
X14089110Y-14145474D01*
X14089110Y-14145474D02*
X14108158Y-14135950D01*
X14108158Y-14135950D02*
X14136729Y-14135950D01*
X14136729Y-14135950D02*
X14155777Y-14145474D01*
X14155777Y-14145474D02*
X14165301Y-14164522D01*
X14165301Y-14164522D02*
X14165301Y-14269284D01*
X14165301Y-14164522D02*
X14174824Y-14145474D01*
X14174824Y-14145474D02*
X14193872Y-14135950D01*
X14193872Y-14135950D02*
X14222443Y-14135950D01*
X14222443Y-14135950D02*
X14241491Y-14145474D01*
X14241491Y-14145474D02*
X14251015Y-14164522D01*
X14251015Y-14164522D02*
X14251015Y-14269284D01*
X14641491Y-14059760D02*
X14470063Y-14316903D01*
X14898634Y-14069284D02*
X14917682Y-14069284D01*
X14917682Y-14069284D02*
X14936729Y-14078808D01*
X14936729Y-14078808D02*
X14946253Y-14088331D01*
X14946253Y-14088331D02*
X14955777Y-14107379D01*
X14955777Y-14107379D02*
X14965301Y-14145474D01*
X14965301Y-14145474D02*
X14965301Y-14193093D01*
X14965301Y-14193093D02*
X14955777Y-14231188D01*
X14955777Y-14231188D02*
X14946253Y-14250236D01*
X14946253Y-14250236D02*
X14936729Y-14259760D01*
X14936729Y-14259760D02*
X14917682Y-14269284D01*
X14917682Y-14269284D02*
X14898634Y-14269284D01*
X14898634Y-14269284D02*
X14879586Y-14259760D01*
X14879586Y-14259760D02*
X14870063Y-14250236D01*
X14870063Y-14250236D02*
X14860539Y-14231188D01*
X14860539Y-14231188D02*
X14851015Y-14193093D01*
X14851015Y-14193093D02*
X14851015Y-14145474D01*
X14851015Y-14145474D02*
X14860539Y-14107379D01*
X14860539Y-14107379D02*
X14870063Y-14088331D01*
X14870063Y-14088331D02*
X14879586Y-14078808D01*
X14879586Y-14078808D02*
X14898634Y-14069284D01*
X15051015Y-14250236D02*
X15060539Y-14259760D01*
X15060539Y-14259760D02*
X15051015Y-14269284D01*
X15051015Y-14269284D02*
X15041491Y-14259760D01*
X15041491Y-14259760D02*
X15051015Y-14250236D01*
X15051015Y-14250236D02*
X15051015Y-14269284D01*
X15184348Y-14069284D02*
X15203396Y-14069284D01*
X15203396Y-14069284D02*
X15222444Y-14078808D01*
X15222444Y-14078808D02*
X15231967Y-14088331D01*
X15231967Y-14088331D02*
X15241491Y-14107379D01*
X15241491Y-14107379D02*
X15251015Y-14145474D01*
X15251015Y-14145474D02*
X15251015Y-14193093D01*
X15251015Y-14193093D02*
X15241491Y-14231188D01*
X15241491Y-14231188D02*
X15231967Y-14250236D01*
X15231967Y-14250236D02*
X15222444Y-14259760D01*
X15222444Y-14259760D02*
X15203396Y-14269284D01*
X15203396Y-14269284D02*
X15184348Y-14269284D01*
X15184348Y-14269284D02*
X15165301Y-14259760D01*
X15165301Y-14259760D02*
X15155777Y-14250236D01*
X15155777Y-14250236D02*
X15146253Y-14231188D01*
X15146253Y-14231188D02*
X15136729Y-14193093D01*
X15136729Y-14193093D02*
X15136729Y-14145474D01*
X15136729Y-14145474D02*
X15146253Y-14107379D01*
X15146253Y-14107379D02*
X15155777Y-14088331D01*
X15155777Y-14088331D02*
X15165301Y-14078808D01*
X15165301Y-14078808D02*
X15184348Y-14069284D01*
X15317682Y-14069284D02*
X15441491Y-14069284D01*
X15441491Y-14069284D02*
X15374825Y-14145474D01*
X15374825Y-14145474D02*
X15403396Y-14145474D01*
X15403396Y-14145474D02*
X15422444Y-14154998D01*
X15422444Y-14154998D02*
X15431967Y-14164522D01*
X15431967Y-14164522D02*
X15441491Y-14183569D01*
X15441491Y-14183569D02*
X15441491Y-14231188D01*
X15441491Y-14231188D02*
X15431967Y-14250236D01*
X15431967Y-14250236D02*
X15422444Y-14259760D01*
X15422444Y-14259760D02*
X15403396Y-14269284D01*
X15403396Y-14269284D02*
X15346253Y-14269284D01*
X15346253Y-14269284D02*
X15327206Y-14259760D01*
X15327206Y-14259760D02*
X15317682Y-14250236D01*
X15536729Y-14269284D02*
X15574825Y-14269284D01*
X15574825Y-14269284D02*
X15593872Y-14259760D01*
X15593872Y-14259760D02*
X15603396Y-14250236D01*
X15603396Y-14250236D02*
X15622444Y-14221665D01*
X15622444Y-14221665D02*
X15631967Y-14183569D01*
X15631967Y-14183569D02*
X15631967Y-14107379D01*
X15631967Y-14107379D02*
X15622444Y-14088331D01*
X15622444Y-14088331D02*
X15612920Y-14078808D01*
X15612920Y-14078808D02*
X15593872Y-14069284D01*
X15593872Y-14069284D02*
X15555777Y-14069284D01*
X15555777Y-14069284D02*
X15536729Y-14078808D01*
X15536729Y-14078808D02*
X15527206Y-14088331D01*
X15527206Y-14088331D02*
X15517682Y-14107379D01*
X15517682Y-14107379D02*
X15517682Y-14154998D01*
X15517682Y-14154998D02*
X15527206Y-14174046D01*
X15527206Y-14174046D02*
X15536729Y-14183569D01*
X15536729Y-14183569D02*
X15555777Y-14193093D01*
X15555777Y-14193093D02*
X15593872Y-14193093D01*
X15593872Y-14193093D02*
X15612920Y-14183569D01*
X15612920Y-14183569D02*
X15622444Y-14174046D01*
X15622444Y-14174046D02*
X15631967Y-14154998D01*
X15803396Y-14135950D02*
X15803396Y-14269284D01*
X15755777Y-14059760D02*
X15708158Y-14202617D01*
X15708158Y-14202617D02*
X15831967Y-14202617D01*
X15898634Y-14069284D02*
X15898634Y-14107379D01*
X15974825Y-14069284D02*
X15974825Y-14107379D01*
X16270063Y-14345474D02*
X16260539Y-14335950D01*
X16260539Y-14335950D02*
X16241491Y-14307379D01*
X16241491Y-14307379D02*
X16231968Y-14288331D01*
X16231968Y-14288331D02*
X16222444Y-14259760D01*
X16222444Y-14259760D02*
X16212920Y-14212141D01*
X16212920Y-14212141D02*
X16212920Y-14174046D01*
X16212920Y-14174046D02*
X16222444Y-14126427D01*
X16222444Y-14126427D02*
X16231968Y-14097855D01*
X16231968Y-14097855D02*
X16241491Y-14078808D01*
X16241491Y-14078808D02*
X16260539Y-14050236D01*
X16260539Y-14050236D02*
X16270063Y-14040712D01*
X16451015Y-14269284D02*
X16336729Y-14269284D01*
X16393872Y-14269284D02*
X16393872Y-14069284D01*
X16393872Y-14069284D02*
X16374825Y-14097855D01*
X16374825Y-14097855D02*
X16355777Y-14116903D01*
X16355777Y-14116903D02*
X16336729Y-14126427D01*
X16546253Y-14269284D02*
X16584348Y-14269284D01*
X16584348Y-14269284D02*
X16603396Y-14259760D01*
X16603396Y-14259760D02*
X16612920Y-14250236D01*
X16612920Y-14250236D02*
X16631968Y-14221665D01*
X16631968Y-14221665D02*
X16641491Y-14183569D01*
X16641491Y-14183569D02*
X16641491Y-14107379D01*
X16641491Y-14107379D02*
X16631968Y-14088331D01*
X16631968Y-14088331D02*
X16622444Y-14078808D01*
X16622444Y-14078808D02*
X16603396Y-14069284D01*
X16603396Y-14069284D02*
X16565301Y-14069284D01*
X16565301Y-14069284D02*
X16546253Y-14078808D01*
X16546253Y-14078808D02*
X16536729Y-14088331D01*
X16536729Y-14088331D02*
X16527206Y-14107379D01*
X16527206Y-14107379D02*
X16527206Y-14154998D01*
X16527206Y-14154998D02*
X16536729Y-14174046D01*
X16536729Y-14174046D02*
X16546253Y-14183569D01*
X16546253Y-14183569D02*
X16565301Y-14193093D01*
X16565301Y-14193093D02*
X16603396Y-14193093D01*
X16603396Y-14193093D02*
X16622444Y-14183569D01*
X16622444Y-14183569D02*
X16631968Y-14174046D01*
X16631968Y-14174046D02*
X16641491Y-14154998D01*
X16879587Y-14269284D02*
X16879587Y-14069284D01*
X16965301Y-14269284D02*
X16965301Y-14164522D01*
X16965301Y-14164522D02*
X16955777Y-14145474D01*
X16955777Y-14145474D02*
X16936730Y-14135950D01*
X16936730Y-14135950D02*
X16908158Y-14135950D01*
X16908158Y-14135950D02*
X16889111Y-14145474D01*
X16889111Y-14145474D02*
X16879587Y-14154998D01*
X17089111Y-14269284D02*
X17070063Y-14259760D01*
X17070063Y-14259760D02*
X17060539Y-14250236D01*
X17060539Y-14250236D02*
X17051015Y-14231188D01*
X17051015Y-14231188D02*
X17051015Y-14174046D01*
X17051015Y-14174046D02*
X17060539Y-14154998D01*
X17060539Y-14154998D02*
X17070063Y-14145474D01*
X17070063Y-14145474D02*
X17089111Y-14135950D01*
X17089111Y-14135950D02*
X17117682Y-14135950D01*
X17117682Y-14135950D02*
X17136730Y-14145474D01*
X17136730Y-14145474D02*
X17146253Y-14154998D01*
X17146253Y-14154998D02*
X17155777Y-14174046D01*
X17155777Y-14174046D02*
X17155777Y-14231188D01*
X17155777Y-14231188D02*
X17146253Y-14250236D01*
X17146253Y-14250236D02*
X17136730Y-14259760D01*
X17136730Y-14259760D02*
X17117682Y-14269284D01*
X17117682Y-14269284D02*
X17089111Y-14269284D01*
X17270063Y-14269284D02*
X17251015Y-14259760D01*
X17251015Y-14259760D02*
X17241492Y-14240712D01*
X17241492Y-14240712D02*
X17241492Y-14069284D01*
X17422444Y-14259760D02*
X17403396Y-14269284D01*
X17403396Y-14269284D02*
X17365301Y-14269284D01*
X17365301Y-14269284D02*
X17346253Y-14259760D01*
X17346253Y-14259760D02*
X17336730Y-14240712D01*
X17336730Y-14240712D02*
X17336730Y-14164522D01*
X17336730Y-14164522D02*
X17346253Y-14145474D01*
X17346253Y-14145474D02*
X17365301Y-14135950D01*
X17365301Y-14135950D02*
X17403396Y-14135950D01*
X17403396Y-14135950D02*
X17422444Y-14145474D01*
X17422444Y-14145474D02*
X17431968Y-14164522D01*
X17431968Y-14164522D02*
X17431968Y-14183569D01*
X17431968Y-14183569D02*
X17336730Y-14202617D01*
X17508158Y-14259760D02*
X17527206Y-14269284D01*
X17527206Y-14269284D02*
X17565301Y-14269284D01*
X17565301Y-14269284D02*
X17584349Y-14259760D01*
X17584349Y-14259760D02*
X17593873Y-14240712D01*
X17593873Y-14240712D02*
X17593873Y-14231188D01*
X17593873Y-14231188D02*
X17584349Y-14212141D01*
X17584349Y-14212141D02*
X17565301Y-14202617D01*
X17565301Y-14202617D02*
X17536730Y-14202617D01*
X17536730Y-14202617D02*
X17517682Y-14193093D01*
X17517682Y-14193093D02*
X17508158Y-14174046D01*
X17508158Y-14174046D02*
X17508158Y-14164522D01*
X17508158Y-14164522D02*
X17517682Y-14145474D01*
X17517682Y-14145474D02*
X17536730Y-14135950D01*
X17536730Y-14135950D02*
X17565301Y-14135950D01*
X17565301Y-14135950D02*
X17584349Y-14145474D01*
X17660539Y-14345474D02*
X17670063Y-14335950D01*
X17670063Y-14335950D02*
X17689111Y-14307379D01*
X17689111Y-14307379D02*
X17698634Y-14288331D01*
X17698634Y-14288331D02*
X17708158Y-14259760D01*
X17708158Y-14259760D02*
X17717682Y-14212141D01*
X17717682Y-14212141D02*
X17717682Y-14174046D01*
X17717682Y-14174046D02*
X17708158Y-14126427D01*
X17708158Y-14126427D02*
X17698634Y-14097855D01*
X17698634Y-14097855D02*
X17689111Y-14078808D01*
X17689111Y-14078808D02*
X17670063Y-14050236D01*
X17670063Y-14050236D02*
X17660539Y-14040712D01*
M02*
