M48
; DRILL file {KiCad 9.0.3} date 2025-08-03T15:25:44-0400
; FORMAT={-:-/ absolute / metric / decimal}
; #@! TF.CreationDate,2025-08-03T15:25:44-04:00
; #@! TF.GenerationSoftware,Kicad,Pcbnew,9.0.3
; #@! TF.FileFunction,Plated,1,2,PTH
FMAT,2
METRIC
; #@! TA.AperFunction,Plated,PTH,ViaDrill
T1C0.300
; #@! TA.AperFunction,Plated,PTH,ComponentDrill
T2C0.600
; #@! TA.AperFunction,Plated,PTH,ComponentDrill
T3C1.000
%
G90
G05
T1
X130.373Y-129.485
X132.91Y-129.485
X135.447Y-129.485
X136.61Y-122.2
X136.61Y-122.853
X137.4Y-117.45
X137.923Y-123.873
X137.984Y-129.485
X138.0Y-121.3
X138.3Y-117.45
X140.521Y-129.485
X143.058Y-129.485
X144.3Y-123.648
X144.5Y-120.6
X144.952Y-121.392
X145.404Y-124.2
X145.595Y-129.485
X148.132Y-129.485
X150.35Y-124.85
X150.669Y-129.485
X150.845Y-124.355
X152.4Y-123.444
X153.162Y-122.682
X153.162Y-123.444
X153.162Y-124.206
X153.206Y-129.485
X153.924Y-123.444
X155.743Y-129.485
X158.28Y-129.485
X159.9Y-114.9
X159.9Y-115.7
X159.9Y-116.5
X159.9Y-117.3
X160.7Y-114.5
X160.7Y-115.3
X160.7Y-116.1
X160.7Y-116.9
X160.7Y-117.7
X160.816Y-129.485
X163.353Y-129.485
X165.89Y-129.485
X168.427Y-129.485
X170.8Y-116.1
X170.8Y-117.5
X170.8Y-118.9
X170.8Y-120.3
X170.8Y-121.7
X170.964Y-129.485
X171.2Y-118.2
X171.2Y-119.6
X171.2Y-121.0
X171.2Y-122.4
X171.3Y-115.3
X171.3Y-116.8
X171.68Y-117.5
X171.68Y-118.9
X171.68Y-120.3
X171.68Y-121.7
X171.8Y-114.6
X171.8Y-116.1
X172.08Y-118.2
X172.08Y-119.6
X172.08Y-121.0
X172.08Y-122.4
X172.18Y-116.8
X172.3Y-115.3
X172.56Y-120.3
X172.56Y-121.7
X172.8Y-114.6
X172.96Y-121.0
X173.0Y-122.4
X173.18Y-115.3
X173.4Y-120.3
X173.4Y-121.7
X173.501Y-129.485
X173.7Y-114.6
X173.84Y-121.0
X173.9Y-122.4
X174.06Y-115.3
X174.3Y-120.3
X174.3Y-121.7
X174.5Y-114.6
X174.7Y-121.0
X174.7Y-122.4
X174.94Y-115.3
X175.2Y-120.3
X175.2Y-121.7
X175.3Y-118.9
X175.4Y-114.6
X175.4Y-116.1
X175.4Y-117.5
X175.6Y-121.0
X175.8Y-116.8
X175.8Y-118.2
X175.8Y-119.6
X175.82Y-115.3
X176.038Y-129.485
X176.1Y-120.3
X176.2Y-118.9
X176.3Y-114.6
X176.3Y-116.1
X176.3Y-117.5
X176.7Y-115.3
X176.7Y-116.8
X176.7Y-118.2
X177.2Y-116.1
X177.2Y-117.5
T3
X129.032Y-128.016
X131.572Y-128.016
X134.112Y-128.016
X136.652Y-128.016
X139.192Y-128.016
X141.732Y-128.016
X144.272Y-128.016
X146.812Y-128.016
X149.352Y-128.016
X151.892Y-128.016
X154.432Y-128.016
X156.972Y-128.016
X159.512Y-128.016
X162.052Y-128.016
X164.592Y-128.016
X167.132Y-128.016
X169.672Y-128.016
X172.212Y-128.016
X174.752Y-128.016
X177.292Y-119.365
X177.292Y-121.905
X177.292Y-124.445
X177.292Y-128.016
T2
X130.15Y-115.58G85X129.55Y-115.58
G05
X130.15Y-124.22G85X129.55Y-124.22
G05
X134.58Y-115.58G85X133.48Y-115.58
G05
X134.58Y-124.22G85X133.48Y-124.22
G05
M30
