G04 #@! TF.GenerationSoftware,KiCad,Pcbnew,9.0.3*
G04 #@! TF.CreationDate,2025-08-03T15:25:39-04:00*
G04 #@! TF.ProjectId,CH32V003F4U6,43483332-5630-4303-9346-3455362e6b69,rev?*
G04 #@! TF.SameCoordinates,Original*
G04 #@! TF.FileFunction,Copper,L2,Bot*
G04 #@! TF.FilePolarity,Positive*
%FSLAX46Y46*%
G04 Gerber Fmt 4.6, Leading zero omitted, Abs format (unit mm)*
G04 Created by KiCad (PCBNEW 9.0.3) date 2025-08-03 15:25:39*
%MOMM*%
%LPD*%
G01*
G04 APERTURE LIST*
G04 #@! TA.AperFunction,ComponentPad*
%ADD10R,1.700000X1.700000*%
G04 #@! TD*
G04 #@! TA.AperFunction,ComponentPad*
%ADD11O,1.700000X1.700000*%
G04 #@! TD*
G04 #@! TA.AperFunction,ComponentPad*
%ADD12O,2.100000X1.000000*%
G04 #@! TD*
G04 #@! TA.AperFunction,ComponentPad*
%ADD13O,1.600000X1.000000*%
G04 #@! TD*
G04 #@! TA.AperFunction,ViaPad*
%ADD14C,0.600000*%
G04 #@! TD*
G04 #@! TA.AperFunction,Conductor*
%ADD15C,1.000000*%
G04 #@! TD*
G04 #@! TA.AperFunction,Conductor*
%ADD16C,0.600000*%
G04 #@! TD*
G04 #@! TA.AperFunction,Conductor*
%ADD17C,1.500000*%
G04 #@! TD*
G04 #@! TA.AperFunction,Conductor*
%ADD18C,0.250000*%
G04 #@! TD*
G04 APERTURE END LIST*
D10*
X177292000Y-124445000D03*
D11*
X177292000Y-121905000D03*
X177292000Y-119365000D03*
D12*
X134030000Y-115580000D03*
D13*
X129850000Y-115580000D03*
D12*
X134030000Y-124220000D03*
D13*
X129850000Y-124220000D03*
D10*
X129032000Y-128016000D03*
D11*
X131572000Y-128016000D03*
X134112000Y-128016000D03*
X136652000Y-128016000D03*
X139192000Y-128016000D03*
X141732000Y-128016000D03*
X144272000Y-128016000D03*
X146812000Y-128016000D03*
X149352000Y-128016000D03*
X151892000Y-128016000D03*
X154432000Y-128016000D03*
X156972000Y-128016000D03*
X159512000Y-128016000D03*
X162052000Y-128016000D03*
X164592000Y-128016000D03*
X167132000Y-128016000D03*
X169672000Y-128016000D03*
X172212000Y-128016000D03*
X174752000Y-128016000D03*
X177292000Y-128016000D03*
D14*
X143057792Y-129484503D03*
X140520835Y-129484503D03*
X153162000Y-123444000D03*
X132909964Y-129484503D03*
X145594749Y-129484503D03*
X173501276Y-129484503D03*
X160700000Y-116100000D03*
X155742577Y-129484503D03*
X159900000Y-116500000D03*
X176038233Y-129484503D03*
X150668663Y-129484503D03*
X159900000Y-115700000D03*
X152400000Y-123444000D03*
X160816491Y-129484503D03*
X163353448Y-129484503D03*
X137983878Y-129484503D03*
X160700000Y-116900000D03*
X153205620Y-129484503D03*
X148131706Y-129484503D03*
X130373007Y-129484503D03*
X153162000Y-122682000D03*
X160700000Y-115300000D03*
X153924000Y-123444000D03*
X153162000Y-124206000D03*
X160700000Y-114500000D03*
X159900000Y-114900000D03*
X159900000Y-117300000D03*
X168427362Y-129484503D03*
X165890405Y-129484503D03*
X170964319Y-129484503D03*
X160700000Y-117700000D03*
X158279534Y-129484503D03*
X135446921Y-129484503D03*
X138300000Y-117450000D03*
X136610283Y-122852988D03*
X136610283Y-122200000D03*
X137400000Y-117450000D03*
X171200000Y-122400000D03*
X170800000Y-117500000D03*
X171800000Y-116100000D03*
X174700000Y-122400000D03*
X175800000Y-119600000D03*
X175800000Y-118200000D03*
X173400000Y-121700000D03*
X171200000Y-121000000D03*
X176700000Y-116800000D03*
X174940000Y-115300000D03*
X173180000Y-115300000D03*
X173400000Y-120300000D03*
X172080000Y-121000000D03*
X172300000Y-115300000D03*
X150844977Y-124355023D03*
X144300000Y-123648000D03*
X174500000Y-114600000D03*
X171680000Y-117500000D03*
X173840000Y-121000000D03*
X171680000Y-120300000D03*
X176300000Y-117500000D03*
X173900000Y-122400000D03*
X172080000Y-118200000D03*
X173700000Y-114600000D03*
X172080000Y-119600000D03*
X171200000Y-118200000D03*
X176300000Y-114600000D03*
X170800000Y-116100000D03*
X172180000Y-116800000D03*
X176700000Y-118200000D03*
X171680000Y-118900000D03*
X150350000Y-124850000D03*
X170800000Y-118900000D03*
X174300000Y-121700000D03*
X175800000Y-116800000D03*
X177200000Y-116100000D03*
X172800000Y-114600000D03*
X173000000Y-122400000D03*
X177200000Y-117500000D03*
X172080000Y-122400000D03*
X176300000Y-116100000D03*
X175400000Y-114600000D03*
X175400000Y-116100000D03*
X175200000Y-121700000D03*
X172960000Y-121000000D03*
X172560000Y-120300000D03*
X171680000Y-121700000D03*
X174060000Y-115300000D03*
X171300000Y-116800000D03*
X170800000Y-120300000D03*
X175820000Y-115300000D03*
X171300000Y-115300000D03*
X171200000Y-119600000D03*
X175400000Y-117500000D03*
X176700000Y-115300000D03*
X175200000Y-120300000D03*
X174700000Y-121000000D03*
X176100000Y-120300000D03*
X174300000Y-120300000D03*
X170800000Y-121700000D03*
X172560000Y-121700000D03*
X176200000Y-118900000D03*
X171800000Y-114600000D03*
X175600000Y-121000000D03*
X175300000Y-118900000D03*
X138000000Y-121300000D03*
X137922646Y-123873000D03*
X144500000Y-120600000D03*
X145404000Y-124200000D03*
X144952000Y-121391565D03*
D15*
X137400000Y-117450000D02*
X136610283Y-118239717D01*
D16*
X136610283Y-122852988D02*
X136600000Y-122842705D01*
D15*
X137400000Y-117450000D02*
X138300000Y-117450000D01*
X136610283Y-118239717D02*
X136610283Y-122852988D01*
D17*
X151872954Y-125383000D02*
X152289954Y-125800000D01*
X166800000Y-125800000D02*
X171600000Y-121000000D01*
D18*
X144300000Y-125448000D02*
X141732000Y-128016000D01*
X144300000Y-123648000D02*
X144300000Y-125448000D01*
D15*
X150350000Y-124850000D02*
X150883000Y-125383000D01*
D17*
X171600000Y-121000000D02*
X172960000Y-121000000D01*
D16*
X150883000Y-125383000D02*
X151872954Y-125383000D01*
D17*
X150844977Y-124355023D02*
X151872954Y-125383000D01*
X152289954Y-125800000D02*
X166800000Y-125800000D01*
D18*
X167286000Y-126914000D02*
X165694000Y-126914000D01*
X177095000Y-121905000D02*
X175598000Y-123402000D01*
X177292000Y-121905000D02*
X177095000Y-121905000D01*
X165694000Y-126914000D02*
X164592000Y-128016000D01*
X170798000Y-123402000D02*
X167286000Y-126914000D01*
X175598000Y-123402000D02*
X170798000Y-123402000D01*
X133010000Y-127559536D02*
X133010000Y-127590000D01*
X132584000Y-128016000D02*
X131572000Y-128016000D01*
X133010000Y-127590000D02*
X132584000Y-128016000D01*
X137400000Y-121900000D02*
X137400000Y-123169536D01*
X138000000Y-121300000D02*
X137400000Y-121900000D01*
X137400000Y-123169536D02*
X133010000Y-127559536D01*
X137922646Y-123873000D02*
X137229694Y-123873000D01*
X134112000Y-126990694D02*
X134112000Y-128016000D01*
X137229694Y-123873000D02*
X134112000Y-126990694D01*
X144852000Y-123419354D02*
X144852000Y-127436000D01*
X144400000Y-122967354D02*
X144852000Y-123419354D01*
X144852000Y-127436000D02*
X144272000Y-128016000D01*
X144500000Y-120600000D02*
X144400000Y-120700000D01*
X144400000Y-120700000D02*
X144400000Y-122967354D01*
X145400000Y-124204000D02*
X145400000Y-126604000D01*
X145404000Y-124200000D02*
X145400000Y-124204000D01*
X145400000Y-126604000D02*
X146812000Y-128016000D01*
X146814000Y-126914000D02*
X147714000Y-126914000D01*
X146000000Y-126100000D02*
X146814000Y-126914000D01*
X144952000Y-122952000D02*
X146000000Y-124000000D01*
X146000000Y-124000000D02*
X146000000Y-126100000D01*
X148816000Y-128016000D02*
X149352000Y-128016000D01*
X144952000Y-121391565D02*
X144952000Y-122952000D01*
X147714000Y-126914000D02*
X148816000Y-128016000D01*
G04 #@! TA.AperFunction,Conductor*
G36*
X179243039Y-113822185D02*
G01*
X179288794Y-113874989D01*
X179300000Y-113926500D01*
X179300000Y-123076000D01*
X179280315Y-123143039D01*
X179227511Y-123188794D01*
X179176000Y-123200000D01*
X177650597Y-123200000D01*
X177583558Y-123180315D01*
X177537803Y-123127511D01*
X177527859Y-123058353D01*
X177556884Y-122994797D01*
X177612277Y-122958069D01*
X177714445Y-122924873D01*
X177868788Y-122846232D01*
X178008928Y-122744414D01*
X178131414Y-122621928D01*
X178233232Y-122481788D01*
X178311873Y-122327445D01*
X178365402Y-122162701D01*
X178392500Y-121991611D01*
X178392500Y-121818389D01*
X178365402Y-121647299D01*
X178311873Y-121482555D01*
X178233232Y-121328212D01*
X178131414Y-121188072D01*
X178008928Y-121065586D01*
X177868788Y-120963768D01*
X177714445Y-120885127D01*
X177549701Y-120831598D01*
X177549699Y-120831597D01*
X177549698Y-120831597D01*
X177418271Y-120810781D01*
X177378611Y-120804500D01*
X177205389Y-120804500D01*
X177165728Y-120810781D01*
X177034302Y-120831597D01*
X176869552Y-120885128D01*
X176715211Y-120963768D01*
X176635256Y-121021859D01*
X176575072Y-121065586D01*
X176575070Y-121065588D01*
X176575069Y-121065588D01*
X176452588Y-121188069D01*
X176452588Y-121188070D01*
X176452586Y-121188072D01*
X176408859Y-121248256D01*
X176350768Y-121328211D01*
X176272127Y-121482553D01*
X176249554Y-121552023D01*
X176244515Y-121565002D01*
X175704557Y-122753233D01*
X175679347Y-122789614D01*
X175478780Y-122990182D01*
X175417460Y-123023666D01*
X175391101Y-123026500D01*
X170748564Y-123026500D01*
X170700812Y-123039295D01*
X170700811Y-123039294D01*
X170653063Y-123052089D01*
X170653062Y-123052089D01*
X170567435Y-123101527D01*
X170505282Y-123163681D01*
X170443959Y-123197166D01*
X170417601Y-123200000D01*
X169424000Y-123200000D01*
X169356961Y-123180315D01*
X169311206Y-123127511D01*
X169300000Y-123076000D01*
X169300000Y-113926500D01*
X169319685Y-113859461D01*
X169372489Y-113813706D01*
X169424000Y-113802500D01*
X179176000Y-113802500D01*
X179243039Y-113822185D01*
G37*
G04 #@! TD.AperFunction*
G04 #@! TA.AperFunction,Conductor*
G36*
X168987539Y-113822185D02*
G01*
X169033294Y-113874989D01*
X169044500Y-113926500D01*
X169044500Y-122089218D01*
X169024815Y-122156257D01*
X169008181Y-122176899D01*
X166421899Y-124763181D01*
X166360576Y-124796666D01*
X166334218Y-124799500D01*
X152755736Y-124799500D01*
X152726295Y-124790855D01*
X152696309Y-124784332D01*
X152691293Y-124780577D01*
X152688697Y-124779815D01*
X152668055Y-124763181D01*
X152621663Y-124716789D01*
X152614182Y-124708608D01*
X152597338Y-124688445D01*
X152589954Y-124679995D01*
X152589251Y-124679226D01*
X152589242Y-124679216D01*
X152581261Y-124670865D01*
X152581257Y-124670862D01*
X152581253Y-124670859D01*
X152574766Y-124666524D01*
X152555981Y-124651107D01*
X152510735Y-124605861D01*
X151482761Y-123577886D01*
X151482757Y-123577883D01*
X151318897Y-123468395D01*
X151318887Y-123468390D01*
X151136813Y-123392972D01*
X151136805Y-123392970D01*
X150943520Y-123354523D01*
X150943517Y-123354523D01*
X150746437Y-123354523D01*
X150746434Y-123354523D01*
X150553148Y-123392970D01*
X150553140Y-123392972D01*
X150371066Y-123468390D01*
X150371056Y-123468395D01*
X150207196Y-123577883D01*
X150207192Y-123577886D01*
X150067840Y-123717238D01*
X150067837Y-123717242D01*
X149958349Y-123881102D01*
X149958344Y-123881112D01*
X149882926Y-124063186D01*
X149882924Y-124063194D01*
X149843288Y-124262457D01*
X149841492Y-124262099D01*
X149818528Y-124318929D01*
X149808988Y-124329642D01*
X149767052Y-124371577D01*
X149767052Y-124371579D01*
X149767049Y-124371582D01*
X149767048Y-124371584D01*
X149738140Y-124414849D01*
X149684918Y-124494502D01*
X149684914Y-124494509D01*
X149628342Y-124631087D01*
X149628340Y-124631093D01*
X149599500Y-124776080D01*
X149599500Y-124776083D01*
X149599500Y-124923917D01*
X149599500Y-124923919D01*
X149599499Y-124923919D01*
X149628340Y-125068906D01*
X149628342Y-125068912D01*
X149684916Y-125205494D01*
X149767048Y-125328416D01*
X149767052Y-125328420D01*
X149767052Y-125328421D01*
X150404578Y-125965947D01*
X150404581Y-125965949D01*
X150404584Y-125965952D01*
X150527506Y-126048084D01*
X150664088Y-126104658D01*
X150762402Y-126124214D01*
X150780575Y-126129192D01*
X150791241Y-126129951D01*
X150809083Y-126133500D01*
X150836714Y-126133500D01*
X150845514Y-126133812D01*
X151158973Y-126156118D01*
X151166225Y-126158060D01*
X151170735Y-126157521D01*
X151204346Y-126168267D01*
X151261351Y-126195960D01*
X151294847Y-126219813D01*
X151509689Y-126434655D01*
X151509718Y-126434686D01*
X151652168Y-126577136D01*
X151652172Y-126577139D01*
X151816039Y-126686632D01*
X151818245Y-126687811D01*
X151819184Y-126688733D01*
X151821105Y-126690017D01*
X151820861Y-126690381D01*
X151868094Y-126736769D01*
X151883561Y-126804905D01*
X151859735Y-126870587D01*
X151804181Y-126912960D01*
X151779201Y-126919647D01*
X151634301Y-126942597D01*
X151469552Y-126996128D01*
X151315211Y-127074768D01*
X151276238Y-127103084D01*
X151175072Y-127176586D01*
X151175070Y-127176588D01*
X151175069Y-127176588D01*
X151052588Y-127299069D01*
X151052588Y-127299070D01*
X151052586Y-127299072D01*
X151052582Y-127299078D01*
X150950768Y-127439211D01*
X150872128Y-127593552D01*
X150818597Y-127758302D01*
X150802920Y-127857286D01*
X150791500Y-127929389D01*
X150791500Y-128102611D01*
X150794894Y-128124038D01*
X150818597Y-128273697D01*
X150818597Y-128273699D01*
X150818598Y-128273701D01*
X150872127Y-128438445D01*
X150950768Y-128592788D01*
X151052586Y-128732928D01*
X151175072Y-128855414D01*
X151315212Y-128957232D01*
X151469555Y-129035873D01*
X151634299Y-129089402D01*
X151805389Y-129116500D01*
X151805390Y-129116500D01*
X151978610Y-129116500D01*
X151978611Y-129116500D01*
X152149701Y-129089402D01*
X152314445Y-129035873D01*
X152468788Y-128957232D01*
X152608928Y-128855414D01*
X152731414Y-128732928D01*
X152833232Y-128592788D01*
X152911873Y-128438445D01*
X152965402Y-128273701D01*
X152992500Y-128102611D01*
X152992500Y-127929389D01*
X152965402Y-127758299D01*
X152911873Y-127593555D01*
X152833232Y-127439212D01*
X152731414Y-127299072D01*
X152608928Y-127176586D01*
X152468788Y-127074768D01*
X152390709Y-127034985D01*
X152339913Y-126987011D01*
X152323118Y-126919190D01*
X152345655Y-126853055D01*
X152400370Y-126809603D01*
X152447004Y-126800500D01*
X153876996Y-126800500D01*
X153944035Y-126820185D01*
X153989790Y-126872989D01*
X153999734Y-126942147D01*
X153970709Y-127005703D01*
X153933291Y-127034985D01*
X153855211Y-127074768D01*
X153816238Y-127103084D01*
X153715072Y-127176586D01*
X153715070Y-127176588D01*
X153715069Y-127176588D01*
X153592588Y-127299069D01*
X153592588Y-127299070D01*
X153592586Y-127299072D01*
X153592582Y-127299078D01*
X153490768Y-127439211D01*
X153412128Y-127593552D01*
X153358597Y-127758302D01*
X153342920Y-127857286D01*
X153331500Y-127929389D01*
X153331500Y-128102611D01*
X153334894Y-128124038D01*
X153358597Y-128273697D01*
X153358597Y-128273699D01*
X153358598Y-128273701D01*
X153412127Y-128438445D01*
X153490768Y-128592788D01*
X153592586Y-128732928D01*
X153715072Y-128855414D01*
X153855212Y-128957232D01*
X154009555Y-129035873D01*
X154174299Y-129089402D01*
X154345389Y-129116500D01*
X154345390Y-129116500D01*
X154518610Y-129116500D01*
X154518611Y-129116500D01*
X154689701Y-129089402D01*
X154854445Y-129035873D01*
X155008788Y-128957232D01*
X155148928Y-128855414D01*
X155271414Y-128732928D01*
X155373232Y-128592788D01*
X155451873Y-128438445D01*
X155505402Y-128273701D01*
X155532500Y-128102611D01*
X155532500Y-127929389D01*
X155505402Y-127758299D01*
X155451873Y-127593555D01*
X155373232Y-127439212D01*
X155271414Y-127299072D01*
X155148928Y-127176586D01*
X155008788Y-127074768D01*
X154930709Y-127034985D01*
X154879913Y-126987011D01*
X154863118Y-126919190D01*
X154885655Y-126853055D01*
X154940370Y-126809603D01*
X154987004Y-126800500D01*
X156416996Y-126800500D01*
X156484035Y-126820185D01*
X156529790Y-126872989D01*
X156539734Y-126942147D01*
X156510709Y-127005703D01*
X156473291Y-127034985D01*
X156395211Y-127074768D01*
X156356238Y-127103084D01*
X156255072Y-127176586D01*
X156255070Y-127176588D01*
X156255069Y-127176588D01*
X156132588Y-127299069D01*
X156132588Y-127299070D01*
X156132586Y-127299072D01*
X156132582Y-127299078D01*
X156030768Y-127439211D01*
X155952128Y-127593552D01*
X155898597Y-127758302D01*
X155882920Y-127857286D01*
X155871500Y-127929389D01*
X155871500Y-128102611D01*
X155874894Y-128124038D01*
X155898597Y-128273697D01*
X155898597Y-128273699D01*
X155898598Y-128273701D01*
X155952127Y-128438445D01*
X156030768Y-128592788D01*
X156132586Y-128732928D01*
X156255072Y-128855414D01*
X156395212Y-128957232D01*
X156549555Y-129035873D01*
X156714299Y-129089402D01*
X156885389Y-129116500D01*
X156885390Y-129116500D01*
X157058610Y-129116500D01*
X157058611Y-129116500D01*
X157229701Y-129089402D01*
X157394445Y-129035873D01*
X157548788Y-128957232D01*
X157688928Y-128855414D01*
X157811414Y-128732928D01*
X157913232Y-128592788D01*
X157991873Y-128438445D01*
X158045402Y-128273701D01*
X158072500Y-128102611D01*
X158072500Y-127929389D01*
X158045402Y-127758299D01*
X157991873Y-127593555D01*
X157913232Y-127439212D01*
X157811414Y-127299072D01*
X157688928Y-127176586D01*
X157548788Y-127074768D01*
X157470709Y-127034985D01*
X157419913Y-126987011D01*
X157403118Y-126919190D01*
X157425655Y-126853055D01*
X157480370Y-126809603D01*
X157527004Y-126800500D01*
X158956996Y-126800500D01*
X159024035Y-126820185D01*
X159069790Y-126872989D01*
X159079734Y-126942147D01*
X159050709Y-127005703D01*
X159013291Y-127034985D01*
X158935211Y-127074768D01*
X158896238Y-127103084D01*
X158795072Y-127176586D01*
X158795070Y-127176588D01*
X158795069Y-127176588D01*
X158672588Y-127299069D01*
X158672588Y-127299070D01*
X158672586Y-127299072D01*
X158672582Y-127299078D01*
X158570768Y-127439211D01*
X158492128Y-127593552D01*
X158438597Y-127758302D01*
X158422920Y-127857286D01*
X158411500Y-127929389D01*
X158411500Y-128102611D01*
X158414894Y-128124038D01*
X158438597Y-128273697D01*
X158438597Y-128273699D01*
X158438598Y-128273701D01*
X158492127Y-128438445D01*
X158570768Y-128592788D01*
X158672586Y-128732928D01*
X158795072Y-128855414D01*
X158935212Y-128957232D01*
X159089555Y-129035873D01*
X159254299Y-129089402D01*
X159425389Y-129116500D01*
X159425390Y-129116500D01*
X159598610Y-129116500D01*
X159598611Y-129116500D01*
X159769701Y-129089402D01*
X159934445Y-129035873D01*
X160088788Y-128957232D01*
X160228928Y-128855414D01*
X160351414Y-128732928D01*
X160453232Y-128592788D01*
X160531873Y-128438445D01*
X160585402Y-128273701D01*
X160612500Y-128102611D01*
X160612500Y-127929389D01*
X160585402Y-127758299D01*
X160531873Y-127593555D01*
X160453232Y-127439212D01*
X160351414Y-127299072D01*
X160228928Y-127176586D01*
X160088788Y-127074768D01*
X160010709Y-127034985D01*
X159959913Y-126987011D01*
X159943118Y-126919190D01*
X159965655Y-126853055D01*
X160020370Y-126809603D01*
X160067004Y-126800500D01*
X161496996Y-126800500D01*
X161564035Y-126820185D01*
X161609790Y-126872989D01*
X161619734Y-126942147D01*
X161590709Y-127005703D01*
X161553291Y-127034985D01*
X161475211Y-127074768D01*
X161436238Y-127103084D01*
X161335072Y-127176586D01*
X161335070Y-127176588D01*
X161335069Y-127176588D01*
X161212588Y-127299069D01*
X161212588Y-127299070D01*
X161212586Y-127299072D01*
X161212582Y-127299078D01*
X161110768Y-127439211D01*
X161032128Y-127593552D01*
X160978597Y-127758302D01*
X160962920Y-127857286D01*
X160951500Y-127929389D01*
X160951500Y-128102611D01*
X160954894Y-128124038D01*
X160978597Y-128273697D01*
X160978597Y-128273699D01*
X160978598Y-128273701D01*
X161032127Y-128438445D01*
X161110768Y-128592788D01*
X161212586Y-128732928D01*
X161335072Y-128855414D01*
X161475212Y-128957232D01*
X161629555Y-129035873D01*
X161794299Y-129089402D01*
X161965389Y-129116500D01*
X161965390Y-129116500D01*
X162138610Y-129116500D01*
X162138611Y-129116500D01*
X162309701Y-129089402D01*
X162474445Y-129035873D01*
X162628788Y-128957232D01*
X162768928Y-128855414D01*
X162891414Y-128732928D01*
X162993232Y-128592788D01*
X163071873Y-128438445D01*
X163125402Y-128273701D01*
X163152500Y-128102611D01*
X163152500Y-127929389D01*
X163125402Y-127758299D01*
X163071873Y-127593555D01*
X162993232Y-127439212D01*
X162891414Y-127299072D01*
X162768928Y-127176586D01*
X162628788Y-127074768D01*
X162550709Y-127034985D01*
X162499913Y-126987011D01*
X162483118Y-126919190D01*
X162505655Y-126853055D01*
X162560370Y-126809603D01*
X162607004Y-126800500D01*
X164036996Y-126800500D01*
X164104035Y-126820185D01*
X164149790Y-126872989D01*
X164159734Y-126942147D01*
X164130709Y-127005703D01*
X164093291Y-127034985D01*
X164015211Y-127074768D01*
X163976238Y-127103084D01*
X163875072Y-127176586D01*
X163875070Y-127176588D01*
X163875069Y-127176588D01*
X163752588Y-127299069D01*
X163752588Y-127299070D01*
X163752586Y-127299072D01*
X163752582Y-127299078D01*
X163650768Y-127439211D01*
X163572128Y-127593552D01*
X163518597Y-127758302D01*
X163502920Y-127857286D01*
X163491500Y-127929389D01*
X163491500Y-128102611D01*
X163494894Y-128124038D01*
X163518597Y-128273697D01*
X163518597Y-128273699D01*
X163518598Y-128273701D01*
X163572127Y-128438445D01*
X163650768Y-128592788D01*
X163752586Y-128732928D01*
X163875072Y-128855414D01*
X164015212Y-128957232D01*
X164169555Y-129035873D01*
X164334299Y-129089402D01*
X164505389Y-129116500D01*
X164505390Y-129116500D01*
X164678610Y-129116500D01*
X164678611Y-129116500D01*
X164849701Y-129089402D01*
X165014445Y-129035873D01*
X165168788Y-128957232D01*
X165308928Y-128855414D01*
X165431414Y-128732928D01*
X165533232Y-128592788D01*
X165611873Y-128438445D01*
X165665402Y-128273701D01*
X165665403Y-128273688D01*
X165666538Y-128268966D01*
X165666972Y-128269070D01*
X165669913Y-128257266D01*
X165790257Y-127907788D01*
X165830696Y-127850810D01*
X165895520Y-127824741D01*
X165964148Y-127837857D01*
X166014790Y-127885993D01*
X166031500Y-127948161D01*
X166031500Y-128102611D01*
X166034894Y-128124038D01*
X166058597Y-128273697D01*
X166058597Y-128273699D01*
X166058598Y-128273701D01*
X166112127Y-128438445D01*
X166190768Y-128592788D01*
X166292586Y-128732928D01*
X166415072Y-128855414D01*
X166555212Y-128957232D01*
X166709555Y-129035873D01*
X166874299Y-129089402D01*
X167045389Y-129116500D01*
X167045390Y-129116500D01*
X167218610Y-129116500D01*
X167218611Y-129116500D01*
X167389701Y-129089402D01*
X167554445Y-129035873D01*
X167708788Y-128957232D01*
X167848928Y-128855414D01*
X167971414Y-128732928D01*
X168073232Y-128592788D01*
X168151873Y-128438445D01*
X168205402Y-128273701D01*
X168232500Y-128102611D01*
X168232500Y-127929389D01*
X168571500Y-127929389D01*
X168571500Y-128102611D01*
X168574894Y-128124038D01*
X168598597Y-128273697D01*
X168598597Y-128273699D01*
X168598598Y-128273701D01*
X168652127Y-128438445D01*
X168730768Y-128592788D01*
X168832586Y-128732928D01*
X168955072Y-128855414D01*
X169095212Y-128957232D01*
X169249555Y-129035873D01*
X169414299Y-129089402D01*
X169585389Y-129116500D01*
X169585390Y-129116500D01*
X169758610Y-129116500D01*
X169758611Y-129116500D01*
X169929701Y-129089402D01*
X170094445Y-129035873D01*
X170248788Y-128957232D01*
X170388928Y-128855414D01*
X170511414Y-128732928D01*
X170613232Y-128592788D01*
X170691873Y-128438445D01*
X170745402Y-128273701D01*
X170772500Y-128102611D01*
X170772500Y-127929389D01*
X171111500Y-127929389D01*
X171111500Y-128102611D01*
X171114894Y-128124038D01*
X171138597Y-128273697D01*
X171138597Y-128273699D01*
X171138598Y-128273701D01*
X171192127Y-128438445D01*
X171270768Y-128592788D01*
X171372586Y-128732928D01*
X171495072Y-128855414D01*
X171635212Y-128957232D01*
X171789555Y-129035873D01*
X171954299Y-129089402D01*
X172125389Y-129116500D01*
X172125390Y-129116500D01*
X172298610Y-129116500D01*
X172298611Y-129116500D01*
X172469701Y-129089402D01*
X172634445Y-129035873D01*
X172788788Y-128957232D01*
X172928928Y-128855414D01*
X173051414Y-128732928D01*
X173153232Y-128592788D01*
X173231873Y-128438445D01*
X173285402Y-128273701D01*
X173312500Y-128102611D01*
X173312500Y-127929389D01*
X173651500Y-127929389D01*
X173651500Y-128102611D01*
X173654894Y-128124038D01*
X173678597Y-128273697D01*
X173678597Y-128273699D01*
X173678598Y-128273701D01*
X173732127Y-128438445D01*
X173810768Y-128592788D01*
X173912586Y-128732928D01*
X174035072Y-128855414D01*
X174175212Y-128957232D01*
X174329555Y-129035873D01*
X174494299Y-129089402D01*
X174665389Y-129116500D01*
X174665390Y-129116500D01*
X174838610Y-129116500D01*
X174838611Y-129116500D01*
X175009701Y-129089402D01*
X175174445Y-129035873D01*
X175328788Y-128957232D01*
X175468928Y-128855414D01*
X175591414Y-128732928D01*
X175693232Y-128592788D01*
X175771873Y-128438445D01*
X175825402Y-128273701D01*
X175852500Y-128102611D01*
X175852500Y-127929389D01*
X176191500Y-127929389D01*
X176191500Y-128102611D01*
X176194894Y-128124038D01*
X176218597Y-128273697D01*
X176218597Y-128273699D01*
X176218598Y-128273701D01*
X176272127Y-128438445D01*
X176350768Y-128592788D01*
X176452586Y-128732928D01*
X176575072Y-128855414D01*
X176715212Y-128957232D01*
X176869555Y-129035873D01*
X177034299Y-129089402D01*
X177205389Y-129116500D01*
X177205390Y-129116500D01*
X177378610Y-129116500D01*
X177378611Y-129116500D01*
X177549701Y-129089402D01*
X177714445Y-129035873D01*
X177868788Y-128957232D01*
X178008928Y-128855414D01*
X178131414Y-128732928D01*
X178233232Y-128592788D01*
X178311873Y-128438445D01*
X178365402Y-128273701D01*
X178392500Y-128102611D01*
X178392500Y-127929389D01*
X178365402Y-127758299D01*
X178311873Y-127593555D01*
X178233232Y-127439212D01*
X178131414Y-127299072D01*
X178008928Y-127176586D01*
X177868788Y-127074768D01*
X177714445Y-126996127D01*
X177549701Y-126942598D01*
X177549699Y-126942597D01*
X177549698Y-126942597D01*
X177404794Y-126919647D01*
X177378611Y-126915500D01*
X177205389Y-126915500D01*
X177179206Y-126919647D01*
X177034302Y-126942597D01*
X176869552Y-126996128D01*
X176715211Y-127074768D01*
X176676238Y-127103084D01*
X176575072Y-127176586D01*
X176575070Y-127176588D01*
X176575069Y-127176588D01*
X176452588Y-127299069D01*
X176452588Y-127299070D01*
X176452586Y-127299072D01*
X176452582Y-127299078D01*
X176350768Y-127439211D01*
X176272128Y-127593552D01*
X176218597Y-127758302D01*
X176202920Y-127857286D01*
X176191500Y-127929389D01*
X175852500Y-127929389D01*
X175825402Y-127758299D01*
X175771873Y-127593555D01*
X175693232Y-127439212D01*
X175591414Y-127299072D01*
X175468928Y-127176586D01*
X175328788Y-127074768D01*
X175174445Y-126996127D01*
X175009701Y-126942598D01*
X175009699Y-126942597D01*
X175009698Y-126942597D01*
X174864794Y-126919647D01*
X174838611Y-126915500D01*
X174665389Y-126915500D01*
X174639206Y-126919647D01*
X174494302Y-126942597D01*
X174329552Y-126996128D01*
X174175211Y-127074768D01*
X174136238Y-127103084D01*
X174035072Y-127176586D01*
X174035070Y-127176588D01*
X174035069Y-127176588D01*
X173912588Y-127299069D01*
X173912588Y-127299070D01*
X173912586Y-127299072D01*
X173912582Y-127299078D01*
X173810768Y-127439211D01*
X173732128Y-127593552D01*
X173678597Y-127758302D01*
X173662920Y-127857286D01*
X173651500Y-127929389D01*
X173312500Y-127929389D01*
X173285402Y-127758299D01*
X173231873Y-127593555D01*
X173153232Y-127439212D01*
X173051414Y-127299072D01*
X172928928Y-127176586D01*
X172788788Y-127074768D01*
X172634445Y-126996127D01*
X172469701Y-126942598D01*
X172469699Y-126942597D01*
X172469698Y-126942597D01*
X172324794Y-126919647D01*
X172298611Y-126915500D01*
X172125389Y-126915500D01*
X172099206Y-126919647D01*
X171954302Y-126942597D01*
X171789552Y-126996128D01*
X171635211Y-127074768D01*
X171596238Y-127103084D01*
X171495072Y-127176586D01*
X171495070Y-127176588D01*
X171495069Y-127176588D01*
X171372588Y-127299069D01*
X171372588Y-127299070D01*
X171372586Y-127299072D01*
X171372582Y-127299078D01*
X171270768Y-127439211D01*
X171192128Y-127593552D01*
X171138597Y-127758302D01*
X171122920Y-127857286D01*
X171111500Y-127929389D01*
X170772500Y-127929389D01*
X170745402Y-127758299D01*
X170691873Y-127593555D01*
X170613232Y-127439212D01*
X170511414Y-127299072D01*
X170388928Y-127176586D01*
X170248788Y-127074768D01*
X170094445Y-126996127D01*
X169929701Y-126942598D01*
X169929699Y-126942597D01*
X169929698Y-126942597D01*
X169784794Y-126919647D01*
X169758611Y-126915500D01*
X169585389Y-126915500D01*
X169559206Y-126919647D01*
X169414302Y-126942597D01*
X169249552Y-126996128D01*
X169095211Y-127074768D01*
X169056238Y-127103084D01*
X168955072Y-127176586D01*
X168955070Y-127176588D01*
X168955069Y-127176588D01*
X168832588Y-127299069D01*
X168832588Y-127299070D01*
X168832586Y-127299072D01*
X168832582Y-127299078D01*
X168730768Y-127439211D01*
X168652128Y-127593552D01*
X168598597Y-127758302D01*
X168582920Y-127857286D01*
X168571500Y-127929389D01*
X168232500Y-127929389D01*
X168205402Y-127758299D01*
X168151873Y-127593555D01*
X168073232Y-127439212D01*
X167971414Y-127299072D01*
X167848928Y-127176586D01*
X167795821Y-127138002D01*
X167753159Y-127082676D01*
X167747180Y-127013063D01*
X167779785Y-126951267D01*
X167780953Y-126950082D01*
X169411408Y-125319628D01*
X176192000Y-125319628D01*
X176206503Y-125392540D01*
X176206505Y-125392544D01*
X176261760Y-125475239D01*
X176344455Y-125530494D01*
X176344459Y-125530496D01*
X176417371Y-125544999D01*
X176417374Y-125545000D01*
X176917000Y-125545000D01*
X177667000Y-125545000D01*
X178166626Y-125545000D01*
X178166628Y-125544999D01*
X178239540Y-125530496D01*
X178239544Y-125530494D01*
X178322239Y-125475239D01*
X178377494Y-125392544D01*
X178377496Y-125392540D01*
X178391999Y-125319628D01*
X178392000Y-125319626D01*
X178392000Y-124820000D01*
X177667000Y-124820000D01*
X177667000Y-125545000D01*
X176917000Y-125545000D01*
X176917000Y-124820000D01*
X176192000Y-124820000D01*
X176192000Y-125319628D01*
X169411408Y-125319628D01*
X170351863Y-124379174D01*
X176792000Y-124379174D01*
X176792000Y-124510826D01*
X176826075Y-124637993D01*
X176891901Y-124752007D01*
X176984993Y-124845099D01*
X177099007Y-124910925D01*
X177226174Y-124945000D01*
X177357826Y-124945000D01*
X177484993Y-124910925D01*
X177599007Y-124845099D01*
X177692099Y-124752007D01*
X177757925Y-124637993D01*
X177792000Y-124510826D01*
X177792000Y-124379174D01*
X177757925Y-124252007D01*
X177692099Y-124137993D01*
X177599007Y-124044901D01*
X177484993Y-123979075D01*
X177357826Y-123945000D01*
X177226174Y-123945000D01*
X177099007Y-123979075D01*
X176984993Y-124044901D01*
X176891901Y-124137993D01*
X176826075Y-124252007D01*
X176792000Y-124379174D01*
X170351863Y-124379174D01*
X170917218Y-123813819D01*
X170978541Y-123780334D01*
X171004899Y-123777500D01*
X175647434Y-123777500D01*
X175647436Y-123777500D01*
X175714645Y-123759491D01*
X175742938Y-123751910D01*
X175828562Y-123702475D01*
X175898475Y-123632562D01*
X175898474Y-123632562D01*
X175957045Y-123573991D01*
X175980321Y-123550715D01*
X176041645Y-123517231D01*
X176111336Y-123522217D01*
X176167269Y-123564090D01*
X176191684Y-123629555D01*
X176192000Y-123638398D01*
X176192000Y-124070000D01*
X176917000Y-124070000D01*
X176917000Y-123345000D01*
X176907321Y-123335321D01*
X176904011Y-123329260D01*
X176898343Y-123325313D01*
X176887481Y-123298986D01*
X176873836Y-123273998D01*
X176874328Y-123267109D01*
X176871694Y-123260724D01*
X176876788Y-123232707D01*
X176878820Y-123204306D01*
X176882959Y-123198776D01*
X176884195Y-123191982D01*
X176903627Y-123171167D01*
X176920692Y-123148373D01*
X176928303Y-123144737D01*
X176931876Y-123140911D01*
X176964499Y-123127449D01*
X177136472Y-123083810D01*
X177206292Y-123086401D01*
X177263629Y-123126328D01*
X177287646Y-123175482D01*
X177295377Y-123208194D01*
X177295379Y-123208200D01*
X177344705Y-123294822D01*
X177344707Y-123294825D01*
X177344709Y-123294828D01*
X177368687Y-123322500D01*
X177390460Y-123347628D01*
X177390463Y-123347631D01*
X177390464Y-123347632D01*
X177423238Y-123379257D01*
X177511573Y-123425465D01*
X177577935Y-123444951D01*
X177636713Y-123482725D01*
X177665738Y-123546281D01*
X177667000Y-123563928D01*
X177667000Y-124070000D01*
X178392000Y-124070000D01*
X178392000Y-123579500D01*
X178411685Y-123512461D01*
X178464489Y-123466706D01*
X178516000Y-123455500D01*
X179175999Y-123455500D01*
X179176000Y-123455500D01*
X179176222Y-123455476D01*
X179176273Y-123455485D01*
X179179325Y-123455322D01*
X179179363Y-123456042D01*
X179244984Y-123467869D01*
X179296130Y-123515470D01*
X179313500Y-123578763D01*
X179313500Y-129913500D01*
X179293815Y-129980539D01*
X179241011Y-130026294D01*
X179189500Y-130037500D01*
X127134500Y-130037500D01*
X127067461Y-130017815D01*
X127021706Y-129965011D01*
X127010500Y-129913500D01*
X127010500Y-127141321D01*
X127931500Y-127141321D01*
X127931500Y-128890678D01*
X127946032Y-128963735D01*
X127946033Y-128963739D01*
X127946034Y-128963740D01*
X128001399Y-129046601D01*
X128084260Y-129101966D01*
X128084264Y-129101967D01*
X128157321Y-129116499D01*
X128157324Y-129116500D01*
X128157326Y-129116500D01*
X129906676Y-129116500D01*
X129906677Y-129116499D01*
X129979740Y-129101966D01*
X130062601Y-129046601D01*
X130117966Y-128963740D01*
X130132500Y-128890674D01*
X130132500Y-127929389D01*
X130471500Y-127929389D01*
X130471500Y-128102611D01*
X130474894Y-128124038D01*
X130498597Y-128273697D01*
X130498597Y-128273699D01*
X130498598Y-128273701D01*
X130552127Y-128438445D01*
X130630768Y-128592788D01*
X130732586Y-128732928D01*
X130855072Y-128855414D01*
X130995212Y-128957232D01*
X131149555Y-129035873D01*
X131314299Y-129089402D01*
X131485389Y-129116500D01*
X131485390Y-129116500D01*
X131658610Y-129116500D01*
X131658611Y-129116500D01*
X131829701Y-129089402D01*
X131994445Y-129035873D01*
X132148788Y-128957232D01*
X132288928Y-128855414D01*
X132411414Y-128732928D01*
X132442566Y-128690048D01*
X132455599Y-128674861D01*
X132852237Y-128281908D01*
X132913714Y-128248711D01*
X132983381Y-128254021D01*
X133039119Y-128296153D01*
X133057437Y-128331680D01*
X133092128Y-128438449D01*
X133170633Y-128592524D01*
X133170768Y-128592788D01*
X133272586Y-128732928D01*
X133395072Y-128855414D01*
X133535212Y-128957232D01*
X133689555Y-129035873D01*
X133854299Y-129089402D01*
X134025389Y-129116500D01*
X134025390Y-129116500D01*
X134198610Y-129116500D01*
X134198611Y-129116500D01*
X134369701Y-129089402D01*
X134534445Y-129035873D01*
X134688788Y-128957232D01*
X134828928Y-128855414D01*
X134951414Y-128732928D01*
X135053232Y-128592788D01*
X135131873Y-128438445D01*
X135147289Y-128391000D01*
X135617236Y-128391000D01*
X135632587Y-128438247D01*
X135632589Y-128438253D01*
X135711195Y-128592524D01*
X135812967Y-128732602D01*
X135935397Y-128855032D01*
X136075475Y-128956804D01*
X136229746Y-129035410D01*
X136229752Y-129035412D01*
X136276999Y-129050763D01*
X136277000Y-129050763D01*
X137027000Y-129050763D01*
X137074247Y-129035412D01*
X137074253Y-129035410D01*
X137228524Y-128956804D01*
X137368602Y-128855032D01*
X137491032Y-128732602D01*
X137592804Y-128592524D01*
X137671410Y-128438253D01*
X137671412Y-128438247D01*
X137686763Y-128391000D01*
X137027000Y-128391000D01*
X137027000Y-129050763D01*
X136277000Y-129050763D01*
X136277000Y-128391000D01*
X135617236Y-128391000D01*
X135147289Y-128391000D01*
X135185402Y-128273701D01*
X135212500Y-128102611D01*
X135212500Y-127950174D01*
X136152000Y-127950174D01*
X136152000Y-128081826D01*
X136186075Y-128208993D01*
X136251901Y-128323007D01*
X136344993Y-128416099D01*
X136459007Y-128481925D01*
X136586174Y-128516000D01*
X136717826Y-128516000D01*
X136844993Y-128481925D01*
X136959007Y-128416099D01*
X137052099Y-128323007D01*
X137117925Y-128208993D01*
X137152000Y-128081826D01*
X137152000Y-127950174D01*
X137146431Y-127929389D01*
X138091500Y-127929389D01*
X138091500Y-128102611D01*
X138094894Y-128124038D01*
X138118597Y-128273697D01*
X138118597Y-128273699D01*
X138118598Y-128273701D01*
X138172127Y-128438445D01*
X138250768Y-128592788D01*
X138352586Y-128732928D01*
X138475072Y-128855414D01*
X138615212Y-128957232D01*
X138769555Y-129035873D01*
X138934299Y-129089402D01*
X139105389Y-129116500D01*
X139105390Y-129116500D01*
X139278610Y-129116500D01*
X139278611Y-129116500D01*
X139449701Y-129089402D01*
X139614445Y-129035873D01*
X139768788Y-128957232D01*
X139908928Y-128855414D01*
X140031414Y-128732928D01*
X140133232Y-128592788D01*
X140211873Y-128438445D01*
X140265402Y-128273701D01*
X140292500Y-128102611D01*
X140292500Y-127929389D01*
X140631500Y-127929389D01*
X140631500Y-128102611D01*
X140634894Y-128124038D01*
X140658597Y-128273697D01*
X140658597Y-128273699D01*
X140658598Y-128273701D01*
X140712127Y-128438445D01*
X140790768Y-128592788D01*
X140892586Y-128732928D01*
X141015072Y-128855414D01*
X141155212Y-128957232D01*
X141309555Y-129035873D01*
X141474299Y-129089402D01*
X141645389Y-129116500D01*
X141645390Y-129116500D01*
X141818610Y-129116500D01*
X141818611Y-129116500D01*
X141989701Y-129089402D01*
X142154445Y-129035873D01*
X142308788Y-128957232D01*
X142448928Y-128855414D01*
X142571414Y-128732928D01*
X142673232Y-128592788D01*
X142751873Y-128438445D01*
X142805402Y-128273701D01*
X142805403Y-128273692D01*
X142806521Y-128269040D01*
X142810100Y-128256898D01*
X142930504Y-127914017D01*
X142971288Y-127857286D01*
X143036269Y-127831611D01*
X143104816Y-127845142D01*
X143155165Y-127893585D01*
X143171500Y-127955101D01*
X143171500Y-128102611D01*
X143174894Y-128124038D01*
X143198597Y-128273697D01*
X143198597Y-128273699D01*
X143198598Y-128273701D01*
X143252127Y-128438445D01*
X143330768Y-128592788D01*
X143432586Y-128732928D01*
X143555072Y-128855414D01*
X143695212Y-128957232D01*
X143849555Y-129035873D01*
X144014299Y-129089402D01*
X144185389Y-129116500D01*
X144185390Y-129116500D01*
X144358610Y-129116500D01*
X144358611Y-129116500D01*
X144529701Y-129089402D01*
X144694445Y-129035873D01*
X144848788Y-128957232D01*
X144988928Y-128855414D01*
X145111414Y-128732928D01*
X145213232Y-128592788D01*
X145291873Y-128438445D01*
X145345402Y-128273701D01*
X145372500Y-128102611D01*
X145372500Y-127955103D01*
X145392185Y-127888064D01*
X145444989Y-127842309D01*
X145514147Y-127832365D01*
X145577703Y-127861390D01*
X145613495Y-127914017D01*
X145709415Y-128187173D01*
X145733900Y-128256900D01*
X145737477Y-128269033D01*
X145738597Y-128273698D01*
X145792128Y-128438449D01*
X145870633Y-128592524D01*
X145870768Y-128592788D01*
X145972586Y-128732928D01*
X146095072Y-128855414D01*
X146235212Y-128957232D01*
X146389555Y-129035873D01*
X146554299Y-129089402D01*
X146725389Y-129116500D01*
X146725390Y-129116500D01*
X146898610Y-129116500D01*
X146898611Y-129116500D01*
X147069701Y-129089402D01*
X147234445Y-129035873D01*
X147388788Y-128957232D01*
X147528928Y-128855414D01*
X147651414Y-128732928D01*
X147753232Y-128592788D01*
X147831873Y-128438445D01*
X147885402Y-128273701D01*
X147899107Y-128187167D01*
X147929034Y-128124038D01*
X147988345Y-128087106D01*
X148058208Y-128088102D01*
X148116441Y-128126712D01*
X148126720Y-128140833D01*
X148422172Y-128613390D01*
X148422208Y-128613447D01*
X148422222Y-128613469D01*
X148424334Y-128616790D01*
X148424519Y-128617076D01*
X148426441Y-128620003D01*
X148434691Y-128628272D01*
X148447220Y-128642959D01*
X148512586Y-128732928D01*
X148635072Y-128855414D01*
X148775212Y-128957232D01*
X148929555Y-129035873D01*
X149094299Y-129089402D01*
X149265389Y-129116500D01*
X149265390Y-129116500D01*
X149438610Y-129116500D01*
X149438611Y-129116500D01*
X149609701Y-129089402D01*
X149774445Y-129035873D01*
X149928788Y-128957232D01*
X150068928Y-128855414D01*
X150191414Y-128732928D01*
X150293232Y-128592788D01*
X150371873Y-128438445D01*
X150425402Y-128273701D01*
X150452500Y-128102611D01*
X150452500Y-127929389D01*
X150425402Y-127758299D01*
X150371873Y-127593555D01*
X150293232Y-127439212D01*
X150191414Y-127299072D01*
X150068928Y-127176586D01*
X149928788Y-127074768D01*
X149774445Y-126996127D01*
X149609701Y-126942598D01*
X149609698Y-126942597D01*
X149552322Y-126933509D01*
X149552322Y-126933508D01*
X149545138Y-126932370D01*
X149524551Y-126926582D01*
X149493130Y-126924133D01*
X149488273Y-126923364D01*
X149488264Y-126923363D01*
X149438613Y-126915500D01*
X149438611Y-126915500D01*
X149387144Y-126915500D01*
X149377511Y-126915125D01*
X148196221Y-126823080D01*
X148130914Y-126798247D01*
X148118173Y-126787136D01*
X147944563Y-126613526D01*
X147944562Y-126613525D01*
X147858938Y-126564090D01*
X147796333Y-126547315D01*
X147796332Y-126547314D01*
X147763436Y-126538500D01*
X147763435Y-126538500D01*
X147020900Y-126538500D01*
X146953861Y-126518815D01*
X146933219Y-126502181D01*
X146411819Y-125980781D01*
X146378334Y-125919458D01*
X146375500Y-125893100D01*
X146375500Y-123950566D01*
X146374135Y-123945472D01*
X146373733Y-123943969D01*
X146372788Y-123940444D01*
X146367311Y-123920000D01*
X146349911Y-123855063D01*
X146307798Y-123782120D01*
X146300477Y-123769440D01*
X146300473Y-123769435D01*
X145363819Y-122832781D01*
X145330334Y-122771458D01*
X145327500Y-122745100D01*
X145327500Y-122060145D01*
X145333260Y-122022792D01*
X145485946Y-121539472D01*
X145489700Y-121526383D01*
X145490003Y-121525208D01*
X145490006Y-121525198D01*
X145493057Y-121511940D01*
X145493057Y-121511932D01*
X145493849Y-121505062D01*
X145494397Y-121505125D01*
X145497272Y-121483548D01*
X145502500Y-121464039D01*
X145502500Y-121319092D01*
X145502500Y-121319090D01*
X145464984Y-121179080D01*
X145412116Y-121087511D01*
X145392511Y-121053553D01*
X145392506Y-121053547D01*
X145290017Y-120951058D01*
X145290011Y-120951053D01*
X145164488Y-120878582D01*
X145164489Y-120878582D01*
X145159850Y-120877339D01*
X145126381Y-120868371D01*
X145066723Y-120832007D01*
X145036194Y-120769159D01*
X145038701Y-120716505D01*
X145050500Y-120672475D01*
X145050500Y-120527525D01*
X145012984Y-120387515D01*
X144940509Y-120261985D01*
X144838015Y-120159491D01*
X144838013Y-120159490D01*
X144838011Y-120159488D01*
X144712488Y-120087017D01*
X144712489Y-120087017D01*
X144701006Y-120083940D01*
X144572475Y-120049500D01*
X144427525Y-120049500D01*
X144298993Y-120083940D01*
X144287511Y-120087017D01*
X144161988Y-120159488D01*
X144161982Y-120159493D01*
X144059493Y-120261982D01*
X144059488Y-120261988D01*
X143987017Y-120387511D01*
X143987016Y-120387515D01*
X143949500Y-120527525D01*
X143949500Y-120527527D01*
X143949500Y-120672472D01*
X143949501Y-120672484D01*
X143949742Y-120673382D01*
X143953889Y-120701164D01*
X143953958Y-120703181D01*
X144020391Y-121200714D01*
X144021469Y-121205665D01*
X144020503Y-121205875D01*
X144024500Y-121232675D01*
X144024500Y-123016792D01*
X144035750Y-123058779D01*
X144034087Y-123128629D01*
X143994923Y-123186491D01*
X143977979Y-123198256D01*
X143961988Y-123207488D01*
X143961982Y-123207493D01*
X143859493Y-123309982D01*
X143859488Y-123309988D01*
X143787017Y-123435511D01*
X143787016Y-123435515D01*
X143749500Y-123575525D01*
X143749500Y-123575527D01*
X143749500Y-123720476D01*
X143761054Y-123763597D01*
X143764534Y-123782120D01*
X143766050Y-123795897D01*
X143766051Y-123795903D01*
X143918740Y-124279229D01*
X143924500Y-124316582D01*
X143924500Y-125241100D01*
X143904815Y-125308139D01*
X143888181Y-125328781D01*
X142725469Y-126491492D01*
X142678872Y-126520807D01*
X141491094Y-126937901D01*
X141478972Y-126941475D01*
X141474309Y-126942595D01*
X141474300Y-126942597D01*
X141474299Y-126942598D01*
X141342572Y-126985399D01*
X141309552Y-126996128D01*
X141155211Y-127074768D01*
X141116238Y-127103084D01*
X141015072Y-127176586D01*
X141015070Y-127176588D01*
X141015069Y-127176588D01*
X140892588Y-127299069D01*
X140892588Y-127299070D01*
X140892586Y-127299072D01*
X140892582Y-127299078D01*
X140790768Y-127439211D01*
X140712128Y-127593552D01*
X140658597Y-127758302D01*
X140642920Y-127857286D01*
X140631500Y-127929389D01*
X140292500Y-127929389D01*
X140265402Y-127758299D01*
X140211873Y-127593555D01*
X140133232Y-127439212D01*
X140031414Y-127299072D01*
X139908928Y-127176586D01*
X139768788Y-127074768D01*
X139614445Y-126996127D01*
X139449701Y-126942598D01*
X139449699Y-126942597D01*
X139449698Y-126942597D01*
X139304794Y-126919647D01*
X139278611Y-126915500D01*
X139105389Y-126915500D01*
X139079206Y-126919647D01*
X138934302Y-126942597D01*
X138769552Y-126996128D01*
X138615211Y-127074768D01*
X138576238Y-127103084D01*
X138475072Y-127176586D01*
X138475070Y-127176588D01*
X138475069Y-127176588D01*
X138352588Y-127299069D01*
X138352588Y-127299070D01*
X138352586Y-127299072D01*
X138352582Y-127299078D01*
X138250768Y-127439211D01*
X138172128Y-127593552D01*
X138118597Y-127758302D01*
X138102920Y-127857286D01*
X138091500Y-127929389D01*
X137146431Y-127929389D01*
X137117925Y-127823007D01*
X137052099Y-127708993D01*
X136984106Y-127641000D01*
X137027000Y-127641000D01*
X137686763Y-127641000D01*
X137686763Y-127640999D01*
X137671412Y-127593752D01*
X137671410Y-127593746D01*
X137592804Y-127439475D01*
X137491032Y-127299397D01*
X137368602Y-127176967D01*
X137228524Y-127075195D01*
X137074249Y-126996589D01*
X137027000Y-126981236D01*
X137027000Y-127641000D01*
X136984106Y-127641000D01*
X136959007Y-127615901D01*
X136844993Y-127550075D01*
X136717826Y-127516000D01*
X136586174Y-127516000D01*
X136459007Y-127550075D01*
X136344993Y-127615901D01*
X136251901Y-127708993D01*
X136186075Y-127823007D01*
X136152000Y-127950174D01*
X135212500Y-127950174D01*
X135212500Y-127929389D01*
X135194018Y-127812707D01*
X135193985Y-127812487D01*
X135194011Y-127812288D01*
X135192611Y-127797037D01*
X135192221Y-127782092D01*
X135160303Y-127640999D01*
X135617236Y-127640999D01*
X135617237Y-127641000D01*
X136277000Y-127641000D01*
X136277000Y-126981236D01*
X136229750Y-126996589D01*
X136075475Y-127075195D01*
X135935397Y-127176967D01*
X135812967Y-127299397D01*
X135711195Y-127439475D01*
X135632589Y-127593746D01*
X135632587Y-127593752D01*
X135617236Y-127640999D01*
X135160303Y-127640999D01*
X134959989Y-126755515D01*
X134964397Y-126685787D01*
X134993250Y-126640479D01*
X137305094Y-124328635D01*
X137366415Y-124295152D01*
X137430123Y-124298077D01*
X137708379Y-124385982D01*
X137774748Y-124406949D01*
X137782995Y-124409314D01*
X137787808Y-124410695D01*
X137787813Y-124410696D01*
X137787826Y-124410700D01*
X137788634Y-124410908D01*
X137789012Y-124411006D01*
X137802270Y-124414057D01*
X137802276Y-124414057D01*
X137809148Y-124414849D01*
X137809084Y-124415397D01*
X137830661Y-124418272D01*
X137850171Y-124423500D01*
X137995118Y-124423500D01*
X137995121Y-124423500D01*
X138135131Y-124385984D01*
X138260661Y-124313509D01*
X138363155Y-124211015D01*
X138435630Y-124085485D01*
X138473146Y-123945475D01*
X138473146Y-123800525D01*
X138435630Y-123660515D01*
X138422305Y-123637436D01*
X138363157Y-123534988D01*
X138363152Y-123534982D01*
X138260663Y-123432493D01*
X138260657Y-123432488D01*
X138135134Y-123360017D01*
X138135135Y-123360017D01*
X138114631Y-123354523D01*
X137995121Y-123322500D01*
X137899500Y-123322500D01*
X137832461Y-123302815D01*
X137786706Y-123250011D01*
X137775500Y-123198500D01*
X137775500Y-122116049D01*
X137795185Y-122049010D01*
X137842305Y-122006028D01*
X138272961Y-121782148D01*
X138272974Y-121782141D01*
X138284972Y-121775488D01*
X138286043Y-121774856D01*
X138297429Y-121767727D01*
X138297430Y-121767725D01*
X138302837Y-121763436D01*
X138303178Y-121763866D01*
X138320484Y-121750630D01*
X138338015Y-121740509D01*
X138440509Y-121638015D01*
X138512984Y-121512485D01*
X138550500Y-121372475D01*
X138550500Y-121227525D01*
X138512984Y-121087515D01*
X138493374Y-121053550D01*
X138440511Y-120961988D01*
X138440506Y-120961982D01*
X138338017Y-120859493D01*
X138338011Y-120859488D01*
X138212488Y-120787017D01*
X138212489Y-120787017D01*
X138201006Y-120783940D01*
X138072475Y-120749500D01*
X137927525Y-120749500D01*
X137798993Y-120783940D01*
X137787511Y-120787017D01*
X137661988Y-120859488D01*
X137572464Y-120949012D01*
X137511140Y-120982496D01*
X137441449Y-120977512D01*
X137385515Y-120935640D01*
X137361099Y-120870175D01*
X137360783Y-120861330D01*
X137360783Y-118601946D01*
X137380468Y-118534907D01*
X137397102Y-118514265D01*
X137674548Y-118236819D01*
X137735871Y-118203334D01*
X137762229Y-118200500D01*
X138373920Y-118200500D01*
X138471462Y-118181096D01*
X138518913Y-118171658D01*
X138655495Y-118115084D01*
X138778416Y-118032951D01*
X138882951Y-117928416D01*
X138965084Y-117805495D01*
X139021658Y-117668913D01*
X139038250Y-117585500D01*
X139050500Y-117523920D01*
X139050500Y-117376079D01*
X139021659Y-117231092D01*
X139021658Y-117231091D01*
X139021658Y-117231087D01*
X139021656Y-117231082D01*
X138965087Y-117094511D01*
X138965080Y-117094498D01*
X138882951Y-116971584D01*
X138882948Y-116971580D01*
X138778419Y-116867051D01*
X138778415Y-116867048D01*
X138655501Y-116784919D01*
X138655488Y-116784912D01*
X138518917Y-116728343D01*
X138518907Y-116728340D01*
X138373920Y-116699500D01*
X138373918Y-116699500D01*
X137326082Y-116699500D01*
X137326080Y-116699500D01*
X137185194Y-116727525D01*
X137185188Y-116727526D01*
X137181091Y-116728340D01*
X137181084Y-116728342D01*
X137044511Y-116784912D01*
X137044498Y-116784919D01*
X136921584Y-116867048D01*
X136921580Y-116867051D01*
X136027331Y-117761300D01*
X136007495Y-117790988D01*
X135987790Y-117820480D01*
X135945202Y-117884216D01*
X135945195Y-117884228D01*
X135888626Y-118020799D01*
X135888623Y-118020809D01*
X135859783Y-118165796D01*
X135859783Y-118165799D01*
X135859783Y-122926906D01*
X135859783Y-122926908D01*
X135859782Y-122926908D01*
X135888623Y-123071895D01*
X135888626Y-123071905D01*
X135945195Y-123208476D01*
X135945202Y-123208489D01*
X136027331Y-123331403D01*
X136027334Y-123331407D01*
X136131863Y-123435936D01*
X136131867Y-123435939D01*
X136254781Y-123518068D01*
X136254783Y-123518069D01*
X136254788Y-123518072D01*
X136271168Y-123524857D01*
X136325571Y-123568695D01*
X136347638Y-123634988D01*
X136330361Y-123702688D01*
X136311398Y-123727099D01*
X135423536Y-124614961D01*
X135362213Y-124648446D01*
X135292521Y-124643462D01*
X135236588Y-124601590D01*
X135232394Y-124595000D01*
X134405000Y-124595000D01*
X134405000Y-124970000D01*
X134653871Y-124970000D01*
X134770532Y-124946794D01*
X134840124Y-124953021D01*
X134895301Y-124995884D01*
X134918546Y-125061773D01*
X134902479Y-125129770D01*
X134882405Y-125156092D01*
X132877745Y-127160752D01*
X132816422Y-127194237D01*
X132757774Y-127192793D01*
X131816409Y-126938897D01*
X131808237Y-126936836D01*
X131807557Y-126936677D01*
X131799130Y-126934848D01*
X131799132Y-126934848D01*
X131790420Y-126934843D01*
X131771103Y-126933316D01*
X131658616Y-126915500D01*
X131658611Y-126915500D01*
X131485389Y-126915500D01*
X131459206Y-126919647D01*
X131314302Y-126942597D01*
X131149552Y-126996128D01*
X130995211Y-127074768D01*
X130956238Y-127103084D01*
X130855072Y-127176586D01*
X130855070Y-127176588D01*
X130855069Y-127176588D01*
X130732588Y-127299069D01*
X130732588Y-127299070D01*
X130732586Y-127299072D01*
X130732582Y-127299078D01*
X130630768Y-127439211D01*
X130552128Y-127593552D01*
X130498597Y-127758302D01*
X130482920Y-127857286D01*
X130471500Y-127929389D01*
X130132500Y-127929389D01*
X130132500Y-127141326D01*
X130132500Y-127141323D01*
X130132499Y-127141321D01*
X130117967Y-127068264D01*
X130117966Y-127068260D01*
X130100749Y-127042493D01*
X130062601Y-126985399D01*
X129993005Y-126938897D01*
X129979739Y-126930033D01*
X129979735Y-126930032D01*
X129906677Y-126915500D01*
X129906674Y-126915500D01*
X128157326Y-126915500D01*
X128157323Y-126915500D01*
X128084264Y-126930032D01*
X128084260Y-126930033D01*
X128001399Y-126985399D01*
X127946033Y-127068260D01*
X127946032Y-127068264D01*
X127931500Y-127141321D01*
X127010500Y-127141321D01*
X127010500Y-124595000D01*
X128898549Y-124595000D01*
X128967433Y-124698092D01*
X128967439Y-124698100D01*
X129071899Y-124802560D01*
X129071903Y-124802563D01*
X129194735Y-124884637D01*
X129194745Y-124884642D01*
X129331232Y-124941177D01*
X129331240Y-124941179D01*
X129475000Y-124969775D01*
X129475000Y-124969774D01*
X130225000Y-124969774D01*
X130368759Y-124941179D01*
X130368767Y-124941177D01*
X130505254Y-124884642D01*
X130505264Y-124884637D01*
X130628096Y-124802563D01*
X130628100Y-124802560D01*
X130732560Y-124698100D01*
X130732566Y-124698092D01*
X130801451Y-124595000D01*
X132828549Y-124595000D01*
X132897433Y-124698092D01*
X132897439Y-124698100D01*
X133001899Y-124802560D01*
X133001903Y-124802563D01*
X133124735Y-124884637D01*
X133124745Y-124884642D01*
X133261232Y-124941177D01*
X133261240Y-124941179D01*
X133406126Y-124969999D01*
X133406129Y-124970000D01*
X133655000Y-124970000D01*
X133655000Y-124595000D01*
X132828549Y-124595000D01*
X130801451Y-124595000D01*
X130225000Y-124595000D01*
X130225000Y-124969774D01*
X129475000Y-124969774D01*
X129475000Y-124595000D01*
X128898549Y-124595000D01*
X127010500Y-124595000D01*
X127010500Y-124180504D01*
X129250000Y-124180504D01*
X129250000Y-124259496D01*
X129270444Y-124335796D01*
X129309940Y-124404205D01*
X129365795Y-124460060D01*
X129434204Y-124499556D01*
X129510504Y-124520000D01*
X130189496Y-124520000D01*
X130265796Y-124499556D01*
X130334205Y-124460060D01*
X130390060Y-124404205D01*
X130429556Y-124335796D01*
X130450000Y-124259496D01*
X130450000Y-124180504D01*
X133180000Y-124180504D01*
X133180000Y-124259496D01*
X133200444Y-124335796D01*
X133239940Y-124404205D01*
X133295795Y-124460060D01*
X133364204Y-124499556D01*
X133440504Y-124520000D01*
X134619496Y-124520000D01*
X134695796Y-124499556D01*
X134764205Y-124460060D01*
X134820060Y-124404205D01*
X134859556Y-124335796D01*
X134880000Y-124259496D01*
X134880000Y-124180504D01*
X134859556Y-124104204D01*
X134820060Y-124035795D01*
X134764205Y-123979940D01*
X134695796Y-123940444D01*
X134619496Y-123920000D01*
X133440504Y-123920000D01*
X133364204Y-123940444D01*
X133295795Y-123979940D01*
X133239940Y-124035795D01*
X133200444Y-124104204D01*
X133180000Y-124180504D01*
X130450000Y-124180504D01*
X130429556Y-124104204D01*
X130390060Y-124035795D01*
X130334205Y-123979940D01*
X130265796Y-123940444D01*
X130189496Y-123920000D01*
X129510504Y-123920000D01*
X129434204Y-123940444D01*
X129365795Y-123979940D01*
X129309940Y-124035795D01*
X129270444Y-124104204D01*
X129250000Y-124180504D01*
X127010500Y-124180504D01*
X127010500Y-123844999D01*
X128898549Y-123844999D01*
X128898549Y-123845000D01*
X129475000Y-123845000D01*
X130225000Y-123845000D01*
X130801451Y-123845000D01*
X130801450Y-123844999D01*
X132828549Y-123844999D01*
X132828549Y-123845000D01*
X133655000Y-123845000D01*
X134405000Y-123845000D01*
X135231451Y-123845000D01*
X135231450Y-123844999D01*
X135162566Y-123741907D01*
X135162560Y-123741899D01*
X135058100Y-123637439D01*
X135058096Y-123637436D01*
X134935264Y-123555362D01*
X134935254Y-123555357D01*
X134798767Y-123498822D01*
X134798759Y-123498820D01*
X134653872Y-123470000D01*
X134405000Y-123470000D01*
X134405000Y-123845000D01*
X133655000Y-123845000D01*
X133655000Y-123436633D01*
X133658382Y-123425115D01*
X133657241Y-123413166D01*
X133668043Y-123392212D01*
X133674685Y-123369594D01*
X133684556Y-123360181D01*
X133689257Y-123351064D01*
X133717000Y-123329246D01*
X133748168Y-123311251D01*
X133769411Y-123298986D01*
X133853365Y-123250515D01*
X133960515Y-123143365D01*
X134036281Y-123012135D01*
X134075500Y-122865766D01*
X134075500Y-122714234D01*
X134036281Y-122567865D01*
X133960515Y-122436635D01*
X133853365Y-122329485D01*
X133787750Y-122291602D01*
X133722136Y-122253719D01*
X133648950Y-122234109D01*
X133575766Y-122214500D01*
X133424234Y-122214500D01*
X133277863Y-122253719D01*
X133146635Y-122329485D01*
X133146632Y-122329487D01*
X133039487Y-122436632D01*
X133039485Y-122436635D01*
X132963719Y-122567863D01*
X132924500Y-122714234D01*
X132924500Y-122865765D01*
X132963719Y-123012136D01*
X132984445Y-123048033D01*
X133039485Y-123143365D01*
X133146635Y-123250515D01*
X133175377Y-123267109D01*
X133227166Y-123297010D01*
X133275382Y-123347577D01*
X133288604Y-123416184D01*
X133262636Y-123481049D01*
X133212620Y-123518958D01*
X133124742Y-123555359D01*
X133124735Y-123555362D01*
X133001903Y-123637436D01*
X133001899Y-123637439D01*
X132897439Y-123741899D01*
X132897433Y-123741907D01*
X132828549Y-123844999D01*
X130801450Y-123844999D01*
X130732566Y-123741907D01*
X130732560Y-123741899D01*
X130628100Y-123637439D01*
X130628096Y-123637436D01*
X130505264Y-123555362D01*
X130505254Y-123555357D01*
X130368765Y-123498821D01*
X130368761Y-123498820D01*
X130225000Y-123470223D01*
X130225000Y-123845000D01*
X129475000Y-123845000D01*
X129475000Y-123470224D01*
X129474999Y-123470223D01*
X129331238Y-123498820D01*
X129331234Y-123498821D01*
X129194745Y-123555357D01*
X129194735Y-123555362D01*
X129071903Y-123637436D01*
X129071899Y-123637439D01*
X128967439Y-123741899D01*
X128967433Y-123741907D01*
X128898549Y-123844999D01*
X127010500Y-123844999D01*
X127010500Y-115955000D01*
X128898549Y-115955000D01*
X128967433Y-116058092D01*
X128967439Y-116058100D01*
X129071899Y-116162560D01*
X129071903Y-116162563D01*
X129194735Y-116244637D01*
X129194745Y-116244642D01*
X129331232Y-116301177D01*
X129331240Y-116301179D01*
X129475000Y-116329775D01*
X129475000Y-116329774D01*
X130225000Y-116329774D01*
X130368759Y-116301179D01*
X130368767Y-116301177D01*
X130505254Y-116244642D01*
X130505264Y-116244637D01*
X130628096Y-116162563D01*
X130628100Y-116162560D01*
X130732560Y-116058100D01*
X130732566Y-116058092D01*
X130801451Y-115955000D01*
X132828549Y-115955000D01*
X132897433Y-116058092D01*
X132897439Y-116058100D01*
X133001899Y-116162560D01*
X133001903Y-116162563D01*
X133124735Y-116244637D01*
X133124744Y-116244642D01*
X133212619Y-116281041D01*
X133267022Y-116324882D01*
X133289087Y-116391176D01*
X133271808Y-116458875D01*
X133227167Y-116502988D01*
X133146641Y-116549480D01*
X133146632Y-116549487D01*
X133039487Y-116656632D01*
X133039485Y-116656635D01*
X132963719Y-116787863D01*
X132924500Y-116934234D01*
X132924500Y-117085765D01*
X132963719Y-117232136D01*
X133001602Y-117297750D01*
X133039485Y-117363365D01*
X133146635Y-117470515D01*
X133277865Y-117546281D01*
X133424234Y-117585500D01*
X133424236Y-117585500D01*
X133575764Y-117585500D01*
X133575766Y-117585500D01*
X133722135Y-117546281D01*
X133853365Y-117470515D01*
X133960515Y-117363365D01*
X134036281Y-117232135D01*
X134075500Y-117085766D01*
X134075500Y-116934234D01*
X134036281Y-116787865D01*
X134034578Y-116784916D01*
X134026129Y-116770281D01*
X133960515Y-116656635D01*
X133853365Y-116549485D01*
X133792506Y-116514347D01*
X133716999Y-116470753D01*
X133668784Y-116420185D01*
X133655000Y-116363366D01*
X133655000Y-116330000D01*
X134405000Y-116330000D01*
X134653871Y-116330000D01*
X134653873Y-116329999D01*
X134798759Y-116301179D01*
X134798767Y-116301177D01*
X134935254Y-116244642D01*
X134935264Y-116244637D01*
X135058096Y-116162563D01*
X135058100Y-116162560D01*
X135162560Y-116058100D01*
X135162566Y-116058092D01*
X135231451Y-115955000D01*
X134405000Y-115955000D01*
X134405000Y-116330000D01*
X133655000Y-116330000D01*
X133655000Y-115955000D01*
X132828549Y-115955000D01*
X130801451Y-115955000D01*
X130225000Y-115955000D01*
X130225000Y-116329774D01*
X129475000Y-116329774D01*
X129475000Y-115955000D01*
X128898549Y-115955000D01*
X127010500Y-115955000D01*
X127010500Y-115540504D01*
X129250000Y-115540504D01*
X129250000Y-115619496D01*
X129270444Y-115695796D01*
X129309940Y-115764205D01*
X129365795Y-115820060D01*
X129434204Y-115859556D01*
X129510504Y-115880000D01*
X130189496Y-115880000D01*
X130265796Y-115859556D01*
X130334205Y-115820060D01*
X130390060Y-115764205D01*
X130429556Y-115695796D01*
X130450000Y-115619496D01*
X130450000Y-115540504D01*
X133180000Y-115540504D01*
X133180000Y-115619496D01*
X133200444Y-115695796D01*
X133239940Y-115764205D01*
X133295795Y-115820060D01*
X133364204Y-115859556D01*
X133440504Y-115880000D01*
X134619496Y-115880000D01*
X134695796Y-115859556D01*
X134764205Y-115820060D01*
X134820060Y-115764205D01*
X134859556Y-115695796D01*
X134880000Y-115619496D01*
X134880000Y-115540504D01*
X134859556Y-115464204D01*
X134820060Y-115395795D01*
X134764205Y-115339940D01*
X134695796Y-115300444D01*
X134619496Y-115280000D01*
X133440504Y-115280000D01*
X133364204Y-115300444D01*
X133295795Y-115339940D01*
X133239940Y-115395795D01*
X133200444Y-115464204D01*
X133180000Y-115540504D01*
X130450000Y-115540504D01*
X130429556Y-115464204D01*
X130390060Y-115395795D01*
X130334205Y-115339940D01*
X130265796Y-115300444D01*
X130189496Y-115280000D01*
X129510504Y-115280000D01*
X129434204Y-115300444D01*
X129365795Y-115339940D01*
X129309940Y-115395795D01*
X129270444Y-115464204D01*
X129250000Y-115540504D01*
X127010500Y-115540504D01*
X127010500Y-115204999D01*
X128898549Y-115204999D01*
X128898549Y-115205000D01*
X129475000Y-115205000D01*
X130225000Y-115205000D01*
X130801451Y-115205000D01*
X130801450Y-115204999D01*
X132828549Y-115204999D01*
X132828549Y-115205000D01*
X133655000Y-115205000D01*
X134405000Y-115205000D01*
X135231451Y-115205000D01*
X135231450Y-115204999D01*
X135162566Y-115101907D01*
X135162560Y-115101899D01*
X135058100Y-114997439D01*
X135058096Y-114997436D01*
X134935264Y-114915362D01*
X134935254Y-114915357D01*
X134798767Y-114858822D01*
X134798759Y-114858820D01*
X134653872Y-114830000D01*
X134405000Y-114830000D01*
X134405000Y-115205000D01*
X133655000Y-115205000D01*
X133655000Y-114830000D01*
X133406128Y-114830000D01*
X133261240Y-114858820D01*
X133261232Y-114858822D01*
X133124745Y-114915357D01*
X133124735Y-114915362D01*
X133001903Y-114997436D01*
X133001899Y-114997439D01*
X132897439Y-115101899D01*
X132897433Y-115101907D01*
X132828549Y-115204999D01*
X130801450Y-115204999D01*
X130732566Y-115101907D01*
X130732560Y-115101899D01*
X130628100Y-114997439D01*
X130628096Y-114997436D01*
X130505264Y-114915362D01*
X130505254Y-114915357D01*
X130368765Y-114858821D01*
X130368761Y-114858820D01*
X130225000Y-114830223D01*
X130225000Y-115205000D01*
X129475000Y-115205000D01*
X129475000Y-114830224D01*
X129474999Y-114830223D01*
X129331238Y-114858820D01*
X129331234Y-114858821D01*
X129194745Y-114915357D01*
X129194735Y-114915362D01*
X129071903Y-114997436D01*
X129071899Y-114997439D01*
X128967439Y-115101899D01*
X128967433Y-115101907D01*
X128898549Y-115204999D01*
X127010500Y-115204999D01*
X127010500Y-113926500D01*
X127030185Y-113859461D01*
X127082989Y-113813706D01*
X127134500Y-113802500D01*
X168920500Y-113802500D01*
X168987539Y-113822185D01*
G37*
G04 #@! TD.AperFunction*
G04 #@! TA.AperFunction,Conductor*
G36*
X152400591Y-124851527D02*
G01*
X152401287Y-124852289D01*
X152488217Y-124956340D01*
X152490891Y-124964886D01*
X152486739Y-124972820D01*
X152485751Y-124973561D01*
X151906950Y-125361400D01*
X151898169Y-125363158D01*
X151890717Y-125358193D01*
X151888959Y-125349412D01*
X151892162Y-125343409D01*
X152384046Y-124851526D01*
X152392318Y-124848100D01*
X152400591Y-124851527D01*
G37*
G04 #@! TD.AperFunction*
G04 #@! TA.AperFunction,Conductor*
G36*
X142836140Y-126740009D02*
G01*
X142839348Y-126742283D01*
X143005716Y-126908651D01*
X143009143Y-126916924D01*
X143008482Y-126920800D01*
X142569027Y-128172257D01*
X142563053Y-128178928D01*
X142555717Y-128179858D01*
X141738978Y-128018227D01*
X141731527Y-128013260D01*
X141729772Y-128009021D01*
X141723507Y-127977368D01*
X141568141Y-127192279D01*
X141569896Y-127183501D01*
X141575740Y-127178973D01*
X142827200Y-126739517D01*
X142836140Y-126740009D01*
G37*
G04 #@! TD.AperFunction*
G04 #@! TA.AperFunction,Conductor*
G36*
X144581479Y-123703946D02*
G01*
X144588907Y-123708945D01*
X144590626Y-123717733D01*
X144590315Y-123718937D01*
X144427583Y-124234060D01*
X144421823Y-124240917D01*
X144416426Y-124242236D01*
X144183574Y-124242236D01*
X144175301Y-124238809D01*
X144172417Y-124234060D01*
X144009684Y-123718937D01*
X144010460Y-123710016D01*
X144017317Y-123704256D01*
X144018500Y-123703950D01*
X144297682Y-123647469D01*
X144302318Y-123647469D01*
X144581479Y-123703946D01*
G37*
G04 #@! TD.AperFunction*
G04 #@! TA.AperFunction,Conductor*
G36*
X152382067Y-124856308D02*
G01*
X152385698Y-124864493D01*
X152382478Y-124872849D01*
X152382275Y-124873057D01*
X151346090Y-125909242D01*
X151337817Y-125912669D01*
X151336987Y-125912639D01*
X150798710Y-125874336D01*
X150790700Y-125870331D01*
X150787870Y-125861836D01*
X150788069Y-125860364D01*
X150883707Y-125383710D01*
X150883706Y-125383708D01*
X150883707Y-125383707D01*
X150788184Y-124906249D01*
X150789922Y-124897467D01*
X150797362Y-124892483D01*
X150799355Y-124892261D01*
X152373711Y-124853088D01*
X152382067Y-124856308D01*
G37*
G04 #@! TD.AperFunction*
G04 #@! TA.AperFunction,Conductor*
G36*
X148049654Y-127067936D02*
G01*
X149504703Y-127181310D01*
X149512685Y-127185370D01*
X149515459Y-127193884D01*
X149515271Y-127195246D01*
X149353650Y-128011937D01*
X149348683Y-128019388D01*
X149348662Y-128019402D01*
X148655274Y-128481553D01*
X148646489Y-128483290D01*
X148639049Y-128478306D01*
X148638864Y-128478020D01*
X147872452Y-127252187D01*
X147870973Y-127243357D01*
X147874099Y-127237715D01*
X148040486Y-127071328D01*
X148048758Y-127067902D01*
X148049654Y-127067936D01*
G37*
G04 #@! TD.AperFunction*
G04 #@! TA.AperFunction,Conductor*
G36*
X134497769Y-126445401D02*
G01*
X134663526Y-126611158D01*
X134666665Y-126616849D01*
X134943018Y-127838466D01*
X134941501Y-127847292D01*
X134934188Y-127852460D01*
X134933896Y-127852522D01*
X134116057Y-128015756D01*
X134107273Y-128014014D01*
X134107256Y-128014003D01*
X133416955Y-127551605D01*
X133411988Y-127544153D01*
X133413745Y-127535373D01*
X133415101Y-127533704D01*
X134455919Y-126470705D01*
X134481224Y-126445400D01*
X134489496Y-126441974D01*
X134497769Y-126445401D01*
G37*
G04 #@! TD.AperFunction*
G04 #@! TA.AperFunction,Conductor*
G36*
X137860629Y-123583460D02*
G01*
X137866389Y-123590317D01*
X137866700Y-123591521D01*
X137923176Y-123870680D01*
X137923176Y-123875320D01*
X137866700Y-124154478D01*
X137861700Y-124161907D01*
X137852912Y-124163626D01*
X137851708Y-124163315D01*
X137336586Y-124000582D01*
X137329729Y-123994822D01*
X137328410Y-123989425D01*
X137328410Y-123756574D01*
X137331837Y-123748301D01*
X137336586Y-123745417D01*
X137851709Y-123582684D01*
X137860629Y-123583460D01*
G37*
G04 #@! TD.AperFunction*
G04 #@! TA.AperFunction,Conductor*
G36*
X145233479Y-121447511D02*
G01*
X145240907Y-121452510D01*
X145242626Y-121461298D01*
X145242315Y-121462502D01*
X145079583Y-121977625D01*
X145073823Y-121984482D01*
X145068426Y-121985801D01*
X144835574Y-121985801D01*
X144827301Y-121982374D01*
X144824417Y-121977625D01*
X144661684Y-121462502D01*
X144662460Y-121453581D01*
X144669317Y-121447821D01*
X144670500Y-121447515D01*
X144949682Y-121391034D01*
X144954318Y-121391034D01*
X145233479Y-121447511D01*
G37*
G04 #@! TD.AperFunction*
G04 #@! TA.AperFunction,Conductor*
G36*
X137760333Y-121139892D02*
G01*
X137761400Y-121140521D01*
X137987419Y-121290477D01*
X137998734Y-121297984D01*
X138002015Y-121301265D01*
X138159475Y-121538595D01*
X138161194Y-121547383D01*
X138156194Y-121554812D01*
X138155123Y-121555444D01*
X137675808Y-121804621D01*
X137666887Y-121805397D01*
X137662138Y-121802513D01*
X137497486Y-121637861D01*
X137494059Y-121629588D01*
X137495377Y-121624194D01*
X137744557Y-121144874D01*
X137751412Y-121139116D01*
X137760333Y-121139892D01*
G37*
G04 #@! TD.AperFunction*
G04 #@! TA.AperFunction,Conductor*
G36*
X151725071Y-124650899D02*
G01*
X151728587Y-124657186D01*
X151872709Y-125378939D01*
X151870969Y-125387723D01*
X151870956Y-125387743D01*
X151461946Y-125998139D01*
X151454494Y-126003104D01*
X151447113Y-126002150D01*
X150593080Y-125587257D01*
X150193756Y-125393264D01*
X150187813Y-125386567D01*
X150188346Y-125377628D01*
X150190594Y-125374471D01*
X150882840Y-124682225D01*
X150890671Y-124678807D01*
X151716675Y-124647785D01*
X151725071Y-124650899D01*
G37*
G04 #@! TD.AperFunction*
G04 #@! TA.AperFunction,Conductor*
G36*
X165813218Y-126794251D02*
G01*
X165818764Y-126801282D01*
X165819204Y-126804461D01*
X165819204Y-127037043D01*
X165818566Y-127040852D01*
X165428992Y-128172169D01*
X165423059Y-128178876D01*
X165415650Y-128179836D01*
X164598679Y-128017525D01*
X164591232Y-128012551D01*
X164589481Y-128008318D01*
X164428267Y-127192925D01*
X164430024Y-127184147D01*
X164436564Y-127179398D01*
X165804325Y-126793201D01*
X165813218Y-126794251D01*
G37*
G04 #@! TD.AperFunction*
G04 #@! TA.AperFunction,Conductor*
G36*
X144974687Y-126570443D02*
G01*
X144978056Y-126577549D01*
X145104608Y-127839615D01*
X145102023Y-127848188D01*
X145095262Y-127852255D01*
X144279680Y-128015463D01*
X144270895Y-128013726D01*
X144267652Y-128010484D01*
X144160687Y-127850173D01*
X143805718Y-127318174D01*
X143803977Y-127309391D01*
X143808138Y-127302548D01*
X144723794Y-126569581D01*
X144731106Y-126567016D01*
X144966414Y-126567016D01*
X144974687Y-126570443D01*
G37*
G04 #@! TD.AperFunction*
G04 #@! TA.AperFunction,Conductor*
G36*
X176595050Y-121439479D02*
G01*
X176596696Y-121440393D01*
X177183119Y-121831251D01*
X177288662Y-121901597D01*
X177293646Y-121909037D01*
X177293650Y-121909062D01*
X177455673Y-122727783D01*
X177453918Y-122736564D01*
X177447074Y-122741395D01*
X176097803Y-123083785D01*
X176088941Y-123082498D01*
X176086652Y-123080717D01*
X175920311Y-122914376D01*
X175916884Y-122906103D01*
X175917931Y-122901267D01*
X176579559Y-121445289D01*
X176586101Y-121439176D01*
X176595050Y-121439479D01*
G37*
G04 #@! TD.AperFunction*
G04 #@! TA.AperFunction,Conductor*
G36*
X145685391Y-124255928D02*
G01*
X145692820Y-124260928D01*
X145694539Y-124269716D01*
X145694203Y-124270996D01*
X145527619Y-124786136D01*
X145521813Y-124792953D01*
X145516487Y-124794236D01*
X145283635Y-124794236D01*
X145275362Y-124790809D01*
X145272455Y-124785984D01*
X145113574Y-124270879D01*
X145114410Y-124261964D01*
X145121306Y-124256251D01*
X145122420Y-124255966D01*
X145401682Y-124199469D01*
X145406318Y-124199469D01*
X145685391Y-124255928D01*
G37*
G04 #@! TD.AperFunction*
G04 #@! TA.AperFunction,Conductor*
G36*
X145716797Y-126739516D02*
G01*
X146586033Y-127044752D01*
X146590429Y-127047518D01*
X146670970Y-127128059D01*
X146729491Y-127152299D01*
X146763772Y-127166499D01*
X146763773Y-127166499D01*
X146763775Y-127166500D01*
X146763777Y-127166500D01*
X146930745Y-127166500D01*
X146934620Y-127167160D01*
X146968257Y-127178972D01*
X146974928Y-127184946D01*
X146975858Y-127192282D01*
X146814227Y-128009021D01*
X146809260Y-128016472D01*
X146805021Y-128018227D01*
X145988282Y-128179858D01*
X145979501Y-128178103D01*
X145974972Y-128172257D01*
X145920267Y-128016472D01*
X145535517Y-126920798D01*
X145536009Y-126911859D01*
X145538280Y-126908654D01*
X145704652Y-126742282D01*
X145712924Y-126738856D01*
X145716797Y-126739516D01*
G37*
G04 #@! TD.AperFunction*
G04 #@! TA.AperFunction,Conductor*
G36*
X144503998Y-120601688D02*
G01*
X144504057Y-120601727D01*
X144740579Y-120760714D01*
X144745533Y-120768173D01*
X144744317Y-120776038D01*
X144528328Y-121170971D01*
X144521352Y-121176585D01*
X144518063Y-121177057D01*
X144285241Y-121177057D01*
X144276968Y-121173630D01*
X144273644Y-121166905D01*
X144207212Y-120669373D01*
X144209514Y-120660720D01*
X144216488Y-120656357D01*
X144495210Y-120599969D01*
X144503998Y-120601688D01*
G37*
G04 #@! TD.AperFunction*
G04 #@! TA.AperFunction,Conductor*
G36*
X131749893Y-127185587D02*
G01*
X132918593Y-127500799D01*
X132923819Y-127503822D01*
X133090075Y-127670078D01*
X133093502Y-127678351D01*
X133090075Y-127686624D01*
X133090036Y-127686663D01*
X132054302Y-128712775D01*
X132046013Y-128716163D01*
X132037756Y-128712697D01*
X132036349Y-128710977D01*
X131573995Y-128020741D01*
X131572239Y-128011965D01*
X131735379Y-127194593D01*
X131740359Y-127187153D01*
X131749143Y-127185411D01*
X131749893Y-127185587D01*
G37*
G04 #@! TD.AperFunction*
M02*
