G04 #@! TF.GenerationSoftware,KiCad,Pcbnew,9.0.3*
G04 #@! TF.CreationDate,2025-08-03T15:22:30-04:00*
G04 #@! TF.ProjectId,CH32V003F4P6,43483332-5630-4303-9346-3450362e6b69,rev?*
G04 #@! TF.SameCoordinates,Original*
G04 #@! TF.FileFunction,Copper,L1,Top*
G04 #@! TF.FilePolarity,Positive*
%FSLAX46Y46*%
G04 Gerber Fmt 4.6, Leading zero omitted, Abs format (unit mm)*
G04 Created by KiCad (PCBNEW 9.0.3) date 2025-08-03 15:22:30*
%MOMM*%
%LPD*%
G01*
G04 APERTURE LIST*
G04 Aperture macros list*
%AMRoundRect*
0 Rectangle with rounded corners*
0 $1 Rounding radius*
0 $2 $3 $4 $5 $6 $7 $8 $9 X,Y pos of 4 corners*
0 Add a 4 corners polygon primitive as box body*
4,1,4,$2,$3,$4,$5,$6,$7,$8,$9,$2,$3,0*
0 Add four circle primitives for the rounded corners*
1,1,$1+$1,$2,$3*
1,1,$1+$1,$4,$5*
1,1,$1+$1,$6,$7*
1,1,$1+$1,$8,$9*
0 Add four rect primitives between the rounded corners*
20,1,$1+$1,$2,$3,$4,$5,0*
20,1,$1+$1,$4,$5,$6,$7,0*
20,1,$1+$1,$6,$7,$8,$9,0*
20,1,$1+$1,$8,$9,$2,$3,0*%
G04 Aperture macros list end*
G04 #@! TA.AperFunction,ComponentPad*
%ADD10R,1.700000X1.700000*%
G04 #@! TD*
G04 #@! TA.AperFunction,ComponentPad*
%ADD11O,1.700000X1.700000*%
G04 #@! TD*
G04 #@! TA.AperFunction,SMDPad,CuDef*
%ADD12RoundRect,0.250000X0.650000X-0.412500X0.650000X0.412500X-0.650000X0.412500X-0.650000X-0.412500X0*%
G04 #@! TD*
G04 #@! TA.AperFunction,SMDPad,CuDef*
%ADD13R,1.450000X0.600000*%
G04 #@! TD*
G04 #@! TA.AperFunction,SMDPad,CuDef*
%ADD14R,1.450000X0.300000*%
G04 #@! TD*
G04 #@! TA.AperFunction,ComponentPad*
%ADD15O,2.100000X1.000000*%
G04 #@! TD*
G04 #@! TA.AperFunction,ComponentPad*
%ADD16O,1.600000X1.000000*%
G04 #@! TD*
G04 #@! TA.AperFunction,SMDPad,CuDef*
%ADD17RoundRect,0.200000X-0.200000X-0.275000X0.200000X-0.275000X0.200000X0.275000X-0.200000X0.275000X0*%
G04 #@! TD*
G04 #@! TA.AperFunction,SMDPad,CuDef*
%ADD18RoundRect,0.200000X0.200000X0.275000X-0.200000X0.275000X-0.200000X-0.275000X0.200000X-0.275000X0*%
G04 #@! TD*
G04 #@! TA.AperFunction,SMDPad,CuDef*
%ADD19RoundRect,0.100000X-0.637500X-0.100000X0.637500X-0.100000X0.637500X0.100000X-0.637500X0.100000X0*%
G04 #@! TD*
G04 #@! TA.AperFunction,SMDPad,CuDef*
%ADD20RoundRect,0.375000X-0.625000X-0.375000X0.625000X-0.375000X0.625000X0.375000X-0.625000X0.375000X0*%
G04 #@! TD*
G04 #@! TA.AperFunction,SMDPad,CuDef*
%ADD21RoundRect,0.500000X-0.500000X-1.400000X0.500000X-1.400000X0.500000X1.400000X-0.500000X1.400000X0*%
G04 #@! TD*
G04 #@! TA.AperFunction,ViaPad*
%ADD22C,0.600000*%
G04 #@! TD*
G04 #@! TA.AperFunction,Conductor*
%ADD23C,0.625000*%
G04 #@! TD*
G04 #@! TA.AperFunction,Conductor*
%ADD24C,0.600000*%
G04 #@! TD*
G04 #@! TA.AperFunction,Conductor*
%ADD25C,1.300000*%
G04 #@! TD*
G04 #@! TA.AperFunction,Conductor*
%ADD26C,1.500000*%
G04 #@! TD*
G04 #@! TA.AperFunction,Conductor*
%ADD27C,1.000000*%
G04 #@! TD*
G04 #@! TA.AperFunction,Conductor*
%ADD28C,0.250000*%
G04 #@! TD*
G04 #@! TA.AperFunction,Conductor*
%ADD29C,1.350000*%
G04 #@! TD*
G04 #@! TA.AperFunction,Conductor*
%ADD30C,1.250000*%
G04 #@! TD*
G04 #@! TA.AperFunction,Conductor*
%ADD31C,0.200000*%
G04 #@! TD*
G04 APERTURE END LIST*
D10*
X177292000Y-124445000D03*
D11*
X177292000Y-121905000D03*
X177292000Y-119365000D03*
D12*
X165000000Y-118625000D03*
X165000000Y-115500000D03*
D13*
X134945000Y-116650000D03*
X134945000Y-117450000D03*
D14*
X134945000Y-118650000D03*
X134945000Y-119650000D03*
X134945000Y-120150000D03*
X134945000Y-121150000D03*
D13*
X134945000Y-122350000D03*
X134945000Y-123150000D03*
X134945000Y-123150000D03*
X134945000Y-122350000D03*
D14*
X134945000Y-121650000D03*
X134945000Y-120650000D03*
X134945000Y-119150000D03*
X134945000Y-118150000D03*
D13*
X134945000Y-117450000D03*
X134945000Y-116650000D03*
D15*
X134030000Y-115580000D03*
D16*
X129850000Y-115580000D03*
D15*
X134030000Y-124220000D03*
D16*
X129850000Y-124220000D03*
D12*
X162700000Y-118625000D03*
X162700000Y-115500000D03*
D17*
X141831067Y-119905903D03*
X143481067Y-119905903D03*
D18*
X140500000Y-121394376D03*
X138850000Y-121394376D03*
D17*
X141831067Y-121403935D03*
X143481067Y-121403935D03*
D19*
X150237500Y-119675000D03*
X150237500Y-120325000D03*
X150237500Y-120975000D03*
X150237500Y-121625000D03*
X150237500Y-122275000D03*
X150237500Y-122925000D03*
X150237500Y-123575000D03*
X150237500Y-124225000D03*
X150237500Y-124875000D03*
X150237500Y-125525000D03*
X155962500Y-125525000D03*
X155962500Y-124875000D03*
X155962500Y-124225000D03*
X155962500Y-123575000D03*
X155962500Y-122925000D03*
X155962500Y-122275000D03*
X155962500Y-121625000D03*
X155962500Y-120975000D03*
X155962500Y-120325000D03*
X155962500Y-119675000D03*
D18*
X140500000Y-122897187D03*
X138850000Y-122897187D03*
D20*
X167450000Y-115500000D03*
X167450000Y-117800000D03*
D21*
X173750000Y-117800000D03*
D20*
X167450000Y-120100000D03*
D17*
X141831067Y-124399999D03*
X143481067Y-124399999D03*
X141831067Y-122901967D03*
X143481067Y-122901967D03*
D10*
X129075000Y-128200000D03*
D11*
X131615000Y-128200000D03*
X134155000Y-128200000D03*
X136695000Y-128200000D03*
X139235000Y-128200000D03*
X141775000Y-128200000D03*
X144315000Y-128200000D03*
X146855000Y-128200000D03*
X149395000Y-128200000D03*
X151935000Y-128200000D03*
X154475000Y-128200000D03*
X157015000Y-128200000D03*
X159555000Y-128200000D03*
X162095000Y-128200000D03*
X164635000Y-128200000D03*
X167175000Y-128200000D03*
X169715000Y-128200000D03*
X172255000Y-128200000D03*
X174795000Y-128200000D03*
X177335000Y-128200000D03*
D17*
X138850000Y-124399998D03*
X140500000Y-124399998D03*
X138850000Y-119891565D03*
X140500000Y-119891565D03*
D22*
X143057792Y-129484503D03*
X140520835Y-129484503D03*
X166900000Y-121600000D03*
X132909964Y-129484503D03*
X145594749Y-129484503D03*
X165500000Y-121600000D03*
X151700000Y-122700000D03*
X173501276Y-129484503D03*
X167900000Y-114200000D03*
X152400000Y-123000000D03*
X160700000Y-116100000D03*
X155742577Y-129484503D03*
X159900000Y-116500000D03*
X153100000Y-123400000D03*
X176038233Y-129484503D03*
X150668663Y-129484503D03*
X159900000Y-115700000D03*
X153100000Y-122700000D03*
X166500000Y-114200000D03*
X160816491Y-129484503D03*
X164400000Y-114200000D03*
X163353448Y-129484503D03*
X163700000Y-114200000D03*
X137983878Y-129484503D03*
X168300000Y-121600000D03*
X160700000Y-116900000D03*
X153205620Y-129484503D03*
X148131706Y-129484503D03*
X151700000Y-122000000D03*
X130373007Y-129484503D03*
X168600000Y-114200000D03*
X164800000Y-121600000D03*
X160700000Y-115300000D03*
X166200000Y-121600000D03*
X163000000Y-114200000D03*
X162300000Y-114200000D03*
X152400000Y-122300000D03*
X165100000Y-114200000D03*
X160700000Y-114500000D03*
X159900000Y-114900000D03*
X159900000Y-117300000D03*
X152400000Y-121600000D03*
X168427362Y-129484503D03*
X165890405Y-129484503D03*
X153100000Y-122000000D03*
X151700000Y-123400000D03*
X161600000Y-114200000D03*
X167200000Y-114200000D03*
X170964319Y-129484503D03*
X160700000Y-117700000D03*
X165800000Y-114200000D03*
X158279534Y-129484503D03*
X135446921Y-129484503D03*
X167600000Y-121600000D03*
X138650000Y-117800000D03*
X136610283Y-122852988D03*
X136610283Y-122200000D03*
X136975000Y-117875000D03*
X171200000Y-122400000D03*
X170800000Y-117500000D03*
X171800000Y-116100000D03*
X174700000Y-122400000D03*
X175800000Y-119600000D03*
X175800000Y-118200000D03*
X173400000Y-121700000D03*
X171200000Y-121000000D03*
X176700000Y-116800000D03*
X174940000Y-115300000D03*
X173180000Y-115300000D03*
X173400000Y-120300000D03*
X172080000Y-121000000D03*
X172300000Y-115300000D03*
X174500000Y-114600000D03*
X171680000Y-117500000D03*
X173840000Y-121000000D03*
X171680000Y-120300000D03*
X176300000Y-117500000D03*
X173900000Y-122400000D03*
X152900000Y-124900000D03*
X172080000Y-118200000D03*
X173700000Y-114600000D03*
X146944000Y-121100000D03*
X172080000Y-119600000D03*
X171200000Y-118200000D03*
X176300000Y-114600000D03*
X170800000Y-116100000D03*
X172180000Y-116800000D03*
X176700000Y-118200000D03*
X171680000Y-118900000D03*
X170800000Y-118900000D03*
X174300000Y-121700000D03*
X175800000Y-116800000D03*
X177200000Y-116100000D03*
X172800000Y-114600000D03*
X173000000Y-122400000D03*
X177200000Y-117500000D03*
X172080000Y-122400000D03*
X176300000Y-116100000D03*
X175400000Y-114600000D03*
X175400000Y-116100000D03*
X175200000Y-121700000D03*
X172960000Y-121000000D03*
X172560000Y-120300000D03*
X171680000Y-121700000D03*
X152200000Y-124900000D03*
X174060000Y-115300000D03*
X171300000Y-116800000D03*
X170800000Y-120300000D03*
X175820000Y-115300000D03*
X171300000Y-115300000D03*
X151600000Y-124875000D03*
X171200000Y-119600000D03*
X175400000Y-117500000D03*
X176700000Y-115300000D03*
X175200000Y-120300000D03*
X174700000Y-121000000D03*
X153700000Y-124900000D03*
X176100000Y-120300000D03*
X174300000Y-120300000D03*
X170800000Y-121700000D03*
X172560000Y-121700000D03*
X176200000Y-118900000D03*
X171800000Y-114600000D03*
X175600000Y-121000000D03*
X175300000Y-118900000D03*
X138000000Y-121300000D03*
X147496000Y-120457903D03*
X146392000Y-121800000D03*
X148600000Y-119800000D03*
X139700000Y-123700000D03*
D23*
X151525000Y-123575000D02*
X151700000Y-123400000D01*
D24*
X135495000Y-123700000D02*
X135800000Y-123700000D01*
X134945000Y-123150000D02*
X135495000Y-123700000D01*
X134945000Y-116650000D02*
X135550000Y-116650000D01*
X135400000Y-116195000D02*
X135400000Y-116100000D01*
D23*
X150237500Y-123575000D02*
X151525000Y-123575000D01*
D24*
X135550000Y-116650000D02*
X136200000Y-116000000D01*
X134945000Y-116650000D02*
X135400000Y-116195000D01*
X138650000Y-117800000D02*
X138575000Y-117875000D01*
X136975000Y-117875000D02*
X136550000Y-117450000D01*
X136610283Y-122212283D02*
X136600000Y-122202000D01*
D25*
X166475000Y-120100000D02*
X167450000Y-120100000D01*
D24*
X136610283Y-122852988D02*
X136610283Y-122212283D01*
D25*
X165000000Y-118625000D02*
X166475000Y-120100000D01*
D26*
X138650000Y-117800000D02*
X156600000Y-117800000D01*
X156600000Y-117800000D02*
X159052000Y-120252000D01*
D24*
X138575000Y-117875000D02*
X136975000Y-117875000D01*
D26*
X164248000Y-120252000D02*
X165000000Y-119500000D01*
D24*
X136598000Y-122202000D02*
X136450000Y-122350000D01*
D26*
X159052000Y-120252000D02*
X164248000Y-120252000D01*
X137050000Y-117800000D02*
X136975000Y-117875000D01*
D24*
X136600000Y-122202000D02*
X136598000Y-122202000D01*
X136450000Y-122350000D02*
X134945000Y-122350000D01*
D26*
X138650000Y-117800000D02*
X137050000Y-117800000D01*
D27*
X165000000Y-119500000D02*
X165000000Y-118625000D01*
D24*
X136550000Y-117450000D02*
X134945000Y-117450000D01*
D26*
X167450000Y-117800000D02*
X166838246Y-117800000D01*
X166838246Y-117800000D02*
X166077746Y-117039500D01*
D23*
X150237500Y-124875000D02*
X151600000Y-124875000D01*
D26*
X163623000Y-117039500D02*
X162700000Y-117962500D01*
D23*
X149060500Y-127865500D02*
X149395000Y-128200000D01*
D28*
X143503546Y-122696454D02*
X143503546Y-122853929D01*
D23*
X152875000Y-124875000D02*
X152900000Y-124900000D01*
X152900000Y-124900000D02*
X153700000Y-124900000D01*
D28*
X146944000Y-121100000D02*
X145100000Y-121100000D01*
D23*
X150237500Y-124875000D02*
X149384262Y-124875000D01*
D26*
X167450000Y-117800000D02*
X173750000Y-117800000D01*
X152200000Y-124900000D02*
X153700000Y-124900000D01*
D28*
X145100000Y-121100000D02*
X143503546Y-122696454D01*
D23*
X149384262Y-124875000D02*
X149060500Y-125198762D01*
X152175000Y-124875000D02*
X152200000Y-124900000D01*
X151600000Y-124875000D02*
X152875000Y-124875000D01*
X149060500Y-125198762D02*
X149060500Y-127865500D01*
D29*
X162700000Y-117962500D02*
X162700000Y-118625000D01*
D30*
X151600000Y-124875000D02*
X152175000Y-124875000D01*
D26*
X166077746Y-117039500D02*
X163623000Y-117039500D01*
D28*
X135783158Y-118650000D02*
X134945000Y-118650000D01*
X138850000Y-119891565D02*
X137024723Y-119891565D01*
X137024723Y-119891565D02*
X135783158Y-118650000D01*
X135922000Y-119870000D02*
X135922000Y-120578000D01*
X138034901Y-122134901D02*
X136550000Y-120650000D01*
X141850000Y-124400000D02*
X140500000Y-123050000D01*
X140500000Y-123050000D02*
X140500000Y-122900000D01*
X135922000Y-120578000D02*
X135850000Y-120650000D01*
X136550000Y-120650000D02*
X135850000Y-120650000D01*
X135702000Y-119650000D02*
X135922000Y-119870000D01*
X135850000Y-120650000D02*
X134945000Y-120650000D01*
X134945000Y-119650000D02*
X135702000Y-119650000D01*
X140500000Y-122900000D02*
X139734901Y-122134901D01*
X139734901Y-122134901D02*
X138034901Y-122134901D01*
X141853546Y-122853929D02*
X141853546Y-122745111D01*
X141853546Y-121395111D02*
X141850000Y-121391565D01*
X133968000Y-119332000D02*
X133968000Y-119968000D01*
X141853546Y-122745111D02*
X140500000Y-121391565D01*
X133968000Y-119968000D02*
X134150000Y-120150000D01*
D31*
X141883131Y-119926908D02*
X141883131Y-120008434D01*
D28*
X134150000Y-119150000D02*
X133968000Y-119332000D01*
X135750000Y-119150000D02*
X137264565Y-120664565D01*
X134945000Y-119150000D02*
X135750000Y-119150000D01*
X141875000Y-119935039D02*
X141883131Y-119926908D01*
X134945000Y-119150000D02*
X134150000Y-119150000D01*
X140500000Y-121391565D02*
X141875000Y-121391565D01*
X134150000Y-120150000D02*
X134945000Y-120150000D01*
X141875000Y-121391565D02*
X141875000Y-119935039D01*
X141853546Y-122853929D02*
X141853546Y-121395111D01*
D31*
X141883131Y-120008434D02*
X140500000Y-121391565D01*
D28*
X139773000Y-120664565D02*
X140500000Y-121391565D01*
X137264565Y-120664565D02*
X139773000Y-120664565D01*
X134967799Y-121627201D02*
X136994043Y-121627201D01*
X136994043Y-121627201D02*
X138100000Y-122733158D01*
X138100000Y-123649998D02*
X138850000Y-124399998D01*
D31*
X138849998Y-124400000D02*
X138664645Y-124400000D01*
X138850000Y-124399998D02*
X138849998Y-124400000D01*
D28*
X134945000Y-121650000D02*
X134967799Y-121627201D01*
X138100000Y-122733158D02*
X138100000Y-123649998D01*
X170198000Y-127098000D02*
X171300000Y-128200000D01*
X166560377Y-126723000D02*
X166562377Y-126721000D01*
X169258536Y-127098000D02*
X170198000Y-127098000D01*
X169256536Y-127100000D02*
X169258536Y-127098000D01*
X168433159Y-127100000D02*
X169256536Y-127100000D01*
X156875000Y-120975000D02*
X161867000Y-125967000D01*
X165889318Y-126723000D02*
X166560377Y-126723000D01*
X166562377Y-126721000D02*
X168054159Y-126721000D01*
X165133318Y-125967000D02*
X165889318Y-126723000D01*
X161867000Y-125967000D02*
X165133318Y-125967000D01*
X171300000Y-128200000D02*
X172255000Y-128200000D01*
X176595000Y-121905000D02*
X177292000Y-121905000D01*
X168054159Y-126721000D02*
X168433159Y-127100000D01*
X155962500Y-120975000D02*
X156875000Y-120975000D01*
X141719205Y-125590000D02*
X140610523Y-125590000D01*
X135926218Y-126344000D02*
X135549218Y-126721000D01*
X129375000Y-127900000D02*
X129075000Y-128200000D01*
X144037000Y-125213000D02*
X142096205Y-125213000D01*
X133163377Y-127100000D02*
X132073464Y-127100000D01*
X137933059Y-126344000D02*
X135926218Y-126344000D01*
X140254523Y-125946000D02*
X138331059Y-125946000D01*
X135549218Y-126721000D02*
X133542377Y-126721000D01*
X132071464Y-127098000D02*
X131158536Y-127098000D01*
X132073464Y-127100000D02*
X132071464Y-127098000D01*
X140610523Y-125590000D02*
X140254523Y-125946000D01*
X142096205Y-125213000D02*
X141719205Y-125590000D01*
X133542377Y-126721000D02*
X133163377Y-127100000D01*
X150237500Y-119675000D02*
X149575000Y-119675000D01*
X130356536Y-127900000D02*
X129375000Y-127900000D01*
X138331059Y-125946000D02*
X137933059Y-126344000D01*
X149575000Y-119675000D02*
X144037000Y-125213000D01*
X131158536Y-127098000D02*
X130356536Y-127900000D01*
X136082377Y-126721000D02*
X135703377Y-127100000D01*
X135703377Y-127100000D02*
X135600000Y-127100000D01*
X144210000Y-125590000D02*
X142252364Y-125590000D01*
X140766682Y-125967000D02*
X140410682Y-126323000D01*
X138487218Y-126323000D02*
X138089218Y-126721000D01*
X150237500Y-120325000D02*
X149475000Y-120325000D01*
X138089218Y-126721000D02*
X136082377Y-126721000D01*
X142252364Y-125590000D02*
X141875364Y-125967000D01*
X140410682Y-126323000D02*
X138487218Y-126323000D01*
X135598000Y-127098000D02*
X133698536Y-127098000D01*
X149475000Y-120325000D02*
X144210000Y-125590000D01*
X132996536Y-127800000D02*
X132015000Y-127800000D01*
X135600000Y-127100000D02*
X135598000Y-127098000D01*
X133698536Y-127098000D02*
X132996536Y-127800000D01*
X132015000Y-127800000D02*
X131615000Y-128200000D01*
X141875364Y-125967000D02*
X140766682Y-125967000D01*
X144453372Y-125967000D02*
X142408523Y-125967000D01*
X140922841Y-126344000D02*
X140566841Y-126700000D01*
X136238536Y-127098000D02*
X135336536Y-128000000D01*
X140566841Y-126700000D02*
X138643377Y-126700000D01*
X134355000Y-128000000D02*
X134155000Y-128200000D01*
X138643377Y-126700000D02*
X138245377Y-127098000D01*
X142408523Y-125967000D02*
X142031523Y-126344000D01*
X150237500Y-120975000D02*
X149445372Y-120975000D01*
X138245377Y-127098000D02*
X136238536Y-127098000D01*
X149445372Y-120975000D02*
X144453372Y-125967000D01*
X142031523Y-126344000D02*
X140922841Y-126344000D01*
X135336536Y-128000000D02*
X134355000Y-128000000D01*
X150237500Y-122275000D02*
X149211688Y-122275000D01*
X142720841Y-126721000D02*
X142343841Y-127098000D01*
X138000000Y-121300000D02*
X138091565Y-121391565D01*
X138091565Y-121391565D02*
X138850000Y-121391565D01*
X144765688Y-126721000D02*
X142720841Y-126721000D01*
X141318536Y-127098000D02*
X140816536Y-127600000D01*
X140816536Y-127600000D02*
X139835000Y-127600000D01*
X149211688Y-122275000D02*
X144765688Y-126721000D01*
X139835000Y-127600000D02*
X139235000Y-128200000D01*
X142343841Y-127098000D02*
X141318536Y-127098000D01*
X150237500Y-124225000D02*
X149235938Y-124225000D01*
X149235938Y-124225000D02*
X146855000Y-126605938D01*
X146855000Y-126605938D02*
X146855000Y-128200000D01*
X150237500Y-125525000D02*
X151935000Y-127222500D01*
X151935000Y-127222500D02*
X151935000Y-128200000D01*
X143512464Y-121387536D02*
X143481067Y-121387536D01*
X144500000Y-120400000D02*
X143512464Y-121387536D01*
X147496000Y-120457903D02*
X147438097Y-120400000D01*
X147438097Y-120400000D02*
X144500000Y-120400000D01*
X154475000Y-127012500D02*
X154475000Y-128200000D01*
X143481068Y-124400000D02*
X143500000Y-124400000D01*
X145800000Y-121800000D02*
X143481067Y-124118933D01*
X155962500Y-125525000D02*
X154475000Y-127012500D01*
X146392000Y-121800000D02*
X145800000Y-121800000D01*
X143481067Y-124399999D02*
X143481068Y-124400000D01*
X143481067Y-124118933D02*
X143481067Y-124399999D01*
X143592343Y-119800000D02*
X143486440Y-119905903D01*
X156699999Y-124875000D02*
X157015000Y-125190001D01*
X155962500Y-124875000D02*
X156699999Y-124875000D01*
X157015000Y-125190001D02*
X157015000Y-128200000D01*
X148600000Y-119800000D02*
X143592343Y-119800000D01*
X156725000Y-124225000D02*
X159555000Y-127055000D01*
X155962500Y-124225000D02*
X156725000Y-124225000D01*
X159555000Y-127055000D02*
X159555000Y-128200000D01*
X155962500Y-123575000D02*
X156875000Y-123575000D01*
X156875000Y-123575000D02*
X161500000Y-128200000D01*
X161500000Y-128200000D02*
X162095000Y-128200000D01*
X164821000Y-126721000D02*
X166300000Y-128200000D01*
X155962500Y-122275000D02*
X156875000Y-122275000D01*
X156875000Y-122275000D02*
X161321000Y-126721000D01*
X166300000Y-128200000D02*
X167175000Y-128200000D01*
X161321000Y-126721000D02*
X164821000Y-126721000D01*
X156825000Y-121625000D02*
X161544000Y-126344000D01*
X169000000Y-128200000D02*
X169715000Y-128200000D01*
X161544000Y-126344000D02*
X164977159Y-126344000D01*
X165733159Y-127100000D02*
X166716536Y-127100000D01*
X164977159Y-126344000D02*
X165733159Y-127100000D01*
X155962500Y-121625000D02*
X156825000Y-121625000D01*
X167898000Y-127098000D02*
X169000000Y-128200000D01*
X166716536Y-127100000D02*
X166718536Y-127098000D01*
X166718536Y-127098000D02*
X167898000Y-127098000D01*
X171798536Y-127098000D02*
X173098000Y-127098000D01*
X171796536Y-127100000D02*
X171798536Y-127098000D01*
X166045477Y-126346000D02*
X166404218Y-126346000D01*
X168589318Y-126723000D02*
X169100377Y-126723000D01*
X173098000Y-127098000D02*
X174200000Y-128200000D01*
X169100377Y-126723000D02*
X169102377Y-126721000D01*
X174200000Y-128200000D02*
X174795000Y-128200000D01*
X166404218Y-126346000D02*
X166406218Y-126344000D01*
X165289477Y-125590000D02*
X166045477Y-126346000D01*
X170354158Y-126721000D02*
X170733158Y-127100000D01*
X166406218Y-126344000D02*
X168210318Y-126344000D01*
X162090000Y-125590000D02*
X165289477Y-125590000D01*
X168210318Y-126344000D02*
X168589318Y-126723000D01*
X156825000Y-120325000D02*
X162090000Y-125590000D01*
X170733158Y-127100000D02*
X171796536Y-127100000D01*
X155962500Y-120325000D02*
X156825000Y-120325000D01*
X169102377Y-126721000D02*
X170354158Y-126721000D01*
X166201636Y-125969000D02*
X166248059Y-125969000D01*
X166250059Y-125967000D02*
X168366477Y-125967000D01*
X156875000Y-119675000D02*
X162413000Y-125213000D01*
X173961536Y-126721000D02*
X174338536Y-127098000D01*
X170510316Y-126344000D02*
X170889316Y-126723000D01*
X171642377Y-126721000D02*
X173961536Y-126721000D01*
X175598000Y-127098000D02*
X176700000Y-128200000D01*
X168944218Y-126346000D02*
X168946218Y-126344000D01*
X168366477Y-125967000D02*
X168745477Y-126346000D01*
X166248059Y-125969000D02*
X166250059Y-125967000D01*
X176700000Y-128200000D02*
X177335000Y-128200000D01*
X162413000Y-125213000D02*
X165445636Y-125213000D01*
X168745477Y-126346000D02*
X168944218Y-126346000D01*
X171640377Y-126723000D02*
X171642377Y-126721000D01*
X170889316Y-126723000D02*
X171640377Y-126723000D01*
X155962500Y-119675000D02*
X156875000Y-119675000D01*
X168946218Y-126344000D02*
X170510316Y-126344000D01*
X174338536Y-127098000D02*
X175598000Y-127098000D01*
X165445636Y-125213000D02*
X166201636Y-125969000D01*
X155962500Y-122925000D02*
X156925000Y-122925000D01*
X163533000Y-127098000D02*
X164635000Y-128200000D01*
X161098000Y-127098000D02*
X163533000Y-127098000D01*
X156925000Y-122925000D02*
X161098000Y-127098000D01*
X142877000Y-127098000D02*
X141775000Y-128200000D01*
X139700000Y-123700000D02*
X138900000Y-122900000D01*
X150237500Y-122925000D02*
X149094846Y-122925000D01*
X144921846Y-127098000D02*
X142877000Y-127098000D01*
X149094846Y-122925000D02*
X144921846Y-127098000D01*
X149328530Y-121625000D02*
X144609530Y-126344000D01*
X137095000Y-127800000D02*
X136695000Y-128200000D01*
X138076536Y-127800000D02*
X137095000Y-127800000D01*
X139691464Y-127098000D02*
X138778536Y-127098000D01*
X144609530Y-126344000D02*
X142564682Y-126344000D01*
X138778536Y-127098000D02*
X138076536Y-127800000D01*
X139693464Y-127100000D02*
X139691464Y-127098000D01*
X142564682Y-126344000D02*
X142187682Y-126721000D01*
X140700000Y-127100000D02*
X139693464Y-127100000D01*
X150237500Y-121625000D02*
X149328530Y-121625000D01*
X142187682Y-126721000D02*
X141079000Y-126721000D01*
X141079000Y-126721000D02*
X140700000Y-127100000D01*
G04 #@! TA.AperFunction,Conductor*
G36*
X141488719Y-121005911D02*
G01*
X141825314Y-121396107D01*
X141828123Y-121404609D01*
X141825130Y-121411599D01*
X141481639Y-121791153D01*
X141473547Y-121794987D01*
X141466692Y-121793179D01*
X141036495Y-121520011D01*
X141031348Y-121512683D01*
X141031067Y-121510134D01*
X141031067Y-121273223D01*
X141034494Y-121264950D01*
X141036788Y-121263165D01*
X141473884Y-121003493D01*
X141482747Y-121002215D01*
X141488719Y-121005911D01*
G37*
G04 #@! TD.AperFunction*
G04 #@! TA.AperFunction,Conductor*
G36*
X155967638Y-125535121D02*
G01*
X155967660Y-125535175D01*
X156041761Y-125716250D01*
X156041723Y-125725204D01*
X156037540Y-125730337D01*
X155717480Y-125949325D01*
X155708717Y-125951169D01*
X155702600Y-125947942D01*
X155492029Y-125737371D01*
X155488602Y-125729098D01*
X155492029Y-125720825D01*
X155495813Y-125718294D01*
X155952348Y-125528799D01*
X155961301Y-125528793D01*
X155967638Y-125535121D01*
G37*
G04 #@! TD.AperFunction*
G04 #@! TA.AperFunction,Conductor*
G36*
X141442448Y-119771241D02*
G01*
X141825985Y-119903204D01*
X141832692Y-119909135D01*
X141833437Y-119911089D01*
X141963402Y-120371665D01*
X141962351Y-120380557D01*
X141957458Y-120385264D01*
X141332802Y-120703894D01*
X141323875Y-120704601D01*
X141319213Y-120701745D01*
X141188796Y-120571328D01*
X141185369Y-120563055D01*
X141185892Y-120559596D01*
X141427499Y-119778854D01*
X141433217Y-119771966D01*
X141442134Y-119771138D01*
X141442448Y-119771241D01*
G37*
G04 #@! TD.AperFunction*
G04 #@! TA.AperFunction,Conductor*
G36*
X141838969Y-121410175D02*
G01*
X142209122Y-121749314D01*
X142209588Y-121749741D01*
X142213373Y-121757857D01*
X142212340Y-121763199D01*
X141981660Y-122272066D01*
X141975123Y-122278186D01*
X141971004Y-122278935D01*
X141735529Y-122278935D01*
X141727256Y-122275508D01*
X141725231Y-122272788D01*
X141450617Y-121763494D01*
X141449706Y-121754585D01*
X141453009Y-121749316D01*
X141823164Y-121410175D01*
X141831578Y-121407114D01*
X141838969Y-121410175D01*
G37*
G04 #@! TD.AperFunction*
G04 #@! TA.AperFunction,Conductor*
G36*
X156649403Y-122088955D02*
G01*
X156963442Y-122198161D01*
X156970129Y-122204114D01*
X156970649Y-122213054D01*
X156967871Y-122217484D01*
X156805566Y-122379789D01*
X156802690Y-122381897D01*
X156642399Y-122465240D01*
X156633791Y-122466110D01*
X156002115Y-122285802D01*
X155995100Y-122280236D01*
X155994075Y-122271340D01*
X155999641Y-122264325D01*
X156002243Y-122263265D01*
X156642486Y-122088719D01*
X156649403Y-122088955D01*
G37*
G04 #@! TD.AperFunction*
G04 #@! TA.AperFunction,Conductor*
G36*
X140897835Y-122762670D02*
G01*
X140903772Y-122769374D01*
X140903786Y-122769415D01*
X141163658Y-123532334D01*
X141163082Y-123541271D01*
X141160856Y-123544380D01*
X140995449Y-123709787D01*
X140987176Y-123713214D01*
X140981527Y-123711760D01*
X140373692Y-123376666D01*
X140368102Y-123369671D01*
X140368078Y-123363254D01*
X140497635Y-122902378D01*
X140503172Y-122895341D01*
X140505084Y-122894483D01*
X140888898Y-122762127D01*
X140897835Y-122762670D01*
G37*
G04 #@! TD.AperFunction*
G04 #@! TA.AperFunction,Conductor*
G36*
X135589437Y-127565969D02*
G01*
X135595891Y-127569254D01*
X135761794Y-127735157D01*
X135765221Y-127743430D01*
X135761887Y-127751610D01*
X134868531Y-128665298D01*
X134860297Y-128668817D01*
X134853676Y-128666854D01*
X134160811Y-128205051D01*
X134155827Y-128197611D01*
X134155826Y-128193025D01*
X134318629Y-127377344D01*
X134323608Y-127369904D01*
X134331918Y-127368078D01*
X135589437Y-127565969D01*
G37*
G04 #@! TD.AperFunction*
G04 #@! TA.AperFunction,Conductor*
G36*
X129931471Y-127351678D02*
G01*
X130560962Y-127514913D01*
X130566298Y-127517965D01*
X130733671Y-127685338D01*
X130737098Y-127693611D01*
X130734781Y-127700600D01*
X129931740Y-128778763D01*
X129924050Y-128783351D01*
X129915711Y-128781403D01*
X129085847Y-128208681D01*
X129080985Y-128201162D01*
X129082864Y-128192406D01*
X129084214Y-128190785D01*
X129920269Y-127354730D01*
X129928541Y-127351304D01*
X129931471Y-127351678D01*
G37*
G04 #@! TD.AperFunction*
G04 #@! TA.AperFunction,Conductor*
G36*
X134221940Y-120000402D02*
G01*
X134879726Y-120137004D01*
X134887129Y-120142042D01*
X134888802Y-120150839D01*
X134883764Y-120158243D01*
X134878968Y-120160047D01*
X134222687Y-120251898D01*
X134217421Y-120251429D01*
X134023134Y-120187748D01*
X134016340Y-120181915D01*
X134015660Y-120172986D01*
X134018503Y-120168359D01*
X134179013Y-120007849D01*
X134185752Y-120004524D01*
X134218031Y-120000260D01*
X134221940Y-120000402D01*
G37*
G04 #@! TD.AperFunction*
G04 #@! TA.AperFunction,Conductor*
G36*
X150228500Y-120322999D02*
G01*
X150236248Y-120327488D01*
X150238642Y-120334076D01*
X150246597Y-120512962D01*
X150243542Y-120521379D01*
X150235429Y-120525170D01*
X150235085Y-120525181D01*
X149444593Y-120537057D01*
X149436269Y-120533754D01*
X149436144Y-120533631D01*
X149273737Y-120371224D01*
X149270310Y-120362951D01*
X149273737Y-120354678D01*
X149276235Y-120352776D01*
X149496582Y-120227851D01*
X149503895Y-120226433D01*
X150228500Y-120322999D01*
G37*
G04 #@! TD.AperFunction*
G04 #@! TA.AperFunction,Conductor*
G36*
X165007446Y-118633081D02*
G01*
X165505723Y-119282857D01*
X165508038Y-119291508D01*
X165507706Y-119293132D01*
X165217526Y-120329264D01*
X165211994Y-120336307D01*
X165203104Y-120337376D01*
X165197986Y-120334382D01*
X164155469Y-119291865D01*
X164152042Y-119283592D01*
X164152118Y-119282262D01*
X164161298Y-119202651D01*
X164165649Y-119194828D01*
X164166298Y-119194348D01*
X164991563Y-118630539D01*
X165000326Y-118628703D01*
X165007446Y-118633081D01*
G37*
G04 #@! TD.AperFunction*
G04 #@! TA.AperFunction,Conductor*
G36*
X142996218Y-126978251D02*
G01*
X143001764Y-126985282D01*
X143002204Y-126988461D01*
X143002204Y-127221043D01*
X143001566Y-127224852D01*
X142611992Y-128356169D01*
X142606059Y-128362876D01*
X142598650Y-128363836D01*
X141781679Y-128201525D01*
X141774232Y-128196551D01*
X141772481Y-128192318D01*
X141611267Y-127376925D01*
X141613024Y-127368147D01*
X141619564Y-127363398D01*
X141663689Y-127350940D01*
X141666868Y-127350500D01*
X142394064Y-127350500D01*
X142394066Y-127350500D01*
X142486871Y-127312059D01*
X142754418Y-127044511D01*
X142759508Y-127041526D01*
X142987325Y-126977201D01*
X142996218Y-126978251D01*
G37*
G04 #@! TD.AperFunction*
G04 #@! TA.AperFunction,Conductor*
G36*
X141084370Y-120670623D02*
G01*
X141087787Y-120672995D01*
X141218272Y-120803480D01*
X141221699Y-120811753D01*
X141220741Y-120816389D01*
X140904553Y-121549004D01*
X140898129Y-121555242D01*
X140889368Y-121555192D01*
X140505153Y-121397488D01*
X140498801Y-121391176D01*
X140498106Y-121388864D01*
X140410339Y-120929074D01*
X140412153Y-120920307D01*
X140417736Y-120915922D01*
X141075422Y-120670307D01*
X141084370Y-120670623D01*
G37*
G04 #@! TD.AperFunction*
G04 #@! TA.AperFunction,Conductor*
G36*
X156681988Y-120167474D02*
G01*
X156794613Y-120215849D01*
X156950556Y-120282830D01*
X156956806Y-120289243D01*
X156956689Y-120298197D01*
X156954212Y-120301853D01*
X156791584Y-120464481D01*
X156787044Y-120467296D01*
X156641716Y-120516227D01*
X156634772Y-120516390D01*
X156006279Y-120336991D01*
X155999264Y-120331425D01*
X155998239Y-120322529D01*
X156003805Y-120315514D01*
X156006964Y-120314315D01*
X156674849Y-120166799D01*
X156681988Y-120167474D01*
G37*
G04 #@! TD.AperFunction*
G04 #@! TA.AperFunction,Conductor*
G36*
X144054810Y-120673198D02*
G01*
X144058410Y-120675651D01*
X144223901Y-120841142D01*
X144227328Y-120849415D01*
X144226173Y-120854484D01*
X143885880Y-121562318D01*
X143879207Y-121568290D01*
X143870818Y-121568042D01*
X143486231Y-121407099D01*
X143479922Y-121400744D01*
X143479233Y-121398377D01*
X143396520Y-120938380D01*
X143398428Y-120929634D01*
X143403753Y-120925424D01*
X144045859Y-120673035D01*
X144054810Y-120673198D01*
G37*
G04 #@! TD.AperFunction*
G04 #@! TA.AperFunction,Conductor*
G36*
X169547710Y-127369792D02*
G01*
X169551092Y-127375952D01*
X169714173Y-128193025D01*
X169712431Y-128201809D01*
X169709188Y-128205051D01*
X169017520Y-128666056D01*
X169008735Y-128667793D01*
X169001625Y-128663278D01*
X168197898Y-127576784D01*
X168195733Y-127568095D01*
X168199029Y-127561555D01*
X168365359Y-127395225D01*
X168373377Y-127391802D01*
X169539366Y-127366545D01*
X169547710Y-127369792D01*
G37*
G04 #@! TD.AperFunction*
G04 #@! TA.AperFunction,Conductor*
G36*
X151532322Y-126642815D02*
G01*
X151532444Y-126642933D01*
X152400257Y-127486468D01*
X152403801Y-127494692D01*
X152401838Y-127501347D01*
X151940051Y-128194188D01*
X151932611Y-128199172D01*
X151928025Y-128199173D01*
X151112823Y-128036466D01*
X151105381Y-128031486D01*
X151103639Y-128022705D01*
X151346580Y-126815016D01*
X151349774Y-126809055D01*
X151515897Y-126642932D01*
X151524169Y-126639506D01*
X151532322Y-126642815D01*
G37*
G04 #@! TD.AperFunction*
G04 #@! TA.AperFunction,Conductor*
G36*
X146881983Y-120810460D02*
G01*
X146887743Y-120817317D01*
X146888054Y-120818521D01*
X146944530Y-121097680D01*
X146944530Y-121102320D01*
X146888054Y-121381478D01*
X146883054Y-121388907D01*
X146874266Y-121390626D01*
X146873062Y-121390315D01*
X146357940Y-121227582D01*
X146351083Y-121221822D01*
X146349764Y-121216425D01*
X146349764Y-120983574D01*
X146353191Y-120975301D01*
X146357940Y-120972417D01*
X146873063Y-120809684D01*
X146881983Y-120810460D01*
G37*
G04 #@! TD.AperFunction*
G04 #@! TA.AperFunction,Conductor*
G36*
X135672607Y-118522427D02*
G01*
X135878584Y-118582150D01*
X135885576Y-118587745D01*
X135886563Y-118596645D01*
X135883599Y-118601660D01*
X135721546Y-118763713D01*
X135719981Y-118765026D01*
X135674140Y-118797102D01*
X135665397Y-118799038D01*
X135665053Y-118798972D01*
X135004046Y-118661701D01*
X134996642Y-118656663D01*
X134994969Y-118647866D01*
X135000007Y-118640462D01*
X135004394Y-118638723D01*
X135667326Y-118522142D01*
X135672607Y-118522427D01*
G37*
G04 #@! TD.AperFunction*
G04 #@! TA.AperFunction,Conductor*
G36*
X156649403Y-119488955D02*
G01*
X156963442Y-119598161D01*
X156970129Y-119604114D01*
X156970649Y-119613054D01*
X156967871Y-119617484D01*
X156805566Y-119779789D01*
X156802690Y-119781897D01*
X156642399Y-119865240D01*
X156633791Y-119866110D01*
X156002115Y-119685802D01*
X155995100Y-119680236D01*
X155994075Y-119671340D01*
X155999641Y-119664325D01*
X156002243Y-119663265D01*
X156642486Y-119488719D01*
X156649403Y-119488955D01*
G37*
G04 #@! TD.AperFunction*
G04 #@! TA.AperFunction,Conductor*
G36*
X165882868Y-118622181D02*
G01*
X165886295Y-118630454D01*
X165886168Y-118632172D01*
X165737394Y-119634155D01*
X165732789Y-119641836D01*
X165724103Y-119644010D01*
X165723530Y-119643910D01*
X165585094Y-119616266D01*
X165012332Y-119501896D01*
X165004891Y-119496917D01*
X165003151Y-119488133D01*
X165006349Y-119482153D01*
X165866323Y-118622180D01*
X165874595Y-118618754D01*
X165882868Y-118622181D01*
G37*
G04 #@! TD.AperFunction*
G04 #@! TA.AperFunction,Conductor*
G36*
X164964598Y-119340186D02*
G01*
X164969190Y-119347372D01*
X164979070Y-119397236D01*
X164979131Y-119397585D01*
X164979135Y-119397591D01*
X164979133Y-119397596D01*
X164979150Y-119397689D01*
X164987056Y-119447879D01*
X164984959Y-119456585D01*
X164977320Y-119461257D01*
X164968614Y-119459160D01*
X164964022Y-119451974D01*
X164954143Y-119402112D01*
X164954180Y-119401922D01*
X164954078Y-119401758D01*
X164946156Y-119351464D01*
X164948253Y-119342761D01*
X164955892Y-119338089D01*
X164964598Y-119340186D01*
G37*
G04 #@! TD.AperFunction*
G04 #@! TA.AperFunction,Conductor*
G36*
X150228032Y-119673965D02*
G01*
X150236190Y-119677657D01*
X150239289Y-119684415D01*
X150258445Y-119863616D01*
X150255917Y-119872207D01*
X150248307Y-119876464D01*
X149452669Y-119979073D01*
X149444026Y-119976732D01*
X149442900Y-119975742D01*
X149280303Y-119813145D01*
X149276876Y-119804872D01*
X149280303Y-119796599D01*
X149282099Y-119795129D01*
X149496887Y-119652574D01*
X149503732Y-119650629D01*
X150228032Y-119673965D01*
G37*
G04 #@! TD.AperFunction*
G04 #@! TA.AperFunction,Conductor*
G36*
X176003311Y-127321672D02*
G01*
X177487016Y-127365921D01*
X177495183Y-127369593D01*
X177498362Y-127377965D01*
X177498144Y-127379887D01*
X177336650Y-128195937D01*
X177331683Y-128203388D01*
X177331662Y-128203402D01*
X176637849Y-128665837D01*
X176629064Y-128667574D01*
X176621717Y-128662727D01*
X175827033Y-127506318D01*
X175825172Y-127497559D01*
X175828401Y-127491421D01*
X175994728Y-127325094D01*
X176003000Y-127321668D01*
X176003311Y-127321672D01*
G37*
G04 #@! TD.AperFunction*
G04 #@! TA.AperFunction,Conductor*
G36*
X156681988Y-121467474D02*
G01*
X156794613Y-121515849D01*
X156950556Y-121582830D01*
X156956806Y-121589243D01*
X156956689Y-121598197D01*
X156954212Y-121601853D01*
X156791584Y-121764481D01*
X156787044Y-121767296D01*
X156641716Y-121816227D01*
X156634772Y-121816390D01*
X156006279Y-121636991D01*
X155999264Y-121631425D01*
X155998239Y-121622529D01*
X156003805Y-121615514D01*
X156006964Y-121614315D01*
X156674849Y-121466799D01*
X156681988Y-121467474D01*
G37*
G04 #@! TD.AperFunction*
G04 #@! TA.AperFunction,Conductor*
G36*
X141280001Y-123649055D02*
G01*
X141918534Y-123921266D01*
X141924800Y-123927662D01*
X141925416Y-123934331D01*
X141833016Y-124394518D01*
X141828028Y-124401955D01*
X141825921Y-124403066D01*
X141441470Y-124558101D01*
X141432515Y-124558017D01*
X141426437Y-124552079D01*
X141099299Y-123830109D01*
X141099006Y-123821159D01*
X141101681Y-123817009D01*
X141267145Y-123651545D01*
X141275417Y-123648119D01*
X141280001Y-123649055D01*
G37*
G04 #@! TD.AperFunction*
G04 #@! TA.AperFunction,Conductor*
G36*
X156649403Y-120788955D02*
G01*
X156963442Y-120898161D01*
X156970129Y-120904114D01*
X156970649Y-120913054D01*
X156967871Y-120917484D01*
X156805566Y-121079789D01*
X156802690Y-121081897D01*
X156642399Y-121165240D01*
X156633791Y-121166110D01*
X156002115Y-120985802D01*
X155995100Y-120980236D01*
X155994075Y-120971340D01*
X155999641Y-120964325D01*
X156002243Y-120963265D01*
X156642486Y-120788719D01*
X156649403Y-120788955D01*
G37*
G04 #@! TD.AperFunction*
G04 #@! TA.AperFunction,Conductor*
G36*
X172086557Y-127370315D02*
G01*
X172091440Y-127377692D01*
X172254173Y-128193025D01*
X172252431Y-128201809D01*
X172249188Y-128205051D01*
X171556452Y-128666768D01*
X171547667Y-128668505D01*
X171541471Y-128665079D01*
X170704198Y-127781408D01*
X170700996Y-127773048D01*
X170704418Y-127765091D01*
X170870592Y-127598917D01*
X170876686Y-127595696D01*
X172077791Y-127368486D01*
X172086557Y-127370315D01*
G37*
G04 #@! TD.AperFunction*
G04 #@! TA.AperFunction,Conductor*
G36*
X154745730Y-126581607D02*
G01*
X154746480Y-126582295D01*
X154912174Y-126747989D01*
X154915085Y-126752827D01*
X155304865Y-128021797D01*
X155304019Y-128030711D01*
X155297116Y-128036416D01*
X155295971Y-128036706D01*
X154479057Y-128199756D01*
X154470273Y-128198014D01*
X154470256Y-128198003D01*
X154229460Y-128036706D01*
X153779083Y-127735021D01*
X153774117Y-127727570D01*
X153775874Y-127718790D01*
X153776624Y-127717790D01*
X154729247Y-126583044D01*
X154737190Y-126578912D01*
X154745730Y-126581607D01*
G37*
G04 #@! TD.AperFunction*
G04 #@! TA.AperFunction,Conductor*
G36*
X156649403Y-123388955D02*
G01*
X156963442Y-123498161D01*
X156970129Y-123504114D01*
X156970649Y-123513054D01*
X156967871Y-123517484D01*
X156805566Y-123679789D01*
X156802690Y-123681897D01*
X156642399Y-123765240D01*
X156633791Y-123766110D01*
X156002115Y-123585802D01*
X155995100Y-123580236D01*
X155994075Y-123571340D01*
X155999641Y-123564325D01*
X156002243Y-123563265D01*
X156642486Y-123388719D01*
X156649403Y-123388955D01*
G37*
G04 #@! TD.AperFunction*
G04 #@! TA.AperFunction,Conductor*
G36*
X157140912Y-126519760D02*
G01*
X157143186Y-126522968D01*
X157717358Y-127718621D01*
X157717850Y-127727562D01*
X157713321Y-127733408D01*
X157021510Y-128196640D01*
X157012729Y-128198395D01*
X157008490Y-128196640D01*
X156316678Y-127733408D01*
X156311711Y-127725957D01*
X156312640Y-127718624D01*
X156886814Y-126522968D01*
X156893485Y-126516994D01*
X156897361Y-126516333D01*
X157132639Y-126516333D01*
X157140912Y-126519760D01*
G37*
G04 #@! TD.AperFunction*
G04 #@! TA.AperFunction,Conductor*
G36*
X135672584Y-119042460D02*
G01*
X135869584Y-119105274D01*
X135876423Y-119111051D01*
X135877175Y-119119974D01*
X135874301Y-119124693D01*
X135713217Y-119285777D01*
X135708251Y-119288727D01*
X135672814Y-119299170D01*
X135667128Y-119299403D01*
X135008702Y-119162668D01*
X135001298Y-119157630D01*
X134999625Y-119148833D01*
X135004663Y-119141429D01*
X135009359Y-119139640D01*
X135667316Y-119042035D01*
X135672584Y-119042460D01*
G37*
G04 #@! TD.AperFunction*
G04 #@! TA.AperFunction,Conductor*
G36*
X135672544Y-119572064D02*
G01*
X135833132Y-119630295D01*
X135856537Y-119638782D01*
X135863147Y-119644824D01*
X135863548Y-119653769D01*
X135860822Y-119658054D01*
X135700619Y-119818257D01*
X135692346Y-119821684D01*
X135692007Y-119821679D01*
X134955269Y-119800330D01*
X134947099Y-119796665D01*
X134943908Y-119788603D01*
X134944264Y-119659772D01*
X134947714Y-119651508D01*
X134954710Y-119648171D01*
X135667311Y-119571431D01*
X135672544Y-119572064D01*
G37*
G04 #@! TD.AperFunction*
G04 #@! TA.AperFunction,Conductor*
G36*
X138504119Y-119498936D02*
G01*
X138844155Y-119883818D01*
X138847065Y-119892287D01*
X138844155Y-119899312D01*
X138504119Y-120284193D01*
X138496073Y-120288124D01*
X138489226Y-120286415D01*
X138055575Y-120019990D01*
X138050320Y-120012739D01*
X138050000Y-120010021D01*
X138050000Y-119773108D01*
X138053427Y-119764835D01*
X138055570Y-119763142D01*
X138489226Y-119496713D01*
X138498069Y-119495303D01*
X138504119Y-119498936D01*
G37*
G04 #@! TD.AperFunction*
G04 #@! TA.AperFunction,Conductor*
G36*
X160775156Y-127293490D02*
G01*
X160940208Y-127301582D01*
X160947905Y-127304994D01*
X160954970Y-127312059D01*
X161007337Y-127333750D01*
X161047772Y-127350499D01*
X161047773Y-127350499D01*
X161047775Y-127350500D01*
X161047777Y-127350500D01*
X161937617Y-127350500D01*
X161938189Y-127350513D01*
X162247292Y-127365669D01*
X162255387Y-127369497D01*
X162258405Y-127377928D01*
X162258196Y-127379626D01*
X162096650Y-128195937D01*
X162091683Y-128203388D01*
X162091662Y-128203402D01*
X161398022Y-128665722D01*
X161389237Y-128667459D01*
X161381797Y-128662475D01*
X161381774Y-128662440D01*
X160598508Y-127477985D01*
X160596803Y-127469194D01*
X160599992Y-127463260D01*
X160766349Y-127296903D01*
X160774621Y-127293477D01*
X160775156Y-127293490D01*
G37*
G04 #@! TD.AperFunction*
G04 #@! TA.AperFunction,Conductor*
G36*
X143876206Y-123560519D02*
G01*
X144041750Y-123726063D01*
X144045177Y-123734336D01*
X144044926Y-123736747D01*
X143883653Y-124502711D01*
X143878595Y-124510100D01*
X143869793Y-124511749D01*
X143868995Y-124511551D01*
X143486102Y-124402343D01*
X143479086Y-124396779D01*
X143478317Y-124395095D01*
X143310313Y-123933675D01*
X143310703Y-123924731D01*
X143314859Y-123919911D01*
X143861488Y-123559027D01*
X143870279Y-123557330D01*
X143876206Y-123560519D01*
G37*
G04 #@! TD.AperFunction*
G04 #@! TA.AperFunction,Conductor*
G36*
X138129438Y-127565969D02*
G01*
X138135892Y-127569254D01*
X138301794Y-127735156D01*
X138305221Y-127743429D01*
X138301887Y-127751609D01*
X137408531Y-128665298D01*
X137400297Y-128668817D01*
X137393676Y-128666854D01*
X136700811Y-128205051D01*
X136695827Y-128197611D01*
X136695826Y-128193025D01*
X136783929Y-127751609D01*
X136858629Y-127377344D01*
X136863608Y-127369904D01*
X136871918Y-127368078D01*
X138129438Y-127565969D01*
G37*
G04 #@! TD.AperFunction*
G04 #@! TA.AperFunction,Conductor*
G36*
X140659438Y-127474083D02*
G01*
X140667388Y-127478203D01*
X140670139Y-127485740D01*
X140670139Y-127721021D01*
X140667714Y-127728153D01*
X139948417Y-128663562D01*
X139940657Y-128668031D01*
X139932648Y-128666162D01*
X139240515Y-128204347D01*
X139235535Y-128196905D01*
X139235535Y-128192324D01*
X139398775Y-127376585D01*
X139403759Y-127369146D01*
X139411246Y-127367225D01*
X140659438Y-127474083D01*
G37*
G04 #@! TD.AperFunction*
G04 #@! TA.AperFunction,Conductor*
G36*
X134878968Y-119139952D02*
G01*
X134886686Y-119144492D01*
X134888933Y-119153161D01*
X134884393Y-119160879D01*
X134879725Y-119162995D01*
X134221941Y-119299596D01*
X134218030Y-119299739D01*
X134185753Y-119295475D01*
X134179012Y-119292149D01*
X134018505Y-119131642D01*
X134015078Y-119123369D01*
X134018505Y-119115096D01*
X134023131Y-119112252D01*
X134217422Y-119048569D01*
X134222687Y-119048101D01*
X134878968Y-119139952D01*
G37*
G04 #@! TD.AperFunction*
G04 #@! TA.AperFunction,Conductor*
G36*
X150189055Y-120966505D02*
G01*
X150196689Y-120971184D01*
X150198779Y-120979892D01*
X150194100Y-120987527D01*
X150190733Y-120989222D01*
X149602012Y-121174367D01*
X149597892Y-121174890D01*
X149435453Y-121166415D01*
X149427790Y-121163004D01*
X149265407Y-121000621D01*
X149261980Y-120992348D01*
X149265407Y-120984075D01*
X149268217Y-120982002D01*
X149499961Y-120859693D01*
X149507250Y-120858485D01*
X150189055Y-120966505D01*
G37*
G04 #@! TD.AperFunction*
G04 #@! TA.AperFunction,Conductor*
G36*
X173475156Y-127293490D02*
G01*
X174239353Y-127330958D01*
X174243243Y-127331832D01*
X174288311Y-127350500D01*
X174288313Y-127350500D01*
X174637617Y-127350500D01*
X174638189Y-127350513D01*
X174947292Y-127365669D01*
X174955387Y-127369497D01*
X174958405Y-127377928D01*
X174958196Y-127379626D01*
X174796650Y-128195937D01*
X174791683Y-128203388D01*
X174791662Y-128203402D01*
X174098022Y-128665722D01*
X174089237Y-128667459D01*
X174081797Y-128662475D01*
X174081774Y-128662440D01*
X173298508Y-127477985D01*
X173296803Y-127469194D01*
X173299992Y-127463260D01*
X173466349Y-127296903D01*
X173474621Y-127293477D01*
X173475156Y-127293490D01*
G37*
G04 #@! TD.AperFunction*
G04 #@! TA.AperFunction,Conductor*
G36*
X156703418Y-124127851D02*
G01*
X156890780Y-124234076D01*
X156923759Y-124252773D01*
X156929266Y-124259834D01*
X156928167Y-124268721D01*
X156926262Y-124271224D01*
X156763855Y-124433631D01*
X156755582Y-124437058D01*
X156755406Y-124437057D01*
X155964914Y-124425181D01*
X155956694Y-124421630D01*
X155953391Y-124413306D01*
X155953402Y-124412962D01*
X155961358Y-124234073D01*
X155965148Y-124225963D01*
X155971497Y-124222999D01*
X156696103Y-124126432D01*
X156703418Y-124127851D01*
G37*
G04 #@! TD.AperFunction*
G04 #@! TA.AperFunction,Conductor*
G36*
X138291277Y-123660237D02*
G01*
X138931828Y-123921387D01*
X138938195Y-123927683D01*
X138938907Y-123934395D01*
X138851885Y-124394474D01*
X138846980Y-124401967D01*
X138844843Y-124403119D01*
X138460316Y-124561435D01*
X138451362Y-124561416D01*
X138445267Y-124555579D01*
X138110787Y-123841513D01*
X138110382Y-123832568D01*
X138113108Y-123828280D01*
X138278590Y-123662798D01*
X138286862Y-123659372D01*
X138291277Y-123660237D01*
G37*
G04 #@! TD.AperFunction*
G04 #@! TA.AperFunction,Conductor*
G36*
X156703385Y-124792996D02*
G01*
X156916903Y-124920337D01*
X156922253Y-124927518D01*
X156920959Y-124936379D01*
X156919183Y-124938659D01*
X156756641Y-125101201D01*
X156748368Y-125104628D01*
X156747934Y-125104620D01*
X155962056Y-125075443D01*
X155953916Y-125071712D01*
X155950798Y-125063317D01*
X155950810Y-125063071D01*
X155959114Y-124920337D01*
X155961220Y-124884131D01*
X155965121Y-124876073D01*
X155971586Y-124873187D01*
X156696081Y-124791419D01*
X156703385Y-124792996D01*
G37*
G04 #@! TD.AperFunction*
G04 #@! TA.AperFunction,Conductor*
G36*
X143790934Y-119466255D02*
G01*
X144273951Y-119671969D01*
X144280220Y-119678363D01*
X144281067Y-119682733D01*
X144281067Y-119919384D01*
X144277640Y-119927657D01*
X144276686Y-119928512D01*
X143872977Y-120252197D01*
X143864379Y-120254699D01*
X143857757Y-120251698D01*
X143487539Y-119912744D01*
X143483751Y-119904630D01*
X143485768Y-119897531D01*
X143776682Y-119470432D01*
X143784171Y-119465525D01*
X143790934Y-119466255D01*
G37*
G04 #@! TD.AperFunction*
G04 #@! TA.AperFunction,Conductor*
G36*
X159270197Y-126594559D02*
G01*
X159270718Y-126595116D01*
X160252984Y-127717747D01*
X160255853Y-127726229D01*
X160251883Y-127734256D01*
X160250690Y-127735172D01*
X159559743Y-128198003D01*
X159550963Y-128199760D01*
X159550942Y-128199756D01*
X158733788Y-128036659D01*
X158726346Y-128031679D01*
X158724604Y-128022895D01*
X158724825Y-128021983D01*
X159084883Y-126765401D01*
X159087855Y-126760355D01*
X159253652Y-126594558D01*
X159261924Y-126591132D01*
X159270197Y-126594559D01*
G37*
G04 #@! TD.AperFunction*
G04 #@! TA.AperFunction,Conductor*
G36*
X142000441Y-120532362D02*
G01*
X142002985Y-120536175D01*
X142212725Y-121044836D01*
X142212710Y-121053791D01*
X142209812Y-121057923D01*
X141839028Y-121397640D01*
X141830613Y-121400702D01*
X141823158Y-121397583D01*
X141455242Y-121055594D01*
X141451516Y-121047451D01*
X141453085Y-121041159D01*
X141746619Y-120534766D01*
X141753732Y-120529328D01*
X141756741Y-120528935D01*
X141992168Y-120528935D01*
X142000441Y-120532362D01*
G37*
G04 #@! TD.AperFunction*
G04 #@! TA.AperFunction,Conductor*
G36*
X148537983Y-119510460D02*
G01*
X148543743Y-119517317D01*
X148544054Y-119518521D01*
X148600530Y-119797680D01*
X148600530Y-119802320D01*
X148544054Y-120081478D01*
X148539054Y-120088907D01*
X148530266Y-120090626D01*
X148529062Y-120090315D01*
X148013940Y-119927582D01*
X148007083Y-119921822D01*
X148005764Y-119916425D01*
X148005764Y-119683574D01*
X148009191Y-119675301D01*
X148013940Y-119672417D01*
X148529063Y-119509684D01*
X148537983Y-119510460D01*
G37*
G04 #@! TD.AperFunction*
G04 #@! TA.AperFunction,Conductor*
G36*
X135810224Y-120523370D02*
G01*
X135817821Y-120528111D01*
X135820000Y-120534911D01*
X135820000Y-120765088D01*
X135816573Y-120773361D01*
X135810223Y-120776629D01*
X135672152Y-120799641D01*
X135667862Y-120799558D01*
X135240082Y-120711174D01*
X134999455Y-120661457D01*
X134992047Y-120656428D01*
X134990365Y-120647633D01*
X134995395Y-120640224D01*
X134999455Y-120638542D01*
X135667865Y-120500440D01*
X135672148Y-120500358D01*
X135810224Y-120523370D01*
G37*
G04 #@! TD.AperFunction*
G04 #@! TA.AperFunction,Conductor*
G36*
X149564778Y-122083478D02*
G01*
X150198911Y-122263746D01*
X150205932Y-122269304D01*
X150206966Y-122278199D01*
X150201408Y-122285220D01*
X150198911Y-122286254D01*
X149564778Y-122466521D01*
X149558662Y-122466597D01*
X149308783Y-122402261D01*
X149301625Y-122396880D01*
X149300000Y-122390931D01*
X149300000Y-122159068D01*
X149303427Y-122150795D01*
X149308780Y-122147739D01*
X149558663Y-122083402D01*
X149564778Y-122083478D01*
G37*
G04 #@! TD.AperFunction*
G04 #@! TA.AperFunction,Conductor*
G36*
X139942416Y-120652956D02*
G01*
X140582670Y-120915747D01*
X140589022Y-120922059D01*
X140589719Y-120928764D01*
X140501894Y-121388859D01*
X140496978Y-121396342D01*
X140494846Y-121397488D01*
X140110330Y-121555315D01*
X140101375Y-121555286D01*
X140095282Y-121549434D01*
X139761893Y-120834198D01*
X139761504Y-120825252D01*
X139764223Y-120820984D01*
X139929701Y-120655506D01*
X139937973Y-120652080D01*
X139942416Y-120652956D01*
G37*
G04 #@! TD.AperFunction*
G04 #@! TA.AperFunction,Conductor*
G36*
X141365506Y-122076999D02*
G01*
X141655887Y-122244267D01*
X141965053Y-122422355D01*
X141970511Y-122429454D01*
X141970429Y-122435824D01*
X141833509Y-122896831D01*
X141827868Y-122903786D01*
X141825993Y-122904600D01*
X141442323Y-123032489D01*
X141433391Y-123031854D01*
X141427523Y-123025089D01*
X141427473Y-123024933D01*
X141183115Y-122256084D01*
X141183875Y-122247161D01*
X141185989Y-122244270D01*
X141351395Y-122078864D01*
X141359667Y-122075438D01*
X141365506Y-122076999D01*
G37*
G04 #@! TD.AperFunction*
G04 #@! TA.AperFunction,Conductor*
G36*
X167006867Y-127370130D02*
G01*
X167011345Y-127377218D01*
X167174173Y-128193025D01*
X167172431Y-128201809D01*
X167169188Y-128205051D01*
X166476828Y-128666517D01*
X166468043Y-128668254D01*
X166461498Y-128664445D01*
X165646934Y-127724807D01*
X165644105Y-127716311D01*
X165647501Y-127708871D01*
X165813830Y-127542542D01*
X165820416Y-127539239D01*
X166998189Y-127367930D01*
X167006867Y-127370130D01*
G37*
G04 #@! TD.AperFunction*
G04 #@! TA.AperFunction,Conductor*
G36*
X166385545Y-119086430D02*
G01*
X167569819Y-119347593D01*
X167577159Y-119352720D01*
X167578826Y-119361014D01*
X167451773Y-120094551D01*
X167446985Y-120102118D01*
X167444998Y-120103245D01*
X166468129Y-120537568D01*
X166459177Y-120537798D01*
X166457864Y-120537197D01*
X165645334Y-120103245D01*
X165473969Y-120011723D01*
X165468287Y-120004804D01*
X165469162Y-119995892D01*
X165471206Y-119993134D01*
X166374758Y-119089582D01*
X166383030Y-119086156D01*
X166385545Y-119086430D01*
G37*
G04 #@! TD.AperFunction*
G04 #@! TA.AperFunction,Conductor*
G36*
X140898650Y-121232448D02*
G01*
X140904747Y-121238270D01*
X141240316Y-121951166D01*
X141240739Y-121960111D01*
X141238003Y-121964422D01*
X141072522Y-122129903D01*
X141064249Y-122133330D01*
X141059858Y-122132475D01*
X140419014Y-121872968D01*
X140412631Y-121866686D01*
X140411905Y-121859971D01*
X140498124Y-121399904D01*
X140503016Y-121392404D01*
X140505151Y-121391249D01*
X140889696Y-121232439D01*
X140898650Y-121232448D01*
G37*
G04 #@! TD.AperFunction*
G04 #@! TA.AperFunction,Conductor*
G36*
X149374861Y-126589626D02*
G01*
X149376450Y-126591603D01*
X150095589Y-127718115D01*
X150097152Y-127726933D01*
X150092237Y-127734133D01*
X149399039Y-128198295D01*
X149390258Y-128200050D01*
X149390233Y-128200046D01*
X148572036Y-128036314D01*
X148564596Y-128031330D01*
X148562728Y-128023347D01*
X148746685Y-126596403D01*
X148751142Y-126588636D01*
X148758289Y-126586199D01*
X149366588Y-126586199D01*
X149374861Y-126589626D01*
G37*
G04 #@! TD.AperFunction*
G04 #@! TA.AperFunction,Conductor*
G36*
X135808474Y-121502031D02*
G01*
X135816694Y-121505579D01*
X135820000Y-121513730D01*
X135820000Y-121742543D01*
X135816573Y-121750816D01*
X135810517Y-121754031D01*
X135672146Y-121780740D01*
X135667849Y-121780766D01*
X135003471Y-121660743D01*
X134995939Y-121655900D01*
X134994037Y-121647149D01*
X134998880Y-121639617D01*
X135003179Y-121637772D01*
X135668750Y-121500258D01*
X135671273Y-121500018D01*
X135808474Y-121502031D01*
G37*
G04 #@! TD.AperFunction*
G04 #@! TA.AperFunction,Conductor*
G36*
X133049438Y-127565969D02*
G01*
X133055892Y-127569254D01*
X133221794Y-127735156D01*
X133225221Y-127743429D01*
X133221887Y-127751609D01*
X132328531Y-128665298D01*
X132320297Y-128668817D01*
X132313676Y-128666854D01*
X131620811Y-128205051D01*
X131615827Y-128197611D01*
X131615826Y-128193025D01*
X131703929Y-127751609D01*
X131778629Y-127377344D01*
X131783608Y-127369904D01*
X131791918Y-127368078D01*
X133049438Y-127565969D01*
G37*
G04 #@! TD.AperFunction*
G04 #@! TA.AperFunction,Conductor*
G36*
X165882868Y-118622181D02*
G01*
X165886295Y-118630454D01*
X165886168Y-118632172D01*
X165737394Y-119634155D01*
X165732789Y-119641836D01*
X165724103Y-119644010D01*
X165723530Y-119643910D01*
X165585094Y-119616266D01*
X165012332Y-119501896D01*
X165004891Y-119496917D01*
X165003151Y-119488133D01*
X165006349Y-119482153D01*
X165866323Y-118622180D01*
X165874595Y-118618754D01*
X165882868Y-118622181D01*
G37*
G04 #@! TD.AperFunction*
G04 #@! TA.AperFunction,Conductor*
G36*
X164964598Y-119340186D02*
G01*
X164969190Y-119347372D01*
X164979070Y-119397236D01*
X164979131Y-119397585D01*
X164979135Y-119397591D01*
X164979133Y-119397596D01*
X164979150Y-119397689D01*
X164987056Y-119447879D01*
X164984959Y-119456585D01*
X164977320Y-119461257D01*
X164968614Y-119459160D01*
X164964022Y-119451974D01*
X164954143Y-119402112D01*
X164954180Y-119401922D01*
X164954078Y-119401758D01*
X164946156Y-119351464D01*
X164948253Y-119342761D01*
X164955892Y-119338089D01*
X164964598Y-119340186D01*
G37*
G04 #@! TD.AperFunction*
G04 #@! TA.AperFunction,Conductor*
G36*
X140859956Y-120998252D02*
G01*
X141294392Y-121263145D01*
X141299671Y-121270376D01*
X141300000Y-121273133D01*
X141300000Y-121510047D01*
X141296573Y-121518320D01*
X141294458Y-121519995D01*
X140861590Y-121787954D01*
X140852752Y-121789395D01*
X140846685Y-121785776D01*
X140817725Y-121753175D01*
X140505863Y-121402102D01*
X140502931Y-121393643D01*
X140505821Y-121386613D01*
X140845077Y-121000517D01*
X140853111Y-120996565D01*
X140859956Y-120998252D01*
G37*
G04 #@! TD.AperFunction*
G04 #@! TA.AperFunction,Conductor*
G36*
X143958540Y-122077401D02*
G01*
X144123941Y-122242802D01*
X144127368Y-122251075D01*
X144126828Y-122254587D01*
X143884633Y-123024264D01*
X143878881Y-123031127D01*
X143869961Y-123031912D01*
X143869789Y-123031857D01*
X143486139Y-122904591D01*
X143479366Y-122898734D01*
X143478614Y-122896840D01*
X143340667Y-122435814D01*
X143341578Y-122426906D01*
X143346009Y-122422337D01*
X143944400Y-122075550D01*
X143953277Y-122074368D01*
X143958540Y-122077401D01*
G37*
G04 #@! TD.AperFunction*
G04 #@! TA.AperFunction,Conductor*
G36*
X149564778Y-122733478D02*
G01*
X150198911Y-122913746D01*
X150205932Y-122919304D01*
X150206966Y-122928199D01*
X150201408Y-122935220D01*
X150198911Y-122936254D01*
X149564778Y-123116521D01*
X149558662Y-123116597D01*
X149308783Y-123052261D01*
X149301625Y-123046880D01*
X149300000Y-123040931D01*
X149300000Y-122809068D01*
X149303427Y-122800795D01*
X149308780Y-122797739D01*
X149558663Y-122733402D01*
X149564778Y-122733478D01*
G37*
G04 #@! TD.AperFunction*
G04 #@! TA.AperFunction,Conductor*
G36*
X139940136Y-122159087D02*
G01*
X140580984Y-122418594D01*
X140587367Y-122424876D01*
X140588093Y-122431594D01*
X140501875Y-122891657D01*
X140496983Y-122899157D01*
X140494841Y-122900316D01*
X140110304Y-123059122D01*
X140101349Y-123059113D01*
X140095252Y-123053291D01*
X139759682Y-122340397D01*
X139759259Y-122331452D01*
X139761993Y-122327143D01*
X139927477Y-122161659D01*
X139935749Y-122158233D01*
X139940136Y-122159087D01*
G37*
G04 #@! TD.AperFunction*
G04 #@! TA.AperFunction,Conductor*
G36*
X141979277Y-122030394D02*
G01*
X141981660Y-122033836D01*
X142212340Y-122542702D01*
X142212635Y-122551652D01*
X142209588Y-122556160D01*
X141838971Y-122895725D01*
X141830556Y-122898787D01*
X141823163Y-122895725D01*
X141453011Y-122556587D01*
X141449226Y-122548471D01*
X141450617Y-122542407D01*
X141725231Y-122033114D01*
X141732173Y-122027458D01*
X141735529Y-122026967D01*
X141971004Y-122026967D01*
X141979277Y-122030394D01*
G37*
G04 #@! TD.AperFunction*
G04 #@! TA.AperFunction,Conductor*
G36*
X150197426Y-121613334D02*
G01*
X150204526Y-121618789D01*
X150205688Y-121627668D01*
X150200232Y-121634769D01*
X150197600Y-121635883D01*
X149566148Y-121816127D01*
X149557637Y-121815307D01*
X149398400Y-121734403D01*
X149395427Y-121732245D01*
X149233086Y-121569904D01*
X149229659Y-121561631D01*
X149233086Y-121553358D01*
X149237453Y-121550603D01*
X149547742Y-121440880D01*
X149554676Y-121440613D01*
X150197426Y-121613334D01*
G37*
G04 #@! TD.AperFunction*
G04 #@! TA.AperFunction,Conductor*
G36*
X139254975Y-122732686D02*
G01*
X139576922Y-123369443D01*
X139604498Y-123423982D01*
X139605173Y-123432911D01*
X139602330Y-123437534D01*
X139436788Y-123603076D01*
X139428515Y-123606503D01*
X139424563Y-123605815D01*
X138782649Y-123375462D01*
X138776020Y-123369443D01*
X138775047Y-123362610D01*
X138848283Y-122902818D01*
X138852967Y-122895190D01*
X138855174Y-122893931D01*
X139239882Y-122727229D01*
X139248836Y-122727085D01*
X139254975Y-122732686D01*
G37*
G04 #@! TD.AperFunction*
G04 #@! TA.AperFunction,Conductor*
G36*
X149564778Y-124033478D02*
G01*
X150198911Y-124213746D01*
X150205932Y-124219304D01*
X150206966Y-124228199D01*
X150201408Y-124235220D01*
X150198911Y-124236254D01*
X149564778Y-124416521D01*
X149558662Y-124416597D01*
X149308783Y-124352261D01*
X149301625Y-124346880D01*
X149300000Y-124340931D01*
X149300000Y-124109068D01*
X149303427Y-124100795D01*
X149308780Y-124097739D01*
X149558663Y-124033402D01*
X149564778Y-124033478D01*
G37*
G04 #@! TD.AperFunction*
G04 #@! TA.AperFunction,Conductor*
G36*
X156891218Y-122797738D02*
G01*
X156898375Y-122803119D01*
X156900000Y-122809068D01*
X156900000Y-123040931D01*
X156896573Y-123049204D01*
X156891217Y-123052261D01*
X156641337Y-123116597D01*
X156635221Y-123116521D01*
X156001088Y-122936254D01*
X155994067Y-122930696D01*
X155993033Y-122921801D01*
X155998591Y-122914780D01*
X156001088Y-122913746D01*
X156635221Y-122733477D01*
X156641336Y-122733402D01*
X156891218Y-122797738D01*
G37*
G04 #@! TD.AperFunction*
G04 #@! TA.AperFunction,Conductor*
G36*
X146838369Y-126463296D02*
G01*
X146841120Y-126465338D01*
X147005424Y-126629642D01*
X147007591Y-126632632D01*
X147557068Y-127718516D01*
X147557745Y-127727446D01*
X147553130Y-127733526D01*
X146860801Y-128196355D01*
X146852019Y-128198104D01*
X146847788Y-128196349D01*
X146157056Y-127733663D01*
X146152089Y-127726211D01*
X146153251Y-127718423D01*
X146822532Y-126468088D01*
X146829457Y-126462413D01*
X146838369Y-126463296D01*
G37*
G04 #@! TD.AperFunction*
G04 #@! TA.AperFunction,Conductor*
G36*
X163422673Y-126977200D02*
G01*
X164790433Y-127363398D01*
X164797464Y-127368944D01*
X164798732Y-127376927D01*
X164637518Y-128192318D01*
X164632551Y-128199770D01*
X164628320Y-128201525D01*
X163811349Y-128363836D01*
X163802567Y-128362087D01*
X163798007Y-128356169D01*
X163744150Y-128199770D01*
X163614039Y-127821928D01*
X163408434Y-127224852D01*
X163407796Y-127221043D01*
X163407796Y-126988461D01*
X163411223Y-126980188D01*
X163419496Y-126976761D01*
X163422673Y-126977200D01*
G37*
G04 #@! TD.AperFunction*
G04 #@! TA.AperFunction,Conductor*
G36*
X141839028Y-119912197D02*
G01*
X142209812Y-120251914D01*
X142213597Y-120260030D01*
X142212725Y-120265001D01*
X142002985Y-120773663D01*
X141996663Y-120780005D01*
X141992168Y-120780903D01*
X141756741Y-120780903D01*
X141748468Y-120777476D01*
X141746619Y-120775071D01*
X141745803Y-120773663D01*
X141453085Y-120268678D01*
X141451901Y-120259803D01*
X141455240Y-120254244D01*
X141823159Y-119912253D01*
X141831551Y-119909132D01*
X141839028Y-119912197D01*
G37*
G04 #@! TD.AperFunction*
G04 #@! TA.AperFunction,Conductor*
G36*
X146329857Y-121510578D02*
G01*
X146335721Y-121517346D01*
X146336088Y-121518726D01*
X146391743Y-121794520D01*
X146390020Y-121803307D01*
X146389998Y-121803340D01*
X146230929Y-122041071D01*
X146223480Y-122046042D01*
X146216219Y-122045149D01*
X145888652Y-121890838D01*
X145885365Y-121888527D01*
X145723425Y-121726587D01*
X145719998Y-121718314D01*
X145723425Y-121710041D01*
X145728000Y-121707214D01*
X146320927Y-121509938D01*
X146329857Y-121510578D01*
G37*
G04 #@! TD.AperFunction*
G04 #@! TA.AperFunction,Conductor*
G36*
X138514393Y-120989365D02*
G01*
X138844110Y-121387125D01*
X138846751Y-121395682D01*
X138843623Y-121402610D01*
X138494858Y-121773227D01*
X138486692Y-121776904D01*
X138480023Y-121775059D01*
X137986023Y-121458406D01*
X137980907Y-121451056D01*
X137982487Y-121442242D01*
X137984059Y-121440288D01*
X138150170Y-121274177D01*
X138150986Y-121273436D01*
X138497950Y-120987798D01*
X138506514Y-120985187D01*
X138514393Y-120989365D01*
G37*
G04 #@! TD.AperFunction*
G04 #@! TA.AperFunction,Conductor*
G36*
X147434754Y-120167732D02*
G01*
X147439792Y-120175134D01*
X147439805Y-120175195D01*
X147496030Y-120453113D01*
X147494311Y-120461901D01*
X147494272Y-120461960D01*
X147334727Y-120699312D01*
X147327268Y-120704266D01*
X147320427Y-120703547D01*
X146908874Y-120528032D01*
X146902609Y-120521635D01*
X146901764Y-120517270D01*
X146901764Y-120284518D01*
X146905191Y-120276245D01*
X146911082Y-120273063D01*
X147425957Y-120166060D01*
X147434754Y-120167732D01*
G37*
G04 #@! TD.AperFunction*
G04 #@! TA.AperFunction,Conductor*
G36*
X138175952Y-121055402D02*
G01*
X138574265Y-121263284D01*
X138580013Y-121270148D01*
X138580551Y-121273655D01*
X138580551Y-121506476D01*
X138577124Y-121514749D01*
X138570573Y-121518049D01*
X138069514Y-121592601D01*
X138060826Y-121590429D01*
X138056324Y-121583348D01*
X138043113Y-121518049D01*
X137999969Y-121304789D01*
X138001688Y-121296001D01*
X138160830Y-121059247D01*
X138168289Y-121054294D01*
X138175952Y-121055402D01*
G37*
G04 #@! TD.AperFunction*
G04 #@! TA.AperFunction,Conductor*
G36*
X150704182Y-125718292D02*
G01*
X150710510Y-125724629D01*
X150710503Y-125733583D01*
X150707970Y-125737371D01*
X150667309Y-125778033D01*
X150497399Y-125947942D01*
X150489126Y-125951369D01*
X150482519Y-125949325D01*
X150162459Y-125730337D01*
X150157566Y-125722837D01*
X150158237Y-125716252D01*
X150232340Y-125535173D01*
X150238644Y-125528816D01*
X150247598Y-125528778D01*
X150704182Y-125718292D01*
G37*
G04 #@! TD.AperFunction*
G04 #@! TA.AperFunction,Conductor*
G36*
X139375805Y-123195377D02*
G01*
X139855123Y-123444556D01*
X139860883Y-123451412D01*
X139860107Y-123460333D01*
X139859475Y-123461404D01*
X139702015Y-123698734D01*
X139698734Y-123702015D01*
X139461404Y-123859475D01*
X139452616Y-123861194D01*
X139445187Y-123856194D01*
X139444560Y-123855132D01*
X139195377Y-123375806D01*
X139194602Y-123366887D01*
X139197484Y-123362140D01*
X139362139Y-123197485D01*
X139370411Y-123194059D01*
X139375805Y-123195377D01*
G37*
G04 #@! TD.AperFunction*
G04 #@! TA.AperFunction,Conductor*
G36*
X179243039Y-113822185D02*
G01*
X179288794Y-113874989D01*
X179300000Y-113926500D01*
X179300000Y-123076000D01*
X179280315Y-123143039D01*
X179227511Y-123188794D01*
X179176000Y-123200000D01*
X177650596Y-123200000D01*
X177583557Y-123180315D01*
X177537802Y-123127511D01*
X177527858Y-123058353D01*
X177556883Y-122994797D01*
X177612277Y-122958069D01*
X177714445Y-122924873D01*
X177868788Y-122846232D01*
X178008928Y-122744414D01*
X178131414Y-122621928D01*
X178233232Y-122481788D01*
X178311873Y-122327445D01*
X178365402Y-122162701D01*
X178392500Y-121991611D01*
X178392500Y-121818389D01*
X178365402Y-121647299D01*
X178311873Y-121482555D01*
X178233232Y-121328212D01*
X178131414Y-121188072D01*
X178008928Y-121065586D01*
X177868788Y-120963768D01*
X177714445Y-120885127D01*
X177549701Y-120831598D01*
X177549699Y-120831597D01*
X177549698Y-120831597D01*
X177418271Y-120810781D01*
X177378611Y-120804500D01*
X177205389Y-120804500D01*
X177165728Y-120810781D01*
X177034302Y-120831597D01*
X176869552Y-120885128D01*
X176715211Y-120963768D01*
X176635256Y-121021859D01*
X176575072Y-121065586D01*
X176575070Y-121065588D01*
X176575069Y-121065588D01*
X176452588Y-121188069D01*
X176452588Y-121188070D01*
X176452586Y-121188072D01*
X176408859Y-121248256D01*
X176350768Y-121328211D01*
X176272128Y-121482552D01*
X176218597Y-121647302D01*
X176191500Y-121818389D01*
X176191500Y-121991611D01*
X176218598Y-122162701D01*
X176272127Y-122327445D01*
X176350768Y-122481788D01*
X176452586Y-122621928D01*
X176575072Y-122744414D01*
X176715212Y-122846232D01*
X176869555Y-122924873D01*
X176971722Y-122958069D01*
X177029398Y-122997507D01*
X177056596Y-123061865D01*
X177044681Y-123130712D01*
X176997437Y-123182187D01*
X176933404Y-123200000D01*
X169424000Y-123200000D01*
X169356961Y-123180315D01*
X169311206Y-123127511D01*
X169300000Y-123076000D01*
X169300000Y-113926500D01*
X169319685Y-113859461D01*
X169372489Y-113813706D01*
X169424000Y-113802500D01*
X179176000Y-113802500D01*
X179243039Y-113822185D01*
G37*
G04 #@! TD.AperFunction*
G04 #@! TA.AperFunction,Conductor*
G36*
X168987539Y-113822185D02*
G01*
X169033294Y-113874989D01*
X169044500Y-113926500D01*
X169044500Y-116675500D01*
X169024815Y-116742539D01*
X168972011Y-116788294D01*
X168920500Y-116799500D01*
X167304029Y-116799500D01*
X167236990Y-116779815D01*
X167216348Y-116763181D01*
X167101764Y-116648597D01*
X167068279Y-116587274D01*
X167073263Y-116517582D01*
X167075000Y-116514879D01*
X167075000Y-116500000D01*
X167825000Y-116500000D01*
X168138106Y-116500000D01*
X168138118Y-116499999D01*
X168173547Y-116497211D01*
X168173553Y-116497210D01*
X168325185Y-116453156D01*
X168325188Y-116453155D01*
X168461108Y-116372773D01*
X168461116Y-116372767D01*
X168572767Y-116261116D01*
X168572773Y-116261108D01*
X168653155Y-116125188D01*
X168653156Y-116125185D01*
X168697210Y-115973553D01*
X168697211Y-115973547D01*
X168699999Y-115938118D01*
X168700000Y-115938105D01*
X168700000Y-115875000D01*
X167825000Y-115875000D01*
X167825000Y-116500000D01*
X167075000Y-116500000D01*
X167075000Y-115875000D01*
X161550000Y-115875000D01*
X161550000Y-115960344D01*
X161556401Y-116019872D01*
X161556403Y-116019879D01*
X161606645Y-116154586D01*
X161606649Y-116154593D01*
X161692809Y-116269687D01*
X161692812Y-116269690D01*
X161807906Y-116355850D01*
X161807913Y-116355854D01*
X161942620Y-116406096D01*
X161942627Y-116406098D01*
X162002155Y-116412499D01*
X162002172Y-116412500D01*
X162535717Y-116412500D01*
X162602756Y-116432185D01*
X162648511Y-116484989D01*
X162658455Y-116554147D01*
X162629430Y-116617703D01*
X162623398Y-116624181D01*
X161922863Y-117324715D01*
X161922860Y-117324719D01*
X161813372Y-117488579D01*
X161813367Y-117488589D01*
X161737949Y-117670663D01*
X161737947Y-117670669D01*
X161709977Y-117811282D01*
X161687627Y-117861401D01*
X161606204Y-117970168D01*
X161606202Y-117970171D01*
X161555908Y-118105017D01*
X161549501Y-118164616D01*
X161549500Y-118164635D01*
X161549500Y-119085370D01*
X161549501Y-119085374D01*
X161552605Y-119114246D01*
X161540198Y-119183005D01*
X161492588Y-119234142D01*
X161429315Y-119251500D01*
X159517783Y-119251500D01*
X159450744Y-119231815D01*
X159430102Y-119215181D01*
X157384209Y-117169289D01*
X157384206Y-117169285D01*
X157384206Y-117169286D01*
X157377139Y-117162219D01*
X157377139Y-117162218D01*
X157237782Y-117022861D01*
X157237781Y-117022860D01*
X157237780Y-117022859D01*
X157073920Y-116913371D01*
X157073907Y-116913364D01*
X156935239Y-116855927D01*
X156935237Y-116855926D01*
X156927513Y-116852727D01*
X156891836Y-116837949D01*
X156795188Y-116818724D01*
X156791446Y-116817979D01*
X156791436Y-116817977D01*
X156698544Y-116799500D01*
X156698541Y-116799500D01*
X138748541Y-116799500D01*
X136951459Y-116799500D01*
X136951455Y-116799500D01*
X136854812Y-116818724D01*
X136758171Y-116837947D01*
X136758163Y-116837949D01*
X136722487Y-116852727D01*
X136632355Y-116890061D01*
X136584902Y-116899500D01*
X134195325Y-116899500D01*
X134186632Y-116901229D01*
X134117041Y-116895000D01*
X134061864Y-116852136D01*
X134042668Y-116811703D01*
X134036281Y-116787865D01*
X133960515Y-116656635D01*
X133865561Y-116561681D01*
X133832076Y-116500358D01*
X133837060Y-116430666D01*
X133878932Y-116374733D01*
X133944396Y-116350316D01*
X133953242Y-116350000D01*
X135920000Y-116350000D01*
X135920000Y-116325373D01*
X135919999Y-116325371D01*
X135905496Y-116252459D01*
X135905494Y-116252455D01*
X135850239Y-116169760D01*
X135767544Y-116114505D01*
X135767540Y-116114503D01*
X135694627Y-116100000D01*
X135366552Y-116100000D01*
X135299513Y-116080315D01*
X135253758Y-116027511D01*
X135247704Y-115985407D01*
X135231451Y-115955000D01*
X132828549Y-115955000D01*
X132897433Y-116058092D01*
X132897439Y-116058100D01*
X133001899Y-116162560D01*
X133001903Y-116162563D01*
X133124735Y-116244637D01*
X133124744Y-116244642D01*
X133212619Y-116281041D01*
X133267022Y-116324882D01*
X133289087Y-116391176D01*
X133271808Y-116458875D01*
X133227167Y-116502988D01*
X133146641Y-116549480D01*
X133146632Y-116549487D01*
X133039487Y-116656632D01*
X133039485Y-116656635D01*
X132963719Y-116787863D01*
X132924500Y-116934234D01*
X132924500Y-117085765D01*
X132963719Y-117232136D01*
X133001602Y-117297750D01*
X133039485Y-117363365D01*
X133146635Y-117470515D01*
X133277865Y-117546281D01*
X133424234Y-117585500D01*
X133424236Y-117585500D01*
X133575764Y-117585500D01*
X133575766Y-117585500D01*
X133722135Y-117546281D01*
X133783499Y-117510851D01*
X133851399Y-117494379D01*
X133917426Y-117517231D01*
X133960617Y-117572152D01*
X133969500Y-117618239D01*
X133969500Y-117774673D01*
X133984644Y-117850810D01*
X133984644Y-117899190D01*
X133969500Y-117975326D01*
X133969500Y-118324673D01*
X133979671Y-118375810D01*
X133979671Y-118424190D01*
X133969500Y-118475326D01*
X133969500Y-118749960D01*
X133949815Y-118816999D01*
X133925181Y-118843775D01*
X133925184Y-118843778D01*
X133925124Y-118843837D01*
X133920986Y-118848336D01*
X133919439Y-118849522D01*
X133888127Y-118880835D01*
X133737438Y-119031525D01*
X133667527Y-119101435D01*
X133618090Y-119187061D01*
X133618090Y-119187062D01*
X133607801Y-119225460D01*
X133607801Y-119225461D01*
X133607800Y-119225460D01*
X133593220Y-119279879D01*
X133593216Y-119279894D01*
X133592500Y-119282565D01*
X133592500Y-119282566D01*
X133592500Y-120017436D01*
X133596575Y-120032643D01*
X133596576Y-120032646D01*
X133618090Y-120112939D01*
X133618091Y-120112940D01*
X133665188Y-120194514D01*
X133667526Y-120198563D01*
X133919437Y-120450475D01*
X133919443Y-120450478D01*
X133920984Y-120451661D01*
X133921961Y-120452999D01*
X133925184Y-120456222D01*
X133924681Y-120456724D01*
X133962188Y-120508088D01*
X133969500Y-120550039D01*
X133969500Y-120824673D01*
X133979671Y-120875810D01*
X133979671Y-120924190D01*
X133969500Y-120975326D01*
X133969500Y-121324673D01*
X133979671Y-121375810D01*
X133979671Y-121424190D01*
X133969500Y-121475326D01*
X133969500Y-121824673D01*
X133984644Y-121900810D01*
X133984644Y-121949190D01*
X133969500Y-122025326D01*
X133969500Y-122181760D01*
X133949815Y-122248799D01*
X133897011Y-122294554D01*
X133827853Y-122304498D01*
X133783501Y-122289147D01*
X133722142Y-122253721D01*
X133722137Y-122253720D01*
X133722136Y-122253719D01*
X133722135Y-122253719D01*
X133575766Y-122214500D01*
X133424234Y-122214500D01*
X133277863Y-122253719D01*
X133146635Y-122329485D01*
X133146632Y-122329487D01*
X133039487Y-122436632D01*
X133039485Y-122436635D01*
X132963719Y-122567863D01*
X132941165Y-122652037D01*
X132924500Y-122714234D01*
X132924500Y-122865766D01*
X132939081Y-122920185D01*
X132963719Y-123012136D01*
X133000592Y-123076000D01*
X133039485Y-123143365D01*
X133146635Y-123250515D01*
X133209445Y-123286778D01*
X133227166Y-123297010D01*
X133275382Y-123347577D01*
X133288604Y-123416184D01*
X133262636Y-123481049D01*
X133212620Y-123518958D01*
X133124742Y-123555359D01*
X133124735Y-123555362D01*
X133001903Y-123637436D01*
X133001899Y-123637439D01*
X132897439Y-123741899D01*
X132897433Y-123741907D01*
X132828549Y-123844999D01*
X132828549Y-123845000D01*
X135231450Y-123845000D01*
X135243712Y-123822057D01*
X135261058Y-123758833D01*
X135313037Y-123712143D01*
X135366553Y-123700000D01*
X135694626Y-123700000D01*
X135694628Y-123699999D01*
X135767540Y-123685496D01*
X135767544Y-123685494D01*
X135850239Y-123630239D01*
X135905494Y-123547544D01*
X135905496Y-123547540D01*
X135919999Y-123474628D01*
X135920000Y-123474626D01*
X135920000Y-123450000D01*
X135245000Y-123450000D01*
X135245000Y-123706000D01*
X135225315Y-123773039D01*
X135172511Y-123818794D01*
X135121000Y-123830000D01*
X134769000Y-123830000D01*
X134701961Y-123810315D01*
X134656206Y-123757511D01*
X134645000Y-123706000D01*
X134645000Y-123450000D01*
X133953242Y-123450000D01*
X133886203Y-123430315D01*
X133840448Y-123377511D01*
X133830504Y-123308353D01*
X133859529Y-123244797D01*
X133865561Y-123238319D01*
X133912881Y-123190999D01*
X133960515Y-123143365D01*
X134036281Y-123012135D01*
X134042669Y-122988294D01*
X134079032Y-122928635D01*
X134141878Y-122898105D01*
X134186638Y-122898771D01*
X134191153Y-122899669D01*
X134195325Y-122900500D01*
X134195326Y-122900500D01*
X134872525Y-122900500D01*
X135957946Y-122900500D01*
X136024985Y-122920185D01*
X136070740Y-122972989D01*
X136077719Y-122992400D01*
X136095366Y-123058260D01*
X136097300Y-123065476D01*
X136169771Y-123190999D01*
X136169773Y-123191001D01*
X136169774Y-123191003D01*
X136272268Y-123293497D01*
X136272269Y-123293498D01*
X136272271Y-123293499D01*
X136397794Y-123365970D01*
X136397795Y-123365970D01*
X136397798Y-123365972D01*
X136537808Y-123403488D01*
X136537811Y-123403488D01*
X136682755Y-123403488D01*
X136682758Y-123403488D01*
X136822768Y-123365972D01*
X136948298Y-123293497D01*
X137050792Y-123191003D01*
X137123267Y-123065473D01*
X137160783Y-122925463D01*
X137160783Y-122780513D01*
X137160783Y-122624340D01*
X137180468Y-122557301D01*
X137233272Y-122511546D01*
X137302430Y-122501602D01*
X137365986Y-122530627D01*
X137372464Y-122536659D01*
X137688181Y-122852376D01*
X137721666Y-122913699D01*
X137724500Y-122940057D01*
X137724500Y-123699433D01*
X137750090Y-123794936D01*
X137750091Y-123794937D01*
X137750091Y-123794938D01*
X137758969Y-123810315D01*
X137796366Y-123875089D01*
X137799526Y-123880561D01*
X137873330Y-123954365D01*
X137897940Y-123989447D01*
X138187791Y-124608235D01*
X138199500Y-124660834D01*
X138199500Y-124729267D01*
X138202353Y-124759697D01*
X138202353Y-124759699D01*
X138246072Y-124884637D01*
X138247207Y-124887880D01*
X138327850Y-124997148D01*
X138437118Y-125077791D01*
X138479845Y-125092742D01*
X138565299Y-125122644D01*
X138595730Y-125125498D01*
X138595734Y-125125498D01*
X139104270Y-125125498D01*
X139134699Y-125122644D01*
X139134701Y-125122644D01*
X139198790Y-125100217D01*
X139262882Y-125077791D01*
X139372150Y-124997148D01*
X139452793Y-124887880D01*
X139485397Y-124794703D01*
X139497646Y-124759699D01*
X139497646Y-124759697D01*
X139500500Y-124729267D01*
X139500500Y-124374500D01*
X139520185Y-124307461D01*
X139572989Y-124261706D01*
X139624500Y-124250500D01*
X139772472Y-124250500D01*
X139772475Y-124250500D01*
X139912485Y-124212984D01*
X140038015Y-124140509D01*
X140117208Y-124061316D01*
X140144138Y-124046611D01*
X140169954Y-124030021D01*
X140176156Y-124029129D01*
X140178532Y-124027832D01*
X140204889Y-124024998D01*
X140376000Y-124024998D01*
X140443039Y-124044683D01*
X140488794Y-124097487D01*
X140500000Y-124148998D01*
X140500000Y-124650998D01*
X140480315Y-124718037D01*
X140427511Y-124763792D01*
X140376000Y-124774998D01*
X139858238Y-124774998D01*
X139897653Y-124887643D01*
X139978207Y-124996790D01*
X140087354Y-125077344D01*
X140215397Y-125122147D01*
X140245799Y-125124998D01*
X140248693Y-125125134D01*
X140248650Y-125126046D01*
X140312119Y-125144651D01*
X140357897Y-125197435D01*
X140367872Y-125266589D01*
X140338875Y-125330158D01*
X140332807Y-125336678D01*
X140135305Y-125534181D01*
X140073982Y-125567666D01*
X140047624Y-125570500D01*
X138281623Y-125570500D01*
X138233871Y-125583295D01*
X138233870Y-125583294D01*
X138186122Y-125596089D01*
X138186121Y-125596089D01*
X138100494Y-125645527D01*
X137813841Y-125932181D01*
X137752518Y-125965666D01*
X137726160Y-125968500D01*
X135876782Y-125968500D01*
X135781279Y-125994089D01*
X135695656Y-126043525D01*
X135695653Y-126043527D01*
X135430000Y-126309181D01*
X135368677Y-126342666D01*
X135342319Y-126345500D01*
X133492940Y-126345500D01*
X133462798Y-126353576D01*
X133462798Y-126353577D01*
X133397439Y-126371090D01*
X133397438Y-126371090D01*
X133397436Y-126371091D01*
X133311813Y-126420526D01*
X133044159Y-126688181D01*
X132982836Y-126721666D01*
X132956478Y-126724500D01*
X132144216Y-126724500D01*
X132128028Y-126723439D01*
X132120902Y-126722500D01*
X132120900Y-126722500D01*
X132120899Y-126722500D01*
X131207972Y-126722500D01*
X131109100Y-126722500D01*
X131109099Y-126722500D01*
X131076203Y-126731314D01*
X131076203Y-126731315D01*
X131013598Y-126748090D01*
X131013597Y-126748090D01*
X131013595Y-126748091D01*
X130927972Y-126797526D01*
X130927973Y-126797526D01*
X130542483Y-127183014D01*
X130481160Y-127216499D01*
X130423677Y-127215363D01*
X130298929Y-127183014D01*
X129995611Y-127104359D01*
X129963825Y-127098234D01*
X129960892Y-127097860D01*
X129960887Y-127097859D01*
X129928551Y-127095803D01*
X129921944Y-127097118D01*
X129897758Y-127099500D01*
X128200323Y-127099500D01*
X128127264Y-127114032D01*
X128127260Y-127114033D01*
X128044399Y-127169399D01*
X127989033Y-127252260D01*
X127989032Y-127252264D01*
X127974500Y-127325321D01*
X127974500Y-129074678D01*
X127989032Y-129147735D01*
X127989033Y-129147739D01*
X127989034Y-129147740D01*
X128044399Y-129230601D01*
X128127260Y-129285966D01*
X128127264Y-129285967D01*
X128200321Y-129300499D01*
X128200324Y-129300500D01*
X128200326Y-129300500D01*
X129949676Y-129300500D01*
X129949677Y-129300499D01*
X130022740Y-129285966D01*
X130105601Y-129230601D01*
X130160966Y-129147740D01*
X130175500Y-129074674D01*
X130175500Y-128920325D01*
X130195185Y-128853286D01*
X130200053Y-128846255D01*
X130232017Y-128803340D01*
X130383082Y-128600519D01*
X130438912Y-128558515D01*
X130508592Y-128553361D01*
X130569996Y-128586698D01*
X130593012Y-128618296D01*
X130673633Y-128776524D01*
X130673768Y-128776788D01*
X130775586Y-128916928D01*
X130898072Y-129039414D01*
X131038212Y-129141232D01*
X131192555Y-129219873D01*
X131357299Y-129273402D01*
X131528389Y-129300500D01*
X131528390Y-129300500D01*
X131701610Y-129300500D01*
X131701611Y-129300500D01*
X131872701Y-129273402D01*
X132037445Y-129219873D01*
X132191788Y-129141232D01*
X132331928Y-129039414D01*
X132454414Y-128916928D01*
X132454651Y-128916602D01*
X132492636Y-128864320D01*
X132507289Y-128848602D01*
X132506958Y-128848278D01*
X132749613Y-128600099D01*
X132890254Y-128456256D01*
X132951195Y-128422084D01*
X133020938Y-128426284D01*
X133077340Y-128467523D01*
X133096845Y-128504626D01*
X133135127Y-128622445D01*
X133213768Y-128776788D01*
X133315586Y-128916928D01*
X133438072Y-129039414D01*
X133578212Y-129141232D01*
X133732555Y-129219873D01*
X133897299Y-129273402D01*
X134068389Y-129300500D01*
X134068390Y-129300500D01*
X134241610Y-129300500D01*
X134241611Y-129300500D01*
X134412701Y-129273402D01*
X134577445Y-129219873D01*
X134731788Y-129141232D01*
X134871928Y-129039414D01*
X134994414Y-128916928D01*
X134994651Y-128916602D01*
X135032636Y-128864320D01*
X135047289Y-128848602D01*
X135046958Y-128848278D01*
X135289613Y-128600099D01*
X135430254Y-128456256D01*
X135491195Y-128422084D01*
X135560938Y-128426284D01*
X135617340Y-128467523D01*
X135636845Y-128504626D01*
X135675127Y-128622445D01*
X135753768Y-128776788D01*
X135855586Y-128916928D01*
X135978072Y-129039414D01*
X136118212Y-129141232D01*
X136272555Y-129219873D01*
X136437299Y-129273402D01*
X136608389Y-129300500D01*
X136608390Y-129300500D01*
X136781610Y-129300500D01*
X136781611Y-129300500D01*
X136952701Y-129273402D01*
X137117445Y-129219873D01*
X137271788Y-129141232D01*
X137411928Y-129039414D01*
X137534414Y-128916928D01*
X137534651Y-128916602D01*
X137572636Y-128864320D01*
X137587289Y-128848602D01*
X137586958Y-128848278D01*
X137829613Y-128600099D01*
X137970254Y-128456256D01*
X138031195Y-128422084D01*
X138100938Y-128426284D01*
X138157340Y-128467523D01*
X138176845Y-128504626D01*
X138215127Y-128622445D01*
X138293768Y-128776788D01*
X138395586Y-128916928D01*
X138518072Y-129039414D01*
X138658212Y-129141232D01*
X138812555Y-129219873D01*
X138977299Y-129273402D01*
X139148389Y-129300500D01*
X139148390Y-129300500D01*
X139321610Y-129300500D01*
X139321611Y-129300500D01*
X139492701Y-129273402D01*
X139657445Y-129219873D01*
X139811788Y-129141232D01*
X139951928Y-129039414D01*
X140074414Y-128916928D01*
X140127346Y-128844072D01*
X140145997Y-128823650D01*
X140150958Y-128819309D01*
X140479360Y-128392238D01*
X140535828Y-128351096D01*
X140605578Y-128347013D01*
X140666464Y-128381288D01*
X140699153Y-128443039D01*
X140700128Y-128448425D01*
X140701598Y-128457701D01*
X140755127Y-128622445D01*
X140833768Y-128776788D01*
X140935586Y-128916928D01*
X141058072Y-129039414D01*
X141198212Y-129141232D01*
X141352555Y-129219873D01*
X141517299Y-129273402D01*
X141688389Y-129300500D01*
X141688390Y-129300500D01*
X141861610Y-129300500D01*
X141861611Y-129300500D01*
X142032701Y-129273402D01*
X142197445Y-129219873D01*
X142351788Y-129141232D01*
X142491928Y-129039414D01*
X142614414Y-128916928D01*
X142716232Y-128776788D01*
X142794873Y-128622445D01*
X142810289Y-128575000D01*
X143280236Y-128575000D01*
X143295587Y-128622247D01*
X143295589Y-128622253D01*
X143374195Y-128776524D01*
X143475967Y-128916602D01*
X143598397Y-129039032D01*
X143738475Y-129140804D01*
X143892746Y-129219410D01*
X143892752Y-129219412D01*
X143939999Y-129234763D01*
X143940000Y-129234763D01*
X144690000Y-129234763D01*
X144737247Y-129219412D01*
X144737253Y-129219410D01*
X144891524Y-129140804D01*
X145031602Y-129039032D01*
X145154032Y-128916602D01*
X145255804Y-128776524D01*
X145334410Y-128622253D01*
X145334412Y-128622247D01*
X145349763Y-128575000D01*
X144690000Y-128575000D01*
X144690000Y-129234763D01*
X143940000Y-129234763D01*
X143940000Y-128575000D01*
X143280236Y-128575000D01*
X142810289Y-128575000D01*
X142848402Y-128457701D01*
X142849103Y-128453267D01*
X142851820Y-128444592D01*
X142852241Y-128443960D01*
X142852913Y-128441266D01*
X142906169Y-128286610D01*
X143056743Y-127849343D01*
X143097181Y-127792368D01*
X143162005Y-127766299D01*
X143230633Y-127779415D01*
X143274302Y-127816833D01*
X143280236Y-127825000D01*
X143982894Y-127825000D01*
X143914901Y-127892993D01*
X143849075Y-128007007D01*
X143815000Y-128134174D01*
X143815000Y-128265826D01*
X143849075Y-128392993D01*
X143914901Y-128507007D01*
X144007993Y-128600099D01*
X144122007Y-128665925D01*
X144249174Y-128700000D01*
X144380826Y-128700000D01*
X144507993Y-128665925D01*
X144622007Y-128600099D01*
X144715099Y-128507007D01*
X144780925Y-128392993D01*
X144815000Y-128265826D01*
X144815000Y-128134174D01*
X144809431Y-128113389D01*
X145754500Y-128113389D01*
X145754500Y-128286611D01*
X145755438Y-128292532D01*
X145780846Y-128452957D01*
X145781598Y-128457701D01*
X145835127Y-128622445D01*
X145913768Y-128776788D01*
X146015586Y-128916928D01*
X146138072Y-129039414D01*
X146278212Y-129141232D01*
X146432555Y-129219873D01*
X146597299Y-129273402D01*
X146768389Y-129300500D01*
X146768390Y-129300500D01*
X146941610Y-129300500D01*
X146941611Y-129300500D01*
X147112701Y-129273402D01*
X147277445Y-129219873D01*
X147431788Y-129141232D01*
X147571928Y-129039414D01*
X147694414Y-128916928D01*
X147796232Y-128776788D01*
X147874873Y-128622445D01*
X147928402Y-128457701D01*
X147955500Y-128286611D01*
X147955500Y-128113389D01*
X147928402Y-127942299D01*
X147874873Y-127777555D01*
X147796232Y-127623212D01*
X147796227Y-127623205D01*
X147793682Y-127619051D01*
X147794295Y-127618675D01*
X147788581Y-127608195D01*
X147787794Y-127608594D01*
X147782360Y-127597855D01*
X147356471Y-126756208D01*
X147343767Y-126687504D01*
X147370224Y-126622837D01*
X147379423Y-126612550D01*
X148285820Y-125706154D01*
X148347142Y-125672670D01*
X148416834Y-125677654D01*
X148472767Y-125719526D01*
X148497184Y-125784990D01*
X148497500Y-125793836D01*
X148497500Y-126531326D01*
X148494337Y-126559153D01*
X148493282Y-126563732D01*
X148309325Y-127990677D01*
X148309324Y-127990681D01*
X148309788Y-127999791D01*
X148308422Y-128025482D01*
X148297921Y-128091790D01*
X148294500Y-128113389D01*
X148294500Y-128286611D01*
X148295438Y-128292532D01*
X148320846Y-128452957D01*
X148321598Y-128457701D01*
X148375127Y-128622445D01*
X148453768Y-128776788D01*
X148555586Y-128916928D01*
X148678072Y-129039414D01*
X148818212Y-129141232D01*
X148972555Y-129219873D01*
X149137299Y-129273402D01*
X149308389Y-129300500D01*
X149308390Y-129300500D01*
X149481610Y-129300500D01*
X149481611Y-129300500D01*
X149652701Y-129273402D01*
X149817445Y-129219873D01*
X149971788Y-129141232D01*
X150111928Y-129039414D01*
X150234414Y-128916928D01*
X150336232Y-128776788D01*
X150414873Y-128622445D01*
X150468402Y-128457701D01*
X150495500Y-128286611D01*
X150495500Y-128113389D01*
X150468402Y-127942299D01*
X150414873Y-127777555D01*
X150336232Y-127623212D01*
X150336220Y-127623196D01*
X150331747Y-127617039D01*
X150326894Y-127610359D01*
X150311680Y-127582512D01*
X150310950Y-127580639D01*
X150310948Y-127580637D01*
X150310948Y-127580635D01*
X149768761Y-126731314D01*
X149642981Y-126534282D01*
X149623500Y-126467560D01*
X149623500Y-126099500D01*
X149643185Y-126032461D01*
X149695989Y-125986706D01*
X149747500Y-125975500D01*
X150029947Y-125975500D01*
X150096986Y-125995185D01*
X150099967Y-125997162D01*
X150339533Y-126161074D01*
X150357194Y-126175731D01*
X151023987Y-126842524D01*
X151057472Y-126903847D01*
X151057871Y-126954659D01*
X150853149Y-127972357D01*
X150853073Y-127972731D01*
X150853073Y-127972734D01*
X150853066Y-127986467D01*
X150851540Y-128005794D01*
X150837921Y-128091790D01*
X150834500Y-128113389D01*
X150834500Y-128286611D01*
X150835438Y-128292532D01*
X150860846Y-128452957D01*
X150861598Y-128457701D01*
X150915127Y-128622445D01*
X150993768Y-128776788D01*
X151095586Y-128916928D01*
X151218072Y-129039414D01*
X151358212Y-129141232D01*
X151512555Y-129219873D01*
X151677299Y-129273402D01*
X151848389Y-129300500D01*
X151848390Y-129300500D01*
X152021610Y-129300500D01*
X152021611Y-129300500D01*
X152192701Y-129273402D01*
X152357445Y-129219873D01*
X152511788Y-129141232D01*
X152651928Y-129039414D01*
X152774414Y-128916928D01*
X152876232Y-128776788D01*
X152954873Y-128622445D01*
X153008402Y-128457701D01*
X153035500Y-128286611D01*
X153035500Y-128113389D01*
X153008402Y-127942299D01*
X152954873Y-127777555D01*
X152876232Y-127623212D01*
X152774414Y-127483072D01*
X152651928Y-127360586D01*
X152648892Y-127358380D01*
X152598940Y-127322087D01*
X152582966Y-127307240D01*
X152582710Y-127307504D01*
X152506232Y-127233166D01*
X151710407Y-126459605D01*
X151700263Y-126452982D01*
X151680370Y-126436833D01*
X151197519Y-125953982D01*
X151186150Y-125933162D01*
X151171089Y-125914827D01*
X151169711Y-125903057D01*
X151164034Y-125892659D01*
X151165726Y-125868995D01*
X151162969Y-125845431D01*
X151168677Y-125827726D01*
X151169018Y-125822967D01*
X151173794Y-125811853D01*
X151189999Y-125778704D01*
X151237127Y-125727123D01*
X151304661Y-125709209D01*
X151338404Y-125716386D01*
X151338799Y-125715087D01*
X151344615Y-125716850D01*
X151344626Y-125716855D01*
X151513766Y-125750499D01*
X151513769Y-125750500D01*
X151513771Y-125750500D01*
X151634395Y-125750500D01*
X151701434Y-125770185D01*
X151703286Y-125771398D01*
X151726079Y-125786628D01*
X151726092Y-125786635D01*
X151868040Y-125845431D01*
X151908165Y-125862051D01*
X151908169Y-125862051D01*
X151908170Y-125862052D01*
X152101456Y-125900500D01*
X152101459Y-125900500D01*
X153798543Y-125900500D01*
X153928582Y-125874632D01*
X153991835Y-125862051D01*
X154173914Y-125786632D01*
X154337782Y-125677139D01*
X154477139Y-125537782D01*
X154586632Y-125373914D01*
X154662051Y-125191835D01*
X154700500Y-124998541D01*
X154700500Y-124801459D01*
X154700500Y-124801456D01*
X154662052Y-124608170D01*
X154662051Y-124608169D01*
X154662051Y-124608165D01*
X154653448Y-124587395D01*
X154586635Y-124426092D01*
X154586628Y-124426079D01*
X154477139Y-124262218D01*
X154477136Y-124262214D01*
X154337785Y-124122863D01*
X154337781Y-124122860D01*
X154173920Y-124013371D01*
X154173907Y-124013364D01*
X153991839Y-123937950D01*
X153991829Y-123937947D01*
X153798543Y-123899500D01*
X153798541Y-123899500D01*
X152101459Y-123899500D01*
X152101457Y-123899500D01*
X151908170Y-123937947D01*
X151908160Y-123937950D01*
X151782354Y-123990061D01*
X151734902Y-123999500D01*
X151513768Y-123999500D01*
X151344633Y-124033142D01*
X151339807Y-124034607D01*
X151339449Y-124034851D01*
X151338961Y-124034863D01*
X151338803Y-124034912D01*
X151338789Y-124034868D01*
X151309289Y-124035643D01*
X151279298Y-124038847D01*
X151274721Y-124036552D01*
X151269604Y-124036687D01*
X151243805Y-124021050D01*
X151216840Y-124007529D01*
X151213045Y-124002405D01*
X151209853Y-124000471D01*
X151189998Y-123971292D01*
X151181491Y-123953890D01*
X151169733Y-123885017D01*
X151181492Y-123844970D01*
X151215088Y-123776248D01*
X151215270Y-123775000D01*
X150919642Y-123775000D01*
X150915548Y-123773798D01*
X150912747Y-123774302D01*
X150912747Y-123774500D01*
X150911647Y-123774500D01*
X150910674Y-123774675D01*
X150908261Y-123774500D01*
X150908260Y-123774500D01*
X149566740Y-123774500D01*
X149566739Y-123774500D01*
X149564326Y-123774675D01*
X149563518Y-123774500D01*
X149562253Y-123774500D01*
X149562253Y-123774226D01*
X149560579Y-123773863D01*
X149555358Y-123775000D01*
X149259730Y-123775000D01*
X149222864Y-123817627D01*
X149164121Y-123855457D01*
X149161168Y-123856288D01*
X149090999Y-123875089D01*
X149090998Y-123875090D01*
X149005378Y-123924522D01*
X149005373Y-123924526D01*
X146624438Y-126305463D01*
X146554526Y-126375374D01*
X146505091Y-126460997D01*
X146505091Y-126460998D01*
X146505090Y-126461000D01*
X146479500Y-126556503D01*
X146479500Y-126556505D01*
X146477397Y-126564354D01*
X146475692Y-126563897D01*
X146466908Y-126591052D01*
X145927987Y-127597855D01*
X145927371Y-127599289D01*
X145916175Y-127618980D01*
X145916311Y-127619063D01*
X145913790Y-127623175D01*
X145913782Y-127623191D01*
X145913777Y-127623196D01*
X145913766Y-127623214D01*
X145835128Y-127777552D01*
X145781597Y-127942302D01*
X145773935Y-127990679D01*
X145754500Y-128113389D01*
X144809431Y-128113389D01*
X144780925Y-128007007D01*
X144715099Y-127892993D01*
X144647106Y-127825000D01*
X145349763Y-127825000D01*
X145349763Y-127824999D01*
X145334412Y-127777752D01*
X145334410Y-127777746D01*
X145255802Y-127623472D01*
X145179862Y-127518947D01*
X145156383Y-127453141D01*
X145172209Y-127385087D01*
X145192494Y-127358388D01*
X145222321Y-127328562D01*
X149139563Y-123411318D01*
X149200886Y-123377834D01*
X149227244Y-123375000D01*
X149555358Y-123375000D01*
X149564326Y-123375325D01*
X149566739Y-123375500D01*
X149566740Y-123375500D01*
X150908261Y-123375500D01*
X150910674Y-123375325D01*
X150919642Y-123375000D01*
X151215270Y-123375000D01*
X151215270Y-123374999D01*
X151215088Y-123373751D01*
X151181492Y-123305029D01*
X151169732Y-123236156D01*
X151181492Y-123196107D01*
X151188473Y-123181827D01*
X151215573Y-123126393D01*
X151225500Y-123058260D01*
X151225500Y-122791740D01*
X151215573Y-122723607D01*
X151181768Y-122654458D01*
X151170010Y-122585587D01*
X151181769Y-122545540D01*
X151183370Y-122542265D01*
X151215573Y-122476393D01*
X151225500Y-122408260D01*
X151225500Y-122141740D01*
X151215573Y-122073607D01*
X151181768Y-122004458D01*
X151170010Y-121935587D01*
X151181769Y-121895540D01*
X151183590Y-121891815D01*
X151215573Y-121826393D01*
X151225500Y-121758260D01*
X151225500Y-121491740D01*
X151223108Y-121475326D01*
X151215573Y-121423608D01*
X151215572Y-121423606D01*
X151181768Y-121354458D01*
X151170010Y-121285587D01*
X151181769Y-121245540D01*
X151197163Y-121214051D01*
X151215573Y-121176393D01*
X151225500Y-121108260D01*
X151225500Y-120841740D01*
X151223013Y-120824674D01*
X151215573Y-120773608D01*
X151215572Y-120773606D01*
X151181768Y-120704458D01*
X151170010Y-120635587D01*
X151181769Y-120595540D01*
X151187559Y-120583696D01*
X151215573Y-120526393D01*
X151225500Y-120458260D01*
X151225500Y-120191740D01*
X151224151Y-120182484D01*
X151215573Y-120123608D01*
X151215572Y-120123606D01*
X151181768Y-120054458D01*
X151170010Y-119985587D01*
X151181769Y-119945540D01*
X151215573Y-119876393D01*
X151225500Y-119808260D01*
X151225500Y-119541740D01*
X151215573Y-119473607D01*
X151164198Y-119368517D01*
X151164196Y-119368515D01*
X151164196Y-119368514D01*
X151081485Y-119285803D01*
X150976391Y-119234426D01*
X150908261Y-119224500D01*
X150908260Y-119224500D01*
X149566740Y-119224500D01*
X149566739Y-119224500D01*
X149498608Y-119234426D01*
X149393514Y-119285803D01*
X149310804Y-119368514D01*
X149310800Y-119368518D01*
X149281971Y-119427488D01*
X149279832Y-119430483D01*
X149279404Y-119432453D01*
X149258253Y-119460707D01*
X149234009Y-119484951D01*
X149172686Y-119518436D01*
X149102994Y-119513452D01*
X149047061Y-119471580D01*
X149042104Y-119464065D01*
X149040511Y-119461988D01*
X149040509Y-119461985D01*
X148938015Y-119359491D01*
X148938013Y-119359490D01*
X148938011Y-119359488D01*
X148812488Y-119287017D01*
X148812489Y-119287017D01*
X148801006Y-119283940D01*
X148672475Y-119249500D01*
X148527525Y-119249500D01*
X148527521Y-119249500D01*
X148484402Y-119261054D01*
X148465887Y-119264533D01*
X148452097Y-119266052D01*
X148452094Y-119266052D01*
X148452092Y-119266053D01*
X147968771Y-119418740D01*
X147931418Y-119424500D01*
X144370255Y-119424500D01*
X144321667Y-119414584D01*
X144296074Y-119403684D01*
X143921121Y-119243994D01*
X143896076Y-119229679D01*
X143893949Y-119228110D01*
X143882729Y-119224184D01*
X143765767Y-119183256D01*
X143735337Y-119180403D01*
X143735333Y-119180403D01*
X143226801Y-119180403D01*
X143226797Y-119180403D01*
X143196367Y-119183256D01*
X143196365Y-119183256D01*
X143068186Y-119228109D01*
X143068184Y-119228110D01*
X142958917Y-119308753D01*
X142878274Y-119418020D01*
X142878273Y-119418022D01*
X142833420Y-119546201D01*
X142833420Y-119546203D01*
X142830567Y-119576633D01*
X142830567Y-120235172D01*
X142833420Y-120265602D01*
X142833420Y-120265604D01*
X142878273Y-120393783D01*
X142878274Y-120393785D01*
X142958917Y-120503053D01*
X143022581Y-120550039D01*
X143029505Y-120555149D01*
X143071755Y-120610797D01*
X143077214Y-120680453D01*
X143044146Y-120742002D01*
X143029505Y-120754688D01*
X143001307Y-120775500D01*
X142958917Y-120806785D01*
X142878274Y-120916052D01*
X142878273Y-120916054D01*
X142833420Y-121044233D01*
X142833420Y-121044235D01*
X142830567Y-121074665D01*
X142830567Y-121733204D01*
X142833420Y-121763634D01*
X142833420Y-121763636D01*
X142870179Y-121868684D01*
X142878274Y-121891817D01*
X142958917Y-122001085D01*
X142991763Y-122025326D01*
X143029505Y-122053181D01*
X143071755Y-122108829D01*
X143077214Y-122178485D01*
X143044146Y-122240034D01*
X143029505Y-122252721D01*
X142958917Y-122304817D01*
X142878274Y-122414084D01*
X142878273Y-122414086D01*
X142833420Y-122542265D01*
X142833420Y-122542267D01*
X142830567Y-122572697D01*
X142830567Y-123231236D01*
X142833420Y-123261666D01*
X142833420Y-123261668D01*
X142875488Y-123381888D01*
X142878274Y-123389849D01*
X142958917Y-123499117D01*
X143024528Y-123547540D01*
X143029505Y-123551213D01*
X143071755Y-123606861D01*
X143077214Y-123676517D01*
X143044146Y-123738066D01*
X143029505Y-123750753D01*
X142958917Y-123802849D01*
X142878274Y-123912116D01*
X142878273Y-123912118D01*
X142833420Y-124040297D01*
X142833420Y-124040299D01*
X142830567Y-124070729D01*
X142830567Y-124713500D01*
X142828016Y-124722185D01*
X142829305Y-124731147D01*
X142818326Y-124755187D01*
X142810882Y-124780539D01*
X142804041Y-124786466D01*
X142800280Y-124794703D01*
X142778045Y-124808992D01*
X142758078Y-124826294D01*
X142747563Y-124828581D01*
X142741502Y-124832477D01*
X142706567Y-124837500D01*
X142605567Y-124837500D01*
X142538528Y-124817815D01*
X142492773Y-124765011D01*
X142481567Y-124713500D01*
X142481567Y-124070729D01*
X142478713Y-124040299D01*
X142478713Y-124040297D01*
X142438202Y-123924525D01*
X142433860Y-123912117D01*
X142353217Y-123802849D01*
X142353215Y-123802848D01*
X142353215Y-123802847D01*
X142282629Y-123750753D01*
X142240378Y-123695106D01*
X142234919Y-123625450D01*
X142267986Y-123563900D01*
X142282629Y-123551213D01*
X142287606Y-123547540D01*
X142353217Y-123499117D01*
X142433860Y-123389849D01*
X142464124Y-123303359D01*
X142478713Y-123261668D01*
X142478713Y-123261666D01*
X142481567Y-123231236D01*
X142481567Y-122572697D01*
X142478714Y-122542273D01*
X142478713Y-122542271D01*
X142478713Y-122542268D01*
X142453437Y-122470037D01*
X142449725Y-122457265D01*
X142445047Y-122437213D01*
X142445045Y-122437209D01*
X142444785Y-122436635D01*
X142339391Y-122204144D01*
X142329641Y-122134961D01*
X142339388Y-122101761D01*
X142445046Y-121868689D01*
X142463193Y-121811707D01*
X142463193Y-121811702D01*
X142464090Y-121808188D01*
X142464181Y-121808211D01*
X142467785Y-121794861D01*
X142478713Y-121763634D01*
X142479610Y-121754075D01*
X142481567Y-121733204D01*
X142481567Y-121074665D01*
X142478713Y-121044236D01*
X142478712Y-121044233D01*
X142457126Y-120982544D01*
X142452514Y-120965597D01*
X142448933Y-120947439D01*
X142347804Y-120702183D01*
X142340448Y-120632706D01*
X142347801Y-120607659D01*
X142448933Y-120362398D01*
X142464382Y-120309146D01*
X142464383Y-120309135D01*
X142464643Y-120308022D01*
X142468393Y-120295092D01*
X142472260Y-120284042D01*
X142478713Y-120265602D01*
X142478713Y-120265598D01*
X142478714Y-120265597D01*
X142481567Y-120235172D01*
X142481567Y-119576633D01*
X142478713Y-119546203D01*
X142478713Y-119546201D01*
X142438910Y-119432453D01*
X142433860Y-119418021D01*
X142353217Y-119308753D01*
X142243949Y-119228110D01*
X142243947Y-119228109D01*
X142115767Y-119183256D01*
X142085337Y-119180403D01*
X142085333Y-119180403D01*
X141576801Y-119180403D01*
X141576797Y-119180403D01*
X141546367Y-119183256D01*
X141546365Y-119183256D01*
X141418186Y-119228109D01*
X141418184Y-119228110D01*
X141308916Y-119308753D01*
X141270282Y-119361100D01*
X141214634Y-119403350D01*
X141144978Y-119408807D01*
X141083429Y-119375739D01*
X141070743Y-119361099D01*
X141021792Y-119294772D01*
X140912644Y-119214218D01*
X140875000Y-119201046D01*
X140875000Y-119767565D01*
X140855315Y-119834604D01*
X140802511Y-119880359D01*
X140751000Y-119891565D01*
X140500000Y-119891565D01*
X140500000Y-120142565D01*
X140480315Y-120209604D01*
X140427511Y-120255359D01*
X140376000Y-120266565D01*
X139841652Y-120266565D01*
X139824494Y-120280105D01*
X139817025Y-120281551D01*
X139813149Y-120284042D01*
X139778214Y-120289065D01*
X139624500Y-120289065D01*
X139557461Y-120269380D01*
X139511706Y-120216576D01*
X139500500Y-120165065D01*
X139500500Y-119562294D01*
X139499127Y-119547653D01*
X139497646Y-119531865D01*
X139497646Y-119531863D01*
X139492293Y-119516565D01*
X139858238Y-119516565D01*
X140125000Y-119516565D01*
X140125000Y-119201046D01*
X140124999Y-119201046D01*
X140087355Y-119214218D01*
X139978207Y-119294772D01*
X139897653Y-119403919D01*
X139858238Y-119516565D01*
X139492293Y-119516565D01*
X139460077Y-119424500D01*
X139452793Y-119403683D01*
X139372150Y-119294415D01*
X139262882Y-119213772D01*
X139262880Y-119213771D01*
X139134700Y-119168918D01*
X139104270Y-119166065D01*
X139104266Y-119166065D01*
X138595734Y-119166065D01*
X138595730Y-119166065D01*
X138565300Y-119168918D01*
X138565298Y-119168918D01*
X138437119Y-119213771D01*
X138437117Y-119213772D01*
X138409131Y-119234427D01*
X138327850Y-119294415D01*
X138327849Y-119294416D01*
X138320381Y-119299928D01*
X138319950Y-119299344D01*
X138311328Y-119306140D01*
X138129224Y-119418022D01*
X138001685Y-119496380D01*
X137999507Y-119497718D01*
X137934596Y-119516065D01*
X137231622Y-119516065D01*
X137164583Y-119496380D01*
X137143941Y-119479746D01*
X136745121Y-119080926D01*
X136711636Y-119019603D01*
X136716620Y-118949911D01*
X136758492Y-118893978D01*
X136823956Y-118869561D01*
X136856993Y-118871627D01*
X136865885Y-118873396D01*
X136876459Y-118875500D01*
X136876460Y-118875500D01*
X137073542Y-118875500D01*
X137073543Y-118875499D01*
X137266836Y-118837051D01*
X137332289Y-118809938D01*
X137379742Y-118800500D01*
X138551459Y-118800500D01*
X156134218Y-118800500D01*
X156163658Y-118809144D01*
X156193645Y-118815668D01*
X156198660Y-118819422D01*
X156201257Y-118820185D01*
X156221899Y-118836819D01*
X156397899Y-119012819D01*
X156431384Y-119074142D01*
X156426400Y-119143834D01*
X156384528Y-119199767D01*
X156319064Y-119224184D01*
X156310218Y-119224500D01*
X155291739Y-119224500D01*
X155223608Y-119234426D01*
X155118514Y-119285803D01*
X155035803Y-119368514D01*
X154984426Y-119473608D01*
X154974500Y-119541739D01*
X154974500Y-119808260D01*
X154984426Y-119876392D01*
X154984426Y-119876393D01*
X155018230Y-119945541D01*
X155029988Y-120014414D01*
X155018230Y-120054459D01*
X154984426Y-120123606D01*
X154984426Y-120123607D01*
X154974500Y-120191739D01*
X154974500Y-120458260D01*
X154984426Y-120526392D01*
X154984426Y-120526393D01*
X155018230Y-120595541D01*
X155029988Y-120664414D01*
X155018230Y-120704459D01*
X154984426Y-120773606D01*
X154984426Y-120773607D01*
X154974500Y-120841739D01*
X154974500Y-121108260D01*
X154984426Y-121176392D01*
X154984426Y-121176393D01*
X155018230Y-121245541D01*
X155029988Y-121314414D01*
X155018230Y-121354459D01*
X154984426Y-121423606D01*
X154984426Y-121423607D01*
X154974500Y-121491739D01*
X154974500Y-121758260D01*
X154984426Y-121826392D01*
X154984426Y-121826393D01*
X155018230Y-121895541D01*
X155029988Y-121964414D01*
X155018230Y-122004459D01*
X154984426Y-122073606D01*
X154984426Y-122073607D01*
X154974500Y-122141739D01*
X154974500Y-122408260D01*
X154984426Y-122476392D01*
X154984426Y-122476393D01*
X155018230Y-122545541D01*
X155029988Y-122614414D01*
X155018230Y-122654459D01*
X154984426Y-122723606D01*
X154984426Y-122723607D01*
X154974500Y-122791739D01*
X154974500Y-123058260D01*
X154984426Y-123126392D01*
X154984426Y-123126393D01*
X155018230Y-123195541D01*
X155029988Y-123264414D01*
X155018230Y-123304459D01*
X154984426Y-123373606D01*
X154984426Y-123373607D01*
X154974500Y-123441739D01*
X154974500Y-123708260D01*
X154984426Y-123776392D01*
X154984426Y-123776393D01*
X155018230Y-123845541D01*
X155029988Y-123914414D01*
X155018230Y-123954459D01*
X154984426Y-124023606D01*
X154984426Y-124023607D01*
X154974500Y-124091739D01*
X154974500Y-124358260D01*
X154984426Y-124426392D01*
X154984426Y-124426393D01*
X155018230Y-124495541D01*
X155029988Y-124564414D01*
X155018230Y-124604459D01*
X154984426Y-124673606D01*
X154984426Y-124673607D01*
X154974500Y-124741739D01*
X154974500Y-125008260D01*
X154984426Y-125076392D01*
X154984426Y-125076393D01*
X155018230Y-125145541D01*
X155029988Y-125214414D01*
X155018230Y-125254459D01*
X154984426Y-125323606D01*
X154984426Y-125323607D01*
X154974500Y-125391739D01*
X154974500Y-125658260D01*
X154984426Y-125726391D01*
X155026199Y-125811840D01*
X155037957Y-125880713D01*
X155010614Y-125945010D01*
X155002479Y-125953981D01*
X154554463Y-126401996D01*
X154533562Y-126418765D01*
X154511939Y-126444520D01*
X154508120Y-126448340D01*
X154508109Y-126448352D01*
X154244438Y-126712025D01*
X154174527Y-126781935D01*
X154125090Y-126867561D01*
X154117344Y-126896468D01*
X154092541Y-126944099D01*
X153667012Y-127450980D01*
X153663533Y-127455123D01*
X153635586Y-127483072D01*
X153606738Y-127522775D01*
X153603938Y-127526112D01*
X153580951Y-127553495D01*
X153572218Y-127564497D01*
X153571481Y-127565480D01*
X153563595Y-127576599D01*
X153560249Y-127582648D01*
X153560159Y-127582598D01*
X153549620Y-127601392D01*
X153533765Y-127623216D01*
X153533763Y-127623218D01*
X153455129Y-127777549D01*
X153401597Y-127942302D01*
X153393935Y-127990679D01*
X153374500Y-128113389D01*
X153374500Y-128286611D01*
X153375438Y-128292532D01*
X153400846Y-128452957D01*
X153401598Y-128457701D01*
X153455127Y-128622445D01*
X153533768Y-128776788D01*
X153635586Y-128916928D01*
X153758072Y-129039414D01*
X153898212Y-129141232D01*
X154052555Y-129219873D01*
X154217299Y-129273402D01*
X154388389Y-129300500D01*
X154388390Y-129300500D01*
X154561610Y-129300500D01*
X154561611Y-129300500D01*
X154732701Y-129273402D01*
X154897445Y-129219873D01*
X155051788Y-129141232D01*
X155191928Y-129039414D01*
X155314414Y-128916928D01*
X155416232Y-128776788D01*
X155494873Y-128622445D01*
X155548402Y-128457701D01*
X155575500Y-128286611D01*
X155575500Y-128113389D01*
X155548402Y-127942299D01*
X155536332Y-127905155D01*
X155535797Y-127903460D01*
X155223860Y-126887913D01*
X155222992Y-126818049D01*
X155254711Y-126763825D01*
X155842809Y-126175727D01*
X155860465Y-126161075D01*
X156100032Y-125997162D01*
X156166475Y-125975552D01*
X156170052Y-125975500D01*
X156515500Y-125975500D01*
X156582539Y-125995185D01*
X156628294Y-126047989D01*
X156639500Y-126099500D01*
X156639500Y-126419523D01*
X156627279Y-126473201D01*
X156082322Y-127608015D01*
X156076273Y-127619122D01*
X156073768Y-127623209D01*
X155995129Y-127777549D01*
X155941597Y-127942302D01*
X155933935Y-127990679D01*
X155914500Y-128113389D01*
X155914500Y-128286611D01*
X155915438Y-128292532D01*
X155940846Y-128452957D01*
X155941598Y-128457701D01*
X155995127Y-128622445D01*
X156073768Y-128776788D01*
X156175586Y-128916928D01*
X156298072Y-129039414D01*
X156438212Y-129141232D01*
X156592555Y-129219873D01*
X156757299Y-129273402D01*
X156928389Y-129300500D01*
X156928390Y-129300500D01*
X157101610Y-129300500D01*
X157101611Y-129300500D01*
X157272701Y-129273402D01*
X157437445Y-129219873D01*
X157591788Y-129141232D01*
X157731928Y-129039414D01*
X157854414Y-128916928D01*
X157956232Y-128776788D01*
X158034873Y-128622445D01*
X158088402Y-128457701D01*
X158115500Y-128286611D01*
X158115500Y-128113389D01*
X158088402Y-127942299D01*
X158034873Y-127777555D01*
X157956232Y-127623212D01*
X157956230Y-127623209D01*
X157953727Y-127619124D01*
X157947676Y-127608013D01*
X157402721Y-126473201D01*
X157390500Y-126419523D01*
X157390500Y-125720899D01*
X157410185Y-125653860D01*
X157462989Y-125608105D01*
X157532147Y-125598161D01*
X157595703Y-125627186D01*
X157602181Y-125633218D01*
X158748591Y-126779628D01*
X158782076Y-126840951D01*
X158780113Y-126901465D01*
X158484548Y-127932965D01*
X158484549Y-127932966D01*
X158483941Y-127935084D01*
X158481598Y-127942299D01*
X158481255Y-127944459D01*
X158479440Y-127950796D01*
X158479217Y-127951572D01*
X158476514Y-127961801D01*
X158476512Y-127961811D01*
X158476291Y-127962723D01*
X158475060Y-127968293D01*
X158474041Y-127972907D01*
X158474037Y-127980352D01*
X158472510Y-127999671D01*
X158454500Y-128113383D01*
X158454500Y-128113388D01*
X158454500Y-128113389D01*
X158454500Y-128286611D01*
X158455438Y-128292532D01*
X158480846Y-128452957D01*
X158481598Y-128457701D01*
X158535127Y-128622445D01*
X158613768Y-128776788D01*
X158715586Y-128916928D01*
X158838072Y-129039414D01*
X158978212Y-129141232D01*
X159132555Y-129219873D01*
X159297299Y-129273402D01*
X159468389Y-129300500D01*
X159468390Y-129300500D01*
X159641610Y-129300500D01*
X159641611Y-129300500D01*
X159812701Y-129273402D01*
X159977445Y-129219873D01*
X160131788Y-129141232D01*
X160271928Y-129039414D01*
X160394414Y-128916928D01*
X160496232Y-128776788D01*
X160574873Y-128622445D01*
X160628402Y-128457701D01*
X160638713Y-128392598D01*
X160668642Y-128329464D01*
X160727953Y-128292532D01*
X160797815Y-128293530D01*
X160856048Y-128332139D01*
X160864616Y-128343599D01*
X161151078Y-128776788D01*
X161168681Y-128803406D01*
X161169189Y-128804172D01*
X161178814Y-128813820D01*
X161191342Y-128828504D01*
X161255586Y-128916928D01*
X161378072Y-129039414D01*
X161518212Y-129141232D01*
X161672555Y-129219873D01*
X161837299Y-129273402D01*
X162008389Y-129300500D01*
X162008390Y-129300500D01*
X162181610Y-129300500D01*
X162181611Y-129300500D01*
X162352701Y-129273402D01*
X162517445Y-129219873D01*
X162671788Y-129141232D01*
X162811928Y-129039414D01*
X162934414Y-128916928D01*
X163036232Y-128776788D01*
X163114873Y-128622445D01*
X163168402Y-128457701D01*
X163195500Y-128286611D01*
X163195500Y-128132163D01*
X163215185Y-128065124D01*
X163267989Y-128019369D01*
X163337147Y-128009425D01*
X163400703Y-128038450D01*
X163436743Y-128091790D01*
X163557087Y-128441269D01*
X163560029Y-128453060D01*
X163560459Y-128452957D01*
X163561597Y-128457696D01*
X163561598Y-128457701D01*
X163615127Y-128622445D01*
X163693768Y-128776788D01*
X163795586Y-128916928D01*
X163918072Y-129039414D01*
X164058212Y-129141232D01*
X164212555Y-129219873D01*
X164377299Y-129273402D01*
X164548389Y-129300500D01*
X164548390Y-129300500D01*
X164721610Y-129300500D01*
X164721611Y-129300500D01*
X164892701Y-129273402D01*
X165057445Y-129219873D01*
X165211788Y-129141232D01*
X165351928Y-129039414D01*
X165474414Y-128916928D01*
X165576232Y-128776788D01*
X165654873Y-128622445D01*
X165704834Y-128468679D01*
X165744270Y-128411007D01*
X165808629Y-128383808D01*
X165877475Y-128395722D01*
X165916459Y-128425777D01*
X166268440Y-128831805D01*
X166269716Y-128832862D01*
X166271889Y-128835178D01*
X166272094Y-128835378D01*
X166272085Y-128835386D01*
X166290932Y-128855469D01*
X166308189Y-128879220D01*
X166335586Y-128916928D01*
X166458072Y-129039414D01*
X166598212Y-129141232D01*
X166752555Y-129219873D01*
X166917299Y-129273402D01*
X167088389Y-129300500D01*
X167088390Y-129300500D01*
X167261610Y-129300500D01*
X167261611Y-129300500D01*
X167432701Y-129273402D01*
X167597445Y-129219873D01*
X167751788Y-129141232D01*
X167891928Y-129039414D01*
X168014414Y-128916928D01*
X168116232Y-128776788D01*
X168194873Y-128622445D01*
X168248402Y-128457701D01*
X168252100Y-128434348D01*
X168282026Y-128371216D01*
X168341336Y-128334282D01*
X168411199Y-128335278D01*
X168469433Y-128373885D01*
X168474262Y-128380001D01*
X168796218Y-128815227D01*
X168804387Y-128822834D01*
X168820198Y-128840692D01*
X168875586Y-128916928D01*
X168998072Y-129039414D01*
X169138212Y-129141232D01*
X169292555Y-129219873D01*
X169457299Y-129273402D01*
X169628389Y-129300500D01*
X169628390Y-129300500D01*
X169801610Y-129300500D01*
X169801611Y-129300500D01*
X169972701Y-129273402D01*
X170137445Y-129219873D01*
X170291788Y-129141232D01*
X170431928Y-129039414D01*
X170554414Y-128916928D01*
X170656232Y-128776788D01*
X170734873Y-128622445D01*
X170776187Y-128495293D01*
X170815622Y-128437622D01*
X170879981Y-128410423D01*
X170948827Y-128422337D01*
X170984128Y-128448329D01*
X171356003Y-128840812D01*
X171358960Y-128843488D01*
X171376066Y-128862535D01*
X171388189Y-128879220D01*
X171415586Y-128916928D01*
X171538072Y-129039414D01*
X171678212Y-129141232D01*
X171832555Y-129219873D01*
X171997299Y-129273402D01*
X172168389Y-129300500D01*
X172168390Y-129300500D01*
X172341610Y-129300500D01*
X172341611Y-129300500D01*
X172512701Y-129273402D01*
X172677445Y-129219873D01*
X172831788Y-129141232D01*
X172971928Y-129039414D01*
X173094414Y-128916928D01*
X173196232Y-128776788D01*
X173274873Y-128622445D01*
X173328402Y-128457701D01*
X173338713Y-128392598D01*
X173368642Y-128329464D01*
X173427953Y-128292532D01*
X173497815Y-128293530D01*
X173556048Y-128332139D01*
X173564616Y-128343599D01*
X173851078Y-128776788D01*
X173868681Y-128803406D01*
X173869189Y-128804172D01*
X173878814Y-128813820D01*
X173891342Y-128828504D01*
X173955586Y-128916928D01*
X174078072Y-129039414D01*
X174218212Y-129141232D01*
X174372555Y-129219873D01*
X174537299Y-129273402D01*
X174708389Y-129300500D01*
X174708390Y-129300500D01*
X174881610Y-129300500D01*
X174881611Y-129300500D01*
X175052701Y-129273402D01*
X175217445Y-129219873D01*
X175371788Y-129141232D01*
X175511928Y-129039414D01*
X175634414Y-128916928D01*
X175736232Y-128776788D01*
X175814873Y-128622445D01*
X175868402Y-128457701D01*
X175876420Y-128407072D01*
X175906348Y-128343941D01*
X175965660Y-128307009D01*
X176035522Y-128308007D01*
X176093755Y-128346616D01*
X176101088Y-128356244D01*
X176411143Y-128807430D01*
X176411144Y-128807431D01*
X176420782Y-128816888D01*
X176434250Y-128832507D01*
X176495586Y-128916928D01*
X176618072Y-129039414D01*
X176758212Y-129141232D01*
X176912555Y-129219873D01*
X177077299Y-129273402D01*
X177248389Y-129300500D01*
X177248390Y-129300500D01*
X177421610Y-129300500D01*
X177421611Y-129300500D01*
X177592701Y-129273402D01*
X177757445Y-129219873D01*
X177911788Y-129141232D01*
X178051928Y-129039414D01*
X178174414Y-128916928D01*
X178276232Y-128776788D01*
X178354873Y-128622445D01*
X178408402Y-128457701D01*
X178435500Y-128286611D01*
X178435500Y-128113389D01*
X178408402Y-127942299D01*
X178354873Y-127777555D01*
X178276232Y-127623212D01*
X178174414Y-127483072D01*
X178051928Y-127360586D01*
X177911788Y-127258768D01*
X177757445Y-127180127D01*
X177592701Y-127126598D01*
X177592699Y-127126597D01*
X177592697Y-127126597D01*
X177506252Y-127112905D01*
X177502028Y-127112236D01*
X177494632Y-127110535D01*
X177490506Y-127110411D01*
X177489168Y-127110199D01*
X177482716Y-127109177D01*
X177421612Y-127099500D01*
X177421611Y-127099500D01*
X177248389Y-127099500D01*
X177248387Y-127099500D01*
X177240245Y-127100789D01*
X177217159Y-127102259D01*
X176149164Y-127070407D01*
X176082742Y-127048733D01*
X176065180Y-127034143D01*
X175828563Y-126797526D01*
X175828562Y-126797525D01*
X175742938Y-126748090D01*
X175680333Y-126731315D01*
X175680332Y-126731314D01*
X175647436Y-126722500D01*
X175647435Y-126722500D01*
X174545435Y-126722500D01*
X174478396Y-126702815D01*
X174457754Y-126686181D01*
X174192099Y-126420526D01*
X174192098Y-126420525D01*
X174106474Y-126371090D01*
X174041115Y-126353577D01*
X174041114Y-126353576D01*
X174010972Y-126345500D01*
X174010971Y-126345500D01*
X171691813Y-126345500D01*
X171592941Y-126345500D01*
X171592938Y-126345500D01*
X171585813Y-126346439D01*
X171569625Y-126347500D01*
X171096215Y-126347500D01*
X171029176Y-126327815D01*
X171008534Y-126311181D01*
X170740879Y-126043526D01*
X170740878Y-126043525D01*
X170655254Y-125994090D01*
X170607502Y-125981295D01*
X170607500Y-125981294D01*
X170607498Y-125981293D01*
X170559752Y-125968500D01*
X170559751Y-125968500D01*
X168995654Y-125968500D01*
X168950376Y-125968500D01*
X168883337Y-125948815D01*
X168862695Y-125932181D01*
X168597040Y-125666526D01*
X168597039Y-125666525D01*
X168511415Y-125617090D01*
X168463663Y-125604295D01*
X168463661Y-125604294D01*
X168463659Y-125604293D01*
X168415913Y-125591500D01*
X168415912Y-125591500D01*
X166406535Y-125591500D01*
X166339496Y-125571815D01*
X166318854Y-125555181D01*
X166083301Y-125319628D01*
X176192000Y-125319628D01*
X176206503Y-125392540D01*
X176206505Y-125392544D01*
X176261760Y-125475239D01*
X176344455Y-125530494D01*
X176344459Y-125530496D01*
X176417371Y-125544999D01*
X176417374Y-125545000D01*
X176917000Y-125545000D01*
X177667000Y-125545000D01*
X178166626Y-125545000D01*
X178166628Y-125544999D01*
X178239540Y-125530496D01*
X178239544Y-125530494D01*
X178322239Y-125475239D01*
X178377494Y-125392544D01*
X178377496Y-125392540D01*
X178391999Y-125319628D01*
X178392000Y-125319626D01*
X178392000Y-124820000D01*
X177667000Y-124820000D01*
X177667000Y-125545000D01*
X176917000Y-125545000D01*
X176917000Y-124820000D01*
X176192000Y-124820000D01*
X176192000Y-125319628D01*
X166083301Y-125319628D01*
X165676200Y-124912527D01*
X165676199Y-124912526D01*
X165676198Y-124912525D01*
X165590574Y-124863090D01*
X165531544Y-124847273D01*
X165526030Y-124845795D01*
X165526018Y-124845791D01*
X165495072Y-124837500D01*
X165495071Y-124837500D01*
X162619900Y-124837500D01*
X162552861Y-124817815D01*
X162532219Y-124801181D01*
X160874402Y-123143364D01*
X159195217Y-121464180D01*
X159161733Y-121402858D01*
X159166717Y-121333166D01*
X159208589Y-121277233D01*
X159274053Y-121252816D01*
X159282899Y-121252500D01*
X164346543Y-121252500D01*
X164382423Y-121245362D01*
X164463581Y-121229219D01*
X164539836Y-121214051D01*
X164608597Y-121185569D01*
X164721914Y-121138632D01*
X164885782Y-121029139D01*
X165025139Y-120889782D01*
X165025139Y-120889780D01*
X165035347Y-120879573D01*
X165035348Y-120879570D01*
X165420529Y-120494390D01*
X165481851Y-120460906D01*
X165551543Y-120465890D01*
X165595890Y-120494391D01*
X165900961Y-120799462D01*
X165949463Y-120831870D01*
X166048448Y-120898010D01*
X166048449Y-120898010D01*
X166048453Y-120898013D01*
X166117935Y-120926793D01*
X166212334Y-120965895D01*
X166386303Y-121000499D01*
X166386307Y-121000500D01*
X166386308Y-121000500D01*
X166386309Y-121000500D01*
X166450870Y-121000500D01*
X166513990Y-121017767D01*
X166574610Y-121053618D01*
X166726373Y-121097709D01*
X166761837Y-121100500D01*
X168138162Y-121100499D01*
X168173627Y-121097709D01*
X168325390Y-121053618D01*
X168461420Y-120973170D01*
X168573170Y-120861420D01*
X168653618Y-120725390D01*
X168697709Y-120573627D01*
X168700500Y-120538163D01*
X168700499Y-119661838D01*
X168697709Y-119626373D01*
X168653618Y-119474610D01*
X168573170Y-119338580D01*
X168573168Y-119338578D01*
X168573165Y-119338574D01*
X168461425Y-119226834D01*
X168461416Y-119226827D01*
X168325390Y-119146382D01*
X168325385Y-119146380D01*
X168173633Y-119102292D01*
X168173620Y-119102290D01*
X168138170Y-119099500D01*
X168138163Y-119099500D01*
X167644754Y-119099500D01*
X167618055Y-119096591D01*
X167386783Y-119045590D01*
X167325558Y-119011931D01*
X167292248Y-118950512D01*
X167297431Y-118880835D01*
X167339462Y-118825021D01*
X167404996Y-118800791D01*
X167413489Y-118800500D01*
X168920500Y-118800500D01*
X168987539Y-118820185D01*
X169033294Y-118872989D01*
X169044500Y-118924500D01*
X169044500Y-123076002D01*
X169050338Y-123130312D01*
X169061543Y-123181818D01*
X169061546Y-123181827D01*
X169068779Y-123208192D01*
X169068783Y-123208203D01*
X169118105Y-123294818D01*
X169118110Y-123294825D01*
X169118112Y-123294828D01*
X169134896Y-123314198D01*
X169163863Y-123347628D01*
X169163866Y-123347631D01*
X169163867Y-123347632D01*
X169196641Y-123379257D01*
X169284976Y-123425465D01*
X169284977Y-123425465D01*
X169284977Y-123425466D01*
X169335105Y-123440184D01*
X169352015Y-123445150D01*
X169352019Y-123445150D01*
X169352021Y-123445151D01*
X169358991Y-123446153D01*
X169424000Y-123455500D01*
X169424001Y-123455500D01*
X176068000Y-123455500D01*
X176135039Y-123475185D01*
X176180794Y-123527989D01*
X176192000Y-123579500D01*
X176192000Y-124070000D01*
X176959894Y-124070000D01*
X176891901Y-124137993D01*
X176826075Y-124252007D01*
X176792000Y-124379174D01*
X176792000Y-124510826D01*
X176826075Y-124637993D01*
X176891901Y-124752007D01*
X176984993Y-124845099D01*
X177099007Y-124910925D01*
X177226174Y-124945000D01*
X177357826Y-124945000D01*
X177484993Y-124910925D01*
X177599007Y-124845099D01*
X177692099Y-124752007D01*
X177757925Y-124637993D01*
X177792000Y-124510826D01*
X177792000Y-124379174D01*
X177757925Y-124252007D01*
X177692099Y-124137993D01*
X177624106Y-124070000D01*
X178392000Y-124070000D01*
X178392000Y-123579500D01*
X178411685Y-123512461D01*
X178464489Y-123466706D01*
X178516000Y-123455500D01*
X179175999Y-123455500D01*
X179176000Y-123455500D01*
X179176222Y-123455476D01*
X179176273Y-123455485D01*
X179179325Y-123455322D01*
X179179363Y-123456042D01*
X179244984Y-123467869D01*
X179296130Y-123515470D01*
X179313500Y-123578763D01*
X179313500Y-129913500D01*
X179293815Y-129980539D01*
X179241011Y-130026294D01*
X179189500Y-130037500D01*
X127134500Y-130037500D01*
X127067461Y-130017815D01*
X127021706Y-129965011D01*
X127010500Y-129913500D01*
X127010500Y-124595000D01*
X128898549Y-124595000D01*
X128967433Y-124698092D01*
X128967439Y-124698100D01*
X129071899Y-124802560D01*
X129071903Y-124802563D01*
X129194735Y-124884637D01*
X129194745Y-124884642D01*
X129331232Y-124941177D01*
X129331240Y-124941179D01*
X129475000Y-124969775D01*
X129475000Y-124969774D01*
X130225000Y-124969774D01*
X130368759Y-124941179D01*
X130368767Y-124941177D01*
X130505254Y-124884642D01*
X130505264Y-124884637D01*
X130628096Y-124802563D01*
X130628100Y-124802560D01*
X130732560Y-124698100D01*
X130732566Y-124698092D01*
X130801451Y-124595000D01*
X132828549Y-124595000D01*
X132897433Y-124698092D01*
X132897439Y-124698100D01*
X133001899Y-124802560D01*
X133001903Y-124802563D01*
X133124735Y-124884637D01*
X133124745Y-124884642D01*
X133261232Y-124941177D01*
X133261240Y-124941179D01*
X133406126Y-124969999D01*
X133406129Y-124970000D01*
X133655000Y-124970000D01*
X134405000Y-124970000D01*
X134653871Y-124970000D01*
X134653873Y-124969999D01*
X134798759Y-124941179D01*
X134798767Y-124941177D01*
X134935254Y-124884642D01*
X134935264Y-124884637D01*
X135058096Y-124802563D01*
X135058100Y-124802560D01*
X135162560Y-124698100D01*
X135162566Y-124698092D01*
X135231451Y-124595000D01*
X134405000Y-124595000D01*
X134405000Y-124970000D01*
X133655000Y-124970000D01*
X133655000Y-124595000D01*
X132828549Y-124595000D01*
X130801451Y-124595000D01*
X130225000Y-124595000D01*
X130225000Y-124969774D01*
X129475000Y-124969774D01*
X129475000Y-124595000D01*
X128898549Y-124595000D01*
X127010500Y-124595000D01*
X127010500Y-124180504D01*
X129250000Y-124180504D01*
X129250000Y-124259496D01*
X129270444Y-124335796D01*
X129309940Y-124404205D01*
X129365795Y-124460060D01*
X129434204Y-124499556D01*
X129510504Y-124520000D01*
X130189496Y-124520000D01*
X130265796Y-124499556D01*
X130334205Y-124460060D01*
X130390060Y-124404205D01*
X130429556Y-124335796D01*
X130450000Y-124259496D01*
X130450000Y-124180504D01*
X133180000Y-124180504D01*
X133180000Y-124259496D01*
X133200444Y-124335796D01*
X133239940Y-124404205D01*
X133295795Y-124460060D01*
X133364204Y-124499556D01*
X133440504Y-124520000D01*
X134619496Y-124520000D01*
X134695796Y-124499556D01*
X134764205Y-124460060D01*
X134820060Y-124404205D01*
X134859556Y-124335796D01*
X134880000Y-124259496D01*
X134880000Y-124180504D01*
X134859556Y-124104204D01*
X134820060Y-124035795D01*
X134764205Y-123979940D01*
X134695796Y-123940444D01*
X134619496Y-123920000D01*
X133440504Y-123920000D01*
X133364204Y-123940444D01*
X133295795Y-123979940D01*
X133239940Y-124035795D01*
X133200444Y-124104204D01*
X133180000Y-124180504D01*
X130450000Y-124180504D01*
X130429556Y-124104204D01*
X130390060Y-124035795D01*
X130334205Y-123979940D01*
X130265796Y-123940444D01*
X130189496Y-123920000D01*
X129510504Y-123920000D01*
X129434204Y-123940444D01*
X129365795Y-123979940D01*
X129309940Y-124035795D01*
X129270444Y-124104204D01*
X129250000Y-124180504D01*
X127010500Y-124180504D01*
X127010500Y-123844999D01*
X128898549Y-123844999D01*
X128898549Y-123845000D01*
X129475000Y-123845000D01*
X130225000Y-123845000D01*
X130801451Y-123845000D01*
X130801450Y-123844999D01*
X130732566Y-123741907D01*
X130732560Y-123741899D01*
X130628100Y-123637439D01*
X130628096Y-123637436D01*
X130505264Y-123555362D01*
X130505254Y-123555357D01*
X130368765Y-123498821D01*
X130368761Y-123498820D01*
X130225000Y-123470223D01*
X130225000Y-123845000D01*
X129475000Y-123845000D01*
X129475000Y-123470224D01*
X129474999Y-123470223D01*
X129331238Y-123498820D01*
X129331234Y-123498821D01*
X129194745Y-123555357D01*
X129194735Y-123555362D01*
X129071903Y-123637436D01*
X129071899Y-123637439D01*
X128967439Y-123741899D01*
X128967433Y-123741907D01*
X128898549Y-123844999D01*
X127010500Y-123844999D01*
X127010500Y-115955000D01*
X128898549Y-115955000D01*
X128967433Y-116058092D01*
X128967439Y-116058100D01*
X129071899Y-116162560D01*
X129071903Y-116162563D01*
X129194735Y-116244637D01*
X129194745Y-116244642D01*
X129331232Y-116301177D01*
X129331240Y-116301179D01*
X129475000Y-116329775D01*
X129475000Y-116329774D01*
X130225000Y-116329774D01*
X130368759Y-116301179D01*
X130368767Y-116301177D01*
X130505254Y-116244642D01*
X130505264Y-116244637D01*
X130628096Y-116162563D01*
X130628100Y-116162560D01*
X130732560Y-116058100D01*
X130732566Y-116058092D01*
X130801451Y-115955000D01*
X130225000Y-115955000D01*
X130225000Y-116329774D01*
X129475000Y-116329774D01*
X129475000Y-115955000D01*
X128898549Y-115955000D01*
X127010500Y-115955000D01*
X127010500Y-115540504D01*
X129250000Y-115540504D01*
X129250000Y-115619496D01*
X129270444Y-115695796D01*
X129309940Y-115764205D01*
X129365795Y-115820060D01*
X129434204Y-115859556D01*
X129510504Y-115880000D01*
X130189496Y-115880000D01*
X130265796Y-115859556D01*
X130334205Y-115820060D01*
X130390060Y-115764205D01*
X130429556Y-115695796D01*
X130450000Y-115619496D01*
X130450000Y-115540504D01*
X133180000Y-115540504D01*
X133180000Y-115619496D01*
X133200444Y-115695796D01*
X133239940Y-115764205D01*
X133295795Y-115820060D01*
X133364204Y-115859556D01*
X133440504Y-115880000D01*
X134619496Y-115880000D01*
X134695796Y-115859556D01*
X134764205Y-115820060D01*
X134820060Y-115764205D01*
X134859556Y-115695796D01*
X134880000Y-115619496D01*
X134880000Y-115540504D01*
X134859556Y-115464204D01*
X134820060Y-115395795D01*
X134764205Y-115339940D01*
X134695796Y-115300444D01*
X134619496Y-115280000D01*
X133440504Y-115280000D01*
X133364204Y-115300444D01*
X133295795Y-115339940D01*
X133239940Y-115395795D01*
X133200444Y-115464204D01*
X133180000Y-115540504D01*
X130450000Y-115540504D01*
X130429556Y-115464204D01*
X130390060Y-115395795D01*
X130334205Y-115339940D01*
X130265796Y-115300444D01*
X130189496Y-115280000D01*
X129510504Y-115280000D01*
X129434204Y-115300444D01*
X129365795Y-115339940D01*
X129309940Y-115395795D01*
X129270444Y-115464204D01*
X129250000Y-115540504D01*
X127010500Y-115540504D01*
X127010500Y-115204999D01*
X128898549Y-115204999D01*
X128898549Y-115205000D01*
X129475000Y-115205000D01*
X130225000Y-115205000D01*
X130801451Y-115205000D01*
X130801450Y-115204999D01*
X132828549Y-115204999D01*
X132828549Y-115205000D01*
X133655000Y-115205000D01*
X134405000Y-115205000D01*
X135231450Y-115205000D01*
X135164794Y-115105242D01*
X135164793Y-115105240D01*
X135164792Y-115105239D01*
X135162562Y-115101901D01*
X135100316Y-115039655D01*
X161550000Y-115039655D01*
X161550000Y-115125000D01*
X162325000Y-115125000D01*
X163075000Y-115125000D01*
X164625000Y-115125000D01*
X164625000Y-114587500D01*
X165375000Y-114587500D01*
X165375000Y-115125000D01*
X167075000Y-115125000D01*
X167825000Y-115125000D01*
X168700000Y-115125000D01*
X168700000Y-115061894D01*
X168699999Y-115061881D01*
X168697211Y-115026452D01*
X168697210Y-115026446D01*
X168653156Y-114874814D01*
X168653155Y-114874811D01*
X168572773Y-114738891D01*
X168572767Y-114738883D01*
X168461116Y-114627232D01*
X168461108Y-114627226D01*
X168325188Y-114546844D01*
X168325185Y-114546843D01*
X168173553Y-114502789D01*
X168173547Y-114502788D01*
X168138118Y-114500000D01*
X167825000Y-114500000D01*
X167825000Y-115125000D01*
X167075000Y-115125000D01*
X167075000Y-114500000D01*
X166761881Y-114500000D01*
X166726452Y-114502788D01*
X166726446Y-114502789D01*
X166574814Y-114546843D01*
X166574811Y-114546844D01*
X166438891Y-114627226D01*
X166438883Y-114627232D01*
X166327232Y-114738883D01*
X166327225Y-114738892D01*
X166283428Y-114812950D01*
X166232359Y-114860634D01*
X166163617Y-114873137D01*
X166099028Y-114846491D01*
X166077429Y-114824140D01*
X166007186Y-114730309D01*
X165892093Y-114644149D01*
X165892086Y-114644145D01*
X165757379Y-114593903D01*
X165757372Y-114593901D01*
X165697844Y-114587500D01*
X165375000Y-114587500D01*
X164625000Y-114587500D01*
X164302155Y-114587500D01*
X164242627Y-114593901D01*
X164242620Y-114593903D01*
X164107913Y-114644145D01*
X164107906Y-114644149D01*
X163992812Y-114730309D01*
X163949266Y-114788479D01*
X163893332Y-114830349D01*
X163823640Y-114835333D01*
X163762317Y-114801847D01*
X163750734Y-114788479D01*
X163707187Y-114730309D01*
X163592093Y-114644149D01*
X163592086Y-114644145D01*
X163457379Y-114593903D01*
X163457372Y-114593901D01*
X163397844Y-114587500D01*
X163075000Y-114587500D01*
X163075000Y-115125000D01*
X162325000Y-115125000D01*
X162325000Y-114587500D01*
X162002155Y-114587500D01*
X161942627Y-114593901D01*
X161942620Y-114593903D01*
X161807913Y-114644145D01*
X161807906Y-114644149D01*
X161692812Y-114730309D01*
X161692809Y-114730312D01*
X161606649Y-114845406D01*
X161606645Y-114845413D01*
X161556403Y-114980120D01*
X161556401Y-114980127D01*
X161550000Y-115039655D01*
X135100316Y-115039655D01*
X135058100Y-114997439D01*
X135058096Y-114997436D01*
X134935264Y-114915362D01*
X134935254Y-114915357D01*
X134798767Y-114858822D01*
X134798759Y-114858820D01*
X134653872Y-114830000D01*
X134405000Y-114830000D01*
X134405000Y-115205000D01*
X133655000Y-115205000D01*
X133655000Y-114830000D01*
X133406128Y-114830000D01*
X133261240Y-114858820D01*
X133261232Y-114858822D01*
X133124745Y-114915357D01*
X133124735Y-114915362D01*
X133001903Y-114997436D01*
X133001899Y-114997439D01*
X132897439Y-115101899D01*
X132897433Y-115101907D01*
X132828549Y-115204999D01*
X130801450Y-115204999D01*
X130732566Y-115101907D01*
X130732560Y-115101899D01*
X130628100Y-114997439D01*
X130628096Y-114997436D01*
X130505264Y-114915362D01*
X130505254Y-114915357D01*
X130368765Y-114858821D01*
X130368761Y-114858820D01*
X130225000Y-114830223D01*
X130225000Y-115205000D01*
X129475000Y-115205000D01*
X129475000Y-114830224D01*
X129474999Y-114830223D01*
X129331238Y-114858820D01*
X129331234Y-114858821D01*
X129194745Y-114915357D01*
X129194735Y-114915362D01*
X129071903Y-114997436D01*
X129071899Y-114997439D01*
X128967439Y-115101899D01*
X128967433Y-115101907D01*
X128898549Y-115204999D01*
X127010500Y-115204999D01*
X127010500Y-113926500D01*
X127030185Y-113859461D01*
X127082989Y-113813706D01*
X127134500Y-113802500D01*
X168920500Y-113802500D01*
X168987539Y-113822185D01*
G37*
G04 #@! TD.AperFunction*
M02*
