G04 #@! TF.GenerationSoftware,KiCad,Pcbnew,9.0.3*
G04 #@! TF.CreationDate,2025-08-03T15:22:30-04:00*
G04 #@! TF.ProjectId,CH32V003F4P6,43483332-5630-4303-9346-3450362e6b69,rev?*
G04 #@! TF.SameCoordinates,Original*
G04 #@! TF.FileFunction,Legend,Top*
G04 #@! TF.FilePolarity,Positive*
%FSLAX46Y46*%
G04 Gerber Fmt 4.6, Leading zero omitted, Abs format (unit mm)*
G04 Created by KiCad (PCBNEW 9.0.3) date 2025-08-03 15:22:30*
%MOMM*%
%LPD*%
G01*
G04 APERTURE LIST*
%ADD10C,0.150000*%
%ADD11C,0.120000*%
G04 APERTURE END LIST*
D10*
X176958666Y-116040819D02*
X176958666Y-116755104D01*
X176958666Y-116755104D02*
X176911047Y-116897961D01*
X176911047Y-116897961D02*
X176815809Y-116993200D01*
X176815809Y-116993200D02*
X176672952Y-117040819D01*
X176672952Y-117040819D02*
X176577714Y-117040819D01*
X177387238Y-116136057D02*
X177434857Y-116088438D01*
X177434857Y-116088438D02*
X177530095Y-116040819D01*
X177530095Y-116040819D02*
X177768190Y-116040819D01*
X177768190Y-116040819D02*
X177863428Y-116088438D01*
X177863428Y-116088438D02*
X177911047Y-116136057D01*
X177911047Y-116136057D02*
X177958666Y-116231295D01*
X177958666Y-116231295D02*
X177958666Y-116326533D01*
X177958666Y-116326533D02*
X177911047Y-116469390D01*
X177911047Y-116469390D02*
X177339619Y-117040819D01*
X177339619Y-117040819D02*
X177958666Y-117040819D01*
X165359580Y-121229166D02*
X165407200Y-121276785D01*
X165407200Y-121276785D02*
X165454819Y-121419642D01*
X165454819Y-121419642D02*
X165454819Y-121514880D01*
X165454819Y-121514880D02*
X165407200Y-121657737D01*
X165407200Y-121657737D02*
X165311961Y-121752975D01*
X165311961Y-121752975D02*
X165216723Y-121800594D01*
X165216723Y-121800594D02*
X165026247Y-121848213D01*
X165026247Y-121848213D02*
X164883390Y-121848213D01*
X164883390Y-121848213D02*
X164692914Y-121800594D01*
X164692914Y-121800594D02*
X164597676Y-121752975D01*
X164597676Y-121752975D02*
X164502438Y-121657737D01*
X164502438Y-121657737D02*
X164454819Y-121514880D01*
X164454819Y-121514880D02*
X164454819Y-121419642D01*
X164454819Y-121419642D02*
X164502438Y-121276785D01*
X164502438Y-121276785D02*
X164550057Y-121229166D01*
X165454819Y-120276785D02*
X165454819Y-120848213D01*
X165454819Y-120562499D02*
X164454819Y-120562499D01*
X164454819Y-120562499D02*
X164597676Y-120657737D01*
X164597676Y-120657737D02*
X164692914Y-120752975D01*
X164692914Y-120752975D02*
X164740533Y-120848213D01*
X128466666Y-125354819D02*
X128466666Y-126069104D01*
X128466666Y-126069104D02*
X128419047Y-126211961D01*
X128419047Y-126211961D02*
X128323809Y-126307200D01*
X128323809Y-126307200D02*
X128180952Y-126354819D01*
X128180952Y-126354819D02*
X128085714Y-126354819D01*
X129466666Y-126354819D02*
X128895238Y-126354819D01*
X129180952Y-126354819D02*
X129180952Y-125354819D01*
X129180952Y-125354819D02*
X129085714Y-125497676D01*
X129085714Y-125497676D02*
X128990476Y-125592914D01*
X128990476Y-125592914D02*
X128895238Y-125640533D01*
X163059580Y-121229166D02*
X163107200Y-121276785D01*
X163107200Y-121276785D02*
X163154819Y-121419642D01*
X163154819Y-121419642D02*
X163154819Y-121514880D01*
X163154819Y-121514880D02*
X163107200Y-121657737D01*
X163107200Y-121657737D02*
X163011961Y-121752975D01*
X163011961Y-121752975D02*
X162916723Y-121800594D01*
X162916723Y-121800594D02*
X162726247Y-121848213D01*
X162726247Y-121848213D02*
X162583390Y-121848213D01*
X162583390Y-121848213D02*
X162392914Y-121800594D01*
X162392914Y-121800594D02*
X162297676Y-121752975D01*
X162297676Y-121752975D02*
X162202438Y-121657737D01*
X162202438Y-121657737D02*
X162154819Y-121514880D01*
X162154819Y-121514880D02*
X162154819Y-121419642D01*
X162154819Y-121419642D02*
X162202438Y-121276785D01*
X162202438Y-121276785D02*
X162250057Y-121229166D01*
X162250057Y-120848213D02*
X162202438Y-120800594D01*
X162202438Y-120800594D02*
X162154819Y-120705356D01*
X162154819Y-120705356D02*
X162154819Y-120467261D01*
X162154819Y-120467261D02*
X162202438Y-120372023D01*
X162202438Y-120372023D02*
X162250057Y-120324404D01*
X162250057Y-120324404D02*
X162345295Y-120276785D01*
X162345295Y-120276785D02*
X162440533Y-120276785D01*
X162440533Y-120276785D02*
X162583390Y-120324404D01*
X162583390Y-120324404D02*
X163154819Y-120895832D01*
X163154819Y-120895832D02*
X163154819Y-120276785D01*
X142433333Y-115054819D02*
X142100000Y-114578628D01*
X141861905Y-115054819D02*
X141861905Y-114054819D01*
X141861905Y-114054819D02*
X142242857Y-114054819D01*
X142242857Y-114054819D02*
X142338095Y-114102438D01*
X142338095Y-114102438D02*
X142385714Y-114150057D01*
X142385714Y-114150057D02*
X142433333Y-114245295D01*
X142433333Y-114245295D02*
X142433333Y-114388152D01*
X142433333Y-114388152D02*
X142385714Y-114483390D01*
X142385714Y-114483390D02*
X142338095Y-114531009D01*
X142338095Y-114531009D02*
X142242857Y-114578628D01*
X142242857Y-114578628D02*
X141861905Y-114578628D01*
X143338095Y-114054819D02*
X142861905Y-114054819D01*
X142861905Y-114054819D02*
X142814286Y-114531009D01*
X142814286Y-114531009D02*
X142861905Y-114483390D01*
X142861905Y-114483390D02*
X142957143Y-114435771D01*
X142957143Y-114435771D02*
X143195238Y-114435771D01*
X143195238Y-114435771D02*
X143290476Y-114483390D01*
X143290476Y-114483390D02*
X143338095Y-114531009D01*
X143338095Y-114531009D02*
X143385714Y-114626247D01*
X143385714Y-114626247D02*
X143385714Y-114864342D01*
X143385714Y-114864342D02*
X143338095Y-114959580D01*
X143338095Y-114959580D02*
X143290476Y-115007200D01*
X143290476Y-115007200D02*
X143195238Y-115054819D01*
X143195238Y-115054819D02*
X142957143Y-115054819D01*
X142957143Y-115054819D02*
X142861905Y-115007200D01*
X142861905Y-115007200D02*
X142814286Y-114959580D01*
X139508333Y-116321484D02*
X139175000Y-115845293D01*
X138936905Y-116321484D02*
X138936905Y-115321484D01*
X138936905Y-115321484D02*
X139317857Y-115321484D01*
X139317857Y-115321484D02*
X139413095Y-115369103D01*
X139413095Y-115369103D02*
X139460714Y-115416722D01*
X139460714Y-115416722D02*
X139508333Y-115511960D01*
X139508333Y-115511960D02*
X139508333Y-115654817D01*
X139508333Y-115654817D02*
X139460714Y-115750055D01*
X139460714Y-115750055D02*
X139413095Y-115797674D01*
X139413095Y-115797674D02*
X139317857Y-115845293D01*
X139317857Y-115845293D02*
X138936905Y-115845293D01*
X139841667Y-115321484D02*
X140460714Y-115321484D01*
X140460714Y-115321484D02*
X140127381Y-115702436D01*
X140127381Y-115702436D02*
X140270238Y-115702436D01*
X140270238Y-115702436D02*
X140365476Y-115750055D01*
X140365476Y-115750055D02*
X140413095Y-115797674D01*
X140413095Y-115797674D02*
X140460714Y-115892912D01*
X140460714Y-115892912D02*
X140460714Y-116131007D01*
X140460714Y-116131007D02*
X140413095Y-116226245D01*
X140413095Y-116226245D02*
X140365476Y-116273865D01*
X140365476Y-116273865D02*
X140270238Y-116321484D01*
X140270238Y-116321484D02*
X139984524Y-116321484D01*
X139984524Y-116321484D02*
X139889286Y-116273865D01*
X139889286Y-116273865D02*
X139841667Y-116226245D01*
X142414400Y-116321485D02*
X142081067Y-115845294D01*
X141842972Y-116321485D02*
X141842972Y-115321485D01*
X141842972Y-115321485D02*
X142223924Y-115321485D01*
X142223924Y-115321485D02*
X142319162Y-115369104D01*
X142319162Y-115369104D02*
X142366781Y-115416723D01*
X142366781Y-115416723D02*
X142414400Y-115511961D01*
X142414400Y-115511961D02*
X142414400Y-115654818D01*
X142414400Y-115654818D02*
X142366781Y-115750056D01*
X142366781Y-115750056D02*
X142319162Y-115797675D01*
X142319162Y-115797675D02*
X142223924Y-115845294D01*
X142223924Y-115845294D02*
X141842972Y-115845294D01*
X143271543Y-115321485D02*
X143081067Y-115321485D01*
X143081067Y-115321485D02*
X142985829Y-115369104D01*
X142985829Y-115369104D02*
X142938210Y-115416723D01*
X142938210Y-115416723D02*
X142842972Y-115559580D01*
X142842972Y-115559580D02*
X142795353Y-115750056D01*
X142795353Y-115750056D02*
X142795353Y-116131008D01*
X142795353Y-116131008D02*
X142842972Y-116226246D01*
X142842972Y-116226246D02*
X142890591Y-116273866D01*
X142890591Y-116273866D02*
X142985829Y-116321485D01*
X142985829Y-116321485D02*
X143176305Y-116321485D01*
X143176305Y-116321485D02*
X143271543Y-116273866D01*
X143271543Y-116273866D02*
X143319162Y-116226246D01*
X143319162Y-116226246D02*
X143366781Y-116131008D01*
X143366781Y-116131008D02*
X143366781Y-115892913D01*
X143366781Y-115892913D02*
X143319162Y-115797675D01*
X143319162Y-115797675D02*
X143271543Y-115750056D01*
X143271543Y-115750056D02*
X143176305Y-115702437D01*
X143176305Y-115702437D02*
X142985829Y-115702437D01*
X142985829Y-115702437D02*
X142890591Y-115750056D01*
X142890591Y-115750056D02*
X142842972Y-115797675D01*
X142842972Y-115797675D02*
X142795353Y-115892913D01*
X152338095Y-117854819D02*
X152338095Y-118664342D01*
X152338095Y-118664342D02*
X152385714Y-118759580D01*
X152385714Y-118759580D02*
X152433333Y-118807200D01*
X152433333Y-118807200D02*
X152528571Y-118854819D01*
X152528571Y-118854819D02*
X152719047Y-118854819D01*
X152719047Y-118854819D02*
X152814285Y-118807200D01*
X152814285Y-118807200D02*
X152861904Y-118759580D01*
X152861904Y-118759580D02*
X152909523Y-118664342D01*
X152909523Y-118664342D02*
X152909523Y-117854819D01*
X153338095Y-117950057D02*
X153385714Y-117902438D01*
X153385714Y-117902438D02*
X153480952Y-117854819D01*
X153480952Y-117854819D02*
X153719047Y-117854819D01*
X153719047Y-117854819D02*
X153814285Y-117902438D01*
X153814285Y-117902438D02*
X153861904Y-117950057D01*
X153861904Y-117950057D02*
X153909523Y-118045295D01*
X153909523Y-118045295D02*
X153909523Y-118140533D01*
X153909523Y-118140533D02*
X153861904Y-118283390D01*
X153861904Y-118283390D02*
X153290476Y-118854819D01*
X153290476Y-118854819D02*
X153909523Y-118854819D01*
X139508333Y-117588149D02*
X139175000Y-117111958D01*
X138936905Y-117588149D02*
X138936905Y-116588149D01*
X138936905Y-116588149D02*
X139317857Y-116588149D01*
X139317857Y-116588149D02*
X139413095Y-116635768D01*
X139413095Y-116635768D02*
X139460714Y-116683387D01*
X139460714Y-116683387D02*
X139508333Y-116778625D01*
X139508333Y-116778625D02*
X139508333Y-116921482D01*
X139508333Y-116921482D02*
X139460714Y-117016720D01*
X139460714Y-117016720D02*
X139413095Y-117064339D01*
X139413095Y-117064339D02*
X139317857Y-117111958D01*
X139317857Y-117111958D02*
X138936905Y-117111958D01*
X140365476Y-116921482D02*
X140365476Y-117588149D01*
X140127381Y-116540530D02*
X139889286Y-117254815D01*
X139889286Y-117254815D02*
X140508333Y-117254815D01*
X169838095Y-121954819D02*
X169838095Y-122764342D01*
X169838095Y-122764342D02*
X169885714Y-122859580D01*
X169885714Y-122859580D02*
X169933333Y-122907200D01*
X169933333Y-122907200D02*
X170028571Y-122954819D01*
X170028571Y-122954819D02*
X170219047Y-122954819D01*
X170219047Y-122954819D02*
X170314285Y-122907200D01*
X170314285Y-122907200D02*
X170361904Y-122859580D01*
X170361904Y-122859580D02*
X170409523Y-122764342D01*
X170409523Y-122764342D02*
X170409523Y-121954819D01*
X171409523Y-122954819D02*
X170838095Y-122954819D01*
X171123809Y-122954819D02*
X171123809Y-121954819D01*
X171123809Y-121954819D02*
X171028571Y-122097676D01*
X171028571Y-122097676D02*
X170933333Y-122192914D01*
X170933333Y-122192914D02*
X170838095Y-122240533D01*
X142433333Y-118854817D02*
X142100000Y-118378626D01*
X141861905Y-118854817D02*
X141861905Y-117854817D01*
X141861905Y-117854817D02*
X142242857Y-117854817D01*
X142242857Y-117854817D02*
X142338095Y-117902436D01*
X142338095Y-117902436D02*
X142385714Y-117950055D01*
X142385714Y-117950055D02*
X142433333Y-118045293D01*
X142433333Y-118045293D02*
X142433333Y-118188150D01*
X142433333Y-118188150D02*
X142385714Y-118283388D01*
X142385714Y-118283388D02*
X142338095Y-118331007D01*
X142338095Y-118331007D02*
X142242857Y-118378626D01*
X142242857Y-118378626D02*
X141861905Y-118378626D01*
X142766667Y-117854817D02*
X143433333Y-117854817D01*
X143433333Y-117854817D02*
X143004762Y-118854817D01*
X142410854Y-117588151D02*
X142077521Y-117111960D01*
X141839426Y-117588151D02*
X141839426Y-116588151D01*
X141839426Y-116588151D02*
X142220378Y-116588151D01*
X142220378Y-116588151D02*
X142315616Y-116635770D01*
X142315616Y-116635770D02*
X142363235Y-116683389D01*
X142363235Y-116683389D02*
X142410854Y-116778627D01*
X142410854Y-116778627D02*
X142410854Y-116921484D01*
X142410854Y-116921484D02*
X142363235Y-117016722D01*
X142363235Y-117016722D02*
X142315616Y-117064341D01*
X142315616Y-117064341D02*
X142220378Y-117111960D01*
X142220378Y-117111960D02*
X141839426Y-117111960D01*
X142982283Y-117016722D02*
X142887045Y-116969103D01*
X142887045Y-116969103D02*
X142839426Y-116921484D01*
X142839426Y-116921484D02*
X142791807Y-116826246D01*
X142791807Y-116826246D02*
X142791807Y-116778627D01*
X142791807Y-116778627D02*
X142839426Y-116683389D01*
X142839426Y-116683389D02*
X142887045Y-116635770D01*
X142887045Y-116635770D02*
X142982283Y-116588151D01*
X142982283Y-116588151D02*
X143172759Y-116588151D01*
X143172759Y-116588151D02*
X143267997Y-116635770D01*
X143267997Y-116635770D02*
X143315616Y-116683389D01*
X143315616Y-116683389D02*
X143363235Y-116778627D01*
X143363235Y-116778627D02*
X143363235Y-116826246D01*
X143363235Y-116826246D02*
X143315616Y-116921484D01*
X143315616Y-116921484D02*
X143267997Y-116969103D01*
X143267997Y-116969103D02*
X143172759Y-117016722D01*
X143172759Y-117016722D02*
X142982283Y-117016722D01*
X142982283Y-117016722D02*
X142887045Y-117064341D01*
X142887045Y-117064341D02*
X142839426Y-117111960D01*
X142839426Y-117111960D02*
X142791807Y-117207198D01*
X142791807Y-117207198D02*
X142791807Y-117397674D01*
X142791807Y-117397674D02*
X142839426Y-117492912D01*
X142839426Y-117492912D02*
X142887045Y-117540532D01*
X142887045Y-117540532D02*
X142982283Y-117588151D01*
X142982283Y-117588151D02*
X143172759Y-117588151D01*
X143172759Y-117588151D02*
X143267997Y-117540532D01*
X143267997Y-117540532D02*
X143315616Y-117492912D01*
X143315616Y-117492912D02*
X143363235Y-117397674D01*
X143363235Y-117397674D02*
X143363235Y-117207198D01*
X143363235Y-117207198D02*
X143315616Y-117111960D01*
X143315616Y-117111960D02*
X143267997Y-117064341D01*
X143267997Y-117064341D02*
X143172759Y-117016722D01*
X131566666Y-125254819D02*
X131566666Y-125969104D01*
X131566666Y-125969104D02*
X131519047Y-126111961D01*
X131519047Y-126111961D02*
X131423809Y-126207200D01*
X131423809Y-126207200D02*
X131280952Y-126254819D01*
X131280952Y-126254819D02*
X131185714Y-126254819D01*
X131947619Y-125254819D02*
X132566666Y-125254819D01*
X132566666Y-125254819D02*
X132233333Y-125635771D01*
X132233333Y-125635771D02*
X132376190Y-125635771D01*
X132376190Y-125635771D02*
X132471428Y-125683390D01*
X132471428Y-125683390D02*
X132519047Y-125731009D01*
X132519047Y-125731009D02*
X132566666Y-125826247D01*
X132566666Y-125826247D02*
X132566666Y-126064342D01*
X132566666Y-126064342D02*
X132519047Y-126159580D01*
X132519047Y-126159580D02*
X132471428Y-126207200D01*
X132471428Y-126207200D02*
X132376190Y-126254819D01*
X132376190Y-126254819D02*
X132090476Y-126254819D01*
X132090476Y-126254819D02*
X131995238Y-126207200D01*
X131995238Y-126207200D02*
X131947619Y-126159580D01*
X139508333Y-118854814D02*
X139175000Y-118378623D01*
X138936905Y-118854814D02*
X138936905Y-117854814D01*
X138936905Y-117854814D02*
X139317857Y-117854814D01*
X139317857Y-117854814D02*
X139413095Y-117902433D01*
X139413095Y-117902433D02*
X139460714Y-117950052D01*
X139460714Y-117950052D02*
X139508333Y-118045290D01*
X139508333Y-118045290D02*
X139508333Y-118188147D01*
X139508333Y-118188147D02*
X139460714Y-118283385D01*
X139460714Y-118283385D02*
X139413095Y-118331004D01*
X139413095Y-118331004D02*
X139317857Y-118378623D01*
X139317857Y-118378623D02*
X138936905Y-118378623D01*
X139889286Y-117950052D02*
X139936905Y-117902433D01*
X139936905Y-117902433D02*
X140032143Y-117854814D01*
X140032143Y-117854814D02*
X140270238Y-117854814D01*
X140270238Y-117854814D02*
X140365476Y-117902433D01*
X140365476Y-117902433D02*
X140413095Y-117950052D01*
X140413095Y-117950052D02*
X140460714Y-118045290D01*
X140460714Y-118045290D02*
X140460714Y-118140528D01*
X140460714Y-118140528D02*
X140413095Y-118283385D01*
X140413095Y-118283385D02*
X139841667Y-118854814D01*
X139841667Y-118854814D02*
X140460714Y-118854814D01*
X139533333Y-115054819D02*
X139200000Y-114578628D01*
X138961905Y-115054819D02*
X138961905Y-114054819D01*
X138961905Y-114054819D02*
X139342857Y-114054819D01*
X139342857Y-114054819D02*
X139438095Y-114102438D01*
X139438095Y-114102438D02*
X139485714Y-114150057D01*
X139485714Y-114150057D02*
X139533333Y-114245295D01*
X139533333Y-114245295D02*
X139533333Y-114388152D01*
X139533333Y-114388152D02*
X139485714Y-114483390D01*
X139485714Y-114483390D02*
X139438095Y-114531009D01*
X139438095Y-114531009D02*
X139342857Y-114578628D01*
X139342857Y-114578628D02*
X138961905Y-114578628D01*
X140485714Y-115054819D02*
X139914286Y-115054819D01*
X140200000Y-115054819D02*
X140200000Y-114054819D01*
X140200000Y-114054819D02*
X140104762Y-114197676D01*
X140104762Y-114197676D02*
X140009524Y-114292914D01*
X140009524Y-114292914D02*
X139914286Y-114340533D01*
D11*
X175962000Y-123175000D02*
X175962000Y-118035000D01*
X178622000Y-118035000D02*
X175962000Y-118035000D01*
X178622000Y-123175000D02*
X175962000Y-123175000D01*
X178622000Y-123175000D02*
X178622000Y-118035000D01*
X178622000Y-124445000D02*
X178622000Y-125775000D01*
X178622000Y-125775000D02*
X177292000Y-125775000D01*
X164090000Y-117773752D02*
X164090000Y-116351248D01*
X165910000Y-117773752D02*
X165910000Y-116351248D01*
X127000000Y-115200000D02*
X128900000Y-115200000D01*
X127000000Y-124600000D02*
X127000000Y-115200000D01*
X127000000Y-124600000D02*
X128900000Y-124600000D01*
X130800000Y-115200000D02*
X132800000Y-115200000D01*
X130800000Y-124600000D02*
X132800000Y-124600000D01*
X161790000Y-117773752D02*
X161790000Y-116351248D01*
X163610000Y-117773752D02*
X163610000Y-116351248D01*
X142418809Y-119383403D02*
X142893325Y-119383403D01*
X142418809Y-120428403D02*
X142893325Y-120428403D01*
X139437742Y-120871876D02*
X139912258Y-120871876D01*
X139437742Y-121916876D02*
X139912258Y-121916876D01*
X142418809Y-120881435D02*
X142893325Y-120881435D01*
X142418809Y-121926435D02*
X142893325Y-121926435D01*
X153100000Y-119215000D02*
X150900000Y-119215000D01*
X153100000Y-119215000D02*
X155300000Y-119215000D01*
X153100000Y-125985000D02*
X150900000Y-125985000D01*
X153100000Y-125985000D02*
X155300000Y-125985000D01*
X149240000Y-119675000D02*
X148910000Y-119915000D01*
X148910000Y-119435000D01*
X149240000Y-119675000D01*
G36*
X149240000Y-119675000D02*
G01*
X148910000Y-119915000D01*
X148910000Y-119435000D01*
X149240000Y-119675000D01*
G37*
X139437742Y-122374687D02*
X139912258Y-122374687D01*
X139437742Y-123419687D02*
X139912258Y-123419687D01*
X168750000Y-114390000D02*
X172510000Y-114390000D01*
X168750000Y-121210000D02*
X172510000Y-121210000D01*
X172510000Y-114390000D02*
X172510000Y-115650000D01*
X172510000Y-121210000D02*
X172510000Y-119950000D01*
X167470000Y-114490000D02*
X167230000Y-114160000D01*
X167710000Y-114160000D01*
X167470000Y-114490000D01*
G36*
X167470000Y-114490000D02*
G01*
X167230000Y-114160000D01*
X167710000Y-114160000D01*
X167470000Y-114490000D01*
G37*
X142418809Y-123877499D02*
X142893325Y-123877499D01*
X142418809Y-124922499D02*
X142893325Y-124922499D01*
X142418809Y-122379467D02*
X142893325Y-122379467D01*
X142418809Y-123424467D02*
X142893325Y-123424467D01*
X127745000Y-129530000D02*
X127745000Y-128200000D01*
X129075000Y-129530000D02*
X127745000Y-129530000D01*
X130345000Y-126870000D02*
X178665000Y-126870000D01*
X130345000Y-129530000D02*
X130345000Y-126870000D01*
X130345000Y-129530000D02*
X178665000Y-129530000D01*
X178665000Y-129530000D02*
X178665000Y-126870000D01*
X139437742Y-123877498D02*
X139912258Y-123877498D01*
X139437742Y-124922498D02*
X139912258Y-124922498D01*
X139437742Y-119369065D02*
X139912258Y-119369065D01*
X139437742Y-120414065D02*
X139912258Y-120414065D01*
%LPC*%
G36*
X129925000Y-129050000D02*
G01*
X128225000Y-129050000D01*
X128225000Y-127350000D01*
X129925000Y-127350000D01*
X129925000Y-129050000D01*
G37*
G36*
X131861742Y-127386601D02*
G01*
X132015687Y-127450367D01*
X132154234Y-127542941D01*
X132272059Y-127660766D01*
X132364633Y-127799313D01*
X132428399Y-127953258D01*
X132460907Y-128116685D01*
X132460907Y-128283315D01*
X132428399Y-128446742D01*
X132364633Y-128600687D01*
X132272059Y-128739234D01*
X132154234Y-128857059D01*
X132015687Y-128949633D01*
X131861742Y-129013399D01*
X131698315Y-129045907D01*
X131531685Y-129045907D01*
X131368258Y-129013399D01*
X131214313Y-128949633D01*
X131075766Y-128857059D01*
X130957941Y-128739234D01*
X130865367Y-128600687D01*
X130801601Y-128446742D01*
X130769093Y-128283315D01*
X130769093Y-128116685D01*
X130801601Y-127953258D01*
X130865367Y-127799313D01*
X130957941Y-127660766D01*
X131075766Y-127542941D01*
X131214313Y-127450367D01*
X131368258Y-127386601D01*
X131531685Y-127354093D01*
X131698315Y-127354093D01*
X131861742Y-127386601D01*
G37*
G36*
X134401742Y-127386601D02*
G01*
X134555687Y-127450367D01*
X134694234Y-127542941D01*
X134812059Y-127660766D01*
X134904633Y-127799313D01*
X134968399Y-127953258D01*
X135000907Y-128116685D01*
X135000907Y-128283315D01*
X134968399Y-128446742D01*
X134904633Y-128600687D01*
X134812059Y-128739234D01*
X134694234Y-128857059D01*
X134555687Y-128949633D01*
X134401742Y-129013399D01*
X134238315Y-129045907D01*
X134071685Y-129045907D01*
X133908258Y-129013399D01*
X133754313Y-128949633D01*
X133615766Y-128857059D01*
X133497941Y-128739234D01*
X133405367Y-128600687D01*
X133341601Y-128446742D01*
X133309093Y-128283315D01*
X133309093Y-128116685D01*
X133341601Y-127953258D01*
X133405367Y-127799313D01*
X133497941Y-127660766D01*
X133615766Y-127542941D01*
X133754313Y-127450367D01*
X133908258Y-127386601D01*
X134071685Y-127354093D01*
X134238315Y-127354093D01*
X134401742Y-127386601D01*
G37*
G36*
X136941742Y-127386601D02*
G01*
X137095687Y-127450367D01*
X137234234Y-127542941D01*
X137352059Y-127660766D01*
X137444633Y-127799313D01*
X137508399Y-127953258D01*
X137540907Y-128116685D01*
X137540907Y-128283315D01*
X137508399Y-128446742D01*
X137444633Y-128600687D01*
X137352059Y-128739234D01*
X137234234Y-128857059D01*
X137095687Y-128949633D01*
X136941742Y-129013399D01*
X136778315Y-129045907D01*
X136611685Y-129045907D01*
X136448258Y-129013399D01*
X136294313Y-128949633D01*
X136155766Y-128857059D01*
X136037941Y-128739234D01*
X135945367Y-128600687D01*
X135881601Y-128446742D01*
X135849093Y-128283315D01*
X135849093Y-128116685D01*
X135881601Y-127953258D01*
X135945367Y-127799313D01*
X136037941Y-127660766D01*
X136155766Y-127542941D01*
X136294313Y-127450367D01*
X136448258Y-127386601D01*
X136611685Y-127354093D01*
X136778315Y-127354093D01*
X136941742Y-127386601D01*
G37*
G36*
X139481742Y-127386601D02*
G01*
X139635687Y-127450367D01*
X139774234Y-127542941D01*
X139892059Y-127660766D01*
X139984633Y-127799313D01*
X140048399Y-127953258D01*
X140080907Y-128116685D01*
X140080907Y-128283315D01*
X140048399Y-128446742D01*
X139984633Y-128600687D01*
X139892059Y-128739234D01*
X139774234Y-128857059D01*
X139635687Y-128949633D01*
X139481742Y-129013399D01*
X139318315Y-129045907D01*
X139151685Y-129045907D01*
X138988258Y-129013399D01*
X138834313Y-128949633D01*
X138695766Y-128857059D01*
X138577941Y-128739234D01*
X138485367Y-128600687D01*
X138421601Y-128446742D01*
X138389093Y-128283315D01*
X138389093Y-128116685D01*
X138421601Y-127953258D01*
X138485367Y-127799313D01*
X138577941Y-127660766D01*
X138695766Y-127542941D01*
X138834313Y-127450367D01*
X138988258Y-127386601D01*
X139151685Y-127354093D01*
X139318315Y-127354093D01*
X139481742Y-127386601D01*
G37*
G36*
X142021742Y-127386601D02*
G01*
X142175687Y-127450367D01*
X142314234Y-127542941D01*
X142432059Y-127660766D01*
X142524633Y-127799313D01*
X142588399Y-127953258D01*
X142620907Y-128116685D01*
X142620907Y-128283315D01*
X142588399Y-128446742D01*
X142524633Y-128600687D01*
X142432059Y-128739234D01*
X142314234Y-128857059D01*
X142175687Y-128949633D01*
X142021742Y-129013399D01*
X141858315Y-129045907D01*
X141691685Y-129045907D01*
X141528258Y-129013399D01*
X141374313Y-128949633D01*
X141235766Y-128857059D01*
X141117941Y-128739234D01*
X141025367Y-128600687D01*
X140961601Y-128446742D01*
X140929093Y-128283315D01*
X140929093Y-128116685D01*
X140961601Y-127953258D01*
X141025367Y-127799313D01*
X141117941Y-127660766D01*
X141235766Y-127542941D01*
X141374313Y-127450367D01*
X141528258Y-127386601D01*
X141691685Y-127354093D01*
X141858315Y-127354093D01*
X142021742Y-127386601D01*
G37*
G36*
X144561742Y-127386601D02*
G01*
X144715687Y-127450367D01*
X144854234Y-127542941D01*
X144972059Y-127660766D01*
X145064633Y-127799313D01*
X145128399Y-127953258D01*
X145160907Y-128116685D01*
X145160907Y-128283315D01*
X145128399Y-128446742D01*
X145064633Y-128600687D01*
X144972059Y-128739234D01*
X144854234Y-128857059D01*
X144715687Y-128949633D01*
X144561742Y-129013399D01*
X144398315Y-129045907D01*
X144231685Y-129045907D01*
X144068258Y-129013399D01*
X143914313Y-128949633D01*
X143775766Y-128857059D01*
X143657941Y-128739234D01*
X143565367Y-128600687D01*
X143501601Y-128446742D01*
X143469093Y-128283315D01*
X143469093Y-128116685D01*
X143501601Y-127953258D01*
X143565367Y-127799313D01*
X143657941Y-127660766D01*
X143775766Y-127542941D01*
X143914313Y-127450367D01*
X144068258Y-127386601D01*
X144231685Y-127354093D01*
X144398315Y-127354093D01*
X144561742Y-127386601D01*
G37*
G36*
X147101742Y-127386601D02*
G01*
X147255687Y-127450367D01*
X147394234Y-127542941D01*
X147512059Y-127660766D01*
X147604633Y-127799313D01*
X147668399Y-127953258D01*
X147700907Y-128116685D01*
X147700907Y-128283315D01*
X147668399Y-128446742D01*
X147604633Y-128600687D01*
X147512059Y-128739234D01*
X147394234Y-128857059D01*
X147255687Y-128949633D01*
X147101742Y-129013399D01*
X146938315Y-129045907D01*
X146771685Y-129045907D01*
X146608258Y-129013399D01*
X146454313Y-128949633D01*
X146315766Y-128857059D01*
X146197941Y-128739234D01*
X146105367Y-128600687D01*
X146041601Y-128446742D01*
X146009093Y-128283315D01*
X146009093Y-128116685D01*
X146041601Y-127953258D01*
X146105367Y-127799313D01*
X146197941Y-127660766D01*
X146315766Y-127542941D01*
X146454313Y-127450367D01*
X146608258Y-127386601D01*
X146771685Y-127354093D01*
X146938315Y-127354093D01*
X147101742Y-127386601D01*
G37*
G36*
X149641742Y-127386601D02*
G01*
X149795687Y-127450367D01*
X149934234Y-127542941D01*
X150052059Y-127660766D01*
X150144633Y-127799313D01*
X150208399Y-127953258D01*
X150240907Y-128116685D01*
X150240907Y-128283315D01*
X150208399Y-128446742D01*
X150144633Y-128600687D01*
X150052059Y-128739234D01*
X149934234Y-128857059D01*
X149795687Y-128949633D01*
X149641742Y-129013399D01*
X149478315Y-129045907D01*
X149311685Y-129045907D01*
X149148258Y-129013399D01*
X148994313Y-128949633D01*
X148855766Y-128857059D01*
X148737941Y-128739234D01*
X148645367Y-128600687D01*
X148581601Y-128446742D01*
X148549093Y-128283315D01*
X148549093Y-128116685D01*
X148581601Y-127953258D01*
X148645367Y-127799313D01*
X148737941Y-127660766D01*
X148855766Y-127542941D01*
X148994313Y-127450367D01*
X149148258Y-127386601D01*
X149311685Y-127354093D01*
X149478315Y-127354093D01*
X149641742Y-127386601D01*
G37*
G36*
X152181742Y-127386601D02*
G01*
X152335687Y-127450367D01*
X152474234Y-127542941D01*
X152592059Y-127660766D01*
X152684633Y-127799313D01*
X152748399Y-127953258D01*
X152780907Y-128116685D01*
X152780907Y-128283315D01*
X152748399Y-128446742D01*
X152684633Y-128600687D01*
X152592059Y-128739234D01*
X152474234Y-128857059D01*
X152335687Y-128949633D01*
X152181742Y-129013399D01*
X152018315Y-129045907D01*
X151851685Y-129045907D01*
X151688258Y-129013399D01*
X151534313Y-128949633D01*
X151395766Y-128857059D01*
X151277941Y-128739234D01*
X151185367Y-128600687D01*
X151121601Y-128446742D01*
X151089093Y-128283315D01*
X151089093Y-128116685D01*
X151121601Y-127953258D01*
X151185367Y-127799313D01*
X151277941Y-127660766D01*
X151395766Y-127542941D01*
X151534313Y-127450367D01*
X151688258Y-127386601D01*
X151851685Y-127354093D01*
X152018315Y-127354093D01*
X152181742Y-127386601D01*
G37*
G36*
X154721742Y-127386601D02*
G01*
X154875687Y-127450367D01*
X155014234Y-127542941D01*
X155132059Y-127660766D01*
X155224633Y-127799313D01*
X155288399Y-127953258D01*
X155320907Y-128116685D01*
X155320907Y-128283315D01*
X155288399Y-128446742D01*
X155224633Y-128600687D01*
X155132059Y-128739234D01*
X155014234Y-128857059D01*
X154875687Y-128949633D01*
X154721742Y-129013399D01*
X154558315Y-129045907D01*
X154391685Y-129045907D01*
X154228258Y-129013399D01*
X154074313Y-128949633D01*
X153935766Y-128857059D01*
X153817941Y-128739234D01*
X153725367Y-128600687D01*
X153661601Y-128446742D01*
X153629093Y-128283315D01*
X153629093Y-128116685D01*
X153661601Y-127953258D01*
X153725367Y-127799313D01*
X153817941Y-127660766D01*
X153935766Y-127542941D01*
X154074313Y-127450367D01*
X154228258Y-127386601D01*
X154391685Y-127354093D01*
X154558315Y-127354093D01*
X154721742Y-127386601D01*
G37*
G36*
X157261742Y-127386601D02*
G01*
X157415687Y-127450367D01*
X157554234Y-127542941D01*
X157672059Y-127660766D01*
X157764633Y-127799313D01*
X157828399Y-127953258D01*
X157860907Y-128116685D01*
X157860907Y-128283315D01*
X157828399Y-128446742D01*
X157764633Y-128600687D01*
X157672059Y-128739234D01*
X157554234Y-128857059D01*
X157415687Y-128949633D01*
X157261742Y-129013399D01*
X157098315Y-129045907D01*
X156931685Y-129045907D01*
X156768258Y-129013399D01*
X156614313Y-128949633D01*
X156475766Y-128857059D01*
X156357941Y-128739234D01*
X156265367Y-128600687D01*
X156201601Y-128446742D01*
X156169093Y-128283315D01*
X156169093Y-128116685D01*
X156201601Y-127953258D01*
X156265367Y-127799313D01*
X156357941Y-127660766D01*
X156475766Y-127542941D01*
X156614313Y-127450367D01*
X156768258Y-127386601D01*
X156931685Y-127354093D01*
X157098315Y-127354093D01*
X157261742Y-127386601D01*
G37*
G36*
X159801742Y-127386601D02*
G01*
X159955687Y-127450367D01*
X160094234Y-127542941D01*
X160212059Y-127660766D01*
X160304633Y-127799313D01*
X160368399Y-127953258D01*
X160400907Y-128116685D01*
X160400907Y-128283315D01*
X160368399Y-128446742D01*
X160304633Y-128600687D01*
X160212059Y-128739234D01*
X160094234Y-128857059D01*
X159955687Y-128949633D01*
X159801742Y-129013399D01*
X159638315Y-129045907D01*
X159471685Y-129045907D01*
X159308258Y-129013399D01*
X159154313Y-128949633D01*
X159015766Y-128857059D01*
X158897941Y-128739234D01*
X158805367Y-128600687D01*
X158741601Y-128446742D01*
X158709093Y-128283315D01*
X158709093Y-128116685D01*
X158741601Y-127953258D01*
X158805367Y-127799313D01*
X158897941Y-127660766D01*
X159015766Y-127542941D01*
X159154313Y-127450367D01*
X159308258Y-127386601D01*
X159471685Y-127354093D01*
X159638315Y-127354093D01*
X159801742Y-127386601D01*
G37*
G36*
X162341742Y-127386601D02*
G01*
X162495687Y-127450367D01*
X162634234Y-127542941D01*
X162752059Y-127660766D01*
X162844633Y-127799313D01*
X162908399Y-127953258D01*
X162940907Y-128116685D01*
X162940907Y-128283315D01*
X162908399Y-128446742D01*
X162844633Y-128600687D01*
X162752059Y-128739234D01*
X162634234Y-128857059D01*
X162495687Y-128949633D01*
X162341742Y-129013399D01*
X162178315Y-129045907D01*
X162011685Y-129045907D01*
X161848258Y-129013399D01*
X161694313Y-128949633D01*
X161555766Y-128857059D01*
X161437941Y-128739234D01*
X161345367Y-128600687D01*
X161281601Y-128446742D01*
X161249093Y-128283315D01*
X161249093Y-128116685D01*
X161281601Y-127953258D01*
X161345367Y-127799313D01*
X161437941Y-127660766D01*
X161555766Y-127542941D01*
X161694313Y-127450367D01*
X161848258Y-127386601D01*
X162011685Y-127354093D01*
X162178315Y-127354093D01*
X162341742Y-127386601D01*
G37*
G36*
X164881742Y-127386601D02*
G01*
X165035687Y-127450367D01*
X165174234Y-127542941D01*
X165292059Y-127660766D01*
X165384633Y-127799313D01*
X165448399Y-127953258D01*
X165480907Y-128116685D01*
X165480907Y-128283315D01*
X165448399Y-128446742D01*
X165384633Y-128600687D01*
X165292059Y-128739234D01*
X165174234Y-128857059D01*
X165035687Y-128949633D01*
X164881742Y-129013399D01*
X164718315Y-129045907D01*
X164551685Y-129045907D01*
X164388258Y-129013399D01*
X164234313Y-128949633D01*
X164095766Y-128857059D01*
X163977941Y-128739234D01*
X163885367Y-128600687D01*
X163821601Y-128446742D01*
X163789093Y-128283315D01*
X163789093Y-128116685D01*
X163821601Y-127953258D01*
X163885367Y-127799313D01*
X163977941Y-127660766D01*
X164095766Y-127542941D01*
X164234313Y-127450367D01*
X164388258Y-127386601D01*
X164551685Y-127354093D01*
X164718315Y-127354093D01*
X164881742Y-127386601D01*
G37*
G36*
X167421742Y-127386601D02*
G01*
X167575687Y-127450367D01*
X167714234Y-127542941D01*
X167832059Y-127660766D01*
X167924633Y-127799313D01*
X167988399Y-127953258D01*
X168020907Y-128116685D01*
X168020907Y-128283315D01*
X167988399Y-128446742D01*
X167924633Y-128600687D01*
X167832059Y-128739234D01*
X167714234Y-128857059D01*
X167575687Y-128949633D01*
X167421742Y-129013399D01*
X167258315Y-129045907D01*
X167091685Y-129045907D01*
X166928258Y-129013399D01*
X166774313Y-128949633D01*
X166635766Y-128857059D01*
X166517941Y-128739234D01*
X166425367Y-128600687D01*
X166361601Y-128446742D01*
X166329093Y-128283315D01*
X166329093Y-128116685D01*
X166361601Y-127953258D01*
X166425367Y-127799313D01*
X166517941Y-127660766D01*
X166635766Y-127542941D01*
X166774313Y-127450367D01*
X166928258Y-127386601D01*
X167091685Y-127354093D01*
X167258315Y-127354093D01*
X167421742Y-127386601D01*
G37*
G36*
X169961742Y-127386601D02*
G01*
X170115687Y-127450367D01*
X170254234Y-127542941D01*
X170372059Y-127660766D01*
X170464633Y-127799313D01*
X170528399Y-127953258D01*
X170560907Y-128116685D01*
X170560907Y-128283315D01*
X170528399Y-128446742D01*
X170464633Y-128600687D01*
X170372059Y-128739234D01*
X170254234Y-128857059D01*
X170115687Y-128949633D01*
X169961742Y-129013399D01*
X169798315Y-129045907D01*
X169631685Y-129045907D01*
X169468258Y-129013399D01*
X169314313Y-128949633D01*
X169175766Y-128857059D01*
X169057941Y-128739234D01*
X168965367Y-128600687D01*
X168901601Y-128446742D01*
X168869093Y-128283315D01*
X168869093Y-128116685D01*
X168901601Y-127953258D01*
X168965367Y-127799313D01*
X169057941Y-127660766D01*
X169175766Y-127542941D01*
X169314313Y-127450367D01*
X169468258Y-127386601D01*
X169631685Y-127354093D01*
X169798315Y-127354093D01*
X169961742Y-127386601D01*
G37*
G36*
X172501742Y-127386601D02*
G01*
X172655687Y-127450367D01*
X172794234Y-127542941D01*
X172912059Y-127660766D01*
X173004633Y-127799313D01*
X173068399Y-127953258D01*
X173100907Y-128116685D01*
X173100907Y-128283315D01*
X173068399Y-128446742D01*
X173004633Y-128600687D01*
X172912059Y-128739234D01*
X172794234Y-128857059D01*
X172655687Y-128949633D01*
X172501742Y-129013399D01*
X172338315Y-129045907D01*
X172171685Y-129045907D01*
X172008258Y-129013399D01*
X171854313Y-128949633D01*
X171715766Y-128857059D01*
X171597941Y-128739234D01*
X171505367Y-128600687D01*
X171441601Y-128446742D01*
X171409093Y-128283315D01*
X171409093Y-128116685D01*
X171441601Y-127953258D01*
X171505367Y-127799313D01*
X171597941Y-127660766D01*
X171715766Y-127542941D01*
X171854313Y-127450367D01*
X172008258Y-127386601D01*
X172171685Y-127354093D01*
X172338315Y-127354093D01*
X172501742Y-127386601D01*
G37*
G36*
X175041742Y-127386601D02*
G01*
X175195687Y-127450367D01*
X175334234Y-127542941D01*
X175452059Y-127660766D01*
X175544633Y-127799313D01*
X175608399Y-127953258D01*
X175640907Y-128116685D01*
X175640907Y-128283315D01*
X175608399Y-128446742D01*
X175544633Y-128600687D01*
X175452059Y-128739234D01*
X175334234Y-128857059D01*
X175195687Y-128949633D01*
X175041742Y-129013399D01*
X174878315Y-129045907D01*
X174711685Y-129045907D01*
X174548258Y-129013399D01*
X174394313Y-128949633D01*
X174255766Y-128857059D01*
X174137941Y-128739234D01*
X174045367Y-128600687D01*
X173981601Y-128446742D01*
X173949093Y-128283315D01*
X173949093Y-128116685D01*
X173981601Y-127953258D01*
X174045367Y-127799313D01*
X174137941Y-127660766D01*
X174255766Y-127542941D01*
X174394313Y-127450367D01*
X174548258Y-127386601D01*
X174711685Y-127354093D01*
X174878315Y-127354093D01*
X175041742Y-127386601D01*
G37*
G36*
X177581742Y-127386601D02*
G01*
X177735687Y-127450367D01*
X177874234Y-127542941D01*
X177992059Y-127660766D01*
X178084633Y-127799313D01*
X178148399Y-127953258D01*
X178180907Y-128116685D01*
X178180907Y-128283315D01*
X178148399Y-128446742D01*
X178084633Y-128600687D01*
X177992059Y-128739234D01*
X177874234Y-128857059D01*
X177735687Y-128949633D01*
X177581742Y-129013399D01*
X177418315Y-129045907D01*
X177251685Y-129045907D01*
X177088258Y-129013399D01*
X176934313Y-128949633D01*
X176795766Y-128857059D01*
X176677941Y-128739234D01*
X176585367Y-128600687D01*
X176521601Y-128446742D01*
X176489093Y-128283315D01*
X176489093Y-128116685D01*
X176521601Y-127953258D01*
X176585367Y-127799313D01*
X176677941Y-127660766D01*
X176795766Y-127542941D01*
X176934313Y-127450367D01*
X177088258Y-127386601D01*
X177251685Y-127354093D01*
X177418315Y-127354093D01*
X177581742Y-127386601D01*
G37*
G36*
X150913268Y-125332612D02*
G01*
X150945711Y-125354289D01*
X150967388Y-125386732D01*
X150975000Y-125425000D01*
X150975000Y-125625000D01*
X150967388Y-125663268D01*
X150945711Y-125695711D01*
X150913268Y-125717388D01*
X150875000Y-125725000D01*
X149600000Y-125725000D01*
X149561732Y-125717388D01*
X149529289Y-125695711D01*
X149507612Y-125663268D01*
X149500000Y-125625000D01*
X149500000Y-125425000D01*
X149507612Y-125386732D01*
X149529289Y-125354289D01*
X149561732Y-125332612D01*
X149600000Y-125325000D01*
X150875000Y-125325000D01*
X150913268Y-125332612D01*
G37*
G36*
X156638268Y-125332612D02*
G01*
X156670711Y-125354289D01*
X156692388Y-125386732D01*
X156700000Y-125425000D01*
X156700000Y-125625000D01*
X156692388Y-125663268D01*
X156670711Y-125695711D01*
X156638268Y-125717388D01*
X156600000Y-125725000D01*
X155325000Y-125725000D01*
X155286732Y-125717388D01*
X155254289Y-125695711D01*
X155232612Y-125663268D01*
X155225000Y-125625000D01*
X155225000Y-125425000D01*
X155232612Y-125386732D01*
X155254289Y-125354289D01*
X155286732Y-125332612D01*
X155325000Y-125325000D01*
X156600000Y-125325000D01*
X156638268Y-125332612D01*
G37*
G36*
X178142000Y-125295000D02*
G01*
X176442000Y-125295000D01*
X176442000Y-123595000D01*
X178142000Y-123595000D01*
X178142000Y-125295000D01*
G37*
G36*
X150913268Y-124682612D02*
G01*
X150945711Y-124704289D01*
X150967388Y-124736732D01*
X150975000Y-124775000D01*
X150975000Y-124975000D01*
X150967388Y-125013268D01*
X150945711Y-125045711D01*
X150913268Y-125067388D01*
X150875000Y-125075000D01*
X149600000Y-125075000D01*
X149561732Y-125067388D01*
X149529289Y-125045711D01*
X149507612Y-125013268D01*
X149500000Y-124975000D01*
X149500000Y-124775000D01*
X149507612Y-124736732D01*
X149529289Y-124704289D01*
X149561732Y-124682612D01*
X149600000Y-124675000D01*
X150875000Y-124675000D01*
X150913268Y-124682612D01*
G37*
G36*
X156638268Y-124682612D02*
G01*
X156670711Y-124704289D01*
X156692388Y-124736732D01*
X156700000Y-124775000D01*
X156700000Y-124975000D01*
X156692388Y-125013268D01*
X156670711Y-125045711D01*
X156638268Y-125067388D01*
X156600000Y-125075000D01*
X155325000Y-125075000D01*
X155286732Y-125067388D01*
X155254289Y-125045711D01*
X155232612Y-125013268D01*
X155225000Y-124975000D01*
X155225000Y-124775000D01*
X155232612Y-124736732D01*
X155254289Y-124704289D01*
X155286732Y-124682612D01*
X155325000Y-124675000D01*
X156600000Y-124675000D01*
X156638268Y-124682612D01*
G37*
G36*
X142107604Y-123940223D02*
G01*
X142172488Y-123983578D01*
X142215843Y-124048462D01*
X142231067Y-124124999D01*
X142231067Y-124674999D01*
X142215843Y-124751536D01*
X142172488Y-124816420D01*
X142107604Y-124859775D01*
X142031067Y-124874999D01*
X141631067Y-124874999D01*
X141554530Y-124859775D01*
X141489646Y-124816420D01*
X141446291Y-124751536D01*
X141431067Y-124674999D01*
X141431067Y-124124999D01*
X141446291Y-124048462D01*
X141489646Y-123983578D01*
X141554530Y-123940223D01*
X141631067Y-123924999D01*
X142031067Y-123924999D01*
X142107604Y-123940223D01*
G37*
G36*
X143757604Y-123940223D02*
G01*
X143822488Y-123983578D01*
X143865843Y-124048462D01*
X143881067Y-124124999D01*
X143881067Y-124674999D01*
X143865843Y-124751536D01*
X143822488Y-124816420D01*
X143757604Y-124859775D01*
X143681067Y-124874999D01*
X143281067Y-124874999D01*
X143204530Y-124859775D01*
X143139646Y-124816420D01*
X143096291Y-124751536D01*
X143081067Y-124674999D01*
X143081067Y-124124999D01*
X143096291Y-124048462D01*
X143139646Y-123983578D01*
X143204530Y-123940223D01*
X143281067Y-123924999D01*
X143681067Y-123924999D01*
X143757604Y-123940223D01*
G37*
G36*
X139126537Y-123940222D02*
G01*
X139191421Y-123983577D01*
X139234776Y-124048461D01*
X139250000Y-124124998D01*
X139250000Y-124674998D01*
X139234776Y-124751535D01*
X139191421Y-124816419D01*
X139126537Y-124859774D01*
X139050000Y-124874998D01*
X138650000Y-124874998D01*
X138573463Y-124859774D01*
X138508579Y-124816419D01*
X138465224Y-124751535D01*
X138450000Y-124674998D01*
X138450000Y-124124998D01*
X138465224Y-124048461D01*
X138508579Y-123983577D01*
X138573463Y-123940222D01*
X138650000Y-123924998D01*
X139050000Y-123924998D01*
X139126537Y-123940222D01*
G37*
G36*
X140776537Y-123940222D02*
G01*
X140841421Y-123983577D01*
X140884776Y-124048461D01*
X140900000Y-124124998D01*
X140900000Y-124674998D01*
X140884776Y-124751535D01*
X140841421Y-124816419D01*
X140776537Y-124859774D01*
X140700000Y-124874998D01*
X140300000Y-124874998D01*
X140223463Y-124859774D01*
X140158579Y-124816419D01*
X140115224Y-124751535D01*
X140100000Y-124674998D01*
X140100000Y-124124998D01*
X140115224Y-124048461D01*
X140158579Y-123983577D01*
X140223463Y-123940222D01*
X140300000Y-123924998D01*
X140700000Y-123924998D01*
X140776537Y-123940222D01*
G37*
G36*
X130215263Y-123724278D02*
G01*
X130341342Y-123758060D01*
X130454381Y-123823323D01*
X130546677Y-123915619D01*
X130611940Y-124028658D01*
X130645722Y-124154737D01*
X130645722Y-124285263D01*
X130611940Y-124411342D01*
X130546677Y-124524381D01*
X130454381Y-124616677D01*
X130341342Y-124681940D01*
X130215263Y-124715722D01*
X130150000Y-124720000D01*
X130148029Y-124720000D01*
X129551971Y-124720000D01*
X129550000Y-124720000D01*
X129484737Y-124715722D01*
X129358658Y-124681940D01*
X129245619Y-124616677D01*
X129153323Y-124524381D01*
X129088060Y-124411342D01*
X129054278Y-124285263D01*
X129054278Y-124154737D01*
X129088060Y-124028658D01*
X129153323Y-123915619D01*
X129245619Y-123823323D01*
X129358658Y-123758060D01*
X129484737Y-123724278D01*
X129550000Y-123720000D01*
X130150000Y-123720000D01*
X130215263Y-123724278D01*
G37*
G36*
X134645263Y-123724278D02*
G01*
X134771342Y-123758060D01*
X134884381Y-123823323D01*
X134976677Y-123915619D01*
X135041940Y-124028658D01*
X135075722Y-124154737D01*
X135075722Y-124285263D01*
X135041940Y-124411342D01*
X134976677Y-124524381D01*
X134884381Y-124616677D01*
X134771342Y-124681940D01*
X134645263Y-124715722D01*
X134580000Y-124720000D01*
X134578029Y-124720000D01*
X133481971Y-124720000D01*
X133480000Y-124720000D01*
X133414737Y-124715722D01*
X133288658Y-124681940D01*
X133175619Y-124616677D01*
X133083323Y-124524381D01*
X133018060Y-124411342D01*
X132984278Y-124285263D01*
X132984278Y-124154737D01*
X133018060Y-124028658D01*
X133083323Y-123915619D01*
X133175619Y-123823323D01*
X133288658Y-123758060D01*
X133414737Y-123724278D01*
X133480000Y-123720000D01*
X134580000Y-123720000D01*
X134645263Y-123724278D01*
G37*
G36*
X150913268Y-124032612D02*
G01*
X150945711Y-124054289D01*
X150967388Y-124086732D01*
X150975000Y-124125000D01*
X150975000Y-124325000D01*
X150967388Y-124363268D01*
X150945711Y-124395711D01*
X150913268Y-124417388D01*
X150875000Y-124425000D01*
X149600000Y-124425000D01*
X149561732Y-124417388D01*
X149529289Y-124395711D01*
X149507612Y-124363268D01*
X149500000Y-124325000D01*
X149500000Y-124125000D01*
X149507612Y-124086732D01*
X149529289Y-124054289D01*
X149561732Y-124032612D01*
X149600000Y-124025000D01*
X150875000Y-124025000D01*
X150913268Y-124032612D01*
G37*
G36*
X156638268Y-124032612D02*
G01*
X156670711Y-124054289D01*
X156692388Y-124086732D01*
X156700000Y-124125000D01*
X156700000Y-124325000D01*
X156692388Y-124363268D01*
X156670711Y-124395711D01*
X156638268Y-124417388D01*
X156600000Y-124425000D01*
X155325000Y-124425000D01*
X155286732Y-124417388D01*
X155254289Y-124395711D01*
X155232612Y-124363268D01*
X155225000Y-124325000D01*
X155225000Y-124125000D01*
X155232612Y-124086732D01*
X155254289Y-124054289D01*
X155286732Y-124032612D01*
X155325000Y-124025000D01*
X156600000Y-124025000D01*
X156638268Y-124032612D01*
G37*
G36*
X150913268Y-123382612D02*
G01*
X150945711Y-123404289D01*
X150967388Y-123436732D01*
X150975000Y-123475000D01*
X150975000Y-123675000D01*
X150967388Y-123713268D01*
X150945711Y-123745711D01*
X150913268Y-123767388D01*
X150875000Y-123775000D01*
X149600000Y-123775000D01*
X149561732Y-123767388D01*
X149529289Y-123745711D01*
X149507612Y-123713268D01*
X149500000Y-123675000D01*
X149500000Y-123475000D01*
X149507612Y-123436732D01*
X149529289Y-123404289D01*
X149561732Y-123382612D01*
X149600000Y-123375000D01*
X150875000Y-123375000D01*
X150913268Y-123382612D01*
G37*
G36*
X156638268Y-123382612D02*
G01*
X156670711Y-123404289D01*
X156692388Y-123436732D01*
X156700000Y-123475000D01*
X156700000Y-123675000D01*
X156692388Y-123713268D01*
X156670711Y-123745711D01*
X156638268Y-123767388D01*
X156600000Y-123775000D01*
X155325000Y-123775000D01*
X155286732Y-123767388D01*
X155254289Y-123745711D01*
X155232612Y-123713268D01*
X155225000Y-123675000D01*
X155225000Y-123475000D01*
X155232612Y-123436732D01*
X155254289Y-123404289D01*
X155286732Y-123382612D01*
X155325000Y-123375000D01*
X156600000Y-123375000D01*
X156638268Y-123382612D01*
G37*
G36*
X135670000Y-123450000D02*
G01*
X134220000Y-123450000D01*
X134220000Y-122850000D01*
X135670000Y-122850000D01*
X135670000Y-123450000D01*
G37*
G36*
X142107604Y-122442191D02*
G01*
X142172488Y-122485546D01*
X142215843Y-122550430D01*
X142231067Y-122626967D01*
X142231067Y-123176967D01*
X142215843Y-123253504D01*
X142172488Y-123318388D01*
X142107604Y-123361743D01*
X142031067Y-123376967D01*
X141631067Y-123376967D01*
X141554530Y-123361743D01*
X141489646Y-123318388D01*
X141446291Y-123253504D01*
X141431067Y-123176967D01*
X141431067Y-122626967D01*
X141446291Y-122550430D01*
X141489646Y-122485546D01*
X141554530Y-122442191D01*
X141631067Y-122426967D01*
X142031067Y-122426967D01*
X142107604Y-122442191D01*
G37*
G36*
X143757604Y-122442191D02*
G01*
X143822488Y-122485546D01*
X143865843Y-122550430D01*
X143881067Y-122626967D01*
X143881067Y-123176967D01*
X143865843Y-123253504D01*
X143822488Y-123318388D01*
X143757604Y-123361743D01*
X143681067Y-123376967D01*
X143281067Y-123376967D01*
X143204530Y-123361743D01*
X143139646Y-123318388D01*
X143096291Y-123253504D01*
X143081067Y-123176967D01*
X143081067Y-122626967D01*
X143096291Y-122550430D01*
X143139646Y-122485546D01*
X143204530Y-122442191D01*
X143281067Y-122426967D01*
X143681067Y-122426967D01*
X143757604Y-122442191D01*
G37*
G36*
X139126537Y-122437411D02*
G01*
X139191421Y-122480766D01*
X139234776Y-122545650D01*
X139250000Y-122622187D01*
X139250000Y-123172187D01*
X139234776Y-123248724D01*
X139191421Y-123313608D01*
X139126537Y-123356963D01*
X139050000Y-123372187D01*
X138650000Y-123372187D01*
X138573463Y-123356963D01*
X138508579Y-123313608D01*
X138465224Y-123248724D01*
X138450000Y-123172187D01*
X138450000Y-122622187D01*
X138465224Y-122545650D01*
X138508579Y-122480766D01*
X138573463Y-122437411D01*
X138650000Y-122422187D01*
X139050000Y-122422187D01*
X139126537Y-122437411D01*
G37*
G36*
X140776537Y-122437411D02*
G01*
X140841421Y-122480766D01*
X140884776Y-122545650D01*
X140900000Y-122622187D01*
X140900000Y-123172187D01*
X140884776Y-123248724D01*
X140841421Y-123313608D01*
X140776537Y-123356963D01*
X140700000Y-123372187D01*
X140300000Y-123372187D01*
X140223463Y-123356963D01*
X140158579Y-123313608D01*
X140115224Y-123248724D01*
X140100000Y-123172187D01*
X140100000Y-122622187D01*
X140115224Y-122545650D01*
X140158579Y-122480766D01*
X140223463Y-122437411D01*
X140300000Y-122422187D01*
X140700000Y-122422187D01*
X140776537Y-122437411D01*
G37*
G36*
X150913268Y-122732612D02*
G01*
X150945711Y-122754289D01*
X150967388Y-122786732D01*
X150975000Y-122825000D01*
X150975000Y-123025000D01*
X150967388Y-123063268D01*
X150945711Y-123095711D01*
X150913268Y-123117388D01*
X150875000Y-123125000D01*
X149600000Y-123125000D01*
X149561732Y-123117388D01*
X149529289Y-123095711D01*
X149507612Y-123063268D01*
X149500000Y-123025000D01*
X149500000Y-122825000D01*
X149507612Y-122786732D01*
X149529289Y-122754289D01*
X149561732Y-122732612D01*
X149600000Y-122725000D01*
X150875000Y-122725000D01*
X150913268Y-122732612D01*
G37*
G36*
X156638268Y-122732612D02*
G01*
X156670711Y-122754289D01*
X156692388Y-122786732D01*
X156700000Y-122825000D01*
X156700000Y-123025000D01*
X156692388Y-123063268D01*
X156670711Y-123095711D01*
X156638268Y-123117388D01*
X156600000Y-123125000D01*
X155325000Y-123125000D01*
X155286732Y-123117388D01*
X155254289Y-123095711D01*
X155232612Y-123063268D01*
X155225000Y-123025000D01*
X155225000Y-122825000D01*
X155232612Y-122786732D01*
X155254289Y-122754289D01*
X155286732Y-122732612D01*
X155325000Y-122725000D01*
X156600000Y-122725000D01*
X156638268Y-122732612D01*
G37*
G36*
X133624372Y-122489739D02*
G01*
X133697847Y-122532160D01*
X133757840Y-122592153D01*
X133800261Y-122665628D01*
X133822220Y-122747579D01*
X133822220Y-122832421D01*
X133800261Y-122914372D01*
X133757840Y-122987847D01*
X133697847Y-123047840D01*
X133624372Y-123090261D01*
X133542421Y-123112220D01*
X133457579Y-123112220D01*
X133375628Y-123090261D01*
X133302153Y-123047840D01*
X133242160Y-122987847D01*
X133199739Y-122914372D01*
X133177780Y-122832421D01*
X133177780Y-122747579D01*
X133199739Y-122665628D01*
X133242160Y-122592153D01*
X133302153Y-122532160D01*
X133375628Y-122489739D01*
X133457579Y-122467780D01*
X133542421Y-122467780D01*
X133624372Y-122489739D01*
G37*
G36*
X177538742Y-121091601D02*
G01*
X177692687Y-121155367D01*
X177831234Y-121247941D01*
X177949059Y-121365766D01*
X178041633Y-121504313D01*
X178105399Y-121658258D01*
X178137907Y-121821685D01*
X178137907Y-121988315D01*
X178105399Y-122151742D01*
X178041633Y-122305687D01*
X177949059Y-122444234D01*
X177831234Y-122562059D01*
X177692687Y-122654633D01*
X177538742Y-122718399D01*
X177375315Y-122750907D01*
X177208685Y-122750907D01*
X177045258Y-122718399D01*
X176891313Y-122654633D01*
X176752766Y-122562059D01*
X176634941Y-122444234D01*
X176542367Y-122305687D01*
X176478601Y-122151742D01*
X176446093Y-121988315D01*
X176446093Y-121821685D01*
X176478601Y-121658258D01*
X176542367Y-121504313D01*
X176634941Y-121365766D01*
X176752766Y-121247941D01*
X176891313Y-121155367D01*
X177045258Y-121091601D01*
X177208685Y-121059093D01*
X177375315Y-121059093D01*
X177538742Y-121091601D01*
G37*
G36*
X135670000Y-122650000D02*
G01*
X134220000Y-122650000D01*
X134220000Y-122050000D01*
X135670000Y-122050000D01*
X135670000Y-122650000D01*
G37*
G36*
X150913268Y-122082612D02*
G01*
X150945711Y-122104289D01*
X150967388Y-122136732D01*
X150975000Y-122175000D01*
X150975000Y-122375000D01*
X150967388Y-122413268D01*
X150945711Y-122445711D01*
X150913268Y-122467388D01*
X150875000Y-122475000D01*
X149600000Y-122475000D01*
X149561732Y-122467388D01*
X149529289Y-122445711D01*
X149507612Y-122413268D01*
X149500000Y-122375000D01*
X149500000Y-122175000D01*
X149507612Y-122136732D01*
X149529289Y-122104289D01*
X149561732Y-122082612D01*
X149600000Y-122075000D01*
X150875000Y-122075000D01*
X150913268Y-122082612D01*
G37*
G36*
X156638268Y-122082612D02*
G01*
X156670711Y-122104289D01*
X156692388Y-122136732D01*
X156700000Y-122175000D01*
X156700000Y-122375000D01*
X156692388Y-122413268D01*
X156670711Y-122445711D01*
X156638268Y-122467388D01*
X156600000Y-122475000D01*
X155325000Y-122475000D01*
X155286732Y-122467388D01*
X155254289Y-122445711D01*
X155232612Y-122413268D01*
X155225000Y-122375000D01*
X155225000Y-122175000D01*
X155232612Y-122136732D01*
X155254289Y-122104289D01*
X155286732Y-122082612D01*
X155325000Y-122075000D01*
X156600000Y-122075000D01*
X156638268Y-122082612D01*
G37*
G36*
X142107604Y-120944159D02*
G01*
X142172488Y-120987514D01*
X142215843Y-121052398D01*
X142231067Y-121128935D01*
X142231067Y-121678935D01*
X142215843Y-121755472D01*
X142172488Y-121820356D01*
X142107604Y-121863711D01*
X142031067Y-121878935D01*
X141631067Y-121878935D01*
X141554530Y-121863711D01*
X141489646Y-121820356D01*
X141446291Y-121755472D01*
X141431067Y-121678935D01*
X141431067Y-121128935D01*
X141446291Y-121052398D01*
X141489646Y-120987514D01*
X141554530Y-120944159D01*
X141631067Y-120928935D01*
X142031067Y-120928935D01*
X142107604Y-120944159D01*
G37*
G36*
X143757604Y-120944159D02*
G01*
X143822488Y-120987514D01*
X143865843Y-121052398D01*
X143881067Y-121128935D01*
X143881067Y-121678935D01*
X143865843Y-121755472D01*
X143822488Y-121820356D01*
X143757604Y-121863711D01*
X143681067Y-121878935D01*
X143281067Y-121878935D01*
X143204530Y-121863711D01*
X143139646Y-121820356D01*
X143096291Y-121755472D01*
X143081067Y-121678935D01*
X143081067Y-121128935D01*
X143096291Y-121052398D01*
X143139646Y-120987514D01*
X143204530Y-120944159D01*
X143281067Y-120928935D01*
X143681067Y-120928935D01*
X143757604Y-120944159D01*
G37*
G36*
X139126537Y-120934600D02*
G01*
X139191421Y-120977955D01*
X139234776Y-121042839D01*
X139250000Y-121119376D01*
X139250000Y-121669376D01*
X139234776Y-121745913D01*
X139191421Y-121810797D01*
X139126537Y-121854152D01*
X139050000Y-121869376D01*
X138650000Y-121869376D01*
X138573463Y-121854152D01*
X138508579Y-121810797D01*
X138465224Y-121745913D01*
X138450000Y-121669376D01*
X138450000Y-121119376D01*
X138465224Y-121042839D01*
X138508579Y-120977955D01*
X138573463Y-120934600D01*
X138650000Y-120919376D01*
X139050000Y-120919376D01*
X139126537Y-120934600D01*
G37*
G36*
X140776537Y-120934600D02*
G01*
X140841421Y-120977955D01*
X140884776Y-121042839D01*
X140900000Y-121119376D01*
X140900000Y-121669376D01*
X140884776Y-121745913D01*
X140841421Y-121810797D01*
X140776537Y-121854152D01*
X140700000Y-121869376D01*
X140300000Y-121869376D01*
X140223463Y-121854152D01*
X140158579Y-121810797D01*
X140115224Y-121745913D01*
X140100000Y-121669376D01*
X140100000Y-121119376D01*
X140115224Y-121042839D01*
X140158579Y-120977955D01*
X140223463Y-120934600D01*
X140300000Y-120919376D01*
X140700000Y-120919376D01*
X140776537Y-120934600D01*
G37*
G36*
X150913268Y-121432612D02*
G01*
X150945711Y-121454289D01*
X150967388Y-121486732D01*
X150975000Y-121525000D01*
X150975000Y-121725000D01*
X150967388Y-121763268D01*
X150945711Y-121795711D01*
X150913268Y-121817388D01*
X150875000Y-121825000D01*
X149600000Y-121825000D01*
X149561732Y-121817388D01*
X149529289Y-121795711D01*
X149507612Y-121763268D01*
X149500000Y-121725000D01*
X149500000Y-121525000D01*
X149507612Y-121486732D01*
X149529289Y-121454289D01*
X149561732Y-121432612D01*
X149600000Y-121425000D01*
X150875000Y-121425000D01*
X150913268Y-121432612D01*
G37*
G36*
X156638268Y-121432612D02*
G01*
X156670711Y-121454289D01*
X156692388Y-121486732D01*
X156700000Y-121525000D01*
X156700000Y-121725000D01*
X156692388Y-121763268D01*
X156670711Y-121795711D01*
X156638268Y-121817388D01*
X156600000Y-121825000D01*
X155325000Y-121825000D01*
X155286732Y-121817388D01*
X155254289Y-121795711D01*
X155232612Y-121763268D01*
X155225000Y-121725000D01*
X155225000Y-121525000D01*
X155232612Y-121486732D01*
X155254289Y-121454289D01*
X155286732Y-121432612D01*
X155325000Y-121425000D01*
X156600000Y-121425000D01*
X156638268Y-121432612D01*
G37*
G36*
X135670000Y-121800000D02*
G01*
X134220000Y-121800000D01*
X134220000Y-121500000D01*
X135670000Y-121500000D01*
X135670000Y-121800000D01*
G37*
G36*
X135670000Y-121300000D02*
G01*
X134220000Y-121300000D01*
X134220000Y-121000000D01*
X135670000Y-121000000D01*
X135670000Y-121300000D01*
G37*
G36*
X150913268Y-120782612D02*
G01*
X150945711Y-120804289D01*
X150967388Y-120836732D01*
X150975000Y-120875000D01*
X150975000Y-121075000D01*
X150967388Y-121113268D01*
X150945711Y-121145711D01*
X150913268Y-121167388D01*
X150875000Y-121175000D01*
X149600000Y-121175000D01*
X149561732Y-121167388D01*
X149529289Y-121145711D01*
X149507612Y-121113268D01*
X149500000Y-121075000D01*
X149500000Y-120875000D01*
X149507612Y-120836732D01*
X149529289Y-120804289D01*
X149561732Y-120782612D01*
X149600000Y-120775000D01*
X150875000Y-120775000D01*
X150913268Y-120782612D01*
G37*
G36*
X156638268Y-120782612D02*
G01*
X156670711Y-120804289D01*
X156692388Y-120836732D01*
X156700000Y-120875000D01*
X156700000Y-121075000D01*
X156692388Y-121113268D01*
X156670711Y-121145711D01*
X156638268Y-121167388D01*
X156600000Y-121175000D01*
X155325000Y-121175000D01*
X155286732Y-121167388D01*
X155254289Y-121145711D01*
X155232612Y-121113268D01*
X155225000Y-121075000D01*
X155225000Y-120875000D01*
X155232612Y-120836732D01*
X155254289Y-120804289D01*
X155286732Y-120782612D01*
X155325000Y-120775000D01*
X156600000Y-120775000D01*
X156638268Y-120782612D01*
G37*
G36*
X168080071Y-119350738D02*
G01*
X168142973Y-119356637D01*
X168158968Y-119362234D01*
X168182001Y-119365590D01*
X168215852Y-119382139D01*
X168249909Y-119394056D01*
X168268902Y-119408073D01*
X168292904Y-119419807D01*
X168315730Y-119442633D01*
X168339686Y-119460313D01*
X168357365Y-119484268D01*
X168380193Y-119507096D01*
X168391927Y-119531099D01*
X168405943Y-119550090D01*
X168417858Y-119584142D01*
X168434410Y-119617999D01*
X168437766Y-119641034D01*
X168443362Y-119657026D01*
X168449258Y-119719912D01*
X168450000Y-119725000D01*
X168450000Y-120475000D01*
X168449258Y-120480091D01*
X168443362Y-120542973D01*
X168437766Y-120558963D01*
X168434410Y-120582001D01*
X168417857Y-120615859D01*
X168405943Y-120649909D01*
X168391928Y-120668898D01*
X168380193Y-120692904D01*
X168357362Y-120715734D01*
X168339686Y-120739686D01*
X168315734Y-120757362D01*
X168292904Y-120780193D01*
X168268898Y-120791928D01*
X168249909Y-120805943D01*
X168215859Y-120817857D01*
X168182001Y-120834410D01*
X168158963Y-120837766D01*
X168142973Y-120843362D01*
X168080089Y-120849258D01*
X168075000Y-120850000D01*
X166825000Y-120850000D01*
X166819910Y-120849258D01*
X166757026Y-120843362D01*
X166741034Y-120837766D01*
X166717999Y-120834410D01*
X166684142Y-120817858D01*
X166650090Y-120805943D01*
X166631099Y-120791927D01*
X166607096Y-120780193D01*
X166584268Y-120757365D01*
X166560313Y-120739686D01*
X166542633Y-120715730D01*
X166519807Y-120692904D01*
X166508073Y-120668902D01*
X166494056Y-120649909D01*
X166482139Y-120615852D01*
X166465590Y-120582001D01*
X166462234Y-120558968D01*
X166456637Y-120542973D01*
X166450738Y-120480070D01*
X166450000Y-120475000D01*
X166450000Y-119725000D01*
X166450738Y-119719930D01*
X166456637Y-119657026D01*
X166462234Y-119641029D01*
X166465590Y-119617999D01*
X166482137Y-119584149D01*
X166494056Y-119550090D01*
X166508074Y-119531095D01*
X166519807Y-119507096D01*
X166542630Y-119484272D01*
X166560313Y-119460313D01*
X166584272Y-119442630D01*
X166607096Y-119419807D01*
X166631095Y-119408074D01*
X166650090Y-119394056D01*
X166684149Y-119382137D01*
X166717999Y-119365590D01*
X166741029Y-119362234D01*
X166757026Y-119356637D01*
X166819931Y-119350738D01*
X166825000Y-119350000D01*
X168075000Y-119350000D01*
X168080071Y-119350738D01*
G37*
G36*
X135670000Y-120800000D02*
G01*
X134220000Y-120800000D01*
X134220000Y-120500000D01*
X135670000Y-120500000D01*
X135670000Y-120800000D01*
G37*
G36*
X150913268Y-120132612D02*
G01*
X150945711Y-120154289D01*
X150967388Y-120186732D01*
X150975000Y-120225000D01*
X150975000Y-120425000D01*
X150967388Y-120463268D01*
X150945711Y-120495711D01*
X150913268Y-120517388D01*
X150875000Y-120525000D01*
X149600000Y-120525000D01*
X149561732Y-120517388D01*
X149529289Y-120495711D01*
X149507612Y-120463268D01*
X149500000Y-120425000D01*
X149500000Y-120225000D01*
X149507612Y-120186732D01*
X149529289Y-120154289D01*
X149561732Y-120132612D01*
X149600000Y-120125000D01*
X150875000Y-120125000D01*
X150913268Y-120132612D01*
G37*
G36*
X156638268Y-120132612D02*
G01*
X156670711Y-120154289D01*
X156692388Y-120186732D01*
X156700000Y-120225000D01*
X156700000Y-120425000D01*
X156692388Y-120463268D01*
X156670711Y-120495711D01*
X156638268Y-120517388D01*
X156600000Y-120525000D01*
X155325000Y-120525000D01*
X155286732Y-120517388D01*
X155254289Y-120495711D01*
X155232612Y-120463268D01*
X155225000Y-120425000D01*
X155225000Y-120225000D01*
X155232612Y-120186732D01*
X155254289Y-120154289D01*
X155286732Y-120132612D01*
X155325000Y-120125000D01*
X156600000Y-120125000D01*
X156638268Y-120132612D01*
G37*
G36*
X142107604Y-119446127D02*
G01*
X142172488Y-119489482D01*
X142215843Y-119554366D01*
X142231067Y-119630903D01*
X142231067Y-120180903D01*
X142215843Y-120257440D01*
X142172488Y-120322324D01*
X142107604Y-120365679D01*
X142031067Y-120380903D01*
X141631067Y-120380903D01*
X141554530Y-120365679D01*
X141489646Y-120322324D01*
X141446291Y-120257440D01*
X141431067Y-120180903D01*
X141431067Y-119630903D01*
X141446291Y-119554366D01*
X141489646Y-119489482D01*
X141554530Y-119446127D01*
X141631067Y-119430903D01*
X142031067Y-119430903D01*
X142107604Y-119446127D01*
G37*
G36*
X143757604Y-119446127D02*
G01*
X143822488Y-119489482D01*
X143865843Y-119554366D01*
X143881067Y-119630903D01*
X143881067Y-120180903D01*
X143865843Y-120257440D01*
X143822488Y-120322324D01*
X143757604Y-120365679D01*
X143681067Y-120380903D01*
X143281067Y-120380903D01*
X143204530Y-120365679D01*
X143139646Y-120322324D01*
X143096291Y-120257440D01*
X143081067Y-120180903D01*
X143081067Y-119630903D01*
X143096291Y-119554366D01*
X143139646Y-119489482D01*
X143204530Y-119446127D01*
X143281067Y-119430903D01*
X143681067Y-119430903D01*
X143757604Y-119446127D01*
G37*
G36*
X139126537Y-119431789D02*
G01*
X139191421Y-119475144D01*
X139234776Y-119540028D01*
X139250000Y-119616565D01*
X139250000Y-120166565D01*
X139234776Y-120243102D01*
X139191421Y-120307986D01*
X139126537Y-120351341D01*
X139050000Y-120366565D01*
X138650000Y-120366565D01*
X138573463Y-120351341D01*
X138508579Y-120307986D01*
X138465224Y-120243102D01*
X138450000Y-120166565D01*
X138450000Y-119616565D01*
X138465224Y-119540028D01*
X138508579Y-119475144D01*
X138573463Y-119431789D01*
X138650000Y-119416565D01*
X139050000Y-119416565D01*
X139126537Y-119431789D01*
G37*
G36*
X140776537Y-119431789D02*
G01*
X140841421Y-119475144D01*
X140884776Y-119540028D01*
X140900000Y-119616565D01*
X140900000Y-120166565D01*
X140884776Y-120243102D01*
X140841421Y-120307986D01*
X140776537Y-120351341D01*
X140700000Y-120366565D01*
X140300000Y-120366565D01*
X140223463Y-120351341D01*
X140158579Y-120307986D01*
X140115224Y-120243102D01*
X140100000Y-120166565D01*
X140100000Y-119616565D01*
X140115224Y-119540028D01*
X140158579Y-119475144D01*
X140223463Y-119431789D01*
X140300000Y-119416565D01*
X140700000Y-119416565D01*
X140776537Y-119431789D01*
G37*
G36*
X135670000Y-120300000D02*
G01*
X134220000Y-120300000D01*
X134220000Y-120000000D01*
X135670000Y-120000000D01*
X135670000Y-120300000D01*
G37*
G36*
X177538742Y-118551601D02*
G01*
X177692687Y-118615367D01*
X177831234Y-118707941D01*
X177949059Y-118825766D01*
X178041633Y-118964313D01*
X178105399Y-119118258D01*
X178137907Y-119281685D01*
X178137907Y-119448315D01*
X178105399Y-119611742D01*
X178041633Y-119765687D01*
X177949059Y-119904234D01*
X177831234Y-120022059D01*
X177692687Y-120114633D01*
X177538742Y-120178399D01*
X177375315Y-120210907D01*
X177208685Y-120210907D01*
X177045258Y-120178399D01*
X176891313Y-120114633D01*
X176752766Y-120022059D01*
X176634941Y-119904234D01*
X176542367Y-119765687D01*
X176478601Y-119611742D01*
X176446093Y-119448315D01*
X176446093Y-119281685D01*
X176478601Y-119118258D01*
X176542367Y-118964313D01*
X176634941Y-118825766D01*
X176752766Y-118707941D01*
X176891313Y-118615367D01*
X177045258Y-118551601D01*
X177208685Y-118519093D01*
X177375315Y-118519093D01*
X177538742Y-118551601D01*
G37*
G36*
X150913268Y-119482612D02*
G01*
X150945711Y-119504289D01*
X150967388Y-119536732D01*
X150975000Y-119575000D01*
X150975000Y-119775000D01*
X150967388Y-119813268D01*
X150945711Y-119845711D01*
X150913268Y-119867388D01*
X150875000Y-119875000D01*
X149600000Y-119875000D01*
X149561732Y-119867388D01*
X149529289Y-119845711D01*
X149507612Y-119813268D01*
X149500000Y-119775000D01*
X149500000Y-119575000D01*
X149507612Y-119536732D01*
X149529289Y-119504289D01*
X149561732Y-119482612D01*
X149600000Y-119475000D01*
X150875000Y-119475000D01*
X150913268Y-119482612D01*
G37*
G36*
X156638268Y-119482612D02*
G01*
X156670711Y-119504289D01*
X156692388Y-119536732D01*
X156700000Y-119575000D01*
X156700000Y-119775000D01*
X156692388Y-119813268D01*
X156670711Y-119845711D01*
X156638268Y-119867388D01*
X156600000Y-119875000D01*
X155325000Y-119875000D01*
X155286732Y-119867388D01*
X155254289Y-119845711D01*
X155232612Y-119813268D01*
X155225000Y-119775000D01*
X155225000Y-119575000D01*
X155232612Y-119536732D01*
X155254289Y-119504289D01*
X155286732Y-119482612D01*
X155325000Y-119475000D01*
X156600000Y-119475000D01*
X156638268Y-119482612D01*
G37*
G36*
X135670000Y-119800000D02*
G01*
X134220000Y-119800000D01*
X134220000Y-119500000D01*
X135670000Y-119500000D01*
X135670000Y-119800000D01*
G37*
G36*
X174356283Y-115911427D02*
G01*
X174363268Y-115914032D01*
X174367762Y-115914572D01*
X174420931Y-115935539D01*
X174489624Y-115961161D01*
X174493768Y-115964263D01*
X174494776Y-115964661D01*
X174531416Y-115992446D01*
X174603553Y-116046447D01*
X174657572Y-116118608D01*
X174685338Y-116155223D01*
X174685734Y-116156229D01*
X174688839Y-116160376D01*
X174714470Y-116229096D01*
X174735427Y-116282237D01*
X174735966Y-116286728D01*
X174738573Y-116293717D01*
X174750000Y-116400000D01*
X174750000Y-119200000D01*
X174738573Y-119306283D01*
X174735966Y-119313272D01*
X174735427Y-119317762D01*
X174714477Y-119370884D01*
X174688839Y-119439624D01*
X174685734Y-119443771D01*
X174685338Y-119444776D01*
X174657630Y-119481313D01*
X174603553Y-119553553D01*
X174531313Y-119607630D01*
X174494776Y-119635338D01*
X174493771Y-119635734D01*
X174489624Y-119638839D01*
X174420884Y-119664477D01*
X174367762Y-119685427D01*
X174363272Y-119685966D01*
X174356283Y-119688573D01*
X174250000Y-119700000D01*
X173250000Y-119700000D01*
X173143717Y-119688573D01*
X173136728Y-119685966D01*
X173132237Y-119685427D01*
X173079096Y-119664470D01*
X173010376Y-119638839D01*
X173006229Y-119635734D01*
X173005223Y-119635338D01*
X172968608Y-119607572D01*
X172896447Y-119553553D01*
X172842446Y-119481416D01*
X172814661Y-119444776D01*
X172814263Y-119443768D01*
X172811161Y-119439624D01*
X172785539Y-119370931D01*
X172764572Y-119317762D01*
X172764032Y-119313268D01*
X172761427Y-119306283D01*
X172750000Y-119200000D01*
X172750000Y-116400000D01*
X172761427Y-116293717D01*
X172764032Y-116286732D01*
X172764572Y-116282237D01*
X172785546Y-116229049D01*
X172811161Y-116160376D01*
X172814263Y-116156232D01*
X172814661Y-116155223D01*
X172842504Y-116118506D01*
X172896447Y-116046447D01*
X172968506Y-115992504D01*
X173005223Y-115964661D01*
X173006232Y-115964263D01*
X173010376Y-115961161D01*
X173079049Y-115935546D01*
X173132237Y-115914572D01*
X173136732Y-115914032D01*
X173143717Y-115911427D01*
X173250000Y-115900000D01*
X174250000Y-115900000D01*
X174356283Y-115911427D01*
G37*
G36*
X135670000Y-119300000D02*
G01*
X134220000Y-119300000D01*
X134220000Y-119000000D01*
X135670000Y-119000000D01*
X135670000Y-119300000D01*
G37*
G36*
X163354850Y-117963464D02*
G01*
X163405040Y-117969287D01*
X163422189Y-117976859D01*
X163445671Y-117981530D01*
X163470810Y-117998327D01*
X163490696Y-118007108D01*
X163504277Y-118020689D01*
X163526777Y-118035723D01*
X163541810Y-118058222D01*
X163555391Y-118071803D01*
X163564170Y-118091686D01*
X163580970Y-118116829D01*
X163585641Y-118140312D01*
X163593212Y-118157459D01*
X163599033Y-118207639D01*
X163600000Y-118212500D01*
X163600000Y-119037500D01*
X163599032Y-119042363D01*
X163593212Y-119092540D01*
X163585641Y-119109685D01*
X163580970Y-119133171D01*
X163564169Y-119158315D01*
X163555391Y-119178196D01*
X163541812Y-119191774D01*
X163526777Y-119214277D01*
X163504274Y-119229312D01*
X163490696Y-119242891D01*
X163470815Y-119251669D01*
X163445671Y-119268470D01*
X163422185Y-119273141D01*
X163405040Y-119280712D01*
X163354861Y-119286532D01*
X163350000Y-119287500D01*
X162050000Y-119287500D01*
X162045138Y-119286532D01*
X161994959Y-119280712D01*
X161977812Y-119273141D01*
X161954329Y-119268470D01*
X161929186Y-119251670D01*
X161909303Y-119242891D01*
X161895722Y-119229310D01*
X161873223Y-119214277D01*
X161858189Y-119191777D01*
X161844608Y-119178196D01*
X161835827Y-119158310D01*
X161819030Y-119133171D01*
X161814359Y-119109689D01*
X161806787Y-119092540D01*
X161800964Y-119042349D01*
X161800000Y-119037500D01*
X161800000Y-118212500D01*
X161800964Y-118207650D01*
X161806787Y-118157459D01*
X161814359Y-118140308D01*
X161819030Y-118116829D01*
X161835826Y-118091691D01*
X161844608Y-118071803D01*
X161858191Y-118058219D01*
X161873223Y-118035723D01*
X161895719Y-118020691D01*
X161909303Y-118007108D01*
X161929191Y-117998326D01*
X161954329Y-117981530D01*
X161977808Y-117976859D01*
X161994959Y-117969287D01*
X162045151Y-117963464D01*
X162050000Y-117962500D01*
X163350000Y-117962500D01*
X163354850Y-117963464D01*
G37*
G36*
X165654850Y-117963464D02*
G01*
X165705040Y-117969287D01*
X165722189Y-117976859D01*
X165745671Y-117981530D01*
X165770810Y-117998327D01*
X165790696Y-118007108D01*
X165804277Y-118020689D01*
X165826777Y-118035723D01*
X165841810Y-118058222D01*
X165855391Y-118071803D01*
X165864170Y-118091686D01*
X165880970Y-118116829D01*
X165885641Y-118140312D01*
X165893212Y-118157459D01*
X165899033Y-118207639D01*
X165900000Y-118212500D01*
X165900000Y-119037500D01*
X165899032Y-119042363D01*
X165893212Y-119092540D01*
X165885641Y-119109685D01*
X165880970Y-119133171D01*
X165864169Y-119158315D01*
X165855391Y-119178196D01*
X165841812Y-119191774D01*
X165826777Y-119214277D01*
X165804274Y-119229312D01*
X165790696Y-119242891D01*
X165770815Y-119251669D01*
X165745671Y-119268470D01*
X165722185Y-119273141D01*
X165705040Y-119280712D01*
X165654861Y-119286532D01*
X165650000Y-119287500D01*
X164350000Y-119287500D01*
X164345138Y-119286532D01*
X164294959Y-119280712D01*
X164277812Y-119273141D01*
X164254329Y-119268470D01*
X164229186Y-119251670D01*
X164209303Y-119242891D01*
X164195722Y-119229310D01*
X164173223Y-119214277D01*
X164158189Y-119191777D01*
X164144608Y-119178196D01*
X164135827Y-119158310D01*
X164119030Y-119133171D01*
X164114359Y-119109689D01*
X164106787Y-119092540D01*
X164100964Y-119042349D01*
X164100000Y-119037500D01*
X164100000Y-118212500D01*
X164100964Y-118207650D01*
X164106787Y-118157459D01*
X164114359Y-118140308D01*
X164119030Y-118116829D01*
X164135826Y-118091691D01*
X164144608Y-118071803D01*
X164158191Y-118058219D01*
X164173223Y-118035723D01*
X164195719Y-118020691D01*
X164209303Y-118007108D01*
X164229191Y-117998326D01*
X164254329Y-117981530D01*
X164277808Y-117976859D01*
X164294959Y-117969287D01*
X164345151Y-117963464D01*
X164350000Y-117962500D01*
X165650000Y-117962500D01*
X165654850Y-117963464D01*
G37*
G36*
X135670000Y-118800000D02*
G01*
X134220000Y-118800000D01*
X134220000Y-118500000D01*
X135670000Y-118500000D01*
X135670000Y-118800000D01*
G37*
G36*
X168080071Y-117050738D02*
G01*
X168142973Y-117056637D01*
X168158968Y-117062234D01*
X168182001Y-117065590D01*
X168215852Y-117082139D01*
X168249909Y-117094056D01*
X168268902Y-117108073D01*
X168292904Y-117119807D01*
X168315730Y-117142633D01*
X168339686Y-117160313D01*
X168357365Y-117184268D01*
X168380193Y-117207096D01*
X168391927Y-117231099D01*
X168405943Y-117250090D01*
X168417858Y-117284142D01*
X168434410Y-117317999D01*
X168437766Y-117341034D01*
X168443362Y-117357026D01*
X168449258Y-117419912D01*
X168450000Y-117425000D01*
X168450000Y-118175000D01*
X168449258Y-118180091D01*
X168443362Y-118242973D01*
X168437766Y-118258963D01*
X168434410Y-118282001D01*
X168417857Y-118315859D01*
X168405943Y-118349909D01*
X168391928Y-118368898D01*
X168380193Y-118392904D01*
X168357362Y-118415734D01*
X168339686Y-118439686D01*
X168315734Y-118457362D01*
X168292904Y-118480193D01*
X168268898Y-118491928D01*
X168249909Y-118505943D01*
X168215859Y-118517857D01*
X168182001Y-118534410D01*
X168158963Y-118537766D01*
X168142973Y-118543362D01*
X168080089Y-118549258D01*
X168075000Y-118550000D01*
X166825000Y-118550000D01*
X166819910Y-118549258D01*
X166757026Y-118543362D01*
X166741034Y-118537766D01*
X166717999Y-118534410D01*
X166684142Y-118517858D01*
X166650090Y-118505943D01*
X166631099Y-118491927D01*
X166607096Y-118480193D01*
X166584268Y-118457365D01*
X166560313Y-118439686D01*
X166542633Y-118415730D01*
X166519807Y-118392904D01*
X166508073Y-118368902D01*
X166494056Y-118349909D01*
X166482139Y-118315852D01*
X166465590Y-118282001D01*
X166462234Y-118258968D01*
X166456637Y-118242973D01*
X166450738Y-118180070D01*
X166450000Y-118175000D01*
X166450000Y-117425000D01*
X166450738Y-117419930D01*
X166456637Y-117357026D01*
X166462234Y-117341029D01*
X166465590Y-117317999D01*
X166482137Y-117284149D01*
X166494056Y-117250090D01*
X166508074Y-117231095D01*
X166519807Y-117207096D01*
X166542630Y-117184272D01*
X166560313Y-117160313D01*
X166584272Y-117142630D01*
X166607096Y-117119807D01*
X166631095Y-117108074D01*
X166650090Y-117094056D01*
X166684149Y-117082137D01*
X166717999Y-117065590D01*
X166741029Y-117062234D01*
X166757026Y-117056637D01*
X166819931Y-117050738D01*
X166825000Y-117050000D01*
X168075000Y-117050000D01*
X168080071Y-117050738D01*
G37*
G36*
X135670000Y-118300000D02*
G01*
X134220000Y-118300000D01*
X134220000Y-118000000D01*
X135670000Y-118000000D01*
X135670000Y-118300000D01*
G37*
G36*
X135670000Y-117750000D02*
G01*
X134220000Y-117750000D01*
X134220000Y-117150000D01*
X135670000Y-117150000D01*
X135670000Y-117750000D01*
G37*
G36*
X133624372Y-116709739D02*
G01*
X133697847Y-116752160D01*
X133757840Y-116812153D01*
X133800261Y-116885628D01*
X133822220Y-116967579D01*
X133822220Y-117052421D01*
X133800261Y-117134372D01*
X133757840Y-117207847D01*
X133697847Y-117267840D01*
X133624372Y-117310261D01*
X133542421Y-117332220D01*
X133457579Y-117332220D01*
X133375628Y-117310261D01*
X133302153Y-117267840D01*
X133242160Y-117207847D01*
X133199739Y-117134372D01*
X133177780Y-117052421D01*
X133177780Y-116967579D01*
X133199739Y-116885628D01*
X133242160Y-116812153D01*
X133302153Y-116752160D01*
X133375628Y-116709739D01*
X133457579Y-116687780D01*
X133542421Y-116687780D01*
X133624372Y-116709739D01*
G37*
G36*
X135670000Y-116950000D02*
G01*
X134220000Y-116950000D01*
X134220000Y-116350000D01*
X135670000Y-116350000D01*
X135670000Y-116950000D01*
G37*
G36*
X168080071Y-114750738D02*
G01*
X168142973Y-114756637D01*
X168158968Y-114762234D01*
X168182001Y-114765590D01*
X168215852Y-114782139D01*
X168249909Y-114794056D01*
X168268902Y-114808073D01*
X168292904Y-114819807D01*
X168315730Y-114842633D01*
X168339686Y-114860313D01*
X168357365Y-114884268D01*
X168380193Y-114907096D01*
X168391927Y-114931099D01*
X168405943Y-114950090D01*
X168417858Y-114984142D01*
X168434410Y-115017999D01*
X168437766Y-115041034D01*
X168443362Y-115057026D01*
X168449258Y-115119912D01*
X168450000Y-115125000D01*
X168450000Y-115875000D01*
X168449258Y-115880091D01*
X168443362Y-115942973D01*
X168437766Y-115958963D01*
X168434410Y-115982001D01*
X168417857Y-116015859D01*
X168405943Y-116049909D01*
X168391928Y-116068898D01*
X168380193Y-116092904D01*
X168357362Y-116115734D01*
X168339686Y-116139686D01*
X168315734Y-116157362D01*
X168292904Y-116180193D01*
X168268898Y-116191928D01*
X168249909Y-116205943D01*
X168215859Y-116217857D01*
X168182001Y-116234410D01*
X168158963Y-116237766D01*
X168142973Y-116243362D01*
X168080089Y-116249258D01*
X168075000Y-116250000D01*
X166825000Y-116250000D01*
X166819910Y-116249258D01*
X166757026Y-116243362D01*
X166741034Y-116237766D01*
X166717999Y-116234410D01*
X166684142Y-116217858D01*
X166650090Y-116205943D01*
X166631099Y-116191927D01*
X166607096Y-116180193D01*
X166584268Y-116157365D01*
X166560313Y-116139686D01*
X166542633Y-116115730D01*
X166519807Y-116092904D01*
X166508073Y-116068902D01*
X166494056Y-116049909D01*
X166482139Y-116015852D01*
X166465590Y-115982001D01*
X166462234Y-115958968D01*
X166456637Y-115942973D01*
X166450738Y-115880070D01*
X166450000Y-115875000D01*
X166450000Y-115125000D01*
X166450738Y-115119930D01*
X166456637Y-115057026D01*
X166462234Y-115041029D01*
X166465590Y-115017999D01*
X166482137Y-114984149D01*
X166494056Y-114950090D01*
X166508074Y-114931095D01*
X166519807Y-114907096D01*
X166542630Y-114884272D01*
X166560313Y-114860313D01*
X166584272Y-114842630D01*
X166607096Y-114819807D01*
X166631095Y-114808074D01*
X166650090Y-114794056D01*
X166684149Y-114782137D01*
X166717999Y-114765590D01*
X166741029Y-114762234D01*
X166757026Y-114756637D01*
X166819931Y-114750738D01*
X166825000Y-114750000D01*
X168075000Y-114750000D01*
X168080071Y-114750738D01*
G37*
G36*
X163354850Y-114838464D02*
G01*
X163405040Y-114844287D01*
X163422189Y-114851859D01*
X163445671Y-114856530D01*
X163470810Y-114873327D01*
X163490696Y-114882108D01*
X163504277Y-114895689D01*
X163526777Y-114910723D01*
X163541810Y-114933222D01*
X163555391Y-114946803D01*
X163564170Y-114966686D01*
X163580970Y-114991829D01*
X163585641Y-115015312D01*
X163593212Y-115032459D01*
X163599033Y-115082639D01*
X163600000Y-115087500D01*
X163600000Y-115912500D01*
X163599032Y-115917363D01*
X163593212Y-115967540D01*
X163585641Y-115984685D01*
X163580970Y-116008171D01*
X163564169Y-116033315D01*
X163555391Y-116053196D01*
X163541812Y-116066774D01*
X163526777Y-116089277D01*
X163504274Y-116104312D01*
X163490696Y-116117891D01*
X163470815Y-116126669D01*
X163445671Y-116143470D01*
X163422185Y-116148141D01*
X163405040Y-116155712D01*
X163354861Y-116161532D01*
X163350000Y-116162500D01*
X162050000Y-116162500D01*
X162045138Y-116161532D01*
X161994959Y-116155712D01*
X161977812Y-116148141D01*
X161954329Y-116143470D01*
X161929186Y-116126670D01*
X161909303Y-116117891D01*
X161895722Y-116104310D01*
X161873223Y-116089277D01*
X161858189Y-116066777D01*
X161844608Y-116053196D01*
X161835827Y-116033310D01*
X161819030Y-116008171D01*
X161814359Y-115984689D01*
X161806787Y-115967540D01*
X161800964Y-115917349D01*
X161800000Y-115912500D01*
X161800000Y-115087500D01*
X161800964Y-115082650D01*
X161806787Y-115032459D01*
X161814359Y-115015308D01*
X161819030Y-114991829D01*
X161835826Y-114966691D01*
X161844608Y-114946803D01*
X161858191Y-114933219D01*
X161873223Y-114910723D01*
X161895719Y-114895691D01*
X161909303Y-114882108D01*
X161929191Y-114873326D01*
X161954329Y-114856530D01*
X161977808Y-114851859D01*
X161994959Y-114844287D01*
X162045151Y-114838464D01*
X162050000Y-114837500D01*
X163350000Y-114837500D01*
X163354850Y-114838464D01*
G37*
G36*
X165654850Y-114838464D02*
G01*
X165705040Y-114844287D01*
X165722189Y-114851859D01*
X165745671Y-114856530D01*
X165770810Y-114873327D01*
X165790696Y-114882108D01*
X165804277Y-114895689D01*
X165826777Y-114910723D01*
X165841810Y-114933222D01*
X165855391Y-114946803D01*
X165864170Y-114966686D01*
X165880970Y-114991829D01*
X165885641Y-115015312D01*
X165893212Y-115032459D01*
X165899033Y-115082639D01*
X165900000Y-115087500D01*
X165900000Y-115912500D01*
X165899032Y-115917363D01*
X165893212Y-115967540D01*
X165885641Y-115984685D01*
X165880970Y-116008171D01*
X165864169Y-116033315D01*
X165855391Y-116053196D01*
X165841812Y-116066774D01*
X165826777Y-116089277D01*
X165804274Y-116104312D01*
X165790696Y-116117891D01*
X165770815Y-116126669D01*
X165745671Y-116143470D01*
X165722185Y-116148141D01*
X165705040Y-116155712D01*
X165654861Y-116161532D01*
X165650000Y-116162500D01*
X164350000Y-116162500D01*
X164345138Y-116161532D01*
X164294959Y-116155712D01*
X164277812Y-116148141D01*
X164254329Y-116143470D01*
X164229186Y-116126670D01*
X164209303Y-116117891D01*
X164195722Y-116104310D01*
X164173223Y-116089277D01*
X164158189Y-116066777D01*
X164144608Y-116053196D01*
X164135827Y-116033310D01*
X164119030Y-116008171D01*
X164114359Y-115984689D01*
X164106787Y-115967540D01*
X164100964Y-115917349D01*
X164100000Y-115912500D01*
X164100000Y-115087500D01*
X164100964Y-115082650D01*
X164106787Y-115032459D01*
X164114359Y-115015308D01*
X164119030Y-114991829D01*
X164135826Y-114966691D01*
X164144608Y-114946803D01*
X164158191Y-114933219D01*
X164173223Y-114910723D01*
X164195719Y-114895691D01*
X164209303Y-114882108D01*
X164229191Y-114873326D01*
X164254329Y-114856530D01*
X164277808Y-114851859D01*
X164294959Y-114844287D01*
X164345151Y-114838464D01*
X164350000Y-114837500D01*
X165650000Y-114837500D01*
X165654850Y-114838464D01*
G37*
G36*
X130215263Y-115084278D02*
G01*
X130341342Y-115118060D01*
X130454381Y-115183323D01*
X130546677Y-115275619D01*
X130611940Y-115388658D01*
X130645722Y-115514737D01*
X130645722Y-115645263D01*
X130611940Y-115771342D01*
X130546677Y-115884381D01*
X130454381Y-115976677D01*
X130341342Y-116041940D01*
X130215263Y-116075722D01*
X130150000Y-116080000D01*
X130148029Y-116080000D01*
X129551971Y-116080000D01*
X129550000Y-116080000D01*
X129484737Y-116075722D01*
X129358658Y-116041940D01*
X129245619Y-115976677D01*
X129153323Y-115884381D01*
X129088060Y-115771342D01*
X129054278Y-115645263D01*
X129054278Y-115514737D01*
X129088060Y-115388658D01*
X129153323Y-115275619D01*
X129245619Y-115183323D01*
X129358658Y-115118060D01*
X129484737Y-115084278D01*
X129550000Y-115080000D01*
X130150000Y-115080000D01*
X130215263Y-115084278D01*
G37*
G36*
X134645263Y-115084278D02*
G01*
X134771342Y-115118060D01*
X134884381Y-115183323D01*
X134976677Y-115275619D01*
X135041940Y-115388658D01*
X135075722Y-115514737D01*
X135075722Y-115645263D01*
X135041940Y-115771342D01*
X134976677Y-115884381D01*
X134884381Y-115976677D01*
X134771342Y-116041940D01*
X134645263Y-116075722D01*
X134580000Y-116080000D01*
X134578029Y-116080000D01*
X133481971Y-116080000D01*
X133480000Y-116080000D01*
X133414737Y-116075722D01*
X133288658Y-116041940D01*
X133175619Y-115976677D01*
X133083323Y-115884381D01*
X133018060Y-115771342D01*
X132984278Y-115645263D01*
X132984278Y-115514737D01*
X133018060Y-115388658D01*
X133083323Y-115275619D01*
X133175619Y-115183323D01*
X133288658Y-115118060D01*
X133414737Y-115084278D01*
X133480000Y-115080000D01*
X134580000Y-115080000D01*
X134645263Y-115084278D01*
G37*
%LPD*%
M02*
