G04 #@! TF.GenerationSoftware,KiCad,Pcbnew,9.0.3*
G04 #@! TF.CreationDate,2025-08-03T15:19:36-04:00*
G04 #@! TF.ProjectId,CH32V003J4M6,43483332-5630-4303-934a-344d362e6b69,rev?*
G04 #@! TF.SameCoordinates,Original*
G04 #@! TF.FileFunction,Legend,Bot*
G04 #@! TF.FilePolarity,Positive*
%FSLAX46Y46*%
G04 Gerber Fmt 4.6, Leading zero omitted, Abs format (unit mm)*
G04 Created by KiCad (PCBNEW 9.0.3) date 2025-08-03 15:19:36*
%MOMM*%
%LPD*%
G01*
G04 APERTURE LIST*
%ADD10C,0.150000*%
%ADD11C,0.120000*%
G04 APERTURE END LIST*
D10*
X151266666Y-105554819D02*
X151599999Y-105078628D01*
X151838094Y-105554819D02*
X151838094Y-104554819D01*
X151838094Y-104554819D02*
X151457142Y-104554819D01*
X151457142Y-104554819D02*
X151361904Y-104602438D01*
X151361904Y-104602438D02*
X151314285Y-104650057D01*
X151314285Y-104650057D02*
X151266666Y-104745295D01*
X151266666Y-104745295D02*
X151266666Y-104888152D01*
X151266666Y-104888152D02*
X151314285Y-104983390D01*
X151314285Y-104983390D02*
X151361904Y-105031009D01*
X151361904Y-105031009D02*
X151457142Y-105078628D01*
X151457142Y-105078628D02*
X151838094Y-105078628D01*
X150409523Y-104888152D02*
X150409523Y-105554819D01*
X150647618Y-104507200D02*
X150885713Y-105221485D01*
X150885713Y-105221485D02*
X150266666Y-105221485D01*
X152109580Y-98533333D02*
X152157200Y-98485714D01*
X152157200Y-98485714D02*
X152204819Y-98342857D01*
X152204819Y-98342857D02*
X152204819Y-98247619D01*
X152204819Y-98247619D02*
X152157200Y-98104762D01*
X152157200Y-98104762D02*
X152061961Y-98009524D01*
X152061961Y-98009524D02*
X151966723Y-97961905D01*
X151966723Y-97961905D02*
X151776247Y-97914286D01*
X151776247Y-97914286D02*
X151633390Y-97914286D01*
X151633390Y-97914286D02*
X151442914Y-97961905D01*
X151442914Y-97961905D02*
X151347676Y-98009524D01*
X151347676Y-98009524D02*
X151252438Y-98104762D01*
X151252438Y-98104762D02*
X151204819Y-98247619D01*
X151204819Y-98247619D02*
X151204819Y-98342857D01*
X151204819Y-98342857D02*
X151252438Y-98485714D01*
X151252438Y-98485714D02*
X151300057Y-98533333D01*
X151300057Y-98914286D02*
X151252438Y-98961905D01*
X151252438Y-98961905D02*
X151204819Y-99057143D01*
X151204819Y-99057143D02*
X151204819Y-99295238D01*
X151204819Y-99295238D02*
X151252438Y-99390476D01*
X151252438Y-99390476D02*
X151300057Y-99438095D01*
X151300057Y-99438095D02*
X151395295Y-99485714D01*
X151395295Y-99485714D02*
X151490533Y-99485714D01*
X151490533Y-99485714D02*
X151633390Y-99438095D01*
X151633390Y-99438095D02*
X152204819Y-98866667D01*
X152204819Y-98866667D02*
X152204819Y-99485714D01*
X145621333Y-107912819D02*
X145621333Y-108627104D01*
X145621333Y-108627104D02*
X145668952Y-108769961D01*
X145668952Y-108769961D02*
X145764190Y-108865200D01*
X145764190Y-108865200D02*
X145907047Y-108912819D01*
X145907047Y-108912819D02*
X146002285Y-108912819D01*
X145240380Y-107912819D02*
X144621333Y-107912819D01*
X144621333Y-107912819D02*
X144954666Y-108293771D01*
X144954666Y-108293771D02*
X144811809Y-108293771D01*
X144811809Y-108293771D02*
X144716571Y-108341390D01*
X144716571Y-108341390D02*
X144668952Y-108389009D01*
X144668952Y-108389009D02*
X144621333Y-108484247D01*
X144621333Y-108484247D02*
X144621333Y-108722342D01*
X144621333Y-108722342D02*
X144668952Y-108817580D01*
X144668952Y-108817580D02*
X144716571Y-108865200D01*
X144716571Y-108865200D02*
X144811809Y-108912819D01*
X144811809Y-108912819D02*
X145097523Y-108912819D01*
X145097523Y-108912819D02*
X145192761Y-108865200D01*
X145192761Y-108865200D02*
X145240380Y-108817580D01*
X151296666Y-106854819D02*
X151629999Y-106378628D01*
X151868094Y-106854819D02*
X151868094Y-105854819D01*
X151868094Y-105854819D02*
X151487142Y-105854819D01*
X151487142Y-105854819D02*
X151391904Y-105902438D01*
X151391904Y-105902438D02*
X151344285Y-105950057D01*
X151344285Y-105950057D02*
X151296666Y-106045295D01*
X151296666Y-106045295D02*
X151296666Y-106188152D01*
X151296666Y-106188152D02*
X151344285Y-106283390D01*
X151344285Y-106283390D02*
X151391904Y-106331009D01*
X151391904Y-106331009D02*
X151487142Y-106378628D01*
X151487142Y-106378628D02*
X151868094Y-106378628D01*
X150963332Y-105854819D02*
X150344285Y-105854819D01*
X150344285Y-105854819D02*
X150677618Y-106235771D01*
X150677618Y-106235771D02*
X150534761Y-106235771D01*
X150534761Y-106235771D02*
X150439523Y-106283390D01*
X150439523Y-106283390D02*
X150391904Y-106331009D01*
X150391904Y-106331009D02*
X150344285Y-106426247D01*
X150344285Y-106426247D02*
X150344285Y-106664342D01*
X150344285Y-106664342D02*
X150391904Y-106759580D01*
X150391904Y-106759580D02*
X150439523Y-106807200D01*
X150439523Y-106807200D02*
X150534761Y-106854819D01*
X150534761Y-106854819D02*
X150820475Y-106854819D01*
X150820475Y-106854819D02*
X150915713Y-106807200D01*
X150915713Y-106807200D02*
X150963332Y-106759580D01*
X154266666Y-106854819D02*
X154599999Y-106378628D01*
X154838094Y-106854819D02*
X154838094Y-105854819D01*
X154838094Y-105854819D02*
X154457142Y-105854819D01*
X154457142Y-105854819D02*
X154361904Y-105902438D01*
X154361904Y-105902438D02*
X154314285Y-105950057D01*
X154314285Y-105950057D02*
X154266666Y-106045295D01*
X154266666Y-106045295D02*
X154266666Y-106188152D01*
X154266666Y-106188152D02*
X154314285Y-106283390D01*
X154314285Y-106283390D02*
X154361904Y-106331009D01*
X154361904Y-106331009D02*
X154457142Y-106378628D01*
X154457142Y-106378628D02*
X154838094Y-106378628D01*
X153361904Y-105854819D02*
X153838094Y-105854819D01*
X153838094Y-105854819D02*
X153885713Y-106331009D01*
X153885713Y-106331009D02*
X153838094Y-106283390D01*
X153838094Y-106283390D02*
X153742856Y-106235771D01*
X153742856Y-106235771D02*
X153504761Y-106235771D01*
X153504761Y-106235771D02*
X153409523Y-106283390D01*
X153409523Y-106283390D02*
X153361904Y-106331009D01*
X153361904Y-106331009D02*
X153314285Y-106426247D01*
X153314285Y-106426247D02*
X153314285Y-106664342D01*
X153314285Y-106664342D02*
X153361904Y-106759580D01*
X153361904Y-106759580D02*
X153409523Y-106807200D01*
X153409523Y-106807200D02*
X153504761Y-106854819D01*
X153504761Y-106854819D02*
X153742856Y-106854819D01*
X153742856Y-106854819D02*
X153838094Y-106807200D01*
X153838094Y-106807200D02*
X153885713Y-106759580D01*
X153359580Y-98533333D02*
X153407200Y-98485714D01*
X153407200Y-98485714D02*
X153454819Y-98342857D01*
X153454819Y-98342857D02*
X153454819Y-98247619D01*
X153454819Y-98247619D02*
X153407200Y-98104762D01*
X153407200Y-98104762D02*
X153311961Y-98009524D01*
X153311961Y-98009524D02*
X153216723Y-97961905D01*
X153216723Y-97961905D02*
X153026247Y-97914286D01*
X153026247Y-97914286D02*
X152883390Y-97914286D01*
X152883390Y-97914286D02*
X152692914Y-97961905D01*
X152692914Y-97961905D02*
X152597676Y-98009524D01*
X152597676Y-98009524D02*
X152502438Y-98104762D01*
X152502438Y-98104762D02*
X152454819Y-98247619D01*
X152454819Y-98247619D02*
X152454819Y-98342857D01*
X152454819Y-98342857D02*
X152502438Y-98485714D01*
X152502438Y-98485714D02*
X152550057Y-98533333D01*
X152454819Y-98866667D02*
X152454819Y-99485714D01*
X152454819Y-99485714D02*
X152835771Y-99152381D01*
X152835771Y-99152381D02*
X152835771Y-99295238D01*
X152835771Y-99295238D02*
X152883390Y-99390476D01*
X152883390Y-99390476D02*
X152931009Y-99438095D01*
X152931009Y-99438095D02*
X153026247Y-99485714D01*
X153026247Y-99485714D02*
X153264342Y-99485714D01*
X153264342Y-99485714D02*
X153359580Y-99438095D01*
X153359580Y-99438095D02*
X153407200Y-99390476D01*
X153407200Y-99390476D02*
X153454819Y-99295238D01*
X153454819Y-99295238D02*
X153454819Y-99009524D01*
X153454819Y-99009524D02*
X153407200Y-98914286D01*
X153407200Y-98914286D02*
X153359580Y-98866667D01*
D11*
X150887742Y-101327500D02*
X151362258Y-101327500D01*
X150887742Y-102372500D02*
X151362258Y-102372500D01*
X149790000Y-98559420D02*
X149790000Y-98840580D01*
X150810000Y-98559420D02*
X150810000Y-98840580D01*
X140320000Y-106989966D02*
X140320000Y-97589966D01*
X142220000Y-97589966D02*
X140320000Y-97589966D01*
X142220000Y-106989966D02*
X140320000Y-106989966D01*
X146120000Y-97589966D02*
X144120000Y-97589966D01*
X146120000Y-106989966D02*
X144120000Y-106989966D01*
X150892742Y-102827500D02*
X151367258Y-102827500D01*
X150892742Y-103872500D02*
X151367258Y-103872500D01*
X153862742Y-102677500D02*
X154337258Y-102677500D01*
X153862742Y-103722500D02*
X154337258Y-103722500D01*
X153840000Y-98559420D02*
X153840000Y-98840580D01*
X154860000Y-98559420D02*
X154860000Y-98840580D01*
%LPC*%
G36*
X143598000Y-111340000D02*
G01*
X141898000Y-111340000D01*
X141898000Y-109640000D01*
X143598000Y-109640000D01*
X143598000Y-111340000D01*
G37*
G36*
X145534742Y-109676601D02*
G01*
X145688687Y-109740367D01*
X145827234Y-109832941D01*
X145945059Y-109950766D01*
X146037633Y-110089313D01*
X146101399Y-110243258D01*
X146133907Y-110406685D01*
X146133907Y-110573315D01*
X146101399Y-110736742D01*
X146037633Y-110890687D01*
X145945059Y-111029234D01*
X145827234Y-111147059D01*
X145688687Y-111239633D01*
X145534742Y-111303399D01*
X145371315Y-111335907D01*
X145204685Y-111335907D01*
X145041258Y-111303399D01*
X144887313Y-111239633D01*
X144748766Y-111147059D01*
X144630941Y-111029234D01*
X144538367Y-110890687D01*
X144474601Y-110736742D01*
X144442093Y-110573315D01*
X144442093Y-110406685D01*
X144474601Y-110243258D01*
X144538367Y-110089313D01*
X144630941Y-109950766D01*
X144748766Y-109832941D01*
X144887313Y-109740367D01*
X145041258Y-109676601D01*
X145204685Y-109644093D01*
X145371315Y-109644093D01*
X145534742Y-109676601D01*
G37*
G36*
X148074742Y-109676601D02*
G01*
X148228687Y-109740367D01*
X148367234Y-109832941D01*
X148485059Y-109950766D01*
X148577633Y-110089313D01*
X148641399Y-110243258D01*
X148673907Y-110406685D01*
X148673907Y-110573315D01*
X148641399Y-110736742D01*
X148577633Y-110890687D01*
X148485059Y-111029234D01*
X148367234Y-111147059D01*
X148228687Y-111239633D01*
X148074742Y-111303399D01*
X147911315Y-111335907D01*
X147744685Y-111335907D01*
X147581258Y-111303399D01*
X147427313Y-111239633D01*
X147288766Y-111147059D01*
X147170941Y-111029234D01*
X147078367Y-110890687D01*
X147014601Y-110736742D01*
X146982093Y-110573315D01*
X146982093Y-110406685D01*
X147014601Y-110243258D01*
X147078367Y-110089313D01*
X147170941Y-109950766D01*
X147288766Y-109832941D01*
X147427313Y-109740367D01*
X147581258Y-109676601D01*
X147744685Y-109644093D01*
X147911315Y-109644093D01*
X148074742Y-109676601D01*
G37*
G36*
X150614742Y-109676601D02*
G01*
X150768687Y-109740367D01*
X150907234Y-109832941D01*
X151025059Y-109950766D01*
X151117633Y-110089313D01*
X151181399Y-110243258D01*
X151213907Y-110406685D01*
X151213907Y-110573315D01*
X151181399Y-110736742D01*
X151117633Y-110890687D01*
X151025059Y-111029234D01*
X150907234Y-111147059D01*
X150768687Y-111239633D01*
X150614742Y-111303399D01*
X150451315Y-111335907D01*
X150284685Y-111335907D01*
X150121258Y-111303399D01*
X149967313Y-111239633D01*
X149828766Y-111147059D01*
X149710941Y-111029234D01*
X149618367Y-110890687D01*
X149554601Y-110736742D01*
X149522093Y-110573315D01*
X149522093Y-110406685D01*
X149554601Y-110243258D01*
X149618367Y-110089313D01*
X149710941Y-109950766D01*
X149828766Y-109832941D01*
X149967313Y-109740367D01*
X150121258Y-109676601D01*
X150284685Y-109644093D01*
X150451315Y-109644093D01*
X150614742Y-109676601D01*
G37*
G36*
X153154742Y-109676601D02*
G01*
X153308687Y-109740367D01*
X153447234Y-109832941D01*
X153565059Y-109950766D01*
X153657633Y-110089313D01*
X153721399Y-110243258D01*
X153753907Y-110406685D01*
X153753907Y-110573315D01*
X153721399Y-110736742D01*
X153657633Y-110890687D01*
X153565059Y-111029234D01*
X153447234Y-111147059D01*
X153308687Y-111239633D01*
X153154742Y-111303399D01*
X152991315Y-111335907D01*
X152824685Y-111335907D01*
X152661258Y-111303399D01*
X152507313Y-111239633D01*
X152368766Y-111147059D01*
X152250941Y-111029234D01*
X152158367Y-110890687D01*
X152094601Y-110736742D01*
X152062093Y-110573315D01*
X152062093Y-110406685D01*
X152094601Y-110243258D01*
X152158367Y-110089313D01*
X152250941Y-109950766D01*
X152368766Y-109832941D01*
X152507313Y-109740367D01*
X152661258Y-109676601D01*
X152824685Y-109644093D01*
X152991315Y-109644093D01*
X153154742Y-109676601D01*
G37*
G36*
X155694742Y-109676601D02*
G01*
X155848687Y-109740367D01*
X155987234Y-109832941D01*
X156105059Y-109950766D01*
X156197633Y-110089313D01*
X156261399Y-110243258D01*
X156293907Y-110406685D01*
X156293907Y-110573315D01*
X156261399Y-110736742D01*
X156197633Y-110890687D01*
X156105059Y-111029234D01*
X155987234Y-111147059D01*
X155848687Y-111239633D01*
X155694742Y-111303399D01*
X155531315Y-111335907D01*
X155364685Y-111335907D01*
X155201258Y-111303399D01*
X155047313Y-111239633D01*
X154908766Y-111147059D01*
X154790941Y-111029234D01*
X154698367Y-110890687D01*
X154634601Y-110736742D01*
X154602093Y-110573315D01*
X154602093Y-110406685D01*
X154634601Y-110243258D01*
X154698367Y-110089313D01*
X154790941Y-109950766D01*
X154908766Y-109832941D01*
X155047313Y-109740367D01*
X155201258Y-109676601D01*
X155364685Y-109644093D01*
X155531315Y-109644093D01*
X155694742Y-109676601D01*
G37*
G36*
X158234742Y-109676601D02*
G01*
X158388687Y-109740367D01*
X158527234Y-109832941D01*
X158645059Y-109950766D01*
X158737633Y-110089313D01*
X158801399Y-110243258D01*
X158833907Y-110406685D01*
X158833907Y-110573315D01*
X158801399Y-110736742D01*
X158737633Y-110890687D01*
X158645059Y-111029234D01*
X158527234Y-111147059D01*
X158388687Y-111239633D01*
X158234742Y-111303399D01*
X158071315Y-111335907D01*
X157904685Y-111335907D01*
X157741258Y-111303399D01*
X157587313Y-111239633D01*
X157448766Y-111147059D01*
X157330941Y-111029234D01*
X157238367Y-110890687D01*
X157174601Y-110736742D01*
X157142093Y-110573315D01*
X157142093Y-110406685D01*
X157174601Y-110243258D01*
X157238367Y-110089313D01*
X157330941Y-109950766D01*
X157448766Y-109832941D01*
X157587313Y-109740367D01*
X157741258Y-109676601D01*
X157904685Y-109644093D01*
X158071315Y-109644093D01*
X158234742Y-109676601D01*
G37*
G36*
X160774742Y-109676601D02*
G01*
X160928687Y-109740367D01*
X161067234Y-109832941D01*
X161185059Y-109950766D01*
X161277633Y-110089313D01*
X161341399Y-110243258D01*
X161373907Y-110406685D01*
X161373907Y-110573315D01*
X161341399Y-110736742D01*
X161277633Y-110890687D01*
X161185059Y-111029234D01*
X161067234Y-111147059D01*
X160928687Y-111239633D01*
X160774742Y-111303399D01*
X160611315Y-111335907D01*
X160444685Y-111335907D01*
X160281258Y-111303399D01*
X160127313Y-111239633D01*
X159988766Y-111147059D01*
X159870941Y-111029234D01*
X159778367Y-110890687D01*
X159714601Y-110736742D01*
X159682093Y-110573315D01*
X159682093Y-110406685D01*
X159714601Y-110243258D01*
X159778367Y-110089313D01*
X159870941Y-109950766D01*
X159988766Y-109832941D01*
X160127313Y-109740367D01*
X160281258Y-109676601D01*
X160444685Y-109644093D01*
X160611315Y-109644093D01*
X160774742Y-109676601D01*
G37*
G36*
X161378000Y-107515000D02*
G01*
X159678000Y-107515000D01*
X159678000Y-105815000D01*
X161378000Y-105815000D01*
X161378000Y-107515000D01*
G37*
G36*
X143535263Y-106114244D02*
G01*
X143661342Y-106148026D01*
X143774381Y-106213289D01*
X143866677Y-106305585D01*
X143931940Y-106418624D01*
X143965722Y-106544703D01*
X143965722Y-106675229D01*
X143931940Y-106801308D01*
X143866677Y-106914347D01*
X143774381Y-107006643D01*
X143661342Y-107071906D01*
X143535263Y-107105688D01*
X143470000Y-107109966D01*
X143468029Y-107109966D01*
X142871971Y-107109966D01*
X142870000Y-107109966D01*
X142804737Y-107105688D01*
X142678658Y-107071906D01*
X142565619Y-107006643D01*
X142473323Y-106914347D01*
X142408060Y-106801308D01*
X142374278Y-106675229D01*
X142374278Y-106544703D01*
X142408060Y-106418624D01*
X142473323Y-106305585D01*
X142565619Y-106213289D01*
X142678658Y-106148026D01*
X142804737Y-106114244D01*
X142870000Y-106109966D01*
X143470000Y-106109966D01*
X143535263Y-106114244D01*
G37*
G36*
X147965263Y-106114244D02*
G01*
X148091342Y-106148026D01*
X148204381Y-106213289D01*
X148296677Y-106305585D01*
X148361940Y-106418624D01*
X148395722Y-106544703D01*
X148395722Y-106675229D01*
X148361940Y-106801308D01*
X148296677Y-106914347D01*
X148204381Y-107006643D01*
X148091342Y-107071906D01*
X147965263Y-107105688D01*
X147900000Y-107109966D01*
X147898029Y-107109966D01*
X146801971Y-107109966D01*
X146800000Y-107109966D01*
X146734737Y-107105688D01*
X146608658Y-107071906D01*
X146495619Y-107006643D01*
X146403323Y-106914347D01*
X146338060Y-106801308D01*
X146304278Y-106675229D01*
X146304278Y-106544703D01*
X146338060Y-106418624D01*
X146403323Y-106305585D01*
X146495619Y-106213289D01*
X146608658Y-106148026D01*
X146734737Y-106114244D01*
X146800000Y-106109966D01*
X147900000Y-106109966D01*
X147965263Y-106114244D01*
G37*
G36*
X148990000Y-105839966D02*
G01*
X147540000Y-105839966D01*
X147540000Y-105239966D01*
X148990000Y-105239966D01*
X148990000Y-105839966D01*
G37*
G36*
X146944372Y-104879705D02*
G01*
X147017847Y-104922126D01*
X147077840Y-104982119D01*
X147120261Y-105055594D01*
X147142220Y-105137545D01*
X147142220Y-105222387D01*
X147120261Y-105304338D01*
X147077840Y-105377813D01*
X147017847Y-105437806D01*
X146944372Y-105480227D01*
X146862421Y-105502186D01*
X146777579Y-105502186D01*
X146695628Y-105480227D01*
X146622153Y-105437806D01*
X146562160Y-105377813D01*
X146519739Y-105304338D01*
X146497780Y-105222387D01*
X146497780Y-105137545D01*
X146519739Y-105055594D01*
X146562160Y-104982119D01*
X146622153Y-104922126D01*
X146695628Y-104879705D01*
X146777579Y-104857746D01*
X146862421Y-104857746D01*
X146944372Y-104879705D01*
G37*
G36*
X148990000Y-105039966D02*
G01*
X147540000Y-105039966D01*
X147540000Y-104439966D01*
X148990000Y-104439966D01*
X148990000Y-105039966D01*
G37*
G36*
X160774742Y-103311601D02*
G01*
X160928687Y-103375367D01*
X161067234Y-103467941D01*
X161185059Y-103585766D01*
X161277633Y-103724313D01*
X161341399Y-103878258D01*
X161373907Y-104041685D01*
X161373907Y-104208315D01*
X161341399Y-104371742D01*
X161277633Y-104525687D01*
X161185059Y-104664234D01*
X161067234Y-104782059D01*
X160928687Y-104874633D01*
X160774742Y-104938399D01*
X160611315Y-104970907D01*
X160444685Y-104970907D01*
X160281258Y-104938399D01*
X160127313Y-104874633D01*
X159988766Y-104782059D01*
X159870941Y-104664234D01*
X159778367Y-104525687D01*
X159714601Y-104371742D01*
X159682093Y-104208315D01*
X159682093Y-104041685D01*
X159714601Y-103878258D01*
X159778367Y-103724313D01*
X159870941Y-103585766D01*
X159988766Y-103467941D01*
X160127313Y-103375367D01*
X160281258Y-103311601D01*
X160444685Y-103279093D01*
X160611315Y-103279093D01*
X160774742Y-103311601D01*
G37*
G36*
X148990000Y-104189966D02*
G01*
X147540000Y-104189966D01*
X147540000Y-103889966D01*
X148990000Y-103889966D01*
X148990000Y-104189966D01*
G37*
G36*
X150581537Y-102890224D02*
G01*
X150646421Y-102933579D01*
X150689776Y-102998463D01*
X150705000Y-103075000D01*
X150705000Y-103625000D01*
X150689776Y-103701537D01*
X150646421Y-103766421D01*
X150581537Y-103809776D01*
X150505000Y-103825000D01*
X150105000Y-103825000D01*
X150028463Y-103809776D01*
X149963579Y-103766421D01*
X149920224Y-103701537D01*
X149905000Y-103625000D01*
X149905000Y-103075000D01*
X149920224Y-102998463D01*
X149963579Y-102933579D01*
X150028463Y-102890224D01*
X150105000Y-102875000D01*
X150505000Y-102875000D01*
X150581537Y-102890224D01*
G37*
G36*
X152231537Y-102890224D02*
G01*
X152296421Y-102933579D01*
X152339776Y-102998463D01*
X152355000Y-103075000D01*
X152355000Y-103625000D01*
X152339776Y-103701537D01*
X152296421Y-103766421D01*
X152231537Y-103809776D01*
X152155000Y-103825000D01*
X151755000Y-103825000D01*
X151678463Y-103809776D01*
X151613579Y-103766421D01*
X151570224Y-103701537D01*
X151555000Y-103625000D01*
X151555000Y-103075000D01*
X151570224Y-102998463D01*
X151613579Y-102933579D01*
X151678463Y-102890224D01*
X151755000Y-102875000D01*
X152155000Y-102875000D01*
X152231537Y-102890224D01*
G37*
G36*
X148990000Y-103689966D02*
G01*
X147540000Y-103689966D01*
X147540000Y-103389966D01*
X148990000Y-103389966D01*
X148990000Y-103689966D01*
G37*
G36*
X153551537Y-102740224D02*
G01*
X153616421Y-102783579D01*
X153659776Y-102848463D01*
X153675000Y-102925000D01*
X153675000Y-103475000D01*
X153659776Y-103551537D01*
X153616421Y-103616421D01*
X153551537Y-103659776D01*
X153475000Y-103675000D01*
X153075000Y-103675000D01*
X152998463Y-103659776D01*
X152933579Y-103616421D01*
X152890224Y-103551537D01*
X152875000Y-103475000D01*
X152875000Y-102925000D01*
X152890224Y-102848463D01*
X152933579Y-102783579D01*
X152998463Y-102740224D01*
X153075000Y-102725000D01*
X153475000Y-102725000D01*
X153551537Y-102740224D01*
G37*
G36*
X155201537Y-102740224D02*
G01*
X155266421Y-102783579D01*
X155309776Y-102848463D01*
X155325000Y-102925000D01*
X155325000Y-103475000D01*
X155309776Y-103551537D01*
X155266421Y-103616421D01*
X155201537Y-103659776D01*
X155125000Y-103675000D01*
X154725000Y-103675000D01*
X154648463Y-103659776D01*
X154583579Y-103616421D01*
X154540224Y-103551537D01*
X154525000Y-103475000D01*
X154525000Y-102925000D01*
X154540224Y-102848463D01*
X154583579Y-102783579D01*
X154648463Y-102740224D01*
X154725000Y-102725000D01*
X155125000Y-102725000D01*
X155201537Y-102740224D01*
G37*
G36*
X148990000Y-103189966D02*
G01*
X147540000Y-103189966D01*
X147540000Y-102889966D01*
X148990000Y-102889966D01*
X148990000Y-103189966D01*
G37*
G36*
X148990000Y-102689966D02*
G01*
X147540000Y-102689966D01*
X147540000Y-102389966D01*
X148990000Y-102389966D01*
X148990000Y-102689966D01*
G37*
G36*
X160774742Y-100771601D02*
G01*
X160928687Y-100835367D01*
X161067234Y-100927941D01*
X161185059Y-101045766D01*
X161277633Y-101184313D01*
X161341399Y-101338258D01*
X161373907Y-101501685D01*
X161373907Y-101668315D01*
X161341399Y-101831742D01*
X161277633Y-101985687D01*
X161185059Y-102124234D01*
X161067234Y-102242059D01*
X160928687Y-102334633D01*
X160774742Y-102398399D01*
X160611315Y-102430907D01*
X160444685Y-102430907D01*
X160281258Y-102398399D01*
X160127313Y-102334633D01*
X159988766Y-102242059D01*
X159870941Y-102124234D01*
X159778367Y-101985687D01*
X159714601Y-101831742D01*
X159682093Y-101668315D01*
X159682093Y-101501685D01*
X159714601Y-101338258D01*
X159778367Y-101184313D01*
X159870941Y-101045766D01*
X159988766Y-100927941D01*
X160127313Y-100835367D01*
X160281258Y-100771601D01*
X160444685Y-100739093D01*
X160611315Y-100739093D01*
X160774742Y-100771601D01*
G37*
G36*
X150576537Y-101390224D02*
G01*
X150641421Y-101433579D01*
X150684776Y-101498463D01*
X150700000Y-101575000D01*
X150700000Y-102125000D01*
X150684776Y-102201537D01*
X150641421Y-102266421D01*
X150576537Y-102309776D01*
X150500000Y-102325000D01*
X150100000Y-102325000D01*
X150023463Y-102309776D01*
X149958579Y-102266421D01*
X149915224Y-102201537D01*
X149900000Y-102125000D01*
X149900000Y-101575000D01*
X149915224Y-101498463D01*
X149958579Y-101433579D01*
X150023463Y-101390224D01*
X150100000Y-101375000D01*
X150500000Y-101375000D01*
X150576537Y-101390224D01*
G37*
G36*
X152226537Y-101390224D02*
G01*
X152291421Y-101433579D01*
X152334776Y-101498463D01*
X152350000Y-101575000D01*
X152350000Y-102125000D01*
X152334776Y-102201537D01*
X152291421Y-102266421D01*
X152226537Y-102309776D01*
X152150000Y-102325000D01*
X151750000Y-102325000D01*
X151673463Y-102309776D01*
X151608579Y-102266421D01*
X151565224Y-102201537D01*
X151550000Y-102125000D01*
X151550000Y-101575000D01*
X151565224Y-101498463D01*
X151608579Y-101433579D01*
X151673463Y-101390224D01*
X151750000Y-101375000D01*
X152150000Y-101375000D01*
X152226537Y-101390224D01*
G37*
G36*
X148990000Y-102189966D02*
G01*
X147540000Y-102189966D01*
X147540000Y-101889966D01*
X148990000Y-101889966D01*
X148990000Y-102189966D01*
G37*
G36*
X148990000Y-101689966D02*
G01*
X147540000Y-101689966D01*
X147540000Y-101389966D01*
X148990000Y-101389966D01*
X148990000Y-101689966D01*
G37*
G36*
X148990000Y-101189966D02*
G01*
X147540000Y-101189966D01*
X147540000Y-100889966D01*
X148990000Y-100889966D01*
X148990000Y-101189966D01*
G37*
G36*
X148990000Y-100689966D02*
G01*
X147540000Y-100689966D01*
X147540000Y-100389966D01*
X148990000Y-100389966D01*
X148990000Y-100689966D01*
G37*
G36*
X148990000Y-100139966D02*
G01*
X147540000Y-100139966D01*
X147540000Y-99539966D01*
X148990000Y-99539966D01*
X148990000Y-100139966D01*
G37*
G36*
X150554850Y-99025964D02*
G01*
X150599317Y-99031123D01*
X150614510Y-99037831D01*
X150636104Y-99042127D01*
X150659222Y-99057574D01*
X150676567Y-99065233D01*
X150688412Y-99077078D01*
X150709099Y-99090901D01*
X150722921Y-99111587D01*
X150734766Y-99123432D01*
X150742423Y-99140774D01*
X150757873Y-99163896D01*
X150762168Y-99185491D01*
X150768876Y-99200682D01*
X150774033Y-99245139D01*
X150775000Y-99250000D01*
X150775000Y-99700000D01*
X150774032Y-99704862D01*
X150768876Y-99749317D01*
X150762168Y-99764506D01*
X150757873Y-99786104D01*
X150742422Y-99809227D01*
X150734766Y-99826567D01*
X150722923Y-99838409D01*
X150709099Y-99859099D01*
X150688409Y-99872923D01*
X150676567Y-99884766D01*
X150659227Y-99892422D01*
X150636104Y-99907873D01*
X150614506Y-99912168D01*
X150599317Y-99918876D01*
X150554861Y-99924032D01*
X150550000Y-99925000D01*
X150050000Y-99925000D01*
X150045138Y-99924033D01*
X150000682Y-99918876D01*
X149985491Y-99912168D01*
X149963896Y-99907873D01*
X149940774Y-99892423D01*
X149923432Y-99884766D01*
X149911587Y-99872921D01*
X149890901Y-99859099D01*
X149877078Y-99838412D01*
X149865233Y-99826567D01*
X149857574Y-99809222D01*
X149842127Y-99786104D01*
X149837831Y-99764510D01*
X149831123Y-99749317D01*
X149825964Y-99704849D01*
X149825000Y-99700000D01*
X149825000Y-99250000D01*
X149825964Y-99245150D01*
X149831123Y-99200682D01*
X149837832Y-99185487D01*
X149842127Y-99163896D01*
X149857573Y-99140779D01*
X149865233Y-99123432D01*
X149877080Y-99111584D01*
X149890901Y-99090901D01*
X149911584Y-99077080D01*
X149923432Y-99065233D01*
X149940779Y-99057573D01*
X149963896Y-99042127D01*
X149985487Y-99037832D01*
X150000682Y-99031123D01*
X150045151Y-99025964D01*
X150050000Y-99025000D01*
X150550000Y-99025000D01*
X150554850Y-99025964D01*
G37*
G36*
X154604850Y-99025964D02*
G01*
X154649317Y-99031123D01*
X154664510Y-99037831D01*
X154686104Y-99042127D01*
X154709222Y-99057574D01*
X154726567Y-99065233D01*
X154738412Y-99077078D01*
X154759099Y-99090901D01*
X154772921Y-99111587D01*
X154784766Y-99123432D01*
X154792423Y-99140774D01*
X154807873Y-99163896D01*
X154812168Y-99185491D01*
X154818876Y-99200682D01*
X154824033Y-99245139D01*
X154825000Y-99250000D01*
X154825000Y-99700000D01*
X154824032Y-99704862D01*
X154818876Y-99749317D01*
X154812168Y-99764506D01*
X154807873Y-99786104D01*
X154792422Y-99809227D01*
X154784766Y-99826567D01*
X154772923Y-99838409D01*
X154759099Y-99859099D01*
X154738409Y-99872923D01*
X154726567Y-99884766D01*
X154709227Y-99892422D01*
X154686104Y-99907873D01*
X154664506Y-99912168D01*
X154649317Y-99918876D01*
X154604861Y-99924032D01*
X154600000Y-99925000D01*
X154100000Y-99925000D01*
X154095138Y-99924033D01*
X154050682Y-99918876D01*
X154035491Y-99912168D01*
X154013896Y-99907873D01*
X153990774Y-99892423D01*
X153973432Y-99884766D01*
X153961587Y-99872921D01*
X153940901Y-99859099D01*
X153927078Y-99838412D01*
X153915233Y-99826567D01*
X153907574Y-99809222D01*
X153892127Y-99786104D01*
X153887831Y-99764510D01*
X153881123Y-99749317D01*
X153875964Y-99704849D01*
X153875000Y-99700000D01*
X153875000Y-99250000D01*
X153875964Y-99245150D01*
X153881123Y-99200682D01*
X153887832Y-99185487D01*
X153892127Y-99163896D01*
X153907573Y-99140779D01*
X153915233Y-99123432D01*
X153927080Y-99111584D01*
X153940901Y-99090901D01*
X153961584Y-99077080D01*
X153973432Y-99065233D01*
X153990779Y-99057573D01*
X154013896Y-99042127D01*
X154035487Y-99037832D01*
X154050682Y-99031123D01*
X154095151Y-99025964D01*
X154100000Y-99025000D01*
X154600000Y-99025000D01*
X154604850Y-99025964D01*
G37*
G36*
X146944372Y-99099705D02*
G01*
X147017847Y-99142126D01*
X147077840Y-99202119D01*
X147120261Y-99275594D01*
X147142220Y-99357545D01*
X147142220Y-99442387D01*
X147120261Y-99524338D01*
X147077840Y-99597813D01*
X147017847Y-99657806D01*
X146944372Y-99700227D01*
X146862421Y-99722186D01*
X146777579Y-99722186D01*
X146695628Y-99700227D01*
X146622153Y-99657806D01*
X146562160Y-99597813D01*
X146519739Y-99524338D01*
X146497780Y-99442387D01*
X146497780Y-99357545D01*
X146519739Y-99275594D01*
X146562160Y-99202119D01*
X146622153Y-99142126D01*
X146695628Y-99099705D01*
X146777579Y-99077746D01*
X146862421Y-99077746D01*
X146944372Y-99099705D01*
G37*
G36*
X148990000Y-99339966D02*
G01*
X147540000Y-99339966D01*
X147540000Y-98739966D01*
X148990000Y-98739966D01*
X148990000Y-99339966D01*
G37*
G36*
X143535263Y-97474244D02*
G01*
X143661342Y-97508026D01*
X143774381Y-97573289D01*
X143866677Y-97665585D01*
X143931940Y-97778624D01*
X143965722Y-97904703D01*
X143965722Y-98035229D01*
X143931940Y-98161308D01*
X143866677Y-98274347D01*
X143774381Y-98366643D01*
X143661342Y-98431906D01*
X143535263Y-98465688D01*
X143470000Y-98469966D01*
X143468029Y-98469966D01*
X142871971Y-98469966D01*
X142870000Y-98469966D01*
X142804737Y-98465688D01*
X142678658Y-98431906D01*
X142565619Y-98366643D01*
X142473323Y-98274347D01*
X142408060Y-98161308D01*
X142374278Y-98035229D01*
X142374278Y-97904703D01*
X142408060Y-97778624D01*
X142473323Y-97665585D01*
X142565619Y-97573289D01*
X142678658Y-97508026D01*
X142804737Y-97474244D01*
X142870000Y-97469966D01*
X143470000Y-97469966D01*
X143535263Y-97474244D01*
G37*
G36*
X147965263Y-97474244D02*
G01*
X148091342Y-97508026D01*
X148204381Y-97573289D01*
X148296677Y-97665585D01*
X148361940Y-97778624D01*
X148395722Y-97904703D01*
X148395722Y-98035229D01*
X148361940Y-98161308D01*
X148296677Y-98274347D01*
X148204381Y-98366643D01*
X148091342Y-98431906D01*
X147965263Y-98465688D01*
X147900000Y-98469966D01*
X147898029Y-98469966D01*
X146801971Y-98469966D01*
X146800000Y-98469966D01*
X146734737Y-98465688D01*
X146608658Y-98431906D01*
X146495619Y-98366643D01*
X146403323Y-98274347D01*
X146338060Y-98161308D01*
X146304278Y-98035229D01*
X146304278Y-97904703D01*
X146338060Y-97778624D01*
X146403323Y-97665585D01*
X146495619Y-97573289D01*
X146608658Y-97508026D01*
X146734737Y-97474244D01*
X146800000Y-97469966D01*
X147900000Y-97469966D01*
X147965263Y-97474244D01*
G37*
G36*
X150554850Y-97475964D02*
G01*
X150599317Y-97481123D01*
X150614510Y-97487831D01*
X150636104Y-97492127D01*
X150659222Y-97507574D01*
X150676567Y-97515233D01*
X150688412Y-97527078D01*
X150709099Y-97540901D01*
X150722921Y-97561587D01*
X150734766Y-97573432D01*
X150742423Y-97590774D01*
X150757873Y-97613896D01*
X150762168Y-97635491D01*
X150768876Y-97650682D01*
X150774033Y-97695139D01*
X150775000Y-97700000D01*
X150775000Y-98150000D01*
X150774032Y-98154862D01*
X150768876Y-98199317D01*
X150762168Y-98214506D01*
X150757873Y-98236104D01*
X150742422Y-98259227D01*
X150734766Y-98276567D01*
X150722923Y-98288409D01*
X150709099Y-98309099D01*
X150688409Y-98322923D01*
X150676567Y-98334766D01*
X150659227Y-98342422D01*
X150636104Y-98357873D01*
X150614506Y-98362168D01*
X150599317Y-98368876D01*
X150554861Y-98374032D01*
X150550000Y-98375000D01*
X150050000Y-98375000D01*
X150045138Y-98374033D01*
X150000682Y-98368876D01*
X149985491Y-98362168D01*
X149963896Y-98357873D01*
X149940774Y-98342423D01*
X149923432Y-98334766D01*
X149911587Y-98322921D01*
X149890901Y-98309099D01*
X149877078Y-98288412D01*
X149865233Y-98276567D01*
X149857574Y-98259222D01*
X149842127Y-98236104D01*
X149837831Y-98214510D01*
X149831123Y-98199317D01*
X149825964Y-98154849D01*
X149825000Y-98150000D01*
X149825000Y-97700000D01*
X149825964Y-97695150D01*
X149831123Y-97650682D01*
X149837832Y-97635487D01*
X149842127Y-97613896D01*
X149857573Y-97590779D01*
X149865233Y-97573432D01*
X149877080Y-97561584D01*
X149890901Y-97540901D01*
X149911584Y-97527080D01*
X149923432Y-97515233D01*
X149940779Y-97507573D01*
X149963896Y-97492127D01*
X149985487Y-97487832D01*
X150000682Y-97481123D01*
X150045151Y-97475964D01*
X150050000Y-97475000D01*
X150550000Y-97475000D01*
X150554850Y-97475964D01*
G37*
G36*
X154604850Y-97475964D02*
G01*
X154649317Y-97481123D01*
X154664510Y-97487831D01*
X154686104Y-97492127D01*
X154709222Y-97507574D01*
X154726567Y-97515233D01*
X154738412Y-97527078D01*
X154759099Y-97540901D01*
X154772921Y-97561587D01*
X154784766Y-97573432D01*
X154792423Y-97590774D01*
X154807873Y-97613896D01*
X154812168Y-97635491D01*
X154818876Y-97650682D01*
X154824033Y-97695139D01*
X154825000Y-97700000D01*
X154825000Y-98150000D01*
X154824032Y-98154862D01*
X154818876Y-98199317D01*
X154812168Y-98214506D01*
X154807873Y-98236104D01*
X154792422Y-98259227D01*
X154784766Y-98276567D01*
X154772923Y-98288409D01*
X154759099Y-98309099D01*
X154738409Y-98322923D01*
X154726567Y-98334766D01*
X154709227Y-98342422D01*
X154686104Y-98357873D01*
X154664506Y-98362168D01*
X154649317Y-98368876D01*
X154604861Y-98374032D01*
X154600000Y-98375000D01*
X154100000Y-98375000D01*
X154095138Y-98374033D01*
X154050682Y-98368876D01*
X154035491Y-98362168D01*
X154013896Y-98357873D01*
X153990774Y-98342423D01*
X153973432Y-98334766D01*
X153961587Y-98322921D01*
X153940901Y-98309099D01*
X153927078Y-98288412D01*
X153915233Y-98276567D01*
X153907574Y-98259222D01*
X153892127Y-98236104D01*
X153887831Y-98214510D01*
X153881123Y-98199317D01*
X153875964Y-98154849D01*
X153875000Y-98150000D01*
X153875000Y-97700000D01*
X153875964Y-97695150D01*
X153881123Y-97650682D01*
X153887832Y-97635487D01*
X153892127Y-97613896D01*
X153907573Y-97590779D01*
X153915233Y-97573432D01*
X153927080Y-97561584D01*
X153940901Y-97540901D01*
X153961584Y-97527080D01*
X153973432Y-97515233D01*
X153990779Y-97507573D01*
X154013896Y-97492127D01*
X154035487Y-97487832D01*
X154050682Y-97481123D01*
X154095151Y-97475964D01*
X154100000Y-97475000D01*
X154600000Y-97475000D01*
X154604850Y-97475964D01*
G37*
%LPD*%
M02*
