G04 #@! TF.GenerationSoftware,KiCad,Pcbnew,9.0.3*
G04 #@! TF.CreationDate,2025-08-03T15:19:36-04:00*
G04 #@! TF.ProjectId,CH32V003J4M6,43483332-5630-4303-934a-344d362e6b69,rev?*
G04 #@! TF.SameCoordinates,Original*
G04 #@! TF.FileFunction,Copper,L1,Top*
G04 #@! TF.FilePolarity,Positive*
%FSLAX46Y46*%
G04 Gerber Fmt 4.6, Leading zero omitted, Abs format (unit mm)*
G04 Created by KiCad (PCBNEW 9.0.3) date 2025-08-03 15:19:36*
%MOMM*%
%LPD*%
G01*
G04 APERTURE LIST*
G04 Aperture macros list*
%AMRoundRect*
0 Rectangle with rounded corners*
0 $1 Rounding radius*
0 $2 $3 $4 $5 $6 $7 $8 $9 X,Y pos of 4 corners*
0 Add a 4 corners polygon primitive as box body*
4,1,4,$2,$3,$4,$5,$6,$7,$8,$9,$2,$3,0*
0 Add four circle primitives for the rounded corners*
1,1,$1+$1,$2,$3*
1,1,$1+$1,$4,$5*
1,1,$1+$1,$6,$7*
1,1,$1+$1,$8,$9*
0 Add four rect primitives between the rounded corners*
20,1,$1+$1,$2,$3,$4,$5,0*
20,1,$1+$1,$4,$5,$6,$7,0*
20,1,$1+$1,$6,$7,$8,$9,0*
20,1,$1+$1,$8,$9,$2,$3,0*%
G04 Aperture macros list end*
G04 #@! TA.AperFunction,SMDPad,CuDef*
%ADD10RoundRect,0.375000X-0.625000X-0.375000X0.625000X-0.375000X0.625000X0.375000X-0.625000X0.375000X0*%
G04 #@! TD*
G04 #@! TA.AperFunction,SMDPad,CuDef*
%ADD11RoundRect,0.500000X-0.500000X-1.400000X0.500000X-1.400000X0.500000X1.400000X-0.500000X1.400000X0*%
G04 #@! TD*
G04 #@! TA.AperFunction,SMDPad,CuDef*
%ADD12RoundRect,0.200000X0.200000X0.275000X-0.200000X0.275000X-0.200000X-0.275000X0.200000X-0.275000X0*%
G04 #@! TD*
G04 #@! TA.AperFunction,ComponentPad*
%ADD13R,1.700000X1.700000*%
G04 #@! TD*
G04 #@! TA.AperFunction,ComponentPad*
%ADD14O,1.700000X1.700000*%
G04 #@! TD*
G04 #@! TA.AperFunction,SMDPad,CuDef*
%ADD15RoundRect,0.150000X-0.725000X-0.150000X0.725000X-0.150000X0.725000X0.150000X-0.725000X0.150000X0*%
G04 #@! TD*
G04 #@! TA.AperFunction,ComponentPad*
%ADD16O,1.600000X1.000000*%
G04 #@! TD*
G04 #@! TA.AperFunction,ComponentPad*
%ADD17O,2.100000X1.000000*%
G04 #@! TD*
G04 #@! TA.AperFunction,ViaPad*
%ADD18C,0.600000*%
G04 #@! TD*
G04 #@! TA.AperFunction,ViaPad*
%ADD19C,0.800000*%
G04 #@! TD*
G04 #@! TA.AperFunction,Conductor*
%ADD20C,0.400000*%
G04 #@! TD*
G04 #@! TA.AperFunction,Conductor*
%ADD21C,0.250000*%
G04 #@! TD*
G04 #@! TA.AperFunction,Conductor*
%ADD22C,0.600000*%
G04 #@! TD*
G04 #@! TA.AperFunction,Conductor*
%ADD23C,1.000000*%
G04 #@! TD*
G04 #@! TA.AperFunction,Conductor*
%ADD24C,0.550000*%
G04 #@! TD*
G04 APERTURE END LIST*
D10*
X150868733Y-97308112D03*
X150868733Y-99608112D03*
D11*
X157168733Y-99608112D03*
D10*
X150868733Y-101908112D03*
D12*
X145351000Y-102800000D03*
X143701000Y-102800000D03*
D13*
X160528000Y-106665000D03*
D14*
X160528000Y-104125000D03*
X160528000Y-101585000D03*
D12*
X145351000Y-101300000D03*
X143701000Y-101300000D03*
D13*
X142748000Y-110490000D03*
D14*
X145288000Y-110490000D03*
X147828000Y-110490000D03*
X150368000Y-110490000D03*
X152908000Y-110490000D03*
X155448000Y-110490000D03*
X157988000Y-110490000D03*
X160528000Y-110490000D03*
D15*
X151095000Y-104013000D03*
X151095000Y-105283000D03*
X151095000Y-106553000D03*
X151095000Y-107823000D03*
X156245000Y-107823000D03*
X156245000Y-106553000D03*
X156245000Y-105283000D03*
X156245000Y-104013000D03*
D16*
X143170000Y-106609966D03*
D17*
X147350000Y-106609966D03*
D16*
X143170000Y-97969966D03*
D17*
X147350000Y-97969966D03*
D18*
X149606000Y-105664000D03*
D19*
X144554521Y-102109127D03*
X154940000Y-107188000D03*
X154940000Y-105918000D03*
X154900000Y-104700000D03*
X146294640Y-102503437D03*
X146327000Y-101577000D03*
D18*
X155500000Y-99475000D03*
X155550000Y-98850000D03*
X155500000Y-100100000D03*
X150800000Y-100900000D03*
X150002000Y-100948000D03*
X151830429Y-100948000D03*
D20*
X148844000Y-107756000D02*
X147380000Y-109220000D01*
X151095000Y-104013000D02*
X149733000Y-104013000D01*
X147380000Y-109220000D02*
X144018000Y-109220000D01*
X144018000Y-109220000D02*
X142748000Y-110490000D01*
X149733000Y-104013000D02*
X148844000Y-104902000D01*
X148844000Y-104902000D02*
X148844000Y-107756000D01*
X149600000Y-107400000D02*
X150447000Y-106553000D01*
X150447000Y-106553000D02*
X151095000Y-106553000D01*
X149600000Y-108100000D02*
X149600000Y-107400000D01*
X147828000Y-110490000D02*
X147828000Y-109872000D01*
X147828000Y-109872000D02*
X149600000Y-108100000D01*
D21*
X144524873Y-102109127D02*
X143701000Y-102933000D01*
D22*
X151095000Y-105283000D02*
X149987000Y-105283000D01*
D23*
X150850000Y-97200000D02*
X148119966Y-97200000D01*
D21*
X144554521Y-102109127D02*
X144524873Y-102109127D01*
X143701000Y-101283000D02*
X143701000Y-101092000D01*
D22*
X149987000Y-105283000D02*
X149606000Y-105664000D01*
D21*
X144527127Y-102109127D02*
X143701000Y-101283000D01*
D23*
X148119966Y-97200000D02*
X147350000Y-97969966D01*
D21*
X144554521Y-102109127D02*
X144527127Y-102109127D01*
X143701000Y-102933000D02*
X143701000Y-103124000D01*
D20*
X155623000Y-107823000D02*
X156245000Y-107823000D01*
X155300000Y-107500000D02*
X155223000Y-107577000D01*
X155300000Y-107500000D02*
X155623000Y-107823000D01*
X155223000Y-107577000D02*
X155223000Y-108175000D01*
X155252000Y-107500000D02*
X154940000Y-107188000D01*
X155223000Y-108175000D02*
X152908000Y-110490000D01*
X155300000Y-107500000D02*
X155252000Y-107500000D01*
D21*
X154940000Y-105918000D02*
X154940000Y-106140000D01*
D20*
X156245000Y-106553000D02*
X157099000Y-106553000D01*
X157600000Y-107054000D02*
X157600000Y-108338000D01*
X157099000Y-106553000D02*
X157600000Y-107054000D01*
X155575000Y-106553000D02*
X156245000Y-106553000D01*
X154940000Y-105918000D02*
X155575000Y-106553000D01*
X157600000Y-108338000D02*
X155448000Y-110490000D01*
X154900000Y-104700000D02*
X155483000Y-105283000D01*
X155483000Y-105283000D02*
X156245000Y-105283000D01*
X156245000Y-105283000D02*
X157099000Y-105283000D01*
X158350000Y-110128000D02*
X157988000Y-110490000D01*
X157099000Y-105283000D02*
X158350000Y-106534000D01*
D21*
X154900000Y-104700000D02*
X154900000Y-104900000D01*
D20*
X158350000Y-106534000D02*
X158350000Y-110128000D01*
X159150000Y-109112000D02*
X159150000Y-106064000D01*
X157099000Y-104013000D02*
X156521751Y-104013000D01*
X158438000Y-105352000D02*
X157099000Y-104013000D01*
X159150000Y-106064000D02*
X158438000Y-105352000D01*
X159650000Y-104140000D02*
X158438000Y-105352000D01*
D21*
X156372000Y-104140000D02*
X156245000Y-104013000D01*
D20*
X160528000Y-110490000D02*
X159150000Y-109112000D01*
D21*
X156521751Y-104013000D02*
X156245000Y-104013000D01*
X160528000Y-104140000D02*
X159650000Y-104140000D01*
X146294640Y-102503437D02*
X146294640Y-102546052D01*
X146294640Y-102546052D02*
X145970692Y-102870000D01*
X145605000Y-102870000D02*
X145351000Y-103124000D01*
X145970692Y-102870000D02*
X145097000Y-102870000D01*
X146327000Y-101577000D02*
X146127000Y-101577000D01*
X146127000Y-101577000D02*
X145896000Y-101346000D01*
X145896000Y-101346000D02*
X145097000Y-101346000D01*
X145605000Y-101346000D02*
X145351000Y-101092000D01*
D24*
X157050000Y-99600000D02*
X157150000Y-99500000D01*
X155500000Y-99475000D02*
X155625000Y-99600000D01*
X155625000Y-99600000D02*
X157050000Y-99600000D01*
X150002000Y-100948000D02*
X150002000Y-100952000D01*
X151830429Y-100948000D02*
X151402000Y-100948000D01*
X150850000Y-101500000D02*
X150850000Y-101800000D01*
X150002000Y-100952000D02*
X150850000Y-101800000D01*
X150800000Y-100900000D02*
X150868733Y-100968733D01*
X151402000Y-100948000D02*
X150850000Y-101500000D01*
X150850000Y-101889379D02*
X150850000Y-101800000D01*
X150868733Y-101908112D02*
X150850000Y-101889379D01*
X150868733Y-100968733D02*
X150868733Y-101908112D01*
G04 #@! TA.AperFunction,Conductor*
G36*
X157123513Y-106435777D02*
G01*
X157460657Y-106637012D01*
X157466003Y-106644193D01*
X157464705Y-106653054D01*
X157462932Y-106655330D01*
X157194513Y-106923749D01*
X157186240Y-106927176D01*
X157185348Y-106927142D01*
X156227586Y-106853908D01*
X156219598Y-106849860D01*
X156216812Y-106841350D01*
X156216817Y-106841289D01*
X156243414Y-106561533D01*
X156247608Y-106553622D01*
X156253490Y-106551047D01*
X157115946Y-106434229D01*
X157123513Y-106435777D01*
G37*
G04 #@! TD.AperFunction*
G04 #@! TA.AperFunction,Conductor*
G36*
X153958860Y-109161032D02*
G01*
X153962618Y-109163553D01*
X154234446Y-109435381D01*
X154237873Y-109443654D01*
X154236998Y-109448094D01*
X153745319Y-110646921D01*
X153739009Y-110653275D01*
X153732223Y-110653958D01*
X152914978Y-110492227D01*
X152907527Y-110487260D01*
X152905772Y-110483021D01*
X152898406Y-110445801D01*
X152744041Y-109665774D01*
X152745796Y-109656995D01*
X152751076Y-109652681D01*
X153949906Y-109161001D01*
X153958860Y-109161032D01*
G37*
G04 #@! TD.AperFunction*
G04 #@! TA.AperFunction,Conductor*
G36*
X162492539Y-96042185D02*
G01*
X162538294Y-96094989D01*
X162549500Y-96146500D01*
X162549500Y-112387500D01*
X162529815Y-112454539D01*
X162477011Y-112500294D01*
X162425500Y-112511500D01*
X141104500Y-112511500D01*
X141037461Y-112491815D01*
X140991706Y-112439011D01*
X140980500Y-112387500D01*
X140980500Y-109615321D01*
X141647500Y-109615321D01*
X141647500Y-111364678D01*
X141662032Y-111437735D01*
X141662033Y-111437739D01*
X141662034Y-111437740D01*
X141717399Y-111520601D01*
X141800260Y-111575966D01*
X141800264Y-111575967D01*
X141873321Y-111590499D01*
X141873324Y-111590500D01*
X141873326Y-111590500D01*
X143622676Y-111590500D01*
X143622677Y-111590499D01*
X143695740Y-111575966D01*
X143778601Y-111520601D01*
X143833966Y-111437740D01*
X143848500Y-111364674D01*
X143848500Y-110981843D01*
X143859872Y-110929969D01*
X143870001Y-110907977D01*
X143974195Y-110681750D01*
X144020119Y-110629095D01*
X144087222Y-110609626D01*
X144154197Y-110629526D01*
X144199782Y-110682476D01*
X144209296Y-110714227D01*
X144213864Y-110743071D01*
X144214598Y-110747701D01*
X144268127Y-110912445D01*
X144346768Y-111066788D01*
X144448586Y-111206928D01*
X144571072Y-111329414D01*
X144711212Y-111431232D01*
X144865555Y-111509873D01*
X145030299Y-111563402D01*
X145201389Y-111590500D01*
X145201390Y-111590500D01*
X145374610Y-111590500D01*
X145374611Y-111590500D01*
X145545701Y-111563402D01*
X145710445Y-111509873D01*
X145864788Y-111431232D01*
X146004928Y-111329414D01*
X146127414Y-111206928D01*
X146229232Y-111066788D01*
X146307873Y-110912445D01*
X146361402Y-110747701D01*
X146388500Y-110576611D01*
X146388500Y-110403389D01*
X146361402Y-110232299D01*
X146307873Y-110067555D01*
X146229232Y-109913212D01*
X146195936Y-109867385D01*
X146172457Y-109801580D01*
X146188282Y-109733526D01*
X146238388Y-109684831D01*
X146296255Y-109670500D01*
X146819745Y-109670500D01*
X146886784Y-109690185D01*
X146932539Y-109742989D01*
X146942483Y-109812147D01*
X146920063Y-109867386D01*
X146886768Y-109913211D01*
X146808128Y-110067552D01*
X146754597Y-110232302D01*
X146727500Y-110403389D01*
X146727500Y-110576610D01*
X146753864Y-110743071D01*
X146754598Y-110747701D01*
X146808127Y-110912445D01*
X146886768Y-111066788D01*
X146988586Y-111206928D01*
X147111072Y-111329414D01*
X147251212Y-111431232D01*
X147405555Y-111509873D01*
X147570299Y-111563402D01*
X147741389Y-111590500D01*
X147741390Y-111590500D01*
X147914610Y-111590500D01*
X147914611Y-111590500D01*
X148085701Y-111563402D01*
X148250445Y-111509873D01*
X148404788Y-111431232D01*
X148544928Y-111329414D01*
X148667414Y-111206928D01*
X148769232Y-111066788D01*
X148847873Y-110912445D01*
X148848896Y-110909294D01*
X148849610Y-110908250D01*
X148849734Y-110907952D01*
X148849796Y-110907977D01*
X148888327Y-110851618D01*
X148952683Y-110824415D01*
X149021530Y-110836323D01*
X149073011Y-110883562D01*
X149084760Y-110909287D01*
X149116904Y-111008217D01*
X149213379Y-111197557D01*
X149338272Y-111369459D01*
X149338276Y-111369464D01*
X149488533Y-111519721D01*
X149618000Y-111613783D01*
X149618000Y-110424174D01*
X149868000Y-110424174D01*
X149868000Y-110555826D01*
X149902075Y-110682993D01*
X149967901Y-110797007D01*
X150060993Y-110890099D01*
X150175007Y-110955925D01*
X150302174Y-110990000D01*
X150433826Y-110990000D01*
X150560993Y-110955925D01*
X150675007Y-110890099D01*
X150768099Y-110797007D01*
X150833925Y-110682993D01*
X150868000Y-110555826D01*
X150868000Y-110424174D01*
X150833925Y-110297007D01*
X150768099Y-110182993D01*
X150675007Y-110089901D01*
X150560993Y-110024075D01*
X150433826Y-109990000D01*
X150302174Y-109990000D01*
X150175007Y-110024075D01*
X150060993Y-110089901D01*
X149967901Y-110182993D01*
X149902075Y-110297007D01*
X149868000Y-110424174D01*
X149618000Y-110424174D01*
X149618000Y-109366215D01*
X151118000Y-109366215D01*
X151118000Y-111613782D01*
X151247466Y-111519721D01*
X151397723Y-111369464D01*
X151397727Y-111369459D01*
X151522620Y-111197557D01*
X151619096Y-111008215D01*
X151651239Y-110909288D01*
X151690676Y-110851612D01*
X151755034Y-110824413D01*
X151823880Y-110836327D01*
X151875357Y-110883571D01*
X151887100Y-110909284D01*
X151888127Y-110912446D01*
X151927643Y-110990000D01*
X151966768Y-111066788D01*
X152068586Y-111206928D01*
X152191072Y-111329414D01*
X152331212Y-111431232D01*
X152485555Y-111509873D01*
X152650299Y-111563402D01*
X152821389Y-111590500D01*
X152821390Y-111590500D01*
X152994610Y-111590500D01*
X152994611Y-111590500D01*
X153165701Y-111563402D01*
X153330445Y-111509873D01*
X153484788Y-111431232D01*
X153624928Y-111329414D01*
X153747414Y-111206928D01*
X153849232Y-111066788D01*
X153927873Y-110912445D01*
X153981402Y-110747701D01*
X153981403Y-110747697D01*
X153982909Y-110743062D01*
X153983040Y-110743104D01*
X153986805Y-110731447D01*
X154006901Y-110682450D01*
X154108774Y-110434058D01*
X154152425Y-110379503D01*
X154218642Y-110357207D01*
X154286401Y-110374250D01*
X154334190Y-110425221D01*
X154347500Y-110481112D01*
X154347500Y-110576610D01*
X154373864Y-110743071D01*
X154374598Y-110747701D01*
X154428127Y-110912445D01*
X154506768Y-111066788D01*
X154608586Y-111206928D01*
X154731072Y-111329414D01*
X154871212Y-111431232D01*
X155025555Y-111509873D01*
X155190299Y-111563402D01*
X155361389Y-111590500D01*
X155361390Y-111590500D01*
X155534610Y-111590500D01*
X155534611Y-111590500D01*
X155705701Y-111563402D01*
X155870445Y-111509873D01*
X156024788Y-111431232D01*
X156164928Y-111329414D01*
X156287414Y-111206928D01*
X156389232Y-111066788D01*
X156467873Y-110912445D01*
X156521402Y-110747701D01*
X156521403Y-110747697D01*
X156522909Y-110743062D01*
X156523040Y-110743104D01*
X156526805Y-110731447D01*
X156546901Y-110682450D01*
X156648774Y-110434058D01*
X156692425Y-110379503D01*
X156758642Y-110357207D01*
X156826401Y-110374250D01*
X156874190Y-110425221D01*
X156887500Y-110481112D01*
X156887500Y-110576610D01*
X156913864Y-110743071D01*
X156914598Y-110747701D01*
X156968127Y-110912445D01*
X157046768Y-111066788D01*
X157148586Y-111206928D01*
X157271072Y-111329414D01*
X157411212Y-111431232D01*
X157565555Y-111509873D01*
X157730299Y-111563402D01*
X157901389Y-111590500D01*
X157901390Y-111590500D01*
X158074610Y-111590500D01*
X158074611Y-111590500D01*
X158245701Y-111563402D01*
X158410445Y-111509873D01*
X158564788Y-111431232D01*
X158704928Y-111329414D01*
X158827414Y-111206928D01*
X158929232Y-111066788D01*
X159007873Y-110912445D01*
X159061402Y-110747701D01*
X159088500Y-110576611D01*
X159088500Y-110481118D01*
X159108185Y-110414079D01*
X159160989Y-110368324D01*
X159230147Y-110358380D01*
X159293703Y-110387405D01*
X159327226Y-110434065D01*
X159449198Y-110731463D01*
X159452962Y-110743113D01*
X159453094Y-110743071D01*
X159454597Y-110747697D01*
X159454598Y-110747701D01*
X159508127Y-110912445D01*
X159586768Y-111066788D01*
X159688586Y-111206928D01*
X159811072Y-111329414D01*
X159951212Y-111431232D01*
X160105555Y-111509873D01*
X160270299Y-111563402D01*
X160441389Y-111590500D01*
X160441390Y-111590500D01*
X160614610Y-111590500D01*
X160614611Y-111590500D01*
X160785701Y-111563402D01*
X160950445Y-111509873D01*
X161104788Y-111431232D01*
X161244928Y-111329414D01*
X161367414Y-111206928D01*
X161469232Y-111066788D01*
X161547873Y-110912445D01*
X161601402Y-110747701D01*
X161628500Y-110576611D01*
X161628500Y-110403389D01*
X161601402Y-110232299D01*
X161547873Y-110067555D01*
X161469232Y-109913212D01*
X161367414Y-109773072D01*
X161244928Y-109650586D01*
X161104788Y-109548768D01*
X160950445Y-109470127D01*
X160785701Y-109416598D01*
X160785698Y-109416597D01*
X160781071Y-109415094D01*
X160781113Y-109414962D01*
X160769463Y-109411198D01*
X159677447Y-108963326D01*
X159622891Y-108919675D01*
X159600595Y-108853458D01*
X159600500Y-108848600D01*
X159600500Y-107889500D01*
X159620185Y-107822461D01*
X159672989Y-107776706D01*
X159724500Y-107765500D01*
X161402676Y-107765500D01*
X161402677Y-107765499D01*
X161475740Y-107750966D01*
X161558601Y-107695601D01*
X161613966Y-107612740D01*
X161628500Y-107539674D01*
X161628500Y-105790326D01*
X161628500Y-105790323D01*
X161628499Y-105790321D01*
X161613967Y-105717264D01*
X161613966Y-105717260D01*
X161613289Y-105716247D01*
X161558601Y-105634399D01*
X161503235Y-105597405D01*
X161475739Y-105579033D01*
X161475735Y-105579032D01*
X161402677Y-105564500D01*
X161402674Y-105564500D01*
X159653326Y-105564500D01*
X159653323Y-105564500D01*
X159580264Y-105579032D01*
X159580257Y-105579035D01*
X159498148Y-105633897D01*
X159431470Y-105654774D01*
X159364090Y-105636288D01*
X159341578Y-105618475D01*
X159162783Y-105439680D01*
X159158444Y-105431734D01*
X159151197Y-105426309D01*
X159141962Y-105401550D01*
X159129298Y-105378357D01*
X159129943Y-105369326D01*
X159126780Y-105360844D01*
X159132396Y-105335023D01*
X159134282Y-105308665D01*
X159140100Y-105299610D01*
X159141632Y-105292572D01*
X159162775Y-105264327D01*
X159269697Y-105157404D01*
X159331018Y-105123922D01*
X159369018Y-105121636D01*
X160327675Y-105212047D01*
X160332542Y-105211673D01*
X160361427Y-105212834D01*
X160441389Y-105225500D01*
X160441391Y-105225500D01*
X160614610Y-105225500D01*
X160614611Y-105225500D01*
X160785701Y-105198402D01*
X160950445Y-105144873D01*
X161104788Y-105066232D01*
X161244928Y-104964414D01*
X161367414Y-104841928D01*
X161469232Y-104701788D01*
X161547873Y-104547445D01*
X161601402Y-104382701D01*
X161628500Y-104211611D01*
X161628500Y-104038389D01*
X161601402Y-103867299D01*
X161547873Y-103702555D01*
X161469232Y-103548212D01*
X161367414Y-103408072D01*
X161244928Y-103285586D01*
X161104788Y-103183768D01*
X161091271Y-103176881D01*
X160950446Y-103105127D01*
X160947284Y-103104100D01*
X160946236Y-103103383D01*
X160945952Y-103103266D01*
X160945976Y-103103206D01*
X160889609Y-103064661D01*
X160862413Y-103000302D01*
X160874329Y-102931456D01*
X160921574Y-102879981D01*
X160947288Y-102868239D01*
X161046215Y-102836096D01*
X161235557Y-102739620D01*
X161407459Y-102614727D01*
X161407464Y-102614723D01*
X161557721Y-102464466D01*
X161651783Y-102335000D01*
X159404217Y-102335000D01*
X159498278Y-102464466D01*
X159648535Y-102614723D01*
X159648540Y-102614727D01*
X159820442Y-102739620D01*
X160009784Y-102836096D01*
X160108711Y-102868239D01*
X160166387Y-102907676D01*
X160193586Y-102972034D01*
X160181672Y-103040881D01*
X160134428Y-103092357D01*
X160108722Y-103104097D01*
X160107522Y-103104487D01*
X160105550Y-103105128D01*
X159951211Y-103183768D01*
X159871256Y-103241859D01*
X159811072Y-103285586D01*
X159811070Y-103285588D01*
X159811069Y-103285588D01*
X159688588Y-103408069D01*
X159688583Y-103408075D01*
X159649696Y-103461597D01*
X159634564Y-103477948D01*
X159634731Y-103478109D01*
X158762897Y-104382687D01*
X158762888Y-104382700D01*
X158756526Y-104392512D01*
X158740164Y-104412731D01*
X158525680Y-104627215D01*
X158464357Y-104660700D01*
X158394665Y-104655716D01*
X158350318Y-104627215D01*
X157375616Y-103652513D01*
X157375614Y-103652511D01*
X157272887Y-103593201D01*
X157272885Y-103593200D01*
X157272133Y-103592766D01*
X157246451Y-103573059D01*
X157208346Y-103534953D01*
X157208344Y-103534952D01*
X157208342Y-103534950D01*
X157100735Y-103480121D01*
X157095301Y-103477352D01*
X157001524Y-103462500D01*
X155488482Y-103462500D01*
X155409017Y-103475086D01*
X155394696Y-103477354D01*
X155281658Y-103534950D01*
X155281657Y-103534951D01*
X155281652Y-103534954D01*
X155191954Y-103624652D01*
X155191951Y-103624657D01*
X155134352Y-103737698D01*
X155119500Y-103831475D01*
X155119500Y-103929322D01*
X155099815Y-103996361D01*
X155047011Y-104042116D01*
X154977853Y-104052060D01*
X154971313Y-104050940D01*
X154964072Y-104049500D01*
X154964069Y-104049500D01*
X154835931Y-104049500D01*
X154835929Y-104049500D01*
X154710261Y-104074497D01*
X154710255Y-104074499D01*
X154591875Y-104123533D01*
X154591866Y-104123538D01*
X154485331Y-104194723D01*
X154485327Y-104194726D01*
X154394726Y-104285327D01*
X154394723Y-104285331D01*
X154323538Y-104391866D01*
X154323533Y-104391875D01*
X154274499Y-104510255D01*
X154274497Y-104510261D01*
X154249500Y-104635928D01*
X154249500Y-104635931D01*
X154249500Y-104764069D01*
X154249500Y-104764071D01*
X154249499Y-104764071D01*
X154274497Y-104889738D01*
X154274499Y-104889744D01*
X154323533Y-105008124D01*
X154323538Y-105008133D01*
X154394723Y-105114668D01*
X154394726Y-105114672D01*
X154485327Y-105205273D01*
X154485331Y-105205276D01*
X154508034Y-105220446D01*
X154552839Y-105274058D01*
X154561546Y-105343383D01*
X154531392Y-105406411D01*
X154526825Y-105411229D01*
X154434723Y-105503331D01*
X154363538Y-105609866D01*
X154363533Y-105609875D01*
X154314499Y-105728255D01*
X154314497Y-105728261D01*
X154289500Y-105853928D01*
X154289500Y-105853931D01*
X154289500Y-105982069D01*
X154289500Y-105982071D01*
X154289499Y-105982071D01*
X154314497Y-106107738D01*
X154314499Y-106107744D01*
X154363533Y-106226124D01*
X154363538Y-106226133D01*
X154434723Y-106332668D01*
X154434726Y-106332672D01*
X154525327Y-106423273D01*
X154525332Y-106423277D01*
X154565171Y-106449896D01*
X154609977Y-106503507D01*
X154618686Y-106572832D01*
X154588532Y-106635860D01*
X154565174Y-106656100D01*
X154525334Y-106682721D01*
X154525327Y-106682726D01*
X154434726Y-106773327D01*
X154434723Y-106773331D01*
X154363538Y-106879866D01*
X154363533Y-106879875D01*
X154314499Y-106998255D01*
X154314497Y-106998261D01*
X154289500Y-107123928D01*
X154289500Y-107123931D01*
X154289500Y-107252069D01*
X154289500Y-107252071D01*
X154289499Y-107252071D01*
X154314497Y-107377738D01*
X154314499Y-107377744D01*
X154363533Y-107496124D01*
X154363538Y-107496133D01*
X154434723Y-107602668D01*
X154434726Y-107602672D01*
X154525327Y-107693273D01*
X154525331Y-107693276D01*
X154631866Y-107764461D01*
X154631875Y-107764466D01*
X154695953Y-107791008D01*
X154711518Y-107803551D01*
X154729703Y-107811856D01*
X154738167Y-107825026D01*
X154750356Y-107834849D01*
X154756668Y-107853816D01*
X154767477Y-107870634D01*
X154771439Y-107898194D01*
X154772421Y-107901143D01*
X154772500Y-107905569D01*
X154772500Y-107937034D01*
X154752815Y-108004073D01*
X154736181Y-108024715D01*
X153842298Y-108918597D01*
X153801670Y-108945642D01*
X152666533Y-109411199D01*
X152654886Y-109414963D01*
X152654929Y-109415094D01*
X152650301Y-109416597D01*
X152650299Y-109416598D01*
X152485555Y-109470127D01*
X152485552Y-109470128D01*
X152485550Y-109470129D01*
X152331211Y-109548768D01*
X152297441Y-109573304D01*
X152191072Y-109650586D01*
X152191070Y-109650588D01*
X152191069Y-109650588D01*
X152068588Y-109773069D01*
X152068588Y-109773070D01*
X152068586Y-109773072D01*
X152051433Y-109796681D01*
X151966768Y-109913211D01*
X151888128Y-110067550D01*
X151887099Y-110070720D01*
X151886381Y-110071769D01*
X151886266Y-110072048D01*
X151886207Y-110072023D01*
X151847657Y-110128393D01*
X151783297Y-110155587D01*
X151714451Y-110143668D01*
X151662979Y-110096420D01*
X151651239Y-110070711D01*
X151619096Y-109971784D01*
X151522620Y-109782442D01*
X151397727Y-109610540D01*
X151397723Y-109610535D01*
X151247468Y-109460280D01*
X151118000Y-109366215D01*
X149618000Y-109366215D01*
X149617999Y-109366215D01*
X149488532Y-109460280D01*
X149488531Y-109460280D01*
X149338276Y-109610535D01*
X149338272Y-109610540D01*
X149214686Y-109780642D01*
X149159356Y-109823308D01*
X149089743Y-109829287D01*
X149027948Y-109796681D01*
X148993590Y-109735842D01*
X148990725Y-109698357D01*
X149016216Y-109363198D01*
X149040927Y-109297848D01*
X149052170Y-109284931D01*
X149823758Y-108513344D01*
X149885075Y-108479863D01*
X149954766Y-108484847D01*
X149974554Y-108494297D01*
X150109803Y-108574282D01*
X150109806Y-108574283D01*
X150267504Y-108620099D01*
X150267510Y-108620100D01*
X150304350Y-108622999D01*
X150304366Y-108623000D01*
X150795000Y-108623000D01*
X151395000Y-108623000D01*
X151885634Y-108623000D01*
X151885649Y-108622999D01*
X151922489Y-108620100D01*
X151922495Y-108620099D01*
X152080193Y-108574283D01*
X152080196Y-108574282D01*
X152221552Y-108490685D01*
X152221561Y-108490678D01*
X152337678Y-108374561D01*
X152337685Y-108374552D01*
X152421281Y-108233198D01*
X152453296Y-108123000D01*
X151395000Y-108123000D01*
X151395000Y-108623000D01*
X150795000Y-108623000D01*
X150795000Y-107947000D01*
X150814685Y-107879961D01*
X150867489Y-107834206D01*
X150919000Y-107823000D01*
X151095000Y-107823000D01*
X151095000Y-107647000D01*
X151114685Y-107579961D01*
X151167489Y-107534206D01*
X151219000Y-107523000D01*
X152453296Y-107523000D01*
X152421281Y-107412801D01*
X152337685Y-107271447D01*
X152337678Y-107271438D01*
X152221561Y-107155321D01*
X152221553Y-107155315D01*
X152178507Y-107129858D01*
X152130824Y-107078789D01*
X152118320Y-107010048D01*
X152143152Y-106949852D01*
X152142311Y-106949241D01*
X152144841Y-106945758D01*
X152144965Y-106945458D01*
X152145460Y-106944906D01*
X152148042Y-106941349D01*
X152148050Y-106941342D01*
X152205646Y-106828304D01*
X152205646Y-106828302D01*
X152205647Y-106828301D01*
X152220499Y-106734524D01*
X152220500Y-106734519D01*
X152220499Y-106371482D01*
X152205646Y-106277696D01*
X152148050Y-106164658D01*
X152148046Y-106164654D01*
X152148045Y-106164652D01*
X152058347Y-106074954D01*
X152058343Y-106074951D01*
X152058342Y-106074950D01*
X151993869Y-106042099D01*
X151967147Y-106028483D01*
X151916352Y-105980509D01*
X151899557Y-105912687D01*
X151922095Y-105846553D01*
X151967145Y-105807517D01*
X152058342Y-105761050D01*
X152148050Y-105671342D01*
X152205646Y-105558304D01*
X152205646Y-105558302D01*
X152205647Y-105558301D01*
X152220499Y-105464524D01*
X152220500Y-105464519D01*
X152220499Y-105101482D01*
X152205646Y-105007696D01*
X152148050Y-104894658D01*
X152148046Y-104894654D01*
X152148045Y-104894652D01*
X152058347Y-104804954D01*
X152058343Y-104804951D01*
X152058342Y-104804950D01*
X152055599Y-104803552D01*
X151967147Y-104758483D01*
X151916352Y-104710509D01*
X151899557Y-104642687D01*
X151922095Y-104576553D01*
X151967145Y-104537517D01*
X152058342Y-104491050D01*
X152148050Y-104401342D01*
X152205646Y-104288304D01*
X152205646Y-104288302D01*
X152205647Y-104288301D01*
X152220467Y-104194726D01*
X152220500Y-104194519D01*
X152220499Y-103831482D01*
X152205646Y-103737696D01*
X152148050Y-103624658D01*
X152148046Y-103624654D01*
X152148045Y-103624652D01*
X152058347Y-103534954D01*
X152058344Y-103534952D01*
X152058342Y-103534950D01*
X151950735Y-103480121D01*
X151945301Y-103477352D01*
X151851524Y-103462500D01*
X150338481Y-103462500D01*
X150259005Y-103475087D01*
X150259004Y-103475086D01*
X150254181Y-103475850D01*
X150252988Y-103475944D01*
X150251558Y-103476265D01*
X150247601Y-103476893D01*
X150247600Y-103476892D01*
X150244355Y-103477407D01*
X150234470Y-103480121D01*
X149882846Y-103559459D01*
X149855554Y-103562500D01*
X149673691Y-103562500D01*
X149583325Y-103586713D01*
X149583324Y-103586712D01*
X149559115Y-103593200D01*
X149559106Y-103593204D01*
X149456392Y-103652505D01*
X149456384Y-103652511D01*
X148483513Y-104625383D01*
X148483509Y-104625389D01*
X148424201Y-104728112D01*
X148424200Y-104728117D01*
X148393500Y-104842691D01*
X148393500Y-105816466D01*
X148373815Y-105883505D01*
X148321011Y-105929260D01*
X148251853Y-105939204D01*
X148222048Y-105931027D01*
X148118917Y-105888309D01*
X148118907Y-105888306D01*
X147973920Y-105859466D01*
X147973918Y-105859466D01*
X147253270Y-105859466D01*
X147186231Y-105839781D01*
X147140476Y-105786977D01*
X147130532Y-105717819D01*
X147159557Y-105654263D01*
X147167844Y-105646454D01*
X147167618Y-105646228D01*
X147203980Y-105609866D01*
X147280515Y-105533331D01*
X147356281Y-105402101D01*
X147395500Y-105255732D01*
X147395500Y-105104200D01*
X147356281Y-104957831D01*
X147280515Y-104826601D01*
X147173365Y-104719451D01*
X147071606Y-104660700D01*
X147042136Y-104643685D01*
X146968950Y-104624075D01*
X146895766Y-104604466D01*
X146744234Y-104604466D01*
X146597863Y-104643685D01*
X146466635Y-104719451D01*
X146466632Y-104719453D01*
X146359487Y-104826598D01*
X146359485Y-104826601D01*
X146283719Y-104957829D01*
X146254674Y-105066231D01*
X146244500Y-105104200D01*
X146244500Y-105255732D01*
X146254371Y-105292572D01*
X146283719Y-105402102D01*
X146305415Y-105439680D01*
X146359485Y-105533331D01*
X146466635Y-105640481D01*
X146546621Y-105686661D01*
X146594837Y-105737228D01*
X146608060Y-105805835D01*
X146582092Y-105870700D01*
X146532074Y-105908609D01*
X146444508Y-105944880D01*
X146444498Y-105944885D01*
X146321584Y-106027014D01*
X146321580Y-106027017D01*
X146217051Y-106131546D01*
X146217048Y-106131550D01*
X146134919Y-106254464D01*
X146134912Y-106254477D01*
X146078343Y-106391048D01*
X146078340Y-106391058D01*
X146049500Y-106536045D01*
X146049500Y-106536048D01*
X146049500Y-106683884D01*
X146049500Y-106683886D01*
X146049499Y-106683886D01*
X146078340Y-106828873D01*
X146078343Y-106828883D01*
X146134912Y-106965454D01*
X146134919Y-106965467D01*
X146217048Y-107088381D01*
X146217051Y-107088385D01*
X146321580Y-107192914D01*
X146321584Y-107192917D01*
X146444498Y-107275046D01*
X146444511Y-107275053D01*
X146581082Y-107331622D01*
X146581087Y-107331624D01*
X146581091Y-107331624D01*
X146581092Y-107331625D01*
X146726079Y-107360466D01*
X146726082Y-107360466D01*
X147973920Y-107360466D01*
X148072155Y-107340925D01*
X148118913Y-107331624D01*
X148222048Y-107288903D01*
X148254676Y-107285395D01*
X148287147Y-107280727D01*
X148289234Y-107281680D01*
X148291516Y-107281435D01*
X148320854Y-107296120D01*
X148350703Y-107309752D01*
X148351943Y-107311682D01*
X148353996Y-107312710D01*
X148370736Y-107340925D01*
X148388477Y-107368530D01*
X148388912Y-107371559D01*
X148389648Y-107372799D01*
X148393500Y-107403465D01*
X148393500Y-107518034D01*
X148373815Y-107585073D01*
X148357181Y-107605715D01*
X147229716Y-108733181D01*
X147168393Y-108766666D01*
X147142035Y-108769500D01*
X143958691Y-108769500D01*
X143868325Y-108793713D01*
X143868324Y-108793712D01*
X143844116Y-108800199D01*
X143844113Y-108800200D01*
X143741386Y-108859511D01*
X143741382Y-108859514D01*
X143654903Y-108945992D01*
X143606929Y-108975781D01*
X142402238Y-109382971D01*
X142362532Y-109389500D01*
X141873323Y-109389500D01*
X141800264Y-109404032D01*
X141800260Y-109404033D01*
X141717399Y-109459399D01*
X141662033Y-109542260D01*
X141662032Y-109542264D01*
X141647500Y-109615321D01*
X140980500Y-109615321D01*
X140980500Y-106683886D01*
X142119499Y-106683886D01*
X142148340Y-106828873D01*
X142148343Y-106828883D01*
X142204912Y-106965454D01*
X142204919Y-106965467D01*
X142287048Y-107088381D01*
X142287051Y-107088385D01*
X142391580Y-107192914D01*
X142391584Y-107192917D01*
X142514498Y-107275046D01*
X142514511Y-107275053D01*
X142651082Y-107331622D01*
X142651087Y-107331624D01*
X142651091Y-107331624D01*
X142651092Y-107331625D01*
X142796079Y-107360466D01*
X142796082Y-107360466D01*
X143543920Y-107360466D01*
X143642155Y-107340925D01*
X143688913Y-107331624D01*
X143810080Y-107281435D01*
X143825488Y-107275053D01*
X143825488Y-107275052D01*
X143825495Y-107275050D01*
X143948416Y-107192917D01*
X144052951Y-107088382D01*
X144135084Y-106965461D01*
X144143370Y-106945458D01*
X144170535Y-106879875D01*
X144191658Y-106828879D01*
X144220500Y-106683884D01*
X144220500Y-106536048D01*
X144220500Y-106536045D01*
X144191659Y-106391058D01*
X144191658Y-106391057D01*
X144191658Y-106391053D01*
X144191656Y-106391048D01*
X144135087Y-106254477D01*
X144135080Y-106254464D01*
X144052951Y-106131550D01*
X144052948Y-106131546D01*
X143948419Y-106027017D01*
X143948415Y-106027014D01*
X143825501Y-105944885D01*
X143825488Y-105944878D01*
X143688917Y-105888309D01*
X143688907Y-105888306D01*
X143543920Y-105859466D01*
X143543918Y-105859466D01*
X142796082Y-105859466D01*
X142796080Y-105859466D01*
X142651092Y-105888306D01*
X142651082Y-105888309D01*
X142514511Y-105944878D01*
X142514498Y-105944885D01*
X142391584Y-106027014D01*
X142391580Y-106027017D01*
X142287051Y-106131546D01*
X142287048Y-106131550D01*
X142204919Y-106254464D01*
X142204912Y-106254477D01*
X142148343Y-106391048D01*
X142148340Y-106391058D01*
X142119500Y-106536045D01*
X142119500Y-106536048D01*
X142119500Y-106683884D01*
X142119500Y-106683886D01*
X142119499Y-106683886D01*
X140980500Y-106683886D01*
X140980500Y-100970730D01*
X143050500Y-100970730D01*
X143050500Y-101629269D01*
X143053353Y-101659699D01*
X143053353Y-101659701D01*
X143098206Y-101787880D01*
X143098207Y-101787882D01*
X143178850Y-101897150D01*
X143239016Y-101941554D01*
X143250771Y-101950230D01*
X143293022Y-102005878D01*
X143298480Y-102075534D01*
X143265412Y-102137083D01*
X143250771Y-102149770D01*
X143178850Y-102202850D01*
X143098207Y-102312117D01*
X143098206Y-102312119D01*
X143053353Y-102440298D01*
X143053353Y-102440300D01*
X143050500Y-102470730D01*
X143050500Y-103129269D01*
X143053353Y-103159699D01*
X143053353Y-103159701D01*
X143097404Y-103285588D01*
X143098207Y-103287882D01*
X143178850Y-103397150D01*
X143288118Y-103477793D01*
X143301556Y-103482495D01*
X143416299Y-103522646D01*
X143446730Y-103525500D01*
X143446734Y-103525500D01*
X143955270Y-103525500D01*
X143985699Y-103522646D01*
X143985701Y-103522646D01*
X144049790Y-103500219D01*
X144113882Y-103477793D01*
X144223150Y-103397150D01*
X144303793Y-103287882D01*
X144342634Y-103176881D01*
X144348646Y-103159701D01*
X144348646Y-103159699D01*
X144351500Y-103129269D01*
X144351500Y-103100696D01*
X144355521Y-103085485D01*
X144354803Y-103072268D01*
X144367701Y-103039415D01*
X144385155Y-103008713D01*
X144456623Y-102882991D01*
X144506866Y-102834440D01*
X144515930Y-102830148D01*
X144528008Y-102825016D01*
X144597406Y-102816916D01*
X144660167Y-102847622D01*
X144696364Y-102907384D01*
X144700500Y-102939141D01*
X144700500Y-103129269D01*
X144703353Y-103159699D01*
X144703353Y-103159701D01*
X144747404Y-103285588D01*
X144748207Y-103287882D01*
X144828850Y-103397150D01*
X144938118Y-103477793D01*
X144951556Y-103482495D01*
X145066299Y-103522646D01*
X145096730Y-103525500D01*
X145096734Y-103525500D01*
X145605270Y-103525500D01*
X145635699Y-103522646D01*
X145635701Y-103522646D01*
X145699790Y-103500219D01*
X145763882Y-103477793D01*
X145873150Y-103397150D01*
X145891944Y-103371683D01*
X145892840Y-103370789D01*
X145893076Y-103370173D01*
X145918238Y-103345431D01*
X146054758Y-103245016D01*
X146096132Y-103225134D01*
X146115630Y-103219910D01*
X146163473Y-103192287D01*
X146208210Y-103176881D01*
X146396010Y-103150482D01*
X146402774Y-103149439D01*
X146403399Y-103149334D01*
X146410302Y-103148077D01*
X146419872Y-103144139D01*
X146442850Y-103137198D01*
X146484384Y-103128938D01*
X146602767Y-103079902D01*
X146709309Y-103008713D01*
X146799916Y-102918106D01*
X146871105Y-102811564D01*
X146920141Y-102693181D01*
X146945140Y-102567506D01*
X146945140Y-102439368D01*
X146945140Y-102439365D01*
X146920142Y-102313698D01*
X146920141Y-102313697D01*
X146920141Y-102313693D01*
X146871105Y-102195310D01*
X146871104Y-102195309D01*
X146871101Y-102195303D01*
X146829688Y-102133324D01*
X146808810Y-102066646D01*
X146827295Y-101999266D01*
X146829688Y-101995542D01*
X146842273Y-101976708D01*
X146903465Y-101885127D01*
X146952501Y-101766744D01*
X146973794Y-101659699D01*
X146977500Y-101641071D01*
X146977500Y-101512928D01*
X146952502Y-101387261D01*
X146952501Y-101387260D01*
X146952501Y-101387256D01*
X146910566Y-101286017D01*
X146903466Y-101268875D01*
X146903461Y-101268866D01*
X146832276Y-101162331D01*
X146832273Y-101162327D01*
X146741672Y-101071726D01*
X146741668Y-101071723D01*
X146635133Y-101000538D01*
X146635124Y-101000533D01*
X146516744Y-100951499D01*
X146516738Y-100951497D01*
X146391071Y-100926500D01*
X146391069Y-100926500D01*
X146262931Y-100926500D01*
X146262928Y-100926500D01*
X146255657Y-100927946D01*
X146237725Y-100930169D01*
X146228172Y-100930650D01*
X146224612Y-100930147D01*
X146096725Y-100937281D01*
X146096314Y-100937302D01*
X146062668Y-100929239D01*
X146028941Y-100921346D01*
X146028587Y-100921071D01*
X146028368Y-100921019D01*
X146027928Y-100920560D01*
X146000764Y-100899488D01*
X145993802Y-100892261D01*
X145983503Y-100875525D01*
X149451500Y-100875525D01*
X149451500Y-101020475D01*
X149477920Y-101119075D01*
X149489017Y-101160488D01*
X149561488Y-101286011D01*
X149561493Y-101286017D01*
X149589191Y-101313715D01*
X149622676Y-101375038D01*
X149620863Y-101428022D01*
X149622161Y-101428260D01*
X149621023Y-101434484D01*
X149618233Y-101469941D01*
X149618233Y-102346262D01*
X149618234Y-102346287D01*
X149621024Y-102381739D01*
X149665113Y-102533497D01*
X149665115Y-102533502D01*
X149745560Y-102669528D01*
X149745567Y-102669537D01*
X149857307Y-102781277D01*
X149857311Y-102781280D01*
X149857313Y-102781282D01*
X149993343Y-102861730D01*
X150145106Y-102905821D01*
X150180570Y-102908612D01*
X151556895Y-102908611D01*
X151592360Y-102905821D01*
X151744123Y-102861730D01*
X151880153Y-102781282D01*
X151991903Y-102669532D01*
X152072351Y-102533502D01*
X152116442Y-102381739D01*
X152119233Y-102346275D01*
X152119232Y-101487419D01*
X152138916Y-101420381D01*
X152162829Y-101394388D01*
X152162697Y-101394256D01*
X152165873Y-101391079D01*
X152167748Y-101389042D01*
X152168433Y-101388514D01*
X152168444Y-101388509D01*
X152270938Y-101286015D01*
X152343413Y-101160485D01*
X152368700Y-101066112D01*
X155668733Y-101066112D01*
X155679341Y-101185437D01*
X155679342Y-101185440D01*
X155735290Y-101380973D01*
X155829454Y-101561241D01*
X155957979Y-101718865D01*
X156115603Y-101847390D01*
X156295872Y-101941554D01*
X156418732Y-101976708D01*
X156418733Y-101976708D01*
X157918733Y-101976708D01*
X158041593Y-101941554D01*
X158221862Y-101847390D01*
X158379486Y-101718865D01*
X158508011Y-101561241D01*
X158529985Y-101519174D01*
X160028000Y-101519174D01*
X160028000Y-101650826D01*
X160062075Y-101777993D01*
X160127901Y-101892007D01*
X160220993Y-101985099D01*
X160335007Y-102050925D01*
X160462174Y-102085000D01*
X160593826Y-102085000D01*
X160720993Y-102050925D01*
X160835007Y-101985099D01*
X160928099Y-101892007D01*
X160993925Y-101777993D01*
X161028000Y-101650826D01*
X161028000Y-101519174D01*
X160993925Y-101392007D01*
X160928099Y-101277993D01*
X160835007Y-101184901D01*
X160720993Y-101119075D01*
X160593826Y-101085000D01*
X160462174Y-101085000D01*
X160335007Y-101119075D01*
X160220993Y-101184901D01*
X160127901Y-101277993D01*
X160062075Y-101392007D01*
X160028000Y-101519174D01*
X158529985Y-101519174D01*
X158602175Y-101380973D01*
X158658123Y-101185440D01*
X158658124Y-101185437D01*
X158668732Y-101066112D01*
X158668733Y-101066110D01*
X158668733Y-100835000D01*
X159404217Y-100835000D01*
X159778000Y-100835000D01*
X161278000Y-100835000D01*
X161651783Y-100835000D01*
X161557721Y-100705533D01*
X161407468Y-100555280D01*
X161278000Y-100461215D01*
X161278000Y-100835000D01*
X159778000Y-100835000D01*
X159778000Y-100461215D01*
X159777999Y-100461215D01*
X159648532Y-100555280D01*
X159648531Y-100555280D01*
X159498278Y-100705533D01*
X159404217Y-100835000D01*
X158668733Y-100835000D01*
X158668733Y-100358112D01*
X157918733Y-100358112D01*
X157918733Y-101976708D01*
X156418733Y-101976708D01*
X156418733Y-100358112D01*
X155668733Y-100358112D01*
X155668733Y-101066112D01*
X152368700Y-101066112D01*
X152380929Y-101020475D01*
X152380929Y-100875525D01*
X152343413Y-100735515D01*
X152277994Y-100622207D01*
X152270940Y-100609988D01*
X152270935Y-100609982D01*
X152259449Y-100598496D01*
X152225964Y-100537173D01*
X152226883Y-100480538D01*
X152257708Y-100358112D01*
X150920940Y-100358112D01*
X150888848Y-100353887D01*
X150872476Y-100349500D01*
X150872475Y-100349500D01*
X150727525Y-100349500D01*
X150727523Y-100349500D01*
X150711152Y-100353887D01*
X150679060Y-100358112D01*
X149453014Y-100358112D01*
X149502125Y-100457135D01*
X149534847Y-100497844D01*
X149561505Y-100562428D01*
X149549014Y-100631173D01*
X149545586Y-100637531D01*
X149489017Y-100735511D01*
X149489016Y-100735515D01*
X149451500Y-100875525D01*
X145983503Y-100875525D01*
X145981275Y-100871905D01*
X145980011Y-100870587D01*
X145979799Y-100869508D01*
X145966065Y-100847189D01*
X145953793Y-100812118D01*
X145873150Y-100702850D01*
X145763882Y-100622207D01*
X145763880Y-100622206D01*
X145635700Y-100577353D01*
X145605270Y-100574500D01*
X145605266Y-100574500D01*
X145096734Y-100574500D01*
X145096730Y-100574500D01*
X145066300Y-100577353D01*
X145066298Y-100577353D01*
X144938119Y-100622206D01*
X144938117Y-100622207D01*
X144828850Y-100702850D01*
X144748207Y-100812117D01*
X144748206Y-100812119D01*
X144703353Y-100940298D01*
X144703353Y-100940300D01*
X144700500Y-100970730D01*
X144700500Y-101243484D01*
X144698320Y-101250906D01*
X144699583Y-101258540D01*
X144688613Y-101283964D01*
X144680815Y-101310523D01*
X144674969Y-101315588D01*
X144671904Y-101322693D01*
X144648931Y-101338150D01*
X144628011Y-101356278D01*
X144620353Y-101357378D01*
X144613935Y-101361698D01*
X144586257Y-101362281D01*
X144558853Y-101366222D01*
X144551815Y-101363007D01*
X144544081Y-101363171D01*
X144520482Y-101348699D01*
X144495297Y-101337197D01*
X144489611Y-101329766D01*
X144484520Y-101326644D01*
X144464817Y-101297362D01*
X144363817Y-101087999D01*
X144351500Y-101034121D01*
X144351500Y-100970730D01*
X144348646Y-100940300D01*
X144348646Y-100940298D01*
X144303793Y-100812119D01*
X144303792Y-100812117D01*
X144223150Y-100702850D01*
X144113882Y-100622207D01*
X144113880Y-100622206D01*
X143985700Y-100577353D01*
X143955270Y-100574500D01*
X143955266Y-100574500D01*
X143446734Y-100574500D01*
X143446730Y-100574500D01*
X143416300Y-100577353D01*
X143416298Y-100577353D01*
X143288119Y-100622206D01*
X143288117Y-100622207D01*
X143178850Y-100702850D01*
X143098207Y-100812117D01*
X143098206Y-100812119D01*
X143053353Y-100940298D01*
X143053353Y-100940300D01*
X143050500Y-100970730D01*
X140980500Y-100970730D01*
X140980500Y-98043886D01*
X142119499Y-98043886D01*
X142148340Y-98188873D01*
X142148343Y-98188883D01*
X142204912Y-98325454D01*
X142204919Y-98325467D01*
X142287048Y-98448381D01*
X142287051Y-98448385D01*
X142391580Y-98552914D01*
X142391584Y-98552917D01*
X142514498Y-98635046D01*
X142514511Y-98635053D01*
X142651082Y-98691622D01*
X142651087Y-98691624D01*
X142651091Y-98691624D01*
X142651092Y-98691625D01*
X142796079Y-98720466D01*
X142796082Y-98720466D01*
X143543920Y-98720466D01*
X143641462Y-98701062D01*
X143688913Y-98691624D01*
X143825495Y-98635050D01*
X143948416Y-98552917D01*
X144052951Y-98448382D01*
X144135084Y-98325461D01*
X144142064Y-98308611D01*
X144161482Y-98261730D01*
X144191658Y-98188879D01*
X144215399Y-98069528D01*
X144220500Y-98043886D01*
X146049499Y-98043886D01*
X146078340Y-98188873D01*
X146078343Y-98188883D01*
X146134912Y-98325454D01*
X146134919Y-98325467D01*
X146217048Y-98448381D01*
X146217051Y-98448385D01*
X146321580Y-98552914D01*
X146321584Y-98552917D01*
X146444498Y-98635046D01*
X146444511Y-98635053D01*
X146532073Y-98671322D01*
X146586477Y-98715163D01*
X146608542Y-98781457D01*
X146591263Y-98849156D01*
X146546622Y-98893270D01*
X146466635Y-98939451D01*
X146466632Y-98939453D01*
X146359487Y-99046598D01*
X146359485Y-99046601D01*
X146283719Y-99177829D01*
X146244500Y-99324200D01*
X146244500Y-99475731D01*
X146283719Y-99622102D01*
X146321602Y-99687716D01*
X146359485Y-99753331D01*
X146466635Y-99860481D01*
X146597865Y-99936247D01*
X146744234Y-99975466D01*
X146744236Y-99975466D01*
X146895764Y-99975466D01*
X146895766Y-99975466D01*
X147042135Y-99936247D01*
X147173365Y-99860481D01*
X147280515Y-99753331D01*
X147356281Y-99622101D01*
X147395500Y-99475732D01*
X147395500Y-99324200D01*
X147356281Y-99177831D01*
X147280515Y-99046601D01*
X147173365Y-98939451D01*
X147167618Y-98933704D01*
X147169636Y-98931685D01*
X147136580Y-98886411D01*
X147132427Y-98816664D01*
X147166641Y-98755745D01*
X147228359Y-98722994D01*
X147253270Y-98720466D01*
X147973920Y-98720466D01*
X148071462Y-98701062D01*
X148118913Y-98691624D01*
X148255495Y-98635050D01*
X148378416Y-98552917D01*
X148482951Y-98448382D01*
X148565084Y-98325461D01*
X148572064Y-98308611D01*
X148591482Y-98261730D01*
X148621658Y-98188879D01*
X148629370Y-98150111D01*
X148649223Y-98050308D01*
X148681608Y-97988397D01*
X148742324Y-97953823D01*
X148770840Y-97950500D01*
X149604439Y-97950500D01*
X149671478Y-97970185D01*
X149711171Y-98011379D01*
X149745560Y-98069528D01*
X149745567Y-98069537D01*
X149857307Y-98181277D01*
X149857313Y-98181282D01*
X149905995Y-98210072D01*
X149953678Y-98261140D01*
X149966182Y-98329882D01*
X149939537Y-98394471D01*
X149897969Y-98427892D01*
X149769707Y-98491504D01*
X149621366Y-98610744D01*
X149621365Y-98610745D01*
X149502126Y-98759084D01*
X149453013Y-98858112D01*
X152284452Y-98858112D01*
X152235339Y-98759084D01*
X152116100Y-98610745D01*
X152116099Y-98610744D01*
X151967758Y-98491504D01*
X151839496Y-98427892D01*
X151788184Y-98380471D01*
X151770655Y-98312836D01*
X151792474Y-98246460D01*
X151831469Y-98210073D01*
X151880153Y-98181282D01*
X151911324Y-98150111D01*
X155668733Y-98150111D01*
X155668733Y-98858112D01*
X156418733Y-98858112D01*
X157918733Y-98858112D01*
X158668733Y-98858112D01*
X158668733Y-98150114D01*
X158668732Y-98150111D01*
X158658124Y-98030786D01*
X158658123Y-98030783D01*
X158602175Y-97835250D01*
X158508011Y-97654982D01*
X158379486Y-97497358D01*
X158221862Y-97368833D01*
X158041595Y-97274669D01*
X157918733Y-97239514D01*
X157918733Y-98858112D01*
X156418733Y-98858112D01*
X156418733Y-97239514D01*
X156295870Y-97274669D01*
X156115603Y-97368833D01*
X155957979Y-97497358D01*
X155829454Y-97654982D01*
X155735290Y-97835250D01*
X155679342Y-98030783D01*
X155679341Y-98030786D01*
X155668733Y-98150111D01*
X151911324Y-98150111D01*
X151991903Y-98069532D01*
X152072351Y-97933502D01*
X152116442Y-97781739D01*
X152119233Y-97746275D01*
X152119232Y-96869950D01*
X152116442Y-96834485D01*
X152072351Y-96682722D01*
X151991903Y-96546692D01*
X151991901Y-96546690D01*
X151991898Y-96546686D01*
X151880158Y-96434946D01*
X151880149Y-96434939D01*
X151744123Y-96354494D01*
X151744118Y-96354492D01*
X151592366Y-96310404D01*
X151592353Y-96310402D01*
X151556896Y-96307612D01*
X150180582Y-96307612D01*
X150180557Y-96307613D01*
X150145105Y-96310403D01*
X149993347Y-96354492D01*
X149993342Y-96354494D01*
X149861895Y-96432232D01*
X149798774Y-96449500D01*
X148046046Y-96449500D01*
X147901058Y-96478340D01*
X147901048Y-96478343D01*
X147764477Y-96534912D01*
X147764464Y-96534919D01*
X147641550Y-96617048D01*
X147641546Y-96617051D01*
X147075451Y-97183147D01*
X147014128Y-97216632D01*
X146987770Y-97219466D01*
X146726080Y-97219466D01*
X146581092Y-97248306D01*
X146581082Y-97248309D01*
X146444511Y-97304878D01*
X146444498Y-97304885D01*
X146321584Y-97387014D01*
X146321580Y-97387017D01*
X146217051Y-97491546D01*
X146217048Y-97491550D01*
X146134919Y-97614464D01*
X146134912Y-97614477D01*
X146078343Y-97751048D01*
X146078340Y-97751058D01*
X146049500Y-97896045D01*
X146049500Y-97896048D01*
X146049500Y-98043884D01*
X146049500Y-98043886D01*
X146049499Y-98043886D01*
X144220500Y-98043886D01*
X144220500Y-97896045D01*
X144191659Y-97751058D01*
X144191658Y-97751057D01*
X144191658Y-97751053D01*
X144189679Y-97746275D01*
X144135087Y-97614477D01*
X144135080Y-97614464D01*
X144052951Y-97491550D01*
X144052948Y-97491546D01*
X143948419Y-97387017D01*
X143948415Y-97387014D01*
X143825501Y-97304885D01*
X143825488Y-97304878D01*
X143688917Y-97248309D01*
X143688907Y-97248306D01*
X143543920Y-97219466D01*
X143543918Y-97219466D01*
X142796082Y-97219466D01*
X142796080Y-97219466D01*
X142651092Y-97248306D01*
X142651082Y-97248309D01*
X142514511Y-97304878D01*
X142514498Y-97304885D01*
X142391584Y-97387014D01*
X142391580Y-97387017D01*
X142287051Y-97491546D01*
X142287048Y-97491550D01*
X142204919Y-97614464D01*
X142204912Y-97614477D01*
X142148343Y-97751048D01*
X142148340Y-97751058D01*
X142119500Y-97896045D01*
X142119500Y-97896048D01*
X142119500Y-98043884D01*
X142119500Y-98043886D01*
X142119499Y-98043886D01*
X140980500Y-98043886D01*
X140980500Y-96146500D01*
X141000185Y-96079461D01*
X141052989Y-96033706D01*
X141104500Y-96022500D01*
X162425500Y-96022500D01*
X162492539Y-96042185D01*
G37*
G04 #@! TD.AperFunction*
G04 #@! TA.AperFunction,Conductor*
G36*
X146247294Y-101188211D02*
G01*
X146250965Y-101194621D01*
X146327036Y-101572218D01*
X146325310Y-101581005D01*
X146325281Y-101581049D01*
X146112143Y-101898605D01*
X146104687Y-101903565D01*
X146095908Y-101901800D01*
X146094771Y-101900932D01*
X146092082Y-101898605D01*
X145725191Y-101581049D01*
X145602088Y-101474499D01*
X145598075Y-101466493D01*
X145598045Y-101465652D01*
X145598045Y-101232065D01*
X145601472Y-101223792D01*
X145609091Y-101220383D01*
X146238844Y-101185250D01*
X146247294Y-101188211D01*
G37*
G04 #@! TD.AperFunction*
G04 #@! TA.AperFunction,Conductor*
G36*
X155278417Y-105705946D02*
G01*
X155278813Y-105706584D01*
X155637198Y-106329058D01*
X155638356Y-106337938D01*
X155635331Y-106343169D01*
X155365169Y-106613331D01*
X155356896Y-106616758D01*
X155351058Y-106615198D01*
X154728584Y-106256813D01*
X154723124Y-106249715D01*
X154724282Y-106240835D01*
X154724678Y-106240197D01*
X154937988Y-105919256D01*
X154941256Y-105915988D01*
X155256321Y-105706584D01*
X155262197Y-105702677D01*
X155270984Y-105700952D01*
X155278417Y-105705946D01*
G37*
G04 #@! TD.AperFunction*
G04 #@! TA.AperFunction,Conductor*
G36*
X144105824Y-101141239D02*
G01*
X144446892Y-101848242D01*
X144447400Y-101857183D01*
X144444627Y-101861599D01*
X144279134Y-102027092D01*
X144270861Y-102030519D01*
X144266599Y-102029715D01*
X143624295Y-101778498D01*
X143617839Y-101772293D01*
X143617039Y-101765545D01*
X143699173Y-101305560D01*
X143704001Y-101298020D01*
X143706159Y-101296832D01*
X144090761Y-101135532D01*
X144099716Y-101135494D01*
X144105824Y-101141239D01*
G37*
G04 #@! TD.AperFunction*
G04 #@! TA.AperFunction,Conductor*
G36*
X145701325Y-102391172D02*
G01*
X145701495Y-102391314D01*
X146009447Y-102653814D01*
X146010130Y-102654445D01*
X146176947Y-102821262D01*
X146180374Y-102829535D01*
X146176947Y-102837808D01*
X146175606Y-102838960D01*
X145729522Y-103167068D01*
X145720827Y-103169209D01*
X145714303Y-103165903D01*
X145357764Y-102808202D01*
X145354351Y-102799923D01*
X145357003Y-102792524D01*
X145684860Y-102392797D01*
X145692755Y-102388575D01*
X145701325Y-102391172D01*
G37*
G04 #@! TD.AperFunction*
G04 #@! TA.AperFunction,Conductor*
G36*
X155314842Y-106005190D02*
G01*
X156288212Y-106250341D01*
X156295397Y-106255685D01*
X156296876Y-106263720D01*
X156247434Y-106543916D01*
X156242622Y-106551468D01*
X156235765Y-106553582D01*
X155373793Y-106542769D01*
X155366955Y-106540456D01*
X155036435Y-106294498D01*
X155031844Y-106286810D01*
X155034034Y-106278127D01*
X155035140Y-106276846D01*
X155303722Y-106008264D01*
X155311994Y-106004838D01*
X155314842Y-106005190D01*
G37*
G04 #@! TD.AperFunction*
G04 #@! TA.AperFunction,Conductor*
G36*
X159829380Y-103658183D02*
G01*
X160522188Y-104119948D01*
X160527172Y-104127388D01*
X160527173Y-104131974D01*
X160364238Y-104948318D01*
X160359258Y-104955760D01*
X160351665Y-104957676D01*
X159225923Y-104851508D01*
X159218749Y-104848133D01*
X158947008Y-104576392D01*
X158943581Y-104568119D01*
X158946855Y-104560002D01*
X159814470Y-103659800D01*
X159822677Y-103656222D01*
X159829380Y-103658183D01*
G37*
G04 #@! TD.AperFunction*
G04 #@! TA.AperFunction,Conductor*
G36*
X155311459Y-107261898D02*
G01*
X155318907Y-107266869D01*
X155320658Y-107275651D01*
X155317659Y-107281438D01*
X155300000Y-107299999D01*
X155300000Y-107684674D01*
X155296573Y-107692947D01*
X155288300Y-107696374D01*
X155285216Y-107695960D01*
X154872456Y-107583180D01*
X154865379Y-107577694D01*
X154864059Y-107569642D01*
X154936741Y-107199502D01*
X154941698Y-107192045D01*
X154950473Y-107190276D01*
X155311459Y-107261898D01*
G37*
G04 #@! TD.AperFunction*
G04 #@! TA.AperFunction,Conductor*
G36*
X144297866Y-102164691D02*
G01*
X144300159Y-102166474D01*
X144465926Y-102332241D01*
X144469353Y-102340514D01*
X144467824Y-102346296D01*
X144106378Y-102982114D01*
X144099311Y-102987613D01*
X144091176Y-102986895D01*
X143706254Y-102803546D01*
X143700258Y-102796894D01*
X143699643Y-102794142D01*
X143654226Y-102335011D01*
X143656822Y-102326441D01*
X143662985Y-102322522D01*
X144289004Y-102163408D01*
X144297866Y-102164691D01*
G37*
G04 #@! TD.AperFunction*
G04 #@! TA.AperFunction,Conductor*
G36*
X145754008Y-101011615D02*
G01*
X146156732Y-101429653D01*
X146160004Y-101437988D01*
X146156579Y-101446043D01*
X145989612Y-101613010D01*
X145985708Y-101615591D01*
X145636785Y-101756052D01*
X145627831Y-101755962D01*
X145622393Y-101751233D01*
X145540727Y-101615591D01*
X145355763Y-101308379D01*
X145354432Y-101299526D01*
X145358800Y-101292962D01*
X145738599Y-101010345D01*
X145747280Y-101008156D01*
X145754008Y-101011615D01*
G37*
G04 #@! TD.AperFunction*
G04 #@! TA.AperFunction,Conductor*
G36*
X156498860Y-109161032D02*
G01*
X156502618Y-109163553D01*
X156774446Y-109435381D01*
X156777873Y-109443654D01*
X156776998Y-109448094D01*
X156285319Y-110646921D01*
X156279009Y-110653275D01*
X156272223Y-110653958D01*
X155454978Y-110492227D01*
X155447527Y-110487260D01*
X155445772Y-110483021D01*
X155438406Y-110445801D01*
X155284041Y-109665774D01*
X155285796Y-109656995D01*
X155291076Y-109652681D01*
X156489906Y-109161001D01*
X156498860Y-109161032D01*
G37*
G04 #@! TD.AperFunction*
G04 #@! TA.AperFunction,Conductor*
G36*
X148495884Y-108935665D02*
G01*
X148767730Y-109207511D01*
X148771157Y-109215784D01*
X148771123Y-109216671D01*
X148662667Y-110642676D01*
X148658623Y-110650666D01*
X148650114Y-110653455D01*
X148648730Y-110653266D01*
X147832062Y-110491650D01*
X147824611Y-110486683D01*
X147824597Y-110486662D01*
X147361885Y-109792433D01*
X147360148Y-109783648D01*
X147364573Y-109776605D01*
X148480565Y-108934597D01*
X148489232Y-108932351D01*
X148495884Y-108935665D01*
G37*
G04 #@! TD.AperFunction*
G04 #@! TA.AperFunction,Conductor*
G36*
X144231718Y-101893527D02*
G01*
X144233070Y-101894301D01*
X144553264Y-102107115D01*
X144556532Y-102110383D01*
X144675118Y-102288804D01*
X144768950Y-102429981D01*
X144770676Y-102438767D01*
X144765682Y-102446200D01*
X144763782Y-102447224D01*
X144075101Y-102739854D01*
X144066146Y-102739936D01*
X144062252Y-102737359D01*
X143896955Y-102572062D01*
X143893528Y-102563789D01*
X143894708Y-102558670D01*
X144216077Y-101898919D01*
X144222779Y-101892984D01*
X144231718Y-101893527D01*
G37*
G04 #@! TD.AperFunction*
G04 #@! TA.AperFunction,Conductor*
G36*
X159486093Y-109161000D02*
G01*
X160684921Y-109652680D01*
X160691275Y-109658990D01*
X160691958Y-109665776D01*
X160530227Y-110483021D01*
X160525260Y-110490472D01*
X160521021Y-110492227D01*
X159703776Y-110653958D01*
X159694995Y-110652203D01*
X159690680Y-110646921D01*
X159626611Y-110490707D01*
X159199001Y-109448093D01*
X159199032Y-109439139D01*
X159201550Y-109435384D01*
X159473382Y-109163552D01*
X159481654Y-109160126D01*
X159486093Y-109161000D01*
G37*
G04 #@! TD.AperFunction*
G04 #@! TA.AperFunction,Conductor*
G36*
X157123513Y-105165777D02*
G01*
X157460657Y-105367012D01*
X157466003Y-105374193D01*
X157464705Y-105383054D01*
X157462932Y-105385330D01*
X157194513Y-105653749D01*
X157186240Y-105657176D01*
X157185348Y-105657142D01*
X156227586Y-105583908D01*
X156219598Y-105579860D01*
X156216812Y-105571350D01*
X156216817Y-105571289D01*
X156243414Y-105291533D01*
X156247608Y-105283622D01*
X156253490Y-105281047D01*
X157115946Y-105164229D01*
X157123513Y-105165777D01*
G37*
G04 #@! TD.AperFunction*
G04 #@! TA.AperFunction,Conductor*
G36*
X155238417Y-104487946D02*
G01*
X155238813Y-104488584D01*
X155597198Y-105111058D01*
X155598356Y-105119938D01*
X155595331Y-105125169D01*
X155325169Y-105395331D01*
X155316896Y-105398758D01*
X155311058Y-105397198D01*
X154688584Y-105038813D01*
X154683124Y-105031715D01*
X154684282Y-105022835D01*
X154684678Y-105022197D01*
X154897988Y-104701256D01*
X154901256Y-104697988D01*
X155216321Y-104488584D01*
X155222197Y-104484677D01*
X155230984Y-104482952D01*
X155238417Y-104487946D01*
G37*
G04 #@! TD.AperFunction*
G04 #@! TA.AperFunction,Conductor*
G36*
X157123513Y-103895777D02*
G01*
X157460657Y-104097012D01*
X157466003Y-104104193D01*
X157464705Y-104113054D01*
X157462932Y-104115330D01*
X157194513Y-104383749D01*
X157186240Y-104387176D01*
X157185348Y-104387142D01*
X156227586Y-104313908D01*
X156219598Y-104309860D01*
X156216812Y-104301350D01*
X156216817Y-104301289D01*
X156243414Y-104021533D01*
X156247608Y-104013622D01*
X156253490Y-104011047D01*
X157115946Y-103894229D01*
X157123513Y-103895777D01*
G37*
G04 #@! TD.AperFunction*
G04 #@! TA.AperFunction,Conductor*
G36*
X144076233Y-101477291D02*
G01*
X144763818Y-101771015D01*
X144770079Y-101777415D01*
X144769980Y-101786369D01*
X144768965Y-101788249D01*
X144556532Y-102107870D01*
X144553264Y-102111138D01*
X144233093Y-102323937D01*
X144224306Y-102325663D01*
X144216873Y-102320669D01*
X144216092Y-102319303D01*
X143895813Y-101658449D01*
X143895290Y-101649512D01*
X143898068Y-101645078D01*
X144063369Y-101479777D01*
X144071641Y-101476351D01*
X144076233Y-101477291D01*
G37*
G04 #@! TD.AperFunction*
G04 #@! TA.AperFunction,Conductor*
G36*
X151094059Y-106555767D02*
G01*
X151097524Y-106562143D01*
X151148264Y-106837185D01*
X151149224Y-106842386D01*
X151147355Y-106851144D01*
X151140760Y-106855806D01*
X150170515Y-107117099D01*
X150161636Y-107115942D01*
X150159200Y-107114075D01*
X149890583Y-106845458D01*
X149887156Y-106837185D01*
X149890583Y-106828912D01*
X149891729Y-106827908D01*
X150216994Y-106578836D01*
X150223781Y-106576430D01*
X151085694Y-106552570D01*
X151094059Y-106555767D01*
G37*
G04 #@! TD.AperFunction*
G04 #@! TA.AperFunction,Conductor*
G36*
X145971790Y-102287699D02*
G01*
X145971991Y-102287830D01*
X146291584Y-102500735D01*
X146296569Y-102508174D01*
X146296578Y-102508218D01*
X146370295Y-102883630D01*
X146368526Y-102892408D01*
X146361068Y-102897365D01*
X146360443Y-102897470D01*
X145679971Y-102993126D01*
X145671301Y-102990884D01*
X145666756Y-102983169D01*
X145666642Y-102981540D01*
X145666642Y-102748409D01*
X145668474Y-102742123D01*
X145817487Y-102508174D01*
X145955637Y-102291280D01*
X145962971Y-102286145D01*
X145971790Y-102287699D01*
G37*
G04 #@! TD.AperFunction*
G04 #@! TA.AperFunction,Conductor*
G36*
X144267518Y-109025817D02*
G01*
X144273414Y-109032558D01*
X144274030Y-109036304D01*
X144274030Y-109417434D01*
X144272957Y-109422329D01*
X143602922Y-110877106D01*
X143596348Y-110883186D01*
X143587400Y-110882838D01*
X143587340Y-110882810D01*
X142751397Y-110492055D01*
X142745354Y-110485447D01*
X142745349Y-110485434D01*
X142443788Y-109651234D01*
X142444198Y-109642290D01*
X142450813Y-109636255D01*
X142451001Y-109636189D01*
X144258585Y-109025220D01*
X144267518Y-109025817D01*
G37*
G04 #@! TD.AperFunction*
G04 #@! TA.AperFunction,Conductor*
G36*
X155305239Y-104817449D02*
G01*
X156276109Y-104981111D01*
X156283696Y-104985865D01*
X156285753Y-104994251D01*
X156247024Y-105274187D01*
X156242495Y-105281913D01*
X156236113Y-105284264D01*
X155373905Y-105334349D01*
X155366744Y-105332409D01*
X155028337Y-105107203D01*
X155023348Y-105099767D01*
X155025079Y-105090981D01*
X155026541Y-105089195D01*
X155295023Y-104820713D01*
X155303295Y-104817287D01*
X155305239Y-104817449D01*
G37*
G04 #@! TD.AperFunction*
G04 #@! TA.AperFunction,Conductor*
G36*
X158548578Y-108891017D02*
G01*
X158551801Y-108897116D01*
X158819515Y-110312797D01*
X158817685Y-110321563D01*
X158810315Y-110326444D01*
X157992766Y-110490046D01*
X157983981Y-110488309D01*
X157983960Y-110488295D01*
X157738853Y-110324173D01*
X157291629Y-110024714D01*
X157286662Y-110017263D01*
X157288417Y-110008482D01*
X157288863Y-110007862D01*
X158142678Y-108897116D01*
X158146487Y-108892159D01*
X158154246Y-108887689D01*
X158155763Y-108887590D01*
X158540305Y-108887590D01*
X158548578Y-108891017D01*
G37*
G04 #@! TD.AperFunction*
G04 #@! TA.AperFunction,Conductor*
G36*
X155112909Y-107437856D02*
G01*
X156271797Y-107522103D01*
X156279799Y-107526120D01*
X156282617Y-107534620D01*
X156282553Y-107535262D01*
X156246876Y-107813182D01*
X156242423Y-107820951D01*
X156236578Y-107823319D01*
X155382652Y-107919342D01*
X155374048Y-107916861D01*
X155369718Y-107909022D01*
X155369649Y-107908037D01*
X155367313Y-107823319D01*
X155364421Y-107718421D01*
X155364420Y-107718420D01*
X155364420Y-107718419D01*
X155103799Y-107457799D01*
X155100372Y-107449526D01*
X155103799Y-107441253D01*
X155112072Y-107437826D01*
X155112909Y-107437856D01*
G37*
G04 #@! TD.AperFunction*
G04 #@! TA.AperFunction,Conductor*
G36*
X150315841Y-103725613D02*
G01*
X151066195Y-104002021D01*
X151072774Y-104008097D01*
X151073130Y-104017044D01*
X151067054Y-104023623D01*
X151066195Y-104023979D01*
X150315841Y-104300386D01*
X150309222Y-104300820D01*
X149929125Y-104215058D01*
X149921809Y-104209894D01*
X149920000Y-104203645D01*
X149920000Y-103822354D01*
X149923427Y-103814081D01*
X149929124Y-103810941D01*
X150309223Y-103725179D01*
X150315841Y-103725613D01*
G37*
G04 #@! TD.AperFunction*
M02*
