M48
; DRILL file {KiCad 9.0.3} date 2025-08-03T15:20:34-0400
; FORMAT={-:-/ absolute / metric / decimal}
; #@! TF.CreationDate,2025-08-03T15:20:34-04:00
; #@! TF.GenerationSoftware,Kicad,Pcbnew,9.0.3
; #@! TF.FileFunction,Plated,1,2,PTH
FMAT,2
METRIC
; #@! TA.AperFunction,Plated,PTH,ViaDrill
T1C0.300
; #@! TA.AperFunction,Plated,PTH,ViaDrill
T2C0.400
; #@! TA.AperFunction,Plated,PTH,ComponentDrill
T3C0.600
; #@! TA.AperFunction,Plated,PTH,ComponentDrill
T4C1.000
%
G90
G05
T1
X149.606Y-105.664
X150.002Y-100.948
X150.8Y-100.9
X151.83Y-100.948
X155.5Y-99.475
X155.5Y-100.1
X155.55Y-98.85
T2
X144.555Y-102.109
X146.295Y-102.503
X146.327Y-101.577
X154.9Y-104.7
X154.94Y-105.918
X154.94Y-107.188
T4
X142.748Y-110.49
X145.288Y-110.49
X147.828Y-110.49
X150.368Y-110.49
X152.908Y-110.49
X155.448Y-110.49
X157.988Y-110.49
X160.528Y-101.585
X160.528Y-104.125
X160.528Y-106.665
X160.528Y-110.49
T3
X142.87Y-97.97G85X143.47Y-97.97
G05
X142.87Y-106.61G85X143.47Y-106.61
G05
X146.8Y-97.97G85X147.9Y-97.97
G05
X146.8Y-106.61G85X147.9Y-106.61
G05
M30
