%TF.GenerationSoftware,KiCad,Pcbnew,9.0.3*%
%TF.CreationDate,2025-08-03T15:20:34-04:00*%
%TF.ProjectId,CH32V003J4M6,43483332-5630-4303-934a-344d362e6b69,rev?*%
%TF.SameCoordinates,Original*%
%TF.FileFunction,Drillmap*%
%TF.FilePolarity,Positive*%
%FSLAX45Y45*%
G04 Gerber Fmt 4.5, Leading zero omitted, Abs format (unit mm)*
G04 Created by KiCad (PCBNEW 9.0.3) date 2025-08-03 15:20:34*
%MOMM*%
%LPD*%
G01*
G04 APERTURE LIST*
%ADD10C,0.100000*%
%ADD11C,0.200000*%
G04 APERTURE END LIST*
D10*
X14097000Y-9601200D02*
X16256000Y-9601200D01*
X16256000Y-11252200D01*
X14097000Y-11252200D01*
X14097000Y-9601200D01*
D11*
D10*
X14945600Y-10551400D02*
X14975600Y-10581400D01*
X14975600Y-10551400D02*
X14945600Y-10581400D01*
X14985200Y-10079800D02*
X15015200Y-10109800D01*
X15015200Y-10079800D02*
X14985200Y-10109800D01*
X15065000Y-10075000D02*
X15095000Y-10105000D01*
X15095000Y-10075000D02*
X15065000Y-10105000D01*
X15168043Y-10079800D02*
X15198043Y-10109800D01*
X15198043Y-10079800D02*
X15168043Y-10109800D01*
X15535000Y-9932500D02*
X15565000Y-9962500D01*
X15565000Y-9932500D02*
X15535000Y-9962500D01*
X15535000Y-9995000D02*
X15565000Y-10025000D01*
X15565000Y-9995000D02*
X15535000Y-10025000D01*
X15540000Y-9870000D02*
X15570000Y-9900000D01*
X15570000Y-9870000D02*
X15540000Y-9900000D01*
X14475452Y-10210913D02*
G75*
G02*
X14435452Y-10210913I-20000J0D01*
G01*
X14435452Y-10210913D02*
G75*
G02*
X14475452Y-10210913I20000J0D01*
G01*
X14649464Y-10250344D02*
G75*
G02*
X14609464Y-10250344I-20000J0D01*
G01*
X14609464Y-10250344D02*
G75*
G02*
X14649464Y-10250344I20000J0D01*
G01*
X14652700Y-10157700D02*
G75*
G02*
X14612700Y-10157700I-20000J0D01*
G01*
X14612700Y-10157700D02*
G75*
G02*
X14652700Y-10157700I20000J0D01*
G01*
X15510000Y-10470000D02*
G75*
G02*
X15470000Y-10470000I-20000J0D01*
G01*
X15470000Y-10470000D02*
G75*
G02*
X15510000Y-10470000I20000J0D01*
G01*
X15514000Y-10591800D02*
G75*
G02*
X15474000Y-10591800I-20000J0D01*
G01*
X15474000Y-10591800D02*
G75*
G02*
X15514000Y-10591800I20000J0D01*
G01*
X15514000Y-10718800D02*
G75*
G02*
X15474000Y-10718800I-20000J0D01*
G01*
X15474000Y-10718800D02*
G75*
G02*
X15514000Y-10718800I20000J0D01*
G01*
X14317000Y-9766997D02*
X14317000Y-9826997D01*
X14287000Y-9796997D02*
X14347000Y-9796997D01*
X14287000Y-9826997D02*
X14347000Y-9826997D01*
X14347000Y-9766997D02*
G75*
G02*
X14347000Y-9826997I0J-30000D01*
G01*
X14347000Y-9766997D02*
X14287000Y-9766997D01*
X14287000Y-9766997D02*
G75*
G03*
X14287000Y-9826997I0J-30000D01*
G01*
X14317000Y-10630997D02*
X14317000Y-10690997D01*
X14287000Y-10660997D02*
X14347000Y-10660997D01*
X14287000Y-10690997D02*
X14347000Y-10690997D01*
X14347000Y-10630997D02*
G75*
G02*
X14347000Y-10690997I0J-30000D01*
G01*
X14347000Y-10630997D02*
X14287000Y-10630997D01*
X14287000Y-10630997D02*
G75*
G03*
X14287000Y-10690997I0J-30000D01*
G01*
X14735000Y-9766997D02*
X14735000Y-9826997D01*
X14705000Y-9796997D02*
X14765000Y-9796997D01*
X14680000Y-9826997D02*
X14790000Y-9826997D01*
X14790000Y-9766997D02*
G75*
G02*
X14790000Y-9826997I0J-30000D01*
G01*
X14790000Y-9766997D02*
X14680000Y-9766997D01*
X14680000Y-9766997D02*
G75*
G03*
X14680000Y-9826997I0J-30000D01*
G01*
X14735000Y-10630997D02*
X14735000Y-10690997D01*
X14705000Y-10660997D02*
X14765000Y-10660997D01*
X14680000Y-10690997D02*
X14790000Y-10690997D01*
X14790000Y-10630997D02*
G75*
G02*
X14790000Y-10690997I0J-30000D01*
G01*
X14790000Y-10630997D02*
X14680000Y-10630997D01*
X14680000Y-10630997D02*
G75*
G03*
X14680000Y-10690997I0J-30000D01*
G01*
X14310156Y-11084356D02*
X14310156Y-11013644D01*
X14239444Y-11013644D01*
X14239444Y-11084356D01*
X14310156Y-11084356D01*
X14564156Y-11084356D02*
X14564156Y-11013644D01*
X14493444Y-11013644D01*
X14493444Y-11084356D01*
X14564156Y-11084356D01*
X14818156Y-11084356D02*
X14818156Y-11013644D01*
X14747444Y-11013644D01*
X14747444Y-11084356D01*
X14818156Y-11084356D01*
X15072156Y-11084356D02*
X15072156Y-11013644D01*
X15001444Y-11013644D01*
X15001444Y-11084356D01*
X15072156Y-11084356D01*
X15326156Y-11084356D02*
X15326156Y-11013644D01*
X15255444Y-11013644D01*
X15255444Y-11084356D01*
X15326156Y-11084356D01*
X15580156Y-11084356D02*
X15580156Y-11013644D01*
X15509444Y-11013644D01*
X15509444Y-11084356D01*
X15580156Y-11084356D01*
X15834156Y-11084356D02*
X15834156Y-11013644D01*
X15763444Y-11013644D01*
X15763444Y-11084356D01*
X15834156Y-11084356D01*
X16088156Y-10193856D02*
X16088156Y-10123144D01*
X16017444Y-10123144D01*
X16017444Y-10193856D01*
X16088156Y-10193856D01*
X16088156Y-10447856D02*
X16088156Y-10377144D01*
X16017444Y-10377144D01*
X16017444Y-10447856D01*
X16088156Y-10447856D01*
X16088156Y-10701856D02*
X16088156Y-10631144D01*
X16017444Y-10631144D01*
X16017444Y-10701856D01*
X16088156Y-10701856D01*
X16088156Y-11084356D02*
X16088156Y-11013644D01*
X16017444Y-11013644D01*
X16017444Y-11084356D01*
X16088156Y-11084356D01*
D11*
X14352777Y-11568684D02*
X14352777Y-11368684D01*
X14352777Y-11368684D02*
X14400396Y-11368684D01*
X14400396Y-11368684D02*
X14428967Y-11378208D01*
X14428967Y-11378208D02*
X14448015Y-11397255D01*
X14448015Y-11397255D02*
X14457539Y-11416303D01*
X14457539Y-11416303D02*
X14467062Y-11454398D01*
X14467062Y-11454398D02*
X14467062Y-11482969D01*
X14467062Y-11482969D02*
X14457539Y-11521065D01*
X14457539Y-11521065D02*
X14448015Y-11540112D01*
X14448015Y-11540112D02*
X14428967Y-11559160D01*
X14428967Y-11559160D02*
X14400396Y-11568684D01*
X14400396Y-11568684D02*
X14352777Y-11568684D01*
X14552777Y-11568684D02*
X14552777Y-11435350D01*
X14552777Y-11473446D02*
X14562301Y-11454398D01*
X14562301Y-11454398D02*
X14571824Y-11444874D01*
X14571824Y-11444874D02*
X14590872Y-11435350D01*
X14590872Y-11435350D02*
X14609920Y-11435350D01*
X14676586Y-11568684D02*
X14676586Y-11435350D01*
X14676586Y-11368684D02*
X14667062Y-11378208D01*
X14667062Y-11378208D02*
X14676586Y-11387731D01*
X14676586Y-11387731D02*
X14686110Y-11378208D01*
X14686110Y-11378208D02*
X14676586Y-11368684D01*
X14676586Y-11368684D02*
X14676586Y-11387731D01*
X14800396Y-11568684D02*
X14781348Y-11559160D01*
X14781348Y-11559160D02*
X14771824Y-11540112D01*
X14771824Y-11540112D02*
X14771824Y-11368684D01*
X14905158Y-11568684D02*
X14886110Y-11559160D01*
X14886110Y-11559160D02*
X14876586Y-11540112D01*
X14876586Y-11540112D02*
X14876586Y-11368684D01*
X15133729Y-11568684D02*
X15133729Y-11368684D01*
X15133729Y-11368684D02*
X15200396Y-11511541D01*
X15200396Y-11511541D02*
X15267062Y-11368684D01*
X15267062Y-11368684D02*
X15267062Y-11568684D01*
X15448015Y-11568684D02*
X15448015Y-11463922D01*
X15448015Y-11463922D02*
X15438491Y-11444874D01*
X15438491Y-11444874D02*
X15419443Y-11435350D01*
X15419443Y-11435350D02*
X15381348Y-11435350D01*
X15381348Y-11435350D02*
X15362301Y-11444874D01*
X15448015Y-11559160D02*
X15428967Y-11568684D01*
X15428967Y-11568684D02*
X15381348Y-11568684D01*
X15381348Y-11568684D02*
X15362301Y-11559160D01*
X15362301Y-11559160D02*
X15352777Y-11540112D01*
X15352777Y-11540112D02*
X15352777Y-11521065D01*
X15352777Y-11521065D02*
X15362301Y-11502017D01*
X15362301Y-11502017D02*
X15381348Y-11492493D01*
X15381348Y-11492493D02*
X15428967Y-11492493D01*
X15428967Y-11492493D02*
X15448015Y-11482969D01*
X15543253Y-11435350D02*
X15543253Y-11635350D01*
X15543253Y-11444874D02*
X15562301Y-11435350D01*
X15562301Y-11435350D02*
X15600396Y-11435350D01*
X15600396Y-11435350D02*
X15619443Y-11444874D01*
X15619443Y-11444874D02*
X15628967Y-11454398D01*
X15628967Y-11454398D02*
X15638491Y-11473446D01*
X15638491Y-11473446D02*
X15638491Y-11530588D01*
X15638491Y-11530588D02*
X15628967Y-11549636D01*
X15628967Y-11549636D02*
X15619443Y-11559160D01*
X15619443Y-11559160D02*
X15600396Y-11568684D01*
X15600396Y-11568684D02*
X15562301Y-11568684D01*
X15562301Y-11568684D02*
X15543253Y-11559160D01*
X15724205Y-11549636D02*
X15733729Y-11559160D01*
X15733729Y-11559160D02*
X15724205Y-11568684D01*
X15724205Y-11568684D02*
X15714682Y-11559160D01*
X15714682Y-11559160D02*
X15724205Y-11549636D01*
X15724205Y-11549636D02*
X15724205Y-11568684D01*
X15724205Y-11444874D02*
X15733729Y-11454398D01*
X15733729Y-11454398D02*
X15724205Y-11463922D01*
X15724205Y-11463922D02*
X15714682Y-11454398D01*
X15714682Y-11454398D02*
X15724205Y-11444874D01*
X15724205Y-11444874D02*
X15724205Y-11463922D01*
D10*
X14062000Y-11882200D02*
X14092000Y-11912200D01*
X14092000Y-11882200D02*
X14062000Y-11912200D01*
D11*
X14390872Y-11788684D02*
X14409920Y-11788684D01*
X14409920Y-11788684D02*
X14428967Y-11798208D01*
X14428967Y-11798208D02*
X14438491Y-11807731D01*
X14438491Y-11807731D02*
X14448015Y-11826779D01*
X14448015Y-11826779D02*
X14457539Y-11864874D01*
X14457539Y-11864874D02*
X14457539Y-11912493D01*
X14457539Y-11912493D02*
X14448015Y-11950588D01*
X14448015Y-11950588D02*
X14438491Y-11969636D01*
X14438491Y-11969636D02*
X14428967Y-11979160D01*
X14428967Y-11979160D02*
X14409920Y-11988684D01*
X14409920Y-11988684D02*
X14390872Y-11988684D01*
X14390872Y-11988684D02*
X14371824Y-11979160D01*
X14371824Y-11979160D02*
X14362301Y-11969636D01*
X14362301Y-11969636D02*
X14352777Y-11950588D01*
X14352777Y-11950588D02*
X14343253Y-11912493D01*
X14343253Y-11912493D02*
X14343253Y-11864874D01*
X14343253Y-11864874D02*
X14352777Y-11826779D01*
X14352777Y-11826779D02*
X14362301Y-11807731D01*
X14362301Y-11807731D02*
X14371824Y-11798208D01*
X14371824Y-11798208D02*
X14390872Y-11788684D01*
X14543253Y-11969636D02*
X14552777Y-11979160D01*
X14552777Y-11979160D02*
X14543253Y-11988684D01*
X14543253Y-11988684D02*
X14533729Y-11979160D01*
X14533729Y-11979160D02*
X14543253Y-11969636D01*
X14543253Y-11969636D02*
X14543253Y-11988684D01*
X14619443Y-11788684D02*
X14743253Y-11788684D01*
X14743253Y-11788684D02*
X14676586Y-11864874D01*
X14676586Y-11864874D02*
X14705158Y-11864874D01*
X14705158Y-11864874D02*
X14724205Y-11874398D01*
X14724205Y-11874398D02*
X14733729Y-11883922D01*
X14733729Y-11883922D02*
X14743253Y-11902969D01*
X14743253Y-11902969D02*
X14743253Y-11950588D01*
X14743253Y-11950588D02*
X14733729Y-11969636D01*
X14733729Y-11969636D02*
X14724205Y-11979160D01*
X14724205Y-11979160D02*
X14705158Y-11988684D01*
X14705158Y-11988684D02*
X14648015Y-11988684D01*
X14648015Y-11988684D02*
X14628967Y-11979160D01*
X14628967Y-11979160D02*
X14619443Y-11969636D01*
X14867062Y-11788684D02*
X14886110Y-11788684D01*
X14886110Y-11788684D02*
X14905158Y-11798208D01*
X14905158Y-11798208D02*
X14914682Y-11807731D01*
X14914682Y-11807731D02*
X14924205Y-11826779D01*
X14924205Y-11826779D02*
X14933729Y-11864874D01*
X14933729Y-11864874D02*
X14933729Y-11912493D01*
X14933729Y-11912493D02*
X14924205Y-11950588D01*
X14924205Y-11950588D02*
X14914682Y-11969636D01*
X14914682Y-11969636D02*
X14905158Y-11979160D01*
X14905158Y-11979160D02*
X14886110Y-11988684D01*
X14886110Y-11988684D02*
X14867062Y-11988684D01*
X14867062Y-11988684D02*
X14848015Y-11979160D01*
X14848015Y-11979160D02*
X14838491Y-11969636D01*
X14838491Y-11969636D02*
X14828967Y-11950588D01*
X14828967Y-11950588D02*
X14819443Y-11912493D01*
X14819443Y-11912493D02*
X14819443Y-11864874D01*
X14819443Y-11864874D02*
X14828967Y-11826779D01*
X14828967Y-11826779D02*
X14838491Y-11807731D01*
X14838491Y-11807731D02*
X14848015Y-11798208D01*
X14848015Y-11798208D02*
X14867062Y-11788684D01*
X15057539Y-11788684D02*
X15076586Y-11788684D01*
X15076586Y-11788684D02*
X15095634Y-11798208D01*
X15095634Y-11798208D02*
X15105158Y-11807731D01*
X15105158Y-11807731D02*
X15114682Y-11826779D01*
X15114682Y-11826779D02*
X15124205Y-11864874D01*
X15124205Y-11864874D02*
X15124205Y-11912493D01*
X15124205Y-11912493D02*
X15114682Y-11950588D01*
X15114682Y-11950588D02*
X15105158Y-11969636D01*
X15105158Y-11969636D02*
X15095634Y-11979160D01*
X15095634Y-11979160D02*
X15076586Y-11988684D01*
X15076586Y-11988684D02*
X15057539Y-11988684D01*
X15057539Y-11988684D02*
X15038491Y-11979160D01*
X15038491Y-11979160D02*
X15028967Y-11969636D01*
X15028967Y-11969636D02*
X15019443Y-11950588D01*
X15019443Y-11950588D02*
X15009920Y-11912493D01*
X15009920Y-11912493D02*
X15009920Y-11864874D01*
X15009920Y-11864874D02*
X15019443Y-11826779D01*
X15019443Y-11826779D02*
X15028967Y-11807731D01*
X15028967Y-11807731D02*
X15038491Y-11798208D01*
X15038491Y-11798208D02*
X15057539Y-11788684D01*
X15209920Y-11988684D02*
X15209920Y-11855350D01*
X15209920Y-11874398D02*
X15219443Y-11864874D01*
X15219443Y-11864874D02*
X15238491Y-11855350D01*
X15238491Y-11855350D02*
X15267063Y-11855350D01*
X15267063Y-11855350D02*
X15286110Y-11864874D01*
X15286110Y-11864874D02*
X15295634Y-11883922D01*
X15295634Y-11883922D02*
X15295634Y-11988684D01*
X15295634Y-11883922D02*
X15305158Y-11864874D01*
X15305158Y-11864874D02*
X15324205Y-11855350D01*
X15324205Y-11855350D02*
X15352777Y-11855350D01*
X15352777Y-11855350D02*
X15371824Y-11864874D01*
X15371824Y-11864874D02*
X15381348Y-11883922D01*
X15381348Y-11883922D02*
X15381348Y-11988684D01*
X15476586Y-11988684D02*
X15476586Y-11855350D01*
X15476586Y-11874398D02*
X15486110Y-11864874D01*
X15486110Y-11864874D02*
X15505158Y-11855350D01*
X15505158Y-11855350D02*
X15533729Y-11855350D01*
X15533729Y-11855350D02*
X15552777Y-11864874D01*
X15552777Y-11864874D02*
X15562301Y-11883922D01*
X15562301Y-11883922D02*
X15562301Y-11988684D01*
X15562301Y-11883922D02*
X15571824Y-11864874D01*
X15571824Y-11864874D02*
X15590872Y-11855350D01*
X15590872Y-11855350D02*
X15619443Y-11855350D01*
X15619443Y-11855350D02*
X15638491Y-11864874D01*
X15638491Y-11864874D02*
X15648015Y-11883922D01*
X15648015Y-11883922D02*
X15648015Y-11988684D01*
X16038491Y-11779160D02*
X15867063Y-12036303D01*
X16295634Y-11788684D02*
X16314682Y-11788684D01*
X16314682Y-11788684D02*
X16333729Y-11798208D01*
X16333729Y-11798208D02*
X16343253Y-11807731D01*
X16343253Y-11807731D02*
X16352777Y-11826779D01*
X16352777Y-11826779D02*
X16362301Y-11864874D01*
X16362301Y-11864874D02*
X16362301Y-11912493D01*
X16362301Y-11912493D02*
X16352777Y-11950588D01*
X16352777Y-11950588D02*
X16343253Y-11969636D01*
X16343253Y-11969636D02*
X16333729Y-11979160D01*
X16333729Y-11979160D02*
X16314682Y-11988684D01*
X16314682Y-11988684D02*
X16295634Y-11988684D01*
X16295634Y-11988684D02*
X16276586Y-11979160D01*
X16276586Y-11979160D02*
X16267063Y-11969636D01*
X16267063Y-11969636D02*
X16257539Y-11950588D01*
X16257539Y-11950588D02*
X16248015Y-11912493D01*
X16248015Y-11912493D02*
X16248015Y-11864874D01*
X16248015Y-11864874D02*
X16257539Y-11826779D01*
X16257539Y-11826779D02*
X16267063Y-11807731D01*
X16267063Y-11807731D02*
X16276586Y-11798208D01*
X16276586Y-11798208D02*
X16295634Y-11788684D01*
X16448015Y-11969636D02*
X16457539Y-11979160D01*
X16457539Y-11979160D02*
X16448015Y-11988684D01*
X16448015Y-11988684D02*
X16438491Y-11979160D01*
X16438491Y-11979160D02*
X16448015Y-11969636D01*
X16448015Y-11969636D02*
X16448015Y-11988684D01*
X16581348Y-11788684D02*
X16600396Y-11788684D01*
X16600396Y-11788684D02*
X16619444Y-11798208D01*
X16619444Y-11798208D02*
X16628967Y-11807731D01*
X16628967Y-11807731D02*
X16638491Y-11826779D01*
X16638491Y-11826779D02*
X16648015Y-11864874D01*
X16648015Y-11864874D02*
X16648015Y-11912493D01*
X16648015Y-11912493D02*
X16638491Y-11950588D01*
X16638491Y-11950588D02*
X16628967Y-11969636D01*
X16628967Y-11969636D02*
X16619444Y-11979160D01*
X16619444Y-11979160D02*
X16600396Y-11988684D01*
X16600396Y-11988684D02*
X16581348Y-11988684D01*
X16581348Y-11988684D02*
X16562301Y-11979160D01*
X16562301Y-11979160D02*
X16552777Y-11969636D01*
X16552777Y-11969636D02*
X16543253Y-11950588D01*
X16543253Y-11950588D02*
X16533729Y-11912493D01*
X16533729Y-11912493D02*
X16533729Y-11864874D01*
X16533729Y-11864874D02*
X16543253Y-11826779D01*
X16543253Y-11826779D02*
X16552777Y-11807731D01*
X16552777Y-11807731D02*
X16562301Y-11798208D01*
X16562301Y-11798208D02*
X16581348Y-11788684D01*
X16838491Y-11988684D02*
X16724206Y-11988684D01*
X16781348Y-11988684D02*
X16781348Y-11788684D01*
X16781348Y-11788684D02*
X16762301Y-11817255D01*
X16762301Y-11817255D02*
X16743253Y-11836303D01*
X16743253Y-11836303D02*
X16724206Y-11845827D01*
X17028968Y-11988684D02*
X16914682Y-11988684D01*
X16971825Y-11988684D02*
X16971825Y-11788684D01*
X16971825Y-11788684D02*
X16952777Y-11817255D01*
X16952777Y-11817255D02*
X16933729Y-11836303D01*
X16933729Y-11836303D02*
X16914682Y-11845827D01*
X17143253Y-11874398D02*
X17124206Y-11864874D01*
X17124206Y-11864874D02*
X17114682Y-11855350D01*
X17114682Y-11855350D02*
X17105158Y-11836303D01*
X17105158Y-11836303D02*
X17105158Y-11826779D01*
X17105158Y-11826779D02*
X17114682Y-11807731D01*
X17114682Y-11807731D02*
X17124206Y-11798208D01*
X17124206Y-11798208D02*
X17143253Y-11788684D01*
X17143253Y-11788684D02*
X17181349Y-11788684D01*
X17181349Y-11788684D02*
X17200396Y-11798208D01*
X17200396Y-11798208D02*
X17209920Y-11807731D01*
X17209920Y-11807731D02*
X17219444Y-11826779D01*
X17219444Y-11826779D02*
X17219444Y-11836303D01*
X17219444Y-11836303D02*
X17209920Y-11855350D01*
X17209920Y-11855350D02*
X17200396Y-11864874D01*
X17200396Y-11864874D02*
X17181349Y-11874398D01*
X17181349Y-11874398D02*
X17143253Y-11874398D01*
X17143253Y-11874398D02*
X17124206Y-11883922D01*
X17124206Y-11883922D02*
X17114682Y-11893446D01*
X17114682Y-11893446D02*
X17105158Y-11912493D01*
X17105158Y-11912493D02*
X17105158Y-11950588D01*
X17105158Y-11950588D02*
X17114682Y-11969636D01*
X17114682Y-11969636D02*
X17124206Y-11979160D01*
X17124206Y-11979160D02*
X17143253Y-11988684D01*
X17143253Y-11988684D02*
X17181349Y-11988684D01*
X17181349Y-11988684D02*
X17200396Y-11979160D01*
X17200396Y-11979160D02*
X17209920Y-11969636D01*
X17209920Y-11969636D02*
X17219444Y-11950588D01*
X17219444Y-11950588D02*
X17219444Y-11912493D01*
X17219444Y-11912493D02*
X17209920Y-11893446D01*
X17209920Y-11893446D02*
X17200396Y-11883922D01*
X17200396Y-11883922D02*
X17181349Y-11874398D01*
X17295634Y-11788684D02*
X17295634Y-11826779D01*
X17371825Y-11788684D02*
X17371825Y-11826779D01*
X17667063Y-12064874D02*
X17657539Y-12055350D01*
X17657539Y-12055350D02*
X17638491Y-12026779D01*
X17638491Y-12026779D02*
X17628968Y-12007731D01*
X17628968Y-12007731D02*
X17619444Y-11979160D01*
X17619444Y-11979160D02*
X17609920Y-11931541D01*
X17609920Y-11931541D02*
X17609920Y-11893446D01*
X17609920Y-11893446D02*
X17619444Y-11845827D01*
X17619444Y-11845827D02*
X17628968Y-11817255D01*
X17628968Y-11817255D02*
X17638491Y-11798208D01*
X17638491Y-11798208D02*
X17657539Y-11769636D01*
X17657539Y-11769636D02*
X17667063Y-11760112D01*
X17724206Y-11788684D02*
X17857539Y-11788684D01*
X17857539Y-11788684D02*
X17771825Y-11988684D01*
X18086111Y-11988684D02*
X18086111Y-11788684D01*
X18171825Y-11988684D02*
X18171825Y-11883922D01*
X18171825Y-11883922D02*
X18162301Y-11864874D01*
X18162301Y-11864874D02*
X18143253Y-11855350D01*
X18143253Y-11855350D02*
X18114682Y-11855350D01*
X18114682Y-11855350D02*
X18095634Y-11864874D01*
X18095634Y-11864874D02*
X18086111Y-11874398D01*
X18295634Y-11988684D02*
X18276587Y-11979160D01*
X18276587Y-11979160D02*
X18267063Y-11969636D01*
X18267063Y-11969636D02*
X18257539Y-11950588D01*
X18257539Y-11950588D02*
X18257539Y-11893446D01*
X18257539Y-11893446D02*
X18267063Y-11874398D01*
X18267063Y-11874398D02*
X18276587Y-11864874D01*
X18276587Y-11864874D02*
X18295634Y-11855350D01*
X18295634Y-11855350D02*
X18324206Y-11855350D01*
X18324206Y-11855350D02*
X18343253Y-11864874D01*
X18343253Y-11864874D02*
X18352777Y-11874398D01*
X18352777Y-11874398D02*
X18362301Y-11893446D01*
X18362301Y-11893446D02*
X18362301Y-11950588D01*
X18362301Y-11950588D02*
X18352777Y-11969636D01*
X18352777Y-11969636D02*
X18343253Y-11979160D01*
X18343253Y-11979160D02*
X18324206Y-11988684D01*
X18324206Y-11988684D02*
X18295634Y-11988684D01*
X18476587Y-11988684D02*
X18457539Y-11979160D01*
X18457539Y-11979160D02*
X18448015Y-11960112D01*
X18448015Y-11960112D02*
X18448015Y-11788684D01*
X18628968Y-11979160D02*
X18609920Y-11988684D01*
X18609920Y-11988684D02*
X18571825Y-11988684D01*
X18571825Y-11988684D02*
X18552777Y-11979160D01*
X18552777Y-11979160D02*
X18543253Y-11960112D01*
X18543253Y-11960112D02*
X18543253Y-11883922D01*
X18543253Y-11883922D02*
X18552777Y-11864874D01*
X18552777Y-11864874D02*
X18571825Y-11855350D01*
X18571825Y-11855350D02*
X18609920Y-11855350D01*
X18609920Y-11855350D02*
X18628968Y-11864874D01*
X18628968Y-11864874D02*
X18638492Y-11883922D01*
X18638492Y-11883922D02*
X18638492Y-11902969D01*
X18638492Y-11902969D02*
X18543253Y-11922017D01*
X18714682Y-11979160D02*
X18733730Y-11988684D01*
X18733730Y-11988684D02*
X18771825Y-11988684D01*
X18771825Y-11988684D02*
X18790873Y-11979160D01*
X18790873Y-11979160D02*
X18800396Y-11960112D01*
X18800396Y-11960112D02*
X18800396Y-11950588D01*
X18800396Y-11950588D02*
X18790873Y-11931541D01*
X18790873Y-11931541D02*
X18771825Y-11922017D01*
X18771825Y-11922017D02*
X18743253Y-11922017D01*
X18743253Y-11922017D02*
X18724206Y-11912493D01*
X18724206Y-11912493D02*
X18714682Y-11893446D01*
X18714682Y-11893446D02*
X18714682Y-11883922D01*
X18714682Y-11883922D02*
X18724206Y-11864874D01*
X18724206Y-11864874D02*
X18743253Y-11855350D01*
X18743253Y-11855350D02*
X18771825Y-11855350D01*
X18771825Y-11855350D02*
X18790873Y-11864874D01*
X18867063Y-12064874D02*
X18876587Y-12055350D01*
X18876587Y-12055350D02*
X18895634Y-12026779D01*
X18895634Y-12026779D02*
X18905158Y-12007731D01*
X18905158Y-12007731D02*
X18914682Y-11979160D01*
X18914682Y-11979160D02*
X18924206Y-11931541D01*
X18924206Y-11931541D02*
X18924206Y-11893446D01*
X18924206Y-11893446D02*
X18914682Y-11845827D01*
X18914682Y-11845827D02*
X18905158Y-11817255D01*
X18905158Y-11817255D02*
X18895634Y-11798208D01*
X18895634Y-11798208D02*
X18876587Y-11769636D01*
X18876587Y-11769636D02*
X18867063Y-11760112D01*
D10*
X14092000Y-12161200D02*
G75*
G02*
X14052000Y-12161200I-20000J0D01*
G01*
X14052000Y-12161200D02*
G75*
G02*
X14092000Y-12161200I20000J0D01*
G01*
D11*
X14390872Y-12052684D02*
X14409920Y-12052684D01*
X14409920Y-12052684D02*
X14428967Y-12062208D01*
X14428967Y-12062208D02*
X14438491Y-12071731D01*
X14438491Y-12071731D02*
X14448015Y-12090779D01*
X14448015Y-12090779D02*
X14457539Y-12128874D01*
X14457539Y-12128874D02*
X14457539Y-12176493D01*
X14457539Y-12176493D02*
X14448015Y-12214588D01*
X14448015Y-12214588D02*
X14438491Y-12233636D01*
X14438491Y-12233636D02*
X14428967Y-12243160D01*
X14428967Y-12243160D02*
X14409920Y-12252684D01*
X14409920Y-12252684D02*
X14390872Y-12252684D01*
X14390872Y-12252684D02*
X14371824Y-12243160D01*
X14371824Y-12243160D02*
X14362301Y-12233636D01*
X14362301Y-12233636D02*
X14352777Y-12214588D01*
X14352777Y-12214588D02*
X14343253Y-12176493D01*
X14343253Y-12176493D02*
X14343253Y-12128874D01*
X14343253Y-12128874D02*
X14352777Y-12090779D01*
X14352777Y-12090779D02*
X14362301Y-12071731D01*
X14362301Y-12071731D02*
X14371824Y-12062208D01*
X14371824Y-12062208D02*
X14390872Y-12052684D01*
X14543253Y-12233636D02*
X14552777Y-12243160D01*
X14552777Y-12243160D02*
X14543253Y-12252684D01*
X14543253Y-12252684D02*
X14533729Y-12243160D01*
X14533729Y-12243160D02*
X14543253Y-12233636D01*
X14543253Y-12233636D02*
X14543253Y-12252684D01*
X14724205Y-12119350D02*
X14724205Y-12252684D01*
X14676586Y-12043160D02*
X14628967Y-12186017D01*
X14628967Y-12186017D02*
X14752777Y-12186017D01*
X14867062Y-12052684D02*
X14886110Y-12052684D01*
X14886110Y-12052684D02*
X14905158Y-12062208D01*
X14905158Y-12062208D02*
X14914682Y-12071731D01*
X14914682Y-12071731D02*
X14924205Y-12090779D01*
X14924205Y-12090779D02*
X14933729Y-12128874D01*
X14933729Y-12128874D02*
X14933729Y-12176493D01*
X14933729Y-12176493D02*
X14924205Y-12214588D01*
X14924205Y-12214588D02*
X14914682Y-12233636D01*
X14914682Y-12233636D02*
X14905158Y-12243160D01*
X14905158Y-12243160D02*
X14886110Y-12252684D01*
X14886110Y-12252684D02*
X14867062Y-12252684D01*
X14867062Y-12252684D02*
X14848015Y-12243160D01*
X14848015Y-12243160D02*
X14838491Y-12233636D01*
X14838491Y-12233636D02*
X14828967Y-12214588D01*
X14828967Y-12214588D02*
X14819443Y-12176493D01*
X14819443Y-12176493D02*
X14819443Y-12128874D01*
X14819443Y-12128874D02*
X14828967Y-12090779D01*
X14828967Y-12090779D02*
X14838491Y-12071731D01*
X14838491Y-12071731D02*
X14848015Y-12062208D01*
X14848015Y-12062208D02*
X14867062Y-12052684D01*
X15057539Y-12052684D02*
X15076586Y-12052684D01*
X15076586Y-12052684D02*
X15095634Y-12062208D01*
X15095634Y-12062208D02*
X15105158Y-12071731D01*
X15105158Y-12071731D02*
X15114682Y-12090779D01*
X15114682Y-12090779D02*
X15124205Y-12128874D01*
X15124205Y-12128874D02*
X15124205Y-12176493D01*
X15124205Y-12176493D02*
X15114682Y-12214588D01*
X15114682Y-12214588D02*
X15105158Y-12233636D01*
X15105158Y-12233636D02*
X15095634Y-12243160D01*
X15095634Y-12243160D02*
X15076586Y-12252684D01*
X15076586Y-12252684D02*
X15057539Y-12252684D01*
X15057539Y-12252684D02*
X15038491Y-12243160D01*
X15038491Y-12243160D02*
X15028967Y-12233636D01*
X15028967Y-12233636D02*
X15019443Y-12214588D01*
X15019443Y-12214588D02*
X15009920Y-12176493D01*
X15009920Y-12176493D02*
X15009920Y-12128874D01*
X15009920Y-12128874D02*
X15019443Y-12090779D01*
X15019443Y-12090779D02*
X15028967Y-12071731D01*
X15028967Y-12071731D02*
X15038491Y-12062208D01*
X15038491Y-12062208D02*
X15057539Y-12052684D01*
X15209920Y-12252684D02*
X15209920Y-12119350D01*
X15209920Y-12138398D02*
X15219443Y-12128874D01*
X15219443Y-12128874D02*
X15238491Y-12119350D01*
X15238491Y-12119350D02*
X15267063Y-12119350D01*
X15267063Y-12119350D02*
X15286110Y-12128874D01*
X15286110Y-12128874D02*
X15295634Y-12147922D01*
X15295634Y-12147922D02*
X15295634Y-12252684D01*
X15295634Y-12147922D02*
X15305158Y-12128874D01*
X15305158Y-12128874D02*
X15324205Y-12119350D01*
X15324205Y-12119350D02*
X15352777Y-12119350D01*
X15352777Y-12119350D02*
X15371824Y-12128874D01*
X15371824Y-12128874D02*
X15381348Y-12147922D01*
X15381348Y-12147922D02*
X15381348Y-12252684D01*
X15476586Y-12252684D02*
X15476586Y-12119350D01*
X15476586Y-12138398D02*
X15486110Y-12128874D01*
X15486110Y-12128874D02*
X15505158Y-12119350D01*
X15505158Y-12119350D02*
X15533729Y-12119350D01*
X15533729Y-12119350D02*
X15552777Y-12128874D01*
X15552777Y-12128874D02*
X15562301Y-12147922D01*
X15562301Y-12147922D02*
X15562301Y-12252684D01*
X15562301Y-12147922D02*
X15571824Y-12128874D01*
X15571824Y-12128874D02*
X15590872Y-12119350D01*
X15590872Y-12119350D02*
X15619443Y-12119350D01*
X15619443Y-12119350D02*
X15638491Y-12128874D01*
X15638491Y-12128874D02*
X15648015Y-12147922D01*
X15648015Y-12147922D02*
X15648015Y-12252684D01*
X16038491Y-12043160D02*
X15867063Y-12300303D01*
X16295634Y-12052684D02*
X16314682Y-12052684D01*
X16314682Y-12052684D02*
X16333729Y-12062208D01*
X16333729Y-12062208D02*
X16343253Y-12071731D01*
X16343253Y-12071731D02*
X16352777Y-12090779D01*
X16352777Y-12090779D02*
X16362301Y-12128874D01*
X16362301Y-12128874D02*
X16362301Y-12176493D01*
X16362301Y-12176493D02*
X16352777Y-12214588D01*
X16352777Y-12214588D02*
X16343253Y-12233636D01*
X16343253Y-12233636D02*
X16333729Y-12243160D01*
X16333729Y-12243160D02*
X16314682Y-12252684D01*
X16314682Y-12252684D02*
X16295634Y-12252684D01*
X16295634Y-12252684D02*
X16276586Y-12243160D01*
X16276586Y-12243160D02*
X16267063Y-12233636D01*
X16267063Y-12233636D02*
X16257539Y-12214588D01*
X16257539Y-12214588D02*
X16248015Y-12176493D01*
X16248015Y-12176493D02*
X16248015Y-12128874D01*
X16248015Y-12128874D02*
X16257539Y-12090779D01*
X16257539Y-12090779D02*
X16267063Y-12071731D01*
X16267063Y-12071731D02*
X16276586Y-12062208D01*
X16276586Y-12062208D02*
X16295634Y-12052684D01*
X16448015Y-12233636D02*
X16457539Y-12243160D01*
X16457539Y-12243160D02*
X16448015Y-12252684D01*
X16448015Y-12252684D02*
X16438491Y-12243160D01*
X16438491Y-12243160D02*
X16448015Y-12233636D01*
X16448015Y-12233636D02*
X16448015Y-12252684D01*
X16581348Y-12052684D02*
X16600396Y-12052684D01*
X16600396Y-12052684D02*
X16619444Y-12062208D01*
X16619444Y-12062208D02*
X16628967Y-12071731D01*
X16628967Y-12071731D02*
X16638491Y-12090779D01*
X16638491Y-12090779D02*
X16648015Y-12128874D01*
X16648015Y-12128874D02*
X16648015Y-12176493D01*
X16648015Y-12176493D02*
X16638491Y-12214588D01*
X16638491Y-12214588D02*
X16628967Y-12233636D01*
X16628967Y-12233636D02*
X16619444Y-12243160D01*
X16619444Y-12243160D02*
X16600396Y-12252684D01*
X16600396Y-12252684D02*
X16581348Y-12252684D01*
X16581348Y-12252684D02*
X16562301Y-12243160D01*
X16562301Y-12243160D02*
X16552777Y-12233636D01*
X16552777Y-12233636D02*
X16543253Y-12214588D01*
X16543253Y-12214588D02*
X16533729Y-12176493D01*
X16533729Y-12176493D02*
X16533729Y-12128874D01*
X16533729Y-12128874D02*
X16543253Y-12090779D01*
X16543253Y-12090779D02*
X16552777Y-12071731D01*
X16552777Y-12071731D02*
X16562301Y-12062208D01*
X16562301Y-12062208D02*
X16581348Y-12052684D01*
X16838491Y-12252684D02*
X16724206Y-12252684D01*
X16781348Y-12252684D02*
X16781348Y-12052684D01*
X16781348Y-12052684D02*
X16762301Y-12081255D01*
X16762301Y-12081255D02*
X16743253Y-12100303D01*
X16743253Y-12100303D02*
X16724206Y-12109827D01*
X17019444Y-12052684D02*
X16924206Y-12052684D01*
X16924206Y-12052684D02*
X16914682Y-12147922D01*
X16914682Y-12147922D02*
X16924206Y-12138398D01*
X16924206Y-12138398D02*
X16943253Y-12128874D01*
X16943253Y-12128874D02*
X16990872Y-12128874D01*
X16990872Y-12128874D02*
X17009920Y-12138398D01*
X17009920Y-12138398D02*
X17019444Y-12147922D01*
X17019444Y-12147922D02*
X17028968Y-12166969D01*
X17028968Y-12166969D02*
X17028968Y-12214588D01*
X17028968Y-12214588D02*
X17019444Y-12233636D01*
X17019444Y-12233636D02*
X17009920Y-12243160D01*
X17009920Y-12243160D02*
X16990872Y-12252684D01*
X16990872Y-12252684D02*
X16943253Y-12252684D01*
X16943253Y-12252684D02*
X16924206Y-12243160D01*
X16924206Y-12243160D02*
X16914682Y-12233636D01*
X17095634Y-12052684D02*
X17228968Y-12052684D01*
X17228968Y-12052684D02*
X17143253Y-12252684D01*
X17295634Y-12052684D02*
X17295634Y-12090779D01*
X17371825Y-12052684D02*
X17371825Y-12090779D01*
X17667063Y-12328874D02*
X17657539Y-12319350D01*
X17657539Y-12319350D02*
X17638491Y-12290779D01*
X17638491Y-12290779D02*
X17628968Y-12271731D01*
X17628968Y-12271731D02*
X17619444Y-12243160D01*
X17619444Y-12243160D02*
X17609920Y-12195541D01*
X17609920Y-12195541D02*
X17609920Y-12157446D01*
X17609920Y-12157446D02*
X17619444Y-12109827D01*
X17619444Y-12109827D02*
X17628968Y-12081255D01*
X17628968Y-12081255D02*
X17638491Y-12062208D01*
X17638491Y-12062208D02*
X17657539Y-12033636D01*
X17657539Y-12033636D02*
X17667063Y-12024112D01*
X17828968Y-12052684D02*
X17790872Y-12052684D01*
X17790872Y-12052684D02*
X17771825Y-12062208D01*
X17771825Y-12062208D02*
X17762301Y-12071731D01*
X17762301Y-12071731D02*
X17743253Y-12100303D01*
X17743253Y-12100303D02*
X17733730Y-12138398D01*
X17733730Y-12138398D02*
X17733730Y-12214588D01*
X17733730Y-12214588D02*
X17743253Y-12233636D01*
X17743253Y-12233636D02*
X17752777Y-12243160D01*
X17752777Y-12243160D02*
X17771825Y-12252684D01*
X17771825Y-12252684D02*
X17809920Y-12252684D01*
X17809920Y-12252684D02*
X17828968Y-12243160D01*
X17828968Y-12243160D02*
X17838491Y-12233636D01*
X17838491Y-12233636D02*
X17848015Y-12214588D01*
X17848015Y-12214588D02*
X17848015Y-12166969D01*
X17848015Y-12166969D02*
X17838491Y-12147922D01*
X17838491Y-12147922D02*
X17828968Y-12138398D01*
X17828968Y-12138398D02*
X17809920Y-12128874D01*
X17809920Y-12128874D02*
X17771825Y-12128874D01*
X17771825Y-12128874D02*
X17752777Y-12138398D01*
X17752777Y-12138398D02*
X17743253Y-12147922D01*
X17743253Y-12147922D02*
X17733730Y-12166969D01*
X18086111Y-12252684D02*
X18086111Y-12052684D01*
X18171825Y-12252684D02*
X18171825Y-12147922D01*
X18171825Y-12147922D02*
X18162301Y-12128874D01*
X18162301Y-12128874D02*
X18143253Y-12119350D01*
X18143253Y-12119350D02*
X18114682Y-12119350D01*
X18114682Y-12119350D02*
X18095634Y-12128874D01*
X18095634Y-12128874D02*
X18086111Y-12138398D01*
X18295634Y-12252684D02*
X18276587Y-12243160D01*
X18276587Y-12243160D02*
X18267063Y-12233636D01*
X18267063Y-12233636D02*
X18257539Y-12214588D01*
X18257539Y-12214588D02*
X18257539Y-12157446D01*
X18257539Y-12157446D02*
X18267063Y-12138398D01*
X18267063Y-12138398D02*
X18276587Y-12128874D01*
X18276587Y-12128874D02*
X18295634Y-12119350D01*
X18295634Y-12119350D02*
X18324206Y-12119350D01*
X18324206Y-12119350D02*
X18343253Y-12128874D01*
X18343253Y-12128874D02*
X18352777Y-12138398D01*
X18352777Y-12138398D02*
X18362301Y-12157446D01*
X18362301Y-12157446D02*
X18362301Y-12214588D01*
X18362301Y-12214588D02*
X18352777Y-12233636D01*
X18352777Y-12233636D02*
X18343253Y-12243160D01*
X18343253Y-12243160D02*
X18324206Y-12252684D01*
X18324206Y-12252684D02*
X18295634Y-12252684D01*
X18476587Y-12252684D02*
X18457539Y-12243160D01*
X18457539Y-12243160D02*
X18448015Y-12224112D01*
X18448015Y-12224112D02*
X18448015Y-12052684D01*
X18628968Y-12243160D02*
X18609920Y-12252684D01*
X18609920Y-12252684D02*
X18571825Y-12252684D01*
X18571825Y-12252684D02*
X18552777Y-12243160D01*
X18552777Y-12243160D02*
X18543253Y-12224112D01*
X18543253Y-12224112D02*
X18543253Y-12147922D01*
X18543253Y-12147922D02*
X18552777Y-12128874D01*
X18552777Y-12128874D02*
X18571825Y-12119350D01*
X18571825Y-12119350D02*
X18609920Y-12119350D01*
X18609920Y-12119350D02*
X18628968Y-12128874D01*
X18628968Y-12128874D02*
X18638492Y-12147922D01*
X18638492Y-12147922D02*
X18638492Y-12166969D01*
X18638492Y-12166969D02*
X18543253Y-12186017D01*
X18714682Y-12243160D02*
X18733730Y-12252684D01*
X18733730Y-12252684D02*
X18771825Y-12252684D01*
X18771825Y-12252684D02*
X18790873Y-12243160D01*
X18790873Y-12243160D02*
X18800396Y-12224112D01*
X18800396Y-12224112D02*
X18800396Y-12214588D01*
X18800396Y-12214588D02*
X18790873Y-12195541D01*
X18790873Y-12195541D02*
X18771825Y-12186017D01*
X18771825Y-12186017D02*
X18743253Y-12186017D01*
X18743253Y-12186017D02*
X18724206Y-12176493D01*
X18724206Y-12176493D02*
X18714682Y-12157446D01*
X18714682Y-12157446D02*
X18714682Y-12147922D01*
X18714682Y-12147922D02*
X18724206Y-12128874D01*
X18724206Y-12128874D02*
X18743253Y-12119350D01*
X18743253Y-12119350D02*
X18771825Y-12119350D01*
X18771825Y-12119350D02*
X18790873Y-12128874D01*
X18867063Y-12328874D02*
X18876587Y-12319350D01*
X18876587Y-12319350D02*
X18895634Y-12290779D01*
X18895634Y-12290779D02*
X18905158Y-12271731D01*
X18905158Y-12271731D02*
X18914682Y-12243160D01*
X18914682Y-12243160D02*
X18924206Y-12195541D01*
X18924206Y-12195541D02*
X18924206Y-12157446D01*
X18924206Y-12157446D02*
X18914682Y-12109827D01*
X18914682Y-12109827D02*
X18905158Y-12081255D01*
X18905158Y-12081255D02*
X18895634Y-12062208D01*
X18895634Y-12062208D02*
X18876587Y-12033636D01*
X18876587Y-12033636D02*
X18867063Y-12024112D01*
D10*
X14062000Y-12395200D02*
X14062000Y-12455200D01*
X14032000Y-12425200D02*
X14092000Y-12425200D01*
D11*
X14390872Y-12316684D02*
X14409920Y-12316684D01*
X14409920Y-12316684D02*
X14428967Y-12326208D01*
X14428967Y-12326208D02*
X14438491Y-12335731D01*
X14438491Y-12335731D02*
X14448015Y-12354779D01*
X14448015Y-12354779D02*
X14457539Y-12392874D01*
X14457539Y-12392874D02*
X14457539Y-12440493D01*
X14457539Y-12440493D02*
X14448015Y-12478588D01*
X14448015Y-12478588D02*
X14438491Y-12497636D01*
X14438491Y-12497636D02*
X14428967Y-12507160D01*
X14428967Y-12507160D02*
X14409920Y-12516684D01*
X14409920Y-12516684D02*
X14390872Y-12516684D01*
X14390872Y-12516684D02*
X14371824Y-12507160D01*
X14371824Y-12507160D02*
X14362301Y-12497636D01*
X14362301Y-12497636D02*
X14352777Y-12478588D01*
X14352777Y-12478588D02*
X14343253Y-12440493D01*
X14343253Y-12440493D02*
X14343253Y-12392874D01*
X14343253Y-12392874D02*
X14352777Y-12354779D01*
X14352777Y-12354779D02*
X14362301Y-12335731D01*
X14362301Y-12335731D02*
X14371824Y-12326208D01*
X14371824Y-12326208D02*
X14390872Y-12316684D01*
X14543253Y-12497636D02*
X14552777Y-12507160D01*
X14552777Y-12507160D02*
X14543253Y-12516684D01*
X14543253Y-12516684D02*
X14533729Y-12507160D01*
X14533729Y-12507160D02*
X14543253Y-12497636D01*
X14543253Y-12497636D02*
X14543253Y-12516684D01*
X14724205Y-12316684D02*
X14686110Y-12316684D01*
X14686110Y-12316684D02*
X14667062Y-12326208D01*
X14667062Y-12326208D02*
X14657539Y-12335731D01*
X14657539Y-12335731D02*
X14638491Y-12364303D01*
X14638491Y-12364303D02*
X14628967Y-12402398D01*
X14628967Y-12402398D02*
X14628967Y-12478588D01*
X14628967Y-12478588D02*
X14638491Y-12497636D01*
X14638491Y-12497636D02*
X14648015Y-12507160D01*
X14648015Y-12507160D02*
X14667062Y-12516684D01*
X14667062Y-12516684D02*
X14705158Y-12516684D01*
X14705158Y-12516684D02*
X14724205Y-12507160D01*
X14724205Y-12507160D02*
X14733729Y-12497636D01*
X14733729Y-12497636D02*
X14743253Y-12478588D01*
X14743253Y-12478588D02*
X14743253Y-12430969D01*
X14743253Y-12430969D02*
X14733729Y-12411922D01*
X14733729Y-12411922D02*
X14724205Y-12402398D01*
X14724205Y-12402398D02*
X14705158Y-12392874D01*
X14705158Y-12392874D02*
X14667062Y-12392874D01*
X14667062Y-12392874D02*
X14648015Y-12402398D01*
X14648015Y-12402398D02*
X14638491Y-12411922D01*
X14638491Y-12411922D02*
X14628967Y-12430969D01*
X14867062Y-12316684D02*
X14886110Y-12316684D01*
X14886110Y-12316684D02*
X14905158Y-12326208D01*
X14905158Y-12326208D02*
X14914682Y-12335731D01*
X14914682Y-12335731D02*
X14924205Y-12354779D01*
X14924205Y-12354779D02*
X14933729Y-12392874D01*
X14933729Y-12392874D02*
X14933729Y-12440493D01*
X14933729Y-12440493D02*
X14924205Y-12478588D01*
X14924205Y-12478588D02*
X14914682Y-12497636D01*
X14914682Y-12497636D02*
X14905158Y-12507160D01*
X14905158Y-12507160D02*
X14886110Y-12516684D01*
X14886110Y-12516684D02*
X14867062Y-12516684D01*
X14867062Y-12516684D02*
X14848015Y-12507160D01*
X14848015Y-12507160D02*
X14838491Y-12497636D01*
X14838491Y-12497636D02*
X14828967Y-12478588D01*
X14828967Y-12478588D02*
X14819443Y-12440493D01*
X14819443Y-12440493D02*
X14819443Y-12392874D01*
X14819443Y-12392874D02*
X14828967Y-12354779D01*
X14828967Y-12354779D02*
X14838491Y-12335731D01*
X14838491Y-12335731D02*
X14848015Y-12326208D01*
X14848015Y-12326208D02*
X14867062Y-12316684D01*
X15057539Y-12316684D02*
X15076586Y-12316684D01*
X15076586Y-12316684D02*
X15095634Y-12326208D01*
X15095634Y-12326208D02*
X15105158Y-12335731D01*
X15105158Y-12335731D02*
X15114682Y-12354779D01*
X15114682Y-12354779D02*
X15124205Y-12392874D01*
X15124205Y-12392874D02*
X15124205Y-12440493D01*
X15124205Y-12440493D02*
X15114682Y-12478588D01*
X15114682Y-12478588D02*
X15105158Y-12497636D01*
X15105158Y-12497636D02*
X15095634Y-12507160D01*
X15095634Y-12507160D02*
X15076586Y-12516684D01*
X15076586Y-12516684D02*
X15057539Y-12516684D01*
X15057539Y-12516684D02*
X15038491Y-12507160D01*
X15038491Y-12507160D02*
X15028967Y-12497636D01*
X15028967Y-12497636D02*
X15019443Y-12478588D01*
X15019443Y-12478588D02*
X15009920Y-12440493D01*
X15009920Y-12440493D02*
X15009920Y-12392874D01*
X15009920Y-12392874D02*
X15019443Y-12354779D01*
X15019443Y-12354779D02*
X15028967Y-12335731D01*
X15028967Y-12335731D02*
X15038491Y-12326208D01*
X15038491Y-12326208D02*
X15057539Y-12316684D01*
X15209920Y-12516684D02*
X15209920Y-12383350D01*
X15209920Y-12402398D02*
X15219443Y-12392874D01*
X15219443Y-12392874D02*
X15238491Y-12383350D01*
X15238491Y-12383350D02*
X15267063Y-12383350D01*
X15267063Y-12383350D02*
X15286110Y-12392874D01*
X15286110Y-12392874D02*
X15295634Y-12411922D01*
X15295634Y-12411922D02*
X15295634Y-12516684D01*
X15295634Y-12411922D02*
X15305158Y-12392874D01*
X15305158Y-12392874D02*
X15324205Y-12383350D01*
X15324205Y-12383350D02*
X15352777Y-12383350D01*
X15352777Y-12383350D02*
X15371824Y-12392874D01*
X15371824Y-12392874D02*
X15381348Y-12411922D01*
X15381348Y-12411922D02*
X15381348Y-12516684D01*
X15476586Y-12516684D02*
X15476586Y-12383350D01*
X15476586Y-12402398D02*
X15486110Y-12392874D01*
X15486110Y-12392874D02*
X15505158Y-12383350D01*
X15505158Y-12383350D02*
X15533729Y-12383350D01*
X15533729Y-12383350D02*
X15552777Y-12392874D01*
X15552777Y-12392874D02*
X15562301Y-12411922D01*
X15562301Y-12411922D02*
X15562301Y-12516684D01*
X15562301Y-12411922D02*
X15571824Y-12392874D01*
X15571824Y-12392874D02*
X15590872Y-12383350D01*
X15590872Y-12383350D02*
X15619443Y-12383350D01*
X15619443Y-12383350D02*
X15638491Y-12392874D01*
X15638491Y-12392874D02*
X15648015Y-12411922D01*
X15648015Y-12411922D02*
X15648015Y-12516684D01*
X16038491Y-12307160D02*
X15867063Y-12564303D01*
X16295634Y-12316684D02*
X16314682Y-12316684D01*
X16314682Y-12316684D02*
X16333729Y-12326208D01*
X16333729Y-12326208D02*
X16343253Y-12335731D01*
X16343253Y-12335731D02*
X16352777Y-12354779D01*
X16352777Y-12354779D02*
X16362301Y-12392874D01*
X16362301Y-12392874D02*
X16362301Y-12440493D01*
X16362301Y-12440493D02*
X16352777Y-12478588D01*
X16352777Y-12478588D02*
X16343253Y-12497636D01*
X16343253Y-12497636D02*
X16333729Y-12507160D01*
X16333729Y-12507160D02*
X16314682Y-12516684D01*
X16314682Y-12516684D02*
X16295634Y-12516684D01*
X16295634Y-12516684D02*
X16276586Y-12507160D01*
X16276586Y-12507160D02*
X16267063Y-12497636D01*
X16267063Y-12497636D02*
X16257539Y-12478588D01*
X16257539Y-12478588D02*
X16248015Y-12440493D01*
X16248015Y-12440493D02*
X16248015Y-12392874D01*
X16248015Y-12392874D02*
X16257539Y-12354779D01*
X16257539Y-12354779D02*
X16267063Y-12335731D01*
X16267063Y-12335731D02*
X16276586Y-12326208D01*
X16276586Y-12326208D02*
X16295634Y-12316684D01*
X16448015Y-12497636D02*
X16457539Y-12507160D01*
X16457539Y-12507160D02*
X16448015Y-12516684D01*
X16448015Y-12516684D02*
X16438491Y-12507160D01*
X16438491Y-12507160D02*
X16448015Y-12497636D01*
X16448015Y-12497636D02*
X16448015Y-12516684D01*
X16581348Y-12316684D02*
X16600396Y-12316684D01*
X16600396Y-12316684D02*
X16619444Y-12326208D01*
X16619444Y-12326208D02*
X16628967Y-12335731D01*
X16628967Y-12335731D02*
X16638491Y-12354779D01*
X16638491Y-12354779D02*
X16648015Y-12392874D01*
X16648015Y-12392874D02*
X16648015Y-12440493D01*
X16648015Y-12440493D02*
X16638491Y-12478588D01*
X16638491Y-12478588D02*
X16628967Y-12497636D01*
X16628967Y-12497636D02*
X16619444Y-12507160D01*
X16619444Y-12507160D02*
X16600396Y-12516684D01*
X16600396Y-12516684D02*
X16581348Y-12516684D01*
X16581348Y-12516684D02*
X16562301Y-12507160D01*
X16562301Y-12507160D02*
X16552777Y-12497636D01*
X16552777Y-12497636D02*
X16543253Y-12478588D01*
X16543253Y-12478588D02*
X16533729Y-12440493D01*
X16533729Y-12440493D02*
X16533729Y-12392874D01*
X16533729Y-12392874D02*
X16543253Y-12354779D01*
X16543253Y-12354779D02*
X16552777Y-12335731D01*
X16552777Y-12335731D02*
X16562301Y-12326208D01*
X16562301Y-12326208D02*
X16581348Y-12316684D01*
X16724206Y-12335731D02*
X16733729Y-12326208D01*
X16733729Y-12326208D02*
X16752777Y-12316684D01*
X16752777Y-12316684D02*
X16800396Y-12316684D01*
X16800396Y-12316684D02*
X16819444Y-12326208D01*
X16819444Y-12326208D02*
X16828968Y-12335731D01*
X16828968Y-12335731D02*
X16838491Y-12354779D01*
X16838491Y-12354779D02*
X16838491Y-12373827D01*
X16838491Y-12373827D02*
X16828968Y-12402398D01*
X16828968Y-12402398D02*
X16714682Y-12516684D01*
X16714682Y-12516684D02*
X16838491Y-12516684D01*
X16905158Y-12316684D02*
X17028968Y-12316684D01*
X17028968Y-12316684D02*
X16962301Y-12392874D01*
X16962301Y-12392874D02*
X16990872Y-12392874D01*
X16990872Y-12392874D02*
X17009920Y-12402398D01*
X17009920Y-12402398D02*
X17019444Y-12411922D01*
X17019444Y-12411922D02*
X17028968Y-12430969D01*
X17028968Y-12430969D02*
X17028968Y-12478588D01*
X17028968Y-12478588D02*
X17019444Y-12497636D01*
X17019444Y-12497636D02*
X17009920Y-12507160D01*
X17009920Y-12507160D02*
X16990872Y-12516684D01*
X16990872Y-12516684D02*
X16933729Y-12516684D01*
X16933729Y-12516684D02*
X16914682Y-12507160D01*
X16914682Y-12507160D02*
X16905158Y-12497636D01*
X17200396Y-12316684D02*
X17162301Y-12316684D01*
X17162301Y-12316684D02*
X17143253Y-12326208D01*
X17143253Y-12326208D02*
X17133729Y-12335731D01*
X17133729Y-12335731D02*
X17114682Y-12364303D01*
X17114682Y-12364303D02*
X17105158Y-12402398D01*
X17105158Y-12402398D02*
X17105158Y-12478588D01*
X17105158Y-12478588D02*
X17114682Y-12497636D01*
X17114682Y-12497636D02*
X17124206Y-12507160D01*
X17124206Y-12507160D02*
X17143253Y-12516684D01*
X17143253Y-12516684D02*
X17181349Y-12516684D01*
X17181349Y-12516684D02*
X17200396Y-12507160D01*
X17200396Y-12507160D02*
X17209920Y-12497636D01*
X17209920Y-12497636D02*
X17219444Y-12478588D01*
X17219444Y-12478588D02*
X17219444Y-12430969D01*
X17219444Y-12430969D02*
X17209920Y-12411922D01*
X17209920Y-12411922D02*
X17200396Y-12402398D01*
X17200396Y-12402398D02*
X17181349Y-12392874D01*
X17181349Y-12392874D02*
X17143253Y-12392874D01*
X17143253Y-12392874D02*
X17124206Y-12402398D01*
X17124206Y-12402398D02*
X17114682Y-12411922D01*
X17114682Y-12411922D02*
X17105158Y-12430969D01*
X17295634Y-12316684D02*
X17295634Y-12354779D01*
X17371825Y-12316684D02*
X17371825Y-12354779D01*
X17667063Y-12592874D02*
X17657539Y-12583350D01*
X17657539Y-12583350D02*
X17638491Y-12554779D01*
X17638491Y-12554779D02*
X17628968Y-12535731D01*
X17628968Y-12535731D02*
X17619444Y-12507160D01*
X17619444Y-12507160D02*
X17609920Y-12459541D01*
X17609920Y-12459541D02*
X17609920Y-12421446D01*
X17609920Y-12421446D02*
X17619444Y-12373827D01*
X17619444Y-12373827D02*
X17628968Y-12345255D01*
X17628968Y-12345255D02*
X17638491Y-12326208D01*
X17638491Y-12326208D02*
X17657539Y-12297636D01*
X17657539Y-12297636D02*
X17667063Y-12288112D01*
X17781349Y-12316684D02*
X17800396Y-12316684D01*
X17800396Y-12316684D02*
X17819444Y-12326208D01*
X17819444Y-12326208D02*
X17828968Y-12335731D01*
X17828968Y-12335731D02*
X17838491Y-12354779D01*
X17838491Y-12354779D02*
X17848015Y-12392874D01*
X17848015Y-12392874D02*
X17848015Y-12440493D01*
X17848015Y-12440493D02*
X17838491Y-12478588D01*
X17838491Y-12478588D02*
X17828968Y-12497636D01*
X17828968Y-12497636D02*
X17819444Y-12507160D01*
X17819444Y-12507160D02*
X17800396Y-12516684D01*
X17800396Y-12516684D02*
X17781349Y-12516684D01*
X17781349Y-12516684D02*
X17762301Y-12507160D01*
X17762301Y-12507160D02*
X17752777Y-12497636D01*
X17752777Y-12497636D02*
X17743253Y-12478588D01*
X17743253Y-12478588D02*
X17733730Y-12440493D01*
X17733730Y-12440493D02*
X17733730Y-12392874D01*
X17733730Y-12392874D02*
X17743253Y-12354779D01*
X17743253Y-12354779D02*
X17752777Y-12335731D01*
X17752777Y-12335731D02*
X17762301Y-12326208D01*
X17762301Y-12326208D02*
X17781349Y-12316684D01*
X18086111Y-12516684D02*
X18086111Y-12316684D01*
X18171825Y-12516684D02*
X18171825Y-12411922D01*
X18171825Y-12411922D02*
X18162301Y-12392874D01*
X18162301Y-12392874D02*
X18143253Y-12383350D01*
X18143253Y-12383350D02*
X18114682Y-12383350D01*
X18114682Y-12383350D02*
X18095634Y-12392874D01*
X18095634Y-12392874D02*
X18086111Y-12402398D01*
X18295634Y-12516684D02*
X18276587Y-12507160D01*
X18276587Y-12507160D02*
X18267063Y-12497636D01*
X18267063Y-12497636D02*
X18257539Y-12478588D01*
X18257539Y-12478588D02*
X18257539Y-12421446D01*
X18257539Y-12421446D02*
X18267063Y-12402398D01*
X18267063Y-12402398D02*
X18276587Y-12392874D01*
X18276587Y-12392874D02*
X18295634Y-12383350D01*
X18295634Y-12383350D02*
X18324206Y-12383350D01*
X18324206Y-12383350D02*
X18343253Y-12392874D01*
X18343253Y-12392874D02*
X18352777Y-12402398D01*
X18352777Y-12402398D02*
X18362301Y-12421446D01*
X18362301Y-12421446D02*
X18362301Y-12478588D01*
X18362301Y-12478588D02*
X18352777Y-12497636D01*
X18352777Y-12497636D02*
X18343253Y-12507160D01*
X18343253Y-12507160D02*
X18324206Y-12516684D01*
X18324206Y-12516684D02*
X18295634Y-12516684D01*
X18476587Y-12516684D02*
X18457539Y-12507160D01*
X18457539Y-12507160D02*
X18448015Y-12488112D01*
X18448015Y-12488112D02*
X18448015Y-12316684D01*
X18628968Y-12507160D02*
X18609920Y-12516684D01*
X18609920Y-12516684D02*
X18571825Y-12516684D01*
X18571825Y-12516684D02*
X18552777Y-12507160D01*
X18552777Y-12507160D02*
X18543253Y-12488112D01*
X18543253Y-12488112D02*
X18543253Y-12411922D01*
X18543253Y-12411922D02*
X18552777Y-12392874D01*
X18552777Y-12392874D02*
X18571825Y-12383350D01*
X18571825Y-12383350D02*
X18609920Y-12383350D01*
X18609920Y-12383350D02*
X18628968Y-12392874D01*
X18628968Y-12392874D02*
X18638492Y-12411922D01*
X18638492Y-12411922D02*
X18638492Y-12430969D01*
X18638492Y-12430969D02*
X18543253Y-12450017D01*
X18714682Y-12507160D02*
X18733730Y-12516684D01*
X18733730Y-12516684D02*
X18771825Y-12516684D01*
X18771825Y-12516684D02*
X18790873Y-12507160D01*
X18790873Y-12507160D02*
X18800396Y-12488112D01*
X18800396Y-12488112D02*
X18800396Y-12478588D01*
X18800396Y-12478588D02*
X18790873Y-12459541D01*
X18790873Y-12459541D02*
X18771825Y-12450017D01*
X18771825Y-12450017D02*
X18743253Y-12450017D01*
X18743253Y-12450017D02*
X18724206Y-12440493D01*
X18724206Y-12440493D02*
X18714682Y-12421446D01*
X18714682Y-12421446D02*
X18714682Y-12411922D01*
X18714682Y-12411922D02*
X18724206Y-12392874D01*
X18724206Y-12392874D02*
X18743253Y-12383350D01*
X18743253Y-12383350D02*
X18771825Y-12383350D01*
X18771825Y-12383350D02*
X18790873Y-12392874D01*
X19038492Y-12440493D02*
X19190873Y-12440493D01*
X19114682Y-12516684D02*
X19114682Y-12364303D01*
X19524206Y-12383350D02*
X19524206Y-12516684D01*
X19476587Y-12307160D02*
X19428968Y-12450017D01*
X19428968Y-12450017D02*
X19552777Y-12450017D01*
X19771825Y-12507160D02*
X19790873Y-12516684D01*
X19790873Y-12516684D02*
X19828968Y-12516684D01*
X19828968Y-12516684D02*
X19848016Y-12507160D01*
X19848016Y-12507160D02*
X19857539Y-12488112D01*
X19857539Y-12488112D02*
X19857539Y-12478588D01*
X19857539Y-12478588D02*
X19848016Y-12459541D01*
X19848016Y-12459541D02*
X19828968Y-12450017D01*
X19828968Y-12450017D02*
X19800396Y-12450017D01*
X19800396Y-12450017D02*
X19781349Y-12440493D01*
X19781349Y-12440493D02*
X19771825Y-12421446D01*
X19771825Y-12421446D02*
X19771825Y-12411922D01*
X19771825Y-12411922D02*
X19781349Y-12392874D01*
X19781349Y-12392874D02*
X19800396Y-12383350D01*
X19800396Y-12383350D02*
X19828968Y-12383350D01*
X19828968Y-12383350D02*
X19848016Y-12392874D01*
X19971825Y-12516684D02*
X19952777Y-12507160D01*
X19952777Y-12507160D02*
X19943254Y-12488112D01*
X19943254Y-12488112D02*
X19943254Y-12316684D01*
X20076587Y-12516684D02*
X20057539Y-12507160D01*
X20057539Y-12507160D02*
X20048016Y-12497636D01*
X20048016Y-12497636D02*
X20038492Y-12478588D01*
X20038492Y-12478588D02*
X20038492Y-12421446D01*
X20038492Y-12421446D02*
X20048016Y-12402398D01*
X20048016Y-12402398D02*
X20057539Y-12392874D01*
X20057539Y-12392874D02*
X20076587Y-12383350D01*
X20076587Y-12383350D02*
X20105158Y-12383350D01*
X20105158Y-12383350D02*
X20124206Y-12392874D01*
X20124206Y-12392874D02*
X20133730Y-12402398D01*
X20133730Y-12402398D02*
X20143254Y-12421446D01*
X20143254Y-12421446D02*
X20143254Y-12478588D01*
X20143254Y-12478588D02*
X20133730Y-12497636D01*
X20133730Y-12497636D02*
X20124206Y-12507160D01*
X20124206Y-12507160D02*
X20105158Y-12516684D01*
X20105158Y-12516684D02*
X20076587Y-12516684D01*
X20200397Y-12383350D02*
X20276587Y-12383350D01*
X20228968Y-12316684D02*
X20228968Y-12488112D01*
X20228968Y-12488112D02*
X20238492Y-12507160D01*
X20238492Y-12507160D02*
X20257539Y-12516684D01*
X20257539Y-12516684D02*
X20276587Y-12516684D01*
X20333730Y-12507160D02*
X20352777Y-12516684D01*
X20352777Y-12516684D02*
X20390873Y-12516684D01*
X20390873Y-12516684D02*
X20409920Y-12507160D01*
X20409920Y-12507160D02*
X20419444Y-12488112D01*
X20419444Y-12488112D02*
X20419444Y-12478588D01*
X20419444Y-12478588D02*
X20409920Y-12459541D01*
X20409920Y-12459541D02*
X20390873Y-12450017D01*
X20390873Y-12450017D02*
X20362301Y-12450017D01*
X20362301Y-12450017D02*
X20343254Y-12440493D01*
X20343254Y-12440493D02*
X20333730Y-12421446D01*
X20333730Y-12421446D02*
X20333730Y-12411922D01*
X20333730Y-12411922D02*
X20343254Y-12392874D01*
X20343254Y-12392874D02*
X20362301Y-12383350D01*
X20362301Y-12383350D02*
X20390873Y-12383350D01*
X20390873Y-12383350D02*
X20409920Y-12392874D01*
X20486111Y-12592874D02*
X20495635Y-12583350D01*
X20495635Y-12583350D02*
X20514682Y-12554779D01*
X20514682Y-12554779D02*
X20524206Y-12535731D01*
X20524206Y-12535731D02*
X20533730Y-12507160D01*
X20533730Y-12507160D02*
X20543254Y-12459541D01*
X20543254Y-12459541D02*
X20543254Y-12421446D01*
X20543254Y-12421446D02*
X20533730Y-12373827D01*
X20533730Y-12373827D02*
X20524206Y-12345255D01*
X20524206Y-12345255D02*
X20514682Y-12326208D01*
X20514682Y-12326208D02*
X20495635Y-12297636D01*
X20495635Y-12297636D02*
X20486111Y-12288112D01*
D10*
X14077356Y-12724556D02*
X14077356Y-12653844D01*
X14006644Y-12653844D01*
X14006644Y-12724556D01*
X14077356Y-12724556D01*
D11*
X14457539Y-12780684D02*
X14343253Y-12780684D01*
X14400396Y-12780684D02*
X14400396Y-12580684D01*
X14400396Y-12580684D02*
X14381348Y-12609255D01*
X14381348Y-12609255D02*
X14362301Y-12628303D01*
X14362301Y-12628303D02*
X14343253Y-12637827D01*
X14543253Y-12761636D02*
X14552777Y-12771160D01*
X14552777Y-12771160D02*
X14543253Y-12780684D01*
X14543253Y-12780684D02*
X14533729Y-12771160D01*
X14533729Y-12771160D02*
X14543253Y-12761636D01*
X14543253Y-12761636D02*
X14543253Y-12780684D01*
X14676586Y-12580684D02*
X14695634Y-12580684D01*
X14695634Y-12580684D02*
X14714682Y-12590208D01*
X14714682Y-12590208D02*
X14724205Y-12599731D01*
X14724205Y-12599731D02*
X14733729Y-12618779D01*
X14733729Y-12618779D02*
X14743253Y-12656874D01*
X14743253Y-12656874D02*
X14743253Y-12704493D01*
X14743253Y-12704493D02*
X14733729Y-12742588D01*
X14733729Y-12742588D02*
X14724205Y-12761636D01*
X14724205Y-12761636D02*
X14714682Y-12771160D01*
X14714682Y-12771160D02*
X14695634Y-12780684D01*
X14695634Y-12780684D02*
X14676586Y-12780684D01*
X14676586Y-12780684D02*
X14657539Y-12771160D01*
X14657539Y-12771160D02*
X14648015Y-12761636D01*
X14648015Y-12761636D02*
X14638491Y-12742588D01*
X14638491Y-12742588D02*
X14628967Y-12704493D01*
X14628967Y-12704493D02*
X14628967Y-12656874D01*
X14628967Y-12656874D02*
X14638491Y-12618779D01*
X14638491Y-12618779D02*
X14648015Y-12599731D01*
X14648015Y-12599731D02*
X14657539Y-12590208D01*
X14657539Y-12590208D02*
X14676586Y-12580684D01*
X14867062Y-12580684D02*
X14886110Y-12580684D01*
X14886110Y-12580684D02*
X14905158Y-12590208D01*
X14905158Y-12590208D02*
X14914682Y-12599731D01*
X14914682Y-12599731D02*
X14924205Y-12618779D01*
X14924205Y-12618779D02*
X14933729Y-12656874D01*
X14933729Y-12656874D02*
X14933729Y-12704493D01*
X14933729Y-12704493D02*
X14924205Y-12742588D01*
X14924205Y-12742588D02*
X14914682Y-12761636D01*
X14914682Y-12761636D02*
X14905158Y-12771160D01*
X14905158Y-12771160D02*
X14886110Y-12780684D01*
X14886110Y-12780684D02*
X14867062Y-12780684D01*
X14867062Y-12780684D02*
X14848015Y-12771160D01*
X14848015Y-12771160D02*
X14838491Y-12761636D01*
X14838491Y-12761636D02*
X14828967Y-12742588D01*
X14828967Y-12742588D02*
X14819443Y-12704493D01*
X14819443Y-12704493D02*
X14819443Y-12656874D01*
X14819443Y-12656874D02*
X14828967Y-12618779D01*
X14828967Y-12618779D02*
X14838491Y-12599731D01*
X14838491Y-12599731D02*
X14848015Y-12590208D01*
X14848015Y-12590208D02*
X14867062Y-12580684D01*
X15057539Y-12580684D02*
X15076586Y-12580684D01*
X15076586Y-12580684D02*
X15095634Y-12590208D01*
X15095634Y-12590208D02*
X15105158Y-12599731D01*
X15105158Y-12599731D02*
X15114682Y-12618779D01*
X15114682Y-12618779D02*
X15124205Y-12656874D01*
X15124205Y-12656874D02*
X15124205Y-12704493D01*
X15124205Y-12704493D02*
X15114682Y-12742588D01*
X15114682Y-12742588D02*
X15105158Y-12761636D01*
X15105158Y-12761636D02*
X15095634Y-12771160D01*
X15095634Y-12771160D02*
X15076586Y-12780684D01*
X15076586Y-12780684D02*
X15057539Y-12780684D01*
X15057539Y-12780684D02*
X15038491Y-12771160D01*
X15038491Y-12771160D02*
X15028967Y-12761636D01*
X15028967Y-12761636D02*
X15019443Y-12742588D01*
X15019443Y-12742588D02*
X15009920Y-12704493D01*
X15009920Y-12704493D02*
X15009920Y-12656874D01*
X15009920Y-12656874D02*
X15019443Y-12618779D01*
X15019443Y-12618779D02*
X15028967Y-12599731D01*
X15028967Y-12599731D02*
X15038491Y-12590208D01*
X15038491Y-12590208D02*
X15057539Y-12580684D01*
X15209920Y-12780684D02*
X15209920Y-12647350D01*
X15209920Y-12666398D02*
X15219443Y-12656874D01*
X15219443Y-12656874D02*
X15238491Y-12647350D01*
X15238491Y-12647350D02*
X15267063Y-12647350D01*
X15267063Y-12647350D02*
X15286110Y-12656874D01*
X15286110Y-12656874D02*
X15295634Y-12675922D01*
X15295634Y-12675922D02*
X15295634Y-12780684D01*
X15295634Y-12675922D02*
X15305158Y-12656874D01*
X15305158Y-12656874D02*
X15324205Y-12647350D01*
X15324205Y-12647350D02*
X15352777Y-12647350D01*
X15352777Y-12647350D02*
X15371824Y-12656874D01*
X15371824Y-12656874D02*
X15381348Y-12675922D01*
X15381348Y-12675922D02*
X15381348Y-12780684D01*
X15476586Y-12780684D02*
X15476586Y-12647350D01*
X15476586Y-12666398D02*
X15486110Y-12656874D01*
X15486110Y-12656874D02*
X15505158Y-12647350D01*
X15505158Y-12647350D02*
X15533729Y-12647350D01*
X15533729Y-12647350D02*
X15552777Y-12656874D01*
X15552777Y-12656874D02*
X15562301Y-12675922D01*
X15562301Y-12675922D02*
X15562301Y-12780684D01*
X15562301Y-12675922D02*
X15571824Y-12656874D01*
X15571824Y-12656874D02*
X15590872Y-12647350D01*
X15590872Y-12647350D02*
X15619443Y-12647350D01*
X15619443Y-12647350D02*
X15638491Y-12656874D01*
X15638491Y-12656874D02*
X15648015Y-12675922D01*
X15648015Y-12675922D02*
X15648015Y-12780684D01*
X16038491Y-12571160D02*
X15867063Y-12828303D01*
X16295634Y-12580684D02*
X16314682Y-12580684D01*
X16314682Y-12580684D02*
X16333729Y-12590208D01*
X16333729Y-12590208D02*
X16343253Y-12599731D01*
X16343253Y-12599731D02*
X16352777Y-12618779D01*
X16352777Y-12618779D02*
X16362301Y-12656874D01*
X16362301Y-12656874D02*
X16362301Y-12704493D01*
X16362301Y-12704493D02*
X16352777Y-12742588D01*
X16352777Y-12742588D02*
X16343253Y-12761636D01*
X16343253Y-12761636D02*
X16333729Y-12771160D01*
X16333729Y-12771160D02*
X16314682Y-12780684D01*
X16314682Y-12780684D02*
X16295634Y-12780684D01*
X16295634Y-12780684D02*
X16276586Y-12771160D01*
X16276586Y-12771160D02*
X16267063Y-12761636D01*
X16267063Y-12761636D02*
X16257539Y-12742588D01*
X16257539Y-12742588D02*
X16248015Y-12704493D01*
X16248015Y-12704493D02*
X16248015Y-12656874D01*
X16248015Y-12656874D02*
X16257539Y-12618779D01*
X16257539Y-12618779D02*
X16267063Y-12599731D01*
X16267063Y-12599731D02*
X16276586Y-12590208D01*
X16276586Y-12590208D02*
X16295634Y-12580684D01*
X16448015Y-12761636D02*
X16457539Y-12771160D01*
X16457539Y-12771160D02*
X16448015Y-12780684D01*
X16448015Y-12780684D02*
X16438491Y-12771160D01*
X16438491Y-12771160D02*
X16448015Y-12761636D01*
X16448015Y-12761636D02*
X16448015Y-12780684D01*
X16581348Y-12580684D02*
X16600396Y-12580684D01*
X16600396Y-12580684D02*
X16619444Y-12590208D01*
X16619444Y-12590208D02*
X16628967Y-12599731D01*
X16628967Y-12599731D02*
X16638491Y-12618779D01*
X16638491Y-12618779D02*
X16648015Y-12656874D01*
X16648015Y-12656874D02*
X16648015Y-12704493D01*
X16648015Y-12704493D02*
X16638491Y-12742588D01*
X16638491Y-12742588D02*
X16628967Y-12761636D01*
X16628967Y-12761636D02*
X16619444Y-12771160D01*
X16619444Y-12771160D02*
X16600396Y-12780684D01*
X16600396Y-12780684D02*
X16581348Y-12780684D01*
X16581348Y-12780684D02*
X16562301Y-12771160D01*
X16562301Y-12771160D02*
X16552777Y-12761636D01*
X16552777Y-12761636D02*
X16543253Y-12742588D01*
X16543253Y-12742588D02*
X16533729Y-12704493D01*
X16533729Y-12704493D02*
X16533729Y-12656874D01*
X16533729Y-12656874D02*
X16543253Y-12618779D01*
X16543253Y-12618779D02*
X16552777Y-12599731D01*
X16552777Y-12599731D02*
X16562301Y-12590208D01*
X16562301Y-12590208D02*
X16581348Y-12580684D01*
X16714682Y-12580684D02*
X16838491Y-12580684D01*
X16838491Y-12580684D02*
X16771825Y-12656874D01*
X16771825Y-12656874D02*
X16800396Y-12656874D01*
X16800396Y-12656874D02*
X16819444Y-12666398D01*
X16819444Y-12666398D02*
X16828968Y-12675922D01*
X16828968Y-12675922D02*
X16838491Y-12694969D01*
X16838491Y-12694969D02*
X16838491Y-12742588D01*
X16838491Y-12742588D02*
X16828968Y-12761636D01*
X16828968Y-12761636D02*
X16819444Y-12771160D01*
X16819444Y-12771160D02*
X16800396Y-12780684D01*
X16800396Y-12780684D02*
X16743253Y-12780684D01*
X16743253Y-12780684D02*
X16724206Y-12771160D01*
X16724206Y-12771160D02*
X16714682Y-12761636D01*
X16933729Y-12780684D02*
X16971825Y-12780684D01*
X16971825Y-12780684D02*
X16990872Y-12771160D01*
X16990872Y-12771160D02*
X17000396Y-12761636D01*
X17000396Y-12761636D02*
X17019444Y-12733065D01*
X17019444Y-12733065D02*
X17028968Y-12694969D01*
X17028968Y-12694969D02*
X17028968Y-12618779D01*
X17028968Y-12618779D02*
X17019444Y-12599731D01*
X17019444Y-12599731D02*
X17009920Y-12590208D01*
X17009920Y-12590208D02*
X16990872Y-12580684D01*
X16990872Y-12580684D02*
X16952777Y-12580684D01*
X16952777Y-12580684D02*
X16933729Y-12590208D01*
X16933729Y-12590208D02*
X16924206Y-12599731D01*
X16924206Y-12599731D02*
X16914682Y-12618779D01*
X16914682Y-12618779D02*
X16914682Y-12666398D01*
X16914682Y-12666398D02*
X16924206Y-12685446D01*
X16924206Y-12685446D02*
X16933729Y-12694969D01*
X16933729Y-12694969D02*
X16952777Y-12704493D01*
X16952777Y-12704493D02*
X16990872Y-12704493D01*
X16990872Y-12704493D02*
X17009920Y-12694969D01*
X17009920Y-12694969D02*
X17019444Y-12685446D01*
X17019444Y-12685446D02*
X17028968Y-12666398D01*
X17200396Y-12647350D02*
X17200396Y-12780684D01*
X17152777Y-12571160D02*
X17105158Y-12714017D01*
X17105158Y-12714017D02*
X17228968Y-12714017D01*
X17295634Y-12580684D02*
X17295634Y-12618779D01*
X17371825Y-12580684D02*
X17371825Y-12618779D01*
X17667063Y-12856874D02*
X17657539Y-12847350D01*
X17657539Y-12847350D02*
X17638491Y-12818779D01*
X17638491Y-12818779D02*
X17628968Y-12799731D01*
X17628968Y-12799731D02*
X17619444Y-12771160D01*
X17619444Y-12771160D02*
X17609920Y-12723541D01*
X17609920Y-12723541D02*
X17609920Y-12685446D01*
X17609920Y-12685446D02*
X17619444Y-12637827D01*
X17619444Y-12637827D02*
X17628968Y-12609255D01*
X17628968Y-12609255D02*
X17638491Y-12590208D01*
X17638491Y-12590208D02*
X17657539Y-12561636D01*
X17657539Y-12561636D02*
X17667063Y-12552112D01*
X17848015Y-12780684D02*
X17733730Y-12780684D01*
X17790872Y-12780684D02*
X17790872Y-12580684D01*
X17790872Y-12580684D02*
X17771825Y-12609255D01*
X17771825Y-12609255D02*
X17752777Y-12628303D01*
X17752777Y-12628303D02*
X17733730Y-12637827D01*
X18038491Y-12780684D02*
X17924206Y-12780684D01*
X17981349Y-12780684D02*
X17981349Y-12580684D01*
X17981349Y-12580684D02*
X17962301Y-12609255D01*
X17962301Y-12609255D02*
X17943253Y-12628303D01*
X17943253Y-12628303D02*
X17924206Y-12637827D01*
X18276587Y-12780684D02*
X18276587Y-12580684D01*
X18362301Y-12780684D02*
X18362301Y-12675922D01*
X18362301Y-12675922D02*
X18352777Y-12656874D01*
X18352777Y-12656874D02*
X18333730Y-12647350D01*
X18333730Y-12647350D02*
X18305158Y-12647350D01*
X18305158Y-12647350D02*
X18286111Y-12656874D01*
X18286111Y-12656874D02*
X18276587Y-12666398D01*
X18486111Y-12780684D02*
X18467063Y-12771160D01*
X18467063Y-12771160D02*
X18457539Y-12761636D01*
X18457539Y-12761636D02*
X18448015Y-12742588D01*
X18448015Y-12742588D02*
X18448015Y-12685446D01*
X18448015Y-12685446D02*
X18457539Y-12666398D01*
X18457539Y-12666398D02*
X18467063Y-12656874D01*
X18467063Y-12656874D02*
X18486111Y-12647350D01*
X18486111Y-12647350D02*
X18514682Y-12647350D01*
X18514682Y-12647350D02*
X18533730Y-12656874D01*
X18533730Y-12656874D02*
X18543253Y-12666398D01*
X18543253Y-12666398D02*
X18552777Y-12685446D01*
X18552777Y-12685446D02*
X18552777Y-12742588D01*
X18552777Y-12742588D02*
X18543253Y-12761636D01*
X18543253Y-12761636D02*
X18533730Y-12771160D01*
X18533730Y-12771160D02*
X18514682Y-12780684D01*
X18514682Y-12780684D02*
X18486111Y-12780684D01*
X18667063Y-12780684D02*
X18648015Y-12771160D01*
X18648015Y-12771160D02*
X18638492Y-12752112D01*
X18638492Y-12752112D02*
X18638492Y-12580684D01*
X18819444Y-12771160D02*
X18800396Y-12780684D01*
X18800396Y-12780684D02*
X18762301Y-12780684D01*
X18762301Y-12780684D02*
X18743253Y-12771160D01*
X18743253Y-12771160D02*
X18733730Y-12752112D01*
X18733730Y-12752112D02*
X18733730Y-12675922D01*
X18733730Y-12675922D02*
X18743253Y-12656874D01*
X18743253Y-12656874D02*
X18762301Y-12647350D01*
X18762301Y-12647350D02*
X18800396Y-12647350D01*
X18800396Y-12647350D02*
X18819444Y-12656874D01*
X18819444Y-12656874D02*
X18828968Y-12675922D01*
X18828968Y-12675922D02*
X18828968Y-12694969D01*
X18828968Y-12694969D02*
X18733730Y-12714017D01*
X18905158Y-12771160D02*
X18924206Y-12780684D01*
X18924206Y-12780684D02*
X18962301Y-12780684D01*
X18962301Y-12780684D02*
X18981349Y-12771160D01*
X18981349Y-12771160D02*
X18990873Y-12752112D01*
X18990873Y-12752112D02*
X18990873Y-12742588D01*
X18990873Y-12742588D02*
X18981349Y-12723541D01*
X18981349Y-12723541D02*
X18962301Y-12714017D01*
X18962301Y-12714017D02*
X18933730Y-12714017D01*
X18933730Y-12714017D02*
X18914682Y-12704493D01*
X18914682Y-12704493D02*
X18905158Y-12685446D01*
X18905158Y-12685446D02*
X18905158Y-12675922D01*
X18905158Y-12675922D02*
X18914682Y-12656874D01*
X18914682Y-12656874D02*
X18933730Y-12647350D01*
X18933730Y-12647350D02*
X18962301Y-12647350D01*
X18962301Y-12647350D02*
X18981349Y-12656874D01*
X19057539Y-12856874D02*
X19067063Y-12847350D01*
X19067063Y-12847350D02*
X19086111Y-12818779D01*
X19086111Y-12818779D02*
X19095634Y-12799731D01*
X19095634Y-12799731D02*
X19105158Y-12771160D01*
X19105158Y-12771160D02*
X19114682Y-12723541D01*
X19114682Y-12723541D02*
X19114682Y-12685446D01*
X19114682Y-12685446D02*
X19105158Y-12637827D01*
X19105158Y-12637827D02*
X19095634Y-12609255D01*
X19095634Y-12609255D02*
X19086111Y-12590208D01*
X19086111Y-12590208D02*
X19067063Y-12561636D01*
X19067063Y-12561636D02*
X19057539Y-12552112D01*
M02*
