G04 #@! TF.GenerationSoftware,KiCad,Pcbnew,9.0.3*
G04 #@! TF.CreationDate,2025-08-03T15:19:36-04:00*
G04 #@! TF.ProjectId,CH32V003J4M6,43483332-5630-4303-934a-344d362e6b69,rev?*
G04 #@! TF.SameCoordinates,Original*
G04 #@! TF.FileFunction,Soldermask,Top*
G04 #@! TF.FilePolarity,Negative*
%FSLAX46Y46*%
G04 Gerber Fmt 4.6, Leading zero omitted, Abs format (unit mm)*
G04 Created by KiCad (PCBNEW 9.0.3) date 2025-08-03 15:19:36*
%MOMM*%
%LPD*%
G01*
G04 APERTURE LIST*
G04 APERTURE END LIST*
G36*
X143598000Y-111340000D02*
G01*
X141898000Y-111340000D01*
X141898000Y-109640000D01*
X143598000Y-109640000D01*
X143598000Y-111340000D01*
G37*
G36*
X145534742Y-109676601D02*
G01*
X145688687Y-109740367D01*
X145827234Y-109832941D01*
X145945059Y-109950766D01*
X146037633Y-110089313D01*
X146101399Y-110243258D01*
X146133907Y-110406685D01*
X146133907Y-110573315D01*
X146101399Y-110736742D01*
X146037633Y-110890687D01*
X145945059Y-111029234D01*
X145827234Y-111147059D01*
X145688687Y-111239633D01*
X145534742Y-111303399D01*
X145371315Y-111335907D01*
X145204685Y-111335907D01*
X145041258Y-111303399D01*
X144887313Y-111239633D01*
X144748766Y-111147059D01*
X144630941Y-111029234D01*
X144538367Y-110890687D01*
X144474601Y-110736742D01*
X144442093Y-110573315D01*
X144442093Y-110406685D01*
X144474601Y-110243258D01*
X144538367Y-110089313D01*
X144630941Y-109950766D01*
X144748766Y-109832941D01*
X144887313Y-109740367D01*
X145041258Y-109676601D01*
X145204685Y-109644093D01*
X145371315Y-109644093D01*
X145534742Y-109676601D01*
G37*
G36*
X148074742Y-109676601D02*
G01*
X148228687Y-109740367D01*
X148367234Y-109832941D01*
X148485059Y-109950766D01*
X148577633Y-110089313D01*
X148641399Y-110243258D01*
X148673907Y-110406685D01*
X148673907Y-110573315D01*
X148641399Y-110736742D01*
X148577633Y-110890687D01*
X148485059Y-111029234D01*
X148367234Y-111147059D01*
X148228687Y-111239633D01*
X148074742Y-111303399D01*
X147911315Y-111335907D01*
X147744685Y-111335907D01*
X147581258Y-111303399D01*
X147427313Y-111239633D01*
X147288766Y-111147059D01*
X147170941Y-111029234D01*
X147078367Y-110890687D01*
X147014601Y-110736742D01*
X146982093Y-110573315D01*
X146982093Y-110406685D01*
X147014601Y-110243258D01*
X147078367Y-110089313D01*
X147170941Y-109950766D01*
X147288766Y-109832941D01*
X147427313Y-109740367D01*
X147581258Y-109676601D01*
X147744685Y-109644093D01*
X147911315Y-109644093D01*
X148074742Y-109676601D01*
G37*
G36*
X150614742Y-109676601D02*
G01*
X150768687Y-109740367D01*
X150907234Y-109832941D01*
X151025059Y-109950766D01*
X151117633Y-110089313D01*
X151181399Y-110243258D01*
X151213907Y-110406685D01*
X151213907Y-110573315D01*
X151181399Y-110736742D01*
X151117633Y-110890687D01*
X151025059Y-111029234D01*
X150907234Y-111147059D01*
X150768687Y-111239633D01*
X150614742Y-111303399D01*
X150451315Y-111335907D01*
X150284685Y-111335907D01*
X150121258Y-111303399D01*
X149967313Y-111239633D01*
X149828766Y-111147059D01*
X149710941Y-111029234D01*
X149618367Y-110890687D01*
X149554601Y-110736742D01*
X149522093Y-110573315D01*
X149522093Y-110406685D01*
X149554601Y-110243258D01*
X149618367Y-110089313D01*
X149710941Y-109950766D01*
X149828766Y-109832941D01*
X149967313Y-109740367D01*
X150121258Y-109676601D01*
X150284685Y-109644093D01*
X150451315Y-109644093D01*
X150614742Y-109676601D01*
G37*
G36*
X153154742Y-109676601D02*
G01*
X153308687Y-109740367D01*
X153447234Y-109832941D01*
X153565059Y-109950766D01*
X153657633Y-110089313D01*
X153721399Y-110243258D01*
X153753907Y-110406685D01*
X153753907Y-110573315D01*
X153721399Y-110736742D01*
X153657633Y-110890687D01*
X153565059Y-111029234D01*
X153447234Y-111147059D01*
X153308687Y-111239633D01*
X153154742Y-111303399D01*
X152991315Y-111335907D01*
X152824685Y-111335907D01*
X152661258Y-111303399D01*
X152507313Y-111239633D01*
X152368766Y-111147059D01*
X152250941Y-111029234D01*
X152158367Y-110890687D01*
X152094601Y-110736742D01*
X152062093Y-110573315D01*
X152062093Y-110406685D01*
X152094601Y-110243258D01*
X152158367Y-110089313D01*
X152250941Y-109950766D01*
X152368766Y-109832941D01*
X152507313Y-109740367D01*
X152661258Y-109676601D01*
X152824685Y-109644093D01*
X152991315Y-109644093D01*
X153154742Y-109676601D01*
G37*
G36*
X155694742Y-109676601D02*
G01*
X155848687Y-109740367D01*
X155987234Y-109832941D01*
X156105059Y-109950766D01*
X156197633Y-110089313D01*
X156261399Y-110243258D01*
X156293907Y-110406685D01*
X156293907Y-110573315D01*
X156261399Y-110736742D01*
X156197633Y-110890687D01*
X156105059Y-111029234D01*
X155987234Y-111147059D01*
X155848687Y-111239633D01*
X155694742Y-111303399D01*
X155531315Y-111335907D01*
X155364685Y-111335907D01*
X155201258Y-111303399D01*
X155047313Y-111239633D01*
X154908766Y-111147059D01*
X154790941Y-111029234D01*
X154698367Y-110890687D01*
X154634601Y-110736742D01*
X154602093Y-110573315D01*
X154602093Y-110406685D01*
X154634601Y-110243258D01*
X154698367Y-110089313D01*
X154790941Y-109950766D01*
X154908766Y-109832941D01*
X155047313Y-109740367D01*
X155201258Y-109676601D01*
X155364685Y-109644093D01*
X155531315Y-109644093D01*
X155694742Y-109676601D01*
G37*
G36*
X158234742Y-109676601D02*
G01*
X158388687Y-109740367D01*
X158527234Y-109832941D01*
X158645059Y-109950766D01*
X158737633Y-110089313D01*
X158801399Y-110243258D01*
X158833907Y-110406685D01*
X158833907Y-110573315D01*
X158801399Y-110736742D01*
X158737633Y-110890687D01*
X158645059Y-111029234D01*
X158527234Y-111147059D01*
X158388687Y-111239633D01*
X158234742Y-111303399D01*
X158071315Y-111335907D01*
X157904685Y-111335907D01*
X157741258Y-111303399D01*
X157587313Y-111239633D01*
X157448766Y-111147059D01*
X157330941Y-111029234D01*
X157238367Y-110890687D01*
X157174601Y-110736742D01*
X157142093Y-110573315D01*
X157142093Y-110406685D01*
X157174601Y-110243258D01*
X157238367Y-110089313D01*
X157330941Y-109950766D01*
X157448766Y-109832941D01*
X157587313Y-109740367D01*
X157741258Y-109676601D01*
X157904685Y-109644093D01*
X158071315Y-109644093D01*
X158234742Y-109676601D01*
G37*
G36*
X160774742Y-109676601D02*
G01*
X160928687Y-109740367D01*
X161067234Y-109832941D01*
X161185059Y-109950766D01*
X161277633Y-110089313D01*
X161341399Y-110243258D01*
X161373907Y-110406685D01*
X161373907Y-110573315D01*
X161341399Y-110736742D01*
X161277633Y-110890687D01*
X161185059Y-111029234D01*
X161067234Y-111147059D01*
X160928687Y-111239633D01*
X160774742Y-111303399D01*
X160611315Y-111335907D01*
X160444685Y-111335907D01*
X160281258Y-111303399D01*
X160127313Y-111239633D01*
X159988766Y-111147059D01*
X159870941Y-111029234D01*
X159778367Y-110890687D01*
X159714601Y-110736742D01*
X159682093Y-110573315D01*
X159682093Y-110406685D01*
X159714601Y-110243258D01*
X159778367Y-110089313D01*
X159870941Y-109950766D01*
X159988766Y-109832941D01*
X160127313Y-109740367D01*
X160281258Y-109676601D01*
X160444685Y-109644093D01*
X160611315Y-109644093D01*
X160774742Y-109676601D01*
G37*
G36*
X151877403Y-107534418D02*
G01*
X151926066Y-107566934D01*
X151958582Y-107615597D01*
X151970000Y-107673000D01*
X151970000Y-107973000D01*
X151958582Y-108030403D01*
X151926066Y-108079066D01*
X151877403Y-108111582D01*
X151820000Y-108123000D01*
X150370000Y-108123000D01*
X150312597Y-108111582D01*
X150263934Y-108079066D01*
X150231418Y-108030403D01*
X150220000Y-107973000D01*
X150220000Y-107673000D01*
X150231418Y-107615597D01*
X150263934Y-107566934D01*
X150312597Y-107534418D01*
X150370000Y-107523000D01*
X151820000Y-107523000D01*
X151877403Y-107534418D01*
G37*
G36*
X157027403Y-107534418D02*
G01*
X157076066Y-107566934D01*
X157108582Y-107615597D01*
X157120000Y-107673000D01*
X157120000Y-107973000D01*
X157108582Y-108030403D01*
X157076066Y-108079066D01*
X157027403Y-108111582D01*
X156970000Y-108123000D01*
X155520000Y-108123000D01*
X155462597Y-108111582D01*
X155413934Y-108079066D01*
X155381418Y-108030403D01*
X155370000Y-107973000D01*
X155370000Y-107673000D01*
X155381418Y-107615597D01*
X155413934Y-107566934D01*
X155462597Y-107534418D01*
X155520000Y-107523000D01*
X156970000Y-107523000D01*
X157027403Y-107534418D01*
G37*
G36*
X161378000Y-107515000D02*
G01*
X159678000Y-107515000D01*
X159678000Y-105815000D01*
X161378000Y-105815000D01*
X161378000Y-107515000D01*
G37*
G36*
X143535263Y-106114244D02*
G01*
X143661342Y-106148026D01*
X143774381Y-106213289D01*
X143866677Y-106305585D01*
X143931940Y-106418624D01*
X143965722Y-106544703D01*
X143965722Y-106675229D01*
X143931940Y-106801308D01*
X143866677Y-106914347D01*
X143774381Y-107006643D01*
X143661342Y-107071906D01*
X143535263Y-107105688D01*
X143470000Y-107109966D01*
X143468029Y-107109966D01*
X142871971Y-107109966D01*
X142870000Y-107109966D01*
X142804737Y-107105688D01*
X142678658Y-107071906D01*
X142565619Y-107006643D01*
X142473323Y-106914347D01*
X142408060Y-106801308D01*
X142374278Y-106675229D01*
X142374278Y-106544703D01*
X142408060Y-106418624D01*
X142473323Y-106305585D01*
X142565619Y-106213289D01*
X142678658Y-106148026D01*
X142804737Y-106114244D01*
X142870000Y-106109966D01*
X143470000Y-106109966D01*
X143535263Y-106114244D01*
G37*
G36*
X147965263Y-106114244D02*
G01*
X148091342Y-106148026D01*
X148204381Y-106213289D01*
X148296677Y-106305585D01*
X148361940Y-106418624D01*
X148395722Y-106544703D01*
X148395722Y-106675229D01*
X148361940Y-106801308D01*
X148296677Y-106914347D01*
X148204381Y-107006643D01*
X148091342Y-107071906D01*
X147965263Y-107105688D01*
X147900000Y-107109966D01*
X147898029Y-107109966D01*
X146801971Y-107109966D01*
X146800000Y-107109966D01*
X146734737Y-107105688D01*
X146608658Y-107071906D01*
X146495619Y-107006643D01*
X146403323Y-106914347D01*
X146338060Y-106801308D01*
X146304278Y-106675229D01*
X146304278Y-106544703D01*
X146338060Y-106418624D01*
X146403323Y-106305585D01*
X146495619Y-106213289D01*
X146608658Y-106148026D01*
X146734737Y-106114244D01*
X146800000Y-106109966D01*
X147900000Y-106109966D01*
X147965263Y-106114244D01*
G37*
G36*
X151877403Y-106264418D02*
G01*
X151926066Y-106296934D01*
X151958582Y-106345597D01*
X151970000Y-106403000D01*
X151970000Y-106703000D01*
X151958582Y-106760403D01*
X151926066Y-106809066D01*
X151877403Y-106841582D01*
X151820000Y-106853000D01*
X150370000Y-106853000D01*
X150312597Y-106841582D01*
X150263934Y-106809066D01*
X150231418Y-106760403D01*
X150220000Y-106703000D01*
X150220000Y-106403000D01*
X150231418Y-106345597D01*
X150263934Y-106296934D01*
X150312597Y-106264418D01*
X150370000Y-106253000D01*
X151820000Y-106253000D01*
X151877403Y-106264418D01*
G37*
G36*
X157027403Y-106264418D02*
G01*
X157076066Y-106296934D01*
X157108582Y-106345597D01*
X157120000Y-106403000D01*
X157120000Y-106703000D01*
X157108582Y-106760403D01*
X157076066Y-106809066D01*
X157027403Y-106841582D01*
X156970000Y-106853000D01*
X155520000Y-106853000D01*
X155462597Y-106841582D01*
X155413934Y-106809066D01*
X155381418Y-106760403D01*
X155370000Y-106703000D01*
X155370000Y-106403000D01*
X155381418Y-106345597D01*
X155413934Y-106296934D01*
X155462597Y-106264418D01*
X155520000Y-106253000D01*
X156970000Y-106253000D01*
X157027403Y-106264418D01*
G37*
G36*
X151877403Y-104994418D02*
G01*
X151926066Y-105026934D01*
X151958582Y-105075597D01*
X151970000Y-105133000D01*
X151970000Y-105433000D01*
X151958582Y-105490403D01*
X151926066Y-105539066D01*
X151877403Y-105571582D01*
X151820000Y-105583000D01*
X150370000Y-105583000D01*
X150312597Y-105571582D01*
X150263934Y-105539066D01*
X150231418Y-105490403D01*
X150220000Y-105433000D01*
X150220000Y-105133000D01*
X150231418Y-105075597D01*
X150263934Y-105026934D01*
X150312597Y-104994418D01*
X150370000Y-104983000D01*
X151820000Y-104983000D01*
X151877403Y-104994418D01*
G37*
G36*
X157027403Y-104994418D02*
G01*
X157076066Y-105026934D01*
X157108582Y-105075597D01*
X157120000Y-105133000D01*
X157120000Y-105433000D01*
X157108582Y-105490403D01*
X157076066Y-105539066D01*
X157027403Y-105571582D01*
X156970000Y-105583000D01*
X155520000Y-105583000D01*
X155462597Y-105571582D01*
X155413934Y-105539066D01*
X155381418Y-105490403D01*
X155370000Y-105433000D01*
X155370000Y-105133000D01*
X155381418Y-105075597D01*
X155413934Y-105026934D01*
X155462597Y-104994418D01*
X155520000Y-104983000D01*
X156970000Y-104983000D01*
X157027403Y-104994418D01*
G37*
G36*
X146944372Y-104879705D02*
G01*
X147017847Y-104922126D01*
X147077840Y-104982119D01*
X147120261Y-105055594D01*
X147142220Y-105137545D01*
X147142220Y-105222387D01*
X147120261Y-105304338D01*
X147077840Y-105377813D01*
X147017847Y-105437806D01*
X146944372Y-105480227D01*
X146862421Y-105502186D01*
X146777579Y-105502186D01*
X146695628Y-105480227D01*
X146622153Y-105437806D01*
X146562160Y-105377813D01*
X146519739Y-105304338D01*
X146497780Y-105222387D01*
X146497780Y-105137545D01*
X146519739Y-105055594D01*
X146562160Y-104982119D01*
X146622153Y-104922126D01*
X146695628Y-104879705D01*
X146777579Y-104857746D01*
X146862421Y-104857746D01*
X146944372Y-104879705D01*
G37*
G36*
X160774742Y-103311601D02*
G01*
X160928687Y-103375367D01*
X161067234Y-103467941D01*
X161185059Y-103585766D01*
X161277633Y-103724313D01*
X161341399Y-103878258D01*
X161373907Y-104041685D01*
X161373907Y-104208315D01*
X161341399Y-104371742D01*
X161277633Y-104525687D01*
X161185059Y-104664234D01*
X161067234Y-104782059D01*
X160928687Y-104874633D01*
X160774742Y-104938399D01*
X160611315Y-104970907D01*
X160444685Y-104970907D01*
X160281258Y-104938399D01*
X160127313Y-104874633D01*
X159988766Y-104782059D01*
X159870941Y-104664234D01*
X159778367Y-104525687D01*
X159714601Y-104371742D01*
X159682093Y-104208315D01*
X159682093Y-104041685D01*
X159714601Y-103878258D01*
X159778367Y-103724313D01*
X159870941Y-103585766D01*
X159988766Y-103467941D01*
X160127313Y-103375367D01*
X160281258Y-103311601D01*
X160444685Y-103279093D01*
X160611315Y-103279093D01*
X160774742Y-103311601D01*
G37*
G36*
X151877403Y-103724418D02*
G01*
X151926066Y-103756934D01*
X151958582Y-103805597D01*
X151970000Y-103863000D01*
X151970000Y-104163000D01*
X151958582Y-104220403D01*
X151926066Y-104269066D01*
X151877403Y-104301582D01*
X151820000Y-104313000D01*
X150370000Y-104313000D01*
X150312597Y-104301582D01*
X150263934Y-104269066D01*
X150231418Y-104220403D01*
X150220000Y-104163000D01*
X150220000Y-103863000D01*
X150231418Y-103805597D01*
X150263934Y-103756934D01*
X150312597Y-103724418D01*
X150370000Y-103713000D01*
X151820000Y-103713000D01*
X151877403Y-103724418D01*
G37*
G36*
X157027403Y-103724418D02*
G01*
X157076066Y-103756934D01*
X157108582Y-103805597D01*
X157120000Y-103863000D01*
X157120000Y-104163000D01*
X157108582Y-104220403D01*
X157076066Y-104269066D01*
X157027403Y-104301582D01*
X156970000Y-104313000D01*
X155520000Y-104313000D01*
X155462597Y-104301582D01*
X155413934Y-104269066D01*
X155381418Y-104220403D01*
X155370000Y-104163000D01*
X155370000Y-103863000D01*
X155381418Y-103805597D01*
X155413934Y-103756934D01*
X155462597Y-103724418D01*
X155520000Y-103713000D01*
X156970000Y-103713000D01*
X157027403Y-103724418D01*
G37*
G36*
X143977537Y-102340224D02*
G01*
X144042421Y-102383579D01*
X144085776Y-102448463D01*
X144101000Y-102525000D01*
X144101000Y-103075000D01*
X144085776Y-103151537D01*
X144042421Y-103216421D01*
X143977537Y-103259776D01*
X143901000Y-103275000D01*
X143501000Y-103275000D01*
X143424463Y-103259776D01*
X143359579Y-103216421D01*
X143316224Y-103151537D01*
X143301000Y-103075000D01*
X143301000Y-102525000D01*
X143316224Y-102448463D01*
X143359579Y-102383579D01*
X143424463Y-102340224D01*
X143501000Y-102325000D01*
X143901000Y-102325000D01*
X143977537Y-102340224D01*
G37*
G36*
X145627537Y-102340224D02*
G01*
X145692421Y-102383579D01*
X145735776Y-102448463D01*
X145751000Y-102525000D01*
X145751000Y-103075000D01*
X145735776Y-103151537D01*
X145692421Y-103216421D01*
X145627537Y-103259776D01*
X145551000Y-103275000D01*
X145151000Y-103275000D01*
X145074463Y-103259776D01*
X145009579Y-103216421D01*
X144966224Y-103151537D01*
X144951000Y-103075000D01*
X144951000Y-102525000D01*
X144966224Y-102448463D01*
X145009579Y-102383579D01*
X145074463Y-102340224D01*
X145151000Y-102325000D01*
X145551000Y-102325000D01*
X145627537Y-102340224D01*
G37*
G36*
X151498804Y-101158850D02*
G01*
X151561706Y-101164749D01*
X151577701Y-101170346D01*
X151600734Y-101173702D01*
X151634585Y-101190251D01*
X151668642Y-101202168D01*
X151687635Y-101216185D01*
X151711637Y-101227919D01*
X151734463Y-101250745D01*
X151758419Y-101268425D01*
X151776098Y-101292380D01*
X151798926Y-101315208D01*
X151810660Y-101339211D01*
X151824676Y-101358202D01*
X151836591Y-101392254D01*
X151853143Y-101426111D01*
X151856499Y-101449146D01*
X151862095Y-101465138D01*
X151867991Y-101528024D01*
X151868733Y-101533112D01*
X151868733Y-102283112D01*
X151867991Y-102288203D01*
X151862095Y-102351085D01*
X151856499Y-102367075D01*
X151853143Y-102390113D01*
X151836590Y-102423971D01*
X151824676Y-102458021D01*
X151810661Y-102477010D01*
X151798926Y-102501016D01*
X151776095Y-102523846D01*
X151758419Y-102547798D01*
X151734467Y-102565474D01*
X151711637Y-102588305D01*
X151687631Y-102600040D01*
X151668642Y-102614055D01*
X151634592Y-102625969D01*
X151600734Y-102642522D01*
X151577696Y-102645878D01*
X151561706Y-102651474D01*
X151498822Y-102657370D01*
X151493733Y-102658112D01*
X150243733Y-102658112D01*
X150238643Y-102657370D01*
X150175759Y-102651474D01*
X150159767Y-102645878D01*
X150136732Y-102642522D01*
X150102875Y-102625970D01*
X150068823Y-102614055D01*
X150049832Y-102600039D01*
X150025829Y-102588305D01*
X150003001Y-102565477D01*
X149979046Y-102547798D01*
X149961366Y-102523842D01*
X149938540Y-102501016D01*
X149926806Y-102477014D01*
X149912789Y-102458021D01*
X149900872Y-102423964D01*
X149884323Y-102390113D01*
X149880967Y-102367080D01*
X149875370Y-102351085D01*
X149869471Y-102288182D01*
X149868733Y-102283112D01*
X149868733Y-101533112D01*
X149869471Y-101528042D01*
X149875370Y-101465138D01*
X149880967Y-101449141D01*
X149884323Y-101426111D01*
X149900870Y-101392261D01*
X149912789Y-101358202D01*
X149926807Y-101339207D01*
X149938540Y-101315208D01*
X149961363Y-101292384D01*
X149979046Y-101268425D01*
X150003005Y-101250742D01*
X150025829Y-101227919D01*
X150049828Y-101216186D01*
X150068823Y-101202168D01*
X150102882Y-101190249D01*
X150136732Y-101173702D01*
X150159762Y-101170346D01*
X150175759Y-101164749D01*
X150238664Y-101158850D01*
X150243733Y-101158112D01*
X151493733Y-101158112D01*
X151498804Y-101158850D01*
G37*
G36*
X160774742Y-100771601D02*
G01*
X160928687Y-100835367D01*
X161067234Y-100927941D01*
X161185059Y-101045766D01*
X161277633Y-101184313D01*
X161341399Y-101338258D01*
X161373907Y-101501685D01*
X161373907Y-101668315D01*
X161341399Y-101831742D01*
X161277633Y-101985687D01*
X161185059Y-102124234D01*
X161067234Y-102242059D01*
X160928687Y-102334633D01*
X160774742Y-102398399D01*
X160611315Y-102430907D01*
X160444685Y-102430907D01*
X160281258Y-102398399D01*
X160127313Y-102334633D01*
X159988766Y-102242059D01*
X159870941Y-102124234D01*
X159778367Y-101985687D01*
X159714601Y-101831742D01*
X159682093Y-101668315D01*
X159682093Y-101501685D01*
X159714601Y-101338258D01*
X159778367Y-101184313D01*
X159870941Y-101045766D01*
X159988766Y-100927941D01*
X160127313Y-100835367D01*
X160281258Y-100771601D01*
X160444685Y-100739093D01*
X160611315Y-100739093D01*
X160774742Y-100771601D01*
G37*
G36*
X143977537Y-100840224D02*
G01*
X144042421Y-100883579D01*
X144085776Y-100948463D01*
X144101000Y-101025000D01*
X144101000Y-101575000D01*
X144085776Y-101651537D01*
X144042421Y-101716421D01*
X143977537Y-101759776D01*
X143901000Y-101775000D01*
X143501000Y-101775000D01*
X143424463Y-101759776D01*
X143359579Y-101716421D01*
X143316224Y-101651537D01*
X143301000Y-101575000D01*
X143301000Y-101025000D01*
X143316224Y-100948463D01*
X143359579Y-100883579D01*
X143424463Y-100840224D01*
X143501000Y-100825000D01*
X143901000Y-100825000D01*
X143977537Y-100840224D01*
G37*
G36*
X145627537Y-100840224D02*
G01*
X145692421Y-100883579D01*
X145735776Y-100948463D01*
X145751000Y-101025000D01*
X145751000Y-101575000D01*
X145735776Y-101651537D01*
X145692421Y-101716421D01*
X145627537Y-101759776D01*
X145551000Y-101775000D01*
X145151000Y-101775000D01*
X145074463Y-101759776D01*
X145009579Y-101716421D01*
X144966224Y-101651537D01*
X144951000Y-101575000D01*
X144951000Y-101025000D01*
X144966224Y-100948463D01*
X145009579Y-100883579D01*
X145074463Y-100840224D01*
X145151000Y-100825000D01*
X145551000Y-100825000D01*
X145627537Y-100840224D01*
G37*
G36*
X157775016Y-97719539D02*
G01*
X157782001Y-97722144D01*
X157786495Y-97722684D01*
X157839664Y-97743651D01*
X157908357Y-97769273D01*
X157912501Y-97772375D01*
X157913509Y-97772773D01*
X157950149Y-97800558D01*
X158022286Y-97854559D01*
X158076305Y-97926720D01*
X158104071Y-97963335D01*
X158104467Y-97964341D01*
X158107572Y-97968488D01*
X158133203Y-98037208D01*
X158154160Y-98090349D01*
X158154699Y-98094840D01*
X158157306Y-98101829D01*
X158168733Y-98208112D01*
X158168733Y-101008112D01*
X158157306Y-101114395D01*
X158154699Y-101121384D01*
X158154160Y-101125874D01*
X158133210Y-101178996D01*
X158107572Y-101247736D01*
X158104467Y-101251883D01*
X158104071Y-101252888D01*
X158076363Y-101289425D01*
X158022286Y-101361665D01*
X157950046Y-101415742D01*
X157913509Y-101443450D01*
X157912504Y-101443846D01*
X157908357Y-101446951D01*
X157839617Y-101472589D01*
X157786495Y-101493539D01*
X157782005Y-101494078D01*
X157775016Y-101496685D01*
X157668733Y-101508112D01*
X156668733Y-101508112D01*
X156562450Y-101496685D01*
X156555461Y-101494078D01*
X156550970Y-101493539D01*
X156497829Y-101472582D01*
X156429109Y-101446951D01*
X156424962Y-101443846D01*
X156423956Y-101443450D01*
X156387341Y-101415684D01*
X156315180Y-101361665D01*
X156261179Y-101289528D01*
X156233394Y-101252888D01*
X156232996Y-101251880D01*
X156229894Y-101247736D01*
X156204272Y-101179043D01*
X156183305Y-101125874D01*
X156182765Y-101121380D01*
X156180160Y-101114395D01*
X156168733Y-101008112D01*
X156168733Y-98208112D01*
X156180160Y-98101829D01*
X156182765Y-98094844D01*
X156183305Y-98090349D01*
X156204279Y-98037161D01*
X156229894Y-97968488D01*
X156232996Y-97964344D01*
X156233394Y-97963335D01*
X156261237Y-97926618D01*
X156315180Y-97854559D01*
X156387239Y-97800616D01*
X156423956Y-97772773D01*
X156424965Y-97772375D01*
X156429109Y-97769273D01*
X156497782Y-97743658D01*
X156550970Y-97722684D01*
X156555465Y-97722144D01*
X156562450Y-97719539D01*
X156668733Y-97708112D01*
X157668733Y-97708112D01*
X157775016Y-97719539D01*
G37*
G36*
X151498804Y-98858850D02*
G01*
X151561706Y-98864749D01*
X151577701Y-98870346D01*
X151600734Y-98873702D01*
X151634585Y-98890251D01*
X151668642Y-98902168D01*
X151687635Y-98916185D01*
X151711637Y-98927919D01*
X151734463Y-98950745D01*
X151758419Y-98968425D01*
X151776098Y-98992380D01*
X151798926Y-99015208D01*
X151810660Y-99039211D01*
X151824676Y-99058202D01*
X151836591Y-99092254D01*
X151853143Y-99126111D01*
X151856499Y-99149146D01*
X151862095Y-99165138D01*
X151867991Y-99228024D01*
X151868733Y-99233112D01*
X151868733Y-99983112D01*
X151867991Y-99988203D01*
X151862095Y-100051085D01*
X151856499Y-100067075D01*
X151853143Y-100090113D01*
X151836590Y-100123971D01*
X151824676Y-100158021D01*
X151810661Y-100177010D01*
X151798926Y-100201016D01*
X151776095Y-100223846D01*
X151758419Y-100247798D01*
X151734467Y-100265474D01*
X151711637Y-100288305D01*
X151687631Y-100300040D01*
X151668642Y-100314055D01*
X151634592Y-100325969D01*
X151600734Y-100342522D01*
X151577696Y-100345878D01*
X151561706Y-100351474D01*
X151498822Y-100357370D01*
X151493733Y-100358112D01*
X150243733Y-100358112D01*
X150238643Y-100357370D01*
X150175759Y-100351474D01*
X150159767Y-100345878D01*
X150136732Y-100342522D01*
X150102875Y-100325970D01*
X150068823Y-100314055D01*
X150049832Y-100300039D01*
X150025829Y-100288305D01*
X150003001Y-100265477D01*
X149979046Y-100247798D01*
X149961366Y-100223842D01*
X149938540Y-100201016D01*
X149926806Y-100177014D01*
X149912789Y-100158021D01*
X149900872Y-100123964D01*
X149884323Y-100090113D01*
X149880967Y-100067080D01*
X149875370Y-100051085D01*
X149869471Y-99988182D01*
X149868733Y-99983112D01*
X149868733Y-99233112D01*
X149869471Y-99228042D01*
X149875370Y-99165138D01*
X149880967Y-99149141D01*
X149884323Y-99126111D01*
X149900870Y-99092261D01*
X149912789Y-99058202D01*
X149926807Y-99039207D01*
X149938540Y-99015208D01*
X149961363Y-98992384D01*
X149979046Y-98968425D01*
X150003005Y-98950742D01*
X150025829Y-98927919D01*
X150049828Y-98916186D01*
X150068823Y-98902168D01*
X150102882Y-98890249D01*
X150136732Y-98873702D01*
X150159762Y-98870346D01*
X150175759Y-98864749D01*
X150238664Y-98858850D01*
X150243733Y-98858112D01*
X151493733Y-98858112D01*
X151498804Y-98858850D01*
G37*
G36*
X146944372Y-99099705D02*
G01*
X147017847Y-99142126D01*
X147077840Y-99202119D01*
X147120261Y-99275594D01*
X147142220Y-99357545D01*
X147142220Y-99442387D01*
X147120261Y-99524338D01*
X147077840Y-99597813D01*
X147017847Y-99657806D01*
X146944372Y-99700227D01*
X146862421Y-99722186D01*
X146777579Y-99722186D01*
X146695628Y-99700227D01*
X146622153Y-99657806D01*
X146562160Y-99597813D01*
X146519739Y-99524338D01*
X146497780Y-99442387D01*
X146497780Y-99357545D01*
X146519739Y-99275594D01*
X146562160Y-99202119D01*
X146622153Y-99142126D01*
X146695628Y-99099705D01*
X146777579Y-99077746D01*
X146862421Y-99077746D01*
X146944372Y-99099705D01*
G37*
G36*
X143535263Y-97474244D02*
G01*
X143661342Y-97508026D01*
X143774381Y-97573289D01*
X143866677Y-97665585D01*
X143931940Y-97778624D01*
X143965722Y-97904703D01*
X143965722Y-98035229D01*
X143931940Y-98161308D01*
X143866677Y-98274347D01*
X143774381Y-98366643D01*
X143661342Y-98431906D01*
X143535263Y-98465688D01*
X143470000Y-98469966D01*
X143468029Y-98469966D01*
X142871971Y-98469966D01*
X142870000Y-98469966D01*
X142804737Y-98465688D01*
X142678658Y-98431906D01*
X142565619Y-98366643D01*
X142473323Y-98274347D01*
X142408060Y-98161308D01*
X142374278Y-98035229D01*
X142374278Y-97904703D01*
X142408060Y-97778624D01*
X142473323Y-97665585D01*
X142565619Y-97573289D01*
X142678658Y-97508026D01*
X142804737Y-97474244D01*
X142870000Y-97469966D01*
X143470000Y-97469966D01*
X143535263Y-97474244D01*
G37*
G36*
X147965263Y-97474244D02*
G01*
X148091342Y-97508026D01*
X148204381Y-97573289D01*
X148296677Y-97665585D01*
X148361940Y-97778624D01*
X148395722Y-97904703D01*
X148395722Y-98035229D01*
X148361940Y-98161308D01*
X148296677Y-98274347D01*
X148204381Y-98366643D01*
X148091342Y-98431906D01*
X147965263Y-98465688D01*
X147900000Y-98469966D01*
X147898029Y-98469966D01*
X146801971Y-98469966D01*
X146800000Y-98469966D01*
X146734737Y-98465688D01*
X146608658Y-98431906D01*
X146495619Y-98366643D01*
X146403323Y-98274347D01*
X146338060Y-98161308D01*
X146304278Y-98035229D01*
X146304278Y-97904703D01*
X146338060Y-97778624D01*
X146403323Y-97665585D01*
X146495619Y-97573289D01*
X146608658Y-97508026D01*
X146734737Y-97474244D01*
X146800000Y-97469966D01*
X147900000Y-97469966D01*
X147965263Y-97474244D01*
G37*
G36*
X151498804Y-96558850D02*
G01*
X151561706Y-96564749D01*
X151577701Y-96570346D01*
X151600734Y-96573702D01*
X151634585Y-96590251D01*
X151668642Y-96602168D01*
X151687635Y-96616185D01*
X151711637Y-96627919D01*
X151734463Y-96650745D01*
X151758419Y-96668425D01*
X151776098Y-96692380D01*
X151798926Y-96715208D01*
X151810660Y-96739211D01*
X151824676Y-96758202D01*
X151836591Y-96792254D01*
X151853143Y-96826111D01*
X151856499Y-96849146D01*
X151862095Y-96865138D01*
X151867991Y-96928024D01*
X151868733Y-96933112D01*
X151868733Y-97683112D01*
X151867991Y-97688203D01*
X151862095Y-97751085D01*
X151856499Y-97767075D01*
X151853143Y-97790113D01*
X151836590Y-97823971D01*
X151824676Y-97858021D01*
X151810661Y-97877010D01*
X151798926Y-97901016D01*
X151776095Y-97923846D01*
X151758419Y-97947798D01*
X151734467Y-97965474D01*
X151711637Y-97988305D01*
X151687631Y-98000040D01*
X151668642Y-98014055D01*
X151634592Y-98025969D01*
X151600734Y-98042522D01*
X151577696Y-98045878D01*
X151561706Y-98051474D01*
X151498822Y-98057370D01*
X151493733Y-98058112D01*
X150243733Y-98058112D01*
X150238643Y-98057370D01*
X150175759Y-98051474D01*
X150159767Y-98045878D01*
X150136732Y-98042522D01*
X150102875Y-98025970D01*
X150068823Y-98014055D01*
X150049832Y-98000039D01*
X150025829Y-97988305D01*
X150003001Y-97965477D01*
X149979046Y-97947798D01*
X149961366Y-97923842D01*
X149938540Y-97901016D01*
X149926806Y-97877014D01*
X149912789Y-97858021D01*
X149900872Y-97823964D01*
X149884323Y-97790113D01*
X149880967Y-97767080D01*
X149875370Y-97751085D01*
X149869471Y-97688182D01*
X149868733Y-97683112D01*
X149868733Y-96933112D01*
X149869471Y-96928042D01*
X149875370Y-96865138D01*
X149880967Y-96849141D01*
X149884323Y-96826111D01*
X149900870Y-96792261D01*
X149912789Y-96758202D01*
X149926807Y-96739207D01*
X149938540Y-96715208D01*
X149961363Y-96692384D01*
X149979046Y-96668425D01*
X150003005Y-96650742D01*
X150025829Y-96627919D01*
X150049828Y-96616186D01*
X150068823Y-96602168D01*
X150102882Y-96590249D01*
X150136732Y-96573702D01*
X150159762Y-96570346D01*
X150175759Y-96564749D01*
X150238664Y-96558850D01*
X150243733Y-96558112D01*
X151493733Y-96558112D01*
X151498804Y-96558850D01*
G37*
M02*
